<?xml version="1.0" encoding="UTF-8" standalone="no"?>
<!DOCTYPE svg PUBLIC "-//W3C//DTD SVG 1.1//EN" "http://www.w3.org/Graphics/SVG/1.1/DTD/svg11.dtd">
<svg xmlns="http://www.w3.org/2000/svg" xmlns:xlink="http://www.w3.org/1999/xlink" version="1.1" width="595.276pt" height="841.89pt" viewBox="0 0 595.276 841.89">
<g enable-background="new">
<g>
<g id="Layer-1" data-name="Artifact">
<clipPath id="cp696">
<path transform="matrix(1,0,0,-1,0,841.89)" d="M 0 0 L 595.276 0 L 595.276 841.89 L 0 841.89 Z "/>
</clipPath>
<g clip-path="url(#cp696)">
<filter id="blend_3"><feBlend mode="overlay" in2="BackgroundImage" in="SourceGraphic"/></filter>
<g filter="url(#blend_3)">
<clipPath id="cp697">
<path transform="matrix(1,0,0,-1,0,841.89)" d="M 69.9595 405.948 L 525.503 405.948 L 525.503 408.448 L 69.9595 408.448 Z "/>
</clipPath>
<g clip-path="url(#cp697)">
<path transform="matrix(1,0,0,-1,70.9595,434.6924)" stroke-width=".5" stroke-linecap="butt" stroke-miterlimit="4" stroke-linejoin="miter" fill="none" stroke="#b9bbbd" d="M 0 0 L 453.543 0 "/>
</g>
</g>
</g>
<g id="Layer-1" data-name="Span">
</g>
<text fill="#10a79d" xml:space="preserve" transform="matrix(1 0 -0 1 0 841.89)" font-size="15" font-family="Roboto"><tspan y="-361.2747" x="70.9595 79.49451 87.95301 95.7095 101.1815 109.70601 113.44101 121.71651 130.22151 138.16101 143.309 151.76902 155.567 160.46901 168.97402 174.27951 182.81752 188.13652 196.65653 204.50902 208.24402 216.74903 221.64203 229.58904 237.96355 242.86556 251.37056 256.63557 260.37055 268.87556 274.02204 282.48954 290.67353 299.13053 302.90904 310.67304 318.75505 326.39756 330.30656 338.82206 347.32707 355.27406">302-2 Energiforbruk utenfor organisasjonen</tspan></text>
</g>
<path transform="matrix(1,0,0,-1,427.9071,559.79678)" stroke-width=".439" stroke-linecap="butt" stroke-miterlimit="10" stroke-linejoin="miter" fill="none" stroke="#1e5e9e" d="M 0 0 L 10.217 0 "/>
<g id="Layer-1" data-name="Span">
</g>
<g id="Layer-1" data-name="Span">
</g>
<g id="Layer-1" data-name="Span">
</g>
<g id="Layer-1" data-name="Span">
</g>
<g id="Layer-1" data-name="Span">
</g>
<g id="Layer-1" data-name="Span">
<text fill="#404041" xml:space="preserve" transform="matrix(1 0 -0 1 0 841.89)" font-size="9" font-family="Roboto"><tspan y="-336.7524" x="70.9595 75.9716 81.0512 84.0752 87.7292 92.4353 95.459308 99.113307 104.19201 109.14111 113.48451 118.20951 123.21351 125.22951 130.29291 135.2762 139.9112 144.7064 147.59542 152.20162 156.90682 161.84781 165.52881 170.4698 175.40001 178.42401 182.078 184.09401 188.97922 193.37932 197.93332 201.56932 206.62194 209.64594 214.73183 219.76462 224.70561 229.38382 234.08992 237.10222 241.75522 246.43613 248.15512 251.76412 256.859 261.854 265.48103 269.75334 274.79335 279.40763 282.34074 287.28175 292.10575 297.26277 301.96797 307.03047 311.68348 315.27449 320.01838 324.34739 328.02839 330.82289 335.9025 338.9148 343.59303 346.48204 350.10096 355.20307 357.96519 363.1996 365.3425 370.4257 373.44969 377.1037 381.82783 386.76524 388.91624 392.52525 397.70024 402.85813 409.50914 413.11814 417.86204 422.19105 425.87205 427.88804 432.95146 437.98786 442.49598 444.6389 449.7212 454.70719 459.33317 463.60636 468.64637 473.26155 476.19377 481.13478 485.95878 491.11579 495.8219 500.8835 505.50413 507.65513 511.26414 516.53817 521.3963 524.4203">F&#x00f4;r er hovedinnsatsen n&#x00e5;r laks produseres, og kostnadene av f&#x00f4;ret utgj&#x00f8;r ca. 50% av innkj&#x00f8;pskostnadene. V&#x00e5;r </tspan><tspan y="-325.95243" x="70.9595 73.754009 78.8336 82.007907 87.0614 90.0854 95.1704 100.2041 105.1451 109.8233 114.5285 119.494709 122.383708 124.170207 128.87541 131.89942 133.72731 139.0814 147.0896 153.2951 158.8571 160.5761 162.359 167.45389 172.44889 174.24259 177.1892 182.0132 184.0229 186.10372 190.80982 195.87142 200.52442 202.2857 205.08022 210.1598 213.34311 218.4461 221.33512 223.12162 225.91613 230.99571 234.01972 235.84761 240.91191 246.01853 251.08281 256.12013 257.8391 259.622 264.32814 267.3521 269.17915 274.23173 279.03593 283.6412 288.34733 291.7745 294.6635 296.45 301.5017 306.3257 308.12034 312.82554 317.76655 319.61515 322.36915 327.30924 330.25584 335.07984 337.09584 338.90306 346.93736 351.64347 356.6808 361.73878 366.80577 371.45878 373.21739 376.01188 381.0915 384.11549 385.9434 391.03739 396.03239 397.827 402.5043 405.3933 407.18074 411.77973 416.78825 418.89335 422.05326 424.97016 430.07228 432.96128 437.52696 439.53575 441.55174 446.63133 451.6173 456.2586 459.2052 464.0292 466.0389 468.0549 469.86213 474.471 479.56053 487.53453 489.31654 494.02174 497.04573 498.87275 501.66725 506.74775 509.77174 514.83877 519.5107 521.6158 524.50479">f&#x00f4;rprodusent er EWOS, og tallene forut for 2020, er basert p&#x00e5; en total mengde f&#x00f4;r og et snittutslippstall som er fordelt </tspan><tspan y="-315.15245" x="70.9595 73.089809 77.7338 82.22751 87.19371 90.08271 92.521709 97.5734 102.3974 104.8409 109.9052 114.713 119.152698 124.3493 127.8296 132.89389 137.70168 142.15039 147.11928 149.27028 151.70027 157.85358 162.53089 165.41989 167.85889 172.9412 177.6671 180.41661 185.06961 187.47711 192.18231 197.24481 201.95001 204.96231 209.9573 212.03362 214.82813 219.90772 223.08202 228.13553 231.31884 236.35703 240.62483 245.30304 248.19205 250.63105 252.64705 255.10405 260.16838 264.97618 269.42488 274.40278 276.12178 278.55088 283.25608 286.28007 288.75508 293.46028 298.40129 300.89878 305.17109 310.2516 315.234 319.84019 324.54539 329.25779 333.60209 338.30729 343.2906 347.84458 350.30158 355.04548 359.37449 361.8765 366.9444 371.6496 376.5906 379.0881 383.7933 388.1943 392.8086 395.7417 398.7657 403.6824 408.76203 411.786 416.79 418.806 423.8298 431.74803 434.7603 439.41334 441.82084 446.64485 448.69865 453.77375 458.42677 462.99244 465.09754 468.01445 473.05805 477.86225 482.41624 484.55915 489.63966 494.70127 499.40739 504.3484 506.8459 511.45478 516.54428 524.51828">jevnt p&#x00e5; 2016-2019. Det &#x00f8;kte energiforbruket i 2019, er en konsekvens av den ekstraordin&#x00e6;re algesituasjonen som </tspan><tspan y="-304.35246" x="70.9595 75.50901 78.52131 83.165309 87.49431 92.56221 97.21521 99.40221 107.26101 111.62241 116.27541 118.46241 123.14781 127.54791 132.16312 135.09622 138.12023 142.94423 145.13123 150.05063 153.22493 158.31894 162.99085 165.05365 170.14044 172.29145">krevde mye ekstra arbeid. </tspan><tspan y="-282.75245" x="70.9595 77.11191 81.79011 84.950008 87.6986 92.3516 94.5386 99.7541 101.8844 106.5905 111.5729 116.1728 121.2668 125.9387 127.947498 130.0292 134.6822 139.2362 141.4232 146.54599 151.54099 156.19399 161.01799 163.20499 165.221 167.40799 172.5353 177.2621 180.01071 184.66371 186.85071 188.92522 194.00753 199.04482 204.0272 208.59381 213.6959 216.62902 221.72303 226.40123 229.34784 234.17185 236.18065 238.19666 243.26096 248.33605 253.04215 255.69263 257.41163 259.59864 264.2102 268.86323 271.05024 276.60774 281.64775 286.2134 288.2294 293.0804 295.1621 299.81513 302.00215 304.77684 309.85646 313.03074 318.11036 323.16746 325.23115 330.23515 332.42216 337.47117 342.51747 347.58445 352.29057 355.31455 357.50157 362.62617 367.70848 372.25798 376.52577 381.19767 383.30278 386.24937 391.07337 393.08308 395.09907 397.28608 402.36659 407.19059 409.3776 413.9586 416.02229 421.08927 425.74229">Dette gjenspeiles ogs&#x00e5; i &#x00f8;kte l&#x00f8;nnsutbetalinger, se Sosiale forhold under n&#x00f8;kkeltall p&#x00e5; side </tspan></text>
</g>
<g id="Layer-1" data-name="Span">
<text fill="#1e5e9e" xml:space="preserve" transform="matrix(1 0 -0 1 0 841.89)" font-size="9" font-family="Roboto"><tspan y="-282.75245" x="427.9085 433.16453">30</tspan></text>
</g>
<g id="Layer-1" data-name="Span">
</g>
<text fill="#404041" xml:space="preserve" transform="matrix(1 0 -0 1 0 841.89)" font-size="9" font-family="Roboto"><tspan y="-282.75245" x="438.1235">.</tspan></text>
<text fill="#404041" xml:space="preserve" transform="matrix(1 0 -0 1 0 841.89)" font-size="12" font-family="Roboto"><tspan y="-250.4536" x="70.7728 76.807598 83.360797 90.1888 96.514 99.553607 102.661609 105.649608 112.49441 119.27441 125.49641 129.892 136.708 139.696 143.8228 150.784 161.1232 169.3192 176.3176">Tabell 302-2 (EWOS)</tspan></text>
<path transform="matrix(1,0,0,-1,0,841.89)" d="M 70.959 140.46 L 185.70401 140.46 L 185.70401 124.198009 L 70.959 124.198009 Z M 185.704 140.46 L 253.426 140.46 L 253.426 124.198009 L 185.704 124.198009 Z M 253.427 140.46 L 321.149 140.46 L 321.149 124.198009 L 253.427 124.198009 Z M 321.149 140.46 L 388.87098 140.46 L 388.87098 124.198009 L 321.149 124.198009 Z M 388.871 140.46 L 456.59303 140.46 L 456.59303 124.198009 L 388.871 124.198009 Z M 456.594 140.46 L 524.316 140.46 L 524.316 124.198009 L 456.594 124.198009 Z M 70.959 124.198 L 185.70401 124.198 L 185.70401 107.936 L 70.959 107.936 Z M 185.704 124.198 L 253.426 124.198 L 253.426 107.936 L 185.704 107.936 Z M 253.427 124.198 L 321.149 124.198 L 321.149 107.936 L 253.427 107.936 Z M 321.149 124.198 L 388.87098 124.198 L 388.87098 107.936 L 321.149 107.936 Z M 388.871 124.198 L 456.59303 124.198 L 456.59303 107.936 L 388.871 107.936 Z M 456.594 124.198 L 524.316 124.198 L 524.316 107.936 L 456.594 107.936 Z M 70.959 107.935 L 185.70401 107.935 L 185.70401 91.673 L 70.959 91.673 Z M 185.704 107.935 L 253.426 107.935 L 253.426 91.673 L 185.704 91.673 Z M 253.427 107.935 L 321.149 107.935 L 321.149 91.673 L 253.427 91.673 Z M 321.149 107.935 L 388.87098 107.935 L 388.87098 91.673 L 321.149 91.673 Z M 388.871 107.935 L 456.59303 107.935 L 456.59303 91.673 L 388.871 91.673 Z M 456.594 107.935 L 524.316 107.935 L 524.316 91.673 L 456.594 91.673 Z " fill="#e8f3f1"/>
<path transform="matrix(1,0,0,-1,70.9595,619.6182)" stroke-width="1" stroke-linecap="butt" stroke-miterlimit="10" stroke-linejoin="miter" fill="none" stroke="#231f20" d="M 0 0 L 114.745 0 "/>
<path transform="matrix(1,0,0,-1,185.7041,619.6182)" stroke-width="1" stroke-linecap="butt" stroke-miterlimit="10" stroke-linejoin="miter" fill="none" stroke="#231f20" d="M 0 0 L 67.722 0 "/>
<path transform="matrix(1,0,0,-1,253.4265,619.6182)" stroke-width="1" stroke-linecap="butt" stroke-miterlimit="10" stroke-linejoin="miter" fill="none" stroke="#231f20" d="M 0 0 L 67.722 0 "/>
<path transform="matrix(1,0,0,-1,321.1489,619.6182)" stroke-width="1" stroke-linecap="butt" stroke-miterlimit="10" stroke-linejoin="miter" fill="none" stroke="#231f20" d="M 0 0 L 67.722 0 "/>
<path transform="matrix(1,0,0,-1,388.8713,619.6182)" stroke-width="1" stroke-linecap="butt" stroke-miterlimit="10" stroke-linejoin="miter" fill="none" stroke="#231f20" d="M 0 0 L 67.722 0 "/>
<path transform="matrix(1,0,0,-1,456.5937,619.6182)" stroke-width="1" stroke-linecap="butt" stroke-miterlimit="10" stroke-linejoin="miter" fill="none" stroke="#231f20" d="M 0 0 L 67.722 0 "/>
<g id="Layer-1" data-name="Span">
</g>
<g id="Layer-1" data-name="Span">
</g>
<g id="Layer-1" data-name="Span">
</g>
<g id="Layer-1" data-name="Span">
</g>
<g id="Layer-1" data-name="Span">
</g>
<g id="Layer-1" data-name="Span">
<text fill="#10a79d" xml:space="preserve" transform="matrix(1 0 -0 1 0 841.89)" font-size="12" font-family="Roboto" font-weight="bold"><tspan y="-227.5458" x="223.0587 229.8483 236.31389 242.54189 290.8707 297.6603 304.12715 310.26277 358.56269 365.35227 371.81907 377.98945 426.33869 433.12828 439.59507 445.71507 492.95069 499.74269 506.65229 513.4443">20162017201820192020</tspan></text>
</g>
<g id="Layer-1" data-name="Span">
<text fill="#231f20" xml:space="preserve" transform="matrix(1 0 -0 1 0 841.89)" font-size="9" font-family="Roboto"><tspan y="-194.0032" x="74.9594 79.6394 84.728 89.7644 94.7747">Tonn </tspan></text>
</g>
<g id="Layer-1" data-name="Span">
<text fill="#2b3b52" xml:space="preserve" transform="matrix(1 0 -0 1 0 841.89)" font-size="9" font-family="Roboto"><tspan y="-194.0032" x="96.96439">f</tspan></text>
</g>
<g id="Layer-1" data-name="Span">
<text fill="#231f20" xml:space="preserve" transform="matrix(1 0 -0 1 0 841.89)" font-size="9" font-family="Roboto"><tspan y="-194.0032" x="99.754398">&#x00f4;</tspan></text>
</g>
<g id="Layer-1" data-name="Span">
<text fill="#2b3b52" xml:space="preserve" transform="matrix(1 0 -0 1 0 841.89)" font-size="9" font-family="Roboto"><tspan y="-194.0032" x="104.8304">r</tspan></text>
</g>
<g id="Layer-1" data-name="Span">
</g>
<g id="Layer-1" data-name="Span">
</g>
<g id="Layer-1" data-name="Span">
</g>
<g id="Layer-1" data-name="Span">
</g>
<g id="Layer-1" data-name="Span">
</g>
<g id="Layer-1" data-name="Span">
</g>
<g id="Layer-1" data-name="Span">
</g>
<g id="Layer-1" data-name="Span">
</g>
<g id="Layer-1" data-name="Span">
</g>
<g id="Layer-1" data-name="Span">
</g>
<g id="Layer-1" data-name="Span">
</g>
<g id="Layer-1" data-name="Span">
</g>
<g id="Layer-1" data-name="Span">
</g>
<g id="Layer-1" data-name="Span">
</g>
<g id="Layer-1" data-name="Span">
</g>
<g id="Layer-1" data-name="Span">
</g>
<g id="Layer-1" data-name="Span">
</g>
<g id="Layer-1" data-name="Span">
</g>
<g id="Layer-1" data-name="Span">
<text fill="#231f20" xml:space="preserve" transform="matrix(1 0 -0 1 0 841.89)" font-size="9" font-family="Roboto"><tspan y="-194.0032" x="227.1494 232.1354 234.3224 239.3426 244.43392 294.8744 299.86039 302.0474 307.0676 312.15888 362.5994 367.5854 369.7724 374.7926 379.88389 430.3244 435.3104 437.4974 442.5176 447.6089 497.9594 502.9454 505.13243 510.3326 515.3285">6 7966 7966 7966 7966 837</tspan><tspan y="-177.7402" x="74.95941 81.12891 89.25231 94.79631 96.98331 102.10431 104.291309 108.974 115.103908 120.86391 124.542209 128.81812 233.10742 237.58942 239.40921 244.4303 300.83244 305.31443 307.13423 312.1553 368.55744 373.03944 374.85923 379.8803 436.28245 440.76445 442.58424 447.60533 503.85444 508.33644 510.0779 515.32589">GWP E LUC/kg1,591,591,591,591,68</tspan><tspan y="-161.4772" x="74.95944 81.12894 89.25234 94.79634 96.98334 99.377338 101.56433 106.44683 112.57763 118.33763 122.01503 126.29093 232.28845 237.44275 239.28505 244.43845 300.01347 305.16777 307.01005 312.16346 367.73847 372.89277 374.73506 379.88847 435.46348 440.61778 442.46006 447.61347 504.56547 509.71977 510.88798 515.3367">GWP I LUC/kg2,032,032,032,032,19</tspan></text>
<text fill="#231f20" xml:space="preserve" transform="matrix(1 0 -0 1 0 841.89)" font-size="9" font-family="Roboto"><tspan y="-128.9512" x="74.968448 80.597049 85.835048 93.662349 95.90335 101.13415 104.294048 109.05684 111.45444 113.88894 119.12694 124.22453 126.46554 129.39954 132.46044 137.69844 142.93645 147.80725">Sum utslipp (tonn)</tspan><tspan y="-112.6882" x="74.968448 81.02815 89.039058 94.77206 97.013057 101.999057 104.24005 109.241359 115.51616">GWP E LUC</tspan></text>
</g>
<g id="Layer-1" data-name="Span">
</g>
<g id="Layer-1" data-name="Span">
</g>
<g id="Layer-1" data-name="Span">
</g>
<g id="Layer-1" data-name="Span">
<text fill="#2b3b52" xml:space="preserve" transform="matrix(1 0 -0 1 0 841.89)" font-size="9" font-family="Roboto"><tspan y="-112.6882" x="221.67745 226.41144 231.52614 233.76715 239.03844 244.31873 289.40245 294.13645 299.25117 301.49217 306.76347 312.04377 357.12745 361.86146 366.97618 369.21717 374.48847 379.76878 424.85246 429.58647 434.70118 436.94218 442.21348 447.49378">10 80610 80610 80610 806</tspan></text>
</g>
<g id="Layer-1" data-name="Span">
</g>
<g id="Layer-1" data-name="Span">
<text fill="#231f20" xml:space="preserve" transform="matrix(1 0 -0 1 0 841.89)" font-size="9" font-family="Roboto"><tspan y="-112.6882" x="492.85646 497.25566 502.37034 504.61134 509.97624 515.21786">11 486</tspan><tspan y="-96.4252" x="74.97745 81.037158 89.04806 94.78106 97.02206 99.61406 101.85506 106.85546 113.130268">GWP I LUC</tspan></text>
</g>
<g id="Layer-1" data-name="Span">
</g>
<g id="Layer-1" data-name="Span">
</g>
<g id="Layer-1" data-name="Span">
</g>
<g id="Layer-1" data-name="Span">
<text fill="#2b3b52" xml:space="preserve" transform="matrix(1 0 -0 1 0 841.89)" font-size="9" font-family="Roboto"><tspan y="-96.4252" x="221.93845 226.53745 231.65215 233.89315 239.08614 244.32773 289.66346 294.26246 299.37715 301.61814 306.81114 312.05274 357.38847 361.98747 367.10215 369.34315 374.53614 379.77775 425.11347 429.71247 434.82716 437.06816 442.26115 447.50276">13 79613 79613 79613 796</tspan></text>
</g>
<text fill="#231f20" xml:space="preserve" transform="matrix(1 0 -0 1 0 841.89)" font-size="9" font-family="Roboto"><tspan y="-96.4252" x="492.87446 497.55537 502.66737 504.90837 510.02845 515.22238">14 973</tspan></text>
<path transform="matrix(1,0,0,-1,70.9595,141.88971)" stroke-width="1" stroke-linecap="butt" stroke-miterlimit="10" stroke-linejoin="miter" fill="none" stroke="#231f20" d="M 0 0 L 114.745 0 "/>
<path transform="matrix(1,0,0,-1,185.7041,141.88971)" stroke-width="1" stroke-linecap="butt" stroke-miterlimit="10" stroke-linejoin="miter" fill="none" stroke="#231f20" d="M 0 0 L 67.722 0 "/>
<path transform="matrix(1,0,0,-1,253.4265,141.88971)" stroke-width="1" stroke-linecap="butt" stroke-miterlimit="10" stroke-linejoin="miter" fill="none" stroke="#231f20" d="M 0 0 L 67.722 0 "/>
<path transform="matrix(1,0,0,-1,321.1489,141.88971)" stroke-width="1" stroke-linecap="butt" stroke-miterlimit="10" stroke-linejoin="miter" fill="none" stroke="#231f20" d="M 0 0 L 67.722 0 "/>
<path transform="matrix(1,0,0,-1,388.8713,141.88971)" stroke-width="1" stroke-linecap="butt" stroke-miterlimit="10" stroke-linejoin="miter" fill="none" stroke="#231f20" d="M 0 0 L 67.722 0 "/>
<path transform="matrix(1,0,0,-1,456.5937,141.88971)" stroke-width="1" stroke-linecap="butt" stroke-miterlimit="10" stroke-linejoin="miter" fill="none" stroke="#231f20" d="M 0 0 L 67.722 0 "/>
<g id="Layer-1" data-name="Span">
</g>
<g id="Layer-1" data-name="Span">
</g>
<g id="Layer-1" data-name="Span">
</g>
<g id="Layer-1" data-name="Span">
</g>
<g id="Layer-1" data-name="Span">
</g>
<g id="Layer-1" data-name="Span">
<text fill="#10a79d" xml:space="preserve" transform="matrix(1 0 -0 1 0 841.89)" font-size="12" font-family="Roboto" font-weight="bold"><tspan y="-705.2744" x="223.0587 229.8483 236.31389 242.54189 290.8707 297.6603 304.12715 310.26277 358.56269 365.35227 371.81907 377.98945 426.33869 433.12828 439.59507 445.71507 492.95069 499.74269 506.65229 513.4443">20162017201820192020</tspan></text>
</g>
<g id="Layer-1" data-name="Span">
</g>
<g id="Layer-1" data-name="Span">
</g>
<g id="Layer-1" data-name="Span">
</g>
<g id="Layer-1" data-name="Span">
</g>
<g id="Layer-1" data-name="Span">
</g>
<g id="Layer-1" data-name="Span">
</g>
<g id="Layer-1" data-name="Span">
</g>
<g id="Layer-1" data-name="Span">
</g>
<g id="Layer-1" data-name="Span">
</g>
<g id="Layer-1" data-name="Span">
</g>
<g id="Layer-1" data-name="Span">
</g>
<g id="Layer-1" data-name="Span">
</g>
<g id="Layer-1" data-name="Span">
</g>
<g id="Layer-1" data-name="Span">
</g>
<g id="Layer-1" data-name="Span">
</g>
<g id="Layer-1" data-name="Span">
</g>
<g id="Layer-1" data-name="Span">
</g>
<g id="Layer-1" data-name="Span">
</g>
<g id="Layer-1" data-name="Span">
</g>
<g id="Layer-1" data-name="Span">
</g>
<g id="Layer-1" data-name="Span">
</g>
<g id="Layer-1" data-name="Span">
</g>
<g id="Layer-1" data-name="Span">
</g>
<text fill="#231f20" xml:space="preserve" transform="matrix(1 0 -0 1 0 841.89)" font-size="9" font-family="Roboto"><tspan y="-671.7318" x="74.9594 81.0776 83.159297 87.812297 92.417598 97.08949 99.10549 101.29249 104.31019 106.53139 217.9604 223.0796 228.04941 233.0354 235.2224 240.0302 244.4366 285.1274 290.2466 295.058 300.0458 302.2328 307.3394 312.16429 353.05943 357.50544 362.41136 367.39918 369.58619 374.7747 379.88133 419.74043 424.7831 429.9923 434.9783 437.1653 442.3016 447.6053 488.38343 493.3145 498.2168 503.2028 505.3898 510.49189 515.3294">Diesel (l)227 013221 024197 802358 664251 931</tspan><tspan y="-655.4688" x="74.95941 80.70231 85.40751 90.39081 94.95651 96.97251 101.91351 104.10051 107.186618 109.408718 226.98741 231.97342 234.16042 239.34803 244.44202 295.1084 300.0962 302.28318 306.77418 312.16337 363.3914 368.37739 370.5644 375.4055 379.88838 425.5904 430.1174 435.1052 437.2922 442.5014 447.6044 493.45039 497.80909 502.79508 504.9821 510.13908 515.32669">Bensin (l)5 4566 1448 31810 58612 308</tspan><tspan y="-639.2058" x="74.95938 80.59968 82.69308 87.60888 90.569889 95.64139 100.313289 102.329288 104.51628 107.53398 109.75518 244.43837 312.16337 353.13136 357.49006 362.60926 367.59526 369.78227 374.81596 379.88475 447.60435 515.32937">Biofuel (l)00122 23600</tspan><tspan y="-622.9428" x="74.95935 80.626659 83.55975 86.583759 91.67416 99.648159 101.83515 104.85735 109.44285 117.54915 122.246257 217.30335 221.74304 226.87574 231.86173 234.04872 239.24893 244.44103 285.54136 290.44364 294.93464 299.92063 302.10765 307.32945 312.16694 357.74836 362.59034 367.57633 369.76335 374.91044 379.88475 419.74937 425.05308 429.85008 434.83787 437.02485 442.21244 447.60163 488.69837 493.05436 498.07545 503.06324 505.25025 510.35685 515.3266">Str&#x00f8;m (kWh)166 838514 63176 395642 944159 027</tspan></text>
<path transform="matrix(1,0,0,-1,0,841.89)" d="M 70.773 458.091 L 185.518 458.091 L 185.518 441.829 L 70.773 441.829 Z M 185.517 458.091 L 253.239 458.091 L 253.239 441.829 L 185.517 441.829 Z M 253.24 458.091 L 320.962 458.091 L 320.962 441.829 L 253.24 441.829 Z M 320.962 458.091 L 388.68403 458.091 L 388.68403 441.829 L 320.962 441.829 Z M 388.685 458.091 L 456.40699 458.091 L 456.40699 441.829 L 388.685 441.829 Z M 456.407 458.091 L 524.129 458.091 L 524.129 441.829 L 456.407 441.829 Z " fill="#e8f3f1"/>
<path transform="matrix(1,0,0,-1,70.7728,285.7249)" stroke-width="1" stroke-linecap="butt" stroke-miterlimit="10" stroke-linejoin="miter" fill="none" stroke="#231f20" d="M 0 0 L 114.745 0 "/>
<path transform="matrix(1,0,0,-1,185.5175,285.7249)" stroke-width="1" stroke-linecap="butt" stroke-miterlimit="10" stroke-linejoin="miter" fill="none" stroke="#231f20" d="M 0 0 L 67.722 0 "/>
<path transform="matrix(1,0,0,-1,253.2399,285.7249)" stroke-width="1" stroke-linecap="butt" stroke-miterlimit="10" stroke-linejoin="miter" fill="none" stroke="#231f20" d="M 0 0 L 67.722 0 "/>
<path transform="matrix(1,0,0,-1,320.9623,285.7249)" stroke-width="1" stroke-linecap="butt" stroke-miterlimit="10" stroke-linejoin="miter" fill="none" stroke="#231f20" d="M 0 0 L 67.722 0 "/>
<path transform="matrix(1,0,0,-1,388.6847,285.7249)" stroke-width="1" stroke-linecap="butt" stroke-miterlimit="10" stroke-linejoin="miter" fill="none" stroke="#231f20" d="M 0 0 L 67.722 0 "/>
<path transform="matrix(1,0,0,-1,456.407,285.7249)" stroke-width="1" stroke-linecap="butt" stroke-miterlimit="10" stroke-linejoin="miter" fill="none" stroke="#231f20" d="M 0 0 L 67.722 0 "/>
<g id="Layer-1" data-name="Span">
</g>
<g id="Layer-1" data-name="Span">
</g>
<g id="Layer-1" data-name="Span">
</g>
<g id="Layer-1" data-name="Span">
</g>
<g id="Layer-1" data-name="Span">
</g>
<g id="Layer-1" data-name="Span">
<text fill="#10a79d" xml:space="preserve" transform="matrix(1 0 -0 1 0 841.89)" font-size="12" font-family="Roboto" font-weight="bold"><tspan y="-561.4391" x="222.872 229.66159 236.12718 242.35518 290.684 297.4736 303.94044 310.07606 358.37599 365.16557 371.63236 377.80274 426.15199 432.94157 439.40837 445.52836 492.76399 499.55598 506.46559 513.25759">20162017201820192020</tspan></text>
</g>
<g id="Layer-1" data-name="Span">
</g>
<g id="Layer-1" data-name="Span">
</g>
<g id="Layer-1" data-name="Span">
</g>
<g id="Layer-1" data-name="Span">
</g>
<g id="Layer-1" data-name="Span">
</g>
<g id="Layer-1" data-name="Span">
</g>
<g id="Layer-1" data-name="Span">
</g>
<g id="Layer-1" data-name="Span">
</g>
<g id="Layer-1" data-name="Span">
</g>
<g id="Layer-1" data-name="Span">
</g>
<g id="Layer-1" data-name="Span">
</g>
<g id="Layer-1" data-name="Span">
</g>
<g id="Layer-1" data-name="Span">
</g>
<g id="Layer-1" data-name="Span">
</g>
<g id="Layer-1" data-name="Span">
</g>
<g id="Layer-1" data-name="Span">
</g>
<g id="Layer-1" data-name="Span">
</g>
<g id="Layer-1" data-name="Span">
</g>
<g id="Layer-1" data-name="Span">
</g>
<g id="Layer-1" data-name="Span">
</g>
<g id="Layer-1" data-name="Span">
</g>
<g id="Layer-1" data-name="Span">
</g>
<g id="Layer-1" data-name="Span">
</g>
<g id="Layer-1" data-name="Span">
</g>
<g id="Layer-1" data-name="Span">
</g>
<g id="Layer-1" data-name="Span">
</g>
<g id="Layer-1" data-name="Span">
</g>
<g id="Layer-1" data-name="Span">
</g>
<g id="Layer-1" data-name="Span">
</g>
<g id="Layer-1" data-name="Span">
<text fill="#231f20" xml:space="preserve" transform="matrix(1 0 -0 1 0 841.89)" font-size="9" font-family="Roboto"><tspan y="-527.8966" x="74.7728 80.891 82.972698 87.625698 92.230998 96.90289 98.91889 101.10589 103.66909 109.944789 114.927188 227.7818 232.76959 234.95659 239.76799 244.24999 294.7598 299.7476 301.93458 307.16719 311.97319 362.8718 367.85963 370.04664 374.48365 379.69737 425.4758 429.8318 434.81959 437.0066 442.13929 447.42137 498.5468 503.5346 505.72163 510.0776 515.1419">Diesel (GJ)8 2188 0017 16012 9849 120</tspan><tspan y="-511.6336" x="74.77283 80.515727 85.220928 90.20422 94.76993 96.78593 101.72693 103.913928 106.545528 112.82122 117.80452 234.55883 239.01383 244.25724 301.68083 306.7478 311.98039 363.2048 368.1908 370.3778 375.2189 379.70179 436.78883 442.03584 447.42506 504.61283 509.91203 515.141">Bensin (GJ)1772008 318344400</tspan><tspan y="-495.3706" x="74.77283 80.413127 82.50652 87.422328 90.38333 95.454837 100.12673 102.14273 104.32973 106.89293 113.168628 118.151027 244.25182 311.9768 369.7568 374.7248 379.69908 447.42683 515.1518">Biofuel (GJ)0027000</tspan><tspan y="-479.1076" x="74.7818 80.449108 83.3822 86.406208 91.496608 99.470607 101.6576 104.1956 110.4713 115.4546 234.2438 239.4575 244.2635 294.5528 299.5388 301.7258 306.8063 311.9858 369.8378 374.8076 379.70899 431.0648 436.05079 438.2378 443.0789 447.43489 505.0628 510.1784 515.1554">Str&#x00f8;m (GJ)6011 8532752 315572</tspan></text>
<text fill="#231f20" xml:space="preserve" transform="matrix(1 0 -0 1 0 841.89)" font-size="9" font-family="Roboto"><tspan y="-446.5816" x="74.79083 79.475337 84.620639 87.813838 92.80884 95.23884 98.31954 100.56055 103.41175 109.59925 114.73105">Totalt (GJ)</tspan></text>
<text fill="#231f20" xml:space="preserve" transform="matrix(1 0 -0 1 0 841.89)" font-size="9" font-family="Roboto"><tspan y="-446.5816" x="226.85483 231.84082 234.02782 239.17673 244.26802 290.07084 294.5996 299.5856 301.7726 306.80723 311.98674 358.92985 363.28855 368.27455 370.46156 374.87156 379.70906 425.79985 430.15583 435.14363 437.33064 442.6343 447.4331 493.19184 497.71885 502.70664 504.89366 510.09837 515.1501">8 99610 05312 13115 64210 092</tspan></text>
</g>
<g id="Layer-1" data-name="Span">
</g>
<g id="Layer-1" data-name="Span">
</g>
<g id="Layer-1" data-name="Span">
</g>
<g id="Layer-1" data-name="Span">
<text fill="#2b3b52" xml:space="preserve" transform="matrix(1 0 -0 1 0 841.89)" font-size="9" font-family="Roboto"><tspan y="-737.4976" x="70.875827 75.87802 81.107929 84.41542 89.66242 92.97892 98.21602 102.92302 105.16402 110.02402 114.58702 116.82802 121.71682 126.94222 131.82831 135.0458 140.2478 142.6823 147.5558 149.9543 152.4077 157.6295 162.5156 165.67459 167.91559 170.24658">Forbruk av energikilder i </tspan><tspan y="-726.69766" x="70.875827 76.10573 79.32323 84.53063 89.56523 94.767238 97.16484 101.95284 106.92894 111.64674 114.11905 119.353458 124.57886 129.46947">organisasjonen</tspan><tspan y="-593.65969" x="75.44782 80.543628 85.76903 90.65603 93.87263 99.07463 101.48303 104.55563 109.78554 113.09303 118.340038 121.65653 126.89363 131.60063 133.84163 136.17263">Energiforbruk i </tspan><tspan y="-582.8597" x="75.44782 80.67773 83.895229 89.10263 94.13723 99.33923 101.73684 106.52484 111.50094 116.21874 118.69105 123.92545 129.15087 134.04148">organisasjonen</tspan></text>
</g>
<g id="Layer-1" data-name="Span">
</g>
<g id="Layer-1" data-name="Span">
</g>
<g id="Layer-1" data-name="Span">
</g>
<text fill="#404041" xml:space="preserve" transform="matrix(1 0 -0 1 0 841.89)" font-size="12" font-family="Roboto"><tspan y="-762.0236" x="70.7728 76.8088 83.362 90.189998 96.51519 99.55479 102.66638 105.65439 112.50039 119.27919 125.50119 129.5896">Tabell 302-1</tspan></text>
<text fill="#404041" xml:space="preserve" transform="matrix(1 0 -0 1 0 841.89)" font-size="7" font-family="Roboto"><tspan y="-29.016" x="425.599 431.8101 433.9521 438.0933 442.1204 447.08549 453.3295 457.3678 461.8555 466.2865 468.4453 473.2816 477.15748 478.90046 481.04246 486.13078 490.93278 493.07478 497.96708 502.1454 506.37059 511.32447 515.9291 519.9576">MILJ&#x00d8;MESSIGE INDIKATORER</tspan></text>
<text fill="#404041" xml:space="preserve" transform="matrix(1 0 -0 1 0 841.89)" font-size="8" font-family="Roboto" font-weight="bold"><tspan y="-44.7402" x="515.2297 519.82168">73</tspan></text>
<g id="Layer-1" data-name="Artifact">
<clipPath id="cp698">
<path transform="matrix(1,0,0,-1,0,841.89)" d="M 0 0 L 595.276 0 L 595.276 841.89 L 0 841.89 Z "/>
</clipPath>
<g clip-path="url(#cp698)">
<path transform="matrix(1,0,0,-1,524.4094,802.3869)" stroke-width=".5" stroke-linecap="butt" stroke-miterlimit="4" stroke-linejoin="miter" fill="none" stroke="#404041" d="M 0 0 L -1048.819 0 "/>
</g>
<g id="Layer-1" data-name="Artifact">
<path transform="matrix(1,0,0,-1,-524.4094,39.3869)" stroke-width=".5" stroke-linecap="butt" stroke-miterlimit="4" stroke-linejoin="miter" fill="none" stroke="#404041" d="M 0 0 L 1048.819 0 "/>
</g>
</g>
</g>
</g>
</svg>
