<?xml version="1.0" encoding="UTF-8" standalone="no"?>
<!DOCTYPE svg PUBLIC "-//W3C//DTD SVG 1.1//EN" "http://www.w3.org/Graphics/SVG/1.1/DTD/svg11.dtd">
<svg xmlns="http://www.w3.org/2000/svg" xmlns:xlink="http://www.w3.org/1999/xlink" version="1.1" width="595.276pt" height="841.89pt" viewBox="0 0 595.276 841.89">
<g enable-background="new">
<g>
<g id="Layer-1" data-name="Span">
</g>
<g id="Layer-1" data-name="Span">
</g>
<g id="Layer-1" data-name="Span">
</g>
<g id="Layer-1" data-name="Span">
</g>
<text fill="#2b3b52" xml:space="preserve" transform="matrix(1 0 -0 1 0 841.89)" font-size="15" font-family="Roboto"><tspan y="-695.2736" x="70.8661 78.487598 86.944599 94.7011 99.787609 108.3076 112.0426 122.554599 130.4221 138.0661 146.5561 150.2911 158.7391 166.89911 170.63411 178.36362 186.25362 190.03362 197.82611 205.5946 213.7696 222.28212 230.15412">102-1 Navn p&#x00e5; selskapet</tspan><tspan y="-589.4036" x="70.8661 78.487598 86.944599 94.7011 100.1731 108.6931 112.4281 125.455608 133.39659 138.70059 146.23209 153.90909 161.24408 169.41909 174.56708 182.50658 187.13408 190.52408 194.25908 202.78359 207.93158 216.44409 224.9341 233.4541 241.6351 246.5281 254.4676 259.0951 262.4851 266.2201 274.71009 283.38908 288.77558 296.6656 300.4486 304.3066 312.24613 317.51115 321.24613 326.20814 330.11714 338.0656 346.5676 354.3766 362.19459 367.0876 375.0286">102-2 Merkevarer, produkter, og/eller tjenester</tspan><tspan y="-483.53364" x="70.8661 78.48609 86.94459 94.70108 100.875087 109.39958 113.13458 122.36258 130.25258 134.03258 141.82508 149.59357 157.76857 166.27358 174.14557 179.19608 186.99608 190.73108 199.20758 207.40059 214.73409 222.65558 231.15308 238.68308 247.19858 255.61058 260.4886 268.9936">102-3 Selskapets hovedkontor</tspan><tspan y="-377.66365" x="70.8661 78.48609 86.94459 94.70108 101.24558 109.77008 113.50508 121.94258 130.11759 138.64209 147.13809 150.8731 159.0661 166.3996 174.9046 180.1711 183.9061 191.6356 199.5256 203.3056 211.0981 218.8651 227.0401 235.5451 243.4171 248.5516 252.2866 260.7916 269.2966 277.23609 282.3841 290.32359 295.4716 303.41108">102-4 Land hvor selskapet opererer</tspan></text>
<g id="Layer-1" data-name="Artifact">
<clipPath id="cp581">
<path transform="matrix(1,0,0,-1,0,841.89)" d="M 0 0 L 595.276 0 L 595.276 841.89 L 0 841.89 Z "/>
</clipPath>
<g clip-path="url(#cp581)">
<filter id="blend_3"><feBlend mode="overlay" in2="BackgroundImage" in="SourceGraphic"/></filter>
<g filter="url(#blend_3)">
<clipPath id="cp582">
<path transform="matrix(1,0,0,-1,0,841.89)" d="M 69.8661 634.078 L 525.409 634.078 L 525.409 636.578 L 69.8661 636.578 Z "/>
</clipPath>
<g clip-path="url(#cp582)">
<path transform="matrix(1,0,0,-1,70.8661,206.56183)" stroke-width=".5" stroke-linecap="butt" stroke-miterlimit="4" stroke-linejoin="miter" fill="none" stroke="#b9bbbd" d="M 0 0 L 453.543 0 "/>
</g>
</g>
</g>
<g id="Layer-1" data-name="Artifact">
<g filter="url(#blend_3)">
<clipPath id="cp583">
<path transform="matrix(1,0,0,-1,0,841.89)" d="M 69.8661 528.21 L 525.409 528.21 L 525.409 530.71 L 69.8661 530.71 Z "/>
</clipPath>
<g clip-path="url(#cp583)">
<path transform="matrix(1,0,0,-1,70.8661,312.43025)" stroke-width=".5" stroke-linecap="butt" stroke-miterlimit="4" stroke-linejoin="miter" fill="none" stroke="#b9bbbd" d="M 0 0 L 453.543 0 "/>
</g>
</g>
</g>
<g id="Layer-1" data-name="Artifact">
<g filter="url(#blend_3)">
<clipPath id="cp584">
<path transform="matrix(1,0,0,-1,0,841.89)" d="M 69.8661 422.342 L 525.409 422.342 L 525.409 424.842 L 69.8661 424.842 Z "/>
</clipPath>
<g clip-path="url(#cp584)">
<path transform="matrix(1,0,0,-1,70.8661,418.2984)" stroke-width=".5" stroke-linecap="butt" stroke-miterlimit="4" stroke-linejoin="miter" fill="none" stroke="#b9bbbd" d="M 0 0 L 453.543 0 "/>
</g>
</g>
</g>
<g id="Layer-1" data-name="Span">
</g>
<text fill="#404041" xml:space="preserve" transform="matrix(1 0 -0 1 0 841.89)" font-size="9" font-family="Roboto"><tspan y="-564.8829" x="70.8661 76.463199 79.4872 84.5731 89.605899 94.6441 99.04419 103.59819 105.74199 110.82159 115.76259 117.949588 122.76368 127.09268 129.27968 134.15048 137.0539 139.0699 143.95511 148.92131 151.81032 153.82633 158.42623 162.83623 165.02323 167.03923 171.93344 176.33354 180.99825">Produksjon av atlantisk laks.</tspan></text>
</g>
<g id="Layer-1" data-name="Artifact">
<clipPath id="cp585">
<path transform="matrix(1,0,0,-1,0,841.89)" d="M 0 0 L 595.276 0 L 595.276 841.89 L 0 841.89 Z "/>
</clipPath>
<g clip-path="url(#cp585)">
<g filter="url(#blend_3)">
<clipPath id="cp586">
<path transform="matrix(1,0,0,-1,0,841.89)" d="M 69.8661 316.473 L 525.409 316.473 L 525.409 318.973 L 69.8661 318.973 Z "/>
</clipPath>
<g clip-path="url(#cp586)">
<path transform="matrix(1,0,0,-1,70.8661,524.1669)" stroke-width=".5" stroke-linecap="butt" stroke-miterlimit="4" stroke-linejoin="miter" fill="none" stroke="#b9bbbd" d="M 0 0 L 453.543 0 "/>
</g>
</g>
</g>
<g id="Layer-1" data-name="Span">
</g>
<text fill="#404041" xml:space="preserve" transform="matrix(1 0 -0 1 0 841.89)" font-size="9" font-family="Roboto"><tspan y="-459.0146" x="70.8661 76.0654 80.3404 85.081607 88.0138 92.4967 97.505199 99.6103 102.5272 107.5663 110.98 115.3234 119.9953 122.076099 126.782199 131.72319 133.91019 138.43268 142.74907 147.62078 151.89579 153.61478 155.80178 160.99388 165.86559 170.83989 175.8259 178.0129 184.1689 187.1929 192.0691 195.01572 199.87392 204.91121 209.9863 214.6924 219.78639">Kystkulturveien 1747, 9470 Gratangen.</tspan></text>
</g>
<g id="Layer-1" data-name="Span">
</g>
<text fill="#404041" xml:space="preserve" transform="matrix(1 0 -0 1 0 841.89)" font-size="9" font-family="Roboto"><tspan y="-353.1462" x="70.8661 77.2966 82.3762 85.3885 90.46449 95.08419">Norge.</tspan></text>
<g id="Layer-1" data-name="Artifact">
<clipPath id="cp587">
<path transform="matrix(1,0,0,-1,0,841.89)" d="M 0 0 L 595.276 0 L 595.276 841.89 L 0 841.89 Z "/>
</clipPath>
<g clip-path="url(#cp587)">
<g opacity=".149994">
<clipPath id="cp588">
<path transform="matrix(1,0,0,-1,0,841.89)" d="M 62.7795 739.947 L 532.496 739.947 L 532.496 772.024 L 62.7795 772.024 Z "/>
</clipPath>
<g clip-path="url(#cp588)">
<path transform="matrix(1,0,0,-1,0,841.89)" d="M 63.78 740.947 L 531.496 740.947 L 531.496 771.02407 L 63.78 771.02407 Z " fill="#949699"/>
</g>
</g>
</g>
<g id="Layer-1" data-name="Span">
</g>
<text fill="#414042" xml:space="preserve" transform="matrix(1 0 -0 1 0 841.89)" font-size="10" font-family="Roboto"><tspan y="-752.2352" x="94.3437 101.193698 107.553699 114.2737 120.623699 127.6737 130.5537 136.70369 143.0537 149.20369 154.7237 161.5737 168.6237 174.7737 181.14369 187.5037 194.3537 199.89369 202.7737">ORGANISASJONSPROFIL</tspan></text>
</g>
<g id="Layer-1" data-name="Artifact">
<clipPath id="cp589">
<path transform="matrix(1,0,0,-1,0,841.89)" d="M 0 0 L 595.276 0 L 595.276 841.89 L 0 841.89 Z "/>
</clipPath>
<g clip-path="url(#cp589)">
<path transform="matrix(1,0,0,-1,79.8798,95.24353)" d="M 0 0 C 4.978 0 9.014 4.181 9.014 9.338 C 9.014 14.496 4.978 18.677 0 18.677 C -4.978 18.677 -9.014 14.496 -9.014 9.338 C -9.014 4.181 -4.978 0 0 0 " fill="#ffffff"/>
</g>
<g id="Layer-1" data-name="Span">
</g>
<text fill="#404041" xml:space="preserve" transform="matrix(1 0 -0 1 0 841.89)" font-size="12" font-family="Roboto"><tspan y="-751.3163" x="76.4824">1</tspan></text>
</g>
<g id="Layer-1" data-name="Span">
</g>
<g id="Layer-1" data-name="Span">
<text fill="#404041" xml:space="preserve" transform="matrix(1 0 -0 1 0 841.89)" font-size="9" font-family="Roboto"><tspan y="-670.7513" x="70.8661 77.022098 80.0461 84.922298 87.8689 92.7271 97.7644 102.7594 104.7754 109.6786 114.07869 118.63269 120.81969 126.518489 132.05258">Gratanglaks AS.</tspan></text>
</g>
<g id="Layer-1" data-name="Span">
<text fill="#2b3b52" xml:space="preserve" transform="matrix(1 0 -0 1 0 841.89)" font-size="15" font-family="Roboto"><tspan y="-271.8001" x="70.8661 78.487598 86.944599 94.7011 100.966609 109.4866 113.2216 122.455608 130.34709 134.12709 141.91959 149.68659 157.86309 166.29009 174.06909 178.9711 187.47911 192.7846 205.83461 209.56961 218.05962 226.54962 230.28462 238.18213 242.03862 249.97962 255.2026 263.0206 268.0801 273.3991 281.9206 290.1016 295.1311 303.6511">102-5 Selskapsform og eierstruktur</tspan></text>
</g>
<text fill="#404041" xml:space="preserve" transform="matrix(1 0 -0 1 0 841.89)" font-size="9" font-family="Roboto"><tspan y="-247.2779" x="70.8661 77.022098 80.0461 84.922298 87.8689 92.7271 97.7644 102.7594 104.7754 109.6786 114.07869 118.63269 120.81969 126.518489 131.84648 134.03348 138.84488 141.86888 144.05588 148.78269 151.67169 153.85869 158.72499 163.12509 167.6791 169.80939 174.46239 179.06859 183.7396 185.7493 190.3492 194.8141 199.6723 204.6745">Gratanglaks AS er et aksjeselskap.</tspan></text>
<g id="Layer-1" data-name="Artifact">
<clipPath id="cp590">
<path transform="matrix(1,0,0,-1,0,841.89)" d="M 0 0 L 595.276 0 L 595.276 841.89 L 0 841.89 Z "/>
</clipPath>
<g clip-path="url(#cp590)">
<g filter="url(#blend_3)">
<clipPath id="cp591">
<path transform="matrix(1,0,0,-1,0,841.89)" d="M 69.8661 210.605 L 525.409 210.605 L 525.409 213.105 L 69.8661 213.105 Z "/>
</clipPath>
<g clip-path="url(#cp591)">
<path transform="matrix(1,0,0,-1,70.8661,630.0352)" stroke-width=".5" stroke-linecap="butt" stroke-miterlimit="4" stroke-linejoin="miter" fill="none" stroke="#b9bbbd" d="M 0 0 L 453.543 0 "/>
</g>
</g>
</g>
<g id="Layer-1" data-name="Span">
</g>
<text fill="#2b3b52" xml:space="preserve" transform="matrix(1 0 -0 1 0 841.89)" font-size="15" font-family="Roboto"><tspan y="-166.1817" x="70.8661 78.487598 86.944599 94.7011 101.310108 109.83011 113.56511 126.55061 134.72711 140.03261 147.5626 155.4826 163.97261 171.9136 177.1786 180.9136 188.6266 197.13462 210.18462 213.91962 222.43962 230.31313 235.27364 239.18265 247.12966 255.63166 263.44218">102-6 Markeder som betjenes</tspan></text>
</g>
<g id="Layer-1" data-name="Span">
</g>
<g id="Layer-1" data-name="Span">
</g>
<text fill="#404041" xml:space="preserve" transform="matrix(1 0 -0 1 0 841.89)" font-size="9" font-family="Roboto"><tspan y="-141.6595" x="70.8661 77.022098 80.0461 84.922298 87.8689 92.7271 97.7644 102.7594 104.7754 109.6786 114.07869 118.63269 121.194087 126.86228 132.19028 134.82727 136.90808 141.55208 145.89548 150.60158 153.61388 158.31908 161.34308 163.92337 165.93938 170.82459 175.22469 179.77869 182.34009 185.2435 187.2523 189.26831 191.82431 196.38912 198.40512 203.29033 208.01624 210.76575 215.47095 218.61556 220.74677 222.46576 225.00106 229.61086 234.69945 242.67345 245.20784 249.67273 251.73644 256.80345 261.50865 264.52095 269.24595 274.24995 276.26054 280.8757 283.80793 286.9525 288.9685 294.0319 299.1043 303.8095 306.8218 311.52793 314.5519 317.13224 319.14823 324.03343 328.43354 333.0397 337.7449 342.6859 345.28694 348.19035 350.20005 352.21604 354.77116 356.78715 361.67234 366.07246 370.67863 375.43424 380.13945 384.53956 389.13945 394.2289 399.30943 402.7366 405.4906 410.5729 413.5852 418.29133 420.9166 423.0676 425.59663 431.7148 433.7254 438.3361 442.94139 447.5944 450.1054 453.05653 456.0805 460.9837 465.7105 468.4591 473.16523 476.1892 478.76954 480.78553 485.67073 490.07084 494.677 499.3822 504.3232 506.92424 512.0272 514.9162 517.4542 520.3576 522.3664 524.3824">Gratanglaks AS leverer laks til slakteri, som videredistribuerer laksen til lakseeksport&#x00f8;rer. Disse frakter laksen ut til </tspan><tspan y="-130.8595" x="70.8661 78.85539 83.65059 86.59269 94.581989 99.440189 102.61449 106.88229 111.60729 116.67429 121.380397 124.404399 126.59139 128.60739 130.79439 135.78939 140.82758 143.85158 148.93117 153.98378 158.94638 160.66538 162.85237 168.49358 173.05928 175.07529 179.89929 182.08629 187.22348 192.21848 194.40547 200.11327 208.14847 212.85367 215.99828 218.01428 222.50618 227.44359">matmarkeder i Europa, Asia og Amerika.</tspan></text>
<g id="Layer-1" data-name="Artifact">
<clipPath id="cp592">
<path transform="matrix(1,0,0,-1,0,841.89)" d="M 0 0 L 595.276 0 L 595.276 841.89 L 0 841.89 Z "/>
</clipPath>
<g clip-path="url(#cp592)">
<path transform="matrix(1,0,0,-1,524.4094,802.3869)" stroke-width=".5" stroke-linecap="butt" stroke-miterlimit="4" stroke-linejoin="miter" fill="none" stroke="#404041" d="M 0 0 L -524.409 0 "/>
</g>
<g id="Layer-1" data-name="Span">
</g>
<text fill="#404041" xml:space="preserve" transform="matrix(1 0 -0 1 0 841.89)" font-size="8" font-family="Roboto" font-weight="bold"><tspan y="-44.7402" x="515.2297 519.82168">55</tspan></text>
</g>
<g id="Layer-1" data-name="Span">
</g>
<g id="Layer-1" data-name="Span">
</g>
<g id="Layer-1" data-name="Span">
<text fill="#404041" xml:space="preserve" transform="matrix(1 0 -0 1 0 841.89)" font-size="7" font-family="Roboto"><tspan y="-29.016" x="431.9652 436.80223 440.83073 445.9197 449.9482 454.5542 458.5827 462.6217 466.6614 470.53733 472.28034 477.23426 481.82487 486.41548 489.87419 494.34437 498.80339 503.86018 506.0008 511.08979 515.92678 519.95529">GENERELLE OPPLYSNINGER</tspan></text>
<text fill="#404041" xml:space="preserve" transform="matrix(1 0 -0 1 0 841.89)" font-size="5" font-family="Roboto" font-weight="bold"><tspan y="-805.9686" x="403.742 407.072 410.257 413.222 415.8245 419.0045 422.5345 425.86448 428.68849 431.86848 435.05348 438.14347 439.38847 442.56846">GRATANGLAKS AS</tspan></text>
</g>
<g id="Layer-1" data-name="Span">
<text fill="#595959" xml:space="preserve" transform="matrix(1 0 -0 1 0 841.89)" font-size="5" font-family="Roboto"><tspan y="-805.9686" x="452.017 455.302 460.147 463.397 466.407 469.712 472.962 476.392 479.375 482.49 485.625 488.875 492.305 495.63 498.95503 502.565 505.6185">B&#x00c6;REKRAFTSRAPPORT</tspan></text>
</g>
<text fill="#404041" xml:space="preserve" transform="matrix(1 0 -0 1 0 841.89)" font-size="5" font-family="Roboto" font-weight="bold"><tspan y="-805.9686" x="512.562 515.432 518.302 521.172">2020</tspan></text>
<g id="Layer-1" data-name="Artifact">
<clipPath id="cp593">
<path transform="matrix(1,0,0,-1,0,841.89)" d="M 0 0 L 595.276 0 L 595.276 841.89 L 0 841.89 Z "/>
</clipPath>
<g clip-path="url(#cp593)">
<path transform="matrix(1,0,0,-1,0,39.3869)" stroke-width=".5" stroke-linecap="butt" stroke-miterlimit="4" stroke-linejoin="miter" fill="none" stroke="#404041" d="M 0 0 L 524.409 0 "/>
</g>
</g>
</g>
</g>
</svg>
