<?xml version="1.0" encoding="UTF-8" standalone="no"?>
<!DOCTYPE svg PUBLIC "-//W3C//DTD SVG 1.1//EN" "http://www.w3.org/Graphics/SVG/1.1/DTD/svg11.dtd">
<svg xmlns="http://www.w3.org/2000/svg" xmlns:xlink="http://www.w3.org/1999/xlink" version="1.1" width="595.276pt" height="841.89pt" viewBox="0 0 595.276 841.89">
<g enable-background="new">
<g>
<g id="Layer-1" data-name="Artifact">
<clipPath id="cp600">
<path transform="matrix(1,0,0,-1,0,841.89)" d="M 0 0 L 595.276 0 L 595.276 841.89 L 0 841.89 Z "/>
</clipPath>
<g clip-path="url(#cp600)">
<filter id="blend_3"><feBlend mode="overlay" in2="BackgroundImage" in="SourceGraphic"/></filter>
<g filter="url(#blend_3)">
<clipPath id="cp601">
<path transform="matrix(1,0,0,-1,0,841.89)" d="M 69.8661 684.051 L 525.409 684.051 L 525.409 686.551 L 69.8661 686.551 Z "/>
</clipPath>
<g clip-path="url(#cp601)">
<path transform="matrix(1,0,0,-1,70.8661,156.58863)" stroke-width=".5" stroke-linecap="butt" stroke-miterlimit="4" stroke-linejoin="miter" fill="none" stroke="#b9bbbd" d="M 0 0 L 453.543 0 "/>
</g>
</g>
</g>
<g id="Layer-1" data-name="Artifact">
<g filter="url(#blend_3)">
<clipPath id="cp602">
<path transform="matrix(1,0,0,-1,0,841.89)" d="M 70.0806 493.318 L 525.624 493.318 L 525.624 495.818 L 70.0806 495.818 Z "/>
</clipPath>
<g clip-path="url(#cp602)">
<path transform="matrix(1,0,0,-1,71.0806,347.32203)" stroke-width=".5" stroke-linecap="butt" stroke-miterlimit="4" stroke-linejoin="miter" fill="none" stroke="#b9bbbd" d="M 0 0 L 453.543 0 "/>
</g>
</g>
</g>
<g id="Layer-1" data-name="Span">
</g>
<text fill="#2b3b52" xml:space="preserve" transform="matrix(1 0 -0 1 0 841.89)" font-size="15" font-family="Roboto"><tspan y="-759.7736" x="70.8661 78.487598 86.944599 94.7011 99.787609 107.4091 115.92911 119.66411 128.5426 136.3531 144.08261 152.02962 160.44162 165.46663 169.24962 173.10462 181.62012 189.46512 193.20012 201.15462 209.67913 218.16913 223.41313 227.26813 235.74614 244.26165 252.20264 257.46766 261.20265 265.08766 268.82264 277.3366 282.48463 290.95213 299.1346 307.5916 311.3716 319.1356 327.2176 334.86009 338.76908 347.28459 355.78657 363.73356 372.22355 375.95854 384.44853 392.9385 396.6735 400.5375 408.2145 415.548 423.489 428.65205 436.83454 445.359 453.849 462.354 467.65953 475.539 479.448 487.3695 495.8595">102-10 Vesentlige endringer i organisasjonen og leverand&#x00f8;rkjede</tspan></text>
</g>
<g id="Layer-1" data-name="Span">
</g>
<g id="Layer-1" data-name="Span">
</g>
<g id="Layer-1" data-name="Span">
<text fill="#404041" xml:space="preserve" transform="matrix(1 0 -0 1 0 841.89)" font-size="9" font-family="Roboto"><tspan y="-735.2513" x="70.8661 77.022098 80.0461 84.922298 87.8689 92.7271 97.7644 102.7594 104.7754 109.6786 114.07869 118.63269 120.87369 126.541889 131.86989 134.18648 139.20757 144.06577 147.08977 149.34877 152.30078 155.31308 160.02819 168.00218 170.21617 173.11959 175.12839 177.1444 179.38539 184.44969 189.5554 194.6206 199.6066 201.82059 206.85428 209.99889 212.05629 215.2612 218.01071 222.68892 225.57793 227.80092 232.43682 237.30312 245.31671 253.35192 258.0571 262.9981 265.28504 273.31935 278.04347 283.04747 285.27049 290.96568 293.04646 297.71836 299.80995 304.16325 308.98725 311.21476 316.28175 318.29145 322.89134 327.15913 331.81214 334.63993 339.49815 342.68144 350.74815 352.89915 355.11317 359.79045 362.81443 367.85444 372.4642 377.0182 379.2592 384.1831 388.4581 390.79814 395.83183 398.9773 401.0347 404.2396 407.1286 411.6952 414.4897 419.5702 422.75349 430.84629 432.56529 434.7793 439.8013 444.65953 447.6835 449.9425 455.0365 459.7615 464.7952 467.9398 469.99809 473.2021 475.9516 480.6577 485.59873 487.88026 492.49543 495.24943 500.32905 503.75624 506.64524 508.86827 513.4744 518.15176 521.3116 524.20059">Gratanglaks AS har frem til 2020 driftet sammen med Kleiva Fiskefarm. Tross ny driftsform, har bedriften stort sett </tspan><tspan y="-724.4513" x="70.8661 75.9331 80.5861 82.773097 87.3892 92.25549 100.26999 108.30429 112.95729 115.14429 120.203189 125.15229 129.4957 134.2207 139.2247 141.30641 145.94951 150.29381 154.99901 158.02301 162.92621 167.9725 173.05211 178.13442 181.14762 185.85282 190.91442 195.56742 197.75441 202.3444 207.4339 215.4079 217.5949 220.501 222.56472 227.56871 229.57842 231.63222 236.7082 241.4134 244.4257 249.0787 251.2657 256.1041 258.7303">de samme hovedleverand&#x00f8;rene som tidligere &#x00e5;r.</tspan></text>
</g>
<g id="Layer-1" data-name="Span">
<text fill="#2b3b52" xml:space="preserve" transform="matrix(1 0 -0 1 0 841.89)" font-size="15" font-family="Roboto"><tspan y="-640.1633" x="70.8661 78.487598 86.944599 94.7011 99.787609 106.8136 115.3336 119.0686 127.9066 131.6881 135.54309 143.9836 157.0936 162.3991 175.3951 179.25009 187.7281 196.21811 199.95311 208.44312 216.93312 220.66812 229.21213 234.53263 243.05263 250.89763 254.63263 262.50764 270.11265 273.84764 281.25764 286.15965 294.66465 299.81266 307.71015 313.91114 321.24617 329.42118 333.72019 340.24519 348.77568 354.02119 357.8762 366.28968 374.01466 377.86216 386.39265 394.90513 402.77864 407.95365 415.22865">102-11 Tiln&#x00e6;rming og bruk av &#x00ab;f&#x00f8;re-var-prinsippet&#x00bb; </tspan></text>
</g>
<g id="Layer-1" data-name="Span">
</g>
<g id="Layer-1" data-name="Span">
</g>
<g id="Layer-1" data-name="Span">
</g>
<g id="Layer-1" data-name="Span">
</g>
<g id="Layer-1" data-name="Span">
</g>
<g id="Layer-1" data-name="Span">
</g>
<g id="Layer-1" data-name="Span">
<text fill="#404041" xml:space="preserve" transform="matrix(1 0 -0 1 0 841.89)" font-size="9" font-family="Roboto"><tspan y="-615.6411" x="70.8661 73.26009 78.36489 84.52089 87.54489 92.42109 95.36769 100.22589 105.26319 110.258197 112.27419 117.17739 121.577487 126.131488 131.22548 136.89368 142.32518 147.39218 152.62747 154.77037 159.85268 162.86498 167.51798 172.07198 177.16597 182.23297 186.91028 189.79929 194.87079 199.72899 202.8736 204.8833 206.9371 211.9321 217.01169 220.1563 222.166 226.7317 228.74771 233.04701 238.1284 242.9866 247.9276 252.82361 254.93231 259.2073 263.93949 268.64469 271.29518 273.01417 278.08207 282.99339 287.3494 292.4299 295.4539 300.5659 303.74919 308.8513 311.7547 313.7707 318.8593 323.56544 326.58943 331.70143 334.59043 336.6064 338.6224 343.1989 348.12284 352.88114 356.04106 358.79057 363.46879 366.3578 371.4293 376.4333 378.52488 382.86918 387.57438 390.68208 395.28736 399.94038 404.98399 408.12858 410.13829 414.70396 416.71995 421.01927 426.13487 430.84098 433.86497 438.97697 443.47969 448.51789 451.54188 456.60887 461.31498 464.32728 468.9803 473.53428 478.6283 483.7232 488.7182 493.7969 498.8315 501.8555 506.7731 509.978 512.7275 517.3805 522.0452 524.1962">I Gratanglaks AS gj&#x00f8;res det &#x00e5;rlig risikoanalyser, hvor rutiner tilknyttet diverse risikoer vurderes og dr&#x00f8;ftes. </tspan><tspan y="-604.8411" x="70.8661 76.7296 78.7402 83.3059 85.3219 89.6212 94.570308 99.072109 104.111209 107.13521 112.20221 116.90831 120.05291 122.06891 127.13411 132.2092 136.9153 139.9393 144.30069 147.0952 152.17479 155.18709 159.8644 162.811 167.6152 172.1692 176.5126 181.5643 186.3883 190.7164 195.5404 197.55011 199.63092 204.28392 208.57692 210.67032 215.75081 220.21572 225.03972 227.04853 229.15453 231.90404 236.58135 239.33086 244.03606 247.06006 251.42145 259.45664 264.18077 269.18476 273.50477 278.57087 283.27699 288.2594 292.8134 297.34669 302.2877 306.67073 309.55973 311.5757 313.5917 317.9324 322.5323 327.62718 332.28019 336.84587 339.00315 341.98216 343.91175 348.46217 352.72996 357.38298 361.67509 366.77809 369.8903 372.68479 377.7653 380.78929 385.82298 388.96757 390.98356 396.04786 401.12385 405.82905 408.85304 413.21446 417.82423 422.91285 430.88685 435.20326 440.27836 445.04566 450.14057 455.18327 458.20726 463.09965 466.07865 467.98216 472.58204 476.99205 481.31657 486.34757 488.36357 493.19477 497.80546 502.41163 507.11683 510.2614 512.2774 517.3417 522.4798 524.1988">Risikovurderinger foretas p&#x00e5; alle lokaliteter med hensyn til spesifikke utfordringer som geografisk plassering, </tspan><tspan y="-594.04116" x="70.8661 73.878398 78.55029 80.55999 85.16619 89.81919 94.54509 98.932598 103.5478 106.4935 111.3517 116.398 121.465007 126.171108 129.1951 132.33609 137.43099 142.42598 145.53998 147.63338 152.71387 157.17877 162.00278 164.08359 168.73659 171.81459 176.13368 184.05188 187.43138 190.22499 195.30548 198.47978 203.55847 208.61647 210.67928 215.76607 217.91707 221.01306 227.22757 232.31256 237.38047 242.03347 245.11147 250.16408 253.18808 258.2281 262.83427 267.48728 272.09706 276.70323 281.40934 284.43333 287.57435 292.56935 294.58534 297.6093 300.80073 305.8434 309.0276 314.0658 319.1022 324.11073 326.1267 330.9912 335.9862 339.10023 341.8947 346.97434 349.99833 353.14476 357.48905 362.16007 364.25437 369.20259 373.54689 378.25209 381.66578 386.01008 390.6811 392.74479 397.81178 402.46479 405.5428 410.63768 415.29069 419.85636 421.87236 427.00148 429.93458 434.94218 436.95817 442.02247 447.09757 451.80369 454.82768 457.9687 463.0582 471.0322 474.1282 477.0172 479.0332 481.1392 484.0849 488.9431 493.35313 496.45814 501.00764 505.93156 510.68986 513.84976 516.5992 521.2765 524.16549">reiseavstander og lokale v&#x00e6;rforhold. Gode prosesser gir grunnlag for veloverveide beslutninger om tiltak knyttet </tspan><tspan y="-583.24118" x="70.8661 73.76949 75.77829 77.79429 80.98659 84.13209 86.141788 90.70749 92.72349 97.02278 102.02498 104.17598 107.34128 113.01668 115.03268 118.224979 123.307277 128.29058 132.89048 137.15828 141.86348 144.88748 148.10048 152.92449 156.10329 158.8978 163.97829 166.99059 171.69579 176.6323 180.96759 186.01749 191.09258 195.74558 198.88927 203.63318 208.36717 212.83116 214.84717 219.53618 221.25518 224.42317 229.36417 231.54488 236.05207 240.60157 244.86937 249.57547 252.59947 255.81157 260.90647 265.90147 269.08119 273.9394 278.9848 284.0185 287.03169 291.6847 294.8284 299.9125 304.9948 309.97813 314.578 318.8458 323.56993 328.63783 333.29084 336.43455 341.50065 346.20677 351.25218 356.25617 358.27217 363.33647 368.41246 373.11766 376.14164 379.35466 383.90415 388.82716 393.58634 396.74626 399.49485 404.17308 407.06208 410.23368 413.1371 415.1468 417.16279 420.3551 425.3888 428.5334 430.59169 433.79658 436.54518 441.25129 446.1923 449.426 453.7793 458.6366 461.2628 463.4138 466.5764 468.9704 472.17533 477.17485 483.41545 488.74345 492.01225 496.51945 498.66236 503.74467 506.75697 511.46308 514.48709 517.7001 522.16409 524.18008">til risiko. Vi &#x00f8;nsker &#x00e5; forebygge avvik, ulykker og andre u&#x00f8;nskede hendinger knyttet til driften v&#x00e5;r. I EQS kj&#x00f8;rer vi </tspan><tspan y="-572.44119" x="70.8661 76.3372 78.353199 82.929698 87.197498 91.902698 94.9267 96.788799 101.77839 106.85889 111.91148 116.897487 118.73528 124.419689 129.36069 134.2567 136.3663 140.6413 145.3735 150.2083 152.7823 155.8018 160.9048 164.01702 167.22553 171.70302 173.71183 175.72153 177.73754 182.80274 187.79773 189.62653 192.25724 197.93354 202.83853 208.46353 211.39754 213.03464 217.37894 222.10305 227.10704 228.92684 233.78504 236.95934 242.05335 246.72525 248.78806 253.79206 258.40184 263.48146 268.57545 273.28157 276.30555 281.15476 285.70875 287.85166 292.93128 297.99378 302.69898 305.72297 307.58509 312.19486 317.28349 325.25749 327.0719 329.0879 333.6644 337.9322 342.5852 344.37803 349.08415 352.10813 353.96934 357.11393 359.1245 363.6902 365.70619 370.0055 374.9546 379.4564 384.4955 387.5195 392.5865 397.2926 400.7198 403.7087 405.8597 407.67234 413.34684 415.36283 417.20423 419.99873 425.05854 427.11323 432.18833 436.89445 439.91844 441.77964 447.89695 454.28697 456.06178 462.23307 464.32737 469.40699 474.45957 479.28358 481.29957 483.14097 489.04228 494.1309 502.13639 507.18898 512.04806 516.72988 519.61886 524.17288">Sikker Jobb Analyse- utfylling (SJA) ved arbeidsoperasjoner som ikke er risikovurdert. Vi f&#x00f8;lger UN Global Compacts </tspan><tspan y="-561.6412" x="70.8661 75.91869 79.06419 81.08019 86.08959 90.6553 92.671298 97.75089 102.73689 104.92389 109.98819 112.613498 114.31809 118.593097 120.312099 122.49909 127.114299 132.2029 140.1769 142.36389 147.07089 150.0949 152.28189 157.1059 159.2929 163.9729 166.72692 171.66971 174.82962 177.57823 182.23123 184.41823 189.10453 194.04552 196.23252 199.09722 204.17952 207.19182 212.02751 215.77152 220.12482 224.98302 227.60923 231.31093 234.21434 236.22315 238.23915 243.26204 251.18024 254.36354 262.34385 264.35984 269.42506 274.42005 276.60707 279.49607 281.53187 283.54786 285.73487 293.74488 295.75367 297.77867 299.92158 304.98408 310.08708 313.19929 315.99378 321.07429 324.09828 329.13197 332.27656 334.29255 339.35685 344.43284 349.13804 351.7633">prinsipp nr.7, som er &#x00e5; st&#x00f8;tte en f&#x00f8;re-var-tiln&#x00e6;rming til milj&#x00f8;utfordringer.</tspan><tspan y="-540.0412" x="70.8661 77.022098 80.0461 84.922298 87.8689 92.7271 97.7644 102.7594 104.7754 109.6786 114.07869 118.63269 120.81969 125.87229 130.73049 133.75449 135.94149 140.81499 142.82379 144.9289 147.8323 149.89601 154.90001 157.087 162.1729 167.1328 171.892 174.781 176.968 179.7706 184.85109 189.3331 194.2741 198.8281 201.01509 206.1676 210.99161 213.1786 219.5623 227.3815 232.9156 235.0666 237.2536 243.1342 248.2246 256.2391 264.2194 266.23539 271.29969 276.29469 278.4817 283.5919 288.58689 290.7739 293.5846 298.6651 301.8097 303.82569 308.8909 313.8859 316.0729 320.7943 323.8183 326.0053 331.1488 336.1438 340.7977 345.6217 347.80873 352.4302 357.1354 362.10163 365.03474 368.05873 372.92774 375.0085 379.66154 381.84855 383.86454 386.05155 390.41386 395.27207 398.28437 402.93739 405.1244 408.24919 410.25978 414.82545 416.84144 421.14076 426.08985 430.59165 435.63078 438.65476 443.72175 448.42787 451.57246 453.58845 458.65367 463.72877 468.43489 471.06016">Gratanglaks har alltid h&#x00f8;yt fokus p&#x00e5; HMS. R&#x00f8;mming og f&#x00f4;ring er ogs&#x00e5; sentrale i v&#x00e5;re risikovurderinger.</tspan></text>
</g>
<text fill="#2b3b52" xml:space="preserve" transform="matrix(1 0 -0 1 0 841.89)" font-size="15" font-family="Roboto"><tspan y="-448.5418" x="70.8661 78.487598 86.944599 94.7011 99.787609 107.1676 115.68761 119.42261 132.45612 140.37612 148.81362 152.67162 160.61112 173.56513 181.35762 189.12462 197.30112 205.79113 209.52613 213.41112 217.14612 225.65863 230.80663 239.27413 247.45664 255.91364 259.69364 267.4576 275.5396 283.1821 287.0911 295.6066 304.10859 312.0496 317.3146">102-13 Medlemskap i organisasjoner </tspan></text>
<g id="Layer-1" data-name="Artifact">
<clipPath id="cp603">
<path transform="matrix(1,0,0,-1,0,841.89)" d="M 0 0 L 595.276 0 L 595.276 841.89 L 0 841.89 Z "/>
</clipPath>
<g clip-path="url(#cp603)">
<g filter="url(#blend_3)">
<clipPath id="cp604">
<path transform="matrix(1,0,0,-1,0,841.89)" d="M 69.8661 387.346 L 525.409 387.346 L 525.409 389.846 L 69.8661 389.846 Z "/>
</clipPath>
<g clip-path="url(#cp604)">
<path transform="matrix(1,0,0,-1,70.8661,453.2936)" stroke-width=".5" stroke-linecap="butt" stroke-miterlimit="4" stroke-linejoin="miter" fill="none" stroke="#b9bbbd" d="M 0 0 L 453.543 0 "/>
</g>
</g>
</g>
<g id="Layer-1" data-name="Span">
</g>
<text fill="#404041" xml:space="preserve" transform="matrix(1 0 -0 1 0 841.89)" font-size="9" font-family="Roboto"><tspan y="-424.0195" x="70.8661 76.27689 78.34689 83.51019 91.50219 96.29739 99.19359 101.38059 107.81019 112.890689 115.902988 120.97809 125.59869">Sj&#x00f8;mat Norge.</tspan></text>
</g>
<g id="Layer-1" data-name="Span">
</g>
<g id="Layer-1" data-name="Span">
</g>
<text fill="#404041" xml:space="preserve" transform="matrix(1 0 -0 1 0 841.89)" font-size="8" font-family="Roboto" font-weight="bold"><tspan y="-44.7402" x="70.8661 75.64369">58</tspan></text>
<text fill="#404041" xml:space="preserve" transform="matrix(1 0 -0 1 0 841.89)" font-size="7" font-family="Roboto"><tspan y="-29.016" x="70.8661 75.703098 79.73159 84.82059 88.84908 93.455089 97.48358 101.52258 105.56228 109.43818 111.18118 116.13508 120.72568 125.31628 128.77498 133.24518 137.70418 142.76099 144.90158 149.99059 154.82759 158.8561">GENERELLE OPPLYSNINGER</tspan></text>
<g id="Layer-1" data-name="Artifact">
<clipPath id="cp605">
<path transform="matrix(1,0,0,-1,0,841.89)" d="M 0 0 L 595.276 0 L 595.276 841.89 L 0 841.89 Z "/>
</clipPath>
<g clip-path="url(#cp605)">
<path transform="matrix(1,0,0,-1,1119.685,802.3869)" stroke-width=".5" stroke-linecap="butt" stroke-miterlimit="4" stroke-linejoin="miter" fill="none" stroke="#404041" d="M 0 0 L -1048.819 0 "/>
</g>
<g id="Layer-1" data-name="Artifact">
<path transform="matrix(1,0,0,-1,70.8661,39.3869)" stroke-width=".5" stroke-linecap="butt" stroke-miterlimit="4" stroke-linejoin="miter" fill="none" stroke="#404041" d="M 0 0 L 1048.819 0 "/>
</g>
</g>
</g>
</g>
</svg>
