<?xml version="1.0" encoding="UTF-8" standalone="no"?>
<!DOCTYPE svg PUBLIC "-//W3C//DTD SVG 1.1//EN" "http://www.w3.org/Graphics/SVG/1.1/DTD/svg11.dtd">
<svg xmlns="http://www.w3.org/2000/svg" xmlns:xlink="http://www.w3.org/1999/xlink" version="1.1" width="595.276pt" height="841.89pt" viewBox="0 0 595.276 841.89">
<g enable-background="new">
<g id="Layer-1" data-name="Span">
</g>
<g id="Layer-1" data-name="Span">
<text fill="#10a79d" xml:space="preserve" transform="matrix(1 0 -0 1 0 841.89)" font-size="15" font-family="Roboto"><tspan y="-759.7736" x="70.7728 79.313808 87.6718 94.819309 99.90581 108.42581 112.16081 121.766819 127.08731 135.62532 144.14083 152.63083 156.36583 164.81383 172.97383 176.70883 180.54433 188.73734 196.07083 204.01183 209.27683 213.01183 221.50183 229.99184 233.72684 238.88085 246.77835 255.23836 259.09635 267.03587 272.30088 276.03587 284.02488 292.27787 300.29689 305.66539 310.55839 318.4304 323.5604 327.29539 332.32038 336.1034 339.9884 343.7234 356.72389 360.5069 364.2929 368.2019 376.7069">307-1 Brudd p&#x00e5; lover og regler knyttet til milj&#x00f8; </tspan></text>
</g>
<g id="Layer-1" data-name="Span">
</g>
<g id="Layer-1" data-name="Span">
</g>
<text fill="#404041" xml:space="preserve" transform="matrix(1 0 -0 1 0 841.89)" font-size="9" font-family="Roboto"><tspan y="-735.2513" x="70.7728 73.1776 78.2149 83.2909 87.9961 92.9371 95.1241 98.206607 102.92351 107.91851 109.94711 114.56232 117.494518 120.50681 125.21291 128.6401 131.38962 136.04262 138.22962 143.27951 147.98561 153.031 158.0989 162.76992 164.78052 169.38582 174.09192 177.11592 179.30292 184.40412 189.22812 191.41512 196.48392 199.66722 204.72072 209.76972 214.77371 216.96071 221.7118 226.0408 228.2278 231.3157 236.03261 241.0276 243.1273 247.8325 250.8565 253.0435 257.764 259.7737 261.8545 266.5606 269.5846 271.7716 279.8014 281.81019 283.83518 285.9781 291.0388 293.13218 298.08039 302.42469 307.1308 309.75608">Ingen registrerte hendelser p&#x00e5; brudd av regler eller milj&#x00f8;lover.</tspan></text>
<text fill="#404041" xml:space="preserve" transform="matrix(1 0 -0 1 0 841.89)" font-size="7" font-family="Roboto"><tspan y="-29.016" x="425.599 431.8101 433.9521 438.0933 442.1204 447.08549 453.3295 457.3678 461.8555 466.2865 468.4453 473.2816 477.15748 478.90046 481.04246 486.13078 490.93278 493.07478 497.96708 502.1454 506.37059 511.32447 515.9291 519.9576">MILJ&#x00d8;MESSIGE INDIKATORER</tspan></text>
<text fill="#404041" xml:space="preserve" transform="matrix(1 0 -0 1 0 841.89)" font-size="8" font-family="Roboto" font-weight="bold"><tspan y="-44.7402" x="515.2297 519.82168">79</tspan></text>
<g id="Layer-1" data-name="Artifact">
<clipPath id="cp716">
<path transform="matrix(1,0,0,-1,0,841.89)" d="M 0 0 L 595.276 0 L 595.276 841.89 L 0 841.89 Z "/>
</clipPath>
<g clip-path="url(#cp716)">
<path transform="matrix(1,0,0,-1,524.4094,802.3869)" stroke-width=".5" stroke-linecap="butt" stroke-miterlimit="4" stroke-linejoin="miter" fill="none" stroke="#404041" d="M 0 0 L -1048.819 0 "/>
</g>
<g id="Layer-1" data-name="Span">
</g>
<text fill="#404041" xml:space="preserve" transform="matrix(1 0 -0 1 0 841.89)" font-size="5" font-family="Roboto" font-weight="bold"><tspan y="-805.9686" x="403.742 407.072 410.257 413.222 415.8245 419.0045 422.5345 425.86448 428.68849 431.86848 435.05348 438.14347 439.38847 442.56846">GRATANGLAKS AS</tspan></text>
</g>
<g id="Layer-1" data-name="Span">
</g>
<g id="Layer-1" data-name="Span">
<text fill="#595959" xml:space="preserve" transform="matrix(1 0 -0 1 0 841.89)" font-size="5" font-family="Roboto"><tspan y="-805.9686" x="452.0188 455.3038 460.1488 463.3988 466.4088 469.7138 472.9638 476.3938 479.3768 482.4918 485.6268 488.8768 492.3068 495.6318 498.95683 502.5668 505.6203">B&#x00c6;REKRAFTSRAPPORT</tspan></text>
</g>
<text fill="#404041" xml:space="preserve" transform="matrix(1 0 -0 1 0 841.89)" font-size="5" font-family="Roboto" font-weight="bold"><tspan y="-805.9686" x="512.5638 515.4338 518.3038 521.17379">2020</tspan></text>
<g id="Layer-1" data-name="Artifact">
<clipPath id="cp717">
<path transform="matrix(1,0,0,-1,0,841.89)" d="M 0 0 L 595.276 0 L 595.276 841.89 L 0 841.89 Z "/>
</clipPath>
<g clip-path="url(#cp717)">
<path transform="matrix(1,0,0,-1,-524.4094,39.3869)" stroke-width=".5" stroke-linecap="butt" stroke-miterlimit="4" stroke-linejoin="miter" fill="none" stroke="#404041" d="M 0 0 L 1048.819 0 "/>
</g>
</g>
</g>
</svg>
