<?xml version="1.0" encoding="UTF-8" standalone="no"?>
<!DOCTYPE svg PUBLIC "-//W3C//DTD SVG 1.1//EN" "http://www.w3.org/Graphics/SVG/1.1/DTD/svg11.dtd">
<svg xmlns="http://www.w3.org/2000/svg" xmlns:xlink="http://www.w3.org/1999/xlink" version="1.1" width="595.276pt" height="841.89pt" viewBox="0 0 595.276 841.89">
<g enable-background="new">
<g>
<path transform="matrix(1,0,0,-1,0,841.89)" d="M 70.866 702.632 L 524.223 702.632 L 524.223 680.315 L 70.866 680.315 Z M 70.866 253.984 L 524.223 253.984 L 524.223 231.039 L 70.866 231.039 Z M 70.866 199.499 L 524.223 199.499 L 524.223 175.29199 L 70.866 175.29199 Z M 70.866 143.75 L 524.223 143.75 L 524.223 120.488 L 70.866 120.488 Z " fill="#f2f2f3"/>
<path transform="matrix(1,0,0,-1,70.8661,107.341739)" stroke-width=".75" stroke-linecap="butt" stroke-miterlimit="10" stroke-linejoin="miter" fill="none" stroke="#404041" d="M 0 0 L 76.519 0 "/>
<path transform="matrix(1,0,0,-1,147.3852,107.341739)" stroke-width=".75" stroke-linecap="butt" stroke-miterlimit="10" stroke-linejoin="miter" fill="none" stroke="#404041" d="M 0 0 L 103.008 0 "/>
<path transform="matrix(1,0,0,-1,250.3937,107.341739)" stroke-width=".75" stroke-linecap="butt" stroke-miterlimit="10" stroke-linejoin="miter" fill="none" stroke="#404041" d="M 0 0 L 130.866 0 "/>
<path transform="matrix(1,0,0,-1,381.2598,107.341739)" stroke-width=".75" stroke-linecap="butt" stroke-miterlimit="10" stroke-linejoin="miter" fill="none" stroke="#404041" d="M 0 0 L 142.963 0 "/>
<path transform="matrix(1,0,0,-1,70.8661,193.11621)" stroke-width=".5" stroke-linecap="butt" stroke-miterlimit="10" stroke-linejoin="miter" fill="none" stroke="#404041" d="M 0 0 L 76.519 0 "/>
<path transform="matrix(1,0,0,-1,147.3852,193.11621)" stroke-width=".5" stroke-linecap="butt" stroke-miterlimit="10" stroke-linejoin="miter" fill="none" stroke="#404041" d="M 0 0 L 103.008 0 "/>
<path transform="matrix(1,0,0,-1,250.3937,193.11621)" stroke-width=".5" stroke-linecap="butt" stroke-miterlimit="10" stroke-linejoin="miter" fill="none" stroke="#404041" d="M 0 0 L 130.866 0 "/>
<path transform="matrix(1,0,0,-1,381.2598,193.11621)" stroke-width=".5" stroke-linecap="butt" stroke-miterlimit="10" stroke-linejoin="miter" fill="none" stroke="#404041" d="M 0 0 L 142.963 0 "/>
<path transform="matrix(1,0,0,-1,70.8661,224.65753)" stroke-width=".5" stroke-linecap="butt" stroke-miterlimit="10" stroke-linejoin="miter" fill="none" stroke="#404041" d="M 0 0 L 76.519 0 "/>
<path transform="matrix(1,0,0,-1,147.3852,224.65753)" stroke-width=".5" stroke-linecap="butt" stroke-miterlimit="10" stroke-linejoin="miter" fill="none" stroke="#404041" d="M 0 0 L 103.008 0 "/>
<path transform="matrix(1,0,0,-1,250.3937,224.65753)" stroke-width=".5" stroke-linecap="butt" stroke-miterlimit="10" stroke-linejoin="miter" fill="none" stroke="#404041" d="M 0 0 L 130.866 0 "/>
<path transform="matrix(1,0,0,-1,381.2598,224.65753)" stroke-width=".5" stroke-linecap="butt" stroke-miterlimit="10" stroke-linejoin="miter" fill="none" stroke="#404041" d="M 0 0 L 142.963 0 "/>
<path transform="matrix(1,0,0,-1,70.8661,256.19874)" stroke-width=".5" stroke-linecap="butt" stroke-miterlimit="10" stroke-linejoin="miter" fill="none" stroke="#404041" d="M 0 0 L 76.519 0 "/>
<path transform="matrix(1,0,0,-1,147.3852,256.19874)" stroke-width=".5" stroke-linecap="butt" stroke-miterlimit="10" stroke-linejoin="miter" fill="none" stroke="#404041" d="M 0 0 L 103.008 0 "/>
<path transform="matrix(1,0,0,-1,250.3937,256.19874)" stroke-width=".5" stroke-linecap="butt" stroke-miterlimit="10" stroke-linejoin="miter" fill="none" stroke="#404041" d="M 0 0 L 130.866 0 "/>
<path transform="matrix(1,0,0,-1,381.2598,256.19874)" stroke-width=".5" stroke-linecap="butt" stroke-miterlimit="10" stroke-linejoin="miter" fill="none" stroke="#404041" d="M 0 0 L 142.963 0 "/>
<path transform="matrix(1,0,0,-1,70.8661,287.73994)" stroke-width=".5" stroke-linecap="butt" stroke-miterlimit="10" stroke-linejoin="miter" fill="none" stroke="#404041" d="M 0 0 L 76.519 0 "/>
<path transform="matrix(1,0,0,-1,147.3852,287.73994)" stroke-width=".5" stroke-linecap="butt" stroke-miterlimit="10" stroke-linejoin="miter" fill="none" stroke="#404041" d="M 0 0 L 103.008 0 "/>
<path transform="matrix(1,0,0,-1,250.3937,287.73994)" stroke-width=".5" stroke-linecap="butt" stroke-miterlimit="10" stroke-linejoin="miter" fill="none" stroke="#404041" d="M 0 0 L 130.866 0 "/>
<path transform="matrix(1,0,0,-1,381.2598,287.73994)" stroke-width=".5" stroke-linecap="butt" stroke-miterlimit="10" stroke-linejoin="miter" fill="none" stroke="#404041" d="M 0 0 L 142.963 0 "/>
<path transform="matrix(1,0,0,-1,70.8661,319.28114)" stroke-width=".5" stroke-linecap="butt" stroke-miterlimit="10" stroke-linejoin="miter" fill="none" stroke="#404041" d="M 0 0 L 76.519 0 "/>
<path transform="matrix(1,0,0,-1,147.3852,319.28114)" stroke-width=".5" stroke-linecap="butt" stroke-miterlimit="10" stroke-linejoin="miter" fill="none" stroke="#404041" d="M 0 0 L 103.008 0 "/>
<path transform="matrix(1,0,0,-1,250.3937,319.28114)" stroke-width=".5" stroke-linecap="butt" stroke-miterlimit="10" stroke-linejoin="miter" fill="none" stroke="#404041" d="M 0 0 L 130.866 0 "/>
<path transform="matrix(1,0,0,-1,381.2598,319.28114)" stroke-width=".5" stroke-linecap="butt" stroke-miterlimit="10" stroke-linejoin="miter" fill="none" stroke="#404041" d="M 0 0 L 142.963 0 "/>
<path transform="matrix(1,0,0,-1,70.8661,556.3644)" stroke-width=".5" stroke-linecap="butt" stroke-miterlimit="10" stroke-linejoin="miter" fill="none" stroke="#404041" d="M 0 0 L 76.519 0 "/>
<path transform="matrix(1,0,0,-1,147.3852,556.3644)" stroke-width=".5" stroke-linecap="butt" stroke-miterlimit="10" stroke-linejoin="miter" fill="none" stroke="#404041" d="M 0 0 L 103.008 0 "/>
<path transform="matrix(1,0,0,-1,250.3937,556.3644)" stroke-width=".5" stroke-linecap="butt" stroke-miterlimit="10" stroke-linejoin="miter" fill="none" stroke="#404041" d="M 0 0 L 130.866 0 "/>
<path transform="matrix(1,0,0,-1,381.2598,556.3644)" stroke-width=".5" stroke-linecap="butt" stroke-miterlimit="10" stroke-linejoin="miter" fill="none" stroke="#404041" d="M 0 0 L 142.963 0 "/>
<path transform="matrix(1,0,0,-1,70.8661,350.82234)" stroke-width=".5" stroke-linecap="butt" stroke-miterlimit="10" stroke-linejoin="miter" fill="none" stroke="#404041" d="M 0 0 L 76.519 0 "/>
<path transform="matrix(1,0,0,-1,147.3852,350.82234)" stroke-width=".5" stroke-linecap="butt" stroke-miterlimit="10" stroke-linejoin="miter" fill="none" stroke="#404041" d="M 0 0 L 103.008 0 "/>
<path transform="matrix(1,0,0,-1,250.3937,350.82234)" stroke-width=".5" stroke-linecap="butt" stroke-miterlimit="10" stroke-linejoin="miter" fill="none" stroke="#404041" d="M 0 0 L 130.866 0 "/>
<path transform="matrix(1,0,0,-1,381.2598,350.82234)" stroke-width=".5" stroke-linecap="butt" stroke-miterlimit="10" stroke-linejoin="miter" fill="none" stroke="#404041" d="M 0 0 L 142.963 0 "/>
<path transform="matrix(1,0,0,-1,70.8661,382.36363)" stroke-width=".5" stroke-linecap="butt" stroke-miterlimit="10" stroke-linejoin="miter" fill="none" stroke="#404041" d="M 0 0 L 76.519 0 "/>
<path transform="matrix(1,0,0,-1,147.3852,382.36363)" stroke-width=".5" stroke-linecap="butt" stroke-miterlimit="10" stroke-linejoin="miter" fill="none" stroke="#404041" d="M 0 0 L 103.008 0 "/>
<path transform="matrix(1,0,0,-1,250.3937,382.36363)" stroke-width=".5" stroke-linecap="butt" stroke-miterlimit="10" stroke-linejoin="miter" fill="none" stroke="#404041" d="M 0 0 L 130.866 0 "/>
<path transform="matrix(1,0,0,-1,381.2598,382.36363)" stroke-width=".5" stroke-linecap="butt" stroke-miterlimit="10" stroke-linejoin="miter" fill="none" stroke="#404041" d="M 0 0 L 142.963 0 "/>
<path transform="matrix(1,0,0,-1,70.8661,422.05213)" stroke-width=".5" stroke-linecap="butt" stroke-miterlimit="10" stroke-linejoin="miter" fill="none" stroke="#404041" d="M 0 0 L 76.519 0 "/>
<path transform="matrix(1,0,0,-1,147.3852,422.05213)" stroke-width=".5" stroke-linecap="butt" stroke-miterlimit="10" stroke-linejoin="miter" fill="none" stroke="#404041" d="M 0 0 L 103.008 0 "/>
<path transform="matrix(1,0,0,-1,250.3937,422.05213)" stroke-width=".5" stroke-linecap="butt" stroke-miterlimit="10" stroke-linejoin="miter" fill="none" stroke="#404041" d="M 0 0 L 130.866 0 "/>
<path transform="matrix(1,0,0,-1,381.2598,422.05213)" stroke-width=".5" stroke-linecap="butt" stroke-miterlimit="10" stroke-linejoin="miter" fill="none" stroke="#404041" d="M 0 0 L 142.963 0 "/>
<path transform="matrix(1,0,0,-1,70.8661,453.5934)" stroke-width=".5" stroke-linecap="butt" stroke-miterlimit="10" stroke-linejoin="miter" fill="none" stroke="#404041" d="M 0 0 L 76.519 0 "/>
<path transform="matrix(1,0,0,-1,147.3852,453.5934)" stroke-width=".5" stroke-linecap="butt" stroke-miterlimit="10" stroke-linejoin="miter" fill="none" stroke="#404041" d="M 0 0 L 103.008 0 "/>
<path transform="matrix(1,0,0,-1,250.3937,453.5934)" stroke-width=".5" stroke-linecap="butt" stroke-miterlimit="10" stroke-linejoin="miter" fill="none" stroke="#404041" d="M 0 0 L 130.866 0 "/>
<path transform="matrix(1,0,0,-1,381.2598,453.5934)" stroke-width=".5" stroke-linecap="butt" stroke-miterlimit="10" stroke-linejoin="miter" fill="none" stroke="#404041" d="M 0 0 L 142.963 0 "/>
<path transform="matrix(1,0,0,-1,70.8661,493.282)" stroke-width=".5" stroke-linecap="butt" stroke-miterlimit="10" stroke-linejoin="miter" fill="none" stroke="#404041" d="M 0 0 L 76.519 0 "/>
<path transform="matrix(1,0,0,-1,147.3852,493.282)" stroke-width=".5" stroke-linecap="butt" stroke-miterlimit="10" stroke-linejoin="miter" fill="none" stroke="#404041" d="M 0 0 L 103.008 0 "/>
<path transform="matrix(1,0,0,-1,250.3937,493.282)" stroke-width=".5" stroke-linecap="butt" stroke-miterlimit="10" stroke-linejoin="miter" fill="none" stroke="#404041" d="M 0 0 L 130.866 0 "/>
<path transform="matrix(1,0,0,-1,381.2598,493.282)" stroke-width=".5" stroke-linecap="butt" stroke-miterlimit="10" stroke-linejoin="miter" fill="none" stroke="#404041" d="M 0 0 L 142.963 0 "/>
<path transform="matrix(1,0,0,-1,70.8661,524.82327)" stroke-width=".5" stroke-linecap="butt" stroke-miterlimit="10" stroke-linejoin="miter" fill="none" stroke="#404041" d="M 0 0 L 76.519 0 "/>
<path transform="matrix(1,0,0,-1,147.3852,524.82327)" stroke-width=".5" stroke-linecap="butt" stroke-miterlimit="10" stroke-linejoin="miter" fill="none" stroke="#404041" d="M 0 0 L 103.008 0 "/>
<path transform="matrix(1,0,0,-1,250.3937,524.82327)" stroke-width=".5" stroke-linecap="butt" stroke-miterlimit="10" stroke-linejoin="miter" fill="none" stroke="#404041" d="M 0 0 L 130.866 0 "/>
<path transform="matrix(1,0,0,-1,381.2598,524.82327)" stroke-width=".5" stroke-linecap="butt" stroke-miterlimit="10" stroke-linejoin="miter" fill="none" stroke="#404041" d="M 0 0 L 142.963 0 "/>
<g id="Layer-1" data-name="Span">
</g>
<g id="Layer-1" data-name="Span">
</g>
<g id="Layer-1" data-name="Span">
</g>
<g id="Layer-1" data-name="Span">
</g>
<g id="Layer-1" data-name="Span">
</g>
<g id="Layer-1" data-name="Span">
</g>
<g id="Layer-1" data-name="Span">
</g>
<g id="Layer-1" data-name="Span">
<text fill="#939598" xml:space="preserve" transform="matrix(1 0 -0 1 0 841.89)" font-size="12" font-family="Roboto" font-weight="bold"><tspan y="-748.286" x="74.8661 82.89289 90.49489 94.01089 96.998889 103.26048 110.17128 116.96688 120.37488 123.36288 131.39208 137.76407 144.53928 150.89928 155.08248 161.40288 164.53728 167.72928 174.00528 176.99329 185.32369 192.13729 198.91249 202.11649 208.1285 214.3205 221.0801 224.27689 231.0665 237.8621 244.2221">GRI 102: Generelle Opplysninger</tspan></text>
<text fill="#939598" xml:space="preserve" transform="matrix(1 0 -0 1 0 841.89)" font-size="10" font-family="Roboto" font-weight="bold"><tspan y="-714.6527" x="76.5354 83.3134 89.7434 92.6784 97.0084 100.017398 105.76039 111.46039 114.19039 119.61039 125.05739 128.46439 134.19239 153.05539 159.55539 164.8564 170.0904 175.6164 179.2094 181.93741 186.9534 192.2984 195.0084 200.2014 256.06538 262.32038 265.07038 270.80738 276.03739 278.5274 282.1004 287.5754 293.33143 299.07743 304.8044 308.66743 386.93537 393.96235 397.37236 402.71635 405.45335 410.90034 414.31034 419.65434 422.36534 427.55833 432.93534">GRI-IndikatorBeskrivelseSide rapportUtelatelser</tspan></text>
<text fill="#939598" xml:space="preserve" transform="matrix(1 0 -0 1 0 841.89)" font-size="9" font-family="Roboto"><tspan y="-688.0985" x="76.5354 82.815608 88.5891 94.7127 100.6131 107.0238 109.6257 115.2615 121.057498 126.83009 131.9043 138.1845 144.5826 150.222 156.036 161.8194 168.0987 173.1801 175.8423">ORGANISASJONSPROFIL</tspan></text>
<text fill="#939598" xml:space="preserve" transform="matrix(1 0 -0 1 0 841.89)" font-size="10" font-family="Roboto" font-weight="bold"><tspan y="-660.7944" x="76.5354 81.8554 87.7024 93.0804 96.5254">102-1</tspan></text>
</g>
<text fill="#231f20" xml:space="preserve" transform="matrix(1 0 -0 1 0 841.89)" font-size="9" font-family="Roboto"><tspan y="-661.1694" x="153.0545 159.4445 164.1884 168.6821 173.6915 175.8785 180.9311 185.76862 187.95561 192.56182 197.23282 199.24343 203.84243 208.29743 213.16643 218.26134 222.95934">Navn p&#x00e5; selskapet</tspan></text>
<path transform="matrix(1,0,0,-1,256.063,186.77979)" stroke-width=".439" stroke-linecap="butt" stroke-miterlimit="10" stroke-linejoin="miter" fill="none" stroke="#1e5e9e" d="M 0 0 L 10.296 0 "/>
<g id="Layer-1" data-name="Span">
</g>
<g id="Layer-1" data-name="Span">
<text fill="#231f20" xml:space="preserve" transform="matrix(1 0 -0 1 0 841.89)" font-size="9" font-family="Roboto"><tspan y="-666.5695" x="256.063 262.28019 266.98539 272.04789 276.75309 279.76539 284.4373 286.44609 288.52778 293.1808 295.3678 300.4276 305.4811 310.5112 312.6208 316.89579 321.62168 326.62928 328.64527 333.70957 338.78556 343.49076 346.51475 348.70176 353.31694 355.37974 360.44764 365.10066">Generelle opplysninger side </tspan></text>
</g>
<g id="Layer-1" data-name="Span">
<text fill="#1e5e9e" xml:space="preserve" transform="matrix(1 0 -0 1 0 841.89)" font-size="9" font-family="Roboto"><tspan y="-655.76956" x="256.063 261.24427">55</tspan></text>
</g>
<g id="Layer-1" data-name="Span">
<text fill="#939598" xml:space="preserve" transform="matrix(1 0 -0 1 0 841.89)" font-size="10" font-family="Roboto" font-weight="bold"><tspan y="-629.2532" x="76.5354 81.8554 87.7014 93.08041 96.8834">102-2</tspan></text>
</g>
<g id="Layer-1" data-name="Span">
</g>
<text fill="#231f20" xml:space="preserve" transform="matrix(1 0 -0 1 0 841.89)" font-size="9" font-family="Roboto"><tspan y="-635.0282" x="153.0545 160.9115 165.6365 168.7658 173.03359 177.6767 182.03 186.8882 189.9005 194.6255 197.258 198.98059 201.16759 206.22019 209.24507 214.35707 219.36287 224.40196 229.12786 231.87735 236.60236 239.23485 240.95745">Merkevarer, produkter, </tspan><tspan y="-624.2282" x="153.0545 158.14852 163.33432 166.5599 171.2489 173.2406 175.2926 180.0257 183.0974 185.28441 188.17522 190.30641 195.01161 200.07411 204.72621 209.31621 212.09181 216.79792">og/eller tjenester</tspan></text>
<path transform="matrix(1,0,0,-1,256.063,218.32105)" stroke-width=".439" stroke-linecap="butt" stroke-miterlimit="10" stroke-linejoin="miter" fill="none" stroke="#1e5e9e" d="M 0 0 L 10.296 0 "/>
<g id="Layer-1" data-name="Span">
</g>
<g id="Layer-1" data-name="Span">
<text fill="#231f20" xml:space="preserve" transform="matrix(1 0 -0 1 0 841.89)" font-size="9" font-family="Roboto"><tspan y="-635.0282" x="256.063 262.28019 266.98539 272.04789 276.75309 279.76539 284.4373 286.44609 288.52778 293.1808 295.3678 300.4276 305.4811 310.5112 312.6208 316.89579 321.62168 326.62928 328.64527 333.70957 338.78556 343.49076 346.51475 348.70176 353.31694 355.37974 360.44764 365.10066">Generelle opplysninger side </tspan></text>
</g>
<g id="Layer-1" data-name="Span">
<text fill="#1e5e9e" xml:space="preserve" transform="matrix(1 0 -0 1 0 841.89)" font-size="9" font-family="Roboto"><tspan y="-624.2282" x="256.063 261.24427">55</tspan></text>
</g>
<g id="Layer-1" data-name="Span">
<text fill="#939598" xml:space="preserve" transform="matrix(1 0 -0 1 0 841.89)" font-size="10" font-family="Roboto" font-weight="bold"><tspan y="-597.712" x="76.5354 81.8554 87.7024 93.0804 97.2464">102-3</tspan></text>
</g>
<g id="Layer-1" data-name="Span">
</g>
<text fill="#231f20" xml:space="preserve" transform="matrix(1 0 -0 1 0 841.89)" font-size="9" font-family="Roboto"><tspan y="-603.487" x="153.0545 158.6237 163.29471 165.3044 169.8764 174.3683 179.2103 184.3232 189.0005 191.8868 196.4705">Selskapets </tspan><tspan y="-592.687" x="153.0545 158.13321 163.0823 167.4266 172.15161 177.18532 181.45851 186.53812 191.50432 194.25742 199.33792">hovedkontor</tspan></text>
<path transform="matrix(1,0,0,-1,256.063,249.86225)" stroke-width=".439" stroke-linecap="butt" stroke-miterlimit="10" stroke-linejoin="miter" fill="none" stroke="#1e5e9e" d="M 0 0 L 10.296 0 "/>
<g id="Layer-1" data-name="Span">
</g>
<g id="Layer-1" data-name="Span">
<text fill="#231f20" xml:space="preserve" transform="matrix(1 0 -0 1 0 841.89)" font-size="9" font-family="Roboto"><tspan y="-603.487" x="256.063 262.28019 266.98539 272.04789 276.75309 279.76539 284.4373 286.44609 288.52778 293.1808 295.3678 300.4276 305.4811 310.5112 312.6208 316.89579 321.62168 326.62928 328.64527 333.70957 338.78556 343.49076 346.51475 348.70176 353.31694 355.37974 360.44764 365.10066">Generelle opplysninger side </tspan></text>
</g>
<g id="Layer-1" data-name="Span">
<text fill="#1e5e9e" xml:space="preserve" transform="matrix(1 0 -0 1 0 841.89)" font-size="9" font-family="Roboto"><tspan y="-592.687" x="256.063 261.24427">55</tspan></text>
</g>
<g id="Layer-1" data-name="Span">
<text fill="#939598" xml:space="preserve" transform="matrix(1 0 -0 1 0 841.89)" font-size="10" font-family="Roboto" font-weight="bold"><tspan y="-566.1707" x="76.5354 81.8554 87.7024 93.0804 97.4794">102-4</tspan></text>
</g>
<g id="Layer-1" data-name="Span">
</g>
<text fill="#231f20" xml:space="preserve" transform="matrix(1 0 -0 1 0 841.89)" font-size="9" font-family="Roboto"><tspan y="-571.9457" x="153.0545 158.1521 163.0103 168.0557 173.0597 175.24669 180.16788 184.52387 189.60436 192.62836 194.81536 199.47016 204.14206 206.15177 210.75167 215.21657 220.07477 225.16876 229.84697 232.73598">Land hvor selskapet </tspan><tspan y="-561.1457" x="153.0545 158.13411 163.229 167.95401 170.9492 175.67421 178.6685 183.39351">opererer</tspan></text>
<path transform="matrix(1,0,0,-1,256.063,281.4035)" stroke-width=".439" stroke-linecap="butt" stroke-miterlimit="10" stroke-linejoin="miter" fill="none" stroke="#1e5e9e" d="M 0 0 L 10.296 0 "/>
<g id="Layer-1" data-name="Span">
</g>
<g id="Layer-1" data-name="Span">
<text fill="#231f20" xml:space="preserve" transform="matrix(1 0 -0 1 0 841.89)" font-size="9" font-family="Roboto"><tspan y="-571.9457" x="256.063 262.28019 266.98539 272.04789 276.75309 279.76539 284.4373 286.44609 288.52778 293.1808 295.3678 300.4276 305.4811 310.5112 312.6208 316.89579 321.62168 326.62928 328.64527 333.70957 338.78556 343.49076 346.51475 348.70176 353.31694 355.37974 360.44764 365.10066">Generelle opplysninger side </tspan></text>
</g>
<g id="Layer-1" data-name="Span">
<text fill="#1e5e9e" xml:space="preserve" transform="matrix(1 0 -0 1 0 841.89)" font-size="9" font-family="Roboto"><tspan y="-561.1457" x="256.063 261.24427">55</tspan></text>
</g>
<g id="Layer-1" data-name="Span">
<text fill="#939598" xml:space="preserve" transform="matrix(1 0 -0 1 0 841.89)" font-size="10" font-family="Roboto" font-weight="bold"><tspan y="-534.6295" x="76.5354 81.8554 87.7024 93.0804 97.3274">102-5</tspan></text>
</g>
<g id="Layer-1" data-name="Span">
</g>
<text fill="#231f20" xml:space="preserve" transform="matrix(1 0 -0 1 0 841.89)" font-size="9" font-family="Roboto"><tspan y="-540.4045" x="153.0545 158.6237 163.29561 165.30532 169.90522 174.37012 179.22832 184.21433 188.80883 191.60334 196.68292 199.86713 207.84113 210.02812 215.12572 220.12071">Selskapsform og </tspan><tspan y="-529.6045" x="153.0545 157.7435 159.7955 164.51059 167.57059 172.16059 175.08559 178.34989 183.38899 188.1149 191.0318 196.07">eierstruktur</tspan></text>
<path transform="matrix(1,0,0,-1,256.063,312.9447)" stroke-width=".439" stroke-linecap="butt" stroke-miterlimit="10" stroke-linejoin="miter" fill="none" stroke="#1e5e9e" d="M 0 0 L 10.296 0 "/>
<g id="Layer-1" data-name="Span">
</g>
<g id="Layer-1" data-name="Span">
<text fill="#231f20" xml:space="preserve" transform="matrix(1 0 -0 1 0 841.89)" font-size="9" font-family="Roboto"><tspan y="-540.4045" x="256.063 262.28019 266.98539 272.04789 276.75309 279.76539 284.4373 286.44609 288.52778 293.1808 295.3678 300.4276 305.4811 310.5112 312.6208 316.89579 321.62168 326.62928 328.64527 333.70957 338.78556 343.49076 346.51475 348.70176 353.31694 355.37974 360.44764 365.10066">Generelle opplysninger side </tspan></text>
</g>
<g id="Layer-1" data-name="Span">
<text fill="#1e5e9e" xml:space="preserve" transform="matrix(1 0 -0 1 0 841.89)" font-size="9" font-family="Roboto"><tspan y="-529.6045" x="256.063 261.24427">55</tspan></text>
</g>
<g id="Layer-1" data-name="Span">
<text fill="#939598" xml:space="preserve" transform="matrix(1 0 -0 1 0 841.89)" font-size="10" font-family="Roboto" font-weight="bold"><tspan y="-503.0883" x="76.5354 81.8554 87.7054 93.0834 97.5534">102-6</tspan></text>
</g>
<g id="Layer-1" data-name="Span">
</g>
<text fill="#231f20" xml:space="preserve" transform="matrix(1 0 -0 1 0 841.89)" font-size="9" font-family="Roboto"><tspan y="-508.8633" x="153.0545 160.85572 165.71392 168.88822 173.15602 177.88103 182.94803 187.65413 190.67813 192.86513 197.52353 202.61212 210.58612">Markeder som </tspan><tspan y="-498.06333" x="153.0545 158.14942 162.8267 165.70671 167.84601 172.55211 177.61371 182.26671">betjenes</tspan></text>
<path transform="matrix(1,0,0,-1,256.063,344.4859)" stroke-width=".439" stroke-linecap="butt" stroke-miterlimit="10" stroke-linejoin="miter" fill="none" stroke="#1e5e9e" d="M 0 0 L 10.296 0 "/>
<g id="Layer-1" data-name="Span">
</g>
<g id="Layer-1" data-name="Span">
<text fill="#231f20" xml:space="preserve" transform="matrix(1 0 -0 1 0 841.89)" font-size="9" font-family="Roboto"><tspan y="-508.8633" x="256.063 262.28019 266.98539 272.04789 276.75309 279.76539 284.4373 286.44609 288.52778 293.1808 295.3678 300.4276 305.4811 310.5112 312.6208 316.89579 321.62168 326.62928 328.64527 333.70957 338.78556 343.49076 346.51475 348.70176 353.31694 355.37974 360.44764 365.10066">Generelle opplysninger side </tspan></text>
</g>
<g id="Layer-1" data-name="Span">
<text fill="#1e5e9e" xml:space="preserve" transform="matrix(1 0 -0 1 0 841.89)" font-size="9" font-family="Roboto"><tspan y="-498.06333" x="256.063 261.24427">55</tspan></text>
</g>
<g id="Layer-1" data-name="Span">
<text fill="#939598" xml:space="preserve" transform="matrix(1 0 -0 1 0 841.89)" font-size="10" font-family="Roboto" font-weight="bold"><tspan y="-471.5471" x="76.5354 81.8554 87.7024 93.08041 96.67441">102-7</tspan></text>
</g>
<g id="Layer-1" data-name="Span">
</g>
<text fill="#231f20" xml:space="preserve" transform="matrix(1 0 -0 1 0 841.89)" font-size="9" font-family="Roboto"><tspan y="-477.3221" x="153.0545 158.6237 163.3127 165.3044 169.9043 174.3692 179.2292 184.32411 189.0014 191.88771 196.4714 198.65842 203.24842 206.02942 211.11171 214.28601 217.29831 221.9873 223.9799 228.5852 233.2175">Selskapets st&#x00f8;rrelse </tspan><tspan y="-466.52214" x="153.0545 158.1755 163.15882 165.34583 170.43534 178.30583 181.15163 186.00983 191.04714">og omfang</tspan></text>
<path transform="matrix(1,0,0,-1,256.063,376.0271)" stroke-width=".439" stroke-linecap="butt" stroke-miterlimit="10" stroke-linejoin="miter" fill="none" stroke="#1e5e9e" d="M 0 0 L 10.339 0 "/>
<g id="Layer-1" data-name="Span">
</g>
<g id="Layer-1" data-name="Span">
<text fill="#231f20" xml:space="preserve" transform="matrix(1 0 -0 1 0 841.89)" font-size="9" font-family="Roboto"><tspan y="-477.3221" x="256.063 262.28019 266.98539 272.04789 276.75309 279.76539 284.4373 286.44609 288.52778 293.1808 295.3678 300.4276 305.4811 310.5112 312.6208 316.89579 321.62168 326.62928 328.64527 333.70957 338.78556 343.49076 346.51475 348.70176 353.31694 355.37974 360.44764 365.10066">Generelle opplysninger side </tspan></text>
</g>
<g id="Layer-1" data-name="Span">
<text fill="#1e5e9e" xml:space="preserve" transform="matrix(1 0 -0 1 0 841.89)" font-size="9" font-family="Roboto"><tspan y="-466.52214" x="256.063 261.283">56</tspan></text>
</g>
<g id="Layer-1" data-name="Span">
<text fill="#939598" xml:space="preserve" transform="matrix(1 0 -0 1 0 841.89)" font-size="10" font-family="Roboto" font-weight="bold"><tspan y="-435.9322" x="76.5354 81.8554 87.7024 93.0804 97.4064">102-8</tspan></text>
</g>
<g id="Layer-1" data-name="Span">
</g>
<g id="Layer-1" data-name="Span">
</g>
<text fill="#231f20" xml:space="preserve" transform="matrix(1 0 -0 1 0 841.89)" font-size="9" font-family="Roboto"><tspan y="-447.1071" x="153.0545 155.4125 160.376 163.1705 168.251 171.43431 179.42362 184.21161 188.78002 190.92293 196.00254 201.01284 203.19983 208.28932 216.26512">Informasjon om </tspan><tspan y="-436.3071" x="153.0545 157.9127 162.8951 167.53099 172.3262 175.48612 178.23563 182.88863 185.07563 190.15161 195.1466 197.3336 202.20801 207.2543 212.288 215.3003 219.9533">ansatte og andre </tspan><tspan y="-425.5071" x="153.0545 157.8965 161.0888 166.1837 170.8547 172.8887 177.98271 182.68791 185.70113">arbeidere</tspan></text>
<path transform="matrix(1,0,0,-1,256.063,411.64204)" stroke-width=".439" stroke-linecap="butt" stroke-miterlimit="10" stroke-linejoin="miter" fill="none" stroke="#1e5e9e" d="M 0 0 L 10.297 0 "/>
<g id="Layer-1" data-name="Span">
</g>
<g id="Layer-1" data-name="Span">
<text fill="#231f20" xml:space="preserve" transform="matrix(1 0 -0 1 0 841.89)" font-size="9" font-family="Roboto"><tspan y="-441.7072" x="256.063 262.28019 266.98539 272.04789 276.75309 279.76539 284.4373 286.44609 288.52778 293.1808 295.3678 300.4276 305.4811 310.5112 312.6208 316.89579 321.62168 326.62928 328.64527 333.70957 338.78556 343.49076 346.51475 348.70176 353.31694 355.37974 360.44764 365.10066">Generelle opplysninger side </tspan></text>
</g>
<g id="Layer-1" data-name="Span">
<text fill="#1e5e9e" xml:space="preserve" transform="matrix(1 0 -0 1 0 841.89)" font-size="9" font-family="Roboto"><tspan y="-430.90724" x="256.063 261.24519">57</tspan></text>
</g>
<g id="Layer-1" data-name="Span">
<text fill="#939598" xml:space="preserve" transform="matrix(1 0 -0 1 0 841.89)" font-size="10" font-family="Roboto" font-weight="bold"><tspan y="-400.3172" x="76.5354 81.8554 87.7024 93.0804 97.3384">102-9</tspan></text>
</g>
<g id="Layer-1" data-name="Span">
</g>
<text fill="#231f20" xml:space="preserve" transform="matrix(1 0 -0 1 0 841.89)" font-size="9" font-family="Roboto"><tspan y="-406.0922" x="153.0545 158.6237 163.29471 165.3044 169.8764 174.3683 179.2103 184.3232 189.0005 191.8868 196.4705">Selskapets </tspan><tspan y="-395.2922" x="153.0545 155.1362 159.77931 164.12361 168.84862 171.89871 176.75691 181.8032 186.87921 191.96422 195.1385 199.6457 201.776 206.501 211.56801">leverand&#x00f8;rkjede</tspan></text>
<path transform="matrix(1,0,0,-1,256.063,447.25694)" stroke-width=".439" stroke-linecap="butt" stroke-miterlimit="10" stroke-linejoin="miter" fill="none" stroke="#1e5e9e" d="M 0 0 L 10.297 0 "/>
<g id="Layer-1" data-name="Span">
</g>
<g id="Layer-1" data-name="Span">
<text fill="#231f20" xml:space="preserve" transform="matrix(1 0 -0 1 0 841.89)" font-size="9" font-family="Roboto"><tspan y="-406.0922" x="256.063 262.28019 266.98539 272.04789 276.75309 279.76539 284.4373 286.44609 288.52778 293.1808 295.3678 300.4276 305.4811 310.5112 312.6208 316.89579 321.62168 326.62928 328.64527 333.70957 338.78556 343.49076 346.51475 348.70176 353.31694 355.37974 360.44764 365.10066">Generelle opplysninger side </tspan></text>
</g>
<g id="Layer-1" data-name="Span">
<text fill="#1e5e9e" xml:space="preserve" transform="matrix(1 0 -0 1 0 841.89)" font-size="9" font-family="Roboto"><tspan y="-395.2922" x="256.063 261.24519">57</tspan></text>
</g>
<g id="Layer-1" data-name="Span">
<text fill="#939598" xml:space="preserve" transform="matrix(1 0 -0 1 0 841.89)" font-size="10" font-family="Roboto" font-weight="bold"><tspan y="-364.7024" x="76.5354 81.8554 87.7024 93.0804 96.5264 101.8464">102-10</tspan></text>
</g>
<g id="Layer-1" data-name="Span">
</g>
<g id="Layer-1" data-name="Span">
</g>
<text fill="#231f20" xml:space="preserve" transform="matrix(1 0 -0 1 0 841.89)" font-size="9" font-family="Roboto"><tspan y="-375.8773" x="153.0545 158.324 162.9761 167.5823 172.30731 177.25461 180.158 182.16681 184.22151 189.29662 193.92893 196.11592 200.84093 205.86923 210.90294 213.99893 216.08693 221.12424 226.20024 230.92525 233.97895">Vesentlige endringer </tspan><tspan y="-365.0773" x="153.0545 155.07051 157.2575 162.3668 165.3791 170.4263 175.2845 180.2921 182.3027 186.9386 191.7428 196.2968 198.4397 203.51929 208.58179 213.28699 218.22798 220.41498 225.58008 230.57508">i organisasjonen og </tspan><tspan y="-354.2773" x="153.0545 155.1362 159.77931 164.12361 168.84862 171.89871 176.75691 181.8032 186.87921 191.96422 195.1385 199.6457 201.776 206.501 211.56801">leverand&#x00f8;rkjede</tspan></text>
<path transform="matrix(1,0,0,-1,256.063,482.87184)" stroke-width=".439" stroke-linecap="butt" stroke-miterlimit="10" stroke-linejoin="miter" fill="none" stroke="#1e5e9e" d="M 0 0 L 10.391 0 "/>
<g id="Layer-1" data-name="Span">
</g>
<g id="Layer-1" data-name="Span">
<text fill="#231f20" xml:space="preserve" transform="matrix(1 0 -0 1 0 841.89)" font-size="9" font-family="Roboto"><tspan y="-370.4774" x="256.063 262.28019 266.98539 272.04789 276.75309 279.76539 284.4373 286.44609 288.52778 293.1808 295.3678 300.4276 305.4811 310.5112 312.6208 316.89579 321.62168 326.62928 328.64527 333.70957 338.78556 343.49076 346.51475 348.70176 353.31694 355.37974 360.44764 365.10066">Generelle opplysninger side </tspan></text>
</g>
<g id="Layer-1" data-name="Span">
<text fill="#1e5e9e" xml:space="preserve" transform="matrix(1 0 -0 1 0 841.89)" font-size="9" font-family="Roboto"><tspan y="-359.6774" x="256.063 261.33699">58</tspan></text>
</g>
<g id="Layer-1" data-name="Span">
<text fill="#939598" xml:space="preserve" transform="matrix(1 0 -0 1 0 841.89)" font-size="10" font-family="Roboto" font-weight="bold"><tspan y="-329.0874" x="76.5354 81.8554 87.7024 93.0804 96.5254 101.4354">102-11</tspan></text>
</g>
<g id="Layer-1" data-name="Span">
</g>
<g id="Layer-1" data-name="Span">
</g>
<g id="Layer-1" data-name="Span">
</g>
<g id="Layer-1" data-name="Span">
</g>
<text fill="#231f20" xml:space="preserve" transform="matrix(1 0 -0 1 0 841.89)" font-size="9" font-family="Roboto"><tspan y="-334.8624" x="153.0545 158.54991 160.55872 162.57472 167.59761 175.51491 178.69911 186.67942 188.69542 193.76062 198.75562 200.94261 206.05281 211.0478 213.2348 218.30449 221.4878 226.52599 230.93599 233.12299 237.87949 242.20848">Tiln&#x00e6;rming og bruk av </tspan></text>
<text fill="#231f20" xml:space="preserve" transform="matrix(1 0 -0 1 0 841.89)" font-size="9" font-family="Roboto"><tspan y="-324.0624" x="153.0545">&#x00ab;</tspan></text>
<text fill="#231f20" xml:space="preserve" transform="matrix(1 0 -0 1 0 841.89)" font-size="9" font-family="Roboto"><tspan y="-324.0624" x="156.8885 159.683 164.7653 167.7776 172.6133 176.3573 180.70969 185.56789 188.19409 192.0578 197.11132 200.25592 202.29622 207.28223 211.84703 213.88823 218.94084 224.03575 228.73375">f&#x00f8;re-var-prinsippet</tspan></text>
<text fill="#231f20" xml:space="preserve" transform="matrix(1 0 -0 1 0 841.89)" font-size="9" font-family="Roboto"><tspan y="-324.0624" x="231.31851">&#x00bb;</tspan></text>
<text fill="#231f20" xml:space="preserve" transform="matrix(1 0 -0 1 0 841.89)" font-size="9" font-family="Roboto"><tspan y="-324.0624" x="235.26052"> </tspan></text>
<path transform="matrix(1,0,0,-1,256.063,518.4867)" stroke-width=".439" stroke-linecap="butt" stroke-miterlimit="10" stroke-linejoin="miter" fill="none" stroke="#1e5e9e" d="M 0 0 L 10.391 0 "/>
<g id="Layer-1" data-name="Span">
</g>
<g id="Layer-1" data-name="Span">
<text fill="#231f20" xml:space="preserve" transform="matrix(1 0 -0 1 0 841.89)" font-size="9" font-family="Roboto"><tspan y="-334.8624" x="256.063 262.28019 266.98539 272.04789 276.75309 279.76539 284.4373 286.44609 288.52778 293.1808 295.3678 300.4276 305.4811 310.5112 312.6208 316.89579 321.62168 326.62928 328.64527 333.70957 338.78556 343.49076 346.51475 348.70176 353.31694 355.37974 360.44764 365.10066">Generelle opplysninger side </tspan></text>
</g>
<g id="Layer-1" data-name="Span">
<text fill="#1e5e9e" xml:space="preserve" transform="matrix(1 0 -0 1 0 841.89)" font-size="9" font-family="Roboto"><tspan y="-324.0624" x="256.063 261.33699">58</tspan></text>
</g>
<g id="Layer-1" data-name="Span">
<text fill="#939598" xml:space="preserve" transform="matrix(1 0 -0 1 0 841.89)" font-size="10" font-family="Roboto" font-weight="bold"><tspan y="-297.5462" x="76.5354 81.8554 87.7024 93.0804 96.5254 101.7054">102-12</tspan></text>
</g>
<g id="Layer-1" data-name="Span">
</g>
<g id="Layer-1" data-name="Span">
</g>
<g id="Layer-1" data-name="Span">
</g>
<g id="Layer-1" data-name="Span">
<text fill="#231f20" xml:space="preserve" transform="matrix(1 0 -0 1 0 841.89)" font-size="9" font-family="Roboto"><tspan y="-303.3212" x="153.0545 158.1206 162.5207 167.13591 169.88452 174.59062 177.76493 182.82653 187.47953 189.66652 194.70293 197.84754 199.86354 204.87384 209.43955 211.45555 216.53606 221.63007 226.33527 229.35927 231.54627 236.69066 241.68566">Eksterne prinsipper og </tspan><tspan y="-292.5212" x="153.0545 155.07051 160.106 162.2111 165.11452 167.13053 171.95453 174.84354 176.94504 181.27404 183.46103 188.14643 193.23502 201.20902 203.39601 208.01482 210.76883 215.71163 218.87154 221.62105 226.27405">initiativ som st&#x00f8;ttes</tspan><tspan y="-303.3212" x="386.9285 392.5958 395.3498 400.2926 403.4525 406.20204 410.90724 413.9312 416.11824 418.13423 423.24354 428.31864 433.02476 437.96577 440.15278 444.9282 449.3283 453.94349 456.693 461.3982 464.57249 469.63499 474.288 476.475 481.5087 484.6533 486.66929 491.67869 496.24436 498.26036 503.33995 508.4348 513.14 516.164">St&#x00f8;tter ingen eksterne prinsipper </tspan><tspan y="-292.5212" x="386.9285 392.0225 397.0175 399.2045 401.2205 406.2731 408.3791 411.2825 413.2985 418.1225 421.0259 423.1175">og initiativ</tspan></text>
</g>
<g id="Layer-1" data-name="Span">
<text fill="#939598" xml:space="preserve" transform="matrix(1 0 -0 1 0 841.89)" font-size="10" font-family="Roboto" font-weight="bold"><tspan y="-266.005" x="76.5354 81.8554 87.7024 93.0804 96.5254 101.7104">102-13</tspan></text>
</g>
<g id="Layer-1" data-name="Span">
</g>
<text fill="#231f20" xml:space="preserve" transform="matrix(1 0 -0 1 0 841.89)" font-size="9" font-family="Roboto"><tspan y="-271.78" x="153.0545 160.8836 165.60771 170.61171 172.69252 177.40763 185.36272 189.96262 194.42752 199.28572 204.27173 206.45873 208.47473">Medlemskap i </tspan><tspan y="-260.98" x="153.0545 158.13411 161.14733 166.19452 171.05272 176.06032 178.04032 182.70232 187.49031 192.05872 194.20163 199.28214 204.34374 209.04984">organisasjoner</tspan></text>
<path transform="matrix(1,0,0,-1,256.063,581.5692)" stroke-width=".439" stroke-linecap="butt" stroke-miterlimit="10" stroke-linejoin="miter" fill="none" stroke="#1e5e9e" d="M 0 0 L 10.391 0 "/>
<g id="Layer-1" data-name="Span">
</g>
<g id="Layer-1" data-name="Span">
<text fill="#231f20" xml:space="preserve" transform="matrix(1 0 -0 1 0 841.89)" font-size="9" font-family="Roboto"><tspan y="-271.78" x="256.063 262.28019 266.98539 272.04789 276.75309 279.76539 284.4373 286.44609 288.52778 293.1808 295.3678 300.4276 305.4811 310.5112 312.6208 316.89579 321.62168 326.62928 328.64527 333.70957 338.78556 343.49076 346.51475 348.70176 353.31694 355.37974 360.44764 365.10066">Generelle opplysninger side </tspan></text>
</g>
<g id="Layer-1" data-name="Span">
<text fill="#1e5e9e" xml:space="preserve" transform="matrix(1 0 -0 1 0 841.89)" font-size="9" font-family="Roboto"><tspan y="-260.98" x="256.063 261.33699">58</tspan></text>
</g>
<g id="Layer-1" data-name="Span">
</g>
<g id="Layer-1" data-name="Span">
<text fill="#939598" xml:space="preserve" transform="matrix(1 0 -0 1 0 841.89)" font-size="9" font-family="Roboto"><tspan y="-239.13701" x="76.53099 82.24599 87.708988 93.792987 99.05619 104.51919 109.48809 115.58559">STRATEGI</tspan></text>
<text fill="#939598" xml:space="preserve" transform="matrix(1 0 -0 1 0 841.89)" font-size="10" font-family="Roboto" font-weight="bold"><tspan y="-211.5192" x="76.5354 81.8554 87.7024 93.0804 96.5254 101.7834">102-14</tspan></text>
</g>
<g id="Layer-1" data-name="Span">
</g>
<text fill="#231f20" xml:space="preserve" transform="matrix(1 0 -0 1 0 841.89)" font-size="9" font-family="Roboto"><tspan y="-217.2942" x="153.0545 158.1206 161.2949 165.81472 167.84873 175.76692 178.91153 180.92754 185.99274 190.98773 193.17473 196.14293 199.16693 203.99094 206.17794 210.84444 215.51634 217.52605 222.12595 226.59085 231.44905 236.54396 241.22127 244.11028">Erkl&#x00e6;ring fra selskapet </tspan><tspan y="-206.4942" x="153.0545 158.0018 162.3461 167.0513 170.1113 174.7013 177.5228 182.15509 184.3421 186.3941 191.1452 196.21309 200.90209 202.89469 207.50089">&#x00f8;verste ledelse</tspan></text>
<path transform="matrix(1,0,0,-1,256.063,636.055)" stroke-width=".439" stroke-linecap="butt" stroke-miterlimit="10" stroke-linejoin="miter" fill="none" stroke="#1e5e9e" d="M 0 0 L 10.232 0 "/>
<g id="Layer-1" data-name="Span">
</g>
<g id="Layer-1" data-name="Span">
<text fill="#231f20" xml:space="preserve" transform="matrix(1 0 -0 1 0 841.89)" font-size="9" font-family="Roboto"><tspan y="-217.2942" x="256.063 262.28019 266.98539 272.04789 276.75309 279.76539 284.4373 286.44609 288.52778 293.1808 295.3678 300.4276 305.4811 310.5112 312.6208 316.89579 321.62168 326.62928 328.64527 333.70957 338.78556 343.49076 346.51475 348.70176 353.31694 355.37974 360.44764 365.10066">Generelle opplysninger side </tspan></text>
</g>
<g id="Layer-1" data-name="Span">
<text fill="#1e5e9e" xml:space="preserve" transform="matrix(1 0 -0 1 0 841.89)" font-size="9" font-family="Roboto"><tspan y="-206.4942" x="256.063 261.1804">59</tspan></text>
</g>
<g id="Layer-1" data-name="Span">
</g>
<g id="Layer-1" data-name="Span">
<text fill="#939598" xml:space="preserve" transform="matrix(1 0 -0 1 0 841.89)" font-size="9" font-family="Roboto"><tspan y="-184.02121" x="76.53099 81.85629 87.27429 89.93649 95.89719 101.62838 103.86938 110.16398 116.210178 118.45117 121.11337 127.62758 133.08788 138.05768 144.18578 149.97367 152.69527 158.15557 163.48087">ETIKK OG INTEGRITET</tspan></text>
<text fill="#939598" xml:space="preserve" transform="matrix(1 0 -0 1 0 841.89)" font-size="10" font-family="Roboto" font-weight="bold"><tspan y="-155.7711" x="76.5354 81.8554 87.7024 93.0804 96.5254 101.8224">102-16</tspan></text>
</g>
<g id="Layer-1" data-name="Span">
</g>
<text fill="#231f20" xml:space="preserve" transform="matrix(1 0 -0 1 0 841.89)" font-size="9" font-family="Roboto"><tspan y="-161.5461" x="153.0545 158.324 163.0292 166.0532 171.0572 173.13802 177.84412 180.49462 182.21361 184.4006 189.4586 192.60321 194.61922 199.62862 204.19432 206.21033 211.29082 216.38483 221.09003 223.74143 225.46042">Verdier, prinsipper, </tspan><tspan y="-150.7461" x="153.0545 157.66971 160.6163 165.4745 170.5199 175.559 180.4181 183.43939 188.5064 193.2314 196.2851 198.47209 203.56699 208.57639 210.76338 215.83849 220.91899 224.10228 232.13658 236.86159">standarder og normer</tspan></text>
<path transform="matrix(1,0,0,-1,256.063,691.8031)" stroke-width=".439" stroke-linecap="butt" stroke-miterlimit="10" stroke-linejoin="miter" fill="none" stroke="#1e5e9e" d="M 0 0 L 10.232 0 "/>
<g id="Layer-1" data-name="Span">
</g>
<g id="Layer-1" data-name="Span">
<text fill="#231f20" xml:space="preserve" transform="matrix(1 0 -0 1 0 841.89)" font-size="9" font-family="Roboto"><tspan y="-161.5461" x="256.063 262.28019 266.98539 272.04789 276.75309 279.76539 284.4373 286.44609 288.52778 293.1808 295.3678 300.4276 305.4811 310.5112 312.6208 316.89579 321.62168 326.62928 328.64527 333.70957 338.78556 343.49076 346.51475 348.70176 353.31694 355.37974 360.44764 365.10066">Generelle opplysninger side </tspan></text>
</g>
<g id="Layer-1" data-name="Span">
<text fill="#1e5e9e" xml:space="preserve" transform="matrix(1 0 -0 1 0 841.89)" font-size="9" font-family="Roboto"><tspan y="-150.7461" x="256.063 261.1804">59</tspan></text>
</g>
<g id="Layer-1" data-name="Span">
</g>
<g id="Layer-1" data-name="Span">
<text fill="#939598" xml:space="preserve" transform="matrix(1 0 -0 1 0 841.89)" font-size="9" font-family="Roboto"><tspan y="-128.74109" x="76.53099 81.54039 87.82239 93.65259 98.97788 103.797389 109.698688 115.39118 121.074687 126.79059 132.51639 138.4132 144.2011 146.8633 153.3253">FORETAKSSTYRING</tspan></text>
<text fill="#939598" xml:space="preserve" transform="matrix(1 0 -0 1 0 841.89)" font-size="10" font-family="Roboto" font-weight="bold"><tspan y="-96.8943" x="76.5354 81.8554 87.7024 93.0804 96.5254 101.7774">102-18</tspan></text>
</g>
<g id="Layer-1" data-name="Span">
</g>
<g id="Layer-1" data-name="Span">
</g>
<text fill="#231f20" xml:space="preserve" transform="matrix(1 0 -0 1 0 841.89)" font-size="9" font-family="Roboto"><tspan y="-108.0693" x="153.0545 158.0666 163.1462 166.1585 170.8367 173.78331 178.64061 183.04161 187.65142 192.26662 195.43103 199.93822 203.08283 205.09883 210.16403 215.15903">Foretaksstyring </tspan><tspan y="-97.269298" x="153.0545 155.62851 157.8155 163.6376 166.56981 169.75402 174.7922 179.51811 182.43502 187.4732 190.49721 192.6842 197.8277 202.8227">- struktur og </tspan><tspan y="-86.46929" x="153.0545 157.6904 162.5414 170.573 178.6073 183.3125 188.2958 192.8768 197.5811 200.5142 205.5218 207.5648 212.5328">sammensetning</tspan></text>
<path transform="matrix(1,0,0,-1,256.063,750.67996)" stroke-width=".439" stroke-linecap="butt" stroke-miterlimit="10" stroke-linejoin="miter" fill="none" stroke="#1e5e9e" d="M 0 0 L 10.232 0 "/>
<g id="Layer-1" data-name="Span">
</g>
<g id="Layer-1" data-name="Span">
<text fill="#231f20" xml:space="preserve" transform="matrix(1 0 -0 1 0 841.89)" font-size="9" font-family="Roboto"><tspan y="-102.6693" x="256.063 262.28019 266.98539 272.04789 276.75309 279.76539 284.4373 286.44609 288.52778 293.1808 295.3678 300.4276 305.4811 310.5112 312.6208 316.89579 321.62168 326.62928 328.64527 333.70957 338.78556 343.49076 346.51475 348.70176 353.31694 355.37974 360.44764 365.10066">Generelle opplysninger side </tspan></text>
</g>
<g id="Layer-1" data-name="Span">
<text fill="#1e5e9e" xml:space="preserve" transform="matrix(1 0 -0 1 0 841.89)" font-size="9" font-family="Roboto"><tspan y="-91.86929" x="256.063 261.1804">59</tspan></text>
</g>
<g id="Layer-1" data-name="Span">
</g>
<text fill="#404041" xml:space="preserve" transform="matrix(1 0 -0 1 0 841.89)" font-size="7" font-family="Roboto"><tspan y="-29.016" x="485.2021 490.0391 494.61149 496.69819 499.36518 503.19908 507.85548 512.47549 516.50399 520.54299">GRI-TABELL</tspan></text>
<text fill="#404041" xml:space="preserve" transform="matrix(1 0 -0 1 0 841.89)" font-size="8" font-family="Roboto" font-weight="bold"><tspan y="-44.7402" x="515.2297 519.82168">87</tspan></text>
<g id="Layer-1" data-name="Artifact">
<clipPath id="cp751">
<path transform="matrix(1,0,0,-1,0,841.89)" d="M 0 0 L 595.276 0 L 595.276 841.89 L 0 841.89 Z "/>
</clipPath>
<g clip-path="url(#cp751)">
<path transform="matrix(1,0,0,-1,524.4094,802.3869)" stroke-width=".5" stroke-linecap="butt" stroke-miterlimit="4" stroke-linejoin="miter" fill="none" stroke="#404041" d="M 0 0 L -1048.819 0 "/>
</g>
<g id="Layer-1" data-name="Span">
</g>
<text fill="#404041" xml:space="preserve" transform="matrix(1 0 -0 1 0 841.89)" font-size="5" font-family="Roboto" font-weight="bold"><tspan y="-805.9686" x="403.5553 406.88529 410.07029 413.03529 415.6378 418.81779 422.34779 425.67778 428.50178 431.68177 434.86677 437.95677 439.20176 442.38175">GRATANGLAKS AS</tspan></text>
</g>
<g id="Layer-1" data-name="Span">
</g>
<g id="Layer-1" data-name="Span">
<text fill="#595959" xml:space="preserve" transform="matrix(1 0 -0 1 0 841.89)" font-size="5" font-family="Roboto"><tspan y="-805.9686" x="451.8321 455.1171 459.9621 463.2121 466.2221 469.5271 472.7771 476.2071 479.1901 482.30509 485.4401 488.6901 492.1201 495.4451 498.7701 502.3801 505.4336">B&#x00c6;REKRAFTSRAPPORT</tspan></text>
</g>
<text fill="#404041" xml:space="preserve" transform="matrix(1 0 -0 1 0 841.89)" font-size="5" font-family="Roboto" font-weight="bold"><tspan y="-805.9686" x="512.3771 515.2471 518.11709 520.98709">2020</tspan></text>
<g id="Layer-1" data-name="Artifact">
<clipPath id="cp752">
<path transform="matrix(1,0,0,-1,0,841.89)" d="M 0 0 L 595.276 0 L 595.276 841.89 L 0 841.89 Z "/>
</clipPath>
<g clip-path="url(#cp752)">
<path transform="matrix(1,0,0,-1,-524.4094,39.3869)" stroke-width=".5" stroke-linecap="butt" stroke-miterlimit="4" stroke-linejoin="miter" fill="none" stroke="#404041" d="M 0 0 L 1048.819 0 "/>
</g>
</g>
</g>
</g>
</svg>
