<?xml version="1.0" encoding="UTF-8" standalone="no"?>
<!DOCTYPE svg PUBLIC "-//W3C//DTD SVG 1.1//EN" "http://www.w3.org/Graphics/SVG/1.1/DTD/svg11.dtd">
<svg xmlns="http://www.w3.org/2000/svg" xmlns:xlink="http://www.w3.org/1999/xlink" version="1.1" width="595.276pt" height="841.89pt" viewBox="0 0 595.276 841.89">
<g enable-background="new">
<g id="Layer-1" data-name="Artifact">
<path transform="matrix(1,0,0,-1,0,841.89)" d="M 0 0 L 595.275 0 L 595.275 841.89 L 0 841.89 Z " fill="#97bfe6"/>
</g>
<g id="Layer-1" data-name="Span">
</g>
<g id="Layer-1" data-name="Span">
</g>
<g id="Layer-1" data-name="Span">
</g>
<g id="Layer-1" data-name="Span">
</g>
<g id="Layer-1" data-name="Span">
</g>
<g id="Layer-1" data-name="Span">
</g>
<g id="Layer-1" data-name="Span">
</g>
<g id="Layer-1" data-name="Span">
</g>
<g id="Layer-1" data-name="Span">
</g>
<g id="Layer-1" data-name="Span">
</g>
<g id="Layer-1" data-name="Span">
</g>
<g id="Layer-1" data-name="Span">
</g>
<g id="Layer-1" data-name="Span">
</g>
<g id="Layer-1" data-name="Span">
</g>
<text fill="#ffffff" xml:space="preserve" transform="matrix(1 0 -0 1 0 841.89)" font-size="54" font-family="Roboto" font-weight="bold"><tspan y="-528.2094" x="69.6501 107.2773 133.15949 163.0215 182.7531 200.6271 230.48372 249.49712 262.9431 292.42713 338.86174 357.04356 385.04255 413.86775 432.07115 460.21055 479.71534 498.71253">Hvorfor b&#x00e6;rekraft?</tspan></text>
<text fill="#ffffff" xml:space="preserve" transform="matrix(1 0 -0 1 0 841.89)" font-size="20" font-family="Roboto" font-style="italic"><tspan y="-475.7566" x="107.6843 117.124309 130.84632 141.29232 148.03232 153.01232 164.3023 181.8043 188.3443 198.93631 209.07831 215.62032 226.34832 233.11632 239.44832 249.64232 255.84632 267.2063 277.19633 288.43833 298.89833 303.87834 310.07234 321.4323 328.4323 333.41233 344.41233 349.39234 359.74635 364.78636 374.92835 381.46836 391.92835 396.90837 408.22239 418.8264 430.1864 435.1664 440.10444 451.46443 461.25044 472.16044 477.11045 487.57044">&#x00ab;&#x00d8;kt b&#x00e6;rekraftsfokus for &#x00e5; sikre den lokale </tspan><tspan y="-451.7566" x="233.10431 243.40831 254.12631 260.4583 270.8323 275.8923 287.14833 298.4903 309.0923 320.45228 325.43229 334.9463 345.9463 352.7543">satsingen v&#x00e5;r&#x00bb;</tspan></text>
<text fill="#ffffff" xml:space="preserve" transform="matrix(1 0 -0 1 0 841.89)" font-size="48" font-family="Calibri"><tspan y="-396.6464" x="270.4907">&#x221e;</tspan></text>
<text fill="#ffffff" xml:space="preserve" transform="matrix(1 0 -0 1 0 841.89)" font-size="12" font-family="Roboto"><tspan y="-363.1804" x="70.8661 78.270099 80.9581 84.8101 91.398097 97.83009 101.86209 105.89769 112.56969 118.77369 122.61369 128.6857 131.3737 137.56092 141.41292 147.61692 151.45932 157.89133 161.89453 168.09853 174.68653 180.89052 184.78691 188.63892 195.07093 198.92293 202.77494 206.68213 212.75414 216.60614 223.32614 227.31855 233.52254 237.35533 243.42734 247.27935 253.48334 260.14335 264.04335 268.01536 274.73536 278.76737 282.53535 288.96736 292.84693 298.9189 301.6069 307.4869 311.56214 317.76615 321.59773 328.02973 331.8817 335.7745 341.5465 344.2345 348.23048 354.87849 358.8889 365.6089 372.28089 378.8689 384.9409 391.1449 395.19853 401.40254 405.43455 409.33454 419.96653 426.39854 430.25053 434.1421 438.1141 444.8341 448.86613 452.6341 458.4289 464.6329 468.58934 475.26133 481.46534 488.05335 494.12535 498.09614 504.74415 511.46415 515.43978 522.11178 524.40377">Vi har de siste &#x00e5;rene tatt store steg for &#x00e5; sikre at vi produserer mat for verdens bord, </tspan><tspan y="-345.1804" x="70.8661 77.5141 83.9461 89.2513 95.4553 102.0433 107.361698 114.0217 120.7417 127.4137 132.6553 143.28731 149.71932 153.57132 159.77532 162.64331 167.89691 175.30092 177.98892 183.23293 189.00493 191.69293 194.38094 199.80493 205.57694 208.26494 214.33695 220.54094 225.94214 232.53014 238.40294 245.12294 249.06855 255.74054 262.17256 268.76057 274.13417 280.20616 286.41017 289.09815 295.17015 301.05015 307.48216 314.13017 320.33418 324.18617 329.57417 335.35697 341.78898 346.0034 349.85539 355.12336 361.55537 365.58738 372.23539 378.4394 381.12739 387.79939 394.0034 398.0354 403.457 414.089 420.293 426.965 432.2006 438.8486 449.0006 453.38905 459.59306 465.47306 469.50508 475.93708 479.9091 483.76109 486.6291 491.8419 499.24589 501.93388 507.17787 513.76589 520.1979 524.22988">p&#x00e5; en god m&#x00e5;te. Vi vil vise hvordan selskapet v&#x00e5;rt arbeider med b&#x00e6;rekraft. Vi har </tspan><tspan y="-327.1804" x="70.8661 77.457698 83.252498 89.4565 93.488498 97.3165 101.2885 103.9765 110.180507 114.0529 120.256908 124.0249 130.45691 134.4889 138.36492 141.05292 147.18972 152.98451 159.1885 163.35611 167.20812 171.01212 177.73212 188.36412 192.33612 198.76813 202.62014 206.47214 212.67613 219.26413 225.93613 232.14012 235.86733 246.49933 249.18733 251.87534 254.61133 261.29533 265.32734 271.75935 278.40736 285.05537 291.77537 296.25379 300.10578 306.30979 310.3418 314.1818 320.8298 327.31224 331.10423 337.53623 341.56825 348.21626 354.42027 357.10826 363.78025 369.98426 373.83625 377.74345 383.52745 389.95945 394.17387 398.02586 400.89387 404.69786 413.21784 418.91786 422.76985 426.62184 430.5578 433.2458 437.07377 443.50578 447.53779 451.41377 457.61778 461.64979 465.47776 471.68177 478.26979 482.12776 488.79975 495.00376 501.67576 504.36375 510.16575 516.36978 520.53616 524.3881">over flere &#x00e5;r levert omfattende milj&#x00f8;rapporter p&#x00e5; arbeidet v&#x00e5;rt. Nytt i &#x00e5;r er en dedikert </tspan><tspan y="-309.1804" x="70.8661 77.5141 87.6661 92.0533 98.2573 104.1373 108.1693 114.601299 118.573299 122.42529 128.4973 132.5293 138.9613 145.6093 152.2573 158.9773 163.28049 167.13249 169.4245 174.4117 180.4837 187.2037 197.83571 202.81092 209.24292 215.83092 221.73732 227.94132 234.52931 241.20131 247.4053 251.4373 256.5169 263.1889 269.3929 275.98094 281.02574 291.6577 297.86174 303.93373 307.7857 312.77769 319.2097 325.7977 332.0017 336.03373 341.91374 344.64973 350.85374 357.44175 361.29374 367.49775 372.77775 378.84974 382.70173 389.13374 395.72175 402.39375 408.82575 412.99577 419.66777 425.87178 432.45979 437.50459 441.4766 448.1966 452.2286 457.10899 461.141 467.573 474.221 480.86903 487.58903 491.89103 495.743 501.94703 505.97904 508.66703 515.255 521.915 524.207">b&#x00e6;rekraftsrapport, som anvender den mest anerkjente standarden for rapportering, </tspan><tspan y="-291.1804" x="70.8661 79.0741 86.6941 89.8861 93.7381 101.550098 105.5581 113.7661 116.4541 123.1741 129.8221 136.2541 138.94211 142.61652 150.23651 156.4405 163.0885 169.8085 174.1753 178.0273 180.7153 187.3033 193.9633 197.6569 200.8489 207.4369 210.12491 213.97692 216.66492 223.09693 226.94893 229.63694 235.72574 241.92974 244.79773 248.30294 255.40694 259.25895 265.69096 272.27897 278.95097 285.38298 289.6526 296.3246 302.5286 309.1166 312.725 318.92903 322.96104 326.53703 333.12504 336.97703 340.94905 347.66905 351.70106 362.33305 368.53706 372.38905 375.9218 379.89384 386.61384 390.64585 394.08985 400.52186 404.07743 410.73744 413.47343 420.1574 424.26264 430.46665 433.97544 440.62345 450.77546 455.16389 461.3679 467.2479 471.2799 477.7119 481.68394 485.53593 491.6079 498.03993 502.07194 508.71995 514.92398 517.61196 524.28396">GRI &#x2013; Global Reporting Initiative. Standarden er utformet for &#x00e5; gj&#x00f8;re b&#x00e6;rekraftsarbeid </tspan><tspan y="-273.1804" x="70.8661 76.938098 83.370098 94.00209 104.634098 110.8381 117.426097 120.1141 122.8021 129.4621 136.0501 142.69809 149.1301 153.68889 157.5409 162.13689 168.72849 174.52329 180.72728 184.75928 189.37928 192.06728 198.49929 205.23488 211.90688 218.11087 224.77088 228.75368 234.95767 241.54567 247.61768 253.82167 257.27168 259.56367 264.14765 270.86766 277.52766 282.09126 286.06327 292.78327 296.81529 301.30326 307.73527 312.34446 318.41645 321.10444 327.07563 331.05964 337.26365 341.82243 348.48243 355.20243 361.87443 366.4488 372.3288 378.126 384.558 387.246 389.934 393.78599 399.99 403.84199 408.50999 415.158 421.59 426.2256 428.91358 435.5016 439.4736 446.1936 450.22563 460.8576 467.2896 473.3616 476.0976 482.8176 489.4056 495.60963 502.19764 507.09364 513.8136 524.4456">sammenlignbart over landegrenser, og for &#x00e5; sikre god kvalitet p&#x00e5; informasjonen om </tspan><tspan y="-255.18039" x="70.8661 77.454097 83.3293 90.0493 93.9925 100.664508 107.096508 113.6845 116.6005 122.372509 125.06051 129.09252 134.97252 141.04453 147.76453 158.39653 164.98453 171.18852 175.04053 181.24452 187.83252 190.74852 197.39652 204.26653 210.03853 212.72653 216.75853 222.73574 228.93973 232.97173 235.88773 241.95973 244.64774 251.23574 257.43974 260.3557 267.0757 277.7077 284.3677 287.0557 293.0473 299.2513 301.9393 308.0113 314.2153 317.6101 320.47813">hvordan virksomheten p&#x00e5;virker sine omgivelser. </tspan></text>
<text fill="#ffffff" xml:space="preserve" transform="matrix(1 0 -0 1 0 841.89)" font-size="5" font-family="Roboto" font-weight="bold"><tspan y="-805.9686" x="70.8661 74.1961 77.381099 80.3461 82.9486 86.1286 89.6586 92.9886 95.8126 98.9926 102.1776 105.26759 106.512599 109.6926">GRATANGLAKS AS</tspan></text>
<text fill="#ffffff" xml:space="preserve" transform="matrix(1 0 -0 1 0 841.89)" font-size="5" font-family="Roboto"><tspan y="-805.9686" x="119.1411 122.4261 127.2711 130.5211 133.5311 136.83609 140.08609 143.51609 146.49909 149.61409 152.74909 155.99909 159.42908 162.75408 166.07907 169.68907 172.74257">B&#x00c6;REKRAFTSRAPPORT</tspan></text>
<text fill="#ffffff" xml:space="preserve" transform="matrix(1 0 -0 1 0 841.89)" font-size="5" font-family="Roboto" font-weight="bold"><tspan y="-805.9686" x="179.6861 182.55609 185.42609 188.29608">2020</tspan></text>
<g id="Layer-1" data-name="Artifact">
<clipPath id="cp30">
<path transform="matrix(1,0,0,-1,0,841.89)" d="M 0 0 L 595.276 0 L 595.276 841.89 L 0 841.89 Z "/>
</clipPath>
<g clip-path="url(#cp30)">
<path transform="matrix(1,0,0,-1,70.8661,39.3869)" stroke-width=".5" stroke-linecap="butt" stroke-miterlimit="4" stroke-linejoin="miter" fill="none" stroke="#ffffff" d="M 0 0 L 524.409 0 "/>
</g>
<g id="Layer-1" data-name="Span">
</g>
<text fill="#ffffff" xml:space="preserve" transform="matrix(1 0 -0 1 0 841.89)" font-size="8" font-family="Roboto" font-weight="bold"><tspan y="-44.7402" x="70.8661">4</tspan></text>
</g>
<g id="Layer-1" data-name="Span">
</g>
<text fill="#ffffff" xml:space="preserve" transform="matrix(1 0 -0 1 0 841.89)" font-size="7" font-family="Roboto"><tspan y="-29.016" x="70.8661 73.008098 78.09709 83.18609 87.22509 91.253589 96.08079 101.13758 103.27958 108.37278">INNLEDNING</tspan></text>
<g id="Layer-1" data-name="Artifact">
<clipPath id="cp31">
<path transform="matrix(1,0,0,-1,0,841.89)" d="M 0 0 L 595.276 0 L 595.276 841.89 L 0 841.89 Z "/>
</clipPath>
<g clip-path="url(#cp31)">
<path transform="matrix(1,0,0,-1,595.2756,802.3869)" stroke-width=".5" stroke-linecap="butt" stroke-miterlimit="4" stroke-linejoin="miter" fill="none" stroke="#ffffff" d="M 0 0 L -524.409 0 "/>
</g>
</g>
</g>
</svg>
