<?xml version="1.0" encoding="UTF-8" standalone="no"?>
<!DOCTYPE svg PUBLIC "-//W3C//DTD SVG 1.1//EN" "http://www.w3.org/Graphics/SVG/1.1/DTD/svg11.dtd">
<svg xmlns="http://www.w3.org/2000/svg" xmlns:xlink="http://www.w3.org/1999/xlink" version="1.1" width="595.276pt" height="841.89pt" viewBox="0 0 595.276 841.89">
<g enable-background="new">
<g>
<g id="Layer-1" data-name="Artifact">
<path transform="matrix(1,0,0,-1,0,841.89)" d="M 0 0 L 595.275 0 L 595.275 841.89 L 0 841.89 Z " fill="#97bfe6"/>
</g>
<g id="Layer-1" data-name="Artifact">
<clipPath id="cp99">
<path transform="matrix(1,0,0,-1,0,841.89)" d="M 0 0 L 595.276 0 L 595.276 841.89 L 0 841.89 Z "/>
</clipPath>
<g clip-path="url(#cp99)">
<path transform="matrix(1,0,0,-1,350.8049,533.4413)" d="M 0 0 C 35.415 0 64.125 28.71 64.125 64.125 C 64.125 99.541 35.415 128.251 0 128.251 C -35.415 128.251 -64.125 99.541 -64.125 64.125 C -64.125 28.71 -35.415 0 0 0 " fill="#ffd662"/>
</g>
<g id="Layer-1" data-name="Artifact">
<path transform="matrix(1,0,0,-1,299.1598,309.08705)" d="M 0 0 C 30.121 0 54.539 24.418 54.539 54.539 C 54.539 84.661 30.121 109.079 0 109.079 C -30.121 109.079 -54.539 84.661 -54.539 54.539 C -54.539 24.418 -30.121 0 0 0 " fill="#ffffff"/>
</g>
<g id="Layer-1" data-name="Artifact">
<path transform="matrix(1,0,0,-1,487.146,609.6171)" d="M 0 0 C 27.278 0 49.392 22.114 49.392 49.392 C 49.392 76.67 27.278 98.784 0 98.784 C -27.278 98.784 -49.392 76.67 -49.392 49.392 C -49.392 22.114 -27.278 0 0 0 " fill="#ffffff"/>
</g>
<g id="Layer-1" data-name="Artifact">
<path transform="matrix(1,0,0,-1,254.9554,403.3546)" d="M 0 0 C 23.02 0 41.681 18.661 41.681 41.681 C 41.681 64.702 23.02 83.363 0 83.363 C -23.02 83.363 -41.681 64.702 -41.681 41.681 C -41.681 18.661 -23.02 0 0 0 " fill="#ffffff"/>
</g>
<g id="Layer-1" data-name="Artifact">
<g opacity=".600006">
<clipPath id="cp100">
<path transform="matrix(1,0,0,-1,0,841.89)" d="M 329.077 459.164 L 393.146 459.164 L 393.146 523.234 L 329.077 523.234 Z "/>
</clipPath>
<g clip-path="url(#cp100)">
<path transform="matrix(1,0,0,-1,361.1116,381.72563)" d="M 0 0 C 17.14 0 31.035 13.895 31.035 31.035 C 31.035 48.174 17.14 62.069 0 62.069 C -17.14 62.069 -31.035 48.174 -31.035 31.035 C -31.035 13.895 -17.14 0 0 0 " fill="#ffffff"/>
</g>
</g>
</g>
<g id="Layer-1" data-name="Artifact">
<path transform="matrix(1,0,0,-1,332.6714,193.60962)" d="M 0 0 C 17.14 0 31.035 13.895 31.035 31.035 C 31.035 48.174 17.14 62.069 0 62.069 C -17.14 62.069 -31.035 48.174 -31.035 31.035 C -31.035 13.895 -17.14 0 0 0 " fill="#ffd662"/>
</g>
<g id="Layer-1" data-name="Artifact">
<path transform="matrix(1,0,0,-1,88.4246,330.0848)" d="M 0 0 C 12.939 0 23.428 10.489 23.428 23.428 C 23.428 36.367 12.939 46.856 0 46.856 C -12.939 46.856 -23.428 36.367 -23.428 23.428 C -23.428 10.489 -12.939 0 0 0 " fill="#ffd662"/>
</g>
<g id="Layer-1" data-name="Artifact">
<g opacity=".449997">
<clipPath id="cp101">
<path transform="matrix(1,0,0,-1,0,841.89)" d="M 565.037 260.592 L 613.893 260.592 L 613.893 309.449 L 565.037 309.449 Z "/>
</clipPath>
<g clip-path="url(#cp101)">
<path transform="matrix(1,0,0,-1,589.4648,580.2977)" d="M 0 0 C 12.939 0 23.428 10.489 23.428 23.428 C 23.428 36.367 12.939 46.856 0 46.856 C -12.939 46.856 -23.428 36.367 -23.428 23.428 C -23.428 10.489 -12.939 0 0 0 " fill="#ffd662"/>
</g>
</g>
</g>
<g id="Layer-1" data-name="Artifact">
<g opacity=".699997">
<clipPath id="cp102">
<path transform="matrix(1,0,0,-1,0,841.89)" d="M 201.156 690.323 L 250.013 690.323 L 250.013 739.179 L 201.156 739.179 Z "/>
</clipPath>
<g clip-path="url(#cp102)">
<path transform="matrix(1,0,0,-1,225.5847,150.5672)" d="M 0 0 C 12.939 0 23.428 10.489 23.428 23.428 C 23.428 36.367 12.939 46.856 0 46.856 C -12.939 46.856 -23.428 36.367 -23.428 23.428 C -23.428 10.489 -12.939 0 0 0 " fill="#ffd662"/>
</g>
</g>
</g>
<g id="Layer-1" data-name="Artifact">
<g opacity=".600006">
<clipPath id="cp103">
<path transform="matrix(1,0,0,-1,0,841.89)" d="M 269.061 726.614 L 317.917 726.614 L 317.917 775.471 L 269.061 775.471 Z "/>
</clipPath>
<g clip-path="url(#cp103)">
<path transform="matrix(1,0,0,-1,293.489,114.275699)" d="M 0 0 C 12.939 0 23.428 10.489 23.428 23.428 C 23.428 36.367 12.939 46.856 0 46.856 C -12.939 46.856 -23.428 36.367 -23.428 23.428 C -23.428 10.489 -12.939 0 0 0 " fill="#ffffff"/>
</g>
</g>
</g>
<g id="Layer-1" data-name="Artifact">
<path transform="matrix(1,0,0,-1,161.0108,624.7086)" d="M 0 0 C 21.844 0 39.552 17.708 39.552 39.552 C 39.552 61.396 21.844 79.103 0 79.103 C -21.844 79.103 -39.552 61.396 -39.552 39.552 C -39.552 17.708 -21.844 0 0 0 " fill="#ffd662"/>
</g>
<g id="Layer-1" data-name="Artifact">
<path transform="matrix(1,0,0,-1,395.2943,765.46206)" d="M 0 0 C 23.921 0 43.312 19.392 43.312 43.312 C 43.312 67.233 23.921 86.625 0 86.625 C -23.921 86.625 -43.312 67.233 -43.312 43.312 C -43.312 19.392 -23.921 0 0 0 " fill="#ffd662"/>
</g>
<g id="Layer-1" data-name="Artifact">
<g opacity=".149994">
<clipPath id="cp104">
<path transform="matrix(1,0,0,-1,0,841.89)" d="M 252.542 393.894 L 287.68 393.894 L 287.68 429.031 L 252.542 429.031 Z "/>
</clipPath>
<g clip-path="url(#cp104)">
<path transform="matrix(1,0,0,-1,270.1106,446.99644)" d="M 0 0 C 9.151 0 16.569 7.418 16.569 16.569 C 16.569 25.72 9.151 33.138 0 33.138 C -9.151 33.138 -16.569 25.72 -16.569 16.569 C -16.569 7.418 -9.151 0 0 0 " fill="#ffffff"/>
</g>
</g>
</g>
<g id="Layer-1" data-name="Artifact">
<g opacity=".149994">
<clipPath id="cp105">
<path transform="matrix(1,0,0,-1,0,841.89)" d="M 374.577 686.477 L 409.715 686.477 L 409.715 721.614 L 374.577 721.614 Z "/>
</clipPath>
<g clip-path="url(#cp105)">
<path transform="matrix(1,0,0,-1,392.1462,154.41352)" d="M 0 0 C 9.151 0 16.569 7.418 16.569 16.569 C 16.569 25.72 9.151 33.138 0 33.138 C -9.151 33.138 -16.569 25.72 -16.569 16.569 C -16.569 7.418 -9.151 0 0 0 " fill="#ffffff"/>
</g>
</g>
</g>
<g id="Layer-1" data-name="Artifact">
<g opacity=".600006">
<clipPath id="cp106">
<path transform="matrix(1,0,0,-1,0,841.89)" d="M 201.156 609.219 L 246.236 609.219 L 246.236 654.298 L 201.156 654.298 Z "/>
</clipPath>
<g clip-path="url(#cp106)">
<path transform="matrix(1,0,0,-1,223.6961,231.67115)" d="M 0 0 C 11.896 0 21.54 9.644 21.54 21.54 C 21.54 33.436 11.896 43.079 0 43.079 C -11.896 43.079 -21.54 33.436 -21.54 21.54 C -21.54 9.644 -11.896 0 0 0 " fill="#ffffff"/>
</g>
</g>
</g>
<g id="Layer-1" data-name="Artifact">
<g opacity=".600006">
<clipPath id="cp107">
<path transform="matrix(1,0,0,-1,0,841.89)" d="M 28.8504 636.236 L 73.9297 636.236 L 73.9297 681.315 L 28.8504 681.315 Z "/>
</clipPath>
<g clip-path="url(#cp107)">
<path transform="matrix(1,0,0,-1,51.39,204.6543)" d="M 0 0 C 11.896 0 21.54 9.644 21.54 21.54 C 21.54 33.436 11.896 43.079 0 43.079 C -11.896 43.079 -21.54 33.436 -21.54 21.54 C -21.54 9.644 -11.896 0 0 0 " fill="#ffffff"/>
</g>
</g>
</g>
<g id="Layer-1" data-name="Artifact">
<g opacity=".600006">
<clipPath id="cp108">
<path transform="matrix(1,0,0,-1,0,841.89)" d="M 189.677 535.234 L 234.756 535.234 L 234.756 580.313 L 189.677 580.313 Z "/>
</clipPath>
<g clip-path="url(#cp108)">
<path transform="matrix(1,0,0,-1,212.2164,305.6565)" d="M 0 0 C 11.896 0 21.54 9.644 21.54 21.54 C 21.54 33.436 11.896 43.079 0 43.079 C -11.896 43.079 -21.54 33.436 -21.54 21.54 C -21.54 9.644 -11.896 0 0 0 " fill="#ffffff"/>
</g>
</g>
</g>
<g id="Layer-1" data-name="Artifact">
<path transform="matrix(1,0,0,-1,441.6067,517.164)" d="M 0 0 C 11.896 0 21.54 9.644 21.54 21.54 C 21.54 33.436 11.896 43.079 0 43.079 C -11.896 43.079 -21.54 33.436 -21.54 21.54 C -21.54 9.644 -11.896 0 0 0 " fill="#ffffff"/>
</g>
<g id="Layer-1" data-name="Artifact">
<g opacity=".600006">
<clipPath id="cp109">
<path transform="matrix(1,0,0,-1,0,841.89)" d="M 494.459 187.046 L 539.538 187.046 L 539.538 232.126 L 494.459 232.126 Z "/>
</clipPath>
<g clip-path="url(#cp109)">
<path transform="matrix(1,0,0,-1,516.9984,653.84378)" d="M 0 0 C 11.896 0 21.54 9.644 21.54 21.54 C 21.54 33.436 11.896 43.079 0 43.079 C -11.896 43.079 -21.54 33.436 -21.54 21.54 C -21.54 9.644 -11.896 0 0 0 " fill="#ffffff"/>
</g>
</g>
</g>
<g id="Layer-1" data-name="Artifact">
<g opacity=".600006">
<clipPath id="cp110">
<path transform="matrix(1,0,0,-1,0,841.89)" d="M 300.637 127.752 L 345.716 127.752 L 345.716 172.832 L 300.637 172.832 Z "/>
</clipPath>
<g clip-path="url(#cp110)">
<path transform="matrix(1,0,0,-1,323.1765,713.1377)" d="M 0 0 C 11.896 0 21.54 9.644 21.54 21.54 C 21.54 33.436 11.896 43.079 0 43.079 C -11.896 43.079 -21.54 33.436 -21.54 21.54 C -21.54 9.644 -11.896 0 0 0 " fill="#ffffff"/>
</g>
</g>
</g>
<g id="Layer-1" data-name="Artifact">
<g opacity=".149994">
<clipPath id="cp111">
<path transform="matrix(1,0,0,-1,0,841.89)" d="M 91.8528 299.976 L 120.573 299.976 L 120.573 328.697 L 91.8528 328.697 Z "/>
</clipPath>
<g clip-path="url(#cp111)">
<path transform="matrix(1,0,0,-1,106.213,540.9136)" d="M 0 0 C 7.379 0 13.36 5.982 13.36 13.36 C 13.36 20.739 7.379 26.72 0 26.72 C -7.379 26.72 -13.36 20.739 -13.36 13.36 C -13.36 5.982 -7.379 0 0 0 " fill="#ffffff"/>
</g>
</g>
</g>
<g id="Layer-1" data-name="Artifact">
<g opacity=".149994">
<clipPath id="cp112">
<path transform="matrix(1,0,0,-1,0,841.89)" d="M 404.707 289.616 L 433.427 289.616 L 433.427 318.337 L 404.707 318.337 Z "/>
</clipPath>
<g clip-path="url(#cp112)">
<path transform="matrix(1,0,0,-1,419.067,551.2739)" d="M 0 0 C 7.379 0 13.36 5.982 13.36 13.36 C 13.36 20.739 7.379 26.72 0 26.72 C -7.379 26.72 -13.36 20.739 -13.36 13.36 C -13.36 5.982 -7.379 0 0 0 " fill="#ffffff"/>
</g>
</g>
</g>
<g id="Layer-1" data-name="Artifact">
<g opacity=".149994">
<clipPath id="cp113">
<path transform="matrix(1,0,0,-1,0,841.89)" d="M 391.146 429.384 L 419.867 429.384 L 419.867 458.104 L 391.146 458.104 Z "/>
</clipPath>
<g clip-path="url(#cp113)">
<path transform="matrix(1,0,0,-1,405.5063,411.506)" d="M 0 0 C 7.379 0 13.36 5.982 13.36 13.36 C 13.36 20.739 7.379 26.72 0 26.72 C -7.379 26.72 -13.36 20.739 -13.36 13.36 C -13.36 5.982 -7.379 0 0 0 " fill="#ffffff"/>
</g>
</g>
</g>
<g id="Layer-1" data-name="Artifact">
<g opacity=".149994">
<clipPath id="cp114">
<path transform="matrix(1,0,0,-1,0,841.89)" d="M 462.146 370.574 L 490.867 370.574 L 490.867 399.294 L 462.146 399.294 Z "/>
</clipPath>
<g clip-path="url(#cp114)">
<path transform="matrix(1,0,0,-1,476.5065,470.316)" d="M 0 0 C 7.379 0 13.36 5.982 13.36 13.36 C 13.36 20.739 7.379 26.72 0 26.72 C -7.379 26.72 -13.36 20.739 -13.36 13.36 C -13.36 5.982 -7.379 0 0 0 " fill="#ffd662"/>
</g>
</g>
</g>
<g id="Layer-1" data-name="Artifact">
<g opacity=".149994">
<clipPath id="cp115">
<path transform="matrix(1,0,0,-1,0,841.89)" d="M 123.724 183.231 L 152.445 183.231 L 152.445 211.951 L 123.724 211.951 Z "/>
</clipPath>
<g clip-path="url(#cp115)">
<path transform="matrix(1,0,0,-1,138.0843,657.6593)" d="M 0 0 C 7.379 0 13.36 5.982 13.36 13.36 C 13.36 20.739 7.379 26.72 0 26.72 C -7.379 26.72 -13.36 20.739 -13.36 13.36 C -13.36 5.982 -7.379 0 0 0 " fill="#ffffff"/>
</g>
</g>
</g>
<g id="Layer-1" data-name="Artifact">
<g opacity=".449997">
<clipPath id="cp116">
<path transform="matrix(1,0,0,-1,0,841.89)" d="M 464.146 148.292 L 492.867 148.292 L 492.867 177.012 L 464.146 177.012 Z "/>
</clipPath>
<g clip-path="url(#cp116)">
<path transform="matrix(1,0,0,-1,478.5065,692.598)" d="M 0 0 C 7.379 0 13.36 5.982 13.36 13.36 C 13.36 20.739 7.379 26.72 0 26.72 C -7.379 26.72 -13.36 20.739 -13.36 13.36 C -13.36 5.982 -7.379 0 0 0 " fill="#ffffff"/>
</g>
</g>
</g>
<g id="Layer-1" data-name="Artifact">
<g opacity=".600006">
<clipPath id="cp117">
<path transform="matrix(1,0,0,-1,0,841.89)" d="M 166.782 302.515 L 213.563 302.515 L 213.563 349.296 L 166.782 349.296 Z "/>
</clipPath>
<g clip-path="url(#cp117)">
<path transform="matrix(1,0,0,-1,190.1723,538.375)" d="M 0 0 C 12.366 0 22.39 10.025 22.39 22.391 C 22.39 34.756 12.366 44.781 0 44.781 C -12.366 44.781 -22.39 34.756 -22.39 22.391 C -22.39 10.025 -12.366 0 0 0 " fill="#ffffff"/>
</g>
</g>
</g>
<g id="Layer-1" data-name="Artifact">
<g opacity=".149994">
<clipPath id="cp118">
<path transform="matrix(1,0,0,-1,0,841.89)" d="M 40.8211 561.138 L 75.959 561.138 L 75.959 596.276 L 40.8211 596.276 Z "/>
</clipPath>
<g clip-path="url(#cp118)">
<path transform="matrix(1,0,0,-1,58.39,279.75245)" d="M 0 0 C 9.151 0 16.569 7.418 16.569 16.569 C 16.569 25.72 9.151 33.138 0 33.138 C -9.151 33.138 -16.569 25.72 -16.569 16.569 C -16.569 7.418 -9.151 0 0 0 " fill="#ffffff"/>
</g>
</g>
</g>
<g id="Layer-1" data-name="Artifact">
<g opacity=".149994">
<clipPath id="cp119">
<path transform="matrix(1,0,0,-1,0,841.89)" d="M 309.857 449.044 L 325.977 449.044 L 325.977 465.164 L 309.857 465.164 Z "/>
</clipPath>
<g clip-path="url(#cp119)">
<path transform="matrix(1,0,0,-1,317.9172,391.8456)" d="M 0 0 C 3.899 0 7.06 3.161 7.06 7.06 C 7.06 10.959 3.899 14.12 0 14.12 C -3.899 14.12 -7.06 10.959 -7.06 7.06 C -7.06 3.161 -3.899 0 0 0 " fill="#ffd662"/>
</g>
</g>
</g>
<g id="Layer-1" data-name="Artifact">
<g opacity=".149994">
<clipPath id="cp120">
<path transform="matrix(1,0,0,-1,0,841.89)" d="M 440.487 71.8661 L 456.607 71.8661 L 456.607 87.9861 L 440.487 87.9861 Z "/>
</clipPath>
<g clip-path="url(#cp120)">
<path transform="matrix(1,0,0,-1,448.5471,769.0239)" d="M 0 0 C 3.899 0 7.06 3.161 7.06 7.06 C 7.06 10.959 3.899 14.12 0 14.12 C -3.899 14.12 -7.06 10.959 -7.06 7.06 C -7.06 3.161 -3.899 0 0 0 " fill="#ffd662"/>
</g>
</g>
</g>
<g id="Layer-1" data-name="Artifact">
<path transform="matrix(1,0,0,-1,137.0843,282.7657)" d="M 0 0 C 31.516 0 57.065 25.549 57.065 57.065 C 57.065 88.582 31.516 114.131 0 114.131 C -31.516 114.131 -57.065 88.582 -57.065 57.065 C -57.065 25.549 -31.516 0 0 0 " fill="#ffd662"/>
</g>
<g id="Layer-1" data-name="Artifact">
<g opacity=".149994">
<clipPath id="cp121">
<path transform="matrix(1,0,0,-1,0,841.89)" d="M 216.636 665.195 L 232.756 665.195 L 232.756 681.315 L 216.636 681.315 Z "/>
</clipPath>
<g clip-path="url(#cp121)">
<path transform="matrix(1,0,0,-1,224.6961,175.69489)" d="M 0 0 C 3.899 0 7.06 3.161 7.06 7.06 C 7.06 10.959 3.899 14.12 0 14.12 C -3.899 14.12 -7.06 10.959 -7.06 7.06 C -7.06 3.161 -3.899 0 0 0 " fill="#ffd662"/>
</g>
</g>
</g>
<g id="Layer-1" data-name="Artifact">
<g opacity=".149994">
<clipPath id="cp122">
<path transform="matrix(1,0,0,-1,0,841.89)" d="M 439.607 151.652 L 455.727 151.652 L 455.727 167.772 L 439.607 167.772 Z "/>
</clipPath>
<g clip-path="url(#cp122)">
<path transform="matrix(1,0,0,-1,447.6666,689.2383)" d="M 0 0 C 3.899 0 7.06 3.161 7.06 7.06 C 7.06 10.959 3.899 14.12 0 14.12 C -3.899 14.12 -7.06 10.959 -7.06 7.06 C -7.06 3.161 -3.899 0 0 0 " fill="#ffffff"/>
</g>
</g>
</g>
<g id="Layer-1" data-name="Artifact">
<g opacity=".149994">
<clipPath id="cp123">
<path transform="matrix(1,0,0,-1,0,841.89)" d="M 350.683 165.772 L 366.803 165.772 L 366.803 181.892 L 350.683 181.892 Z "/>
</clipPath>
<g clip-path="url(#cp123)">
<path transform="matrix(1,0,0,-1,358.7427,675.1183)" d="M 0 0 C 3.899 0 7.06 3.161 7.06 7.06 C 7.06 10.959 3.899 14.12 0 14.12 C -3.899 14.12 -7.06 10.959 -7.06 7.06 C -7.06 3.161 -3.899 0 0 0 " fill="#ffffff"/>
</g>
</g>
</g>
<g id="Layer-1" data-name="Artifact">
<g opacity=".149994">
<clipPath id="cp124">
<path transform="matrix(1,0,0,-1,0,841.89)" d="M 424.367 390.234 L 440.487 390.234 L 440.487 406.354 L 424.367 406.354 Z "/>
</clipPath>
<g clip-path="url(#cp124)">
<path transform="matrix(1,0,0,-1,432.4272,450.6556)" d="M 0 0 C 3.899 0 7.06 3.161 7.06 7.06 C 7.06 10.959 3.899 14.12 0 14.12 C -3.899 14.12 -7.06 10.959 -7.06 7.06 C -7.06 3.161 -3.899 0 0 0 " fill="#ffffff"/>
</g>
</g>
</g>
<g id="Layer-1" data-name="Artifact">
<g opacity=".149994">
<clipPath id="cp125">
<path transform="matrix(1,0,0,-1,0,841.89)" d="M 152.747 680.315 L 177.478 680.315 L 177.478 705.045 L 152.747 705.045 Z "/>
</clipPath>
<g clip-path="url(#cp125)">
<path transform="matrix(1,0,0,-1,165.1124,160.57501)" d="M 0 0 C 6.277 0 11.365 5.088 11.365 11.365 C 11.365 17.642 6.277 22.73 0 22.73 C -6.277 22.73 -11.365 17.642 -11.365 11.365 C -11.365 5.088 -6.277 0 0 0 " fill="#ffffff"/>
</g>
</g>
</g>
<g id="Layer-1" data-name="Artifact">
<g opacity=".149994">
<clipPath id="cp126">
<path transform="matrix(1,0,0,-1,0,841.89)" d="M 261.949 666.195 L 286.68 666.195 L 286.68 690.926 L 261.949 690.926 Z "/>
</clipPath>
<g clip-path="url(#cp126)">
<path transform="matrix(1,0,0,-1,274.3143,174.69489)" d="M 0 0 C 6.277 0 11.365 5.088 11.365 11.365 C 11.365 17.642 6.277 22.73 0 22.73 C -6.277 22.73 -11.365 17.642 -11.365 11.365 C -11.365 5.088 -6.277 0 0 0 " fill="#ffffff"/>
</g>
</g>
</g>
<g id="Layer-1" data-name="Artifact">
<g opacity=".149994">
<clipPath id="cp127">
<path transform="matrix(1,0,0,-1,0,841.89)" d="M 361.112 626.568 L 385.842 626.568 L 385.842 651.298 L 361.112 651.298 Z "/>
</clipPath>
<g clip-path="url(#cp127)">
<path transform="matrix(1,0,0,-1,373.4769,214.32233)" d="M 0 0 C 6.277 0 11.365 5.088 11.365 11.365 C 11.365 17.642 6.277 22.73 0 22.73 C -6.277 22.73 -11.365 17.642 -11.365 11.365 C -11.365 5.088 -6.277 0 0 0 " fill="#ffffff"/>
</g>
</g>
</g>
<g id="Layer-1" data-name="Artifact">
<g opacity=".149994">
<clipPath id="cp128">
<path transform="matrix(1,0,0,-1,0,841.89)" d="M 463.146 194.221 L 487.877 194.221 L 487.877 218.951 L 463.146 218.951 Z "/>
</clipPath>
<g clip-path="url(#cp128)">
<path transform="matrix(1,0,0,-1,475.5115,646.66946)" d="M 0 0 C 6.277 0 11.365 5.088 11.365 11.365 C 11.365 17.642 6.277 22.73 0 22.73 C -6.277 22.73 -11.365 17.642 -11.365 11.365 C -11.365 5.088 -6.277 0 0 0 " fill="#ffffff"/>
</g>
</g>
</g>
<g id="Layer-1" data-name="Artifact">
<g opacity=".149994">
<clipPath id="cp129">
<path transform="matrix(1,0,0,-1,0,841.89)" d="M 533.538 303.971 L 558.268 303.971 L 558.268 328.702 L 533.538 328.702 Z "/>
</clipPath>
<g clip-path="url(#cp129)">
<path transform="matrix(1,0,0,-1,545.9032,536.9186)" d="M 0 0 C 6.277 0 11.365 5.088 11.365 11.365 C 11.365 17.642 6.277 22.73 0 22.73 C -6.277 22.73 -11.365 17.642 -11.365 11.365 C -11.365 5.088 -6.277 0 0 0 " fill="#ffffff"/>
</g>
</g>
</g>
<g id="Layer-1" data-name="Span">
</g>
<text fill="#404041" xml:space="preserve" transform="matrix(1 0 -0 1 0 841.89)" font-size="10" font-family="Roboto" font-weight="bold"><tspan y="-598.4144" x="103.9943 110.277309 115.69231 121.1423 124.8263 128.30731 130.79732 136.28331 141.98831 147.22832 152.67832 156.36132 159.7743">Skatt ansatte</tspan></text>
</g>
<g id="Layer-1" data-name="Span">
</g>
<g id="Layer-1" data-name="Span">
<text fill="#ffffff" xml:space="preserve" transform="matrix(1 0 -0 1 0 841.89)" font-size="30" font-family="Roboto" font-weight="bold"><tspan y="-611.4606" x="99.8553 117.0693 125.7093 143.0193">4.5M</tspan></text>
</g>
<g id="Layer-1" data-name="Span">
</g>
<g id="Layer-1" data-name="Span">
</g>
<g id="Layer-1" data-name="Span">
<text fill="#404041" xml:space="preserve" transform="matrix(1 0 -0 1 0 841.89)" font-size="10" font-family="Roboto" font-weight="bold"><tspan y="-569.1507" x="263.6059 269.8859 275.30088 280.74787 284.43186 287.91285 290.40284 296.14283 301.5148 307.2548 310.84779 313.56278 317.34977 320.76277 326.13874">Skatt bedrifter</tspan></text>
<text fill="#404041" xml:space="preserve" transform="matrix(1 0 -0 1 0 841.89)" font-size="30" font-family="Roboto" font-weight="bold"><tspan y="-581.1969" x="261.4202 279.0512 287.78123 305.2202">2.8M</tspan></text>
<text fill="#404041" xml:space="preserve" transform="matrix(1 0 -0 1 0 841.89)" font-size="12.2063" font-family="Roboto" font-weight="bold"><tspan y="-349.1406" x="320.0497 327.61518 334.126 340.6808 345.08363 349.33143 352.3708 356.42573 363.2832 367.531 374.0858 377.3229">Skatt totalt</tspan></text>
</g>
<g id="Layer-1" data-name="Span">
</g>
<g id="Layer-1" data-name="Span">
</g>
<g id="Layer-1" data-name="Span">
</g>
<text fill="#ffffff" xml:space="preserve" transform="matrix(1 0 -0 1 0 841.89)" font-size="36.619" font-family="Roboto" font-weight="bold"><tspan y="-364.8445" x="308.1417 325.8653 336.4665 357.77143">7.3M</tspan></text>
<text fill="#ffffff" xml:space="preserve" transform="matrix(1 0 -0 1 0 841.89)" font-size="5" font-family="Roboto" font-weight="bold"><tspan y="-805.9686" x="403.742 407.072 410.257 413.222 415.8245 419.0045 422.5345 425.86448 428.68849 431.86848 435.05348 438.14347 439.38847 442.56846">GRATANGLAKS AS</tspan></text>
<text fill="#ffffff" xml:space="preserve" transform="matrix(1 0 -0 1 0 841.89)" font-size="5" font-family="Roboto"><tspan y="-805.9686" x="452.017 455.302 460.147 463.397 466.407 469.712 472.962 476.392 479.375 482.49 485.625 488.875 492.305 495.63 498.95503 502.565 505.6185">B&#x00c6;REKRAFTSRAPPORT</tspan></text>
<text fill="#ffffff" xml:space="preserve" transform="matrix(1 0 -0 1 0 841.89)" font-size="5" font-family="Roboto" font-weight="bold"><tspan y="-805.9686" x="512.562 515.432 518.302 521.172">2020</tspan></text>
<g id="Layer-1" data-name="Artifact">
<clipPath id="cp130">
<path transform="matrix(1,0,0,-1,0,841.89)" d="M 0 0 L 595.276 0 L 595.276 841.89 L 0 841.89 Z "/>
</clipPath>
<g clip-path="url(#cp130)">
<path transform="matrix(1,0,0,-1,0,39.3869)" stroke-width=".5" stroke-linecap="butt" stroke-miterlimit="4" stroke-linejoin="miter" fill="none" stroke="#ffffff" d="M 0 0 L 524.409 0 "/>
</g>
<g id="Layer-1" data-name="Artifact">
<path transform="matrix(1,0,0,-1,524.4094,802.3869)" stroke-width=".5" stroke-linecap="butt" stroke-miterlimit="4" stroke-linejoin="miter" fill="none" stroke="#404041" d="M 0 0 L -524.409 0 "/>
</g>
<g id="Layer-1" data-name="Span">
</g>
<text fill="#404041" xml:space="preserve" transform="matrix(1 0 -0 1 0 841.89)" font-size="8" font-family="Roboto" font-weight="bold"><tspan y="-44.7402" x="519.8196">7</tspan></text>
</g>
<g id="Layer-1" data-name="Span">
</g>
<g id="Layer-1" data-name="Span">
</g>
<g id="Layer-1" data-name="Span">
</g>
<g id="Layer-1" data-name="Span">
</g>
<g id="Layer-1" data-name="Span">
</g>
<g id="Layer-1" data-name="Span">
</g>
<g id="Layer-1" data-name="Span">
</g>
<g id="Layer-1" data-name="Span">
</g>
<g id="Layer-1" data-name="Span">
</g>
<g id="Layer-1" data-name="Span">
<text fill="#404041" xml:space="preserve" transform="matrix(1 0 -0 1 0 841.89)" font-size="7" font-family="Roboto"><tspan y="-29.016" x="466.1414 470.71379 472.85578 477.94898 482.70896 487.35279 489.49479 494.0994 498.80268 503.85877 506.00077 511.09397 515.93099 519.9595">RINGVIRKNINGER</tspan></text>
<text fill="#404041" xml:space="preserve" transform="matrix(1 0 -0 1 0 841.89)" font-size="7.8292" font-family="Roboto" font-weight="bold"><tspan y="-467.1545" x="239.244 244.4559 248.99449 253.16745 257.50483 260.45567 263.20137">Ansatte</tspan></text>
<text fill="#404041" xml:space="preserve" transform="matrix(1 0 -0 1 0 841.89)" font-size="24" font-family="Roboto" font-weight="bold"><tspan y="-475.6457" x="240.244 253.948">26</tspan></text>
<text fill="#404041" xml:space="preserve" transform="matrix(1 0 -0 1 0 841.89)" font-size="7" font-family="Roboto" font-weight="bold"><tspan y="-244.1722" x="134.4956 138.99521 143.0923 149.3027 155.4956 159.34421 162.1239 165.82901 167.83101 171.7111 175.6304 178.2183 182.06691">Sommervikarer</tspan></text>
<text fill="#404041" xml:space="preserve" transform="matrix(1 0 -0 1 0 841.89)" font-size="30" font-family="Roboto" font-weight="bold"><tspan y="-253.993" x="150.2362">5</tspan></text>
<text fill="#404041" xml:space="preserve" transform="matrix(1 0 -0 1 0 841.89)" font-size="5" font-family="Roboto" font-weight="bold"><tspan y="-273.4783" x="450.7388 452.6023 454.4758 457.1608 458.4058 461.3563 464.0893 466.77629 469.73979 471.6463 474.6088 477.3603 480.07728 481.92079 484.8748 487.8313 490.7853 493.5518 495.29179 496.53678 498.36927 499.80427 501.13926 502.38426 505.86973 507.74324 510.55274 512.41726 515.24429 518.1988 521.1553 523.93179 526.7518">fra havbruksfondet til Gratangen </tspan><tspan y="-267.4783" x="477.1988 479.9108 482.8608 487.31935 491.7658 494.73234 497.68086">kommune</tspan></text>
<text fill="#404041" xml:space="preserve" transform="matrix(1 0 -0 1 0 841.89)" font-size="14" font-family="Roboto" font-weight="bold"><tspan y="-281.8834" x="448.5587 456.66468 460.15068 468.24546 476.43824 484.54423 488.0302 496.265 504.6272 512.7332 516.21926 523.9976 528.93966">8 737 944 kr </tspan></text>
<text fill="#404041" xml:space="preserve" transform="matrix(1 0 -0 1 0 841.89)" font-size="7" font-family="Roboto" font-weight="bold"><tspan y="-103.6936" x="373.8255 377.84 381.5731 385.1781 389.02738 391.61738 395.54298 399.64988 403.75398 407.86228 410.45228 414.30155">Leverand&#x00f8;rer</tspan></text>
</g>
<text fill="#ffffff" xml:space="preserve" transform="matrix(1 0 -0 1 0 841.89)" font-size="29.2952" font-family="Roboto" font-weight="bold"><tspan y="-113.3829" x="369.1325 386.06513 403.39616">284</tspan></text>
</g>
</g>
</svg>
