<?xml version="1.0" encoding="UTF-8" standalone="no"?>
<!DOCTYPE svg PUBLIC "-//W3C//DTD SVG 1.1//EN" "http://www.w3.org/Graphics/SVG/1.1/DTD/svg11.dtd">
<svg xmlns="http://www.w3.org/2000/svg" xmlns:xlink="http://www.w3.org/1999/xlink" version="1.1" width="595.276pt" height="841.89pt" viewBox="0 0 595.276 841.89">
<g enable-background="new">
<g>
<g id="Layer-1" data-name="Span">
</g>
<g id="Layer-1" data-name="Span">
</g>
<g id="Layer-1" data-name="Span">
</g>
<g id="Layer-1" data-name="Span">
<text fill="#2b3b52" xml:space="preserve" transform="matrix(1 0 -0 1 0 841.89)" font-size="15" font-family="Roboto"><tspan y="-759.7736" x="70.8661 78.487598 86.944599 94.7011 101.245609 110.08061 118.60062 122.33562 129.86263 137.80213 150.78913 158.91313 166.85263 172.11763 175.85263 180.89864 186.04663 193.98613 207.03614 220.05164 227.92363 233.05364 236.78864 244.66214 252.26714 256.00215 259.85417 268.26615 273.15916 281.09867 286.24668 294.05567 301.80467 309.53565 317.48265 325.89463 330.81013 339.3301 344.65065 353.17063 361.7011 370.2136 378.1531 383.41813">102-44 Temaer fremmet av interessentgrupper </tspan></text>
<text fill="#2b3b52" xml:space="preserve" transform="matrix(1 0 -0 1 0 841.89)" font-size="15" font-family="Roboto"><tspan y="-553.67367" x="70.8661 78.487598 86.944599 94.7011 101.245609 109.81661 118.33661 122.07161 131.30562 139.19562 142.97562 150.76811 158.5366 166.71161 175.22412 183.16512 188.43012 192.16512 200.65512 209.14513 212.88013 220.83313 229.35614 237.83415 245.70615 250.59915 258.53868 263.80369 267.53868 271.39518 279.91069 287.82768 291.67668 300.21467 308.70466 316.64418 322.30369 327.4337 331.16868 335.05369 338.78868 347.29066 355.16416 360.29417 364.02915 368.39439 372.81016 381.25965 389.44364 397.85713 405.5821 409.4401 417.3301 421.11314 424.97114 432.81614 436.55113 441.70515 449.60264 458.13014 466.5436 474.3436 482.1106 490.2871 498.7996 506.6716 511.8016">102-45 Selskaper og enheter inkludert i det finansielle regnskapet </tspan><tspan y="-426.95365" x="70.8661 78.487598 86.944599 94.7011 101.245609 109.88411 118.40411 122.139118 131.61313 136.75963 145.16564 152.89514 160.70415 168.45316 176.25316 179.98816 184.89167 193.39968 198.66468 202.39968 210.55968 214.29468 222.78469 230.76769 235.13292 239.54418 248.04618 255.98567 261.13368 268.97868 272.71366 277.88417 286.05918 294.58967 303.10215 311.61015 317.26966 322.16267 330.10966 338.52314 346.32313 350.0581 353.91313 362.4376 370.96058 379.43708 387.87757 391.75358 400.24357 403.97856 412.46855 420.95854 424.6935 432.5685 439.88703 448.407 453.55503 461.502 469.9155 477.71549 486.1725 490.0275 498.5055 507.021 514.962">102-46 Prosess for &#x00e5; definere rapportens innhold og avgrensninger</tspan></text>
</g>
<g id="Layer-1" data-name="Span">
</g>
<g id="Layer-1" data-name="Span">
</g>
<g id="Layer-1" data-name="Span">
</g>
<g id="Layer-1" data-name="Span">
</g>
<g id="Layer-1" data-name="Span">
</g>
<g id="Layer-1" data-name="Span">
</g>
<g id="Layer-1" data-name="Span">
</g>
<g id="Layer-1" data-name="Span">
</g>
<g id="Layer-1" data-name="Span">
</g>
<text fill="#404041" xml:space="preserve" transform="matrix(1 0 -0 1 0 841.89)" font-size="9" font-family="Roboto"><tspan y="-728.6396" x="70.8661 76.4191 78.4351 80.451099 82.467098 87.29109 91.701099 96.2551 100.9081 105.8491 108.342098 112.995098 116.0191 118.38609 123.03909 125.92809 128.25279 131.1418 135.7804 143.7544 148.5784 150.9364 155.4904 160.5304 168.5044 170.84439 175.88439 180.87039 185.85639 188.74539 193.5694 196.5934 199.01889 206.99289 211.8169 216.75789 221.75289 226.40589 228.82328 233.59508 237.92407 240.33608 244.67407 249.49808 252.50048 257.15348 259.47099 261.48698 266.42799 269.317 273.97 277.0399 281.6929 286.2469 290.80088 295.4539 300.3949 303.2839 307.93693 310.5397 312.6907 315.03074 320.58375 322.59974 324.93077 329.87178 334.69578 337.71977 340.19477 342.21076 344.57777 349.13175 353.95576 361.92976 366.75376 369.77775 374.76374 379.41676 381.43275 386.43675 388.91896 396.89295 401.54597 406.54997 408.87559 415.2656 420.3056 423.2234 428.2274 433.0055 437.3345 439.3505 444.2915 449.2955 451.811 456.752 459.64103 463.97004 465.98603 470.39604 472.41203 474.428 479.36903 484.364 487.02894 492.03294 496.68595 498.70195 501.59095 506.41496 509.30397 512.19296 514.57888 519.5649 524.38888">Villaksen er et tema som opptar mange av v&#x00e5;re interessenter. Vi har i samarbeid med Nordavind utvikling deltatt p&#x00e5; </tspan><tspan y="-717.8396" x="70.8661 75.5191 78.4081 81.48969 86.04369 90.86769 98.84169 103.66569 106.68969 111.67569 116.32869 118.34469 123.34869 127.90269 132.88869 136.07109 141.11109 145.66509 147.71709 152.37009 156.78009 159.6691 162.8353 170.8093 175.4623 177.4783 179.49431 184.5343 192.5083 195.6124 197.6284 202.6684 207.0784 211.9024 213.91841 218.57141 221.69892 226.52292 230.93292 233.82193 238.83493 241.85894 246.51194 249.53594 252.65894 254.67494 257.79795 262.73896 267.58006 271.90907 276.89506 279.91905 284.86006 289.27006 293.82405 298.76506 306.37907 309.40306 311.41905 316.36006 321.35505 326.00807 331.75819 334.8542 339.8942 344.8892 347.969 349.985 355.025 359.435 364.259 366.275 370.928 374.05284 377.03184 382.07185 385.10484 389.44285 394.26686 396.28285 399.17185 403.82487 406.84077 411.49378 414.56819 419.34089 423.6699 426.8397 431.6637 436.6047 441.4287 446.4327 449.51969 454.5597 462.5337 465.6018 468.5808 470.5968 475.1508 479.5608 481.7118 484.6845 490.22853 493.2192 498.25923 502.8132 504.8652 509.51823 513.9282 516.8172 521.4702 524.3592">et samarbeidsprosjekt mellom lokale akt&#x00f8;rer i havbruksn&#x00e6;ringen og lokale forvaltere av anadrom fisk. Prosjektet </tspan><tspan y="-707.0396" x="70.8661 75.8071 80.631099 83.6551 86.532398 91.518398 96.34239 101.337398 106.16139 109.05039 111.93939 114.76629 117.74529 120.769298 125.59329 128.3149 133.3009 138.2869 143.27289 148.25888 151.01198 153.90099 155.91699 157.933 160.741 165.72699 170.71298 175.69898 180.68497 182.83597 185.58727 193.37227 198.19628 200.21228 204.76628 209.41928 212.30829 215.1973 217.2133 222.1543 227.14929 231.80229 236.74329 239.68808 244.62908 249.45308 252.47708 255.35437 259.68339 267.2974 270.79658 273.68559 276.4387 281.2627 284.023 289.036 293.37043 298.02345 300.74867 305.57267 310.51368 313.40269 318.22669 320.24269 322.25868 325.16477 329.98878 334.92979 339.75379 344.75779 347.84477 352.88478 360.85877 363.57679 366.5558 368.57179 373.12577 377.53578 380.16108 382.17707 384.95088 389.50486 397.47886 402.30287 405.09468 410.13468 415.12968 417.86119 425.83518 430.4882 432.50419 434.52018 439.56019 447.53419 452.08818 454.97718 460.01719 463.01869 467.6717 470.3969 475.04994 477.06593 481.41835 486.07136 489.09535 491.86827 493.88426 496.65806 501.70704 504.6914 509.7314 517.70547 522.25949 524.41049">har p&#x00e5;g&#x00e5;tt fra 2017 til 2020. M&#x00e5;lsettingen har v&#x00e6;rt &#x00e5; &#x00f8;ke antall anadrom fisk i sm&#x00e5; og mellomstore elver i Troms. </tspan><tspan y="-696.2396" x="70.8661 76.410099 79.399898 84.439899 88.9939 91.0459 95.6989 100.1089 102.9979 107.6509 110.5399 112.7971 117.7381 122.562099 125.5861 127.91709 132.2461 139.86009 143.3575 146.2465 148.45421 151.44222 156.09522 158.98423 161.87323 166.52623 169.41524 171.60224 179.57624 184.61623 187.50524 189.22423 191.39772 196.43772 201.43271 203.6197 208.5607 213.3847 216.4087 218.7397 223.2937 228.1177 236.0917 240.91571 243.93972 248.92572 253.57872 255.59473 260.59873 265.25175 268.14076 270.32777 278.30177 282.95478 287.95878 290.2898 294.9428 296.9588 301.31123 305.96424 310.61726 312.63325 317.28627 320.31025 322.32624 327.20335 332.19834 334.41325 339.45326 344.44825 346.63526 351.45927 356.40028 361.40428 364.48136 369.13438 371.3133 379.2873 383.9403 388.9443 391.13133 394.02033 396.03633 398.0523 402.4623 407.40333 411.6783 414.56733 419.50834 421.52433 426.46534 431.46034 433.64735 436.53636 438.55235 440.56834 443.29804 446.27705 451.31706 454.35093 458.68803 463.51203 465.528 468.41703 473.35804 475.37403 480.31504 485.31004 487.49705 492.51185 496.84086 499.11607 503.76908 505.78507 510.13749 514.79049 519.73147 524.38449">Prosjektet har v&#x00e6;rt rettet mot, og har samarbeidet med elveeierlag og andre med tilknytning til forvaltning av elvene </tspan><tspan y="-685.43966" x="70.8661 72.882099 74.88009 82.66509 84.68109 89.68509 92.57409 95.14809 101.41839 104.40189 109.441898 117.41589 121.969898 123.94089 128.98088 133.97588 135.92798 141.25598 146.26898 149.29299 151.86699 158.2741 161.2576 166.29759 174.27159 178.82559 180.9766 182.94759 187.78958 190.81359 195.63759 197.67159 202.6576 207.64359 212.62958 217.61557 219.58657 224.52756 229.35157 232.37557 234.47347 239.51346 244.50846 249.06246 253.88646 255.88266 260.53569 262.55168 266.90409 271.5571 274.5811 276.5791 278.5951 280.5931 286.98313 292.02314 294.94184 299.94584 302.51985 308.7802 311.7637 316.8037 324.7777 329.3317 331.3027 336.2887 338.3047 340.32069 343.2097 346.0987 348.1588 350.1748 355.1158 359.52583 361.5418 366.48283 371.48683 376.13984 379.47343 382.36244 384.33705 386.35304 388.35105 393.35505 398.00807 400.89707 403.78608 408.4391 410.384 414.938 419.762 427.736 432.56 435.58399 440.56999 445.223 447.23899 452.24299 456.896 459.785 461.936 464.03123 469.35923 472.24824 476.52323 479.5472 481.5632 486.5042 491.4992 496.0532 501.0482 504.07218 509.01319 513.9992 518.9852 523.8092">i Midt-Troms og S&#x00f8;r-Troms. Fra 2018 har ogs&#x00e5; elver i Nord-Troms blitt inkludert i dette samarbeidet. Styringsgruppa </tspan><tspan y="-674.63967" x="70.8661 75.8071 80.631099 83.6551 85.131099 90.117099 94.770099 99.3241 102.2131 107.037097 109.926097 112.815097 114.22809 118.999889 123.32889 124.74188 127.72988 132.38289 137.3689 140.3578 145.0108 149.5648 154.2178 159.1588 162.0478 166.87181 171.8128 174.70182 179.35482 182.37882 183.89981 186.87882 189.90282 194.72682 196.04082 201.09072 204.11472 208.93872 213.87972 218.89272 223.16771 228.15372 233.19371 236.08272 241.02371 242.695 247.645 252.298 257.293 261.946 264.97 266.3128 271.3528 276.3478 277.67533 282.7423 284.7583 289.3123 293.59269 298.2457 301.2247 306.2647 309.1141 313.76713 318.70814 320.72413 325.66514 330.66014 332.37913 333.88304 339.21104 344.03504 346.05104 350.87504 355.81605 360.81105 365.36503 369.97575 374.79975 379.35374 383.9077 388.9117 391.9357 396.7597 401.7547 406.4077 409.29673 410.77995 415.84693 417.8629 422.4169 426.6973 431.3503 434.3293 439.36933 442.38163 446.71873 451.54273 453.55873 456.44773 461.38874 463.40473 468.34574 473.34074 475.05973 476.63383 481.7008 483.7168 488.5408 492.9508 497.5048 500.3938 505.2178 510.2218 514.5589 519.3829 524.37789">har best&#x00e5;tt av representanter fra Tran&#x00f8;ybotn Jeger og Fiskeforening, Salangsvassdraget Fiskeforvaltning, Flakstadv&#x00e5;g </tspan><tspan y="-663.83969" x="70.8661 72.882099 77.70609 82.11609 86.67009 88.857089 93.89709 98.89209 101.07909 106.40709 111.23109 113.247089 121.03209 125.85609 128.59299 130.74399 132.93099 138.25899 140.275 145.21599 148.105 150.994 154.018 158.84201 163.828 168.814 173.85399 177.2929 180.1819 182.3689 187.35489 189.3709 194.0239 196.21089 198.2269 202.8691 207.2152 211.8682 214.9939 217.8829 220.0699 222.0859 224.2729 229.3129 233.7229 236.61191 241.6519 246.63791 251.29091 254.31491 256.50193 261.4879 266.4739 271.4599 276.4459">laks og SalMar. Sluttrapport ble levert i oktober 2020.</tspan><tspan y="-529.1456" x="70.8661 76.5505 79.6573 84.2572 87.2695 91.985507 97.029109 102.011508 106.611408 111.07631 115.93451 121.02851 125.70671 128.59572 131.22371 134.12712 136.13593 138.15193 140.80333 146.95934 149.98334 154.85955 157.80615 162.66436 167.70255 172.69754 174.71355 179.61675 184.01685 188.57085 191.22405 196.89225 202.22025 204.94724 210.03673 218.04222 223.06331 227.92151 232.9678 237.9718 240.05352 244.75872 247.78272 250.45392 254.93683 259.97505 264.91606 267.60707 273.76307 276.78706 281.66325 284.60984 289.46806 294.50627 299.50126 301.51725 306.42045 310.82057 315.48435 317.63536 320.25437 322.64839 325.31239 331.46839 337.331 339.81053 343.67424 346.6982 351.6014 356.654 361.7444 366.824 370.2512 373.0007 377.7059 380.8505 382.8665 387.9308 393.00679 397.71199 402.65299 405.344 410.0492 413.07319 415.7444 420.8123 425.4896 428.3786 431.0075 435.4895 440.52864 445.46965 448.16065 451.10725 455.90245 459.06236 461.95137 464.57939 469.6815 472.4436 477.49079 482.349 487.38633 492.38133 497.0001 502.0365 507.07563 512.112 516.8379 519.72689 522.35488 524.37088">&#x00c5;rsregnskapet til Gratanglaks AS omhandler kun Gratanglaks. I GRI-rapporteringen er det kun tatt utgangspunkt i </tspan><tspan y="-518.34567" x="70.8661 73.8127 78.636699 80.64549 82.66149 85.44249 88.23699 93.31659 96.34059 99.13959 105.295589 108.31959 113.195789 116.14239 121.00059 126.03789 131.03289 133.04889 137.95209 142.35219 146.90619 149.68718 155.35538 160.88948 163.04048 165.79448 171.36368 176.00408 180.86318 185.58727 190.41127 192.49118 196.86518 199.64617 205.31436 210.64237 213.50437 218.20957 221.23357 224.03256 228.30487 233.39437 241.40796 249.44226 254.12047 257.00947 259.77247 261.78846 266.85276 271.79377 274.61979 279.22956 284.31819 292.29219 295.04618 299.72349 302.6125 305.3755 310.2994 315.0577 318.21763 321.10664 323.86964 328.90873 333.70393 336.86384 339.61335 344.31855 347.42625 352.03153 356.70344 358.71315 363.31303 367.77793 372.63615 377.62214 380.40406 382.42005 385.20106 390.26536 395.37196 400.43626 405.47267 407.19166 409.94657 417.98176 422.68696 427.62797 430.45399 433.3997 438.2237 440.2334 442.3151 447.0203 452.0819 456.73493 459.47096 464.17707 467.20106 470.00007 472.01606 476.59257 480.86128 485.51429 488.2503 492.95643 497.89744 500.72346 505.79136 510.46238 512.4784 515.2594 520.0033 524.3323">tall for Gratanglaks AS. Seacalx AS er kommet inn som et nytt datterselskap i 2020, men tallene er ikke en del av </tspan><tspan y="-507.54566" x="70.8661 73.9342 78.7924 83.845897 88.90389 94.01049 97.43859 100.18719 104.912189 108.00819 110.076389 115.113689 120.18879 124.91379 129.90608 132.09308 136.43738 141.16239 144.31868 148.58737 153.31238 158.30467 160.49167 165.54427 170.38266 172.56966 177.65467 181.92696 187.00656 192.08257 197.19457 205.14878 207.19178 209.37877 214.04978 216.05948 218.14028 222.86528 225.91898 228.10597 234.29528 240.12277 242.56717">rapporteringen verken p&#x00e5; &#x00f8;konomi eller GRI.</tspan></text>
<g id="Layer-1" data-name="Artifact">
<clipPath id="cp628">
<path transform="matrix(1,0,0,-1,0,841.89)" d="M 0 0 L 595.276 0 L 595.276 841.89 L 0 841.89 Z "/>
</clipPath>
<g clip-path="url(#cp628)">
<g opacity=".149994">
<clipPath id="cp629">
<path transform="matrix(1,0,0,-1,0,841.89)" d="M 62.7795 598.34 L 532.496 598.34 L 532.496 630.417 L 62.7795 630.417 Z "/>
</clipPath>
<g clip-path="url(#cp629)">
<path transform="matrix(1,0,0,-1,0,841.89)" d="M 63.78 599.34 L 531.496 599.34 L 531.496 629.41708 L 63.78 629.41708 Z " fill="#949699"/>
</g>
</g>
</g>
<g id="Layer-1" data-name="Span">
</g>
<text fill="#404041" xml:space="preserve" transform="matrix(1 0 -0 1 0 841.89)" font-size="10" font-family="Roboto"><tspan y="-610.6281" x="94.3437 100.7037 107.053699 113.4237 119.7937 126.6437 132.7517 138.62169 144.16168 150.52169 153.40169 160.45169 167.17169 173.32169 179.69168 186.05168 192.40169 198.77169 204.92168 207.80168">RAPPORTERINGSPRAKSIS</tspan></text>
</g>
<g id="Layer-1" data-name="Artifact">
<clipPath id="cp630">
<path transform="matrix(1,0,0,-1,0,841.89)" d="M 0 0 L 595.276 0 L 595.276 841.89 L 0 841.89 Z "/>
</clipPath>
<g clip-path="url(#cp630)">
<path transform="matrix(1,0,0,-1,79.8798,236.8504)" d="M 0 0 C 4.978 0 9.014 4.181 9.014 9.338 C 9.014 14.496 4.978 18.677 0 18.677 C -4.978 18.677 -9.014 14.496 -9.014 9.338 C -9.014 4.181 -4.978 0 0 0 " fill="#ffffff"/>
</g>
<g id="Layer-1" data-name="Span">
</g>
<text fill="#404041" xml:space="preserve" transform="matrix(1 0 -0 1 0 841.89)" font-size="12" font-family="Roboto"><tspan y="-609.8781" x="76.1102">6</tspan></text>
</g>
<g id="Layer-1" data-name="Artifact">
<clipPath id="cp631">
<path transform="matrix(1,0,0,-1,0,841.89)" d="M 0 0 L 595.276 0 L 595.276 841.89 L 0 841.89 Z "/>
</clipPath>
<g clip-path="url(#cp631)">
<filter id="blend_3"><feBlend mode="overlay" in2="BackgroundImage" in="SourceGraphic"/></filter>
<g filter="url(#blend_3)">
<clipPath id="cp632">
<path transform="matrix(1,0,0,-1,0,841.89)" d="M 69.8661 471.621 L 525.409 471.621 L 525.409 474.121 L 69.8661 474.121 Z "/>
</clipPath>
<g clip-path="url(#cp632)">
<path transform="matrix(1,0,0,-1,70.8661,369.01884)" stroke-width=".5" stroke-linecap="butt" stroke-miterlimit="4" stroke-linejoin="miter" fill="none" stroke="#b9bbbd" d="M 0 0 L 453.543 0 "/>
</g>
</g>
</g>
<g id="Layer-1" data-name="Span">
</g>
<text fill="#404041" xml:space="preserve" transform="matrix(1 0 -0 1 0 841.89)" font-size="9" font-family="Roboto"><tspan y="-402.4259" x="70.8661 77.01849 81.749797 84.7288 86.658397 91.71999 96.426097 99.570697 101.58669 106.65099 111.645999 114.783397 119.52639 123.85539 127.052188 129.8017 134.5159 142.5061 147.4687 149.1877 152.3134 160.3027 165.12671 167.25792 168.97692 172.10262 174.11862 179.18202 184.21842 189.298 194.3551 196.41881 201.4228 204.55031 209.6452 214.6402 217.77669 222.85268 227.95748 233.04247 237.38677 242.09287 247.13826 252.14226 254.19696 259.27207 263.92509 267.0265 272.06559 276.86079 279.80738 284.63139 287.76789 290.56239 295.642 298.666 301.8367 306.8704 314.7886 317.8009 322.5061 327.0556 330.0796 334.873 338.07789 340.9669 345.56678 348.59077 353.49397 358.54655 363.63694 368.71656 372.14375 374.89326 379.59938 384.54039 387.7309 392.4361 395.46009 398.6308 403.8652 406.009 411.08863 414.5158 417.40483 420.53413 425.278 429.60704 432.80384 440.64555 445.70265 447.79695 452.91255 457.61775 462.55876 465.75016 471.21586 476.15687 480.84315 483.78974 488.61375 490.62974 495.57075 500.52796 505.55897 507.56776 509.57746 511.68257 514.8469 519.12197 522.3719 524.3879">Definering av tema, m&#x00e5;l, innhold og n&#x00f8;dvendige data for b&#x00e6;rekraftsrapporten er gjort av Moloen Sustainability i </tspan></text>
</g>
<g id="Layer-1" data-name="Span">
</g>
<g id="Layer-1" data-name="Span">
</g>
<text fill="#404041" xml:space="preserve" transform="matrix(1 0 -0 1 0 841.89)" font-size="9" font-family="Roboto"><tspan y="-391.6259" x="70.8661 75.862 83.7802 87.2074 90.0964 92.50839 97.144298 102.01059 109.999889 114.858089 118.03239 123.12729 127.79829 129.86199 134.86598 137.27799 145.31229 150.0373 155.04129 157.4533 163.6093 166.6333 171.5095 174.45612 179.31432 184.35161 189.3466 191.36261 196.26581 200.66591 205.33061 207.48162 209.88462 215.94882 220.74404 223.69065 228.51465 230.93564 235.57154 240.43784 248.41814 250.49985 255.15285 259.70686 262.14408 264.16007 269.22349 274.1645 276.6395 281.3834 285.7124 288.19374 294.34974 297.37373 302.2499 305.1965 310.05473 315.09205 320.08705 322.10304 327.00624 331.40635 335.96034 338.39756 343.63285 345.76316 350.46928 355.50569 360.58079 365.6703 373.6443 376.0536 378.84809 383.9277 387.0354 391.6344 396.14253 398.27284 402.94386 404.95356 406.96235 409.01704 414.09214 418.74516 421.13017 424.15415 429.05735 434.10993 439.20033 444.27995 447.70713 450.45664 455.16184 458.30644 460.32243 465.38673 470.3817 475.0104 479.5644 483.8394 488.60758 491.35618 496.0713 504.1056 508.8117 511.8357 514.2909 519.3849 524.3799">n&#x00e6;rt samarbeid med Gratanglaks. Data samles inn av Gratanglaks gjennom forskjellige rapporteringssystemer og </tspan><tspan y="-380.8259" x="70.8661 75.385898 77.39559 79.45839 84.52539 89.23149 92.45079 94.34079 96.52779 101.54619 107.78589 113.34879 115.067798 117.25479 122.99859 127.85679 130.86908 135.57518 140.54048 143.42949 147.98349 154.69838 159.49359 162.2602 166.94019 171.88118 174.06818 179.23328 184.22827 186.41527 191.28968 194.39647 198.99637 202.00867 206.72467 211.76827 216.75066 221.35056 225.81546 230.67366 235.65967 237.84667 242.96047 248.04636 253.08005 257.58726 259.71846 264.42366 269.38896 272.27796 274.46498 279.21788 283.54689 285.7339 290.5156 294.9157 299.53 302.2795 306.98564 310.1599 315.10093 317.28794 320.37043 325.01356 329.47846 331.48817 336.09794 341.17845 343.8037">kilder: EQS, Barentswatch og &#x00e5;rsregnskap godkjent av ekstern revisor.</tspan></text>
<g id="Layer-1" data-name="Artifact">
<clipPath id="cp633">
<path transform="matrix(1,0,0,-1,0,841.89)" d="M 0 0 L 595.276 0 L 595.276 841.89 L 0 841.89 Z "/>
</clipPath>
<g clip-path="url(#cp633)">
<g filter="url(#blend_3)">
<clipPath id="cp634">
<path transform="matrix(1,0,0,-1,0,841.89)" d="M 69.8661 344.903 L 525.409 344.903 L 525.409 347.403 L 69.8661 347.403 Z "/>
</clipPath>
<g clip-path="url(#cp634)">
<path transform="matrix(1,0,0,-1,70.8661,495.7372)" stroke-width=".5" stroke-linecap="butt" stroke-miterlimit="4" stroke-linejoin="miter" fill="none" stroke="#b9bbbd" d="M 0 0 L 453.543 0 "/>
</g>
</g>
</g>
<g id="Layer-1" data-name="Span">
</g>
<text fill="#404041" xml:space="preserve" transform="matrix(1 0 -0 1 0 841.89)" font-size="9" font-family="Roboto"><tspan y="-275.7076" x="70.8661 75.8782 80.957798 83.9818 85.85379 90.67779 92.51649 95.49549 97.42509 102.46149 107.52399 112.17699 113.97968 116.93169 119.95569 124.86699 132.84099 134.66709 137.5705 139.5793 141.5953 143.44661 147.79091 152.44391 157.04921 161.75531 166.72061 169.62403 171.63283 173.68753 178.76262 183.41562 185.21921 187.96782 192.68292 200.67223 205.53133 210.23743 212.88793 214.60692 216.43392 221.4559 226.3141 229.3381 231.2101 235.67409 237.6901 239.5414 244.77669 246.91959 252.00008 255.42728 258.31629 260.14689 264.853 269.794 271.6867 276.7393 279.76329 284.80329 289.40858 294.06159 298.67228 303.22627 305.07939 313.11457 317.83869 322.84269 324.6724 329.4964 331.3351 336.4021 341.13343 344.11244 346.04203 351.10365 355.80976 358.82206 363.47508 365.27778 371.43379 374.45777 379.33396 382.28056 387.13877 392.1761 397.17109 399.18708 404.09028 408.4904 413.04438 414.8975 419.46318 421.47917 426.56779 431.2208 433.0244 438.10673 442.37904 447.45866 452.53468 457.6233 465.60359 467.61418 472.21406 476.48185 481.14387 482.86286 484.69078 489.30055 494.34056 498.90623 500.9222 505.77323 507.854 512.507 514.30978 519.4046 524.3996">For &#x00e5; finne fram til vesentlige temaer, har vi gjort en prosess med &#x00e5; definere Gratanglaks sine &#x00f8;konomiske, sosiale og </tspan></text>
</g>
<g id="Layer-1" data-name="Span">
</g>
<g id="Layer-1" data-name="Span">
</g>
<g id="Layer-1" data-name="Span">
</g>
<g id="Layer-1" data-name="Span">
</g>
<g id="Layer-1" data-name="Span">
</g>
<g id="Layer-1" data-name="Span">
</g>
<g id="Layer-1" data-name="Span">
</g>
<g id="Layer-1" data-name="Span">
<text fill="#404041" xml:space="preserve" transform="matrix(1 0 -0 1 0 841.89)" font-size="9" font-family="Roboto"><tspan y="-264.9076" x="70.8661 78.8464 80.856098 82.880199 85.023998 90.114398 98.1487 102.8017 107.4115 111.9772 114.0319 119.107 123.76 125.47 129.74231 134.8219 139.80519 144.41049 149.1166 153.829 158.1733 162.8785 167.86089 172.46709 177.17319 179.7985 181.9495 183.67749 189.35199 191.368 193.12839 198.15038 203.00768 206.03168 207.81278 209.82878 211.58377 215.92807 220.58107 225.18637 229.89247 234.85778 237.76119 239.76999 241.82469 246.86739 251.93439 256.6117 259.5007 264.06819 268.56999 273.6091 276.6331 281.70008 286.4062 289.55079 291.56678 296.632 301.7071 306.4132 311.35423 313.15425 316.11524 321.15345 326.19078 331.25239 335.9306 338.8196 340.5566 345.6236 350.2766 351.98664 357.07527 365.08168 368.10566 372.92967 378.05967 382.76579 387.8274 392.4804 394.1913 398.8002 403.8897 411.8637 413.59803 418.30415 421.32814 423.10835 427.57237 429.58836 434.34126 437.24467 439.29847 444.29347 448.92665 451.81565 453.55265 456.34626 461.42677 464.45075 466.23097 468.24696 473.24015 475.98966 480.69486 483.70716 488.36018 492.96995 497.5761 502.28224 507.24754 509.99705 514.7022 519.7647 524.4177">milj&#x00f8;messige konsekvenser. Vi har i vesentlighetsvurderingen funnet de omr&#x00e5;dene som er viktigst for interessentene </tspan><tspan y="-254.10759" x="70.8661 75.2194 80.0776 83.0899 87.7519 89.4709 91.5319 96.6268 101.6218 103.7008 111.7351 116.3881 121.0033 123.8923 125.9623 130.5127 133.6573 135.7624 138.66582 140.67552 145.27542 149.68543 151.75542 154.54993 159.63042 162.65442 164.76042 169.36663 174.03763 176.04824 180.64723 185.11214 189.97034 195.06523 199.74254 202.63155 207.18555 209.27265 212.22556 215.23786 219.95206 227.87026 230.77367 232.83647 237.84047 239.89517 244.97026 249.62326 251.66626 256.00965 260.71577 263.73976 268.74375 270.75434 275.35423 279.81913 284.67735 289.70744 291.72343 296.78773 301.8817 304.0327 306.09284 312.24613 316.92344 320.08335 322.83287 327.48588 329.52888 334.56889 339.4271 344.4635 349.52513 354.23124 357.25523 359.36125 364.40394 367.5881 372.6263 377.66273 382.67124 384.68724 389.55174 394.62773 399.30503 402.19404 404.26405 407.05854 412.13816 415.16215 417.26817 422.37117 425.51847 429.87089 434.6949 436.74958 441.82469 446.50199 449.391 451.461 456.2049 460.5339 462.66694 464.68293 469.75624 474.76023 476.7762 481.26814 486.06333 488.81733 493.89695 496.90925 501.61537 504.63935 506.74537 511.35426 516.4437 524.4177">v&#x00e5;re, og mest kritisk for selskapets fremtidige verdiskaping. Dette danner grunnlaget for utvalget av indikatorer som </tspan><tspan y="-243.30759" x="70.8661 77.022098 80.0461 84.922298 87.8689 92.7271 97.7644 102.7594 104.7754 109.6786 114.07869 118.63269 121.08249 125.68239 130.1473 134.9713 136.9873 139.4344 147.4237 152.24771 154.32942 158.98242 161.38182 165.94753 167.96353 173.05303 177.70603 180.10543 185.15804 188.17034 192.82334 197.43764 200.38425 205.18845 209.74245 211.88535 216.96584 222.02744 226.73264 229.75664 232.22533 240.25783 245.19882 248.08783 250.51512 253.30963 258.38926 261.41325 263.88197 268.70597 271.14048 276.17149 278.18028 280.19627 282.64427 287.73915 292.46327 297.49787 300.51017 305.12989 307.28089 309.6992 314.71128 319.79179 322.81578 325.28358 330.10758 332.543 335.3375 340.4171 343.5914 348.6854 353.4104 358.4441 361.4564 366.1094 368.50883 373.115 377.8319 382.8269 385.26234 390.21055 394.55485 399.26005 402.28404 404.75276 407.64176 409.71446 414.71846 417.14488 421.85008 424.87406 427.34278 432.40977 437.08799 439.977 442.4043 447.4992 452.4942 457.1481 461.9721 464.40663 469.43763 471.4464 473.5524 476.7114 479.6004 482.02864 484.09144 489.15934 493.86454 498.83076 501.71977 503.88697 506.86598 508.76948 513.3757 518.0809 521.50808 524.39706">Gratanglaks skal m&#x00e5;le sine prestasjoner mot for &#x00e5; bli bedre. For &#x00e5; forbedre seg over tid er det ogs&#x00e5; blitt identifisert </tspan><tspan y="-232.50759" x="70.8661 78.8554 83.650608 86.40011 91.10621 94.25081 96.30281 100.99181 103.00961 105.061618 109.72002 111.90701 113.94821 118.92521 124.00121 126.04241 130.50733 135.30252 138.05652 143.13253 146.14482 150.85092 153.47623">materielle indikatorer.</tspan><tspan y="-109.531589" x="70.8661 75.9331 78.01389 82.71999 85.73229 90.38529 92.91519 97.65909 101.98809 104.61429 109.618289 111.62888 116.238689 120.84489 125.49789 128.02779 133.11728 141.12277 144.14678 148.97078 154.10169 158.80689 163.86849 168.52149 171.05228 174.07628 178.97948 184.03209 189.1225 194.20209 197.62929 200.3788 205.084 208.0972 212.7502 217.3042 219.88539 225.11978 227.25008 231.95618 236.99257 242.06856 247.15715 255.13115 257.68446 263.84046 269.70307 272.14839 274.29939 276.84819 282.5236 284.53959 287.1181 292.1401 296.99833 300.0223 302.62153 304.6375 307.21604 310.11946 312.12825 314.13795 316.21873 320.93565 325.98463 330.9796 333.54823 337.90153 342.72554 344.7802 349.8868 352.77583 355.33454 360.43666 363.32566 365.88438 370.60038 375.64399 380.7056 385.3586 387.88853 393.6323 399.1763 401.6306 406.33583 409.3598 411.959 413.975 416.5544 422.98405 428.06636 432.61585 436.88456 441.55558 443.61927 448.65837 453.45356 456.40016 461.22416 463.79008 468.33958 473.26258 478.02177 481.18077 483.93028 488.6085 491.4975 494.0553 496.9587 498.9684 500.9844 503.56294 511.5432 513.5529 515.577 517.7208 522.6933 524.4123">Flere av disse omr&#x00e5;dene rapporteres gjennom GRI. Vi har i tillegg valgt ut egne KPIer i N&#x00f8;kkeldata knyttet til milj&#x00f8;, </tspan><tspan y="-98.73158" x="70.8661 75.948398 80.220699 85.30119 90.3763 95.4658 103.4461 105.4621 107.64909 112.7719 117.7669 119.953899 124.579898 129.61989 134.1847 136.2007 141.0517 143.1334 147.7864 149.9734 152.74811 157.8277 161.002 166.08069 171.13869 173.20149 178.28829 180.43929 182.62628 188.19458 192.84758 195.03458 200.08267 204.75368 206.76969 208.95668 213.94269 216.12969 220.90599 225.23499 227.42198 230.44599 235.42119 240.4747 245.5642 250.64379 254.07099 256.8205 261.5266 266.62065">&#x00f8;konomi og sosiale forhold. Se del 1 av rapporten.</tspan><tspan y="-206.43459" x="70.8661 77.022098 80.0461 84.922298 87.8689 92.7271 97.7644 102.7594 104.7754 109.6786 114.07869 118.63269 120.81969 125.87229 130.73049 133.75449 135.94149 140.34339 145.16739 147.22209 152.32869 155.2177 157.4047 162.5158 165.4048 167.5918 170.5708 172.50852 175.52082 180.17382 182.36081 187.4305 195.43599 198.45999 203.284 208.4149 213.1201 216.1441 218.3311 222.84459 224.8606 227.04759 229.1581 233.875 238.924 243.99909 248.70519 251.72919 253.91619 258.6709 263.071 267.6862 270.6193 273.64329 278.4673 280.6543 285.0589 289.765 294.4909 297.3799 299.56694 304.6267 309.4147">Gratanglaks har valgt ut fire omr&#x00e5;der vi legger ekstra vekt p&#x00e5;:</tspan></text>
</g>
<g id="Layer-1" data-name="Span">
<text fill="#2b3b52" xml:space="preserve" transform="matrix(1 0 -0 1 0 841.89)" font-size="15" font-family="Roboto"><tspan y="-300.2298" x="70.8661 78.487598 86.944599 94.701099 101.2456 109.3276 117.8521 121.5871 131.94011 139.27512 147.21012 152.4331 160.15811 164.00562 172.18662 177.32112 181.05612 189.24913 196.58264 204.51764 209.78264 213.51764 220.85265 228.66164 236.39264 244.33963 252.75164 257.7766 261.55964 265.41465 273.9301 281.7811 285.5161 290.40913 298.34413 311.33113 319.4551 327.3901 332.65663">102-47 Oversikt over vesentlige temaer </tspan></text>
</g>
<g id="Layer-1" data-name="Span">
</g>
<g id="Layer-1" data-name="Span">
</g>
<g id="Layer-1" data-name="Span">
</g>
<g id="Layer-1" data-name="Span">
</g>
<g id="Layer-1" data-name="Span">
</g>
<text fill="#404041" xml:space="preserve" transform="matrix(1 0 -0 1 0 841.89)" font-size="9" font-family="Roboto"><tspan y="-188.2835" x="85.0394 89.49889 91.648097 93.8351 98.8994 100.8794 105.5054 109.7732 114.4793 119.5454 124.2173 126.1973 130.8305">1. Fiskehelse</tspan><tspan y="-170.1305" x="85.0394 90.1289 92.2799 94.466899 100.217899 105.275897 107.38459 111.65959 116.400798 119.289798 121.47679 126.578899 131.5739 133.7609 135.8714 140.95099 145.4159 150.2399 152.2505 156.8864 161.7527 169.6232 172.5842 177.62239 182.65969">2. Bolyst og lokalsamfunn</tspan><tspan y="-151.9775" x="85.0394 90.118999 92.27 94.45699 100.84789 105.51889 107.52949 112.13479 116.79769 118.51669 120.70369 128.68939 130.6982 132.7232 134.8661 139.8791 142.0661 147.1637 152.15869 154.34569 158.93029 160.94629 165.5228 169.7906 174.4967 177.671 182.7371 187.41532">3. Helse, milj&#x00f8; og sikkerhet</tspan><tspan y="-133.8245" x="85.0394 90.1334 92.2844 94.4714 99.5069 101.58859 106.29379 111.0197 113.9528 117.0974 119.25559 122.2346 124.13809 128.7434 133.4495 136.5941 138.6101 143.67531 148.6703 150.8573 153.6698 158.74939 161.77339 163.96039 168.7844 170.97139 174.0494 178.7735 183.80719 188.74819 193.42639 198.13159 201.14389 205.79689 207.98389 212.48479 214.49359 216.5438 224.5331 229.3706 234.4178 239.222 243.8327 248.3993 253.5014 256.3904 260.9561 262.96488 264.98088 270.06047 275.06175">4. Elektrifisering for &#x00e5; redusere klimagassutslipp.</tspan></text>
<text fill="#404041" xml:space="preserve" transform="matrix(1 0 -0 1 0 841.89)" font-size="7" font-family="Roboto"><tspan y="-29.016" x="431.9652 436.80223 440.83073 445.9197 449.9482 454.5542 458.5827 462.6217 466.6614 470.53733 472.28034 477.23426 481.82487 486.41548 489.87419 494.34437 498.80339 503.86018 506.0008 511.08979 515.92678 519.95529">GENERELLE OPPLYSNINGER</tspan></text>
<text fill="#404041" xml:space="preserve" transform="matrix(1 0 -0 1 0 841.89)" font-size="8" font-family="Roboto" font-weight="bold"><tspan y="-44.7402" x="515.2297 519.82168">61</tspan></text>
<g id="Layer-1" data-name="Artifact">
<clipPath id="cp635">
<path transform="matrix(1,0,0,-1,0,841.89)" d="M 0 0 L 595.276 0 L 595.276 841.89 L 0 841.89 Z "/>
</clipPath>
<g clip-path="url(#cp635)">
<path transform="matrix(1,0,0,-1,524.4094,802.3869)" stroke-width=".5" stroke-linecap="butt" stroke-miterlimit="4" stroke-linejoin="miter" fill="none" stroke="#404041" d="M 0 0 L -1048.819 0 "/>
</g>
<g id="Layer-1" data-name="Artifact">
<path transform="matrix(1,0,0,-1,-524.4094,39.3869)" stroke-width=".5" stroke-linecap="butt" stroke-miterlimit="4" stroke-linejoin="miter" fill="none" stroke="#404041" d="M 0 0 L 1048.819 0 "/>
</g>
</g>
</g>
</g>
</svg>
