<?xml version="1.0" encoding="UTF-8" standalone="no"?>
<!DOCTYPE svg PUBLIC "-//W3C//DTD SVG 1.1//EN" "http://www.w3.org/Graphics/SVG/1.1/DTD/svg11.dtd">
<svg xmlns="http://www.w3.org/2000/svg" xmlns:xlink="http://www.w3.org/1999/xlink" version="1.1" width="595.276pt" height="841.89pt" viewBox="0 0 595.276 841.89">
<g enable-background="new">
<g>
<g id="Layer-1" data-name="Artifact">
<clipPath id="cp606">
<path transform="matrix(1,0,0,-1,0,841.89)" d="M 0 0 L 595.276 0 L 595.276 841.89 L 0 841.89 Z "/>
</clipPath>
<g clip-path="url(#cp606)">
<g opacity=".149994">
<clipPath id="cp607">
<path transform="matrix(1,0,0,-1,0,841.89)" d="M 62.7795 605.449 L 532.496 605.449 L 532.496 637.526 L 62.7795 637.526 Z "/>
</clipPath>
<g clip-path="url(#cp607)">
<path transform="matrix(1,0,0,-1,0,841.89)" d="M 63.78 606.449 L 531.496 606.449 L 531.496 636.526 L 63.78 636.526 Z " fill="#949699"/>
</g>
</g>
</g>
<g id="Layer-1" data-name="Span">
</g>
<text fill="#404041" xml:space="preserve" transform="matrix(1 0 -0 1 0 841.89)" font-size="10" font-family="Roboto"><tspan y="-617.7375" x="94.3437 99.8837 105.7537 108.6337 115.0037 121.3737 123.8637 130.7137 137.4337 139.9237 142.80371 149.68572 155.55571 161.0957 167.8157 174.1757 176.90671 182.7767 188.3167">ETIKK OG INTEGRITET</tspan></text>
</g>
<g id="Layer-1" data-name="Artifact">
<clipPath id="cp608">
<path transform="matrix(1,0,0,-1,0,841.89)" d="M 0 0 L 595.276 0 L 595.276 841.89 L 0 841.89 Z "/>
</clipPath>
<g clip-path="url(#cp608)">
<path transform="matrix(1,0,0,-1,79.8798,229.74109)" d="M 0 0 C 4.978 0 9.014 4.181 9.014 9.338 C 9.014 14.496 4.978 18.677 0 18.677 C -4.978 18.677 -9.014 14.496 -9.014 9.338 C -9.014 4.181 -4.978 0 0 0 " fill="#ffffff"/>
</g>
<g id="Layer-1" data-name="Span">
</g>
<text fill="#404041" xml:space="preserve" transform="matrix(1 0 -0 1 0 841.89)" font-size="12" font-family="Roboto"><tspan y="-616.9875" x="76.1102">3</tspan></text>
</g>
<g id="Layer-1" data-name="Span">
</g>
<g id="Layer-1" data-name="Span">
<text fill="#2b3b52" xml:space="preserve" transform="matrix(1 0 -0 1 0 841.89)" font-size="15" font-family="Roboto"><tspan y="-560.776" x="70.8661 78.487598 86.944599 94.7011 99.787609 107.3386 115.8586 119.5936 128.47209 136.41309 141.58209 150.01959 153.8776 161.81859 166.44458 169.83458 173.56958 182.09409 187.33959 191.19458 199.60808 207.33309 211.18058 219.71108 228.22359 236.16309 240.79059 244.18059 247.91559 255.72759 260.83958 269.02357 277.54804 285.993 294.16804 299.33854 307.82853 315.76954 321.03456 324.76954 333.25953 341.7495 345.4845 353.96699 362.47499 367.7805 380.79447 388.73548 394.0005">102-16 Verdier, prinsipper, standarder og normer </tspan></text>
</g>
<g id="Layer-1" data-name="Span">
</g>
<g id="Layer-1" data-name="Span">
</g>
<g id="Layer-1" data-name="Span">
</g>
<g id="Layer-1" data-name="Span">
</g>
<g id="Layer-1" data-name="Span">
</g>
<g id="Layer-1" data-name="Span">
</g>
<g id="Layer-1" data-name="Span">
</g>
<g id="Layer-1" data-name="Span">
</g>
<g id="Layer-1" data-name="Span">
</g>
<g id="Layer-1" data-name="Span">
</g>
<g id="Layer-1" data-name="Span">
</g>
<g id="Layer-1" data-name="Span">
</g>
<g id="Layer-1" data-name="Span">
</g>
<g id="Layer-1" data-name="Span">
</g>
<text fill="#404041" xml:space="preserve" transform="matrix(1 0 -0 1 0 841.89)" font-size="9" font-family="Roboto"><tspan y="-536.2538" x="70.8661 77.022098 80.0461 84.922298 87.8689 92.7271 97.7644 102.7594 104.7754 109.6786 114.07869 118.63269 122.31369 127.98099 133.30899 137.06468 142.08577 146.94397 149.96797 153.66696 158.37216 163.31316 167.03376 172.12235 179.99285 182.83866 187.63387 190.79378 193.54329 198.24849 203.29479 208.36179 213.01479 216.64449 218.66049 223.65279 226.4023 231.1075 234.2827 239.31909 243.5914 248.67099 253.63719 256.57029 259.59428 264.65138 266.66108 268.67707 272.35539 275.1526 277.5664 283.35249 286.28648 289.8694 294.96339 299.95838 303.625 308.3374 312.68983 317.51383 319.52354 321.62864 324.37815 329.05546 331.94447 336.55516 341.17033 344.33473 348.841 351.9856 354.0016 359.0659 364.06089 368.61488 372.88987 377.67607 380.42466 385.13978 393.11378 396.76689 399.628 405.17829 410.44419 413.37818 416.9611 421.57087 426.6595 434.63349 438.2866 442.9927 446.0167 449.7157 452.6047 454.6207 456.6745 461.9098 464.0401 468.74623 473.78355 478.85954 483.53056 485.54026 487.59407 492.58906 496.25477 499.04927 504.12977 507.15376 510.85276 515.67678 517.68557 519.76638 524.4194">Gratanglaks AS har en omfattende internkontroll (IK) og kvalitetsstyringsystem (KS) som er tilgjengelig for alle </tspan><tspan y="-525.4538" x="70.8661 75.4759 80.5645 88.5385 91.085498 93.22839 98.30889 103.36149 108.45639 113.16159 116.18559 118.77759 123.85719 128.89719 133.45119 136.02518 142.18119 145.20519 150.08139 153.028 157.8862 162.9244 167.91939 169.9354 174.8386 179.2387 183.7927 186.36669 192.03488 197.56899 199.71999 202.26158 204.67539 210.35439 212.76099 217.10439 221.81049 226.53639 229.4398 231.52062 236.23752 241.28652 246.3616 251.0677 254.0917 256.68284 261.39616 265.74858 270.57258 272.58229 274.68739 277.4369 282.1142 285.0032 289.6139 294.17958 296.19557 300.77207 303.91667 305.93266 310.99696 315.99195 318.55067 323.29457 327.62358 330.24168 335.3087 339.9797 341.9894 346.59559 351.25849 352.97749 355.52449 363.50569 365.51448 367.53947 369.68238 374.79978 379.478 382.367 384.9176 388.1009 393.1391 398.1854 403.2839 406.1729 408.7235 413.81843 418.81343 421.37214 425.9378 427.9538 432.5303 436.7981 441.5042 444.6785 449.7446 454.42283 457.17143 461.87754 466.81855 469.43125 472.33467 474.34346 476.35945 478.93345 484.00135 488.70655 493.64756 496.26026 500.96546 506.00279 510.27058 514.9416 517.0476 519.79708 524.4501">som jobber hos Gratanglaks AS. IK vektlegger kvalitetssikring av helse, milj&#x00f8;et rundt og sikkerheten til den enkelte </tspan><tspan y="-514.6538" x="70.8661 75.7243 78.8986 83.9935 88.6645 90.728199 95.7952 100.5004 103.1257 105.2767 107.5627 109.976497 115.655498 117.80649 122.51169 125.53569 127.866687 132.96068 137.95568 142.60958 147.43358 149.73308 154.08638 158.94458 161.96858 164.29958 168.86528 170.88129 175.4578 179.7256 184.4317 187.606 192.6721 197.34941 200.23842 202.53342 205.32793 210.40752 213.43152 215.76251 220.55773 223.44673 225.74173 227.83603 232.78423 237.12853 241.83373 244.85773 247.18872 252.28272 257.2777 259.58174 262.5949 267.3109 272.3059 274.4047 279.1099 282.13389 284.4649 292.5001 297.2242 302.2282 304.52323 309.58934 314.29545 319.27787 323.83186 328.36604 333.30705 335.66505 338.56846 340.57725 342.59324 344.90626 349.95976 352.98374 358.06877 363.10246 368.14067 372.54078 377.09477 379.23768 384.31819 389.2592 391.6172 396.64729 398.65699 400.67298 403.69697 406.05497 409.01597 414.02449 416.07917 421.18577 424.17558 426.32658 428.61259 431.0174 435.9836 438.7322 443.43833 446.6126 451.64903 455.9222 461.00184 465.96714 468.90025 471.92424 476.98225 478.99104 481.00703 483.32005 488.02616 491.05015 493.38117 498.08729 503.0283 505.3863 508.1808 513.2604 516.44369 524.41769">arbeider. IK er ogs&#x00e5; v&#x00e5;r sikkerhet for at lover og regler med hensyn til produksjon blir fulgt. Internkontroll er en form </tspan><tspan y="-503.85383" x="70.8661 73.6606 78.7402 81.7642 85.076198 89.78859 94.14189 98.96589 100.974689 103.08068 105.82928 110.50748 113.39648 118.00628 122.57198 124.58798 129.16449 132.3091 134.3251 139.3903 144.3853 147.6703 152.41422 156.74321 160.0822 166.4722 171.1441 173.15381 177.76001 182.42292 184.1419 187.4089 195.3901 197.39891 199.42392 201.56682 206.57982 209.84682 214.94081 219.9358 223.22081 227.78562 229.80162 234.37813 238.64594 243.35114 246.52544 251.59244 256.26976 259.15876 263.77665 267.57286 272.43107 275.60536 280.70024 285.37126 287.43495 292.50193 297.17924 300.06825 303.34425 308.39595 313.21995 316.50495 321.36317 324.53746 329.63145 334.30335 336.36616 341.37016 345.97004 351.00013 353.0161 357.84733 362.4571 367.06327 371.76847 376.86338 379.01438 382.28138 388.43739 391.46138 396.33757 399.28416 404.14237 409.1797 414.17469 416.19068 421.09388 425.494 430.04798 433.34199 438.3631 443.2213 446.2453 449.5573 454.1923 458.9875 462.1474 465.0364 468.31153 474.67906 482.49827 487.82627 491.19679 495.80656 500.89518 508.86918 512.13619 516.48947 521.3476 524.3716">for kvalitetssikring av Helse, milj&#x00f8; og sikkerhets-arbeidet p&#x00e5; arbeidsplassen. Gratanglaks har satt HMS som v&#x00e5;r </tspan><tspan y="-493.05384" x="70.8661 75.9448 80.9056 85.266109 89.919109 94.53431 97.282909 101.935909 105.310909 110.3644 113.509 115.6024 120.6829 123.8275 125.9326 128.68212 133.36032 136.35013 138.50113 141.89412 147.44443 152.77243 156.27342 160.97863 164.00263 167.44602 172.15842 176.51172 181.33573 183.34453 185.45053 188.19915 192.87735 195.76636 200.37616 204.94187 206.95787 211.53438 214.67899 216.69499 221.7602 226.75519 230.16619 234.9101 239.23909 242.70409 247.78278 252.74358 257.0186 260.5376 265.6316 270.6266 274.0376 277.1822 279.19819 283.95109 286.8545 288.9083 293.9033 297.3143 302.0267 306.38 311.204 313.2128 315.3188 318.0683 322.7456 325.6346 329.03663 334.0892 338.9132 342.32423 347.3768 350.4008 355.4867 360.5195 365.5577 370.2836 373.0331 377.73924 380.7632 384.20124 389.29615 394.29115 397.70216 400.59117 402.72148 407.42668 412.48918 417.14219 421.75736 424.50688 429.21208 431.86256 433.58155 436.98088 441.61677 446.48307 454.40037 457.28938 460.69139 465.74488 468.76887 473.80888 478.41505 483.06806 487.67784 492.284 496.9901 502.05174 506.70475 510.07975 515.1323 519.9905 524.40048">h&#x00f8;yeste prioritet. KS er kvalitetssikring av h&#x00f8;y og riktig kvalitet p&#x00e5; produkter og tjenester, samt prosessene bak </tspan><tspan y="-482.25386" x="70.8661 75.870098 77.88069 82.491397 87.097599 91.71729 93.86829 96.76629 101.672199 106.6204 110.9647 115.6699 118.6939 121.636898 126.730899 131.72589 134.64189 137.4364 142.51599 145.62279 150.22269 154.77219 157.9168 159.9751 163.18001 165.92862 170.63472 173.65872 176.60172 181.15122 184.16352 188.80751 193.15091 197.85701 200.88101 203.824 208.61922 211.50823 214.41522 219.48313 224.16043 227.04944 229.95644 234.66254 237.68654 240.62953 242.64554 247.70894 252.62833 255.42284 260.50517 263.93235 266.82136 269.72746 272.14216 277.82115 280.58415 285.63584 290.45985 293.37495 298.23316 301.40745 306.50233 311.17335 313.23704 318.24104 322.8409 327.871 329.887 334.7182 339.3289 343.93418 348.6403 351.66429 354.6073 356.6233 359.5483 365.97883 371.05845 374.07075 379.14674 383.80876 385.52775 388.42576 396.46095 401.16615 406.14945 410.70344 413.62846 419.17875 424.50675 427.51277 432.21888 435.24287 438.18589 441.13789 444.28248 446.37498 450.839 452.8487 454.85749 456.8672 458.921 464.0159 466.1669 469.0649 474.5072 479.54634 484.59175 489.65873 494.31175 497.08824 502.16786 505.34214 510.42176 515.4788 517.5416 522.6708 524.3898">disse. Lover og forskrifter krever at det er innf&#x00f8;rt IK p&#x00e5; arbeidsplasser i Norge, mens KS er frivillig. Kundeforhold, </tspan><tspan y="-471.45387" x="70.8661 75.4723 80.1775 83.6047 86.508098 88.66629 91.645298 93.54879 98.15409 102.86019 106.00479 108.02079 113.08509 118.160198 122.866298 125.8903 128.0773 132.7978 134.80751 136.88832 141.59442 144.61843 146.80542 151.71222 156.75852 161.7922 164.8045 169.4575 171.6445 174.4192 179.4997 182.683 190.7173 195.4225 198.4465 200.6335 203.473 208.5535 211.5775 213.7645 218.44899 223.31529 231.3046 236.1628 239.3371 244.43199 249.103 251.1667 256.17073 258.35774 262.82984 267.68806 272.62907 274.81608 279.71028 281.71907 283.72877 285.74476 290.04048 294.6836 299.0279 303.6989 305.7149 307.90193 312.5369 317.21513 320.3741 323.12364 327.77665 329.96366 334.49696 337.52095 342.30986 346.63887 348.82588 351.80488 353.81459 355.83058 358.01759 363.59666 368.92466 371.11167 376.2957 381.3357 385.88969 388.0767 393.20219 397.9263 402.96 406.10548 408.16288 411.36778 414.11729 418.82249 421.44776">sertifiseringer eller andre former for samarbeid kan allikevel sette krav til KS hos bedrifter.</tspan><tspan y="-449.85386" x="70.8661 77.022098 80.0461 84.922298 87.8689 92.7271 97.7644 102.7594 104.7754 109.6786 114.07869 118.63269 121.29129 126.34479 129.52809 134.56629 138.83409 143.54019 146.5642 149.24079 153.95319 158.30649 163.1305 165.1393 167.2453 169.99481 174.67212 177.56113 182.17183 186.72583 191.00083 195.76903 198.51764 203.23274 211.26705 215.94525 218.83426 221.47035 226.46985 232.70955 238.24456 240.39556 243.02265 248.03385 253.11434 256.29765 264.28694 269.11094 271.19264 275.86994 278.75895 281.39506 289.43025 294.15437 299.15837 301.79359 306.50599 310.8584 315.6824 317.6921 319.7972 322.54673 327.22496 330.11396 334.72373 339.2894 341.3054 345.8819 349.0265 351.04249 356.1077 361.1027 365.73139 370.28538 374.56037 379.32856 382.07807 386.79228 394.82746 399.50477 402.39378 405.02989 409.736 412.75999 415.43659 420.1427 425.0837 427.78105 432.05424 437.13386 442.09916 445.00257 447.01856 451.95957 457.13008 461.83619 464.98078 466.98957 469.04426 474.03926 476.68348 481.7631 486.8166 491.8809 496.91999 501.71519 504.4647 509.1708 512.3154 514.3314 519.3966 524.3916">Gratanglaks bruker kvalitetssystemet EQS. Form&#x00e5;let med kvalitetssikringssystemet er en kontinuerlig oppdatering </tspan><tspan y="-439.05387" x="70.8661 75.60999 79.938999 83.079998 87.56199 92.60019 97.63749 102.61989 107.21979 111.68469 116.54289 121.636898 126.342998 131.284 134.41959 137.3086 139.3246 141.3406 144.4366 148.789 153.6472 157.0744 159.96341 163.03691 168.13182 172.83702 175.94382 180.55362 185.63411 190.69571 195.36672 197.37642 199.50763 201.22663 204.29563 208.86133 210.87014 212.88614 217.29615 220.40114 225.19635 228.08536 231.15976 235.98377 237.99347 240.07428 244.72728 247.77288 252.28008 254.41037 259.1165 264.1529 269.2154 273.9206 276.94459 280.0586 284.62339 286.63938 291.728 296.381 299.42665 304.28486 307.45915 312.55403 317.22505 319.28874 324.29273 328.9025 333.98213 339.0356 344.0909 349.1381 353.882 358.2263 362.9315 365.95549 369.0695 371.08549 374.1815 379.23408 382.25807 387.34309 392.37678 397.41499 401.8151 406.36909 408.512 413.5925 418.6541 423.36024 428.30125 431.43595 436.52546 441.61048 446.70988 449.69969 451.85069 454.9152 457.9842 463.6596 465.6756 468.7716 473.8521 478.93174 483.41374 488.46183 496.49613 501.20225 506.16755 508.91706 513.62228 516.6345 521.34066 524.3646">av kunnskapen til v&#x00e5;rt personell, slik at alle kjenner sine arbeidsoppgaver i produksjonen godt.  Vi dokumenterer </tspan><tspan y="-428.25389" x="70.8661 75.7765 80.1334 85.213 88.237 93.2761 98.1343 103.0753 105.9823 110.446308 112.4623 115.3243 117.4672 122.5477 127.600299 132.6952 137.4004 140.0509 141.7699 144.61209 149.70699 154.70198 157.55498 162.46628 166.82227 171.90276 174.92676 179.96585 184.82405 189.76505 192.67205 197.49605 199.60115 202.49016 205.33415 210.40116 215.10636 220.14455 225.21964 229.92574 232.94974 235.83603 240.47193 245.33823 253.35182 261.38703 266.09223 271.18626 273.33726 276.17317 281.84858 283.86457 286.72657 291.19059 293.2003 295.21629 298.07829 303.31269 305.44389 310.14909 315.11439 318.06098 322.88499 325.73799 330.80497 335.48228 338.37129 341.2153 345.8242 350.9137 358.8877 361.72813 366.328 370.7929 375.65113 380.746 385.4512 388.4752 391.3615 396.45103 401.53605 406.60395 411.25697 414.07398 417.08628 421.7393 426.30589 431.3144 433.42039 436.3661 441.1613 443.9108 448.6169 451.2674 452.9864 455.8286 460.9226 465.9176 468.7706 473.80973 478.84614 483.88346 488.93156 493.75556 496.60856 501.43257 504.28556 509.52085 511.66377 516.74606 519.7583 524.4113">hvordan vi jobber, og hvordan alt henger sammen. Vi vil gjenta det som skaper gode resultater, og unng&#x00e5; &#x00e5; gj&#x00f8;re </tspan><tspan y="-417.4539" x="70.8661 75.9331 80.5861 84.24819 88.884098 93.75039 101.763988 109.79919 114.45219 118.11338 120.89529 125.567188 127.57598 129.65769 134.36289 139.42539 144.07839 147.74048 150.83379 152.9146 157.6207 160.633 165.286 168.94809 173.99529 178.85349 183.89078 188.96677 193.67197 196.29727 198.44828 202.12928 207.78397 209.79367 211.87448 216.52748 220.18958 225.27008 230.34967 234.83168 239.87888 247.91408 252.61928 257.58549 260.33409 265.0402 268.06419 271.79469 276.40446 281.49397 289.46797 293.15257 295.23426 299.95027 305.00016 310.07527 314.72828 319.28227 322.99479 325.01078 330.07508 335.01609 338.7673 340.7833 344.49403 349.49354 355.73414 361.22233 365.02214 369.5761 373.8511 378.61839 381.3679 386.083 394.1173 398.79463 401.83573 403.55473 407.24205 411.70695 416.56517 421.50617 425.2574 430.0769 435.17903 437.933 443.02165 451.01094 455.80613 458.70954 460.72013 465.31913 469.72914 473.42366 478.02983 482.73503 487.7813 492.8483 497.5013 502.0553 505.76783 510.86994 513.7589 517.4489 520.3523 522.3611 524.3771">de samme feilene flere ganger. Alle dokumenter som legges inn i EQS-systemet, kan automatisk sendes ut til </tspan><tspan y="-406.6539" x="70.8661 75.690097 77.69889 79.78059 84.433589 87.48008 90.49238 95.164279 97.24507 101.88907 106.24147 111.09967 116.06587 118.81447 123.46747 126.51846 134.55277 139.27777 144.31687 149.17507 152.34937 157.44426 162.11527 164.17897 169.24597 173.95117 176.96347 181.62638 183.34537 186.41437 191.02417 196.11277 204.08676 207.15576 215.14507 219.96907 223.05156 227.61727 229.67107 234.71466 239.77626 244.48236 247.49466 252.14766 255.19416 259.98936 262.87837 265.95729 271.02427 275.67729 278.7238 283.7449 288.604 291.628 294.742 296.8237 301.4767 306.0919 308.9809 312.0589 317.1529 322.1479 325.2304 328.0249 333.1054 336.2122 340.82649 343.77308 348.56828 351.72819 354.6172 357.6952 359.71119 364.7746 369.81193 374.89064 379.94865 382.01145 387.07936 391.75666 394.74647 396.89747 399.96647 406.11976 410.79707 413.95698 416.70649 421.3595 424.406 428.97169 430.98768 435.56419 438.57737 443.28257 446.30656 449.42057 452.21507 457.29469 460.31867 465.22187 470.2592 474.8087 477.95329 479.96928 485.0345 490.02949 493.112 498.1907 503.2307 507.7847 510.8807 515.7047 517.7144 519.7952 524.44827">alle relevante medarbeidere, som m&#x00e5; signere at de har lest og forst&#x00e5;tt innholdet. Dette sikrer forankring hos alle </tspan><tspan y="-395.8539" x="70.8661 75.7243 80.706699 85.3426 90.137798 93.29769 96.04719 100.666889 102.81789 105.46388 110.47598 115.55648 118.58048 121.27148 126.33848 131.04459 135.98558 138.70359 141.4522 146.1583 150.7078 155.7154 157.726 162.3259 166.5937 171.2467 173.8747 178.4404 180.5041 185.5711 190.2772 195.2182 197.9362 202.68102 207.01001 209.72801 214.78153 217.80553 222.89052 227.92421 232.9624 237.3625 241.9165 244.0594 249.1399 254.20149 258.9076 263.8486 266.56663 271.27275 274.29673 276.98774 282.05564 286.73295 289.62196 292.27696 296.89125 304.80946 307.83345 312.90043 317.57234 319.6531 324.30613 328.8601 331.5331 335.99714 338.01313 342.76603 345.66944 347.72325 352.71824 355.38136 360.20536 362.86936 367.89137 372.71537 375.37937 379.89918 381.91517 386.80036 389.81266 394.46568 397.0937 402.14628 405.17027 410.21028 414.81645 419.54145 424.64356 429.15077 432.16307 436.86827 439.51875 441.23774 443.88377 446.67826 451.75788 454.78187 457.47288 462.29689 464.96089 469.99909 475.0364 480.07374 485.1209 489.94493 492.60893 495.3908 500.06184 502.07154 504.08753 506.76054 511.36943 516.4589 524.4329">ansatte. For den tekniske siden av produksjonen er det s&#x00e6;rdeles viktig &#x00e5; ha klare prosedyrer, for &#x00e5; unng&#x00e5; feil som </tspan><tspan y="-385.05393" x="70.8661 75.33099 80.18919 85.130199 87.783397 92.88819 97.95609 102.62709 104.708789 109.42479 114.47379 119.5498 124.2028 126.76599 131.81859 134.84259 139.92758 144.96128 149.99947 154.39957 158.95357 161.09737 166.17696 171.23856 175.94466 181.03865 183.18965 185.77175 190.77124 197.01184 202.44335 205.02724 210.04833 214.90653 217.93053 220.56302 222.57903 225.19083 228.07984 230.09584 232.10465 234.18636 238.90326 243.95226 248.94725 251.54645 256.22377 259.11277 261.7039 266.7934 271.87843 276.97694 279.86595 282.45707 284.47306 289.53648 294.47749 299.40769 302.58198 307.67597 312.34788 314.41069 319.47859 324.15589 327.0449 329.63603 334.3799 339.11393 343.57795 345.59394 350.02104 354.63893 357.21293 361.00193 366.09684 371.09184 373.69105 376.83564 378.84535 383.411 385.427 389.7272 394.6754 399.17723 404.21635 407.24034 412.3073 417.01344 420.15803 422.174 427.23924 432.36024 436.16004 440.71403 444.989 449.7572 452.5058 457.22093 465.28764 467.43864 470.02076 472.41477 475.03919 477.9426 479.9523 481.9611 484.0428 488.7588 493.8087 498.80369 501.4029 506.1081 509.13209 511.7637 516.8316 521.5089 524.3979">kan &#x00f8;delegge produksjonen. EQS har i tillegg et godt innarbeidet avviks- og risikovurdering-system. I tillegg er det </tspan><tspan y="-374.25395" x="70.8661 75.415599 80.3395 85.0978 88.2577 91.007198 95.684497 98.573497 100.76049 103.64949 105.67719 107.69319 109.88019 114.58719 117.47619 119.663188 124.750888 129.80438 134.83448 136.86939 144.78668 147.93129 149.9473 155.0116 160.00659 164.6353 169.1893 173.4643 178.2316 180.98111 185.69622 193.78902 195.50801 197.695 202.31021 207.3988 215.3728 217.5598 222.64299 227.72348 232.20549 237.25269 245.28789 249.99309 254.95839 257.7079 262.414 265.4263 270.1315 273.1555 275.3425 280.216 282.2248 284.3065 288.9595 291.1465 295.98493 300.96736 305.60325 310.39845 313.55836 316.30787 320.96089 325.51487 327.70188 332.813 337.86558 342.89659 344.93058 352.8488 355.99339 358.00938 363.0746 368.2118 369.9308 372.1178 376.3955 381.48503 389.4905 394.5845 399.26274 402.20845 407.06666 412.04997 416.65614 421.30915 423.49617 428.57038 433.56538 435.75239 440.25059 445.2897 448.39649 453.06117">knyttet til et oppl&#x00e6;ringssystem, som dokumenterer alle ansattes oppl&#x00e6;ring, kompetanse og kurs.</tspan></text>
<g id="Layer-1" data-name="Artifact">
<clipPath id="cp609">
<path transform="matrix(1,0,0,-1,0,841.89)" d="M 0 0 L 595.276 0 L 595.276 841.89 L 0 841.89 Z "/>
</clipPath>
<g clip-path="url(#cp609)">
<g opacity=".149994">
<clipPath id="cp610">
<path transform="matrix(1,0,0,-1,0,841.89)" d="M 62.7795 308.004 L 532.496 308.004 L 532.496 340.081 L 62.7795 340.081 Z "/>
</clipPath>
<g clip-path="url(#cp610)">
<path transform="matrix(1,0,0,-1,0,841.89)" d="M 63.78 309.004 L 531.496 309.004 L 531.496 339.081 L 63.78 339.081 Z " fill="#949699"/>
</g>
</g>
</g>
<g id="Layer-1" data-name="Span">
</g>
<text fill="#404041" xml:space="preserve" transform="matrix(1 0 -0 1 0 841.89)" font-size="10" font-family="Roboto"><tspan y="-320.2923" x="94.3437 99.8837 106.733699 113.0937 118.6337 123.9627 130.3127 136.6827 142.83269 148.98268 154.91968 161.26969 167.62969 170.50969 177.5597">FORETAKSSTYRING</tspan></text>
</g>
<g id="Layer-1" data-name="Artifact">
<clipPath id="cp611">
<path transform="matrix(1,0,0,-1,0,841.89)" d="M 0 0 L 595.276 0 L 595.276 841.89 L 0 841.89 Z "/>
</clipPath>
<g clip-path="url(#cp611)">
<path transform="matrix(1,0,0,-1,79.8798,527.1864)" d="M 0 0 C 4.978 0 9.014 4.181 9.014 9.338 C 9.014 14.496 4.978 18.677 0 18.677 C -4.978 18.677 -9.014 14.496 -9.014 9.338 C -9.014 4.181 -4.978 0 0 0 " fill="#ffffff"/>
</g>
<g id="Layer-1" data-name="Span">
</g>
<text fill="#404041" xml:space="preserve" transform="matrix(1 0 -0 1 0 841.89)" font-size="12" font-family="Roboto"><tspan y="-320.1287" x="76.1102">4</tspan></text>
</g>
<g id="Layer-1" data-name="Span">
</g>
<g id="Layer-1" data-name="Span">
<text fill="#2b3b52" xml:space="preserve" transform="matrix(1 0 -0 1 0 841.89)" font-size="15" font-family="Roboto"><tspan y="-263.3307" x="70.8661 78.487598 86.944599 94.7011 99.787609 107.3191 115.839099 119.5741 127.6906 136.19861 141.34511 149.21862 154.33061 162.50562 170.13762 177.88663 185.70464 191.13314 198.79813 204.04363 207.89862 216.37664 224.86664 228.60164 238.96665 242.70165 250.52565 255.58516 260.90415 269.42414 277.60664 282.63465 291.15614 296.42115 300.15614 308.64613 317.1361 320.8711 328.64109 336.8176 349.86759 362.88157 370.83006 379.24354 386.97303 394.84504 399.91206 408.36906 412.22407 420.70207 429.19206">102-18 Foretaksstyring &#x2013; struktur og sammensetning </tspan></text>
</g>
<g id="Layer-1" data-name="Span">
</g>
<g id="Layer-1" data-name="Span">
</g>
<g id="Layer-1" data-name="Span">
</g>
<text fill="#404041" xml:space="preserve" transform="matrix(1 0 -0 1 0 841.89)" font-size="9" font-family="Roboto"><tspan y="-238.8084" x="70.8661 77.022098 80.0461 84.922298 87.8689 92.7271 97.7644 102.7594 104.7754 109.6786 114.07869 118.63269 121.36689 127.00359 131.55759 134.29178 139.31377 144.17197 147.19597 149.94817 154.62638 157.51538 160.22438 164.83959 168.004 172.51029 175.52259 180.17559 182.85758 190.89278 195.61688 200.62088 203.33528 208.04048 212.98148 215.75438 220.36959 223.534 228.04029 231.05258 235.72449 237.8053 242.5303 247.5973 252.3034 255.32741 258.0796 263.1745 268.1695 270.8875 273.6415 278.68153 281.35453 285.9697 289.1341 293.6413 296.6536 301.3678 309.4021 314.1271 319.1311 321.2128 325.927 333.9415 341.9758 346.681 349.30628 351.45729 354.1573 356.5513 359.29634 364.36064 369.46723 374.53153 379.51753 382.22474 387.31874 391.97175 396.58604 399.34004 404.38005 407.05305 411.6682 414.8326 419.3389 422.3512 427.02943 429.91844 432.62745 437.37135 441.70036 444.47956 449.09474 452.25914 456.7654 459.7777 464.44963 466.5304 471.2554 476.3224 481.0285 484.0525 486.8047 492.472 495.2215 499.8934 501.9094 506.8504 509.6494 512.1145 516.4678 521.3259 524.3499">Gratanglaks As har et styre med en styreleder og to styremedlemmer. I 2020 besto styret av styreleder Stein Ivar </tspan><tspan y="-228.00839" x="70.8661 76.5505 81.5158 84.2698 89.349399 94.332698 98.938899 103.6441 108.766 110.485 113.8042 118.4194 121.5829 126.0901 129.1024 133.8166 141.8518 146.57592 151.57991 153.66072 158.37583 166.34983 169.66722 175.88443 180.55544 182.57144 185.59545 188.98574 193.89073 198.92893 203.97522 209.00891 214.1038 218.809 221.8213 226.8163 230.1463 235.2403 240.23529 243.56529 248.1805 251.34401 255.8512 258.8635 263.5777 271.61289 276.337 281.341 283.42179 288.1369 296.2216 299.43009 304.46919 309.30668 314.30168 316.32847 318.38227 323.37727 326.70729 328.78898 333.5131 338.58009 343.2862 346.31019 349.6735 354.3625 359.4421 362.4544 367.10743 370.40144 375.30644 380.34465 385.39094 390.42463 395.51863 400.22474 403.23704 408.33103 410.48204 413.79405 419.33265 424.37535 432.35655 434.37254 439.40806 441.41777 446.03294 448.96604 451.99003 456.83924 461.39323 463.53614 468.61576 473.67826 478.38346 483.32447 486.70848 491.80247 496.45549 501.06977 504.01637 508.87458 511.89857 515.26187 520.00576 524.3347">Antonsen, styremedlem Geir Lundberg og styremedlem/daglig leder Tore Lundberg. Administrasjonen best&#x00e5;r av </tspan><tspan y="-217.20839" x="70.8661 75.5443 78.688899 80.704898 85.794399 90.447399 92.98719 97.8922 102.9304 107.9767 113.0104 118.1053 122.8105 125.8228 130.95999 132.67899 135.24039 140.23088 145.31047 148.49468 153.53287 158.56926 163.51026 166.13735 171.88025 176.58545 180.01265 182.76216 187.43407 189.44377 194.04998 198.75518 203.87706 205.59606 208.15746 215.99916 221.07875 226.08725 228.17977 232.90476 237.72876 240.30095 245.42195 247.57295 250.12895 255.03395 260.07215 265.11845 270.15214 275.24613 279.95225 282.96455 288.10176 289.82075 292.38307 300.22477 305.30439 310.31199 312.40538 317.1295 321.9535 324.5257 329.5621 331.6258 336.69279 341.5276 345.3931 351.7831 356.48924 359.67253 367.6618 372.52003 377.50245 382.1086 386.81474 391.93574 393.65473 396.21614 402.57826 407.43647 412.4738 417.5354 422.18843 424.72554 429.63053 434.66874 439.71415 444.74876 449.84275 454.54887 457.56117 462.69837 464.41737 466.97877 473.34178 478.08567 482.43809 487.2963 490.32029 495.32429 497.8884 504.2784 506.2521 508.2618 512.868 517.5732 522.69509 524.41409">Trine Lundberg, Jorunn Bertelsen, Monica E. Lundberg, Monica Eide-Hermansen, Hanne Lundberg, H&#x00e5;vard Nilsen, </tspan><tspan y="-206.40839" x="70.8661 75.7504 78.762699 83.48679 88.53669 93.63879 97.91379 100.100788 106.59338 111.41198 116.45648 121.532489 126.237689 131.35958 133.07857 135.26557 141.62766 146.48586 151.46915 156.02315 158.21015 163.96654 167.11115 169.12085 173.73606 176.63947 178.65547 183.54068 188.48168 190.66867 196.35578 198.45908 203.31728 206.49158 210.75939 215.41239 217.59938 222.67357 227.66857 229.85556 234.93607 236.95207 242.01548 246.95647 249.14347 254.20417 259.28379 264.3049 269.16313 274.14643 278.7517 283.45783 288.39884 290.58586 295.26585 300.35447 308.32847 310.51548 313.53138 318.2483 323.291 328.2743 332.8733 337.3382 342.1964 347.1824 351.7769 354.57139 359.6537 362.666 367.3712 369.99647">Freddy Haugen, Hans Kristian Bjarke og Finn Johansen som regnskapsf&#x00f8;rer.</tspan></text>
<g id="Layer-1" data-name="Artifact">
<clipPath id="cp612">
<path transform="matrix(1,0,0,-1,0,841.89)" d="M 0 0 L 595.276 0 L 595.276 841.89 L 0 841.89 Z "/>
</clipPath>
<g clip-path="url(#cp612)">
<g opacity=".149994">
<clipPath id="cp613">
<path transform="matrix(1,0,0,-1,0,841.89)" d="M 62.7795 739.947 L 532.496 739.947 L 532.496 772.024 L 62.7795 772.024 Z "/>
</clipPath>
<g clip-path="url(#cp613)">
<path transform="matrix(1,0,0,-1,0,841.89)" d="M 63.78 740.947 L 531.496 740.947 L 531.496 771.02407 L 63.78 771.02407 Z " fill="#949699"/>
</g>
</g>
</g>
<g id="Layer-1" data-name="Span">
</g>
<text fill="#404041" xml:space="preserve" transform="matrix(1 0 -0 1 0 841.89)" font-size="10" font-family="Roboto"><tspan y="-752.2352" x="94.3437 100.4937 106.3637 112.7237 118.6357 124.5057 130.0457 136.7657">STRATEGI</tspan></text>
</g>
<g id="Layer-1" data-name="Artifact">
<clipPath id="cp614">
<path transform="matrix(1,0,0,-1,0,841.89)" d="M 0 0 L 595.276 0 L 595.276 841.89 L 0 841.89 Z "/>
</clipPath>
<g clip-path="url(#cp614)">
<path transform="matrix(1,0,0,-1,79.8798,95.24353)" d="M 0 0 C 4.978 0 9.014 4.181 9.014 9.338 C 9.014 14.496 4.978 18.677 0 18.677 C -4.978 18.677 -9.014 14.496 -9.014 9.338 C -9.014 4.181 -4.978 0 0 0 " fill="#ffffff"/>
</g>
<g id="Layer-1" data-name="Span">
</g>
<text fill="#404041" xml:space="preserve" transform="matrix(1 0 -0 1 0 841.89)" font-size="12" font-family="Roboto"><tspan y="-752.0716" x="76.1102">2</tspan></text>
</g>
<g id="Layer-1" data-name="Span">
</g>
<text fill="#2b3b52" xml:space="preserve" transform="matrix(1 0 -0 1 0 841.89)" font-size="15" font-family="Roboto"><tspan y="-695.2736" x="70.8661 78.487598 86.944599 94.7011 99.787609 107.3116 115.831607 119.566608 127.8406 133.1446 141.06311 144.8686 157.97711 163.22261 167.07611 175.55562 184.04563 187.78063 192.83113 197.99263 206.15264 209.88764 217.61714 225.50864 229.28713 237.08713 244.85413 253.02913 261.54164 269.41514 274.46565 282.26564 286.0006 294.1906 301.5241 309.46513 314.68815 322.50614 327.39915 335.24415 338.97914 342.84315 350.76316 359.25315 367.14466 370.92466 378.65415">102-14 Erkl&#x00e6;ring fra selskapets &#x00f8;verste ledelse</tspan></text>
<path transform="matrix(1,0,0,-1,305.7995,171.52539)" stroke-width=".523" stroke-linecap="butt" stroke-miterlimit="10" stroke-linejoin="miter" fill="none" stroke="#1e5e9e" d="M 0 0 L 23.63 0 "/>
<g id="Layer-1" data-name="Span">
</g>
<g id="Layer-1" data-name="Span">
<text fill="#404041" xml:space="preserve" transform="matrix(1 0 -0 1 0 841.89)" font-size="9" font-family="Ebrima"><tspan y="-671.1469" x="70.8661 75.7441 80.4502 82.91621 88.26761 92.961109 98.28641 100.4959 102.7405 108.0406 110.50661 112.778209 117.6472 123.0274 127.851398 131.23268 135.05138 137.51737 142.34137 145.61197 150.25057 152.47986 160.08486 163.35636 165.56946 170.78046 176.08055 178.54654 183.67024 188.88124 194.26145 199.08545 202.21384 204.67984 209.24915 215.73184 220.05454 225.40775 228.91774 231.81485 237.16896 240.29735 242.76334 248.13904 255.74404 259.00205 263.82606 268.46556 271.68846 276.31086 279.53736 282.44618 286.35847 290.91157 293.37757 298.75416 303.33335">Se daglig leders erkl&#x00e6;ring under &#x00ab;Hvorfor b&#x00e6;rekraft?&#x00bb; p&#x00e5; </tspan></text>
</g>
<g id="Layer-1" data-name="Span">
<text fill="#1e5e9e" xml:space="preserve" transform="matrix(1 0 -0 1 0 841.89)" font-size="9" font-family="Ebrima"><tspan y="-671.1469" x="305.79936 309.65406 311.89866 317.27885 321.98585 324.45185">side 4</tspan></text>
</g>
<g id="Layer-1" data-name="Span">
</g>
<g id="Layer-1" data-name="Span">
</g>
<text fill="#404041" xml:space="preserve" transform="matrix(1 0 -0 1 0 841.89)" font-size="9" font-family="Ebrima"><tspan y="-671.1469" x="329.4271">.</tspan></text>
<text fill="#404041" xml:space="preserve" transform="matrix(1 0 -0 1 0 841.89)" font-size="7" font-family="Roboto"><tspan y="-29.016" x="431.9652 436.80223 440.83073 445.9197 449.9482 454.5542 458.5827 462.6217 466.6614 470.53733 472.28034 477.23426 481.82487 486.41548 489.87419 494.34437 498.80339 503.86018 506.0008 511.08979 515.92678 519.95529">GENERELLE OPPLYSNINGER</tspan></text>
<text fill="#404041" xml:space="preserve" transform="matrix(1 0 -0 1 0 841.89)" font-size="8" font-family="Roboto" font-weight="bold"><tspan y="-44.7402" x="515.2297 519.82168">59</tspan></text>
<g id="Layer-1" data-name="Artifact">
<clipPath id="cp615">
<path transform="matrix(1,0,0,-1,0,841.89)" d="M 0 0 L 595.276 0 L 595.276 841.89 L 0 841.89 Z "/>
</clipPath>
<g clip-path="url(#cp615)">
<path transform="matrix(1,0,0,-1,524.4094,802.3869)" stroke-width=".5" stroke-linecap="butt" stroke-miterlimit="4" stroke-linejoin="miter" fill="none" stroke="#404041" d="M 0 0 L -1048.819 0 "/>
</g>
<g id="Layer-1" data-name="Span">
</g>
<text fill="#404041" xml:space="preserve" transform="matrix(1 0 -0 1 0 841.89)" font-size="5" font-family="Roboto" font-weight="bold"><tspan y="-805.9686" x="403.742 407.072 410.257 413.222 415.8245 419.0045 422.5345 425.86448 428.68849 431.86848 435.05348 438.14347 439.38847 442.56846">GRATANGLAKS AS</tspan></text>
</g>
<g id="Layer-1" data-name="Span">
</g>
<g id="Layer-1" data-name="Span">
<text fill="#595959" xml:space="preserve" transform="matrix(1 0 -0 1 0 841.89)" font-size="5" font-family="Roboto"><tspan y="-805.9686" x="452.0188 455.3038 460.1488 463.3988 466.4088 469.7138 472.9638 476.3938 479.3768 482.4918 485.6268 488.8768 492.3068 495.6318 498.95683 502.5668 505.6203">B&#x00c6;REKRAFTSRAPPORT</tspan></text>
</g>
<text fill="#404041" xml:space="preserve" transform="matrix(1 0 -0 1 0 841.89)" font-size="5" font-family="Roboto" font-weight="bold"><tspan y="-805.9686" x="512.5638 515.4338 518.3038 521.17379">2020</tspan></text>
<g id="Layer-1" data-name="Artifact">
<clipPath id="cp616">
<path transform="matrix(1,0,0,-1,0,841.89)" d="M 0 0 L 595.276 0 L 595.276 841.89 L 0 841.89 Z "/>
</clipPath>
<g clip-path="url(#cp616)">
<path transform="matrix(1,0,0,-1,-524.4094,39.3869)" stroke-width=".5" stroke-linecap="butt" stroke-miterlimit="4" stroke-linejoin="miter" fill="none" stroke="#404041" d="M 0 0 L 1048.819 0 "/>
</g>
</g>
</g>
</g>
</svg>
