<?xml version="1.0" encoding="UTF-8" standalone="no"?>
<!DOCTYPE svg PUBLIC "-//W3C//DTD SVG 1.1//EN" "http://www.w3.org/Graphics/SVG/1.1/DTD/svg11.dtd">
<svg xmlns="http://www.w3.org/2000/svg" xmlns:xlink="http://www.w3.org/1999/xlink" version="1.1" width="595.276pt" height="841.89pt" viewBox="0 0 595.276 841.89">
<g enable-background="new">
<g id="Layer-1" data-name="Span">
</g>
<g id="Layer-1" data-name="Span">
</g>
<g id="Layer-1" data-name="Span">
</g>
<g id="Layer-1" data-name="Span">
</g>
<g id="Layer-1" data-name="Span">
</g>
<g id="Layer-1" data-name="Span">
</g>
<g id="Layer-1" data-name="Span">
</g>
<g id="Layer-1" data-name="Span">
</g>
<g id="Layer-1" data-name="Span">
</g>
<g id="Layer-1" data-name="Span">
</g>
<g id="Layer-1" data-name="Span">
</g>
<g id="Layer-1" data-name="Span">
</g>
<g id="Layer-1" data-name="Span">
</g>
<g id="Layer-1" data-name="Span">
</g>
<g id="Layer-1" data-name="Span">
</g>
<g id="Layer-1" data-name="Span">
</g>
<g id="Layer-1" data-name="Span">
</g>
<g id="Layer-1" data-name="Span">
</g>
<g id="Layer-1" data-name="Span">
</g>
<g id="Layer-1" data-name="Span">
</g>
<text fill="#404041" xml:space="preserve" transform="matrix(1 0 -0 1 0 841.89)" font-size="24" font-family="Roboto"><tspan y="-753.024" x="70.866 85.458 98.322 111.21 124.098 136.962 149.85 163.026 175.386 183.138 195.162 208.386 220.194 232.554 238.026 250.05 262.41">Bunnunders&#x00f8;kelser</tspan></text>
<text fill="#404041" xml:space="preserve" transform="matrix(1 0 -0 1 0 841.89)" font-size="9" font-family="Roboto"><tspan y="-732.576" x="70.866 76.391 81.520999 89.690998 93.19199 97.935 102.965999 106.549999 109.618999 114.722 116.828 121.913 126.656009 130.124 134.984 139.351 142.955 147.698 152.198 156.842 161.342 164.45 169.193 177.25699 181.99999 187.03099 190.01 194.75299 197.854 201.45601 206.58602 211.67102 215.19202 218.26102 223.39102 226.50502 231.14902 236.22502 238.33103 240.43703 242.54303 244.35204 247.945 252.589 254.695 256.801 261.87699 266.95298 271.69599 274.81 278.502 283.578 286.683 291.81303 296.907 301.93803 306.43803 311.08204 313.22404 318.35404 323.38505 328.12806 333.152 336.94 341.971 344.95 348.561 353.592 361.29603 364.41004 366.51603 371.54704 376.63203 381.27604 385.92005 390.83406 392.94004 395.91905 400.66206 403.77607 407.954 410.855 415.931 419.045 421.151 429.215 436.919 440.53804 444.026 447.563 452.594 454.69999 457.679 460.865 465.995 471.08 475.823 480.925 484.503 489.633 494.718 498.24">Som en f&#x00f8;lge av ekskrementer og f&#x00f4;rspill, slipper produksjonen ut n&#x00e6;ringssalter (prim&#x00e6;rt nitrogen og f</tspan><tspan y="-732.5756" x="501.3091 506.43913 511.08314 514.1521 519.2821 522.3961 525.0971">osfor) </tspan><tspan y="-718.5716" x="70.86612 75.51012 80.640117 88.70412 90.903118 95.54711 99.91211 104.94311 109.5891 114.33211 117.446109 119.67411 124.70511 129.4481 134.5421 136.80509 139.78409 141.89009 143.9961 146.25809 151.33409 156.3651 161.3961 166.42711 171.1701 176.20111 178.44211 180.9381 187.4401 189.5461 192.5251 195.6021 200.7361 205.8211 210.5641 215.59511 217.8401 222.97011 228.05512 230.24611 233.31511 238.44512 243.08911 246.15811 251.28812 254.40212 256.4401 261.1831 264.29713 266.52314 271.59913 273.7051 275.9461 280.8601 283.1011 285.3731 290.4041 298.10813 301.22215 303.32814 308.35914 313.44413 316.15815 319.22715 324.35716 327.47117 329.59916 334.67515 336.78114 341.69514 346.72615 351.22615 354.20515 359.33515 364.36616 366.77427 371.90428 376.98927 379.17927 384.30928 387.36329 392.44828 397.36228 402.39329 404.49928 409.14329 417.20729 421.9503 424.7203 426.5293 428.73033 433.37434 438.50434 446.56834 448.76835 453.41236 458.48835 460.59434 465.23835 469.98136 473.09538 475.4315 479.8675 484.6105 489.7045 491.8945 496.8085 499.02754 502.09654 504.2025 506.3085 509.2875 512.1545 516.89749 519.96249 524.5894">som synker ned til bunnen. Nitrogen og fosfor er bl.a. n&#x00e6;ring for plankton og organismer, som spiser ved &#x00e5; filtrere </tspan><tspan y="-704.56759" x="70.866107 75.293109 80.20711 85.238109 90.269107 92.518108 95.9111 100.8601 105.9901 108.905109 112.15011 117.18111 122.2841 126.7931 131.6701 134.8871 139.3871 144.5171 149.54811 154.19211 158.9351 163.96611 166.94512 170.05912 174.97312 179.61711 181.75911 186.88912 191.92012 196.66312 199.77712 203.3851 208.2451 212.6121 215.9161 221.0101 223.1161 227.7601 232.4041 237.1471 240.44911 245.09311 248.07212 253.20212 256.27113 259.06614 263.80915 268.84016 273.58317 275.12513 278.39213 282.89213 287.80613 292.83714 296.1671 301.2611 306.00413 309.11814 317.18214 321.92515 327.01914 330.27613 333.34513 338.47514 341.58915 346.23316 349.21217 353.57716 356.69117 359.90818 364.76213 367.97813 373.0721 377.81513 382.84614 386.1401 391.1711 396.0851 399.06413 404.09513 407.20915 409.31513 411.4211 416.5061 421.2491 424.7491 429.8251 434.7391 436.8451 441.7591 446.7901 451.4341 456.17713 461.20814 464.68113 466.7871 470.04515 475.14814 479.64814 484.77815 489.42216 493.78715 498.43116 501.41017 506.15318 514.21719 518.96017 521.93917 524.23019">vann. For h&#x00f8;ye konsentrasjoner av disse stoffene, kan dermed forstyrre den naturlige balansen i &#x00f8;kosystemet. </tspan><tspan y="-690.56356" x="70.86615 77.04915 81.44815 86.191158 89.40515 92.47415 97.60415 100.71815 102.82415 107.85515 112.94015 115.21715 120.320148 124.78614 129.52915 132.64315 134.92014 137.98914 142.90314 145.93914 150.68213 155.71314 157.99013 161.05913 166.18914 169.30313 171.58013 176.67412 181.58812 184.70212 186.80812 188.91413 193.99913 198.74213 201.93212 206.67511 208.9521 214.0281 219.05912 224.09012 229.12113 232.19013 237.32013 240.43413 245.46514 250.59514 252.70114 257.79515 260.17515">Overf&#x00f4;ring &#x00f8;ker faren for d&#x00e5;rligere bunnforhold. </tspan><tspan y="-662.5645" x="70.86615 78.74115 80.84715 82.953159 85.09515 90.19815 95.274158 100.260158 104.67915 106.78516 109.899158 114.399158 119.43015 121.536159 126.567157 131.65216 136.39516 141.42617 146.24915 153.40114 156.47014 159.58414 164.49814 171.24814 176.16214 178.26815 180.37415 185.11714 191.94814 196.97914 201.91014">Milj&#x00f8;p&#x00e5;virkningene fra alle hav</tspan><tspan y="-662.5646" x="206.3271 211.4031 214.5171 219.54811 224.04811 228.69211 233.60611 238.63712 240.74312 245.48612 250.57112 255.6761 262.8391 267.48313 269.62513 274.36814 278.86814 283.37913 288.12214 292.77613 299.56214 304.20616 308.57115 313.21516 316.19416 320.93717 329.00117 333.91517 336.89418 339.00016 343.64418 348.14418 355.18113 360.2661 362.4081 367.15113 372.18214 377.21315 382.34315 390.40715 397.3731 399.4791 404.5401 408.9591 414.0351 418.9491 421.05509 425.9691 431.05409 434.03309 438.7011 445.6561 450.7321 455.7631 460.7941 465.8251 470.8561 475.88713 480.9811 485.72413 488.83815 493.48216 498.58515 503.45616 508.19917 510.30516 514.94918 519.69216 522.3362 524.4832">bruksanlegg sjekkes systematisk gjennom lovp&#x00e5;lagte bunnunders&#x00f8;kelser. </tspan><tspan y="-648.56057" x="70.86609 76.85109 78.95709 83.60109 88.24509 92.98809 97.24409 102.275089 105.25409">Disse utf</tspan><tspan y="-648.5606" x="108.3291 113.4321 116.5051 121.2481 125.8431 129.8851 134.7451 139.1121 143.2171 148.1311 152.6311 157.1311 160.2451 164.9881 170.08209 172.1881 175.1671 179.9101 183.15909 186.13809 191.0001 195.02411 199.7671 204.2671 208.9111 211.8901 216.6331 219.7471 224.7781 229.5211 233.66011 238.30411 243.0471 245.1531 249.7971 254.2971 259.2111 264.28709 268.4361 270.54209 274.60209 279.6331 284.3761 289.4071 294.4381 299.5681 301.6741 306.7681 311.00608 313.98509 316.09107 318.19706 322.29209 328.7721 334.2591 336.9231 341.99909 347.07508 352.15107 357.3021 362.5321 367.17613 370.15513 375.06913 380.10014 385.19413 390.10813 393.34324 398.43724 403.18025 408.21125 410.5621 414.66313 420.4681 425.21113 429.85514 434.88615 436.99214 439.97114 444.88514 447.86415 452.60716 457.63816 462.38117 466.74513 469.85914 474.82914 479.90513 484.9811 490.1111 493.37815 496.35716 501.10017 504.17219 508.9152 513.5211 517.56216 520.54116 522.64718 524.72817">&#x00f8;res av akkrediterte eksterne selskap i henhold til NS-9410 standarden. Resultatene rapporteres til </tspan><tspan y="-634.5566" x="70.86612 76.02312 78.12912 82.77312 87.139118 91.88212 94.99612 97.10212 102.19612 104.302127 107.47412 112.217128 116.717128 119.69612 124.82612 127.94012 132.85411 135.83312 140.57611 143.55512 145.84712 149.65012 152.17511 155.24411 160.3471 162.45311 167.53812 172.31311 176.0211 182.48311 187.2971 191.8471 194.9161 200.04611 203.16011 207.80411 212.30411 217.33512 219.44112 224.47212 229.55713 234.20113 236.30713 241.33814 245.98213 248.96114 251.06714 254.04615 259.07716 262.05616 265.03517 269.77818 272.9171 277.0791 279.9791 285.0731 289.8161 294.4601 296.63713 300.4241 305.5001 310.57609 313.60008 317.2921 322.3681 327.2821 331.92613 336.66914 339.96217 343.1191 346.8891 351.9651 356.8791 360.6891 365.78309 370.5261 375.5571 379.3831 381.48908 386.5511 390.9701 396.04609 400.96009 403.06608 407.98008 413.06507 416.04408 420.7111 424.65409 427.7681 432.6821 437.7581 442.83409 447.96409 451.2941 454.2731 459.0161 462.13014 464.2361 469.26713 474.3521 479.09513 484.12614 486.15809 490.1211 494.5401 499.5711 502.79814 507.89213 512.63516 515.70919 520.45217 525.02218">Fiskeridirektoratet. If&#x00f8;lge Havforskningsinstituttet (des. 19) basert p&#x00e5; den lovp&#x00e5;lagte rapporteringen, vurderes </tspan><tspan y="-620.55258" x="70.86609 73.84509 75.951099 78.0571 82.701099 85.6801 90.5941 95.6251 100.7191 105.462108 110.4931 116.32509 119.30409 121.410099 123.5161 129.15909 134.23509 136.3411 141.44409 144.4231 149.4991 154.5301 159.56111 164.59212 169.23612 171.34212 176.47212 180.97212 185.88613 187.99213 190.09813 193.07714 197.82013 200.79914 205.54213 208.65613 214.67609 219.59009 225.18909 229.6081 237.31209 240.74509 245.79808 251.36309 256.4481 261.5781 266.6721 272.25309 274.35908 279.9651 284.8791 286.98509 289.09107 293.83409 299.46809 304.54408 307.64808">tilstanden til bl&#x00f8;tbunnslokaliteter &#x00e5; v&#x00e6;re god i alle pro</tspan><tspan y="-620.5526" x="312.7801 317.87409 322.9051 327.4051 332.0491 334.1911 339.3211 344.3521 348.99613 354.12614 362.19013 365.30415 370.21815 375.31214 380.05516 383.1631 389.0391 391.14509 396.7521 403.1911 408.3211 411.37614 416.46113 421.20414 423.3731 428.9631 434.7681 436.87409 441.5181 443.62409 448.12409 453.2541 459.0501 462.1191 467.2491 470.36314 475.87013 480.90113 485.81513 490.31513 494.95915 499.70216 504.77815 507.75715 512.67117 517.74716 519.85317 524.6961">duksjonsomr&#x00e5;der i Norge. Risiko for uakseptable </tspan><tspan y="-606.5486" x="70.86612 78.93012 81.036128 83.14213 85.28413 90.38713 95.463138 100.475139 104.894138 107.00014 110.114139 114.614139 119.645137 121.75114 126.782138 131.86714 136.61014 139.72414 142.00113 147.07714 151.99114 154.26813 159.35314 162.46714 167.49814 172.52915 177.56015 179.83715 185.39015 189.80916 192.08615 197.16216 202.07616 205.43315 208.41216 210.51816 215.01816 220.04917 222.15517 229.85916 233.52216 236.50116 238.77816 243.90816 246.97216 252.05716 256.97117 262.00218 264.10816 268.75218 273.25218 275.52919 280.56019 283.53919 288.1832 290.28919 292.39518 297.47117 302.54716 304.35615 306.63316 311.37617 314.49018 316.76719 318.87318 324.17219 328.1963">milj&#x00f8;p&#x00e5;virkninger p&#x00e5; grunn av partikul&#x00e6;rt organisk utslipp, er lav.</tspan><tspan y="-578.54959" x="70.86612 76.63512 81.54912 84.66312 89.57712 94.07712 97.05612 101.799129 104.913127 109.55712 113.92212 118.56612 121.54512 126.288127 134.35213 139.09513 142.07413 145.69112 148.67012 150.77613 152.88213 156.41112 164.47512 166.58112 168.68712 170.82912 175.93212 180.96312 185.99413 191.08812 195.83112 198.94512 203.58911 208.69211 213.44512 218.18811 220.29412 224.93811 229.6811 234.71212 239.71213 243.25212 248.28313 253.19713 256.31114 259.91114 265.00514 267.1111 270.22514 274.96815 279.46815 282.44715 287.19017 290.63615 292.74214 297.77314 302.80415 307.22315 309.32914 312.44316 316.94316 321.97416 324.08015 329.11116 334.19615 338.17414 343.25013 348.16413 351.67414 356.75013 359.85414 364.98414 370.07814 375.10914 379.60914 384.25315 386.39515 391.52516 396.55616 401.20018 405.70018 410.61418 415.69017 420.60417 425.24818 427.35417 430.33317 435.07618 438.05519 442.7982 447.82414 451.69615 454.67515 456.78114 458.88713 462.41514 464.52113 469.65113 474.15113 479.06513 481.1711 483.2771 486.2561 490.9991 493.97813 498.72114 503.75215 505.99314 509.59315 515.00619 519.74917 524.73818">Karaktersystemet til milj&#x00f8;unders&#x00f8;kelsene har direkte innvirkning p&#x00e5; produksjonskapasiteten til lokaliteten. Ved </tspan><tspan y="-564.54556" x="70.86615 75.36615 80.28015 83.39415 88.30815 92.80815 95.787158 100.53016 103.64416 105.92116 110.90916 112.96116 118.091159 123.176158 125.22015 130.29616 132.34925 137.09224 140.20624 142.28623 147.38022 152.12322 155.10222 157.1542 159.26021 164.29122 169.37622 174.11922 179.15023 181.37422 186.45923 189.57323 194.60424 199.63524 204.66625 206.99834 209.97734 212.08335 214.18935 216.30434 221.21834 223.28833 226.35733 231.48734 234.61544 239.05234 243.79534 248.82634 251.80535 256.54835 258.64634 263.67735 268.42036 273.50535 278.41935 281.39836 283.50434 287.92335 290.17436 295.25035 300.13734 304.55635 306.66233 309.77635 314.27635 319.30735 321.41334 326.44435 331.52934 333.77033 336.16535 341.57835 346.32136 351.41535 353.45835 357.95835 362.87236 365.98637 370.90037 375.40037 378.37937 383.12239 386.2364 388.5134 393.50239 395.55439 400.2974 403.4114 405.49043 410.5844 415.32743 418.30644 420.35945 425.43544 430.32255 434.74156 436.84754 441.49156 444.47056 446.65748 451.40049 456.4315 458.53849 462.9575 465.06349 469.7075 474.3515 476.55653 479.62553">karakter 1 og 2 er det ingen grunn til &#x00e5; forvente negativ p&#x00e5;virkning. Ved karakter 3 er det p&#x00e5;vist en viss fo</tspan><tspan y="-564.5456" x="484.7591 487.8731 492.9041 495.9861 500.72914 505.76014 510.40415 512.51016 517.54116 522.62619 524.5512">rurensing, </tspan><tspan y="-550.54159" x="70.86609 75.996089 81.081089 83.92209 89.01609 93.759098 96.7381 99.5891 104.0081 106.114109 108.787097 111.76109 113.867099 118.367099 122.8231 127.5661 130.3981 134.81711 142.5211 145.9541 150.6971 153.5291 161.5931 166.6241 168.7301 170.8361 176.46909 179.45809 184.37209 187.24008 190.30908 195.22309 198.00109 203.10408 207.52408 212.26708 215.09908 220.17508 223.28018 228.41019 233.50418 238.53519 243.03519 247.67919 249.82118 254.95119 259.98219 264.7252 269.7371 272.8421 275.7431 283.4681 288.93113 294.53813 296.3471 299.2431 307.3071 312.2211 316.7211 321.3651 323.4711 331.5351 336.5401 338.6461 341.5231 344.5021 346.6081 348.71409 350.82008 355.73408 358.71308 362.3071 365.2741 370.3501 372.4561 377.5861 385.6501 390.5641 395.2081 399.8521 404.59513 407.6191 410.47813 415.5541 420.4681 423.36424 425.4702 430.60023 435.10023 440.01423 442.1202 444.2262 447.2052 451.9482 454.92723 459.67024 465.3171 468.3021 473.4321 478.5171 481.3591 485.7781 487.8841 490.8341 498.8981 503.8121 506.6801 511.7651 513.9071 519.01016 522.18319 526.81118">og det vil ikke v&#x00e6;re mulig &#x00e5; f&#x00e5; &#x00f8;ke produksjonen (MTB, maksimal tillatt biomasse) p&#x00e5; lokaliteten og vi m&#x00e5; gj&#x00f8;re </tspan><tspan y="-536.53756" x="70.86609 75.89709 80.262088 85.33809 90.41409 92.520099 97.605098 102.3481 105.70809 110.451099 112.728099 117.759098 122.79009 127.884098 132.62709 135.74109 140.38509 145.48809 150.09809 154.84108 156.94709 161.59108 166.33408 169.44808 171.72507 174.79407">hyppigere unders&#x00f8;kelser fo</tspan><tspan y="-536.5376" x="179.9261 183.0401 185.3171 190.2311 192.50809 195.57709 200.68009 202.78609 207.8711 212.61409 214.89109 220.02109 225.09709 230.1731 232.45009 235.4291 237.5351 239.6411 244.2851 247.2641 252.1781 257.2091 262.3031 267.0461 272.07713 274.44914 276.81913">r &#x00e5; f&#x00f8;lge opp tilstanden.  </tspan></text>
<text fill="#404041" xml:space="preserve" transform="matrix(1 0 -0 1 0 841.89)" font-size="9" font-family="Roboto"><tspan y="-508.5386" x="70.866107 73.4041 75.7211 80.8641 86.0041 91.1401 96.2881 98.6061 103.655109 108.641109 111.77311 114.09511 118.54111 120.81811 123.13511 126.168109 131.2971 134.33011 139.31612 141.59311 144.62612 146.94812 150.05913 154.91913 162.89313 165.21514 170.26413 175.32213 180.48813 185.34813 188.48014 193.21413 198.39813 203.05113 207.81813 210.09513 214.82912 219.68912 222.2521 224.10611 226.42311 231.1571 236.3771 244.3511 246.6681 251.65412 253.9311 256.2081 261.0681 263.3901 267.83613 270.11314 274.84715 279.70716 282.83915 285.15614 290.29515 295.51515 300.68116 305.54115 307.86314 310.91813 315.77815 320.51216 325.56117 327.83818 330.87117 335.85716 338.89015 343.75013 346.8821 349.2041 357.1781 362.0381 367.2041 369.5261 374.2601 379.0571 384.2771 387.33198 392.19197 394.51396 399.65296 404.63896 406.95695 412.10496 414.42295 419.64295 424.78196 427.09895 432.24696">I 2020 har vi totalt fem unders&#x00f8;kelser, som alle viser gode resultater med score p&#x00e5; 1 og 2.</tspan></text>
<text fill="#404041" xml:space="preserve" transform="matrix(1 0 -0 1 0 841.89)" font-size="9" font-family="Roboto"><tspan y="-508.5386" x="434.70396"> </tspan></text>
<text fill="#404041" xml:space="preserve" transform="matrix(1 0 -0 1 0 841.89)" font-size="10" font-family="Roboto"><tspan y="-307.6463" x="160.3222 165.9422 171.0522 179.7822 185.0822 190.6922 195.9922 199.2622 201.7422 207.3522 213.0522">1.Meget god</tspan><tspan y="-307.8263" x="249.0722 254.6922 259.80223 266.6122 272.31224 317.8822 323.5022 328.6122 335.1722 340.6122 343.99223 346.4222 348.8522">2.God3.D&#x00e5;rlig</tspan><tspan y="-307.6463" x="387.8922 393.5122 398.62223 407.35224 412.65223 418.2622 423.5622 426.83219 429.3122 434.9522 440.3922 443.77223 446.2022 448.6322">4.Meget d&#x00e5;rlig</tspan></text>
<g id="Layer-1" data-name="Artifact">
<path transform="matrix(1,0,0,-1,0,841.89)" d="M 141.052 305.623 L 152.898 305.623 L 152.898 317.529 L 141.052 317.529 Z " fill="#0f7b7a"/>
</g>
<g id="Layer-1" data-name="Artifact">
<path transform="matrix(1,0,0,-1,0,841.89)" d="M 229.801 305.623 L 241.64699 305.623 L 241.64699 317.529 L 229.801 317.529 Z " fill="#5cbe7d"/>
</g>
<g id="Layer-1" data-name="Artifact">
<path transform="matrix(1,0,0,-1,0,841.89)" d="M 298.611 305.623 L 310.457 305.623 L 310.457 317.529 L 298.611 317.529 Z " fill="#f1bc20"/>
</g>
<g id="Layer-1" data-name="Artifact">
<path transform="matrix(1,0,0,-1,0,841.89)" d="M 368.621 305.444 L 380.467 305.444 L 380.467 317.35 L 368.621 317.35 Z " fill="#f05455"/>
</g>
<g id="Layer-1" data-name="Span">
</g>
<g id="Layer-1" data-name="Span">
</g>
<g id="Layer-1" data-name="Span">
</g>
<g id="Layer-1" data-name="Span">
</g>
<g id="Layer-1" data-name="Span">
</g>
<text fill="#404041" xml:space="preserve" transform="matrix(1 0 -0 1 0 841.89)" font-size="7" font-family="Roboto" font-weight="bold"><tspan y="-350.3374" x="70.8661 75.551898 79.6441 82.2222 86.124 88.099399 89.96909 91.71209 95.83439 99.94129 104.045398 107.89469 110.507099 114.2325 118.3401 122.10261 125.93161 127.91961 131.6443 135.4936">Antall unders&#x00f8;kelser</tspan></text>
<text fill="#404041" xml:space="preserve" transform="matrix(1 0 -0 1 0 841.89)" font-size="10" font-family="Roboto" font-weight="bold"><tspan y="-381.7213" x="142.7685 148.51749 154.00649 159.22948 238.57849 244.32749 249.81649 255.06649 334.3885 340.13749 345.62648 350.83647 430.1985 435.9485 441.7945 447.5445">2017201820192020</tspan></text>
<g id="Layer-1" data-name="Artifact">
<clipPath id="cp371">
<path transform="matrix(1,0,0,-1,0,841.89)" d="M 0 0 L 595.276 0 L 595.276 841.89 L 0 841.89 Z "/>
</clipPath>
<g clip-path="url(#cp371)">
<path transform="matrix(1,0,0,-1,249.6333,374.29533)" d="M 0 0 C -19.155 0 -34.677 -15.522 -34.677 -34.677 C -34.677 -53.826 -19.155 -69.353 0 -69.353 C 19.149 -69.353 34.677 -53.826 34.677 -34.677 C 34.677 -15.522 19.149 0 0 0 M 0 -59.196 C -13.543 -59.196 -24.519 -48.22 -24.519 -34.677 C -24.519 -21.133 -13.543 -10.157 0 -10.157 C 13.543 -10.157 24.519 -21.133 24.519 -34.677 C 24.519 -48.22 13.543 -59.196 0 -59.196 " fill="#0f7b7a"/>
</g>
<g id="Layer-1" data-name="Artifact">
<path transform="matrix(1,0,0,-1,380.2748,408.97453)" d="M 0 0 C 0 -19.149 -15.527 -34.677 -34.682 -34.677 C -53.831 -34.677 -69.358 -19.149 -69.358 0 C -69.358 19.155 -53.831 34.682 -34.682 34.682 L -34.682 24.525 C -48.225 24.525 -59.201 13.543 -59.201 0 C -59.201 -13.543 -48.225 -24.519 -34.682 -24.519 C -21.139 -24.519 -10.157 -13.543 -10.157 0 Z " fill="#0f7b7a"/>
</g>
<g id="Layer-1" data-name="Artifact">
<path transform="matrix(1,0,0,-1,380.2748,408.97453)" d="M 0 0 L -10.157 0 C -10.157 13.543 -21.139 24.525 -34.682 24.525 L -34.682 34.682 C -15.527 34.682 0 19.155 0 0 " fill="#f1bc20"/>
</g>
<g id="Layer-1" data-name="Artifact">
<path transform="matrix(1,0,0,-1,183.7076,426.2713)" d="M 0 0 C -9.569 -16.578 -30.768 -22.254 -47.34 -12.685 C -63.918 -3.116 -69.599 18.078 -60.025 34.655 C -53.651 45.693 -42.761 51.983 -30.013 51.983 L -30.013 41.832 C -43.548 41.832 -54.522 30.863 -54.522 17.328 C -54.522 3.793 -43.548 -7.177 -30.013 -7.177 C -20.942 -7.177 -13.026 -2.251 -8.787 5.073 Z " fill="#0f7b7a"/>
</g>
<g id="Layer-1" data-name="Artifact">
<path transform="matrix(1,0,0,-1,188.3503,408.9436)" d="M 0 0 C 0 -6.374 -1.458 -11.809 -4.643 -17.328 L -13.43 -12.255 C -11.347 -8.651 -10.151 -4.464 -10.151 0 C -10.151 13.535 -21.121 24.504 -34.655 24.504 L -34.655 34.655 C -15.518 34.655 0 19.138 0 0 " fill="#5cbe7d"/>
</g>
<g id="Layer-1" data-name="Span">
</g>
<text fill="#404041" xml:space="preserve" transform="matrix(1 0 -0 1 0 841.89)" font-size="8" font-family="Roboto" font-weight="bold"><tspan y="-349.9624" x="151.3694">2</tspan></text>
</g>
<g id="Layer-1" data-name="Span">
</g>
<g id="Layer-1" data-name="Span">
</g>
<g id="Layer-1" data-name="Span">
</g>
<g id="Layer-1" data-name="Span">
</g>
<g id="Layer-1" data-name="Span">
</g>
<text fill="#404041" xml:space="preserve" transform="matrix(1 0 -0 1 0 841.89)" font-size="8" font-family="Roboto" font-weight="bold"><tspan y="-349.9624" x="247.4202 342.9882 439.2602">485</tspan></text>
<text fill="#404041" xml:space="preserve" transform="matrix(1 0 -0 1 0 841.89)" font-size="7" font-family="Roboto"><tspan y="-29.016" x="453.0613 458.16993 463.13435 467.83766 472.54026 476.56877 480.10099 483.93559 488.59199 492.63169 496.4957 498.2387 501.3467 503.08973 509.30503 511.44563 515.5875 519.61398">N&#x00d8;KKELTALL - MILJ&#x00d8;</tspan></text>
<text fill="#404041" xml:space="preserve" transform="matrix(1 0 -0 1 0 841.89)" font-size="8" font-family="Roboto" font-weight="bold"><tspan y="-44.7402" x="515.2297 519.82168">29</tspan></text>
<g id="Layer-1" data-name="Artifact">
<clipPath id="cp372">
<path transform="matrix(1,0,0,-1,0,841.89)" d="M 0 0 L 595.276 0 L 595.276 841.89 L 0 841.89 Z "/>
</clipPath>
<g clip-path="url(#cp372)">
<path transform="matrix(1,0,0,-1,-524.4094,801.8869)" stroke-width=".5" stroke-linecap="butt" stroke-miterlimit="4" stroke-linejoin="miter" fill="none" stroke="#404041" d="M 0 0 L 1048.819 0 "/>
</g>
<g id="Layer-1" data-name="Artifact">
<path transform="matrix(1,0,0,-1,-524.4094,39.3869)" stroke-width=".5" stroke-linecap="butt" stroke-miterlimit="4" stroke-linejoin="miter" fill="none" stroke="#404041" d="M 0 0 L 1048.819 0 "/>
</g>
<g id="Layer-1" data-name="Artifact">
<path transform="matrix(1,0,0,-1,461.9454,437.02574)" d="M 0 0 C -15.491 -11.26 -37.18 -7.821 -48.435 7.669 C -59.694 23.165 -56.256 44.855 -40.766 56.109 C -34.566 60.613 -28.041 62.734 -20.383 62.734 L -20.383 52.577 C -33.926 52.577 -44.902 41.595 -44.902 28.057 C -44.902 14.514 -33.926 3.533 -20.383 3.533 C -14.997 3.533 -10.016 5.27 -5.968 8.215 Z " fill="#5cbe7d"/>
</g>
<g id="Layer-1" data-name="Artifact">
<path transform="matrix(1,0,0,-1,476.2444,408.9684)" d="M 0 0 C 0 -11.496 -5.003 -21.301 -14.299 -28.057 L -20.267 -19.842 C -14.142 -15.386 -10.157 -8.157 -10.157 0 C -10.157 13.538 -21.139 24.519 -34.682 24.519 L -34.682 34.677 C -15.527 34.677 0 19.149 0 0 " fill="#0f7b7a"/>
</g>
<g id="Layer-1" data-name="Span">
</g>
<text fill="#404041" xml:space="preserve" transform="matrix(1 0 -0 1 0 841.89)" font-size="9" font-family="Roboto"><tspan y="-251.7559" x="70.8661 76.869098 81.90009 86.994098 91.73709 94.85109 99.49509 104.59808 109.281688 114.02469 116.13069 120.77469 125.517688 130.54869 134.38269 139.4137 142.3927 145.4617 150.5647 153.6337 158.3767 163.02069 166.77368 174.83768 179.58068 184.67467 188.40966 193.15265 198.18366 201.98165 207.01265 211.92665 216.95766 222.05165 227.08266 232.21266 234.31867 239.41266 242.39167 246.39665 251.48166 254.59566 259.50965 264.58564 269.66163 273.54063 276.60963 279.72364 284.63764 288.35466 296.41865 301.16166 304.22169 309.31568 313.81568 318.72969 323.76069 326.7397 330.6007 335.7307 340.8157 344.55073 349.6357 351.7417 354.8557 358.6888 363.43183 368.46284 372.26084 376.76084 381.19694 386.11094 388.21693 390.3229 393.3019 398.2159 401.19493 403.3009 407.7199 411.67094 416.74693 421.48994 426.13395 430.63395 433.74797 435.85395 440.40705 445.15007 447.25605 451.90007 456.64308 460.40507 465.26777 469.68678 473.50279 476.48179 478.58778 480.69377 485.33778 488.31678 493.23078 498.26179 503.35578 508.0988 513.12979 517.12576 520.10476 522.21078 524.2898">Unders&#x00f8;kelsen utf&#x00f8;res med en h&#x00e5;ndholdt grabb fra merdkant og gir en kvalitativ beskrivelse av tilstanden til </tspan></text>
</g>
<g id="Layer-1" data-name="Span">
</g>
<g id="Layer-1" data-name="Span">
</g>
<g id="Layer-1" data-name="Span">
</g>
<g id="Layer-1" data-name="Span">
</g>
<g id="Layer-1" data-name="Span">
</g>
<g id="Layer-1" data-name="Span">
</g>
<g id="Layer-1" data-name="Span">
</g>
<g id="Layer-1" data-name="Span">
</g>
<g id="Layer-1" data-name="Span">
</g>
<g id="Layer-1" data-name="Span">
</g>
<g id="Layer-1" data-name="Span">
</g>
<text fill="#404041" xml:space="preserve" transform="matrix(1 0 -0 1 0 841.89)" font-size="9" font-family="Roboto"><tspan y="-237.7559" x="70.8661 75.94209 80.97309 86.00409 91.03509 95.679088 100.42209 105.51609 107.62209 115.6861 120.42909 125.46009 128.43909 133.18209 136.16109 138.67208 143.70308 146.68209 148.93209 152.00109 155.11508 160.02909 162.17108 165.15009 168.23709 172.98009 175.13108 180.16208 185.26868 189.70479 194.44779 199.54178 204.04178 208.95578 211.93479 216.67778 221.76279 226.89279 230.00679 232.1128 236.85579 239.5306 241.51059 243.69759 249.16059 251.26659 253.37259 258.0166 260.9956 265.73863 270.8326 275.5873 280.00633 287.71034 291.14024 295.88325 297.98924 302.63325 307.37626 309.56327 314.42597 318.84498 321.08598 324.15498 329.06898 334.09999 339.13099 344.04499 345.85398 348.1139 352.6139 354.7559 359.4989 367.5629 369.66889 374.3129 378.8129 381.4769 383.2859 386.7869 391.9169 397.0019 399.1619 403.8059 408.54893 413.57994 418.22395 423.35395 426.46797 428.57395 433.21797 437.71797 440.07597 443.05497 445.16096 447.26695 451.91096 454.88996 459.80397 464.83497 469.92897 472.16996 474.53697 480.05845 485.08946 493.15345 501.21745 505.96046 510.99147 513.28646 516.35549 519.4695 524.2629">bunnsedimentet ut fra tre hovedkategorier: Tilstedev&#x00e6;relse av fauna, kjemisk-, og sensorisk tilstand. Summen fra </tspan><tspan y="-223.7519" x="70.8661 75.897098 81.00279 85.43889 90.181888 95.27589 99.77589 104.68989 107.668888 112.41188 117.49688 122.62688 125.740879 127.84688 132.58988 137.62088 142.36388 145.03687 150.12187 152.22788 155.34188 157.99687 162.73987 167.77088 170.38986 172.49587 177.62587 182.12587 187.03987 189.14588 191.25188 194.23088 198.97388 201.95288 206.59688 209.57588 211.68189 213.78789 218.43189 221.41089 226.32489 231.3559 236.44989 239.32088 242.38988 245.50388 250.38639">hovedkategoriene gir en lokalitetstilstand fra </tspan></text>
<text fill="#404041" xml:space="preserve" transform="matrix(1 0 -0 1 0 841.89)" font-size="9" font-family="Roboto"><tspan y="-223.7519" x="252.90909">&#x00ab;</tspan></text>
<text fill="#404041" xml:space="preserve" transform="matrix(1 0 -0 1 0 841.89)" font-size="9" font-family="Roboto"><tspan y="-223.7519" x="256.97709 265.04109 269.7841 274.86909 279.6121 282.5911 285.1471 290.2321 295.3621">meget god</tspan></text>
<text fill="#404041" xml:space="preserve" transform="matrix(1 0 -0 1 0 841.89)" font-size="9" font-family="Roboto"><tspan y="-223.7519" x="300.43809">&#x00bb;</tspan></text>
<text fill="#404041" xml:space="preserve" transform="matrix(1 0 -0 1 0 841.89)" font-size="9" font-family="Roboto"><tspan y="-223.7519" x="304.4701 307.0351 310.0141 312.1201 314.22608"> til </tspan></text>
<text fill="#404041" xml:space="preserve" transform="matrix(1 0 -0 1 0 841.89)" font-size="9" font-family="Roboto"><tspan y="-223.7519" x="316.8541">&#x00ab;</tspan></text>
<text fill="#404041" xml:space="preserve" transform="matrix(1 0 -0 1 0 841.89)" font-size="9" font-family="Roboto"><tspan y="-223.7519" x="320.9221 328.98609 333.7291 338.8141 343.5571 346.5361 349.0921 354.1861 359.1001 362.2141 364.3201 366.4261">meget d&#x00e5;rlig</tspan></text>
<text fill="#404041" xml:space="preserve" transform="matrix(1 0 -0 1 0 841.89)" font-size="9" font-family="Roboto"><tspan y="-223.7519" x="371.6371">&#x00bb;</tspan></text>
<text fill="#404041" xml:space="preserve" transform="matrix(1 0 -0 1 0 841.89)" font-size="9" font-family="Roboto"><tspan y="-223.7519" x="375.6691 378.23503 381.1375 386.2135 388.8775 393.9535 396.97749 398.78648 402.4864 407.5174 412.0174 417.1474 420.2614 422.8453 425.8243 427.9303 430.0363 434.6803 437.6593 442.5733 447.6043 452.6983 455.46223 460.5382 463.10414 468.1801 470.2861 472.3921 475.5061 478.198 481.27693 486.01994 491.10493 496.13594 500.87895 503.85795 506.48686 511.13087 516.26089 524.2376"> (1-4), hvor tilstand 4 blir regnet som </tspan><tspan y="-209.74791" x="70.86609 75.89979 80.335887 85.07889 88.19289 93.26889 98.01189 100.11789 105.03189 109.67589 112.65489 117.68589 119.79189 124.82289 129.9079">overbelastning.</tspan></text>
</g>
</svg>
