<?xml version="1.0" encoding="UTF-8" standalone="no"?>
<!DOCTYPE svg PUBLIC "-//W3C//DTD SVG 1.1//EN" "http://www.w3.org/Graphics/SVG/1.1/DTD/svg11.dtd">
<svg xmlns="http://www.w3.org/2000/svg" xmlns:xlink="http://www.w3.org/1999/xlink" version="1.1" width="595.276pt" height="841.89pt" viewBox="0 0 595.276 841.89">
<g enable-background="new">
<g>
<path transform="matrix(1,0,0,-1,0,841.89)" d="M 70.866 771.024 L 524.223 771.024 L 524.223 746.93 L 70.866 746.93 Z M 70.866 591.876 L 524.223 591.876 L 524.223 568.347 L 70.866 568.347 Z " fill="#f2f2f3"/>
<path transform="matrix(1,0,0,-1,70.8661,126.50214)" stroke-width=".5" stroke-linecap="butt" stroke-miterlimit="10" stroke-linejoin="miter" fill="none" stroke="#404041" d="M 0 0 L 76.519 0 "/>
<path transform="matrix(1,0,0,-1,147.3852,126.50214)" stroke-width=".5" stroke-linecap="butt" stroke-miterlimit="10" stroke-linejoin="miter" fill="none" stroke="#404041" d="M 0 0 L 103.008 0 "/>
<path transform="matrix(1,0,0,-1,250.3937,126.50214)" stroke-width=".5" stroke-linecap="butt" stroke-miterlimit="10" stroke-linejoin="miter" fill="none" stroke="#404041" d="M 0 0 L 130.866 0 "/>
<path transform="matrix(1,0,0,-1,381.2598,126.50214)" stroke-width=".5" stroke-linecap="butt" stroke-miterlimit="10" stroke-linejoin="miter" fill="none" stroke="#404041" d="M 0 0 L 142.963 0 "/>
<path transform="matrix(1,0,0,-1,70.8661,155.39063)" stroke-width=".5" stroke-linecap="butt" stroke-miterlimit="10" stroke-linejoin="miter" fill="none" stroke="#404041" d="M 0 0 L 76.519 0 "/>
<path transform="matrix(1,0,0,-1,147.3852,155.39063)" stroke-width=".5" stroke-linecap="butt" stroke-miterlimit="10" stroke-linejoin="miter" fill="none" stroke="#404041" d="M 0 0 L 103.008 0 "/>
<path transform="matrix(1,0,0,-1,250.3937,155.39063)" stroke-width=".5" stroke-linecap="butt" stroke-miterlimit="10" stroke-linejoin="miter" fill="none" stroke="#404041" d="M 0 0 L 130.866 0 "/>
<path transform="matrix(1,0,0,-1,381.2598,155.39063)" stroke-width=".5" stroke-linecap="butt" stroke-miterlimit="10" stroke-linejoin="miter" fill="none" stroke="#404041" d="M 0 0 L 142.963 0 "/>
<path transform="matrix(1,0,0,-1,70.8661,186.93189)" stroke-width=".5" stroke-linecap="butt" stroke-miterlimit="10" stroke-linejoin="miter" fill="none" stroke="#404041" d="M 0 0 L 76.519 0 "/>
<path transform="matrix(1,0,0,-1,147.3852,186.93189)" stroke-width=".5" stroke-linecap="butt" stroke-miterlimit="10" stroke-linejoin="miter" fill="none" stroke="#404041" d="M 0 0 L 103.008 0 "/>
<path transform="matrix(1,0,0,-1,250.3937,186.93189)" stroke-width=".5" stroke-linecap="butt" stroke-miterlimit="10" stroke-linejoin="miter" fill="none" stroke="#404041" d="M 0 0 L 130.866 0 "/>
<path transform="matrix(1,0,0,-1,381.2598,186.93189)" stroke-width=".5" stroke-linecap="butt" stroke-miterlimit="10" stroke-linejoin="miter" fill="none" stroke="#404041" d="M 0 0 L 142.963 0 "/>
<path transform="matrix(1,0,0,-1,70.8661,218.47315)" stroke-width=".5" stroke-linecap="butt" stroke-miterlimit="10" stroke-linejoin="miter" fill="none" stroke="#404041" d="M 0 0 L 76.519 0 "/>
<path transform="matrix(1,0,0,-1,147.3852,218.47315)" stroke-width=".5" stroke-linecap="butt" stroke-miterlimit="10" stroke-linejoin="miter" fill="none" stroke="#404041" d="M 0 0 L 103.008 0 "/>
<path transform="matrix(1,0,0,-1,250.3937,218.47315)" stroke-width=".5" stroke-linecap="butt" stroke-miterlimit="10" stroke-linejoin="miter" fill="none" stroke="#404041" d="M 0 0 L 130.866 0 "/>
<path transform="matrix(1,0,0,-1,381.2598,218.47315)" stroke-width=".5" stroke-linecap="butt" stroke-miterlimit="10" stroke-linejoin="miter" fill="none" stroke="#404041" d="M 0 0 L 142.963 0 "/>
<path transform="matrix(1,0,0,-1,70.8661,313.232)" stroke-width=".5" stroke-linecap="butt" stroke-miterlimit="10" stroke-linejoin="miter" fill="none" stroke="#404041" d="M 0 0 L 76.519 0 "/>
<path transform="matrix(1,0,0,-1,147.3852,313.232)" stroke-width=".5" stroke-linecap="butt" stroke-miterlimit="10" stroke-linejoin="miter" fill="none" stroke="#404041" d="M 0 0 L 103.008 0 "/>
<path transform="matrix(1,0,0,-1,250.3937,313.232)" stroke-width=".5" stroke-linecap="butt" stroke-miterlimit="10" stroke-linejoin="miter" fill="none" stroke="#404041" d="M 0 0 L 130.866 0 "/>
<path transform="matrix(1,0,0,-1,381.2598,313.232)" stroke-width=".5" stroke-linecap="butt" stroke-miterlimit="10" stroke-linejoin="miter" fill="none" stroke="#404041" d="M 0 0 L 142.963 0 "/>
<path transform="matrix(1,0,0,-1,70.8661,352.92063)" stroke-width=".5" stroke-linecap="butt" stroke-miterlimit="10" stroke-linejoin="miter" fill="none" stroke="#404041" d="M 0 0 L 76.519 0 "/>
<path transform="matrix(1,0,0,-1,147.3852,352.92063)" stroke-width=".5" stroke-linecap="butt" stroke-miterlimit="10" stroke-linejoin="miter" fill="none" stroke="#404041" d="M 0 0 L 103.008 0 "/>
<path transform="matrix(1,0,0,-1,250.3937,352.92063)" stroke-width=".5" stroke-linecap="butt" stroke-miterlimit="10" stroke-linejoin="miter" fill="none" stroke="#404041" d="M 0 0 L 130.866 0 "/>
<path transform="matrix(1,0,0,-1,381.2598,352.92063)" stroke-width=".5" stroke-linecap="butt" stroke-miterlimit="10" stroke-linejoin="miter" fill="none" stroke="#404041" d="M 0 0 L 142.963 0 "/>
<path transform="matrix(1,0,0,-1,70.8661,384.4619)" stroke-width=".5" stroke-linecap="butt" stroke-miterlimit="10" stroke-linejoin="miter" fill="none" stroke="#404041" d="M 0 0 L 76.519 0 "/>
<path transform="matrix(1,0,0,-1,147.3852,384.4619)" stroke-width=".5" stroke-linecap="butt" stroke-miterlimit="10" stroke-linejoin="miter" fill="none" stroke="#404041" d="M 0 0 L 103.008 0 "/>
<path transform="matrix(1,0,0,-1,250.3937,384.4619)" stroke-width=".5" stroke-linecap="butt" stroke-miterlimit="10" stroke-linejoin="miter" fill="none" stroke="#404041" d="M 0 0 L 130.866 0 "/>
<path transform="matrix(1,0,0,-1,381.2598,384.4619)" stroke-width=".5" stroke-linecap="butt" stroke-miterlimit="10" stroke-linejoin="miter" fill="none" stroke="#404041" d="M 0 0 L 142.963 0 "/>
<path transform="matrix(1,0,0,-1,70.8661,424.1505)" stroke-width=".5" stroke-linecap="butt" stroke-miterlimit="10" stroke-linejoin="miter" fill="none" stroke="#404041" d="M 0 0 L 76.519 0 "/>
<path transform="matrix(1,0,0,-1,147.3852,424.1505)" stroke-width=".5" stroke-linecap="butt" stroke-miterlimit="10" stroke-linejoin="miter" fill="none" stroke="#404041" d="M 0 0 L 103.008 0 "/>
<path transform="matrix(1,0,0,-1,250.3937,424.1505)" stroke-width=".5" stroke-linecap="butt" stroke-miterlimit="10" stroke-linejoin="miter" fill="none" stroke="#404041" d="M 0 0 L 130.866 0 "/>
<path transform="matrix(1,0,0,-1,381.2598,424.1505)" stroke-width=".5" stroke-linecap="butt" stroke-miterlimit="10" stroke-linejoin="miter" fill="none" stroke="#404041" d="M 0 0 L 142.963 0 "/>
<path transform="matrix(1,0,0,-1,70.8661,474.63914)" stroke-width=".5" stroke-linecap="butt" stroke-miterlimit="10" stroke-linejoin="miter" fill="none" stroke="#404041" d="M 0 0 L 76.519 0 "/>
<path transform="matrix(1,0,0,-1,147.3852,474.63914)" stroke-width=".5" stroke-linecap="butt" stroke-miterlimit="10" stroke-linejoin="miter" fill="none" stroke="#404041" d="M 0 0 L 103.008 0 "/>
<path transform="matrix(1,0,0,-1,250.3937,474.63914)" stroke-width=".5" stroke-linecap="butt" stroke-miterlimit="10" stroke-linejoin="miter" fill="none" stroke="#404041" d="M 0 0 L 130.866 0 "/>
<path transform="matrix(1,0,0,-1,381.2598,474.63914)" stroke-width=".5" stroke-linecap="butt" stroke-miterlimit="10" stroke-linejoin="miter" fill="none" stroke="#404041" d="M 0 0 L 142.963 0 "/>
<path transform="matrix(1,0,0,-1,70.8661,506.33833)" stroke-width=".5" stroke-linecap="butt" stroke-miterlimit="10" stroke-linejoin="miter" fill="none" stroke="#404041" d="M 0 0 L 76.519 0 "/>
<path transform="matrix(1,0,0,-1,147.3852,506.33833)" stroke-width=".5" stroke-linecap="butt" stroke-miterlimit="10" stroke-linejoin="miter" fill="none" stroke="#404041" d="M 0 0 L 103.008 0 "/>
<path transform="matrix(1,0,0,-1,250.3937,506.33833)" stroke-width=".5" stroke-linecap="butt" stroke-miterlimit="10" stroke-linejoin="miter" fill="none" stroke="#404041" d="M 0 0 L 130.866 0 "/>
<path transform="matrix(1,0,0,-1,381.2598,506.33833)" stroke-width=".5" stroke-linecap="butt" stroke-miterlimit="10" stroke-linejoin="miter" fill="none" stroke="#404041" d="M 0 0 L 142.963 0 "/>
<path transform="matrix(1,0,0,-1,70.8661,538.0376)" stroke-width=".5" stroke-linecap="butt" stroke-miterlimit="10" stroke-linejoin="miter" fill="none" stroke="#404041" d="M 0 0 L 76.519 0 "/>
<path transform="matrix(1,0,0,-1,147.3852,538.0376)" stroke-width=".5" stroke-linecap="butt" stroke-miterlimit="10" stroke-linejoin="miter" fill="none" stroke="#404041" d="M 0 0 L 103.008 0 "/>
<path transform="matrix(1,0,0,-1,250.3937,538.0376)" stroke-width=".5" stroke-linecap="butt" stroke-miterlimit="10" stroke-linejoin="miter" fill="none" stroke="#404041" d="M 0 0 L 130.866 0 "/>
<path transform="matrix(1,0,0,-1,381.2598,538.0376)" stroke-width=".5" stroke-linecap="butt" stroke-miterlimit="10" stroke-linejoin="miter" fill="none" stroke="#404041" d="M 0 0 L 142.963 0 "/>
<path transform="matrix(1,0,0,-1,70.8661,569.73696)" stroke-width=".5" stroke-linecap="butt" stroke-miterlimit="10" stroke-linejoin="miter" fill="none" stroke="#404041" d="M 0 0 L 76.519 0 "/>
<path transform="matrix(1,0,0,-1,147.3852,569.73696)" stroke-width=".5" stroke-linecap="butt" stroke-miterlimit="10" stroke-linejoin="miter" fill="none" stroke="#404041" d="M 0 0 L 103.008 0 "/>
<path transform="matrix(1,0,0,-1,250.3937,569.73696)" stroke-width=".5" stroke-linecap="butt" stroke-miterlimit="10" stroke-linejoin="miter" fill="none" stroke="#404041" d="M 0 0 L 130.866 0 "/>
<path transform="matrix(1,0,0,-1,381.2598,569.73696)" stroke-width=".5" stroke-linecap="butt" stroke-miterlimit="10" stroke-linejoin="miter" fill="none" stroke="#404041" d="M 0 0 L 142.963 0 "/>
<path transform="matrix(1,0,0,-1,70.8661,601.4361)" stroke-width=".5" stroke-linecap="butt" stroke-miterlimit="10" stroke-linejoin="miter" fill="none" stroke="#404041" d="M 0 0 L 76.519 0 "/>
<path transform="matrix(1,0,0,-1,147.3852,601.4361)" stroke-width=".5" stroke-linecap="butt" stroke-miterlimit="10" stroke-linejoin="miter" fill="none" stroke="#404041" d="M 0 0 L 103.008 0 "/>
<path transform="matrix(1,0,0,-1,250.3937,601.4361)" stroke-width=".5" stroke-linecap="butt" stroke-miterlimit="10" stroke-linejoin="miter" fill="none" stroke="#404041" d="M 0 0 L 130.866 0 "/>
<path transform="matrix(1,0,0,-1,381.2598,601.4361)" stroke-width=".5" stroke-linecap="butt" stroke-miterlimit="10" stroke-linejoin="miter" fill="none" stroke="#404041" d="M 0 0 L 142.963 0 "/>
<path transform="matrix(1,0,0,-1,70.8661,633.13546)" stroke-width=".5" stroke-linecap="butt" stroke-miterlimit="10" stroke-linejoin="miter" fill="none" stroke="#404041" d="M 0 0 L 76.519 0 "/>
<path transform="matrix(1,0,0,-1,147.3852,633.13546)" stroke-width=".5" stroke-linecap="butt" stroke-miterlimit="10" stroke-linejoin="miter" fill="none" stroke="#404041" d="M 0 0 L 103.008 0 "/>
<path transform="matrix(1,0,0,-1,250.3937,633.13546)" stroke-width=".5" stroke-linecap="butt" stroke-miterlimit="10" stroke-linejoin="miter" fill="none" stroke="#404041" d="M 0 0 L 130.866 0 "/>
<path transform="matrix(1,0,0,-1,381.2598,633.13546)" stroke-width=".5" stroke-linecap="butt" stroke-miterlimit="10" stroke-linejoin="miter" fill="none" stroke="#404041" d="M 0 0 L 142.963 0 "/>
<path transform="matrix(1,0,0,-1,70.8661,664.8347)" stroke-width=".5" stroke-linecap="butt" stroke-miterlimit="10" stroke-linejoin="miter" fill="none" stroke="#404041" d="M 0 0 L 76.519 0 "/>
<path transform="matrix(1,0,0,-1,147.3852,664.8347)" stroke-width=".5" stroke-linecap="butt" stroke-miterlimit="10" stroke-linejoin="miter" fill="none" stroke="#404041" d="M 0 0 L 103.008 0 "/>
<path transform="matrix(1,0,0,-1,250.3937,664.8347)" stroke-width=".5" stroke-linecap="butt" stroke-miterlimit="10" stroke-linejoin="miter" fill="none" stroke="#404041" d="M 0 0 L 130.866 0 "/>
<path transform="matrix(1,0,0,-1,381.2598,664.8347)" stroke-width=".5" stroke-linecap="butt" stroke-miterlimit="10" stroke-linejoin="miter" fill="none" stroke="#404041" d="M 0 0 L 142.963 0 "/>
<g id="Layer-1" data-name="Span">
</g>
<g id="Layer-1" data-name="Span">
</g>
<g id="Layer-1" data-name="Span">
<text fill="#939598" xml:space="preserve" transform="matrix(1 0 -0 1 0 841.89)" font-size="9" font-family="Roboto"><tspan y="-755.6014" x="76.5354 79.19759 85.7109 91.171199 96.2652 102.0972 107.2002 112.8837 118.526699 123.6207 130.134 135.59432 140.68831 147.14852 153.27123 159.06543 164.83803 169.91403 175.00803 182.94603 188.04003 194.55333">INTERESSENTENGASJEMENT</tspan></text>
<text fill="#939598" xml:space="preserve" transform="matrix(1 0 -0 1 0 841.89)" font-size="10" font-family="Roboto" font-weight="bold"><tspan y="-727.4086" x="76.5354 81.8554 87.7024 93.0804 97.4794 103.4074">102-40</tspan></text>
</g>
<g id="Layer-1" data-name="Span">
</g>
<text fill="#231f20" xml:space="preserve" transform="matrix(1 0 -0 1 0 841.89)" font-size="9" font-family="Roboto"><tspan y="-733.1836" x="153.0545 159.2843 163.6286 168.3347 171.4415 176.0072 178.0475 182.7734 185.66962 187.85662 192.83362 197.15093 201.85613 204.92783">Oversikt over </tspan><tspan y="-722.3836" x="153.0545 155.0975 160.0655 162.815 167.5202 170.5325 175.1846 179.7656 184.34659 189.10578 194.07378 196.83498 201.85698 205.05828 210.02628 215.15088 220.24578 224.95099">interessentgrupper</tspan></text>
<path transform="matrix(1,0,0,-1,256.063,120.16559)" stroke-width=".439" stroke-linecap="butt" stroke-miterlimit="10" stroke-linejoin="miter" fill="none" stroke="#1e5e9e" d="M 0 0 L 10.403 0 "/>
<g id="Layer-1" data-name="Span">
</g>
<g id="Layer-1" data-name="Span">
<text fill="#231f20" xml:space="preserve" transform="matrix(1 0 -0 1 0 841.89)" font-size="9" font-family="Roboto"><tspan y="-733.1836" x="256.063 262.28019 266.98539 272.04789 276.75309 279.76539 284.4373 286.44609 288.52778 293.1808 295.3678 300.4276 305.4811 310.5112 312.6208 316.89579 321.62168 326.62928 328.64527 333.70957 338.78556 343.49076 346.51475 348.70176 353.31694 355.37974 360.44764 365.10066">Generelle opplysninger side </tspan></text>
</g>
<g id="Layer-1" data-name="Span">
<text fill="#1e5e9e" xml:space="preserve" transform="matrix(1 0 -0 1 0 841.89)" font-size="9" font-family="Roboto"><tspan y="-722.3836" x="256.063 261.35139">60</tspan></text>
</g>
<g id="Layer-1" data-name="Span">
<text fill="#939598" xml:space="preserve" transform="matrix(1 0 -0 1 0 841.89)" font-size="10" font-family="Roboto" font-weight="bold"><tspan y="-697.1937" x="76.5354 81.8554 87.7024 93.0804 97.4784 102.7684">102-41</tspan></text>
</g>
<g id="Layer-1" data-name="Span">
</g>
<text fill="#231f20" xml:space="preserve" transform="matrix(1 0 -0 1 0 841.89)" font-size="9" font-family="Roboto"><tspan y="-702.9687" x="153.0545 158.48871 163.5467 165.55551 167.63722 172.34243 177.06833 179.97174 182.06426 186.40766 191.06066 193.24765 197.97176 202.71836 205.66497 210.48897 212.57068 217.27678 220.30078 222.48778 227.63127 232.62627">Kollektive avtaler og </tspan><tspan y="-692.1687" x="153.0545 155.1488 160.23381 165.27022 170.25353 174.82103 177.61553 182.69513 185.86942 190.89142 195.74962 200.79502 205.79901 207.80872 209.84992 214.88722 219.96323 224.68824 227.74193">l&#x00f8;nnsforhandlinger </tspan></text>
<path transform="matrix(1,0,0,-1,256.063,150.3805)" stroke-width=".439" stroke-linecap="butt" stroke-miterlimit="10" stroke-linejoin="miter" fill="none" stroke="#1e5e9e" d="M 0 0 L 10.403 0 "/>
<g id="Layer-1" data-name="Span">
</g>
<g id="Layer-1" data-name="Span">
<text fill="#231f20" xml:space="preserve" transform="matrix(1 0 -0 1 0 841.89)" font-size="9" font-family="Roboto"><tspan y="-702.9687" x="256.063 262.28019 266.98539 272.04789 276.75309 279.76539 284.4373 286.44609 288.52778 293.1808 295.3678 300.4276 305.4811 310.5112 312.6208 316.89579 321.62168 326.62928 328.64527 333.70957 338.78556 343.49076 346.51475 348.70176 353.31694 355.37974 360.44764 365.10066">Generelle opplysninger side </tspan></text>
</g>
<g id="Layer-1" data-name="Span">
<text fill="#1e5e9e" xml:space="preserve" transform="matrix(1 0 -0 1 0 841.89)" font-size="9" font-family="Roboto"><tspan y="-692.1687" x="256.063 261.35139">60</tspan></text>
</g>
<g id="Layer-1" data-name="Span">
<text fill="#939598" xml:space="preserve" transform="matrix(1 0 -0 1 0 841.89)" font-size="10" font-family="Roboto" font-weight="bold"><tspan y="-666.9788" x="76.5354 81.8554 87.7024 93.0804 97.4794 103.1564">102-42</tspan></text>
</g>
<g id="Layer-1" data-name="Span">
</g>
<text fill="#231f20" xml:space="preserve" transform="matrix(1 0 -0 1 0 841.89)" font-size="9" font-family="Roboto"><tspan y="-672.7538" x="153.0545 159.2456 162.39292 166.73632 171.40822 173.46202 178.53801 183.20902 185.21962 189.82492 194.47792 196.66492 201.38993 205.71892">Utvelgelse av </tspan><tspan y="-661.9538" x="153.0545 155.0975 160.0655 162.815 167.5202 170.5325 175.1846 179.7656 184.34659 189.10578 194.07378 196.83498 201.85698 205.05828 210.02628 215.15088 220.24578 224.95099">interessentgrupper</tspan></text>
<path transform="matrix(1,0,0,-1,256.063,180.5954)" stroke-width=".439" stroke-linecap="butt" stroke-miterlimit="10" stroke-linejoin="miter" fill="none" stroke="#1e5e9e" d="M 0 0 L 10.403 0 "/>
<g id="Layer-1" data-name="Span">
</g>
<g id="Layer-1" data-name="Span">
<text fill="#231f20" xml:space="preserve" transform="matrix(1 0 -0 1 0 841.89)" font-size="9" font-family="Roboto"><tspan y="-672.7538" x="256.063 262.28019 266.98539 272.04789 276.75309 279.76539 284.4373 286.44609 288.52778 293.1808 295.3678 300.4276 305.4811 310.5112 312.6208 316.89579 321.62168 326.62928 328.64527 333.70957 338.78556 343.49076 346.51475 348.70176 353.31694 355.37974 360.44764 365.10066">Generelle opplysninger side </tspan></text>
</g>
<g id="Layer-1" data-name="Span">
<text fill="#1e5e9e" xml:space="preserve" transform="matrix(1 0 -0 1 0 841.89)" font-size="9" font-family="Roboto"><tspan y="-661.9538" x="256.063 261.35139">60</tspan></text>
</g>
<g id="Layer-1" data-name="Span">
<text fill="#939598" xml:space="preserve" transform="matrix(1 0 -0 1 0 841.89)" font-size="10" font-family="Roboto" font-weight="bold"><tspan y="-635.4376" x="76.5354 81.8554 87.7024 93.0804 97.4794 103.417407">102-43</tspan></text>
</g>
<g id="Layer-1" data-name="Span">
</g>
<text fill="#231f20" xml:space="preserve" transform="matrix(1 0 -0 1 0 841.89)" font-size="9" font-family="Roboto"><tspan y="-641.2126" x="153.0545 155.4593 160.4246 163.17412 167.88022 170.90422 175.80742 180.20752 184.76152 186.90442 191.98401 196.925 199.112 207.21739 211.9415 216.9455">Interaksjon med </tspan><tspan y="-630.4126" x="153.0545 155.0975 160.0655 162.815 167.5202 170.5325 175.1846 179.7656 184.34659 189.10578 194.07378 196.83498 201.85698 205.05828 210.02628 215.15088 220.24578 224.95099">interessentgrupper</tspan></text>
<path transform="matrix(1,0,0,-1,256.063,212.1366)" stroke-width=".439" stroke-linecap="butt" stroke-miterlimit="10" stroke-linejoin="miter" fill="none" stroke="#1e5e9e" d="M 0 0 L 10.403 0 "/>
<g id="Layer-1" data-name="Span">
</g>
<g id="Layer-1" data-name="Span">
<text fill="#231f20" xml:space="preserve" transform="matrix(1 0 -0 1 0 841.89)" font-size="9" font-family="Roboto"><tspan y="-641.2126" x="256.063 262.28019 266.98539 272.04789 276.75309 279.76539 284.4373 286.44609 288.52778 293.1808 295.3678 300.4276 305.4811 310.5112 312.6208 316.89579 321.62168 326.62928 328.64527 333.70957 338.78556 343.49076 346.51475 348.70176 353.31694 355.37974 360.44764 365.10066">Generelle opplysninger side </tspan></text>
</g>
<g id="Layer-1" data-name="Span">
<text fill="#1e5e9e" xml:space="preserve" transform="matrix(1 0 -0 1 0 841.89)" font-size="9" font-family="Roboto"><tspan y="-630.4126" x="256.063 261.35139">60</tspan></text>
</g>
<g id="Layer-1" data-name="Span">
<text fill="#939598" xml:space="preserve" transform="matrix(1 0 -0 1 0 841.89)" font-size="10" font-family="Roboto" font-weight="bold"><tspan y="-603.8963" x="76.5354 81.8554 87.7024 93.0804 97.4794 103.4994">102-44</tspan></text>
</g>
<g id="Layer-1" data-name="Span">
</g>
<text fill="#231f20" xml:space="preserve" transform="matrix(1 0 -0 1 0 841.89)" font-size="9" font-family="Roboto"><tspan y="-609.6713" x="153.0545 157.73091 162.44512 170.43442 175.29352 179.99962 183.02362 185.21062 188.21123 191.22443 195.93863 203.95223 211.98743 216.66474 219.55374 221.74074 226.49364 230.82263">Temaer fremmet av </tspan><tspan y="-598.87136" x="153.0545 155.0975 160.0655 162.815 167.5202 170.5325 175.1846 179.7656 184.34659 189.10578 194.07378 196.83498 201.85698 205.05828 210.02628 215.15088 220.24578 224.95099">interessentgrupper</tspan></text>
<path transform="matrix(1,0,0,-1,256.063,243.67792)" stroke-width=".439" stroke-linecap="butt" stroke-miterlimit="10" stroke-linejoin="miter" fill="none" stroke="#1e5e9e" d="M 0 0 L 9.951 0 "/>
<g id="Layer-1" data-name="Span">
</g>
<g id="Layer-1" data-name="Span">
<text fill="#231f20" xml:space="preserve" transform="matrix(1 0 -0 1 0 841.89)" font-size="9" font-family="Roboto"><tspan y="-609.6713" x="256.063 262.28019 266.98539 272.04789 276.75309 279.76539 284.4373 286.44609 288.52778 293.1808 295.3678 300.4276 305.4811 310.5112 312.6208 316.89579 321.62168 326.62928 328.64527 333.70957 338.78556 343.49076 346.51475 348.70176 353.31694 355.37974 360.44764 365.10066">Generelle opplysninger side </tspan></text>
</g>
<g id="Layer-1" data-name="Span">
<text fill="#1e5e9e" xml:space="preserve" transform="matrix(1 0 -0 1 0 841.89)" font-size="9" font-family="Roboto"><tspan y="-598.87136" x="256.063 260.896">61</tspan></text>
</g>
<g id="Layer-1" data-name="Span">
</g>
<g id="Layer-1" data-name="Span">
<text fill="#939598" xml:space="preserve" transform="matrix(1 0 -0 1 0 841.89)" font-size="9" font-family="Roboto"><tspan y="-576.74038" x="76.53099 82.6141 88.515399 94.3267 100.228 106.509998 112.351 117.8122 122.902599 128.69049 131.35269 137.8147 143.91219 149.55248 155.36379 161.44689 167.34819 173.0407 178.64859 181.25049">RAPPORTERINGSPRAKSIS</tspan></text>
<text fill="#939598" xml:space="preserve" transform="matrix(1 0 -0 1 0 841.89)" font-size="10" font-family="Roboto" font-weight="bold"><tspan y="-544.7523" x="76.5354 81.8554 87.7024 93.0804 97.4794 103.3644">102-45</tspan></text>
</g>
<g id="Layer-1" data-name="Span">
</g>
<g id="Layer-1" data-name="Span">
</g>
<text fill="#231f20" xml:space="preserve" transform="matrix(1 0 -0 1 0 841.89)" font-size="9" font-family="Roboto"><tspan y="-555.9272" x="153.0545 158.6237 163.29561 165.30532 169.90522 174.37012 179.22832 184.32233 189.02843 192.05243 194.23943 199.38292 204.37792 206.56491 211.28722 216.32361 221.38971 226.06792 228.81743 233.52263 236.54663">Selskaper og enheter </tspan><tspan y="-545.1272" x="153.0545 155.07051 160.13481 164.65462 166.67063 171.75112 176.81812 181.52422 184.95142 187.84043 190.02742 192.04343 194.23043 199.33522 204.01253 206.90154">inkludert i det </tspan><tspan y="-534.3272" x="153.0545 156.0695 157.9631 162.9806 167.8406 172.82302 177.3887 179.4407 184.1297 186.1475 188.19951 192.85791 195.04673 198.05902 202.77591 207.81862 212.80103 217.40093 221.86583 226.72583 231.82074 236.49803">finansielle regnskapet</tspan></text>
<path transform="matrix(1,0,0,-1,256.063,302.8219)" stroke-width=".439" stroke-linecap="butt" stroke-miterlimit="10" stroke-linejoin="miter" fill="none" stroke="#1e5e9e" d="M 0 0 L 9.951 0 "/>
<g id="Layer-1" data-name="Span">
</g>
<g id="Layer-1" data-name="Span">
<text fill="#231f20" xml:space="preserve" transform="matrix(1 0 -0 1 0 841.89)" font-size="9" font-family="Roboto"><tspan y="-550.5272" x="256.063 262.28019 266.98539 272.04789 276.75309 279.76539 284.4373 286.44609 288.52778 293.1808 295.3678 300.4276 305.4811 310.5112 312.6208 316.89579 321.62168 326.62928 328.64527 333.70957 338.78556 343.49076 346.51475 348.70176 353.31694 355.37974 360.44764 365.10066">Generelle opplysninger side </tspan></text>
</g>
<g id="Layer-1" data-name="Span">
<text fill="#1e5e9e" xml:space="preserve" transform="matrix(1 0 -0 1 0 841.89)" font-size="9" font-family="Roboto"><tspan y="-539.72726" x="256.063 260.896">61</tspan></text>
</g>
<g id="Layer-1" data-name="Span">
<text fill="#939598" xml:space="preserve" transform="matrix(1 0 -0 1 0 841.89)" font-size="10" font-family="Roboto" font-weight="bold"><tspan y="-505.0637" x="76.5354 81.8554 87.7024 93.0804 97.4794 103.4074">102-46</tspan></text>
</g>
<g id="Layer-1" data-name="Span">
</g>
<g id="Layer-1" data-name="Span">
</g>
<text fill="#231f20" xml:space="preserve" transform="matrix(1 0 -0 1 0 841.89)" font-size="9" font-family="Roboto"><tspan y="-516.2386" x="153.0545 158.65161 161.67562 166.7156 171.3209 175.9739 180.58371 185.13771 187.3247 190.15071 195.2303 198.2543 200.4413 205.2653 207.4523 212.58499 217.31629 220.29529 222.2249 227.2865 231.9917 235.0049 239.6579">Prosess for &#x00e5; definere </tspan><tspan y="-505.4386" x="153.0545 156.0785 160.9817 166.03522 171.12471 176.2043 179.6315 182.38101 187.08712 192.0695 196.6235 198.8105 200.8265 205.9169 210.9542 216.03289 221.09088 223.15369 228.15769 230.34468 235.44678 240.44178">rapportens innhold og </tspan><tspan y="-494.6386" x="153.0545 157.79842 162.11751 167.1602 170.1725 174.8786 179.861 184.46089 189.46849 191.4845 196.5488 201.62389 206.32999 209.35399">avgrensninger </tspan></text>
<path transform="matrix(1,0,0,-1,256.063,342.51054)" stroke-width=".439" stroke-linecap="butt" stroke-miterlimit="10" stroke-linejoin="miter" fill="none" stroke="#1e5e9e" d="M 0 0 L 9.951 0 "/>
<g id="Layer-1" data-name="Span">
</g>
<g id="Layer-1" data-name="Span">
<text fill="#231f20" xml:space="preserve" transform="matrix(1 0 -0 1 0 841.89)" font-size="9" font-family="Roboto"><tspan y="-510.8387" x="256.063 262.28019 266.98539 272.04789 276.75309 279.76539 284.4373 286.44609 288.52778 293.1808 295.3678 300.4276 305.4811 310.5112 312.6208 316.89579 321.62168 326.62928 328.64527 333.70957 338.78556 343.49076 346.51475 348.70176 353.31694 355.37974 360.44764 365.10066">Generelle opplysninger side </tspan></text>
</g>
<g id="Layer-1" data-name="Span">
<text fill="#1e5e9e" xml:space="preserve" transform="matrix(1 0 -0 1 0 841.89)" font-size="9" font-family="Roboto"><tspan y="-500.03874" x="256.063 260.896">61</tspan></text>
</g>
<g id="Layer-1" data-name="Span">
<text fill="#939598" xml:space="preserve" transform="matrix(1 0 -0 1 0 841.89)" font-size="10" font-family="Roboto" font-weight="bold"><tspan y="-469.4487" x="76.5354 81.8554 87.7024 93.0804 97.4794 103.0784">102-47</tspan></text>
</g>
<g id="Layer-1" data-name="Span">
</g>
<text fill="#231f20" xml:space="preserve" transform="matrix(1 0 -0 1 0 841.89)" font-size="9" font-family="Roboto"><tspan y="-475.2237" x="153.0545 159.2843 163.6286 168.3347 171.4415 176.0072 178.0475 182.7734 185.66962 187.85662 192.83362 197.15093 201.85613 204.92783">Oversikt over </tspan><tspan y="-464.4237" x="153.0545 157.4015 162.07251 166.66072 171.36592 176.33213 179.23912 181.24791 183.30261 188.37772 193.01003 195.19702 197.94652 202.66072 210.65273 215.49472 220.21793">vesentlige temaer</tspan></text>
<path transform="matrix(1,0,0,-1,256.063,378.12544)" stroke-width=".439" stroke-linecap="butt" stroke-miterlimit="10" stroke-linejoin="miter" fill="none" stroke="#1e5e9e" d="M 0 0 L 9.951 0 "/>
<g id="Layer-1" data-name="Span">
</g>
<g id="Layer-1" data-name="Span">
<text fill="#231f20" xml:space="preserve" transform="matrix(1 0 -0 1 0 841.89)" font-size="9" font-family="Roboto"><tspan y="-475.2237" x="256.063 262.28019 266.98539 272.04789 276.75309 279.76539 284.4373 286.44609 288.52778 293.1808 295.3678 300.4276 305.4811 310.5112 312.6208 316.89579 321.62168 326.62928 328.64527 333.70957 338.78556 343.49076 346.51475 348.70176 353.31694 355.37974 360.44764 365.10066">Generelle opplysninger side </tspan></text>
</g>
<g id="Layer-1" data-name="Span">
<text fill="#1e5e9e" xml:space="preserve" transform="matrix(1 0 -0 1 0 841.89)" font-size="9" font-family="Roboto"><tspan y="-464.4237" x="256.063 260.896">61</tspan></text>
</g>
<g id="Layer-1" data-name="Span">
<text fill="#939598" xml:space="preserve" transform="matrix(1 0 -0 1 0 841.89)" font-size="10" font-family="Roboto" font-weight="bold"><tspan y="-433.8338" x="76.5354 81.8554 87.7024 93.0804 97.4794 103.4364">102-48</tspan></text>
</g>
<g id="Layer-1" data-name="Span">
</g>
<g id="Layer-1" data-name="Span">
</g>
<text fill="#231f20" xml:space="preserve" transform="matrix(1 0 -0 1 0 841.89)" font-size="9" font-family="Roboto"><tspan y="-445.0088" x="153.0545 158.1206 163.166 168.19969 171.3452 173.3612 178.4264 183.5015 188.2067 191.2307 193.4177 195.4337 197.6207 200.4935 205.57399 208.74829 213.82698 218.88498 220.94779 225.95178 228.13878 231.02779 233.0546 235.0706">Endringer i forhold til </tspan><tspan y="-434.2088" x="153.0545 155.95792 158.02072 163.02472 165.03353 167.08823 172.16332 176.86942 179.88172 184.53472 186.72171 189.74571 194.63092 199.68352 204.77393 209.85352 213.28072 216.16973 218.35672 223.45972 228.45471">tidligere rapport og </tspan><tspan y="-423.4088" x="153.0545 155.0957 160.0142 162.8087 167.8883 171.07161 179.06092 183.8489 188.41732 190.56023 195.64073">informasjon</tspan></text>
<path transform="matrix(1,0,0,-1,256.063,413.74043)" stroke-width=".439" stroke-linecap="butt" stroke-miterlimit="10" stroke-linejoin="miter" fill="none" stroke="#1e5e9e" d="M 0 0 L 10.211 0 "/>
<g id="Layer-1" data-name="Span">
</g>
<g id="Layer-1" data-name="Span">
<text fill="#231f20" xml:space="preserve" transform="matrix(1 0 -0 1 0 841.89)" font-size="9" font-family="Roboto"><tspan y="-439.6088" x="256.063 262.28019 266.98539 272.04789 276.75309 279.76539 284.4373 286.44609 288.52778 293.1808 295.3678 300.4276 305.4811 310.5112 312.6208 316.89579 321.62168 326.62928 328.64527 333.70957 338.78556 343.49076 346.51475 348.70176 353.31694 355.37974 360.44764 365.10066">Generelle opplysninger side </tspan></text>
</g>
<g id="Layer-1" data-name="Span">
<text fill="#1e5e9e" xml:space="preserve" transform="matrix(1 0 -0 1 0 841.89)" font-size="9" font-family="Roboto"><tspan y="-428.8088" x="256.063 261.15699">62</tspan></text>
</g>
<g id="Layer-1" data-name="Span">
<text fill="#939598" xml:space="preserve" transform="matrix(1 0 -0 1 0 841.89)" font-size="10" font-family="Roboto" font-weight="bold"><tspan y="-388.7452" x="76.5354 81.8554 87.7024 93.0804 97.4794 103.1184">102-49</tspan></text>
</g>
<g id="Layer-1" data-name="Span">
</g>
<g id="Layer-1" data-name="Span">
</g>
<g id="Layer-1" data-name="Span">
</g>
<text fill="#231f20" xml:space="preserve" transform="matrix(1 0 -0 1 0 841.89)" font-size="9" font-family="Roboto"><tspan y="-405.3203" x="153.0545 158.1206 163.166 168.19969 171.3452 173.3612 178.4264 183.5015 188.2067 191.2307 193.4177 195.4337">Endringer i </tspan><tspan y="-394.52033" x="153.0545 157.79842 162.11751 167.1602 170.1725 174.8786 179.861 184.46089 189.46849 191.4845 196.5488 201.62389 206.32999 209.35399 211.54099 216.68448 221.67948">avgrensninger og </tspan><tspan y="-383.72035" x="153.0545 157.3988 162.0518 166.658 171.3632 176.3294 179.23282 181.24163 183.29633 188.37142 193.02442 195.21141 197.94112 202.65532 210.64553 215.46953 217.65653 220.62653 223.65053 228.47454">vesentlige tema fra </tspan><tspan y="-372.92036" x="153.0545 155.95792 158.02072 163.02472 165.03353 167.08823 172.16332 176.86942 179.88172 184.53472 186.72171 189.74571 194.63092 199.68352 204.77393 209.85352 213.28072 216.16973">tidligere rapport </tspan></text>
<path transform="matrix(1,0,0,-1,256.063,458.82893)" stroke-width=".439" stroke-linecap="butt" stroke-miterlimit="10" stroke-linejoin="miter" fill="none" stroke="#1e5e9e" d="M 0 0 L 10.211 0 "/>
<g id="Layer-1" data-name="Span">
</g>
<g id="Layer-1" data-name="Span">
<text fill="#231f20" xml:space="preserve" transform="matrix(1 0 -0 1 0 841.89)" font-size="9" font-family="Roboto"><tspan y="-394.5203" x="256.063 262.28019 266.98539 272.04789 276.75309 279.76539 284.4373 286.44609 288.52778 293.1808 295.3678 300.4276 305.4811 310.5112 312.6208 316.89579 321.62168 326.62928 328.64527 333.70957 338.78556 343.49076 346.51475 348.70176 353.31694 355.37974 360.44764 365.10066">Generelle opplysninger side </tspan></text>
</g>
<g id="Layer-1" data-name="Span">
<text fill="#1e5e9e" xml:space="preserve" transform="matrix(1 0 -0 1 0 841.89)" font-size="9" font-family="Roboto"><tspan y="-383.7203" x="256.063 261.15699">62</tspan></text>
</g>
<g id="Layer-1" data-name="Span">
<text fill="#939598" xml:space="preserve" transform="matrix(1 0 -0 1 0 841.89)" font-size="10" font-family="Roboto" font-weight="bold"><tspan y="-347.6513" x="76.5354 81.8554 87.7054 93.0834 97.3294 103.1794">102-50</tspan></text>
</g>
<text fill="#231f20" xml:space="preserve" transform="matrix(1 0 -0 1 0 841.89)" font-size="9" font-family="Roboto"><tspan y="-348.0263" x="153.0545 158.91352 163.77172 168.82521 173.88321 178.9907 182.41791 185.1674 189.89241 192.9884 195.0566 200.0939 205.1105 209.71042 214.80442 219.52942 222.62541 224.7458 229.8578 234.89781">Rapporteringsperiode</tspan></text>
<path transform="matrix(1,0,0,-1,256.063,499.9229)" stroke-width=".439" stroke-linecap="butt" stroke-miterlimit="10" stroke-linejoin="miter" fill="none" stroke="#1e5e9e" d="M 0 0 L 10.211 0 "/>
<g id="Layer-1" data-name="Span">
</g>
<g id="Layer-1" data-name="Span">
<text fill="#231f20" xml:space="preserve" transform="matrix(1 0 -0 1 0 841.89)" font-size="9" font-family="Roboto"><tspan y="-353.4263" x="256.063 262.28019 266.98539 272.04789 276.75309 279.76539 284.4373 286.44609 288.52778 293.1808 295.3678 300.4276 305.4811 310.5112 312.6208 316.89579 321.62168 326.62928 328.64527 333.70957 338.78556 343.49076 346.51475 348.70176 353.31694 355.37974 360.44764 365.10066">Generelle opplysninger side </tspan></text>
</g>
<g id="Layer-1" data-name="Span">
<text fill="#1e5e9e" xml:space="preserve" transform="matrix(1 0 -0 1 0 841.89)" font-size="9" font-family="Roboto"><tspan y="-342.6263" x="256.063 261.15699">62</tspan></text>
</g>
<g id="Layer-1" data-name="Span">
<text fill="#939598" xml:space="preserve" transform="matrix(1 0 -0 1 0 841.89)" font-size="10" font-family="Roboto" font-weight="bold"><tspan y="-315.952" x="76.5354 81.8554 87.7024 93.0804 97.3274 102.8014">102-51</tspan></text>
</g>
<text fill="#231f20" xml:space="preserve" transform="matrix(1 0 -0 1 0 841.89)" font-size="9" font-family="Roboto"><tspan y="-316.327" x="153.0545 158.0666 163.14621 166.3205 169.41649 171.51529 176.5913 181.2227 183.4097 186.4778 191.336 196.3886 201.47899 206.5586 209.9858">Forrige rapport</tspan></text>
<path transform="matrix(1,0,0,-1,256.063,531.6221)" stroke-width=".439" stroke-linecap="butt" stroke-miterlimit="10" stroke-linejoin="miter" fill="none" stroke="#1e5e9e" d="M 0 0 L 10.211 0 "/>
<g id="Layer-1" data-name="Span">
</g>
<g id="Layer-1" data-name="Span">
<text fill="#231f20" xml:space="preserve" transform="matrix(1 0 -0 1 0 841.89)" font-size="9" font-family="Roboto"><tspan y="-321.7271" x="256.063 262.28019 266.98539 272.04789 276.75309 279.76539 284.4373 286.44609 288.52778 293.1808 295.3678 300.4276 305.4811 310.5112 312.6208 316.89579 321.62168 326.62928 328.64527 333.70957 338.78556 343.49076 346.51475 348.70176 353.31694 355.37974 360.44764 365.10066">Generelle opplysninger side </tspan></text>
</g>
<g id="Layer-1" data-name="Span">
<text fill="#1e5e9e" xml:space="preserve" transform="matrix(1 0 -0 1 0 841.89)" font-size="9" font-family="Roboto"><tspan y="-310.92713" x="256.063 261.15699">62</tspan></text>
</g>
<g id="Layer-1" data-name="Span">
<text fill="#939598" xml:space="preserve" transform="matrix(1 0 -0 1 0 841.89)" font-size="10" font-family="Roboto" font-weight="bold"><tspan y="-284.2527" x="76.5354 81.8554 87.7024 93.0804 97.3274 103.0094">102-52</tspan></text>
</g>
<text fill="#231f20" xml:space="preserve" transform="matrix(1 0 -0 1 0 841.89)" font-size="9" font-family="Roboto"><tspan y="-284.6277" x="153.0545 158.9135 163.7717 168.8252 173.91469 178.99518 182.42238 185.17099 189.87709 193.0217 195.0377 200.102 205.097 209.72571 214.27971 218.8139 223.33371 225.34972 230.29071">Rapporteringssyklus</tspan></text>
<path transform="matrix(1,0,0,-1,256.063,563.3214)" stroke-width=".439" stroke-linecap="butt" stroke-miterlimit="10" stroke-linejoin="miter" fill="none" stroke="#1e5e9e" d="M 0 0 L 10.211 0 "/>
<g id="Layer-1" data-name="Span">
</g>
<g id="Layer-1" data-name="Span">
<text fill="#231f20" xml:space="preserve" transform="matrix(1 0 -0 1 0 841.89)" font-size="9" font-family="Roboto"><tspan y="-290.0278" x="256.063 262.28019 266.98539 272.04789 276.75309 279.76539 284.4373 286.44609 288.52778 293.1808 295.3678 300.4276 305.4811 310.5112 312.6208 316.89579 321.62168 326.62928 328.64527 333.70957 338.78556 343.49076 346.51475 348.70176 353.31694 355.37974 360.44764 365.10066">Generelle opplysninger side </tspan></text>
</g>
<g id="Layer-1" data-name="Span">
<text fill="#1e5e9e" xml:space="preserve" transform="matrix(1 0 -0 1 0 841.89)" font-size="9" font-family="Roboto"><tspan y="-279.2278" x="256.063 261.15699">62</tspan></text>
</g>
<g id="Layer-1" data-name="Span">
<text fill="#939598" xml:space="preserve" transform="matrix(1 0 -0 1 0 841.89)" font-size="10" font-family="Roboto" font-weight="bold"><tspan y="-252.5535" x="76.5354 81.8554 87.7024 93.0804 97.3274 103.1824">102-53</tspan></text>
</g>
<g id="Layer-1" data-name="Span">
</g>
<text fill="#231f20" xml:space="preserve" transform="matrix(1 0 -0 1 0 841.89)" font-size="9" font-family="Roboto"><tspan y="-258.3285" x="153.0545 158.48871 163.5692 168.5345 171.48111 176.33931 181.06522 183.95423 186.14122 188.94382 194.0243 197.04831 199.2353 203.8838 208.97422 214.05652 217.16332 221.77222 229.76152 234.58553 236.60153">Kontakt for sp&#x00f8;rsm&#x00e5;l </tspan><tspan y="-247.52849" x="153.0545 155.95792 157.96672 159.98273 162.16973 165.19373 170.12303 175.17655 180.26604 185.34653 188.77373 191.52324 196.22844">til rapporten</tspan></text>
<path transform="matrix(1,0,0,-1,256.063,595.02078)" stroke-width=".439" stroke-linecap="butt" stroke-miterlimit="10" stroke-linejoin="miter" fill="none" stroke="#1e5e9e" d="M 0 0 L 10.211 0 "/>
<g id="Layer-1" data-name="Span">
</g>
<g id="Layer-1" data-name="Span">
<text fill="#231f20" xml:space="preserve" transform="matrix(1 0 -0 1 0 841.89)" font-size="9" font-family="Roboto"><tspan y="-258.3285" x="256.063 262.28019 266.98539 272.04789 276.75309 279.76539 284.4373 286.44609 288.52778 293.1808 295.3678 300.4276 305.4811 310.5112 312.6208 316.89579 321.62168 326.62928 328.64527 333.70957 338.78556 343.49076 346.51475 348.70176 353.31694 355.37974 360.44764 365.10066">Generelle opplysninger side </tspan></text>
</g>
<g id="Layer-1" data-name="Span">
<text fill="#1e5e9e" xml:space="preserve" transform="matrix(1 0 -0 1 0 841.89)" font-size="9" font-family="Roboto"><tspan y="-247.52849" x="256.063 261.15699">62</tspan></text>
</g>
<g id="Layer-1" data-name="Span">
<text fill="#939598" xml:space="preserve" transform="matrix(1 0 -0 1 0 841.89)" font-size="10" font-family="Roboto" font-weight="bold"><tspan y="-220.8542" x="76.5354 81.8554 87.7024 93.0804 97.3274 103.2704">102-54</tspan></text>
</g>
<g id="Layer-1" data-name="Span">
</g>
<text fill="#231f20" xml:space="preserve" transform="matrix(1 0 -0 1 0 841.89)" font-size="9" font-family="Roboto"><tspan y="-226.6292" x="153.0545 159.21051 165.0731 167.4671 169.6541 175.36371 178.31032 183.16852 188.21392 193.2539 198.1121 201.13611 206.1401 210.6941">GRI Standards </tspan><tspan y="-215.8292" x="153.0545 156.0785 160.9817 166.03522 171.12471 176.2043 179.6315 182.38101 187.08712 190.23172 192.24773 197.31293 202.30792 206.92583 211.93343 214.02594 218.37834 223.20235">rapporteringsniv&#x00e5; </tspan></text>
<path transform="matrix(1,0,0,-1,256.063,626.72006)" stroke-width=".439" stroke-linecap="butt" stroke-miterlimit="10" stroke-linejoin="miter" fill="none" stroke="#1e5e9e" d="M 0 0 L 10.391 0 "/>
<g id="Layer-1" data-name="Span">
</g>
<g id="Layer-1" data-name="Span">
<text fill="#231f20" xml:space="preserve" transform="matrix(1 0 -0 1 0 841.89)" font-size="9" font-family="Roboto"><tspan y="-226.6292" x="256.063 262.28019 266.98539 272.04789 276.75309 279.76539 284.4373 286.44609 288.52778 293.1808 295.3678 300.4276 305.4811 310.5112 312.6208 316.89579 321.62168 326.62928 328.64527 333.70957 338.78556 343.49076 346.51475 348.70176 353.31694 355.37974 360.44764 365.10066">Generelle opplysninger side </tspan></text>
</g>
<g id="Layer-1" data-name="Span">
<text fill="#1e5e9e" xml:space="preserve" transform="matrix(1 0 -0 1 0 841.89)" font-size="9" font-family="Roboto"><tspan y="-215.8292" x="256.063 261.33699">63</tspan></text>
</g>
<g id="Layer-1" data-name="Span">
<text fill="#939598" xml:space="preserve" transform="matrix(1 0 -0 1 0 841.89)" font-size="10" font-family="Roboto" font-weight="bold"><tspan y="-189.1549" x="76.5354 81.8554 87.7024 93.0804 97.3274 103.1294">102-55</tspan></text>
</g>
<g id="Layer-1" data-name="Span">
<text fill="#231f20" xml:space="preserve" transform="matrix(1 0 -0 1 0 841.89)" font-size="9" font-family="Roboto"><tspan y="-189.5299" x="153.0545 159.21051 165.0731 167.4671 169.6541 171.73671 176.783 181.85 186.5561 190.9562 195.51021 197.6972 200.67441 205.53261 210.62662 215.29853 217.30733">GRI indeks tabell</tspan></text>
</g>
<g id="Layer-1" data-name="Span">
</g>
<text fill="#404041" xml:space="preserve" transform="matrix(1 0 -0 1 0 841.89)" font-size="8" font-family="Roboto" font-weight="bold"><tspan y="-44.7402" x="70.8661 75.6773">88</tspan></text>
<text fill="#404041" xml:space="preserve" transform="matrix(1 0 -0 1 0 841.89)" font-size="7" font-family="Roboto"><tspan y="-29.016" x="70.8661 75.703098 80.2755 82.3622 85.0292 88.8631 93.51949 98.13949 102.16799 106.206989">GRI-TABELL</tspan></text>
<g id="Layer-1" data-name="Artifact">
<clipPath id="cp753">
<path transform="matrix(1,0,0,-1,0,841.89)" d="M 0 0 L 595.276 0 L 595.276 841.89 L 0 841.89 Z "/>
</clipPath>
<g clip-path="url(#cp753)">
<path transform="matrix(1,0,0,-1,1119.685,802.3869)" stroke-width=".5" stroke-linecap="butt" stroke-miterlimit="4" stroke-linejoin="miter" fill="none" stroke="#404041" d="M 0 0 L -1048.819 0 "/>
</g>
<g id="Layer-1" data-name="Span">
</g>
<text fill="#404041" xml:space="preserve" transform="matrix(1 0 -0 1 0 841.89)" font-size="5" font-family="Roboto" font-weight="bold"><tspan y="-805.9686" x="70.8661 74.1961 77.381099 80.3461 82.9486 86.1286 89.6586 92.9886 95.8126 98.9926 102.1776 105.26759 106.512599 109.6926">GRATANGLAKS AS</tspan></text>
</g>
<g id="Layer-1" data-name="Span">
</g>
<g id="Layer-1" data-name="Span">
<text fill="#595959" xml:space="preserve" transform="matrix(1 0 -0 1 0 841.89)" font-size="5" font-family="Roboto"><tspan y="-805.9686" x="119.143 122.428 127.273 130.52301 133.533 136.838 140.088 143.51799 146.50099 149.616 152.75099 156.00099 159.43099 162.75598 166.08098 169.69098 172.74448">B&#x00c6;REKRAFTSRAPPORT</tspan></text>
</g>
<text fill="#404041" xml:space="preserve" transform="matrix(1 0 -0 1 0 841.89)" font-size="5" font-family="Roboto" font-weight="bold"><tspan y="-805.9686" x="179.688 182.558 185.428 188.29799">2020</tspan></text>
<g id="Layer-1" data-name="Artifact">
<clipPath id="cp754">
<path transform="matrix(1,0,0,-1,0,841.89)" d="M 0 0 L 595.276 0 L 595.276 841.89 L 0 841.89 Z "/>
</clipPath>
<g clip-path="url(#cp754)">
<path transform="matrix(1,0,0,-1,70.8661,39.3869)" stroke-width=".5" stroke-linecap="butt" stroke-miterlimit="4" stroke-linejoin="miter" fill="none" stroke="#404041" d="M 0 0 L 1048.819 0 "/>
</g>
</g>
</g>
</g>
</svg>
