<?xml version="1.0" encoding="UTF-8" standalone="no"?>
<!DOCTYPE svg PUBLIC "-//W3C//DTD SVG 1.1//EN" "http://www.w3.org/Graphics/SVG/1.1/DTD/svg11.dtd">
<svg xmlns="http://www.w3.org/2000/svg" xmlns:xlink="http://www.w3.org/1999/xlink" version="1.1" width="595.276pt" height="841.89pt" viewBox="0 0 595.276 841.89">
<g enable-background="new">
<g id="Layer-1" data-name="Span">
</g>
<g id="Layer-1" data-name="Span">
<text fill="#2b3b52" xml:space="preserve" transform="matrix(1 0 -0 1 0 841.89)" font-size="15" font-family="Roboto"><tspan y="-759.7736" x="70.8661 78.48609 86.94459 94.70108 99.97958 108.50409 112.23909 121.46709 129.35709 133.13709 140.92958 148.69658 156.87158 165.37659 173.24858 178.29909 186.09909 189.83409 197.6491 202.5271 211.0396 216.3451 221.4916 229.38309 233.16158 240.89109 248.74358 252.47858 260.96858 269.46458 273.19956 281.70457 294.59709 299.54258 307.72657 316.20457">102-7 Selskapets st&#x00f8;rrelse og omfang</tspan></text>
</g>
<text fill="#404041" xml:space="preserve" transform="matrix(1 0 -0 1 0 841.89)" font-size="9" font-family="Roboto"><tspan y="-735.4736" x="70.8661 77.022098 80.0461 84.922298 87.8689 92.7271 97.7644 102.7594 104.7754 109.6786 114.07869 118.63269 120.81969 126.518489 131.84648 134.03348 139.15987 144.01807 147.04207 149.22907 154.25286 159.23886 161.42586 166.28766 171.27005 175.90595 180.70116 183.86107 186.60968 191.27259 192.99158 195.17858 203.21828 207.92348 212.86447 215.05147 219.82778 222.85178 225.03878 230.18227 235.17726 239.83116 244.65517 246.84217 254.89267 259.61769 264.68467 269.35569 271.43739 276.1435 279.16749 281.3545 283.37049 285.5575 290.341 295.282 297.46903 300.5515 305.25764 309.80714 314.07493 318.72795 320.91496 325.50135 330.17237 332.18296 336.78196 341.24687 346.10597 351.19996 355.90516 359.12446">Gratanglaks AS har 26 ansatte, men er ogs&#x00e5; medeier i en rekke selskaper:</tspan></text>
<g id="Layer-1" data-name="Span">
<text fill="#404041" xml:space="preserve" transform="matrix(1 0 -0 1 0 841.89)" font-size="9" font-family="Roboto"><tspan y="-706.4506" x="90.3907">&#x2022;</tspan></text>
<g id="Layer-2" data-name="Span">
</g>
<text fill="#404041" xml:space="preserve" transform="matrix(1 0 -0 1 0 841.89)" font-size="9" font-family="Roboto"><tspan y="-706.4506" x="93.2977"> </tspan></text>
</g>
<g id="Layer-1" data-name="Span">
</g>
<g id="Layer-1" data-name="Span">
</g>
<text fill="#404041" xml:space="preserve" transform="matrix(1 0 -0 1 0 841.89)" font-size="9" font-family="Roboto"><tspan y="-706.4506" x="113.0678 118.637 123.277408 128.1365 132.86061 137.66661 139.76451 144.16732 146.35433 152.02162">Seacalx AS</tspan></text>
<text fill="#404041" xml:space="preserve" transform="matrix(1 0 -0 1 0 841.89)" font-size="5.247" font-family="Roboto" font-weight="bold"><tspan y="-709.4476" x="157.866">*</tspan></text>
<g id="Layer-1" data-name="Span">
<text fill="#404041" xml:space="preserve" transform="matrix(1 0 -0 1 0 841.89)" font-size="9" font-family="Roboto"><tspan y="-692.4506" x="90.3907">&#x2022;</tspan></text>
<g id="Layer-2" data-name="Span">
</g>
<text fill="#404041" xml:space="preserve" transform="matrix(1 0 -0 1 0 841.89)" font-size="9" font-family="Roboto"><tspan y="-692.4506" x="93.2977"> </tspan></text>
</g>
<g id="Layer-1" data-name="Span">
</g>
<text fill="#404041" xml:space="preserve" transform="matrix(1 0 -0 1 0 841.89)" font-size="9" font-family="Roboto"><tspan y="-692.4506" x="113.0678 119.4299 124.2359 126.348209 131.3081 135.7118 137.89882 144.26183 149.00572 153.31673 157.99492 162.70012 166.11472 170.57872 172.67212 177.37552 182.01052 184.19753 189.86573">H&#x00e5;l&#x00f8;y Havservice AS</tspan></text>
<g id="Layer-1" data-name="Span">
<text fill="#404041" xml:space="preserve" transform="matrix(1 0 -0 1 0 841.89)" font-size="9" font-family="Roboto"><tspan y="-678.4506" x="90.3907">&#x2022;</tspan></text>
<g id="Layer-2" data-name="Span">
</g>
<text fill="#404041" xml:space="preserve" transform="matrix(1 0 -0 1 0 841.89)" font-size="9" font-family="Roboto"><tspan y="-678.4506" x="93.2977"> </tspan></text>
</g>
<g id="Layer-1" data-name="Span">
</g>
<text fill="#404041" xml:space="preserve" transform="matrix(1 0 -0 1 0 841.89)" font-size="9" font-family="Roboto"><tspan y="-678.4506" x="113.0678 118.704509 123.31971 126.26541 131.01381 134.10712 136.25002 141.3305 144.3545 149.3585 151.5455 157.7312 162.4346 167.0876 171.92871 176.8697 179.0567 184.70421 189.52822 191.57752 199.61002 204.6905 209.6315 211.8185 217.5569">Astafjord Ocean Salmon AS</tspan></text>
<g id="Layer-1" data-name="Span">
<text fill="#404041" xml:space="preserve" transform="matrix(1 0 -0 1 0 841.89)" font-size="9" font-family="Roboto"><tspan y="-664.4506" x="90.3907">&#x2022;</tspan></text>
<g id="Layer-2" data-name="Span">
</g>
<text fill="#404041" xml:space="preserve" transform="matrix(1 0 -0 1 0 841.89)" font-size="9" font-family="Roboto"><tspan y="-664.4506" x="93.2977"> </tspan></text>
</g>
<g id="Layer-1" data-name="Span">
</g>
<text fill="#404041" xml:space="preserve" transform="matrix(1 0 -0 1 0 841.89)" font-size="9" font-family="Roboto"><tspan y="-664.4506" x="113.0678 118.704509 123.31971 126.26541 131.01381 134.10712 136.25002 141.3305 144.3545 149.3585 151.5455 157.0661 165.0986 170.1566 172.2617 175.15071 177.3377 183.01491 188.34291">Astafjord Smolt AS </tspan></text>
<g id="Layer-1" data-name="Span">
<text fill="#404041" xml:space="preserve" transform="matrix(1 0 -0 1 0 841.89)" font-size="9" font-family="Roboto"><tspan y="-650.4506" x="90.3907">&#x2022;</tspan></text>
<g id="Layer-2" data-name="Span">
</g>
<text fill="#404041" xml:space="preserve" transform="matrix(1 0 -0 1 0 841.89)" font-size="9" font-family="Roboto"><tspan y="-650.4506" x="93.2977"> </tspan></text>
</g>
<g id="Layer-1" data-name="Span">
</g>
<text fill="#404041" xml:space="preserve" transform="matrix(1 0 -0 1 0 841.89)" font-size="9" font-family="Roboto"><tspan y="-650.4506" x="113.0678 118.704509 123.31971 126.26541 131.01381 134.10712 136.25002 141.3305 144.3545 149.3585 151.5455 156.11841 158.13442 163.01963 167.74553 170.49504 175.20114 178.34575 180.36176">Astafjord slakteri </tspan></text>
<g id="Layer-1" data-name="Span">
<text fill="#404041" xml:space="preserve" transform="matrix(1 0 -0 1 0 841.89)" font-size="9" font-family="Roboto"><tspan y="-636.4506" x="90.3907">&#x2022;</tspan></text>
<g id="Layer-2" data-name="Span">
</g>
<text fill="#404041" xml:space="preserve" transform="matrix(1 0 -0 1 0 841.89)" font-size="9" font-family="Roboto"><tspan y="-636.4506" x="93.2977"> </tspan></text>
</g>
<g id="Layer-1" data-name="Span">
</g>
<text fill="#404041" xml:space="preserve" transform="matrix(1 0 -0 1 0 841.89)" font-size="9" font-family="Roboto"><tspan y="-636.4506" x="113.0678 118.267108 122.54211 127.28331 130.21552 135.2528 140.3549 143.25832 145.27433 149.85173 154.11954 158.82474 163.76573 165.95273 171.69113 177.01914">Kystbutikken AS </tspan></text>
<g id="Layer-1" data-name="Span">
<text fill="#404041" xml:space="preserve" transform="matrix(1 0 -0 1 0 841.89)" font-size="9" font-family="Roboto"><tspan y="-622.4506" x="90.3907">&#x2022;</tspan></text>
<g id="Layer-2" data-name="Span">
</g>
<text fill="#404041" xml:space="preserve" transform="matrix(1 0 -0 1 0 841.89)" font-size="9" font-family="Roboto"><tspan y="-622.4506" x="93.2977"> </tspan></text>
</g>
<g id="Layer-1" data-name="Span">
</g>
<text fill="#404041" xml:space="preserve" transform="matrix(1 0 -0 1 0 841.89)" font-size="9" font-family="Roboto"><tspan y="-622.4506" x="113.0678 118.702709 123.506908 128.1176 132.7238 137.429 140.57361 142.65532 147.33263 150.22164 152.40863 158.08583 163.41384">Kasseriet AS </tspan></text>
<g id="Layer-1" data-name="Span">
<text fill="#404041" xml:space="preserve" transform="matrix(1 0 -0 1 0 841.89)" font-size="9" font-family="Roboto"><tspan y="-608.4506" x="90.3907">&#x2022;</tspan></text>
<g id="Layer-2" data-name="Span">
</g>
<text fill="#404041" xml:space="preserve" transform="matrix(1 0 -0 1 0 841.89)" font-size="9" font-family="Roboto"><tspan y="-608.4506" x="93.2977"> </tspan></text>
</g>
<g id="Layer-1" data-name="Span">
</g>
<g id="Layer-1" data-name="Span">
</g>
<g id="Layer-1" data-name="Span">
</g>
<g id="Layer-1" data-name="Span">
</g>
<g id="Layer-1" data-name="Span">
</g>
<g id="Layer-1" data-name="Span">
</g>
<g id="Layer-1" data-name="Span">
</g>
<g id="Layer-1" data-name="Span">
</g>
<g id="Layer-1" data-name="Span">
</g>
<g id="Layer-1" data-name="Span">
<text fill="#404041" xml:space="preserve" transform="matrix(1 0 -0 1 0 841.89)" font-size="9" font-family="Roboto"><tspan y="-608.4506" x="113.0678 119.4983 124.577899 127.949298 134.67769 139.3487 141.3575 143.3735 145.5605 151.2584">Norwell AS</tspan></text>
<text fill="#404041" xml:space="preserve" transform="matrix(1 0 -0 1 0 841.89)" font-size="9" font-family="Roboto"><tspan y="-706.4516" x="263.2778 268.0118 273.32093 278.51396">100%</tspan><tspan y="-692.4476" x="263.2778 268.5428 273.73579">50%</tspan><tspan y="-678.44357" x="263.2778 268.5428 273.73579">50%</tspan><tspan y="-664.4395" x="263.2778 268.62834 273.87535 275.92466 281.04566 286.22969 292.8177">48,85% </tspan><tspan y="-650.4355" x="263.2778 268.53834 273.82496 275.79597 281.10508 286.1955 291.37953">45,005%</tspan><tspan y="-636.43148" x="263.2778 267.91459 272.27958 274.36759 279.47059 284.27479 288.85127 295.44285">17,241% </tspan><tspan y="-622.4274" x="263.2778 268.0118 273.20393 279.79643">10% </tspan><tspan y="-608.4234" x="263.2778 268.5599 270.5048 275.68879">2,5%</tspan></text>
</g>
<g id="Layer-1" data-name="Span">
</g>
<text fill="#2b3b52" xml:space="preserve" transform="matrix(1 0 -0 1 0 841.89)" font-size="12" font-family="Roboto"><tspan y="-521.0045" x="72.4241 78.460109 85.013309 91.8413 98.1665 101.20609 104.31769 107.305698 113.41969 120.198497 126.420497 130.6565 137.4773">Tabell 102-7 </tspan></text>
<path transform="matrix(1,0,0,-1,70.8661,359.7058)" stroke-width="1" stroke-linecap="butt" stroke-miterlimit="10" stroke-linejoin="miter" fill="none" stroke="#231f20" d="M 0 0 L 130.835 0 "/>
<path transform="matrix(1,0,0,-1,201.7011,359.7058)" stroke-width="1" stroke-linecap="butt" stroke-miterlimit="10" stroke-linejoin="miter" fill="none" stroke="#231f20" d="M 0 0 L 64.504 0 "/>
<path transform="matrix(1,0,0,-1,266.2054,359.7058)" stroke-width="1" stroke-linecap="butt" stroke-miterlimit="10" stroke-linejoin="miter" fill="none" stroke="#231f20" d="M 0 0 L 64.504 0 "/>
<path transform="matrix(1,0,0,-1,330.7098,359.7058)" stroke-width="1" stroke-linecap="butt" stroke-miterlimit="10" stroke-linejoin="miter" fill="none" stroke="#231f20" d="M 0 0 L 64.504 0 "/>
<path transform="matrix(1,0,0,-1,395.2141,359.7058)" stroke-width="1" stroke-linecap="butt" stroke-miterlimit="10" stroke-linejoin="miter" fill="none" stroke="#231f20" d="M 0 0 L 64.504 0 "/>
<path transform="matrix(1,0,0,-1,459.7184,359.7058)" stroke-width="1" stroke-linecap="butt" stroke-miterlimit="10" stroke-linejoin="miter" fill="none" stroke="#231f20" d="M 0 0 L 64.504 0 "/>
<g id="Layer-1" data-name="Span">
</g>
<g id="Layer-1" data-name="Span">
<text fill="#231f20" xml:space="preserve" transform="matrix(1 0 -0 1 0 841.89)" font-size="9" font-family="Roboto"><tspan y="-488.5832" x="74.8661 81.4145 85.7615 90.865398 94.1234 100.2101">Hva/&#x00c5;r</tspan></text>
</g>
<g id="Layer-1" data-name="Span">
</g>
<g id="Layer-1" data-name="Span">
</g>
<g id="Layer-1" data-name="Span">
</g>
<g id="Layer-1" data-name="Span">
</g>
<g id="Layer-1" data-name="Span">
<text fill="#2a3b52" xml:space="preserve" transform="matrix(1 0 -0 1 0 841.89)" font-size="12" font-family="Roboto" font-weight="bold"><tspan y="-487.4582" x="235.8376 242.6272 249.09279 255.32079 300.4336 307.2232 313.69004 319.82566 364.89759 371.68717 378.15397 384.32435 429.45759 436.24717 442.71397 448.83396 492.84159 499.63359 506.54319 513.3352">20162017201820192020</tspan></text>
</g>
<g id="Layer-1" data-name="Span">
</g>
<g id="Layer-1" data-name="Span">
<text fill="#231f20" xml:space="preserve" transform="matrix(1 0 -0 1 0 841.89)" font-size="9" font-family="Roboto"><tspan y="-466.4303" x="79.3701 85.054508 89.95051 92.96911 97.793109 99.8028 101.8458 104.0328 108.891 113.873409 118.50931 123.28831 126.46621 129.21572 248.3541 252.7101">Antall ansatte15</tspan></text>
</g>
<g id="Layer-1" data-name="Span">
</g>
<g id="Layer-1" data-name="Span">
</g>
<g id="Layer-1" data-name="Span">
</g>
<g id="Layer-1" data-name="Span">
<text fill="#2b3b52" xml:space="preserve" transform="matrix(1 0 -0 1 0 841.89)" font-size="9" font-family="Roboto"><tspan y="-466.4303" x="312.8571 317.21308 376.64909 381.71607 441.18809 446.2191 505.7451 510.72209">15202326</tspan></text>
</g>
<g id="Layer-1" data-name="Span">
</g>
<g id="Layer-1" data-name="Span">
</g>
<g id="Layer-1" data-name="Span">
</g>
<g id="Layer-1" data-name="Span">
</g>
<g id="Layer-1" data-name="Span">
</g>
<g id="Layer-1" data-name="Span">
</g>
<g id="Layer-1" data-name="Span">
</g>
<g id="Layer-1" data-name="Span">
</g>
<g id="Layer-1" data-name="Span">
</g>
<g id="Layer-1" data-name="Span">
</g>
<g id="Layer-1" data-name="Span">
</g>
<g id="Layer-1" data-name="Span">
</g>
<g id="Layer-1" data-name="Span">
</g>
<g id="Layer-1" data-name="Span">
</g>
<g id="Layer-1" data-name="Span">
</g>
<g id="Layer-1" data-name="Span">
</g>
<g id="Layer-1" data-name="Span">
</g>
<g id="Layer-1" data-name="Span">
</g>
<g id="Layer-1" data-name="Span">
</g>
<g id="Layer-1" data-name="Span">
</g>
<g id="Layer-1" data-name="Span">
</g>
<g id="Layer-1" data-name="Span">
</g>
<g id="Layer-1" data-name="Span">
</g>
<g id="Layer-1" data-name="Span">
</g>
<g id="Layer-1" data-name="Span">
</g>
<g id="Layer-1" data-name="Span">
</g>
<g id="Layer-1" data-name="Span">
</g>
<g id="Layer-1" data-name="Span">
</g>
<g id="Layer-1" data-name="Span">
<text fill="#231f20" xml:space="preserve" transform="matrix(1 0 -0 1 0 841.89)" font-size="9" font-family="Roboto"><tspan y="-442.6703" x="79.361087 85.778987 90.45628 93.61619 96.36119 101.409297 106.0452 110.869197 112.9239 117.9333">Nettosalg </tspan><tspan y="-431.8703" x="79.361087 82.34998 84.36598 86.55298 91.11058 96.34318 101.575778 106.561779 108.74877 115.19097 121.338878 127.12498">(i 1000 NOK)</tspan><tspan y="-437.2703" x="224.71108 229.95899 235.26268 240.24869 242.43569 247.49909 252.70829 290.04209 295.11088 300.16618 305.15217 307.33918 312.23966 317.20945 353.52809 358.59687 363.84477 368.83076 371.01777 376.32145 381.71064 418.67008 423.72987 428.75547 433.74147 435.92848 441.08366 446.21635 483.43409 488.47679 493.57078 498.55677 500.74378 505.71717 510.71665">343 558369 527368 644328 066356 273</tspan><tspan y="-408.1103" x="79.35208 87.15328 92.01148 95.18578 99.45358 104.17858 109.18258 113.75008 118.093479 122.799579 125.82358 130.82758 132.84358">Markedsverdi </tspan><tspan y="-397.3103" x="79.35208 82.14658 87.22618 90.25018 95.318088 99.98908 102.09508 104.98408 107.171077 112.23177 117.05577 119.24277 124.49337 126.62367 131.29468 133.35839">fordelt p&#x00e5; gjeld</tspan><tspan y="-402.7103" x="225.56609 230.09308 235.32569 240.31349 242.50049 247.4316 252.6966 294.7671 299.7414 304.72923 306.91624 312.06425 317.21226 359.48609 364.57737 369.56336 371.75038 376.70936 381.70884 424.2411 429.3324 434.3202 436.5072 440.9892 446.21549 484.03709 488.39308 493.51228 498.50007 500.68708 505.74238 510.71665">100 25495 99996 07396 188122 695</tspan><tspan y="-373.5503" x="79.361087 87.162288 92.020488 95.194789 99.462589 104.187587 109.19158 113.75908 118.10248 122.80858 125.83258 130.83658 132.85259">Markedsverdi </tspan><tspan y="-362.7503" x="79.361087 82.15559 87.23518 90.259189 95.32709 99.998088 102.10408 104.99308 107.18008 112.240779 117.06477 119.25177 123.98397 129.05907 133.76517 138.80156 143.40866">fordelt p&#x00e5; egenk.</tspan><tspan y="-368.1503" x="225.25107 230.22808 235.28337 240.27118 242.45818 247.67188 252.70468 289.94306 295.10545 300.17424 305.16023 307.34724 312.1928 317.2058 354.30207 359.54997 364.41716 369.40315 371.59016 376.61485 381.71333 420.21809 425.01689 429.8418 434.82963 437.01664 441.77314 446.21015 483.33509 488.13209 493.25129 498.23908 500.42607 505.61366 510.71665">269 605336 767349 593424 916422 086</tspan><tspan y="-338.9903" x="79.361087 84.45868 89.31688 93.71698 98.27098 100.45798 105.542079 108.56608 113.65108 118.68478 123.62578 128.30399 133.00919 136.43639 139.3254 141.51239 143.5284">Laks produsert i </tspan><tspan y="-328.1903" x="79.361087 82.10609 87.19469 92.23199">tonn</tspan></text>
<text fill="#231f20" xml:space="preserve" transform="matrix(1 0 -0 1 0 841.89)" font-size="5.247" font-family="Roboto" font-weight="bold"><tspan y="-331.1958" x="97.5501">*</tspan></text>
<text fill="#231f20" xml:space="preserve" transform="matrix(1 0 -0 1 0 841.89)" font-size="9" font-family="Roboto"><tspan y="-333.5988" x="235.3621 240.34812 242.53511 247.56882 252.71411 299.6941 304.68009 306.8671 312.0034 317.2216 364.59309 369.58088 371.76789 376.74488 381.72187 429.7981 434.78593 436.97294 441.77177 446.21778 493.35609 498.34208 500.52909 505.68608 510.72877">7 2397 6636 7267 6198 035</tspan></text>
</g>
<g id="Layer-1" data-name="Span">
</g>
<g id="Layer-1" data-name="Span">
</g>
<g id="Layer-1" data-name="Span">
</g>
<g id="Layer-1" data-name="Span">
<text fill="#404041" xml:space="preserve" transform="matrix(1 0 -0 1 0 841.89)" font-size="9" font-family="Roboto"><tspan y="-579.4248" x="70.86008 77.016078 82.73108 85.12508 87.69907 90.723079 95.54707 100.53307 105.51907 110.559078 115.22738 118.11638 122.76938 125.79338 127.80938 132.75038 137.74538 142.39838 147.33937 149.52637 154.56636 162.54036 167.48136 172.30536 177.24636 182.25035 184.26636 188.91936 191.94336 194.13036 199.11637 203.94037 207.34508 211.99808 214.18508 220.34108 223.36508 228.18909 231.0781 235.9021 240.8431 245.83809 247.8541 252.6781 257.0881 261.6421 263.8291 269.4541 274.7821">GRI-rapporteringen omhandler bare Gratanglaks AS.</tspan></text>
<text fill="#404041" xml:space="preserve" transform="matrix(1 0 -0 1 0 841.89)" font-size="5.247" font-family="Roboto" font-weight="bold" font-style="italic"><tspan y="-568.1745" x="70.8661">*</tspan></text>
<text fill="#404041" xml:space="preserve" transform="matrix(1 0 -0 1 0 841.89)" font-size="9" font-family="Roboto" font-style="italic"><tspan y="-565.1775" x="73.0618 78.4798 83.1148 87.9568 92.591808 97.43381 99.47681 103.87781 106.064807 111.5818 116.9998 119.1868 124.1998 126.2428 130.87779 133.06479 137.4838 139.60779 144.62079 149.63379 152.53179 154.71878 156.84278 161.85578 163.89878 165.94178 168.12877 173.11478 178.10077 183.08676 188.07276">Seacalx AS ble kj&#x00f8;pt juli 2020.</tspan></text>
<text fill="#404041" xml:space="preserve" transform="matrix(1 0 -0 1 0 841.89)" font-size="5" font-family="Roboto" font-weight="bold"><tspan y="-805.9686" x="70.8661 74.1961 77.381099 80.3461 82.9486 86.1286 89.6586 92.9886 95.8126 98.9926 102.1776 105.26759 106.512599 109.6926">GRATANGLAKS AS</tspan></text>
</g>
<g id="Layer-1" data-name="Span">
<text fill="#595959" xml:space="preserve" transform="matrix(1 0 -0 1 0 841.89)" font-size="5" font-family="Roboto"><tspan y="-805.9686" x="119.1411 122.4261 127.2711 130.5211 133.5311 136.83609 140.08609 143.51609 146.49909 149.61409 152.74909 155.99909 159.42908 162.75408 166.07907 169.68907 172.74257">B&#x00c6;REKRAFTSRAPPORT</tspan></text>
</g>
<text fill="#404041" xml:space="preserve" transform="matrix(1 0 -0 1 0 841.89)" font-size="5" font-family="Roboto" font-weight="bold"><tspan y="-805.9686" x="179.6861 182.55609 185.42609 188.29608">2020</tspan></text>
<g id="Layer-1" data-name="Artifact">
<clipPath id="cp594">
<path transform="matrix(1,0,0,-1,0,841.89)" d="M 0 0 L 595.276 0 L 595.276 841.89 L 0 841.89 Z "/>
</clipPath>
<g clip-path="url(#cp594)">
<path transform="matrix(1,0,0,-1,70.8661,39.3869)" stroke-width=".5" stroke-linecap="butt" stroke-miterlimit="4" stroke-linejoin="miter" fill="none" stroke="#404041" d="M 0 0 L 1048.819 0 "/>
</g>
<g id="Layer-1" data-name="Span">
</g>
<text fill="#404041" xml:space="preserve" transform="matrix(1 0 -0 1 0 841.89)" font-size="8" font-family="Roboto" font-weight="bold"><tspan y="-44.7402" x="70.8661 75.6213">56</tspan></text>
</g>
<g id="Layer-1" data-name="Span">
</g>
<text fill="#404041" xml:space="preserve" transform="matrix(1 0 -0 1 0 841.89)" font-size="7" font-family="Roboto"><tspan y="-29.016" x="70.8661 75.703098 79.73159 84.82059 88.84908 93.455089 97.48358 101.52258 105.56228 109.43818 111.18118 116.13508 120.72568 125.31628 128.77498 133.24518 137.70418 142.76099 144.90158 149.99059 154.82759 158.8561">GENERELLE OPPLYSNINGER</tspan></text>
<g id="Layer-1" data-name="Artifact">
<clipPath id="cp595">
<path transform="matrix(1,0,0,-1,0,841.89)" d="M 0 0 L 595.276 0 L 595.276 841.89 L 0 841.89 Z "/>
</clipPath>
<g clip-path="url(#cp595)">
<path transform="matrix(1,0,0,-1,1119.685,802.3869)" stroke-width=".5" stroke-linecap="butt" stroke-miterlimit="4" stroke-linejoin="miter" fill="none" stroke="#404041" d="M 0 0 L -1048.819 0 "/>
</g>
<g id="Layer-1" data-name="Span">
</g>
<text fill="#404041" xml:space="preserve" transform="matrix(1 0 -0 1 0 841.89)" font-size="5.247" font-family="Roboto" font-weight="bold" font-style="italic"><tspan y="-296.6696" x="70.8661">*</tspan></text>
</g>
<g id="Layer-1" data-name="Span">
</g>
<text fill="#404041" xml:space="preserve" transform="matrix(1 0 -0 1 0 841.89)" font-size="9" font-family="Roboto" font-style="italic"><tspan y="-293.6725" x="73.0618 78.0748 80.9728 85.6078 90.620807 92.8078 97.3888 101.7898 103.8328 108.8458 113.8588 117.4318 122.4448 127.4578 132.4708 134.65779 137.07479 139.49079 144.07178">uten svinn/d&#x00f8;d fisk</tspan></text>
</g>
</svg>
