<?xml version="1.0" encoding="UTF-8" standalone="no"?>
<!DOCTYPE svg PUBLIC "-//W3C//DTD SVG 1.1//EN" "http://www.w3.org/Graphics/SVG/1.1/DTD/svg11.dtd">
<svg xmlns="http://www.w3.org/2000/svg" xmlns:xlink="http://www.w3.org/1999/xlink" version="1.1" width="595.276pt" height="841.89pt" viewBox="0 0 595.276 841.89">
<g enable-background="new">
<g>
<path transform="matrix(1,0,0,-1,204.9782,214.107)" stroke-width=".439" stroke-linecap="butt" stroke-miterlimit="10" stroke-linejoin="miter" fill="none" stroke="#1e5e9e" d="M 0 0 L 23.861 0 "/>
<g id="Layer-1" data-name="Span">
</g>
<g id="Layer-1" data-name="Span">
<text fill="#404041" xml:space="preserve" transform="matrix(1 0 -0 1 0 841.89)" font-size="9" font-family="Roboto"><tspan y="-628.4421" x="70.8661 77.022098 82.8847 85.278697 87.46569 89.91279 94.95819 100.02609 104.69529 109.06929 111.25629 114.23349 119.09169 124.18659 128.8576 130.86731 132.88332 135.07032 139.56221 144.42041 149.3614 151.5484 153.6994 158.3524 162.9586 167.6116 172.1656 174.3526 179.43579 184.2598 186.4468 191.02779 193.09149 198.1585 202.8115">GRI Index tabell kan leses p&#x00e5; side </tspan></text>
</g>
<g id="Layer-1" data-name="Span">
</g>
<g id="Layer-1" data-name="Span">
</g>
<g id="Layer-1" data-name="Span">
<text fill="#1e5e9e" xml:space="preserve" transform="matrix(1 0 -0 1 0 841.89)" font-size="9" font-family="Roboto"><tspan y="-628.4421" x="204.9751 210.2131 215.43309 219.4381 224.6131">86-87</tspan></text>
</g>
<g id="Layer-1" data-name="Span">
</g>
<g id="Layer-1" data-name="Span">
<text fill="#404041" xml:space="preserve" transform="matrix(1 0 -0 1 0 841.89)" font-size="9" font-family="Roboto"><tspan y="-628.4421" x="228.83409">.</tspan><tspan y="-735.2541" x="70.8571 77.00951 81.71561 86.75201 91.81451 96.46751 98.1424 101.166408 106.0696 111.1222 116.2126 121.2922 124.7194 127.468898 132.175 137.116 138.88449 143.58969 146.6137 148.3579 153.45999 156.4066 161.2648 164.4391 169.53401 174.20502 176.26873 181.33573 186.01393 188.90294 190.60573 192.62174 194.34523 198.98113 203.84743 211.80252 216.37003 220.72333 225.58153 228.60553 230.34883 238.38404 243.10814 248.11214 249.81403 255.97003 261.83265 264.22666 265.96366 271.63096 274.56407 277.58805 282.49125 287.53755 292.57664 297.43486 300.45884 305.46284 310.1437 311.8627 313.5628 318.57133 320.6629 325.0162 329.8402 331.55024 337.45063 342.53114 345.54344 350.16316">Denne rapporten er utarbeidet i samsvar med GRI Strandards, niv&#x00e5; Core.</tspan></text>
</g>
<text fill="#2b3b52" xml:space="preserve" transform="matrix(1 0 -0 1 0 841.89)" font-size="15" font-family="Roboto"><tspan y="-759.7736" x="70.8661 78.487598 86.944599 94.7011 100.966609 109.644107 118.16411 121.89911 131.8876 141.30461 145.62462 149.35962 158.74063 163.85263 172.03664 180.56114 189.00615 197.18115 202.35166 210.78916 218.58916 222.32416 227.48715 235.66365 244.19416 252.70667 261.21467 266.87269 271.7657 279.7067 284.9507 288.80574 297.28373 305.7437 313.5437 322.0022 325.8377 333.17274 341.33274 345.06773 349.5617 359.1602 367.66819 372.8162 380.6612 384.39619 392.29368 396.0752 399.9332 407.8727 413.13774 416.8727 426.47273 434.9807 448.0307 456.5612 461.7092 469.65769 478.1342 486.08119 494.49467 502.21965 506.05665 513.39016 520.6966">102-54 GRI Standards rapporteringsniv&#x00e5; (Core eller Comprehensive)</tspan></text>
<g id="Layer-1" data-name="Artifact">
<clipPath id="cp647">
<path transform="matrix(1,0,0,-1,0,841.89)" d="M 0 0 L 595.276 0 L 595.276 841.89 L 0 841.89 Z "/>
</clipPath>
<g clip-path="url(#cp647)">
<filter id="blend_3"><feBlend mode="overlay" in2="BackgroundImage" in="SourceGraphic"/></filter>
<g filter="url(#blend_3)">
<clipPath id="cp648">
<path transform="matrix(1,0,0,-1,0,841.89)" d="M 69.8661 592.519 L 525.409 592.519 L 525.409 595.019 L 69.8661 595.019 Z "/>
</clipPath>
<g clip-path="url(#cp648)">
<path transform="matrix(1,0,0,-1,70.8661,248.12079)" stroke-width=".5" stroke-linecap="butt" stroke-miterlimit="4" stroke-linejoin="miter" fill="none" stroke="#b9bbbd" d="M 0 0 L 453.543 0 "/>
</g>
</g>
</g>
<g id="Layer-1" data-name="Span">
</g>
<text fill="#2b3b52" xml:space="preserve" transform="matrix(1 0 -0 1 0 841.89)" font-size="15" font-family="Roboto"><tspan y="-652.9644" x="70.8661 78.487598 86.944599 94.7011 100.966609 109.372608 117.89261 121.62761 131.6161 141.0331 145.3531 149.0881 153.32411 161.84862 170.33863 178.18363 185.78862 189.52362 194.63413 202.80913 211.32913 219.22063 223.00212">102-55 GRI Index tabell</tspan></text>
</g>
<g id="Layer-1" data-name="Artifact">
<clipPath id="cp649">
<path transform="matrix(1,0,0,-1,0,841.89)" d="M 0 0 L 595.276 0 L 595.276 841.89 L 0 841.89 Z "/>
</clipPath>
<g clip-path="url(#cp649)">
<g filter="url(#blend_3)">
<clipPath id="cp650">
<path transform="matrix(1,0,0,-1,0,841.89)" d="M 69.8661 697.638 L 525.409 697.638 L 525.409 700.138 L 69.8661 700.138 Z "/>
</clipPath>
<g clip-path="url(#cp650)">
<path transform="matrix(1,0,0,-1,70.8661,143.00244)" stroke-width=".5" stroke-linecap="butt" stroke-miterlimit="4" stroke-linejoin="miter" fill="none" stroke="#b9bbbd" d="M 0 0 L 453.543 0 "/>
</g>
</g>
</g>
<g id="Layer-1" data-name="Span">
</g>
<text fill="#404041" xml:space="preserve" transform="matrix(1 0 -0 1 0 841.89)" font-size="7" font-family="Roboto"><tspan y="-29.016" x="431.9652 436.80223 440.83073 445.9197 449.9482 454.5542 458.5827 462.6217 466.6614 470.53733 472.28034 477.23426 481.82487 486.41548 489.87419 494.34437 498.80339 503.86018 506.0008 511.08979 515.92678 519.95529">GENERELLE OPPLYSNINGER</tspan></text>
</g>
<g id="Layer-1" data-name="Span">
</g>
<text fill="#404041" xml:space="preserve" transform="matrix(1 0 -0 1 0 841.89)" font-size="8" font-family="Roboto" font-weight="bold"><tspan y="-44.7402" x="515.2297 519.82168">63</tspan></text>
<g id="Layer-1" data-name="Artifact">
<clipPath id="cp651">
<path transform="matrix(1,0,0,-1,0,841.89)" d="M 0 0 L 595.276 0 L 595.276 841.89 L 0 841.89 Z "/>
</clipPath>
<g clip-path="url(#cp651)">
<path transform="matrix(1,0,0,-1,524.4094,802.3869)" stroke-width=".5" stroke-linecap="butt" stroke-miterlimit="4" stroke-linejoin="miter" fill="none" stroke="#404041" d="M 0 0 L -1048.819 0 "/>
</g>
<g id="Layer-1" data-name="Span">
</g>
<text fill="#404041" xml:space="preserve" transform="matrix(1 0 -0 1 0 841.89)" font-size="5" font-family="Roboto" font-weight="bold"><tspan y="-805.9686" x="403.742 407.072 410.257 413.222 415.8245 419.0045 422.5345 425.86448 428.68849 431.86848 435.05348 438.14347 439.38847 442.56846">GRATANGLAKS AS</tspan></text>
</g>
<g id="Layer-1" data-name="Span">
</g>
<g id="Layer-1" data-name="Span">
<text fill="#595959" xml:space="preserve" transform="matrix(1 0 -0 1 0 841.89)" font-size="5" font-family="Roboto"><tspan y="-805.9686" x="452.0188 455.3038 460.1488 463.3988 466.4088 469.7138 472.9638 476.3938 479.3768 482.4918 485.6268 488.8768 492.3068 495.6318 498.95683 502.5668 505.6203">B&#x00c6;REKRAFTSRAPPORT</tspan></text>
</g>
<text fill="#404041" xml:space="preserve" transform="matrix(1 0 -0 1 0 841.89)" font-size="5" font-family="Roboto" font-weight="bold"><tspan y="-805.9686" x="512.5638 515.4338 518.3038 521.17379">2020</tspan></text>
<g id="Layer-1" data-name="Artifact">
<clipPath id="cp652">
<path transform="matrix(1,0,0,-1,0,841.89)" d="M 0 0 L 595.276 0 L 595.276 841.89 L 0 841.89 Z "/>
</clipPath>
<g clip-path="url(#cp652)">
<path transform="matrix(1,0,0,-1,-524.4094,39.3869)" stroke-width=".5" stroke-linecap="butt" stroke-miterlimit="4" stroke-linejoin="miter" fill="none" stroke="#404041" d="M 0 0 L 1048.819 0 "/>
</g>
</g>
</g>
</g>
</svg>
