<?xml version="1.0" encoding="UTF-8" standalone="no"?>
<!DOCTYPE svg PUBLIC "-//W3C//DTD SVG 1.1//EN" "http://www.w3.org/Graphics/SVG/1.1/DTD/svg11.dtd">
<svg xmlns="http://www.w3.org/2000/svg" xmlns:xlink="http://www.w3.org/1999/xlink" version="1.1" width="595.276pt" height="841.89pt" viewBox="0 0 595.276 841.89">
<g enable-background="new">
<g>
<path transform="matrix(1,0,0,-1,0,841.89)" d="M 70.866 240.699 L 201.701 240.699 L 201.701 213.224 L 70.866 213.224 Z M 201.701 240.699 L 266.20503 240.699 L 266.20503 213.224 L 201.701 213.224 Z M 266.205 240.699 L 330.70899 240.699 L 330.70899 213.224 L 266.205 213.224 Z M 330.71 240.699 L 395.214 240.699 L 395.214 213.224 L 330.71 213.224 Z M 395.214 240.699 L 459.718 240.699 L 459.718 213.224 L 395.214 213.224 Z M 459.718 240.699 L 524.222 240.699 L 524.222 213.224 L 459.718 213.224 Z " fill="#f1f7e8"/>
<path transform="matrix(1,0,0,-1,70.8661,601.1915)" stroke-width="1" stroke-linecap="butt" stroke-miterlimit="10" stroke-linejoin="miter" fill="none" stroke="#231f20" d="M 0 0 L 130.835 0 "/>
<path transform="matrix(1,0,0,-1,201.7011,601.1915)" stroke-width="1" stroke-linecap="butt" stroke-miterlimit="10" stroke-linejoin="miter" fill="none" stroke="#231f20" d="M 0 0 L 64.504 0 "/>
<path transform="matrix(1,0,0,-1,266.2054,601.1915)" stroke-width="1" stroke-linecap="butt" stroke-miterlimit="10" stroke-linejoin="miter" fill="none" stroke="#231f20" d="M 0 0 L 64.504 0 "/>
<path transform="matrix(1,0,0,-1,330.7098,601.1915)" stroke-width="1" stroke-linecap="butt" stroke-miterlimit="10" stroke-linejoin="miter" fill="none" stroke="#231f20" d="M 0 0 L 64.504 0 "/>
<path transform="matrix(1,0,0,-1,395.2141,601.1915)" stroke-width="1" stroke-linecap="butt" stroke-miterlimit="10" stroke-linejoin="miter" fill="none" stroke="#231f20" d="M 0 0 L 64.504 0 "/>
<path transform="matrix(1,0,0,-1,459.7184,601.1915)" stroke-width="1" stroke-linecap="butt" stroke-miterlimit="10" stroke-linejoin="miter" fill="none" stroke="#231f20" d="M 0 0 L 64.504 0 "/>
<g id="Layer-1" data-name="Span">
</g>
<g id="Layer-1" data-name="Span">
</g>
<g id="Layer-1" data-name="Span">
</g>
<g id="Layer-1" data-name="Span">
</g>
<g id="Layer-1" data-name="Span">
</g>
<g id="Layer-1" data-name="Span">
</g>
<g id="Layer-1" data-name="Span">
<text fill="#404041" xml:space="preserve" transform="matrix(1 0 -0 1 0 841.89)" font-size="9" font-family="Roboto"><tspan y="-247.0975" x="74.8661 80.3903 85.2863 90.2543 95.222309 98.34531 103.4753 106.5173 111.56631 114.60831 119.56731">Vannforbruk</tspan></text>
<text fill="#404041" xml:space="preserve" transform="matrix(1 0 -0 1 0 841.89)" font-size="12" font-family="Roboto" font-weight="bold"><tspan y="-245.9725" x="234.6664 241.5544 248.4424 255.3304 299.16639 306.05439 312.94239 319.83039 363.66639 370.55439 377.44239 384.33039 428.16639 435.05439 441.94239 448.83039 492.66639 499.55439 506.44239 513.3304">20162017201820192020</tspan></text>
</g>
<g id="Layer-1" data-name="Span">
</g>
<g id="Layer-1" data-name="Span">
<text fill="#231f20" xml:space="preserve" transform="matrix(1 0 -0 1 0 841.89)" font-size="9" font-family="Roboto"><tspan y="-223.3362" x="74.8661 79.6091 81.6251 84.5141 89.1671 92.1911 94.3781 98.9924 103.8164 108.7574 235.0751 240.0611 245.04709 247.23409 252.2201 257.2061">Liter vann66 000</tspan></text>
</g>
<g id="Layer-1" data-name="Span">
</g>
<g id="Layer-1" data-name="Span">
</g>
<g id="Layer-1" data-name="Span">
</g>
<text fill="#2b3b52" xml:space="preserve" transform="matrix(1 0 -0 1 0 841.89)" font-size="9" font-family="Roboto"><tspan y="-223.3362" x="299.5781 304.5641 309.55009 311.7371 316.72309 321.70909 364.0811 369.06709 374.05308 376.24009 381.22608 386.21208 428.58409 433.57008 438.55607 440.74308 445.72908 450.71507 493.08708 498.07307 503.05906 505.24607 510.23207 515.2181">66 00048 00048 00040 000</tspan></text>
<g id="Layer-1" data-name="Span">
</g>
<g id="Layer-1" data-name="Span">
</g>
<g id="Layer-1" data-name="Span">
</g>
<g id="Layer-1" data-name="Span">
</g>
<g id="Layer-1" data-name="Span">
</g>
<g id="Layer-1" data-name="Span">
</g>
<g id="Layer-1" data-name="Span">
</g>
<g id="Layer-1" data-name="Span">
</g>
<g id="Layer-1" data-name="Span">
</g>
<g id="Layer-1" data-name="Span">
</g>
<g id="Layer-1" data-name="Span">
</g>
<g id="Layer-1" data-name="Span">
</g>
<g id="Layer-1" data-name="Span">
</g>
<g id="Layer-1" data-name="Span">
</g>
<g id="Layer-1" data-name="Span">
</g>
<g id="Layer-1" data-name="Span">
</g>
<g id="Layer-1" data-name="Span">
</g>
<g id="Layer-1" data-name="Span">
</g>
<g id="Layer-1" data-name="Span">
</g>
<g id="Layer-1" data-name="Span">
</g>
<g id="Layer-1" data-name="Span">
</g>
<text fill="#404041" xml:space="preserve" transform="matrix(1 0 -0 1 0 841.89)" font-size="24" font-family="Roboto"><tspan y="-753.018" x="70.866 85.481998 90.785999 103.074 123.666 129.066 140.802 153.426 158.82599 164.22599 176.51398 189.54598 197.22599 210.01798">Kjemikaliebruk</tspan></text>
<text fill="#404041" xml:space="preserve" transform="matrix(1 0 -0 1 0 841.89)" font-size="9" font-family="Roboto"><tspan y="-732.577" x="70.866 73.259998 75.34999 81.50599 84.52999 89.402988 92.35299 97.207988 102.247989 107.24299 109.25899 114.15698 118.55499 123.10899 125.18999 130.20998 135.06398 138.08798 140.18898 144.65198 146.66799 148.74599 153.359 158.44899 166.42299 168.47499 176.46599 181.29 183.306 185.381 190.205 192.264 195.28002 200.00002 205.031 209.972 214.65599 219.357 222.373 227.026 229.049 234.104 237.291 242.333 246.743 248.799 253.54001 257.86903 259.99104 264.49504 266.627 271.33705 279.31904 281.33503 285.82603 290.65003 292.657 294.74 299.441 302.465 304.566 309.661 314.656 316.716 318.79899 323.511 328.58299 333.29499 341.27699 343.34199 348.34599 350.42597 355.128 357.75599 359.90699 361.94999 366.82798 369.85197 374.67597 376.78398 381.63899 384.66297 386.76298 391.82798 396.63798 401.13096 406.11695 408.16896 411.07496 413.08494 415.10093 417.17893 422.24394 427.35295 432.4189 437.4049 439.4569 444.47694 449.33094 452.35493 454.45594 458.91996 460.93595 463.00895 467.52696 469.54295 474.42494 477.85594 480.74494 482.80094 487.62495 489.68495 492.69993 497.42195 502.45195 507.39295 512.0759 516.77798 519.79397 524.44699">I Gratanglaks har vi som m&#x00e5;l &#x00e5; redusere bruk av kjemikalier og legemidler. Fra &#x00e5;r 2014 til 2020 har vi klart &#x00e5; redusere </tspan><tspan y="-718.573" x="70.866 75.72099 80.688999 83.638 88.462 90.46999 92.48599 94.58598 99.32698 103.790988 105.806987 110.747989 115.45399 120.46499 122.48099 127.54899 132.621 137.324 140.348 142.468 150.504 155.225 160.229 162.301 167.517 172.676 179.51099 181.66199 183.72798 189.87899 194.55199 197.715 200.46701 205.12001 207.164 211.767 216.494 220.972 223.03601 228.10102 232.75402 237.30802 239.406 244.19802 247.08702 249.16602 253.63 255.64601 257.745 262.766 267.62 270.64399 272.76499 277.26899 279.413 284.492 287.923 290.812 292.89103 297.161 302.25105 310.25904 315.29005 317.30604 322.24705 327.15104 331.70503 333.85203 338.93205 343.91807 348.52906 356.56605 361.24006 363.99607 369.08207 374.14707 378.84809 381.87208 383.9921 392.0281 396.7491 401.7531 403.82514 411.86116 416.56419 421.0272 425.8812 430.8922 432.9082 437.5112 441.7772 446.4302 448.4742 453.2152 457.67924 459.69523 464.63624 469.34223 474.35325 476.36924 481.43727 486.43226 491.06025 499.09724 503.77024 506.52726 511.61228 516.6763 521.3793 524.40328">antall avlusninger med 60%. Dette skyldes at vi har kj&#x00f8;rt kombinasjonsmetoder med mekaniske avlusningsmetoder </tspan><tspan y="-704.569" x="70.866 75.479007 80.56901 88.593997 91.894 93.909999 98.851 103.563 108.265 112.534 117.616 122.584 125.519 128.543 133.605 135.616 137.698 142.4 145.055 146.405 149.712 151.72801 156.669 161.38101 166.03401 170.63301 175.13903 177.28203 182.36103 185.79103 188.83504 190.71 194.018 197.042 202.141 207.181 212.221 216.72499 218.85599 223.55799 227.956 232.503 235.837 240.933 245.98001 249.30301 251.31902 256.148 260.757 265.459 268.088 269.838 273.143 275.53703 278.88603 283.982 288.68403 291.833 293.928 299.01304 304.07704 308.78007 311.861 315.212 323.24803 327.96803 333.04 336.35603 341.43403 346.39103 350.614 354.05003 356.84504 361.92607 364.94105 369.64408 373.91407 379.00309 386.9611 391.57807 394.53004 397.83903 402.58003 406.829 410.211 412.227 417.11 421.508 426.11698 430.785 432.801 437.742 442.53 444.478 447.787 452.806 457.661 460.723 464.07499 468.539 470.69099 474.02598 478.344 486.259 489.69 492.985 496.29399 501.37199 506.47499 511.56999 514.555 517.865 520.771 522.782 524.798">som lusekontroller, luseskj&#x00f8;rt, rognkjeks og laser. I perioder med h&#x00f8;y forekomst av lakselus, har vi v&#x00e6;rt n&#x00f8;dt til </tspan><tspan y="-690.56497" x="70.866 75.689998 79.064998 84.160999 88.86299 93.788997 98.548999 101.71199 104.46299 108.97299 112.314998 115.33099 119.98399 124.59 129.291 134.238 137.17201 142.26902 146.93701 148.95302 153.81603 158.92002 161.67203 166.183 169.525 171.608 176.321 181.394 186.10399 194.08699 196.152 201.15599 203.236 207.937 211.017 214.415 217.211 222.29099 225.359 228.758 233.582 236.957 239.90702 244.785 248.164 253.229 257.95 263.023 266.393 268.409 273.35 278.06098 282.763 287.77403 289.868 294.22004 299.07505 303.77809 308.84309 313.5021 315.23503 318.59303 323.62904 328.48503 331.864 336.928 341.64103 344.98304 353.02003 357.72206 362.18406 367.03907 372.0511 374.06208 378.66508 382.93107 387.43806 390.78105 398.81803 403.49104 406.24806 411.33308 416.39808 421.1001 426.1661 430.93705 434.28004 436.29603 440.87004 445.13703 449.64604 452.98805 458.00706 462.86207 465.92405 469.32304 473.64106 481.55607 484.98606 488.28105 491.64405 496.72206 501.80406 506.25306 509.62107 512.5101 514.52609 516.54208 519.9261 524.75009">&#x00e5; benytte reseptbelagte legemidler for &#x00e5; ta ned luseniv&#x00e5;ene, da de mekaniske metodene ikke har v&#x00e6;rt nok til &#x00e5; </tspan><tspan y="-676.5609" x="70.86606 75.96206 80.675067 85.715068 88.731067 93.43407 98.41807 103.02807 107.72906 111.21606 113.232059 118.17306 122.88506 127.51206 130.30707 135.38907 138.40508 143.10608 147.37609 152.46709 160.42409 165.04209 167.79309 172.4961 177.5611 182.1781 184.29506 187.79807 190.19207 193.73805 198.81604 203.93202 208.63503 213.63207 217.20207 220.10808 222.11809 224.1771 226.95909 231.62709 233.63809 235.7201 240.42209 243.50307 247.05307 252.07207 256.92808 259.99107 263.54008 268.60508 273.27909 276.19407 279.70207 284.73405 286.74504 288.85203 292.01304 295.17506 298.68205 303.73704 306.924 311.96604 316.68904 319.89704 323.40504 329.556 334.22303 336.33003 339.27903 344.14204 352.17903 356.85203 359.78804 362.936 364.952 370.01805 373.61503 375.631 379.16404 383.78303 386.53504 391.25605 396.32106 400.99406 403.91004 407.41703 410.21205 415.29307 418.36103 421.91004 426.83705 431.18205 436.21305 439.23704 444.33503 449.40803 454.11006 459.14906 464.24504 468.94807 471.97206 477.05607 481.45408 486.02308 488.08708 493.13505 496.64805 501.26203 506.35206 514.37808 517.88308 522.55709 525.44607">begrense luseforekomstene. I noen tilfeller har det blitt brukt Deltametrin i stedet for hydrogenperoksid som et </tspan><tspan y="-662.5569" x="70.86606 75.92006 80.74406 85.82405 90.52505 95.62205 100.323047 105.34405 110.198047 115.24605 120.250049 122.25804 124.27404 129.34304 134.33803 138.96604 146.94803 149.01303 154.05904 159.12404 163.79105 165.92305 167.76105 171.53804 176.21204 179.37404 182.12705 186.82805 189.93906 194.55207 199.64206 207.66704 211.44403 216.37102 220.71602 225.74701 228.77101 233.87001 238.94202 243.64502 248.68402 253.779 258.48204 261.506 266.59004 270.98905 275.55705 277.62205 282.67103 286.45603 288.47203 293.04704 297.31303 301.82005 305.58006 310.06007 315.10108 320.14009 325.2061 329.97807 333.74006 338.24507 340.38908 345.46809 348.48408 353.1371 357.67805 361.48606 366.22608 370.47508 374.32807 379.3921 384.09413 389.07914 393.63313 398.1701 403.37208 407.21607 410.12107 412.13105 414.14106 417.94606 420.92506 422.83006 427.43406 431.69908 436.33909 440.6821 445.35014 447.40913 450.19114 454.89317 457.91716 462.97407 466.75608 469.77409 474.0431 479.1241 484.16413 488.68113 490.6971 495.78215 500.84614 505.54917 508.98017 512.27407 516.056 520.796 525.125">badebehandlingsmiddel, ettersom hydrogenperoksid ikke kunne kj&#x00f8;res av hensyn til fiskevelferd (konkludert av </tspan><tspan y="-648.55288" x="70.86603 75.21003 79.883029 82.636028 87.33702 90.48602 92.50202 97.52903 105.44402 108.46002 113.16102 116.18502 118.37202 121.37502 124.399028 129.22303 131.41002 139.27802 144.13301 147.28202 149.29802 154.23902 156.42601 162.917 167.585 169.60102 174.21 178.863 181.05 186.69301 191.962 194.725 196.876 199.063 204.735 206.751 208.938 213.669 216.69301 218.88 224.009 228.966 233.327 237.98 240.16699 248.183 252.904 257.90803 260.09504 265.18003 270.22004 274.83003 279.53105 282.68003 284.696 289.76405 294.83705 299.53907 302.56306 304.75007 309.89509 314.89009 317.0771 319.8891 324.9451 327.0011 332.0741 336.77513 339.7991 341.9861 345.0521 349.7261 352.6611 357.67213 359.6881 364.75614 369.75114 374.3341 376.3451 378.36109 383.3901 385.52113 390.22315 393.24714 395.43415 398.43717 401.46116 406.28517 408.47218 414.89619 419.6362 424.3352 427.13124 432.21226 435.32325 439.92524 444.47224 449.48426 451.50025 456.56925 461.56425 466.14823 468.1642 473.17823 477.7962 480.6852 482.8042 485.7232 490.82823 493.9912 496.74324 501.41725 504.30625 506.49327 509.30027 514.38229 517.40628 519.59329 524.41726">veterin&#x00e6;rer fra Marin Helse AS). Vi er n&#x00f8;ye med doseringer og f&#x00f8;lger retningslinjer fra Havforskningsinstituttet for &#x00e5; </tspan><tspan y="-634.5488" x="70.86603 75.96203 80.63003 82.64603 87.47503 92.093029 94.84602 99.49902 101.68602 104.66502 106.54802 111.15102 115.41702 120.120029 125.06103 127.248027 132.41602 137.41101 139.598 144.681 149.355 152.244 154.431 159.476 161.57 166.629 168.723 173.819 178.814 180.841 185.44301 189.70902 194.36202 196.54901 204.52301 209.37702 214.417 219.475 222.27002 227.32901 229.39302 234.45803 239.13103 242.02004 244.20703 247.40705 252.44805 257.49705 262.59306 265.48207 267.66908 272.53507 277.5471 279.6291 284.3431 289.3891 294.4621 299.1361 302.02513 304.21214 308.86314 313.68714 315.87416 317.89814 320.00514 322.75816 327.41117 329.59819 334.19319 339.2822 347.2562 349.4432 357.4342 362.3752 364.4602 366.5162 371.6072">belaste fisken og det biologiske mangfoldet rundt anlegget s&#x00e5; lite som mulig.</tspan></text>
<g id="Layer-1" data-name="Artifact">
<clipPath id="cp364">
<path transform="matrix(1,0,0,-1,0,841.89)" d="M 0 0 L 595.276 0 L 595.276 841.89 L 0 841.89 Z "/>
</clipPath>
<g clip-path="url(#cp364)">
<path transform="matrix(1,0,0,-1,484.3887,452.66883)" d="M 0 0 C 0 41.187 -33.508 74.695 -74.695 74.695 C -115.881 74.695 -149.389 41.187 -149.389 0 C -149.389 -41.187 -115.881 -74.695 -74.695 -74.695 C -33.508 -74.695 0 -41.187 0 0 M -97.943 8.713 C -95.819 5.069 -93.284 1.292 -90.826 -2.369 C -87.126 -7.882 -83.3 -13.582 -80.864 -18.855 C -78.198 -24.631 -78.603 -31.328 -81.946 -36.771 C -85.248 -42.146 -90.714 -45.359 -96.944 -45.586 L -97.947 -45.598 L -98.95 -45.586 C -105.171 -45.359 -110.638 -42.146 -113.939 -36.771 C -117.283 -31.328 -117.687 -24.631 -115.021 -18.855 C -112.585 -13.582 -108.759 -7.882 -105.059 -2.369 C -102.602 1.292 -100.067 5.069 -97.943 8.713 M -73.541 1.209 C -73.877 1.205 -74.213 1.201 -74.55 1.197 L -75.553 1.209 C -81.774 1.436 -87.24 4.649 -90.542 10.023 C -93.885 15.466 -94.29 22.164 -91.624 27.939 C -89.188 33.213 -85.362 38.913 -81.661 44.426 C -79.204 48.087 -76.669 51.864 -74.545 55.508 C -72.421 51.864 -69.886 48.086 -67.429 44.426 C -63.729 38.913 -59.903 33.213 -57.467 27.939 C -54.801 22.164 -55.205 15.466 -58.549 10.023 C -61.849 4.651 -67.314 1.438 -73.541 1.209 M -50.599 -46.954 C -50.936 -46.957 -51.272 -46.961 -51.608 -46.965 L -52.611 -46.954 C -58.832 -46.726 -64.299 -43.513 -67.6 -38.139 C -70.944 -32.696 -71.348 -25.998 -68.682 -20.223 C -66.246 -14.949 -62.42 -9.249 -58.72 -3.737 C -56.263 -.076 -53.728 3.701 -51.604 7.346 C -49.48 3.701 -46.945 -.076 -44.487 -3.737 C -40.787 -9.249 -36.961 -14.949 -34.525 -20.223 C -31.859 -25.998 -32.264 -32.696 -35.607 -38.139 C -38.908 -43.511 -44.372 -46.724 -50.599 -46.954 " fill="#ffffff"/>
<path transform="matrix(1,0,0,-1,484.3887,452.66883)" stroke-width="1.022" stroke-linecap="butt" stroke-miterlimit="10" stroke-linejoin="miter" fill="none" stroke="#9abfe2" d="M 0 0 C 0 41.187 -33.508 74.695 -74.695 74.695 C -115.881 74.695 -149.389 41.187 -149.389 0 C -149.389 -41.187 -115.881 -74.695 -74.695 -74.695 C -33.508 -74.695 0 -41.187 0 0 Z M -97.943 8.713 C -95.819 5.069 -93.284 1.292 -90.826 -2.369 C -87.126 -7.882 -83.3 -13.582 -80.864 -18.855 C -78.198 -24.631 -78.603 -31.328 -81.946 -36.771 C -85.248 -42.146 -90.714 -45.359 -96.944 -45.586 L -97.947 -45.598 L -98.95 -45.586 C -105.171 -45.359 -110.638 -42.146 -113.939 -36.771 C -117.283 -31.328 -117.687 -24.631 -115.021 -18.855 C -112.585 -13.582 -108.759 -7.882 -105.059 -2.369 C -102.602 1.292 -100.067 5.069 -97.943 8.713 Z M -73.541 1.209 C -73.877 1.205 -74.213 1.201 -74.55 1.197 L -75.553 1.209 C -81.774 1.436 -87.24 4.649 -90.542 10.023 C -93.885 15.466 -94.29 22.164 -91.624 27.939 C -89.188 33.213 -85.362 38.913 -81.661 44.426 C -79.204 48.087 -76.669 51.864 -74.545 55.508 C -72.421 51.864 -69.886 48.086 -67.429 44.426 C -63.729 38.913 -59.903 33.213 -57.467 27.939 C -54.801 22.164 -55.205 15.466 -58.549 10.023 C -61.849 4.651 -67.314 1.438 -73.541 1.209 Z M -50.599 -46.954 C -50.936 -46.957 -51.272 -46.961 -51.608 -46.965 L -52.611 -46.954 C -58.832 -46.726 -64.299 -43.513 -67.6 -38.139 C -70.944 -32.696 -71.348 -25.998 -68.682 -20.223 C -66.246 -14.949 -62.42 -9.249 -58.72 -3.737 C -56.263 -.076 -53.728 3.701 -51.604 7.346 C -49.48 3.701 -46.945 -.076 -44.487 -3.737 C -40.787 -9.249 -36.961 -14.949 -34.525 -20.223 C -31.859 -25.998 -32.264 -32.696 -35.607 -38.139 C -38.908 -43.511 -44.372 -46.724 -50.599 -46.954 Z "/>
</g>
<g id="Layer-1" data-name="Span">
</g>
<text fill="#404041" xml:space="preserve" transform="matrix(1 0 -0 1 0 841.89)" font-size="6" font-family="Roboto" font-weight="bold"><tspan y="-200.9292" x="70.8661 74.139698 78.197498 82.18749 85.69149 89.19549">TABELL</tspan></text>
</g>
<g id="Layer-1" data-name="Span">
</g>
<text fill="#404041" xml:space="preserve" transform="matrix(1 0 -0 1 0 841.89)" font-size="6" font-family="Roboto"><tspan y="-192.7559" x="70.8661 74.4853 77.812908 81.258708 84.552707 86.010707 89.5147 91.7221 95.1691 98.3977 100.3237 101.7817 103.1257 104.5837 108.0655 110.173297 113.650897 117.09429 120.54129 123.565898 126.6895 128.2069 131.67969 135.1417 138.3655">Vann brukt i produksjonen</tspan></text>
<g id="Layer-1" data-name="Artifact">
<clipPath id="cp365">
<path transform="matrix(1,0,0,-1,0,841.89)" d="M 0 0 L 595.276 0 L 595.276 841.89 L 0 841.89 Z "/>
</clipPath>
<g clip-path="url(#cp365)">
<g opacity=".199997">
<clipPath id="cp366">
<path transform="matrix(1,0,0,-1,0,841.89)" d="M 389.507 388.907 L 430.18 388.907 L 430.18 446.748 L 389.507 446.748 Z "/>
</clipPath>
<g clip-path="url(#cp366)">
<path transform="matrix(1,0,0,-1,427.0377,424.6759)" d="M 0 0 C -2.44 5.283 -6.269 10.987 -9.972 16.504 C -12.471 20.227 -15.05 24.07 -17.194 27.77 C -19.338 24.07 -21.918 20.227 -24.417 16.504 C -28.12 10.987 -31.948 5.283 -34.389 0 C -37.073 -5.814 -36.666 -12.557 -33.3 -18.036 C -29.975 -23.448 -24.471 -26.683 -18.198 -26.912 L -17.191 -26.924 L -16.184 -26.912 C -9.918 -26.683 -4.413 -23.448 -1.089 -18.036 C 2.277 -12.557 2.684 -5.814 0 0 Z " fill="#9abfe0"/>
<path transform="matrix(1,0,0,-1,427.0377,424.6759)" stroke-width=".767" stroke-linecap="butt" stroke-miterlimit="10" stroke-linejoin="miter" fill="none" stroke="#9abfe2" d="M 0 0 C -2.44 5.283 -6.269 10.987 -9.972 16.504 C -12.471 20.227 -15.05 24.07 -17.194 27.77 C -19.338 24.07 -21.918 20.227 -24.417 16.504 C -28.12 10.987 -31.948 5.283 -34.389 0 C -37.073 -5.814 -36.666 -12.557 -33.3 -18.036 C -29.975 -23.448 -24.471 -26.683 -18.198 -26.912 L -17.191 -26.924 L -16.184 -26.912 C -9.918 -26.683 -4.413 -23.448 -1.089 -18.036 C 2.277 -12.557 2.684 -5.814 0 0 Z "/>
</g>
</g>
</g>
<g id="Layer-1" data-name="Artifact">
<g opacity=".199997">
<clipPath id="cp367">
<path transform="matrix(1,0,0,-1,0,841.89)" d="M 366.109 342.112 L 406.783 342.112 L 406.783 399.954 L 366.109 399.954 Z "/>
</clipPath>
<g clip-path="url(#cp367)">
<path transform="matrix(1,0,0,-1,403.6404,471.4707)" d="M 0 0 C -2.44 5.283 -6.269 10.987 -9.972 16.504 C -12.471 20.227 -15.05 24.07 -17.194 27.77 C -19.339 24.07 -21.918 20.227 -24.417 16.504 C -28.12 10.987 -31.949 5.283 -34.389 0 C -37.073 -5.814 -36.666 -12.557 -33.3 -18.036 C -29.975 -23.448 -24.471 -26.683 -18.198 -26.912 L -17.191 -26.924 L -16.185 -26.912 C -9.918 -26.683 -4.413 -23.448 -1.089 -18.036 C 2.277 -12.557 2.684 -5.814 0 0 Z " fill="#9abfe0"/>
<path transform="matrix(1,0,0,-1,403.6404,471.4707)" stroke-width=".767" stroke-linecap="butt" stroke-miterlimit="10" stroke-linejoin="miter" fill="none" stroke="#9abfe2" d="M 0 0 C -2.44 5.283 -6.269 10.987 -9.972 16.504 C -12.471 20.227 -15.05 24.07 -17.194 27.77 C -19.339 24.07 -21.918 20.227 -24.417 16.504 C -28.12 10.987 -31.949 5.283 -34.389 0 C -37.073 -5.814 -36.666 -12.557 -33.3 -18.036 C -29.975 -23.448 -24.471 -26.683 -18.198 -26.912 L -17.191 -26.924 L -16.185 -26.912 C -9.918 -26.683 -4.413 -23.448 -1.089 -18.036 C 2.277 -12.557 2.684 -5.814 0 0 Z "/>
</g>
</g>
</g>
<g id="Layer-1" data-name="Artifact">
<g opacity=".199997">
<clipPath id="cp368">
<path transform="matrix(1,0,0,-1,0,841.89)" d="M 412.448 340.745 L 453.122 340.745 L 453.122 398.586 L 412.448 398.586 Z "/>
</clipPath>
<g clip-path="url(#cp368)">
<path transform="matrix(1,0,0,-1,449.9793,472.8381)" d="M 0 0 C -2.44 5.283 -6.269 10.987 -9.972 16.504 C -12.471 20.227 -15.05 24.07 -17.194 27.77 C -19.339 24.07 -21.918 20.227 -24.417 16.504 C -28.12 10.987 -31.949 5.283 -34.389 0 C -37.073 -5.814 -36.666 -12.557 -33.3 -18.036 C -29.975 -23.448 -24.471 -26.683 -18.198 -26.912 L -17.191 -26.924 L -16.184 -26.912 C -9.918 -26.683 -4.413 -23.448 -1.089 -18.036 C 2.277 -12.557 2.684 -5.814 0 0 Z " fill="#9abfe0"/>
<path transform="matrix(1,0,0,-1,449.9793,472.8381)" stroke-width=".767" stroke-linecap="butt" stroke-miterlimit="10" stroke-linejoin="miter" fill="none" stroke="#9abfe2" d="M 0 0 C -2.44 5.283 -6.269 10.987 -9.972 16.504 C -12.471 20.227 -15.05 24.07 -17.194 27.77 C -19.339 24.07 -21.918 20.227 -24.417 16.504 C -28.12 10.987 -31.949 5.283 -34.389 0 C -37.073 -5.814 -36.666 -12.557 -33.3 -18.036 C -29.975 -23.448 -24.471 -26.683 -18.198 -26.912 L -17.191 -26.924 L -16.184 -26.912 C -9.918 -26.683 -4.413 -23.448 -1.089 -18.036 C 2.277 -12.557 2.684 -5.814 0 0 Z "/>
</g>
</g>
</g>
<g id="Layer-1" data-name="Span">
</g>
<text fill="#404041" xml:space="preserve" transform="matrix(1 0 -0 1 0 841.89)" font-size="8" font-family="Roboto" font-weight="bold"><tspan y="-44.7402" x="70.8661 75.6101">28</tspan></text>
</g>
<g id="Layer-1" data-name="Span">
</g>
<text fill="#404041" xml:space="preserve" transform="matrix(1 0 -0 1 0 841.89)" font-size="7" font-family="Roboto"><tspan y="-29.016" x="70.8661 75.97469 80.939098 85.642398 90.34499 94.37349 97.905689 101.74029 106.39669 110.436389 114.300388 116.04338 119.15138 120.89438 127.10968 129.25029 133.39218 137.41858">N&#x00d8;KKELTALL - MILJ&#x00d8;</tspan></text>
<g id="Layer-1" data-name="Artifact">
<clipPath id="cp369">
<path transform="matrix(1,0,0,-1,0,841.89)" d="M 0 0 L 595.276 0 L 595.276 841.89 L 0 841.89 Z "/>
</clipPath>
<g clip-path="url(#cp369)">
<path transform="matrix(1,0,0,-1,70.8661,801.8869)" stroke-width=".5" stroke-linecap="butt" stroke-miterlimit="4" stroke-linejoin="miter" fill="none" stroke="#404041" d="M 0 0 L 1048.819 0 "/>
</g>
<g id="Layer-1" data-name="Span">
</g>
<text fill="#404041" xml:space="preserve" transform="matrix(1 0 -0 1 0 841.89)" font-size="5" font-family="Roboto" font-weight="bold"><tspan y="-805.9686" x="70.8661 74.1961 77.381099 80.3461 82.9486 86.1286 89.6586 92.9886 95.8126 98.9926 102.1776 105.26759 106.512599 109.6926">GRATANGLAKS AS</tspan></text>
</g>
<g id="Layer-1" data-name="Span">
</g>
<g id="Layer-1" data-name="Span">
<text fill="#595959" xml:space="preserve" transform="matrix(1 0 -0 1 0 841.89)" font-size="5" font-family="Roboto"><tspan y="-805.9686" x="119.143 122.428 127.273 130.52301 133.533 136.838 140.088 143.51799 146.50099 149.616 152.75099 156.00099 159.43099 162.75598 166.08098 169.69098 172.74448">B&#x00c6;REKRAFTSRAPPORT</tspan></text>
</g>
<text fill="#404041" xml:space="preserve" transform="matrix(1 0 -0 1 0 841.89)" font-size="5" font-family="Roboto" font-weight="bold"><tspan y="-805.9686" x="179.688 182.558 185.428 188.29799">2020</tspan></text>
<g id="Layer-1" data-name="Artifact">
<clipPath id="cp370">
<path transform="matrix(1,0,0,-1,0,841.89)" d="M 0 0 L 595.276 0 L 595.276 841.89 L 0 841.89 Z "/>
</clipPath>
<g clip-path="url(#cp370)">
<path transform="matrix(1,0,0,-1,70.8661,39.3869)" stroke-width=".5" stroke-linecap="butt" stroke-miterlimit="4" stroke-linejoin="miter" fill="none" stroke="#404041" d="M 0 0 L 1048.819 0 "/>
</g>
<g id="Layer-1" data-name="Artifact">
<path transform="matrix(1,0,0,-1,514.8788,647.6341)" d="M 0 0 C 21.987 0 39.875 17.889 39.875 39.875 C 39.875 61.861 21.987 79.75 0 79.75 C -21.987 79.75 -39.875 61.861 -39.875 39.875 C -39.875 17.889 -21.987 0 0 0 " fill="#1ea049"/>
<path transform="matrix(1,0,0,-1,514.8788,647.6341)" stroke-width="3" stroke-linecap="butt" stroke-miterlimit="4" stroke-linejoin="miter" fill="none" stroke="#ffffff" d="M 0 0 C 21.987 0 39.875 17.889 39.875 39.875 C 39.875 61.861 21.987 79.75 0 79.75 C -21.987 79.75 -39.875 61.861 -39.875 39.875 C -39.875 17.889 -21.987 0 0 0 Z "/>
</g>
<g id="Layer-1" data-name="Span">
</g>
<text fill="#ffffff" xml:space="preserve" transform="matrix(1 0 -0 1 0 841.89)" font-size="17" font-family="Roboto" font-weight="bold"><tspan y="-239.2783" x="495.5309 505.11894 514.882 524.47006">2020</tspan></text>
</g>
<g id="Layer-1" data-name="Span">
</g>
<text fill="#ffffff" xml:space="preserve" transform="matrix(1 0 -0 1 0 841.89)" font-size="12" font-family="Roboto"><tspan y="-221.4421" x="496.7148 503.616 510.2664 513.1824 519.9864 526.7904">40 000</tspan></text>
<path transform="matrix(1,0,0,-1,0,841.89)" d="M 70.866 595.591 L 115.082 595.591 L 115.082 578.613 L 70.866 578.613 Z M 115.082 595.591 L 263.622 595.591 L 263.622 578.613 L 115.082 578.613 Z M 263.622 595.591 L 380.21003 595.591 L 380.21003 578.613 L 263.622 578.613 Z M 380.21 595.591 L 524.409 595.591 L 524.409 578.613 L 380.21 578.613 Z " fill="#f1f7e8"/>
<path transform="matrix(1,0,0,-1,70.8661,246.29944)" stroke-width="1" stroke-linecap="butt" stroke-miterlimit="10" stroke-linejoin="miter" fill="none" stroke="#231f20" d="M 0 0 L 44.216 0 "/>
<path transform="matrix(1,0,0,-1,115.0824,246.29944)" stroke-width="1" stroke-linecap="butt" stroke-miterlimit="10" stroke-linejoin="miter" fill="none" stroke="#231f20" d="M 0 0 L 148.54 0 "/>
<path transform="matrix(1,0,0,-1,263.622,246.29944)" stroke-width="1" stroke-linecap="butt" stroke-miterlimit="10" stroke-linejoin="miter" fill="none" stroke="#231f20" d="M 0 0 L 116.588 0 "/>
<path transform="matrix(1,0,0,-1,380.21,246.29944)" stroke-width="1" stroke-linecap="butt" stroke-miterlimit="10" stroke-linejoin="miter" fill="none" stroke="#231f20" d="M 0 0 L 144.199 0 "/>
<g id="Layer-1" data-name="Span">
</g>
<g id="Layer-1" data-name="Span">
</g>
<g id="Layer-1" data-name="Span">
</g>
<g id="Layer-1" data-name="Span">
</g>
<g id="Layer-1" data-name="Span">
<text fill="#404041" xml:space="preserve" transform="matrix(1 0 -0 1 0 841.89)" font-size="9" font-family="Roboto"><tspan y="-601.9896" x="74.8661 80.5811">&#x00c5;r</tspan></text>
<text fill="#404041" xml:space="preserve" transform="matrix(1 0 -0 1 0 841.89)" font-size="12" font-family="Roboto" font-weight="bold"><tspan y="-600.8646" x="119.0824 127.5544 133.6024 140.3704 144.4828 151.25081 158.01882 164.29482 171.06282 177.83083 184.10683 188.23484 195.00284 201.43485 207.62685 210.83084 217.59885 220.58686 224.75086 227.95485 267.6184 275.5624 281.8384 285.04243 289.2184 295.6624 306.04243 312.31843 316.49443 320.7184 323.92243 330.69044 333.67845 337.84245 348.22245 351.42646 384.2104 390.8824 401.2624 407.7064 418.0864 424.3624 430.7944 434.9704 438.1744 444.9424 447.93043 455.57444 461.85044 468.61845 474.6736 481.44163 487.88563 492.0616 495.04963 499.21363 505.53523 512.3032">Hydrogenperoksid (l)Deltametrin (ml)Emamektin Benzoat (kg)</tspan></text>
</g>
<g id="Layer-1" data-name="Span">
</g>
<g id="Layer-1" data-name="Span">
</g>
<g id="Layer-1" data-name="Span">
<text fill="#231f20" xml:space="preserve" transform="matrix(1 0 -0 1 0 841.89)" font-size="9" font-family="Roboto"><tspan y="-583.4764" x="74.8661 79.978099 85.090099 90.202098">2020</tspan></text>
<text fill="#231f20" xml:space="preserve" transform="matrix(1 0 -0 1 0 841.89)" font-size="9" font-family="Roboto"><tspan y="-583.4764" x="119.0831 124.0691 129.0551 134.0411 136.2281 141.21411 146.2001">936 527</tspan></text>
<text fill="#231f20" xml:space="preserve" transform="matrix(1 0 -0 1 0 841.89)" font-size="5.247" font-family="Roboto" font-weight="bold"><tspan y="-586.4734" x="151.1977">*</tspan></text>
</g>
<g id="Layer-1" data-name="Span">
</g>
<text fill="#2b3b52" xml:space="preserve" transform="matrix(1 0 -0 1 0 841.89)" font-size="9" font-family="Roboto"><tspan y="-583.4764" x="267.622 272.608 277.594 282.58 384.208 389.194 394.18 396.367 401.353 406.339 411.32499">600061 891 </tspan></text>
<g id="Layer-1" data-name="Span">
</g>
<g id="Layer-1" data-name="Span">
</g>
<g id="Layer-1" data-name="Span">
</g>
<g id="Layer-1" data-name="Span">
</g>
<text fill="#404041" xml:space="preserve" transform="matrix(1 0 -0 1 0 841.89)" font-size="6" font-family="Roboto" font-weight="bold"><tspan y="-568.571" x="70.866 74.13799 78.198 82.187999 85.69199 89.19599">TABELL</tspan></text>
<text fill="#404041" xml:space="preserve" transform="matrix(1 0 -0 1 0 841.89)" font-size="6" font-family="Roboto"><tspan y="-559.584" x="70.866 74.742 76.252 79.479 84.884998 86.31899 89.399997 92.702999 94.133998 95.61099 98.83109 100.937099 102.341999 105.799999 108.009998 111.45899 114.68599 116.70199 118.077999 119.51199 120.899997 122.854999 126.32799 128.53299 131.97699 133.411 136.882 140.346 143.545 144.976 148.138 151.33 152.68399 158.12799 161.362 164.788 166.159 169.412 172.474 173.908 177.292 180.49402 181.92803 185.39302">Kjemikalier brukt i forbindelse med avlusing</tspan></text>
<text fill="#404041" xml:space="preserve" transform="matrix(1 0 -0 1 0 841.89)" font-size="5.247" font-family="Roboto" font-weight="bold"><tspan y="-541.01699" x="70.866">*</tspan></text>
<text fill="#404041" xml:space="preserve" transform="matrix(1 0 -0 1 0 841.89)" font-size="9" font-family="Roboto"><tspan y="-538.01998" x="73.062 78.957 83.61 86.499 89.388 94.041 96.228 99.117 101.132999 103.148998 107.702999 112.032 116.855998 119.88 124.533 127.557 129.744 134.397 139.338 141.525 146.51099 151.16399 156.10498 160.92899 165.86998 170.87398 172.88999 174.90599 179.84699 184.84198 187.02898 192.01499 196.83899 199.02599 201.915 206.95499 209.14199 213.96599 218.29499 220.48198 224.81098 229.63498 232.65898 237.31198 239.49898 241.51499 246.55498 250.96498 255.78899 257.805 259.82099 262.71 267.363 270.252 274.90504 277.92903">Dette tilsvarer en behandling p&#x00e5; to av v&#x00e5;re lokaliteter.</tspan></text>
<text fill="#404041" xml:space="preserve" transform="matrix(1 0 -0 1 0 841.89)" font-size="24" font-family="Roboto"><tspan y="-467.39997" x="70.866 84.88 96.686 108.684 120.682 128.65 141.97 149.722 162.826 170.578 183.442">Vannforbruk</tspan></text>
<text fill="#404041" xml:space="preserve" transform="matrix(1 0 -0 1 0 841.89)" font-size="9" font-family="Roboto"><tspan y="-446.92597" x="70.951 76.504 78.52 86.19699 91.13799 95.96199 98.98599 106.80599 111.80999 116.46299 124.135997 128.68999 130.706 135.35399 138.243 142.98099 150.65399 153.543 156.545 161.165 168.836 173.66 176.66301 181.31601 186.257 190.884 198.602 203.543 208.367 211.25601 214.14502 221.93302 226.58602 231.52701 239.261 244.202 248.855 253.859 258.854 263.678 268.61903 273.614 281.46803 283.484">Vi har de siste tre &#x00e5;rene hatt en nedgang i </tspan><tspan y="-432.92198" x="70.951007 75.28801 80.11201 85.05301 89.99401 92.973018 98.013019 101.03702 106.02302 109.04702 113.98802 118.398029 120.56801 124.71701 130.04502 134.86902 142.84302 150.81702 155.47002 160.41101 162.42702 164.44303 169.43802 174.37902 179.03202 181.92102 186.14202 194.11602 198.76902 203.77301 207.688 212.341 215.23001 219.145 223.96901 226.99301 229.00902 231.02503 236.02002 240.08002 243.05902 248.09902 251.12302 256.109 259.133 264.074 268.484 272.488 275.467 280.50703 283.531">vannforbruk. Sammenlignet med et &#x00e5;rlig forbruk for </tspan><tspan y="-418.91798" x="70.95101 75.60401 80.54501 82.878009 87.87301 89.92501 94.57801 99.51901 104.460018 109.500019 117.474018 122.028018 126.96902 128.98502 131.87403 134.76303 136.77904 138.79505 143.79004 146.48004 151.42104 156.36203 160.91603 165.47003 168.35904 173.18305 178.12404 183.12804 184.84703 187.43903 190.46303 195.40402 200.34502 205.34902 208.23802 210.73003 215.71604 220.70203 225.68802 227.98502 232.97101 237.957 242.943 245.23999 247.918 251.407 256.393 261.379 266.365 268.662 273.64799 278.63398 283.61997">en gjennomsnittlig husstand, rundt 130 000 - 200 000 </tspan><tspan y="-404.91398" x="70.951007 72.967 74.983 77.872 82.525 85.549 87.287998 89.30399 90.97599 95.79999 98.80299 103.45599 106.34499 107.97799 110.84899 116.176998 121.505 127.021999 128.741 130.57599 135.56198 140.54798 145.53397 150.51996 153.45397 155.17296 156.76596 161.70696 166.53096 169.55496 171.32897 175.65796 177.67397 179.41997 184.07297 186.96198 188.59197 190.60797 195.40598 199.73497 202.62398 204.34899 207.32799 212.36798 215.39199 220.37799 223.402 228.34299 232.75299 234.90399 236.63799 242.137 246.961 248.61699 256.591 261.24403 264.215 269.219 273.872 278.81303 283.46604">liter i &#x00e5;ret (SSB, 2019), har vi et lavt forbruk. P&#x00e5; merdene </tspan><tspan y="-390.90998" x="70.951007 75.937007 78.961009 83.90201 88.38101 93.03401 97.58801 99.41601 104.420009 109.073009 111.962009 113.774 118.715007 123.726009 128.07102 132.72402 137.70702 142.26102 147.08502 151.46002 156.11302 158.12903 160.14504 165.14003 167.00502 171.55902 176.38303 178.39904 181.28804 185.70604 190.53005 195.47104 200.41204 202.38603 206.94004 211.98003 219.95403 221.77902 226.76502 231.70601 239.68001 244.66602 249.31902 253.87302 255.82703 260.86705 265.85304 270.83903 272.68003 275.65904 278.683 283.50703">brukes det hovedsakelig saltvann som pumpes opp fra </tspan><tspan y="-376.90599" x="70.951007 75.892009 80.728 85.074 89.727 92.616 95.27999 98.16899 100.18499 102.20099 104.943988 109.28099 114.10499 118.65899 123.068988 125.084987 130.02599 135.02098 137.17198 140.00998 145.56298 147.57898 150.24799 155.18898 160.01299 163.03699 165.84598 168.63199 173.28499 176.30899 180.86299 185.273 189.679 194.503 199.444 204.385 208.939 211.828 216.65201 221.593 226.203 230.856 233.88 236.581 241.135 246.17499 254.14899 256.83 261.81599 264.83998 269.78099 274.261 278.914 283.468">havet til vasking. Vi har ferskvannstanker som brukes </tspan><tspan y="-362.90199" x="70.951007 73.840007 75.856 77.872 81.005 83.020999 87.962 92.903 97.423999 102.076999 107.018 112.021999 114.037998 119.212009 122.384 126.72101 131.54502 136.09902 140.516 143.643 148.683 153.678 156.734 159.623 164.663 169.487 171.503 176.156 179.04502 181.93402 186.58702 189.11103 190.75801 193.83002 199.32903 204.10802 207.19702 212.02103 216.96202 218.97803 223.63103 228.62602 233.62102 238.27402 243.21501 247.86801 251.08301 255.421 260.245 263.248 267.87504 270.92805 275.91404 277.93003 279.946 282.97">til innvendig vask og toaletter. P&#x00e5; anleggene v&#x00e5;re blir </tspan><tspan y="-348.89799" x="70.951038 75.95503 80.60803 83.49703 88.58803 93.57403 96.59803 101.53903 105.949039 108.838039 114.09803 119.08403 121.10003 126.09803 130.43503 135.25904 139.90003 145.01602 149.57003 153.84502 158.39902 161.28803 165.94103 173.91503 178.56803 181.26302 182.64702 187.74703 192.30103 197.34102 205.31502 210.41802 215.07102 218.09502 223.22103 227.87403 230.76303 235.84803 243.82202 245.83803 247.85404 249.90604 254.91904 259.39906 264.05207 268.99308 273.93409 275.95008 277.96607 282.96107">det brukt biovac systemer, som er et milj&#x00f8;vennlig </tspan><tspan y="-334.89399" x="70.95103 75.775028 77.79102 80.68002 85.33302 88.357028 93.29803 98.122028 101.011028 103.02702 107.356029 112.342029 115.32103 120.36103 123.38503 128.02902 132.85303 137.58803 140.58104 145.23404 150.17504 154.72904 159.34503 164.12104 168.89104 173.22003 175.23604 180.24904 185.23505 189.78905 194.28404 199.10805 204.04904 208.99004 210.87903 215.75003 220.73603 225.38903 228.38204 233.03504 238.03003 242.97103 247.62403 250.47603 255.24703 258.13603 260.152 262.168 266.948 271.772 276.50703 281.502 283.518">alternativ for &#x00e5; rense avl&#x00f8;psvann, beregnet til &#x00e5; gi </tspan><tspan y="-320.88999" x="70.95102 75.89202 80.83302 82.84902 84.86502 89.80602 92.69502 97.24902 99.26502 101.28102 106.26702 111.25302 113.40402 116.92002 122.635028 127.288028 132.22902 135.32802 138.44602 142.78202 147.60602 152.54701 157.49901 160.766 163.74501 165.76102 167.77703 170.66603 173.53803 178.19103 181.15703 185.81003 190.30501 193.43302 198.37401 201.34401 203.14302 206.26003 211.30002 216.29502 219.39801 222.28702 227.30002 230.32402 233.34803 237.90203 240.79103 245.83103 248.81003 251.78903 254.84104 259.39503 264.21903 272.19303 274.209 278.86204 283.41603">nullutslipp. Rent vann filtreres ut, og t&#x00f8;rrstoff samles </tspan><tspan y="-306.886" x="70.95102 75.99102 80.97702 85.96302 88.15002 93.19002 98.18502 100.37202 103.35102 105.40302 110.05602 113.080028 118.02103 122.67403 127.22803 129.41503 134.29103 138.62003 140.80702 145.36103 150.01403 153.25403 157.58303 159.59903 164.23403 168.88703 173.87302 178.52602 181.55002 186.10402 191.14402 196.085 200.738 202.75402 204.77002">opp og fjernes av servicepersonell.</tspan></text>
</g>
</g>
</svg>
