<?xml version="1.0" encoding="UTF-8" standalone="no"?>
<!DOCTYPE svg PUBLIC "-//W3C//DTD SVG 1.1//EN" "http://www.w3.org/Graphics/SVG/1.1/DTD/svg11.dtd">
<svg xmlns="http://www.w3.org/2000/svg" xmlns:xlink="http://www.w3.org/1999/xlink" version="1.1" width="595.276pt" height="841.89pt" viewBox="0 0 595.276 841.89">
<g enable-background="new">
<g>
<path transform="matrix(1,0,0,-1,0,841.89)" d="M 70.866 702.992 L 524.223 702.992 L 524.223 678.898 L 70.866 678.898 Z " fill="#e9f4fc"/>
<path transform="matrix(1,0,0,-1,70.8661,194.28363)" stroke-width=".5" stroke-linecap="butt" stroke-miterlimit="10" stroke-linejoin="miter" fill="none" stroke="#2bace3" d="M 0 0 L 76.519 0 "/>
<path transform="matrix(1,0,0,-1,147.3852,194.28363)" stroke-width=".5" stroke-linecap="butt" stroke-miterlimit="10" stroke-linejoin="miter" fill="none" stroke="#2bace3" d="M 0 0 L 103.008 0 "/>
<path transform="matrix(1,0,0,-1,250.3937,194.28363)" stroke-width=".5" stroke-linecap="butt" stroke-miterlimit="10" stroke-linejoin="miter" fill="none" stroke="#2bace3" d="M 0 0 L 130.866 0 "/>
<path transform="matrix(1,0,0,-1,381.2598,194.28363)" stroke-width=".5" stroke-linecap="butt" stroke-miterlimit="10" stroke-linejoin="miter" fill="none" stroke="#2bace3" d="M 0 0 L 142.963 0 "/>
<path transform="matrix(1,0,0,-1,70.8661,223.17212)" stroke-width=".5" stroke-linecap="butt" stroke-miterlimit="10" stroke-linejoin="miter" fill="none" stroke="#2bace3" d="M 0 0 L 76.519 0 "/>
<path transform="matrix(1,0,0,-1,147.3852,223.17212)" stroke-width=".5" stroke-linecap="butt" stroke-miterlimit="10" stroke-linejoin="miter" fill="none" stroke="#2bace3" d="M 0 0 L 103.008 0 "/>
<path transform="matrix(1,0,0,-1,250.3937,223.17212)" stroke-width=".5" stroke-linecap="butt" stroke-miterlimit="10" stroke-linejoin="miter" fill="none" stroke="#2bace3" d="M 0 0 L 130.866 0 "/>
<path transform="matrix(1,0,0,-1,381.2598,223.17212)" stroke-width=".5" stroke-linecap="butt" stroke-miterlimit="10" stroke-linejoin="miter" fill="none" stroke="#2bace3" d="M 0 0 L 142.963 0 "/>
<path transform="matrix(1,0,0,-1,70.8661,254.71344)" stroke-width=".5" stroke-linecap="butt" stroke-miterlimit="10" stroke-linejoin="miter" fill="none" stroke="#2bace3" d="M 0 0 L 76.519 0 "/>
<path transform="matrix(1,0,0,-1,147.3852,254.71344)" stroke-width=".5" stroke-linecap="butt" stroke-miterlimit="10" stroke-linejoin="miter" fill="none" stroke="#2bace3" d="M 0 0 L 103.008 0 "/>
<path transform="matrix(1,0,0,-1,250.3937,254.71344)" stroke-width=".5" stroke-linecap="butt" stroke-miterlimit="10" stroke-linejoin="miter" fill="none" stroke="#2bace3" d="M 0 0 L 130.866 0 "/>
<path transform="matrix(1,0,0,-1,381.2598,254.71344)" stroke-width=".5" stroke-linecap="butt" stroke-miterlimit="10" stroke-linejoin="miter" fill="none" stroke="#2bace3" d="M 0 0 L 142.963 0 "/>
<path transform="matrix(1,0,0,-1,70.8661,286.25465)" stroke-width=".5" stroke-linecap="butt" stroke-miterlimit="10" stroke-linejoin="miter" fill="none" stroke="#2bace3" d="M 0 0 L 76.519 0 "/>
<path transform="matrix(1,0,0,-1,147.3852,286.25465)" stroke-width=".5" stroke-linecap="butt" stroke-miterlimit="10" stroke-linejoin="miter" fill="none" stroke="#2bace3" d="M 0 0 L 103.008 0 "/>
<path transform="matrix(1,0,0,-1,250.3937,286.25465)" stroke-width=".5" stroke-linecap="butt" stroke-miterlimit="10" stroke-linejoin="miter" fill="none" stroke="#2bace3" d="M 0 0 L 130.866 0 "/>
<path transform="matrix(1,0,0,-1,381.2598,286.25465)" stroke-width=".5" stroke-linecap="butt" stroke-miterlimit="10" stroke-linejoin="miter" fill="none" stroke="#2bace3" d="M 0 0 L 142.963 0 "/>
<g id="Layer-1" data-name="Span">
</g>
<g id="Layer-1" data-name="Span">
<text fill="#09588d" xml:space="preserve" transform="matrix(1 0 -0 1 0 841.89)" font-size="9" font-family="Roboto"><tspan y="-687.5699" x="76.5354 82.83 88.3722 94.6542 101.1216 107.403598 115.29929">&#x00d8;KONOMI</tspan></text>
</g>
<text fill="#231f20" xml:space="preserve" transform="matrix(1 0 -0 1 0 841.89)" font-size="9" font-family="Roboto"><tspan y="-660.00289" x="153.0534 158.6307 163.4367 165.50942 170.52512 175.06111 179.44412 184.50212 186.54332 191.59143">Salgsvolum</tspan></text>
<path transform="matrix(1,0,0,-1,312.4813,182.54712)" stroke-width=".439" stroke-linecap="butt" stroke-miterlimit="10" stroke-linejoin="miter" fill="none" stroke="#1e5e9e" d="M 0 0 L 10.394 0 "/>
<g id="Layer-1" data-name="Span">
</g>
<g id="Layer-1" data-name="Span">
<text fill="#231f20" xml:space="preserve" transform="matrix(1 0 -0 1 0 841.89)" font-size="9" font-family="Roboto"><tspan y="-660.0021" x="256.063 262.23518 266.50749 271.58799 276.6631 281.7526 289.73289 291.74888 293.93589 298.53038 300.59407 305.66105 310.31407">&#x00d8;konomi side </tspan></text>
</g>
<g id="Layer-1" data-name="Span">
<text fill="#1e5e9e" xml:space="preserve" transform="matrix(1 0 -0 1 0 841.89)" font-size="9" font-family="Roboto"><tspan y="-660.0021" x="312.48399 317.75798">38</tspan></text>
</g>
<g id="Layer-1" data-name="Span">
</g>
<g id="Layer-1" data-name="Span">
</g>
<text fill="#231f20" xml:space="preserve" transform="matrix(1 0 -0 1 0 841.89)" font-size="9" font-family="Roboto"><tspan y="-665.4021" x="386.93199 393.08799 396.11198 400.98817 403.93476 408.79298 413.8303 418.8253 420.84129 425.74449 430.1446 434.69859 436.8856 438.90159 444.00099 449.00498 451.02098 455.51289 460.30809 463.06208 468.14259 471.16658 473.35359 475.92759">Gratanglaks indikator - </tspan><tspan y="-654.6021" x="386.93199 392.20149 396.85359 401.45979 406.16499 411.1312 414.0292 416.0389 418.0639 423.1345 428.2006 432.87788 435.7642 440.37937 443.12797 447.84306 455.83235">Vesentlighetstema</tspan><tspan y="-629.7891" x="153.05799 159.23558 167.19158 171.79778 176.47509 179.40819 184.41579 186.4318 191.4961">Omsetning</tspan></text>
<path transform="matrix(1,0,0,-1,312.4813,212.76203)" stroke-width=".439" stroke-linecap="butt" stroke-miterlimit="10" stroke-linejoin="miter" fill="none" stroke="#1e5e9e" d="M 0 0 L 10.394 0 "/>
<g id="Layer-1" data-name="Span">
</g>
<g id="Layer-1" data-name="Span">
<text fill="#231f20" xml:space="preserve" transform="matrix(1 0 -0 1 0 841.89)" font-size="9" font-family="Roboto"><tspan y="-629.7872" x="256.063 262.23518 266.50749 271.58799 276.6631 281.7526 289.73289 291.74888 293.93589 298.53038 300.59407 305.66105 310.31407">&#x00d8;konomi side </tspan></text>
</g>
<g id="Layer-1" data-name="Span">
<text fill="#1e5e9e" xml:space="preserve" transform="matrix(1 0 -0 1 0 841.89)" font-size="9" font-family="Roboto"><tspan y="-629.7872" x="312.48399 317.75798">38</tspan></text>
</g>
<g id="Layer-1" data-name="Span">
</g>
<g id="Layer-1" data-name="Span">
</g>
<text fill="#231f20" xml:space="preserve" transform="matrix(1 0 -0 1 0 841.89)" font-size="9" font-family="Roboto"><tspan y="-635.1872" x="386.93199 393.08799 396.11198 400.98817 403.93476 408.79298 413.8303 418.8253 420.84129 425.74449 430.1446 434.69859 436.8856 438.90159 444.00099 449.00498 451.02098 455.51289 460.30809 463.06208 468.14259 471.16658 473.35359 475.92759">Gratanglaks indikator - </tspan><tspan y="-624.3872" x="386.93199 392.20149 396.85359 401.45979 406.16499 411.1312 414.0292 416.0389 418.0639 423.1345 428.2006 432.87788 435.7642 440.37937 443.12797 447.84306 455.83235">Vesentlighetstema</tspan><tspan y="-599.5742" x="153.05799 158.77298 163.57898 168.14559 173.15409 175.26009 178.2058 183.001">Resultat</tspan></text>
<path transform="matrix(1,0,0,-1,312.4813,242.97693)" stroke-width=".439" stroke-linecap="butt" stroke-miterlimit="10" stroke-linejoin="miter" fill="none" stroke="#1e5e9e" d="M 0 0 L 10.356 0 "/>
<g id="Layer-1" data-name="Span">
</g>
<g id="Layer-1" data-name="Span">
<text fill="#231f20" xml:space="preserve" transform="matrix(1 0 -0 1 0 841.89)" font-size="9" font-family="Roboto"><tspan y="-599.5723" x="256.063 262.23518 266.50749 271.58799 276.6631 281.7526 289.73289 291.74888 293.93589 298.53038 300.59407 305.66105 310.31407">&#x00d8;konomi side </tspan></text>
</g>
<g id="Layer-1" data-name="Span">
<text fill="#1e5e9e" xml:space="preserve" transform="matrix(1 0 -0 1 0 841.89)" font-size="9" font-family="Roboto"><tspan y="-599.5723" x="312.48399 317.722">39</tspan></text>
</g>
<g id="Layer-1" data-name="Span">
</g>
<g id="Layer-1" data-name="Span">
</g>
<text fill="#231f20" xml:space="preserve" transform="matrix(1 0 -0 1 0 841.89)" font-size="9" font-family="Roboto"><tspan y="-604.97238" x="386.93199 393.08799 396.11198 400.98817 403.93476 408.79298 413.8303 418.8253 420.84129 425.74449 430.1446 434.69859 436.8856 438.90159 444.00099 449.00498 451.02098 455.51289 460.30809 463.06208 468.14259 471.16658 473.35359 475.92759">Gratanglaks indikator - </tspan><tspan y="-594.17239" x="386.93199 392.20149 396.85359 401.45979 406.16499 411.1312 414.0292 416.0389 418.0639 423.1345 428.2006 432.87788 435.7642 440.37937 443.12797 447.84306 455.83235">Vesentlighetstema</tspan><tspan y="-568.02737" x="153.05799 158.5633 163.0282 167.8072 170.98509">Skatt</tspan></text>
<path transform="matrix(1,0,0,-1,312.4813,274.51814)" stroke-width=".439" stroke-linecap="butt" stroke-miterlimit="10" stroke-linejoin="miter" fill="none" stroke="#1e5e9e" d="M 0 0 L 10.356 0 "/>
<g id="Layer-1" data-name="Span">
</g>
<g id="Layer-1" data-name="Span">
<text fill="#231f20" xml:space="preserve" transform="matrix(1 0 -0 1 0 841.89)" font-size="9" font-family="Roboto"><tspan y="-568.0311" x="256.063 262.23518 266.50749 271.58799 276.6631 281.7526 289.73289 291.74888 293.93589 298.53038 300.59407 305.66105 310.31407">&#x00d8;konomi side </tspan></text>
</g>
<g id="Layer-1" data-name="Span">
<text fill="#1e5e9e" xml:space="preserve" transform="matrix(1 0 -0 1 0 841.89)" font-size="9" font-family="Roboto"><tspan y="-568.0311" x="312.48399 317.722">39</tspan></text>
</g>
<g id="Layer-1" data-name="Span">
</g>
<g id="Layer-1" data-name="Span">
<text fill="#231f20" xml:space="preserve" transform="matrix(1 0 -0 1 0 841.89)" font-size="9" font-family="Roboto"><tspan y="-573.43118" x="386.93199 393.08799 396.11198 400.98817 403.93476 408.79298 413.8303 418.8253 420.84129 425.74449 430.1446 434.69859 436.8856 438.90159 444.00099 449.00498 451.02098 455.51289 460.30809 463.06208 468.14259 471.16658 473.35359 475.92759">Gratanglaks indikator - </tspan><tspan y="-562.63119" x="386.93199 392.20149 396.85359 401.45979 406.16499 411.1312 414.0292 416.0389 418.0639 423.1345 428.2006 432.87788 435.7642 440.37937 443.12797 447.84306 455.83235">Vesentlighetstema</tspan></text>
</g>
<g id="Layer-1" data-name="Span">
</g>
<text fill="#404041" xml:space="preserve" transform="matrix(1 0 -0 1 0 841.89)" font-size="7" font-family="Roboto"><tspan y="-29.016" x="422.3238 426.262 431.099 435.1275 440.2165 445.04368 449.07218 453.0944 455.23503 460.324 464.3525 468.9669 473.28169 477.1576 478.9006 481.04124 486.13023 490.93153 493.07215 497.96376 502.14207 506.36796 511.32118 515.9272 519.95919">EGENDEFINERTE INDIKATORER</tspan></text>
<text fill="#404041" xml:space="preserve" transform="matrix(1 0 -0 1 0 841.89)" font-size="8" font-family="Roboto" font-weight="bold"><tspan y="-44.7402" x="515.2297 519.82168">93</tspan></text>
<g id="Layer-1" data-name="Artifact">
<clipPath id="cp761">
<path transform="matrix(1,0,0,-1,0,841.89)" d="M 0 0 L 595.276 0 L 595.276 841.89 L 0 841.89 Z "/>
</clipPath>
<g clip-path="url(#cp761)">
<path transform="matrix(1,0,0,-1,524.4094,802.3869)" stroke-width=".5" stroke-linecap="butt" stroke-miterlimit="4" stroke-linejoin="miter" fill="none" stroke="#404041" d="M 0 0 L -1048.819 0 "/>
</g>
<g id="Layer-1" data-name="Artifact">
<path transform="matrix(1,0,0,-1,-524.4094,39.3869)" stroke-width=".5" stroke-linecap="butt" stroke-miterlimit="4" stroke-linejoin="miter" fill="none" stroke="#404041" d="M 0 0 L 1048.819 0 "/>
</g>
</g>
</g>
</g>
</svg>
