<?xml version="1.0" encoding="UTF-8" standalone="no"?>
<!DOCTYPE svg PUBLIC "-//W3C//DTD SVG 1.1//EN" "http://www.w3.org/Graphics/SVG/1.1/DTD/svg11.dtd">
<svg xmlns="http://www.w3.org/2000/svg" xmlns:xlink="http://www.w3.org/1999/xlink" version="1.1" width="595.276pt" height="841.89pt" viewBox="0 0 595.276 841.89">
<g enable-background="new">
<g>
<g id="Layer-1" data-name="Span">
</g>
<g id="Layer-1" data-name="Span">
</g>
<text fill="#10a79d" xml:space="preserve" transform="matrix(1 0 -0 1 0 841.89)" font-size="15" font-family="Roboto"><tspan y="-759.7736" x="70.8661 79.4071 87.8641 95.6206 101.79459 110.320598 114.055599 122.335597 130.8376 138.7771 143.9251 152.3851 156.16809 160.02309 168.43509 173.3281 181.2751 189.68862 197.41362 201.25061 206.14362 214.01563">302-3 Energiintensitet</tspan><tspan y="-622.2536" x="70.8661 79.4071 87.86409 95.6206 102.1651 110.685108 114.420108 123.844608 131.76612 140.25612 148.77613 156.40663 164.04914 167.95813 176.47364 184.96364 188.69864 196.57364 204.17864 207.91364 215.85913 224.36113 232.30213 237.44863 245.90863 249.70813 254.61014 263.11814 268.42366 276.96165 282.28218 290.80216 298.33216 306.20417 311.33418">302-4 Reduksjon av energiforbruket </tspan></text>
<g id="Layer-1" data-name="Artifact">
<clipPath id="cp699">
<path transform="matrix(1,0,0,-1,0,841.89)" d="M 0 0 L 595.276 0 L 595.276 841.89 L 0 841.89 Z "/>
</clipPath>
<g clip-path="url(#cp699)">
<filter id="blend_3"><feBlend mode="overlay" in2="BackgroundImage" in="SourceGraphic"/></filter>
<g filter="url(#blend_3)">
<clipPath id="cp700">
<path transform="matrix(1,0,0,-1,0,841.89)" d="M 69.8661 666.928 L 525.409 666.928 L 525.409 669.428 L 69.8661 669.428 Z "/>
</clipPath>
<g clip-path="url(#cp700)">
<path transform="matrix(1,0,0,-1,70.8661,173.71173)" stroke-width=".5" stroke-linecap="butt" stroke-miterlimit="4" stroke-linejoin="miter" fill="none" stroke="#b9bbbd" d="M 0 0 L 453.543 0 "/>
</g>
</g>
</g>
<g id="Layer-1" data-name="Span">
</g>
<text fill="#404041" xml:space="preserve" transform="matrix(1 0 -0 1 0 841.89)" font-size="9" font-family="Roboto"><tspan y="-735.2513" x="70.8661 76.5415 78.557498 83.46069 91.44999 96.27399 98.35478 103.05998 106.083988 111.00788 115.71398 120.77558 125.48168 128.49398 133.48897 135.51668 137.53269 142.52588 145.27449 149.98059 154.96298 159.52869 161.63469 164.3833 169.06151 171.95052 176.83301 181.1773 185.90232 190.90631 195.7879 197.80391 202.68912 207.08922 211.69542 216.46363 221.54322 226.59581 231.66101 236.6947 239.707 244.38521 247.54512 250.43413 255.31662 259.66093 264.38505 269.38905 274.27156 279.09556 283.98527 288.59144 293.24446 298.09907 303.15165 307.97566 312.86628 317.57148 322.63398 327.33918 330.35148 335.34648 337.36247 342.28367 347.33625 350.52043 355.55863 360.28453 363.17353 368.05696 370.85057 375.93107 378.95506 383.87898 388.78938 393.13368 397.83888 401.26606 404.15507 409.03849 411.79249 416.8721 421.90943 426.85044 431.79505 434.77406 436.67756 441.27745 445.68745 450.57447 455.62705 458.65104 463.73695 468.76976 473.71076 478.38896 483.09507 486.52226 489.41127 494.29377 496.82817 503.10386 507.91978 511.56837 514.3223 519.40286 524.3438">Vi m&#x00e5;ler energiintensitet ved lakseoppdrett ved &#x00e5; se p&#x00e5; energi brukt for hvert tonn fisk produsert (GJ/ton </tspan></text>
</g>
<g id="Layer-1" data-name="Span">
</g>
<g id="Layer-1" data-name="Span">
</g>
<g id="Layer-1" data-name="Span">
</g>
<text fill="#404041" xml:space="preserve" transform="matrix(1 0 -0 1 0 841.89)" font-size="9" font-family="Roboto"><tspan y="-724.4514" x="70.8661 73.8631 75.7486 80.320598 84.615398 89.321498 94.37409 97.398998 102.48489 107.5069 112.5541 116.9542 121.5046 123.5746 128.7271 133.7365 135.9415 140.5828 148.70709 153.9496 156.7144 158.8636 161.0686 167.2219 171.8992 175.0591 177.8086 182.44 184.645 189.658 191.6983 194.77 196.975 201.65232 204.54851 206.75351 214.74552 219.5704 221.6134 223.8184 228.871 233.713 235.918 240.8284 245.1853 250.26491 253.33661 255.54161 260.17213 263.3293 266.11125 270.81645 275.54325 278.44578 280.53828 284.94105 287.14604 292.19865 295.22355 300.30857 305.33058 310.37779 314.77879 319.32829 321.3983 326.5499 331.6115 336.3176 341.32704 343.532 348.2372 350.86253 353.01173 355.2167 361.6472 366.7628 371.46888 376.4783 378.6833 383.4272 387.83088 390.03587 394.38288 399.08808 402.10939 407.1143 409.1951 413.90119 418.9628 423.5951 425.80009 430.2641 432.2738 434.3168 436.5218 440.83998 448.75816 451.77046 456.40184 458.6068 461.45173 466.25685 470.87113 473.62065 478.28263 480.00614 482.21113 487.30516 492.31816 494.52314 498.87553 503.71754 506.881 508.96183 513.6679 516.6802 521.3854 524.4571">fiskeproduksjon LWE). Dette gir et m&#x00e5;l p&#x00e5; hvor effektiv produksjonen er. Noen av verdiene vil v&#x00e6;re faste, og varierer </tspan><tspan y="-713.6514" x="70.8661 75.9331 80.6392 84.0187 86.8132 91.8928 94.9168 97.9084 99.9244 104.50089 108.76869 113.42169 116.34489 124.37919 129.1033 134.1073 137.0566 142.1101 145.13411 150.2191 155.25189 160.29099 164.69109 169.24509 171.38799 176.46758 181.53008 186.23528 191.17627 194.18857 196.69507 201.40117 205.80127 210.46508 212.61608 215.55817 220.38217 225.44287 233.42317 235.43918 240.47377 242.48438 247.09958 250.03179 253.05579 257.905 262.45899 264.6019 269.6824 274.66484 279.2647 284.2003 288.53648 293.58546 298.72355 300.44255 303.38917 308.46519 313.58079 318.2869 323.2279 326.23933 329.40373 333.91093 339.0049 343.71104 346.73503 349.72575 352.65885 355.68284 360.58604 365.56846 370.16835 375.25874 380.33836 383.76554 386.53306 389.29786 391.44886 394.39097 400.54335 405.22157 408.38056 411.13008 415.78309 418.70539 423.79939 428.4776 431.642 436.1483 439.17228 442.16389 446.95909 449.84809 452.7983 457.1426 461.86674 466.87074 469.82005 474.67826 477.70225 480.69297 485.60429 489.9603 495.0408 498.0648 501.0555 506.1234 510.80073 513.6897 516.6399 521.346 524.37">derfor ikke med produksjonen (eks. administrasjonsbygg, noen typer transport). Dette betyr at ved &#x00e5;r hvor det er </tspan><tspan y="-702.85147" x="70.8661 75.91869 78.942699 84.028598 89.06139 94.002399 98.679698 103.385799 106.812999 109.701999 111.88899 119.87829 121.89429 126.96759 132.00128 135.01358 139.66658 141.85358 144.83258 146.7163 151.3162 155.9782 157.69719 159.88419 164.35448 166.36328 168.37929 170.56629 175.30118 180.36278 185.06888 188.08118 193.07617 195.10388 197.11989 202.11219 204.8617 209.5678 214.55019 219.11589 221.221 223.9705 228.64871 231.39733 236.10343 241.04442 243.23142 248.39562 253.10172 256.1257 258.3127 261.11534 266.19584 271.23225 276.17326 278.36027 283.48307 288.22697 292.69099 294.70698 297.90827 302.17607 306.82908 311.38307 313.57008 318.66319 323.3801 328.42729 333.22248 336.1259 338.21748 342.96409 345.8531 348.0401 352.7921 357.12113 359.30815 364.45164 369.12986 372.01887 374.20588 377.05979 381.86399 386.47917 389.22776 393.88078 396.06779 398.84248 403.92298 407.09727 412.14985 415.33314 420.37226 424.64006 429.31736 432.30717">produsert mindre fisk, vil energiintensiteten per tonn p&#x00e5;virkes negativt av det faste forbruket.</tspan></text>
<path transform="matrix(1,0,0,-1,223.7049,449.6567)" stroke-width=".439" stroke-linecap="butt" stroke-miterlimit="10" stroke-linejoin="miter" fill="none" stroke="#1e5e9e" d="M 0 0 L 29.603 0 "/>
<g id="Layer-1" data-name="Span">
</g>
<g id="Layer-1" data-name="Span">
</g>
<g id="Layer-1" data-name="Span">
</g>
<g id="Layer-1" data-name="Span">
</g>
<g id="Layer-1" data-name="Span">
</g>
<g id="Layer-1" data-name="Span">
</g>
<g id="Layer-1" data-name="Span">
</g>
<g id="Layer-1" data-name="Span">
</g>
<g id="Layer-1" data-name="Span">
</g>
<g id="Layer-1" data-name="Span">
</g>
<g id="Layer-1" data-name="Span">
</g>
<g id="Layer-1" data-name="Span">
</g>
<g id="Layer-1" data-name="Span">
</g>
<g id="Layer-1" data-name="Span">
</g>
<g id="Layer-1" data-name="Span">
</g>
<g id="Layer-1" data-name="Span">
</g>
<g id="Layer-1" data-name="Span">
</g>
<g id="Layer-1" data-name="Span">
</g>
<g id="Layer-1" data-name="Span">
</g>
<g id="Layer-1" data-name="Span">
<text fill="#404041" xml:space="preserve" transform="matrix(1 0 -0 1 0 841.89)" font-size="9" font-family="Roboto"><tspan y="-598.0925" x="70.8661 76.5415 78.557498 81.64449 86.6665 91.5247 94.5487 97.653697 102.331897 105.220897 108.289897 110.30589 115.19109 120.22839 125.2234 129.80709 131.82309 136.57599 139.4794 141.5341 146.5291 149.6071 154.70111 159.40721 162.514 167.1139 172.20792 176.91402 181.63993 184.52893 186.63043 190.95943 194.09143 199.14403 203.96804 207.04604 212.07973 215.22434 217.28264 220.48665 223.23616 227.94226 232.88326 236.01526 240.36856 245.22676 247.87726 249.59626 252.65625 257.75025 262.74525 265.82325 270.52937 273.55335 276.65837 281.73799 286.79148 291.73606 294.68266 299.47785 302.63685 305.52586 308.59486 313.33876 317.66777 320.79978 325.5941 328.4831 331.5521 335.9054 340.7636 343.7759 348.42893 351.47096 353.56526 358.64488 363.10978 367.93379 369.94349 372.04859 374.7981 379.4754 382.2249 386.93104 389.95503 393.06004 397.65904 402.12394 406.94795 408.96394 412.05094 416.36915 424.28736 427.29966 431.95268 434.9947 440.0293 447.94664 450.95893 455.66505 460.21455 463.23854 468.03193 471.23683 474.14024 476.19404 481.27003 485.88975 488.04075 491.10075 497.50337 502.54338 507.09736 510.18437 515.22439 519.8351 524.3891">Vi har et langsiktig perspektiv p&#x00e5; driften v&#x00e5;r, og er opptatt av at v&#x00e5;re lokaliteter skal v&#x00e6;re b&#x00e6;rekraftige. Hos oss </tspan><tspan y="-587.29257" x="70.8661 75.465999 79.93089 84.75489 86.77089 89.32689 94.15089 96.16058 98.24138 102.89438 105.40537 110.427379 115.25137 117.79837 122.86627 127.54357 130.70348 133.45299 138.10599 140.61699 142.633 145.189 148.1356 152.9938 158.0302 162.298 167.0041 172.0657 176.7286 178.4476 180.9838 185.92479 190.855 193.879 196.46019 200.92418 202.94019 205.50159 210.54068 215.37819 220.37319 222.4009 224.4547 229.44969 231.99669 237.09969 240.2128 243.00551 248.08962 251.10192 255.80712 258.83113 261.41145 265.76475 270.62297 273.64695 276.22816 278.37107 283.45069 288.50328 293.53788 295.25688 297.79399 299.80998 302.36598 307.04328 309.93229 312.4703 317.2142 321.5432 324.1505 329.2175 333.8705 336.38154 339.52613 341.5421 345.8369 350.48994 355.1051 357.8537 362.5067 365.01774 370.10636 378.11186 381.13584 385.95985 391.09074 395.79594 400.85844 405.51145 408.02247 410.03846 412.59446 416.93876 421.64396 424.66795 429.73585 434.44105 439.38206 441.98307 450.01826 454.74238 459.74638 462.2844 465.231 470.0892 475.1256 479.3934 484.04643 486.55744 491.60914 496.43315 498.98014 501.99244 506.69764 511.73497 516.8011 521.4793 524.3683">skal alle ha dette i tankene, n&#x00e5;r vi daglig utf&#x00f8;rer v&#x00e5;r jobb, i et av de rikeste omr&#x00e5;dene i verden med tanke p&#x00e5; renhet </tspan><tspan y="-576.49258" x="70.8661 75.9601 80.9551 83.340099 88.37019 90.46449 95.52159 97.61589 102.70989 107.704898 109.7335 114.3334 118.74339 121.11939 129.1087 133.9669 139.0042 144.0649 146.8594 151.9165 153.98021 159.0661 161.2171 163.58409 169.77519 172.6642 177.229 179.23871 181.25472 186.33522 191.32123 193.71523 198.45914 202.78813 205.22713 210.28423 212.30924 214.43953 219.10153 220.82053 223.19382 228.22751 231.37212 233.46373 237.85123 242.46643 245.22045 250.13533 253.29254 256.27156 258.54856 263.64256 268.63755 271.02256 275.52976 277.66007 282.37519 290.35548 292.37147 296.86427 301.68827 303.69798 305.77876 310.48487 313.13536 314.85435 317.22676 321.93287 324.95686 327.36888 331.98405 334.91627 337.92857 342.63468 347.672 352.77949 355.6685 358.0454 360.8399 365.9204 369.0947 374.1311 379.18373 384.2831 387.17213 389.54814 394.64213 399.63713 402.02214 406.62113 411.08604 415.91004 417.92604 420.32005 423.11454 428.19416 431.20646 435.91258 440.84815 445.18434 450.2333 455.3093 459.9623 464.5163 466.9103 472.1447 474.2759 478.9811 484.01753 489.09355 494.18217 502.15617 504.52317 509.61177 514.6967 519.76467 524.41769">og biologisk mangfold. Utslipp av olje, drivstoff og kjemikalier, er strengt forbudt og skal forebygges gjennom gode </tspan><tspan y="-565.69259" x="70.8661 75.91869 78.942699 83.9827 88.5889 93.312999 98.41599 102.922298 105.93459 110.64069 113.664699 115.85169 120.99519 125.9902 128.1772 131.37671 136.4788 139.38222 141.39823 146.48682 151.19292 153.81822">prosedyrer og rutiner.</tspan><tspan y="-544.0926" x="70.8661 76.2769 78.4198 83.5111 91.5004 96.29559 99.18459 102.52359 108.95409 114.03368 117.04598 122.12199 126.77499 130.08609 135.10718 139.96538 142.98938 146.36978 151.04709 153.9361 157.27509 165.26529 170.0893 172.1053 175.465 180.55359 188.52759 191.86209 196.6573 199.54631 202.8853 207.9514 212.6233 214.70412 219.35712 222.66822 227.7487 232.80132 237.86562 242.9002 245.9125 250.58982 253.74973 256.63874 261.23863 266.23454 274.15275 277.29734 279.31333 284.37855 289.45365 294.15977 299.10078 302.50099 307.10087 311.56578 316.38978 318.40577 321.76548 326.0846 334.00193 337.01423 341.66725 344.97837 349.65028 351.73106 356.43717 361.16307 364.09617 367.24076 369.39805 372.37705 374.28056 378.88673 383.59284 387.02003 389.90904 393.24806 395.26405 400.32835 405.38996 410.09608 415.03709 418.4382 423.5025 428.655 433.8093 438.8385 440.9895 444.31953 450.72215 455.67036 460.01466 464.73878 469.79048 472.58497 477.66459 480.84788 488.83808 493.66209 495.74287 500.42109 503.3101 506.6491 514.6834 519.40847 524.4125">Sj&#x00f8;mat Norge har et m&#x00e5;l om at hele oppdrettsn&#x00e6;ringen skal v&#x00e6;re elektrifisert innen 2030. Hovedform&#x00e5;let med </tspan><tspan y="-533.2926" x="70.8661 75.537097 77.61879 82.32399 87.0508 89.982997 93.127597 95.28579 98.26479 100.16829 104.77449 109.47969 112.62429 114.64029 119.70459 124.69959 128.23299 132.93819 135.96219 139.52889 144.35289 147.88539 150.89769 155.6218 160.65549 165.59648 170.27469 174.98079 177.99309 182.64609 186.14258 191.19608 194.37938 199.41757 203.68538 208.39148 213.33248 216.91898 221.66289 225.99188 229.58469 234.58869 236.6695 241.3225 245.9278 250.5997 252.6157 256.1617 260.7706 265.8601 273.8341 277.354 282.376 287.23423 290.2582 293.82405 298.14317 306.0605 309.48768 312.37669 315.90199 320.9816 325.9298 330.2741 334.99824 340.03193 344.5526 346.5614 348.6251 353.69209 358.39729 363.3383 366.9257 369.8291 371.8379 373.85389 377.3999 381.9197 383.9294 385.9787 393.9689 398.8064 403.85359 408.65779 413.26847 417.83415 422.93714 425.82615 430.39094 432.40065 434.41664 439.49714 444.48313 448.02464 450.97663 454.0006 458.82463 462.403 467.4556 470.47959 475.5646 480.5983 485.6365 490.03663 494.5906 496.7344 501.81404 506.75505 510.34245 514.68588 519.4109 524.4149">elektrifisering er &#x00e5; redusere bruken av diesel som har v&#x00e6;rt hovedkilden til klimagassutslipp fra produksjon ved </tspan><tspan y="-522.4926" x="70.8661 75.945697 80.99919 86.06349 91.09809 94.11039 98.78769 101.947589 104.836589 109.47249 114.32979 119.33829 121.41908 126.13599 131.18498 136.27988 138.43088 139.69087 145.84418 150.52149 153.41049 154.67949 159.38559 162.40959 163.71459 168.78069 173.48589 178.46918 183.03488 185.05089 189.80379 192.6928 197.3017 205.336 209.989 214.5988 219.1645 221.21921 226.2142 227.4922 232.54482 237.36882 242.45381 247.10681 248.3488 251.14331 256.22294 259.24693 264.25093 266.2669 267.55393 272.6209 277.29823 280.18724 281.45625 286.45124 288.46723 291.4912 292.84123 297.9361 302.66023 307.6939 310.7071 315.3601 316.6021 321.68443 325.95674 331.03724 336.11235 341.20185 349.18214 351.19813 352.48515 357.53773 362.36174 363.63975 368.20454 370.22053 374.97343 378.01454 379.73353 380.99894 385.63484 390.50114 398.41844 401.32185 403.38465 408.38865 410.44245 415.43745 416.71546 421.32435 426.41386 434.38786 435.64787 440.71485 445.39308 448.28208 449.55198 454.58299 456.64579 461.6804 464.70439 469.60758 472.63157 473.93659 476.84 478.8488 480.86479 482.1518 486.8291 489.7181 490.98713 493.99943 498.72355 503.75724 508.69825 513.37649 518.0826 521.50979 524.39877">oppdrettsanlegg. Det er hensiktsmessig b&#x00e5;de fordi det gir bedre &#x00f8;konomi p&#x00e5; sikt, samtidig som det bidrar til et redusert </tspan><tspan y="-511.69264" x="70.8661 76.8241">CO</tspan></text>
<text fill="#404041" xml:space="preserve" transform="matrix(1 0 -0 1 0 841.89)" font-size="5.247" font-family="Roboto"><tspan y="-508.6955" x="82.8799">2</tspan></text>
<text fill="#404041" xml:space="preserve" transform="matrix(1 0 -0 1 0 841.89)" font-size="9" font-family="Roboto"><tspan y="-511.6925" x="85.8103 89.6821 94.7851 97.6741 102.23981 104.249507 106.2655 111.346 116.3473 118.4983 121.2523 129.01839 131.0344 136.10678 141.14048 144.15367 148.80667 151.53816 156.37567 161.42557 166.46826 169.48056 174.19657 179.24466 184.03987 186.92888 189.69188 194.78588 199.78087 202.55287 207.55687 209.63768 214.29068 218.89688 223.56879 225.5848 230.6653 233.8486 238.8868 243.2968 246.0598 254.0401 256.0561 261.1204 265.38819 270.09339 273.11738 275.91639 281.01039 286.00538 290.65837 295.48237 298.24989 302.80387 304.90718 309.76539 314.7478 319.35398 324.05918 329.00019 331.8262 334.6207 339.70033 342.7243 345.52333 350.56153 355.62763 360.29954 362.36235 367.36634 369.42015 374.49613 379.14915 381.88066 383.96235 388.66755 393.21705 397.68284 402.48616 407.04014 409.17134 413.87654 416.527 418.246 421 426.04 430.864 433.63154 438.33766 443.37406 448.28446 452.62876 457.33488 460.35887 463.15879 468.2384 473.2919 478.34449 483.43937 488.0825 492.4358 497.294 500.4386 502.4546 507.5189 512.5139 515.28506 520.0298 524.35879">-utslipp. Mindre aggregat og dieselbruk minker ogs&#x00e5; sjansen for uheldige lekkasjer, da enhver oppbevaring av </tspan><tspan y="-500.89253" x="70.8703 75.8743 77.95599 82.60899 87.215198 91.88709 93.90309 96.90909 101.37399 103.38369 105.39969 108.405689 112.88769 117.92589 122.96229 128.0248 132.6778 135.6388 140.63379 142.6498 145.6738 153.655 158.596 160.6768 162.7315 167.8066 172.4596 175.4206 180.52269 183.4117 187.9774 189.9862 192.00222 197.08182 202.08402 204.23502 207.21402 212.88942 214.90543 217.91143 222.61663 225.64063 228.67003 230.68604 233.69203 238.74013 243.59833 248.63562 253.63062 256.62763 264.66194 269.38694 274.39094 277.37895 282.20295 285.19996 290.13645 294.47175 299.52073 304.5967 309.24974 312.21073 317.26243 322.05763 325.21754 327.96705 332.67225 335.81684 337.83283 342.91154 347.76976 352.31925 356.58705 361.29316 364.31715 367.34117 370.13566 375.21617 378.24015 381.26417 386.08818 389.08518 394.11888 397.26347 399.32087 402.52577 405.27528 409.92829 412.88929 420.92359 425.6486 430.6526 433.6406 438.5681 443.07533 448.1279 451.2725 453.33619 458.34019 460.43449 465.47538 470.07527 475.08287 477.09886 482.16316 487.23826 491.94438 494.96836 497.99238 503.04496 507.86897 510.86598 515.68997 517.6987 519.7804 524.4334">diesel vil kunne gi mulige utslipp. Vi er i gang med &#x00e5; bygge batteripakker for &#x00e5; drifte med hybridl&#x00f8;sninger p&#x00e5; alle </tspan><tspan y="-490.09254" x="70.8703 72.9637 78.0442 82.509098 87.33309 89.34189 91.44788 94.19738 98.87468 101.624179 106.32938 111.39188 116.044879 117.83498 122.74538 127.10228 132.18187 135.20587 137.06256 139.07857 143.96378 149.00917 154.01317 158.62837 161.56148 164.58548 169.67588 177.64987 179.46337 181.47937 186.05588 190.32369 194.97669 196.76679 201.47289 204.49689 206.35538 214.33748 219.34598 221.35569 223.40949 228.50348 230.65448 232.46437 238.20728 242.91248 245.92478 250.64168 255.68437 260.69288 262.70887 267.77409 272.84919 277.55439 280.57838 282.43778 285.38978 288.41377 293.23777 295.1089 300.1741 305.25013 310.19834 314.55165 319.37565 321.20088 325.66578 327.67549 332.28166 336.98777 340.01176 341.87028 346.66548 349.55448 351.37339 356.0444 358.1261 362.8313 367.5572 370.4903 373.6349 375.7931 378.7721 380.6756 385.28178 389.98698 393.13157 395.14756 400.21186 405.28697 409.99308 414.93409 416.8142 421.27824 423.28794 425.30393 427.14265 430.15495 434.87995 439.91276 444.85377 449.53105 454.23716 457.24946 461.90248 463.69258 468.39778 473.46028 478.16548 481.17778 486.17277 488.24815 491.04264 496.12315 499.29743 504.35 507.5333 512.5724 516.84017 521.51748 524.40646">lokalitetene hvor landstr&#x00f8;m ikke er mulig. Beregninger fra Enova viser at elektrifiseringen vil redusere energiforbruket </tspan><tspan y="-479.29255" x="70.8703 75.2236 80.0818 83.509 86.398 88.585 96.627399 101.352397 106.35639 108.54339 111.73389 116.77209 121.81839 126.916889 129.8059 131.99289 136.93299 141.95407 148.79047 150.94147">v&#x00e5;rt med rundt 25%. </tspan><tspan y="-457.69255" x="70.8703 75.9364 80.8774 84.6916 89.7595 94.4305 96.446498 100.21659 104.96049 109.28949 113.10368 117.77468 119.85638 124.56158 129.28748 132.22058 135.36519 137.52339 140.5024 142.4059 147.0121 151.7173 154.86191 156.87792 161.94222 167.0173 171.7234 176.6644 180.47589 183.3649 185.3809 187.39691 191.167 197.32302 200.34702 205.22322 208.16983 213.02803 218.06623 223.06122 225.07723 229.98043 234.38053 238.93453 242.70642 247.75902 252.56322 257.1694 261.8746 264.8869 269.59303 272.617 276.40693 281.0131 285.7291 290.7241 294.4816 299.5333 304.3573 308.11393 310.1299 315.0151 320.06053 325.0645 329.6797 332.6119 335.6359 340.7272 348.7939 350.94493 354.68534 359.75144 364.69245 368.50306 373.60606 376.71827 379.51277 384.59327 387.61726 392.65095 395.79554 397.81153 402.87583 407.87083 411.62834 416.69444 421.40055 424.42454 428.21446 432.91966 435.94364 439.73445 444.55845 448.31507 451.10957 456.18919 459.29597 463.86164 465.87763 470.45414 473.46644 478.11946 481.84007 486.44624 491.16316 496.15815 499.91477 505.00428 512.9783 516.7223 521.51748 524.40646">En del av elektrifiseringen til Gratanglaks baserer seg p&#x00e5; landstr&#x00f8;m. En utfordring her er &#x00e5; forsikre seg om at </tspan><tspan y="-446.89256" x="70.8703 75.485507 78.4186 81.442607 86.533008 94.5466 102.5818 107.287 112.228008 114.604007 119.213809 124.30241 132.27642 134.58672 139.63933 142.82263 147.86173 152.12953 156.78253 161.33654 163.67383 168.37993 171.40393 173.75923 178.81185 183.61605 188.22225 192.92745 196.35465 199.24365 201.55666 206.60927 211.43328 213.75527 218.83036 223.91085 227.01764 231.61754 236.02754 238.34593 242.69924 247.55744 252.59383 257.63114 262.18064 265.20463 269.99803 273.2029 276.19184 278.34284 280.64686 285.92088 290.77909 295.8155 300.8519 305.4014 308.42539 313.21879 316.42369 319.31269 321.6257 326.33183 329.3558 331.712 336.7547 339.7787 344.861 349.89833 354.83934 357.21534 361.92146 366.98307 371.68919 374.70149 379.69648 381.80427 383.95527 386.25929 392.6898 397.7694 400.7817 405.8577 410.5107 412.79673 417.50285 420.52684 422.88215 427.58827 432.52928 434.90528 439.97227 444.64329 446.65928 448.9903 453.7351 458.06413 460.44554 465.12376 468.01277 470.32579 472.34178 477.33409 480.0836 484.7888 487.96308 492.90409 497.78028 502.32978 504.47358 509.5532 514.4942 519.3902 521.4953 524.3843">str&#x00f8;mmen som brukes er basert p&#x00e5; norsk vannkraft. Vannkraft er gr&#x00f8;nn energi. Norge er en del av et internasjonalt </tspan><tspan y="-436.09257" x="70.8703 75.41981 78.44381 83.237209 86.44211 89.38421 97.373508 102.231708 105.406009 109.67381 114.39881 119.40281 121.42061 126.51551 131.51052 133.53731 138.15251 141.08562 144.10962 149.20001 157.21361 165.24881 169.95401 174.895 176.9767 180.07 182.17871 186.93791 189.68653 194.39263 197.41663 199.47762 204.42671 208.77011 213.47621 216.50022 218.5612 220.57721 225.46242 230.50872 235.57572 240.29262 245.33531 248.34761 253.05371 258.03614 262.6423 267.3475 272.41 277.02973 279.18074 281.19136 287.34373 292.02195 294.91096 296.93058 301.63578 304.65977 306.72077 311.78776 316.49388 319.87336 322.66786 327.74748 330.77146 332.83247 334.84846 339.42585 343.69364 348.34666 350.33747 358.31956 363.32807 365.33778 367.39158 372.38658 374.41429 379.23829 381.2651 385.8299 387.8459 389.8889 394.68409 397.5731 399.5927 404.2079 407.1401 410.1641 415.2545 423.2681 431.30329 436.00849 440.9495 443.03123 447.49525 449.51124 451.55424 454.34873 459.42835 462.60264 467.6552 470.8394 475.8776 480.1454 484.8515 487.50199 489.22099 491.237 495.5102 500.59883 508.6133 516.64767 521.35287 524.37686">kraftmarked og str&#x00f8;mmen flyter over landegrensene. Det er derfor ikke mulig &#x00e5; si at str&#x00f8;mmen vi forbruker, kommer </tspan><tspan y="-425.29258" x="70.8703 73.8223 76.846309 81.6703 84.0823 86.8768 91.9564 95.1307 100.0546 104.560909 109.6135 114.4717 117.484 122.137 124.4635 128.9842 130.99301 133.05672 138.12372 142.82982 145.48032 147.19931 149.54831 154.6504 157.39992 162.10512 167.04611 169.4671 174.2911 176.65361 181.16082 183.30371 188.38692 193.48093 198.13393 200.46492 205.54451 210.59803 215.65062 218.79523 220.81124 225.87554 230.93714 235.60904 237.61875 242.22495 246.87795 251.44905 256.49717 261.35539 264.37937 269.28257 274.24787 277.15129 279.23207 283.93818 286.56346 288.71446 291.06346 296.53456 298.54335 300.55934 304.85414 309.50715 311.83818 316.88536 321.74357 324.76756 329.67076 334.63697 337.52598 339.61668 344.32188 347.34587 349.74076 354.44688 357.47087 359.86488 364.57099 369.512 371.9285 379.9628 384.6689 387.8432 392.111 396.8792 401.95884 404.98283 410.0165 415.02503 417.04103 422.10624 427.10124 429.46376 432.25825 437.33876 440.36274 442.75675 447.42778 449.50947 454.21467 458.94056 461.87367 465.01826 467.02885 471.5945 473.69963 476.44914 481.12644 484.16755 485.88655 488.23554 491.03004 496.10966 499.13365 501.52766 506.35166 508.71418 513.17819 515.1888 519.795 524.448">fra fornybare kilder, uten &#x00e5; kj&#x00f8;pe opprinnelsesgarantier. Slike garantier er en merkeordning for elektrisitet, for &#x00e5; vise </tspan><tspan y="-414.49259" x="70.8703 75.6655 78.5545 80.74149 85.4566 90.3976 92.584598 100.689098 105.395198 110.432498 115.4905 120.5575 125.2105 127.3975 131.9272 134.9512 139.74462 142.94953 145.83853 148.02553 152.73973 155.76374 157.95073 163.05284 166.07685 171.16274 176.19553 181.13652 185.81383 190.51993 193.94713 196.83614 199.02313 201.98323 205.00724 209.83124 212.01824 216.78464 221.72563 223.91263 228.58274 233.67673 238.32973 242.89543 245.05274 248.03174 249.93524 254.54145 259.24757 262.67475 265.56376 267.75077 272.46498 277.52659 282.23179 285.24497 290.23997 292.25596 296.82167 298.83045 300.89414 305.96113 310.58085 312.73185">at en mengde kraft er produsert fra en spesifisert energikilde. </tspan><tspan y="-392.89259" x="70.8703 78.6994 83.4046 86.428607 88.6156 93.7546 101.7286 103.915599 108.268 113.1262 116.1502 118.3372 123.05769 125.13939 129.84459 134.5705 137.5036 140.64821 142.80641 145.78542 147.68892 152.29512 157.00032 160.14493 162.16094 167.22524 172.22023 174.40723 177.38623 179.33203 184.36933 189.43093 194.13703 197.16103 199.34803 204.43032 209.3713 211.5583 216.6802 221.50421">Mer om v&#x00e5;r elektrifisering finner du p&#x00e5; </tspan></text>
</g>
<g id="Layer-1" data-name="Span">
<text fill="#1e5e9e" xml:space="preserve" transform="matrix(1 0 -0 1 0 841.89)" font-size="9" font-family="Roboto"><tspan y="-392.89259" x="223.7083 228.4711 230.9245 236.1463 240.8533 243.0943 248.3521">side 50</tspan></text>
</g>
<text fill="#404041" xml:space="preserve" transform="matrix(1 0 -0 1 0 841.89)" font-size="9" font-family="Roboto"><tspan y="-392.89259" x="253.3093">.</tspan></text>
<g id="Layer-1" data-name="Artifact">
<clipPath id="cp701">
<path transform="matrix(1,0,0,-1,0,841.89)" d="M 0 0 L 595.276 0 L 595.276 841.89 L 0 841.89 Z "/>
</clipPath>
<g clip-path="url(#cp701)">
<g filter="url(#blend_3)">
<clipPath id="cp702">
<path transform="matrix(1,0,0,-1,0,841.89)" d="M 69.8661 356.969 L 525.409 356.969 L 525.409 359.469 L 69.8661 359.469 Z "/>
</clipPath>
<g clip-path="url(#cp702)">
<path transform="matrix(1,0,0,-1,70.8661,483.67063)" stroke-width=".5" stroke-linecap="butt" stroke-miterlimit="4" stroke-linejoin="miter" fill="none" stroke="#b9bbbd" d="M 0 0 L 453.543 0 "/>
</g>
</g>
</g>
<g id="Layer-1" data-name="Span">
</g>
<text fill="#10a79d" xml:space="preserve" transform="matrix(1 0 -0 1 0 841.89)" font-size="15" font-family="Roboto"><tspan y="-312.2964" x="70.8661 79.4071 88.0666 96.55509 103.099597 111.6196 115.3546 122.8816 131.2411 136.3531 144.46212 148.2976 153.42761 157.16262 165.35112 173.76313 178.87512 186.98262 190.76561 194.6506 198.3856 206.56511 212.22461 217.11762 225.05712 230.32212 234.05712 239.10312 244.26612 252.42612 256.1611 260.4226 270.65263 280.1776 290.5696 297.0436 300.82664 304.60514 312.42463 317.31614 325.26463 333.7546 337.4896 345.3631 350.7301 355.6231 363.56413 368.82914 372.56413 381.0226 384.85813">304-4 Totalt antall arter fra IUCN-listen etter niv</tspan></text>
<g id="Layer-2" data-name="Span">
</g>
<text fill="#10a79d" xml:space="preserve" transform="matrix(1 0 -0 1 0 841.89)" font-size="15" font-family="Roboto"><tspan y="-312.2964" x="392.1961">&#x00e5;</tspan></text>
<text fill="#10a79d" xml:space="preserve" transform="matrix(1 0 -0 1 0 841.89)" font-size="15" font-family="Roboto"><tspan y="-312.2964" x="400.35609 404.09107 412.58106 421.07106 424.80604 433.32154 438.38105 444.10206 451.46559 459.97059 468.42759 472.2826 480.7606 489.22059 496.99958 501.9466 510.1231 515.2696 523.11459"> og utrydningsfare </tspan></text>
</g>
<g id="Layer-1" data-name="Span">
<text fill="#10a79d" xml:space="preserve" transform="matrix(1 0 -0 1 0 841.89)" font-size="15" font-family="Roboto"><tspan y="-294.2964" x="70.8661 74.7511 78.4861">i p</tspan></text>
<g id="Layer-2" data-name="Span">
</g>
<text fill="#10a79d" xml:space="preserve" transform="matrix(1 0 -0 1 0 841.89)" font-size="15" font-family="Roboto"><tspan y="-294.2964" x="86.9311">&#x00e5;</tspan></text>
<text fill="#10a79d" xml:space="preserve" transform="matrix(1 0 -0 1 0 841.89)" font-size="15" font-family="Roboto"><tspan y="-294.2964" x="94.8061 102.381099 106.2286 111.534099 119.064098 126.985599 135.4756 143.3206 147.0556 155.56961 168.61962">virkede omr</tspan></text>
<g id="Layer-2" data-name="Span">
</g>
<text fill="#10a79d" xml:space="preserve" transform="matrix(1 0 -0 1 0 841.89)" font-size="15" font-family="Roboto"><tspan y="-294.2964" x="173.7811">&#x00e5;</tspan></text>
<text fill="#10a79d" xml:space="preserve" transform="matrix(1 0 -0 1 0 841.89)" font-size="15" font-family="Roboto"><tspan y="-294.2964" x="181.9111 190.40111 198.33609">der</tspan></text>
</g>
<g id="Layer-1" data-name="Span">
</g>
<g id="Layer-1" data-name="Span">
</g>
<g id="Layer-1" data-name="Span">
</g>
<g id="Layer-1" data-name="Span">
</g>
<g id="Layer-1" data-name="Span">
</g>
<g id="Layer-1" data-name="Span">
</g>
<g id="Layer-1" data-name="Span">
</g>
<g id="Layer-1" data-name="Span">
</g>
<g id="Layer-1" data-name="Span">
</g>
<g id="Layer-1" data-name="Span">
</g>
<g id="Layer-1" data-name="Span">
</g>
<g id="Layer-1" data-name="Span">
</g>
<g id="Layer-1" data-name="Span">
</g>
<g id="Layer-1" data-name="Span">
</g>
<g id="Layer-1" data-name="Span">
</g>
<g id="Layer-1" data-name="Span">
</g>
<g id="Layer-1" data-name="Span">
</g>
<g id="Layer-1" data-name="Span">
</g>
<g id="Layer-1" data-name="Span">
</g>
<g id="Layer-1" data-name="Span">
</g>
<text fill="#404041" xml:space="preserve" transform="matrix(1 0 -0 1 0 841.89)" font-size="9" font-family="Roboto"><tspan y="-269.7741" x="70.8661 75.9322 80.9686 85.8799 90.2233 94.9294 97.9534 101.43639 106.4323 114.349597 117.495098 119.51109 124.576297 129.57129 133.02098 137.63079 142.71938 150.69338 154.13048 159.18399 162.208 167.29299 172.32668 177.26767 181.94588 186.65108 189.66338 194.36948 197.39348 200.87648 208.86579 213.661 216.7021 218.4211 221.86 226.4662 231.14351 234.30342 237.05294 241.75814 244.78214 248.26514 252.94335 255.83235 259.27397 262.06846 267.00856 269.95515 274.69905 279.44566 282.37876 285.80955 290.31584 294.86534 299.47245 301.62345 305.05696 307.45097 310.92677 315.94789 320.6927 325.1864 330.23899 333.42317 338.46138 342.86149 347.46138 352.45729 360.3755 363.52009 365.53608 370.6013 375.6764 380.3825 385.32353 388.82725 393.68547 396.85975 401.95375 406.62565 408.68846 413.75636 418.46156 421.48554 424.96855 429.43345 431.44944 434.91175 442.94694 447.67106 452.67506 456.11576 460.93977 464.38948 469.4286 474.465 479.50233 484.5504 489.37443 492.82414 497.90824 502.99143 507.97386 512.5737 516.8415 521.5188 524.4078">Enhver n&#x00e6;ring som produserer mat, setter et fotavtrykk. I havbruksn&#x00e6;ringen arbeider vi med &#x00e5; unng&#x00e5; u&#x00f8;nsket </tspan><tspan y="-258.97413" x="70.8661 75.948398 80.220699 85.2607 89.8147 94.0897 98.8579 101.6074 106.3216 114.3271 119.3797 124.1236 128.58759 130.60359 133.8049 138.3544 143.3629 145.3789 150.4441 155.5381 157.6891 159.5521 164.82608 169.68428 172.70829 174.61627 179.66887 182.69287 187.77877 192.81156 197.84975 202.25075 206.80025 208.94405 214.02364 218.96463 220.89963 222.91564 224.80564 229.66384 234.75785 239.46395 244.40494 246.33994 250.89394 253.03684 258.04985 259.91285 264.37776 269.23597 274.17698 276.11198 281.16368 285.90757 290.37248 292.38847 295.58976 299.85847 304.51148 306.35649 311.42347 316.10169 318.9907 320.8627 325.8928 327.9871 333.0442 335.1385 340.23249 345.22749 347.25517 351.85505 356.12284 360.77586 362.62178 370.61106 375.46928 380.5066 385.5673 388.3618 393.4198 395.4826 400.5496 405.2278 408.11683 409.98884 413.17213 418.21125 423.25666 428.35606 431.24507 433.11708 441.15138 445.85749 448.88148 453.94847 458.65458 463.7162 468.3368 470.4878 472.3508 474.7448 476.64833 482.80433 485.8283 490.7045 493.6511 498.5093 503.54753 508.5425 510.5585 515.46176 519.8618 524.41586">&#x00f8;kosystemp&#x00e5;virkning. V&#x00e5;r produksjon i &#x00e5;pen sj&#x00f8; kan p&#x00e5;virke det biologiske mangfoldet rundt merdene. I Gratanglaks </tspan><tspan y="-248.17412" x="70.8661 73.008998 78.08949 83.14209 88.23699 92.94219 95.966197 98.29719 102.76209 104.77809 107.09109 111.36338 116.44388 121.40918 124.31258 126.328578 131.26958 136.44008 141.14618 144.29079 146.29959 148.3543 153.34929 155.65329 158.4478 163.52829 166.55229 168.88329 173.70729 176.01129 180.5761 182.5921 187.16861 190.18091 194.83391 197.1019 201.89621 204.78522 207.08022 211.43352 216.29172 219.30402 223.95702 226.225 229.40921 234.5113 237.41472 239.43073 244.52022 249.22542 252.24942 254.58042 262.5616 264.5776 269.6122 271.6624 279.69673 284.40284 287.41514 292.12034 295.14433 297.47535 302.53785 307.25386 312.30195 317.09715 319.98616 322.08766 326.43107 331.08409 333.35209 338.0051 341.1434 343.9253 348.6314 353.3573 356.1068 360.812 363.836 366.16703 371.2196 376.0436 378.34764 383.4146 388.09284 390.98185 393.27687 398.30787 400.40126 405.45927 407.55265 412.64665 417.64164 419.6693 424.2692 428.537 433.19 435.458 443.4473 448.3055 453.34373 458.4035 461.198 466.2551 468.3188 473.38578 478.064 481.05293 483.20393 485.48994 491.3705 496.47624 501.48023 503.48994 505.49964 510.1148 512.86428 517.56948 522.69137 524.41036">jobber vi kontinuerlig for &#x00e5; sikre at v&#x00e5;re rutiner minimerer negative effekter p&#x00e5; det biologiske mangfoldet. R&#x00f8;dlisten, </tspan><tspan y="-237.37412" x="70.8661 75.4759 80.5645 88.5385 90.97569 95.68179 98.705799 101.19159 105.89769 110.83869 113.34519 118.293399 122.637699 127.342899 130.44969 135.0154 137.0314 141.7843 144.67331 147.1186 152.0668 156.4111 161.1163 164.1403 166.6261 169.5592 172.74251 177.814 182.4922 185.38121 187.8265 192.7675 197.6347 200.5516 205.5898 208.2403 209.95929 212.40099 217.10709 220.13109 222.61688 227.29419 230.1832 232.6285 237.6811 242.5393 245.56331 250.6519 258.68623 263.36445 266.11396 270.81916 273.84315 276.32896 281.38066 286.20466 288.65718 293.51628 296.94346 299.69206 304.39817 309.45979 314.1128 318.66679 321.13459 324.0236 326.03959 328.0493 332.66447 335.61106 340.46928 345.51469 350.60148 352.75248 355.1879 360.7553 362.7713 367.6565 372.6218 375.3713 380.0765 383.1005 385.5863 390.6812 395.6762 398.12873 403.23173 407.738 410.762 413.2478 417.7127 422.5079 425.25743 429.97434 435.06294 440.14256 443.28804 445.29774 449.9039 454.6091 457.6214 462.2744 466.8284 469.2962 473.9735 477.13343 479.88294 484.58815 487.61213 490.09794 495.00926 499.36528 504.44578 507.46977 509.95558 515.03427 519.99417 524.26919">som er en oversikt over truet natur, er et barometer p&#x00e5; artenes tilstand. Planter og dyr kategoriseres etter hvor h&#x00f8;y </tspan><tspan y="-226.57411" x="70.8661 74.0107 76.02129 80.5861 82.6021 86.9014 91.9414 94.434398 99.501399 104.154399 106.656398 111.6784 116.5366 119.5606 122.125598 124.9201 129.9997 133.0237 135.5887 140.4127 142.9507 148.0303 153.0433 155.5633 160.66539 163.7065 165.42549 167.94548 172.85588 177.31987 179.33048 183.88448 186.43148 189.45548 194.27948 199.41039 204.11559 209.16188 214.22888 218.88188 221.38388 224.17839 229.25798 232.43228 237.51187 242.56897 244.63268 249.63668 252.16117 256.50547 261.23048 266.31547 270.66877 275.52607 278.53926 283.24446 285.86973 288.02073 290.54075 296.63825 301.68455 306.75154 311.45765 314.48164 317.04664 321.75276 324.77674 327.34175 332.04786 336.98887 339.58088 344.52909 348.87339 353.57859 356.68537 361.25105 363.26704 368.02085 370.90986 373.43888 378.3871 382.73139 387.43659 390.46058 393.02558 396.04957 401.15437 406.15837 408.16716 410.17774 414.7929 417.5415 422.2665 427.3335 431.9865 434.48854 442.47874 447.33695 450.48155 452.49754 457.58616 462.23918 464.74208 469.60029 473.02748 475.77699 480.4831 483.13359 484.85258 487.37168 491.98237 497.07188 505.04588 507.56498 511.9192 516.77737 519.7896 524.4426">risiko de har for &#x00e5; d&#x00f8; ut, hvis r&#x00e5;dende forhold vedvarer. Under er en oversikt over r&#x00f8;dlistede marine arter, som v&#x00e5;re </tspan><tspan y="-215.77411" x="70.8661 78.9004 83.6065 86.6305 91.6975 96.4036 99.427608 101.6146 106.129 110.9872 115.9282 118.1152 122.7997 125.7463 130.5703 132.7573 134.7733 136.9603 139.8511 144.7093 147.7216 152.3746 154.5616 157.3363 162.4159 165.4399 167.62689 172.4509 174.6379 179.7553 184.4992 188.9641 190.9801 194.18141 198.44922 203.06983 205.22083 207.40782 213.09133 216.51853 219.26804 223.97324 229.03574 233.68874 235.87574 240.56113 243.58513 245.77213 250.34143 252.35744 257.18864 261.7984 266.36408 268.52229 271.50129 273.4048 278.01097 282.71617 286.14335 288.89286 293.54588 295.73289 300.3913 303.5503 306.2998 311.00593 314.0299 316.21693 321.17683 325.53285 330.61335 333.63734 335.82435 340.42335 343.56794 345.67304 348.57646 350.58616 355.18605 359.59605 361.78306 364.69908 366.70787 368.71846 373.33274 376.27934 381.13755 386.18385 391.25083 395.95603 400.89704 403.08406 407.86036 411.07966">merder kan st&#x00e5; i fare for &#x00e5; p&#x00e5;virke. Artene er klassifiserte etter hvor kritisk tilstanden er:</tspan></text>
<text fill="#404041" xml:space="preserve" transform="matrix(1 0 -0 1 0 841.89)" font-size="9" font-family="Roboto" font-weight="bold"><tspan y="-191.24912" x="70.8661 76.770099">RE</tspan></text>
<text fill="#404041" xml:space="preserve" transform="matrix(1 0 -0 1 0 841.89)" font-size="9" font-family="Roboto"><tspan y="-191.24912" x="81.7921 83.979099 86.55309 88.74009 92.96109 97.67709 102.6721 104.78439 109.86399 114.80499 119.70099 121.80609 124.69509 126.88209 131.9932 134.7679 139.8475 144.9532 150.0022"> - regionalt utd&#x00f8;dd</tspan></text>
<text fill="#404041" xml:space="preserve" transform="matrix(1 0 -0 1 0 841.89)" font-size="9" font-family="Roboto" font-weight="bold"><tspan y="-173.09612" x="70.8661 76.77639 82.51839">CR </tspan></text>
<text fill="#404041" xml:space="preserve" transform="matrix(1 0 -0 1 0 841.89)" font-size="9" font-family="Roboto"><tspan y="-173.09612" x="84.759387 87.33338 89.52038 95.27677 98.42137 100.52737 103.41637 105.432369 110.032268 114.44226 116.62926 119.57406 122.75736 127.829769 132.50708 135.39609">- kritisk truet </tspan></text>
<text fill="#404041" xml:space="preserve" transform="matrix(1 0 -0 1 0 841.89)" font-size="9" font-family="Roboto" font-weight="bold"><tspan y="-154.94312" x="70.8661 76.080699 82.43469">EN </tspan></text>
<text fill="#404041" xml:space="preserve" transform="matrix(1 0 -0 1 0 841.89)" font-size="9" font-family="Roboto"><tspan y="-154.94312" x="84.67569 87.24969 89.43668 95.25878 98.00738 102.71348 105.88778 110.61368 113.50268 115.689678 118.630878 121.81418 126.88658 131.56389 134.4529">- sterkt truet </tspan></text>
<text fill="#404041" xml:space="preserve" transform="matrix(1 0 -0 1 0 841.89)" font-size="9" font-family="Roboto" font-weight="bold"><tspan y="-136.79012" x="70.8661 76.87989 83.10789">VU </tspan></text>
<text fill="#404041" xml:space="preserve" transform="matrix(1 0 -0 1 0 841.89)" font-size="9" font-family="Roboto"><tspan y="-136.79012" x="85.348888 87.92288 90.10988 95.95268 100.81088 103.98518 109.03688 113.89508 116.91908">- s&#x00e5;rbar </tspan></text>
<text fill="#404041" xml:space="preserve" transform="matrix(1 0 -0 1 0 841.89)" font-size="9" font-family="Roboto" font-weight="bold"><tspan y="-118.637119" x="70.8661 77.41449 82.46799">NT </tspan></text>
<text fill="#404041" xml:space="preserve" transform="matrix(1 0 -0 1 0 841.89)" font-size="9" font-family="Roboto"><tspan y="-118.637119" x="84.708988 87.28298 89.46998 95.67368 103.59188 107.01908 109.90808 112.09508 115.03628 118.21958 123.291988 127.969287 130.85829">- n&#x00e6;rt truet </tspan></text>
<text fill="#404041" xml:space="preserve" transform="matrix(1 0 -0 1 0 841.89)" font-size="9" font-family="Roboto" font-weight="bold"><tspan y="-100.484119" x="70.8661 76.91139 82.78839">DD </tspan></text>
<text fill="#404041" xml:space="preserve" transform="matrix(1 0 -0 1 0 841.89)" font-size="9" font-family="Roboto"><tspan y="-100.484119" x="85.02939 88.80849 90.99548 96.02648 100.83068 103.77728 108.62828 116.63558 121.49378 126.461788 131.60979 136.28079 138.32379">- datamangel </tspan></text>
<text fill="#404041" xml:space="preserve" transform="matrix(1 0 -0 1 0 841.89)" font-size="8" font-family="Roboto" font-weight="bold"><tspan y="-44.7402" x="70.8661 74.9973">74</tspan></text>
<text fill="#404041" xml:space="preserve" transform="matrix(1 0 -0 1 0 841.89)" font-size="7" font-family="Roboto"><tspan y="-29.016" x="70.8661 77.0772 79.2192 83.3604 87.3875 92.35259 98.596599 102.634899 107.1226 111.5536 113.712398 118.5487 122.4246 124.1676 126.3096 131.3979 136.19989 138.34189 143.23419 147.41249 151.6377 156.5916 161.1962 165.2247">MILJ&#x00d8;MESSIGE INDIKATORER</tspan></text>
<g id="Layer-1" data-name="Artifact">
<clipPath id="cp703">
<path transform="matrix(1,0,0,-1,0,841.89)" d="M 0 0 L 595.276 0 L 595.276 841.89 L 0 841.89 Z "/>
</clipPath>
<g clip-path="url(#cp703)">
<path transform="matrix(1,0,0,-1,1119.685,802.3869)" stroke-width=".5" stroke-linecap="butt" stroke-miterlimit="4" stroke-linejoin="miter" fill="none" stroke="#404041" d="M 0 0 L -1048.819 0 "/>
</g>
<g id="Layer-1" data-name="Artifact">
<path transform="matrix(1,0,0,-1,70.8661,39.3869)" stroke-width=".5" stroke-linecap="butt" stroke-miterlimit="4" stroke-linejoin="miter" fill="none" stroke="#404041" d="M 0 0 L 1048.819 0 "/>
</g>
<g id="Layer-1" data-name="Span">
</g>
<text fill="#404041" xml:space="preserve" transform="matrix(1 0 -0 1 0 841.89)" font-size="9" font-family="Roboto" font-weight="bold"><tspan y="-191.2519" x="176.8076 181.8773 187.61931">LC </tspan></text>
</g>
<g id="Layer-1" data-name="Span">
</g>
<g id="Layer-1" data-name="Span">
</g>
<g id="Layer-1" data-name="Span">
</g>
<g id="Layer-1" data-name="Span">
</g>
<g id="Layer-1" data-name="Span">
</g>
<g id="Layer-1" data-name="Span">
</g>
<g id="Layer-1" data-name="Span">
</g>
<g id="Layer-1" data-name="Span">
</g>
<text fill="#404041" xml:space="preserve" transform="matrix(1 0 -0 1 0 841.89)" font-size="9" font-family="Roboto"><tspan y="-191.2519" x="189.8621 192.43611 194.62311 197.83972 199.93224 204.31974 208.91873 213.46823 216.49224 221.28565 224.49056 227.39397 229.44867">- livskraftig</tspan></text>
<text fill="#404041" xml:space="preserve" transform="matrix(1 0 -0 1 0 841.89)" font-size="9" font-family="Roboto" font-weight="bold"><tspan y="-191.2519" x="234.4571"> </tspan><tspan y="-173.0989" x="176.8121 183.4073 189.1493">NA </tspan></text>
<text fill="#404041" xml:space="preserve" transform="matrix(1 0 -0 1 0 841.89)" font-size="9" font-family="Roboto"><tspan y="-173.0989" x="191.3903 193.96431 196.1513 198.16732 203.95072 208.21852 212.87152 215.05852 219.75472 224.79831 229.85991 234.53722">- ikke egnet</tspan></text>
<text fill="#404041" xml:space="preserve" transform="matrix(1 0 -0 1 0 841.89)" font-size="9" font-family="Roboto" font-weight="bold"><tspan y="-173.0989" x="237.4361"> </tspan><tspan y="-154.9459" x="176.8121 183.365 188.38701">NE </tspan></text>
<text fill="#404041" xml:space="preserve" transform="matrix(1 0 -0 1 0 841.89)" font-size="9" font-family="Roboto"><tspan y="-154.9459" x="190.628 193.20201 195.389 197.40502 203.18842 207.45623 212.10923 214.29622 218.78182 223.8209 226.84491 231.91191 236.61801 240.04521">- ikke vurdert</tspan></text>
<text fill="#404041" xml:space="preserve" transform="matrix(1 0 -0 1 0 841.89)" font-size="9" font-family="Roboto" font-weight="bold"><tspan y="-154.9459" x="242.93422"> </tspan></text>
</g>
</g>
</svg>
