<?xml version="1.0" encoding="UTF-8" standalone="no"?>
<!DOCTYPE svg PUBLIC "-//W3C//DTD SVG 1.1//EN" "http://www.w3.org/Graphics/SVG/1.1/DTD/svg11.dtd">
<svg xmlns="http://www.w3.org/2000/svg" xmlns:xlink="http://www.w3.org/1999/xlink" version="1.1" width="595.276pt" height="841.89pt" viewBox="0 0 595.276 841.89">
<g enable-background="new">
<g>
<g id="Layer-1" data-name="Span">
</g>
<g id="Layer-1" data-name="Span">
</g>
<g id="Layer-1" data-name="Span">
</g>
<g id="Layer-1" data-name="Span">
</g>
<g id="Layer-1" data-name="Span">
</g>
<g id="Layer-1" data-name="Span">
</g>
<g id="Layer-1" data-name="Span">
<text fill="#404041" xml:space="preserve" transform="matrix(1 0 -0 1 0 841.89)" font-size="9" font-family="Roboto"><tspan y="-735.2513" x="70.8661 77.022098 80.0461 84.922298 87.8689 92.7271 97.7644 102.7594 104.7754 109.6786 114.07869 118.63269 122.81859 127.83969 132.69789 135.7219 139.9231 142.8265 144.89022 149.89421 151.90302 153.95772 159.0328 163.7389 166.7512 171.4042 175.5388 177.62052 182.26361 186.60791 191.31311 194.74031 197.62932 201.79271 206.8822 214.7527 217.59851 222.39373 225.55364 228.30225 233.00835 238.05374 243.12165 247.77465 251.90924 259.88954 261.89924 263.9233 266.0671 271.1494 274.1734 279.0766 284.12919 289.21958 294.2992 297.72639 300.4759 305.182 308.206 312.4099 317.0449 321.9112 329.9257 337.96 342.6661 347.60713 351.83174 359.86604 364.59104 369.59504 373.75666 379.45185 381.53355 386.20457 388.29707 392.64949 397.47349 401.6441 406.7111 408.72169 413.32069 417.58848 422.2415 425.06929 429.9275 433.11079 441.1775 443.3285 447.4829 452.3996 455.5586 458.3081 463.01423 466.0382 470.24214 474.98603 479.37263 483.9383 485.95429 491.0834 494.0165 499.0241 501.0401 506.1044 511.0994 515.26998 520.01388 524.34286">Gratanglaks har tidligere levert omfattende milj&#x00f8;rapporter sammen med Kleiva Fiskefarm. Etter avslutning av </tspan><tspan y="-724.4513" x="70.8661 75.502 80.36829 88.38639 93.42099 96.56469 98.622989 101.82789 104.577388 109.282588 114.22359 117.01358 119.02958 121.774578 126.838878 131.94548 137.00978 142.04709 143.76609 146.49037 151.57268 156.55507 161.15497 165.42278 170.12888 173.15288 175.91588 180.38077 182.39678 185.14177 189.96578 192.70177 197.31607 200.48049 204.98767 208.16197 212.42978 217.08278 219.78278 222.80678 227.70998 232.76259 237.853 242.93259 246.35979 249.1093 253.8154 256.96 258.97599 264.0412 269.1163 273.8215 278.9164 281.0674 283.78633 289.4707 292.483 297.1603 300.04933 302.77635 307.84065 312.94725 318.01155 322.99754 325.71556 330.74656 332.75535 334.77134 337.79533 340.58534 345.65324 350.33055 353.21955 355.94657 358.74107 363.82426 366.93104 371.5462 374.2948 378.9478 381.64784 386.50605 389.51835 394.19657 397.08558 399.8126 404.42237 409.511 417.485 420.203 426.359 429.383 434.2592 437.20579 442.064 447.10133 452.0963 454.1123 459.0155 463.41563 467.9696 470.72 474.9923 480.08094 488.09455 496.12974 500.83494 503.85893 506.62733 514.6616 519.38668 524.3907">samdriften i 2020, &#x00f8;nsker vi &#x00e5; styrke rapporteringen. &#x00c5;ret 2020 blir det f&#x00f8;rste &#x00e5;ret som Gratanglaks kommer med </tspan><tspan y="-713.6513" x="70.8661 75.5722 80.5132 84.0367 88.7527 93.828708 98.533908 103.47491 107.00291 112.06991 116.79491 121.798908 123.8149 128.1097 132.8149 136.2421 139.1311 142.5961 147.63069 155.54799 158.56029 163.26639 167.81589 170.83989 175.6333 178.83821 181.72722 186.32712 189.35112 194.25432 199.30783 204.39733 209.47782 212.90502 215.89392 218.04492 221.50092 227.65422 232.35942 237.39672 242.45832 247.11132 250.54932 255.25452 258.2785 261.7795 266.8825 269.82823 274.68733 277.8616 282.9556 287.62663 289.6903 294.7573 299.43553 302.32453 305.79045 313.82475 318.54887 323.55287 327.01789 332.12 334.8821 339.9302 344.78843 349.82575 354.82075 359.43864 364.47505 369.51417 374.55058 379.27647 382.16548 385.6305 387.64649 391.1295 396.19648 400.8495 404.2875 409.3401 412.48558 414.50157 419.51097 424.07664 426.09263 431.1722 436.2671 440.9723 446.0339 450.68693 454.12495 458.7347 463.82334 471.79734 475.25337 479.80287 482.81517 487.45829 491.80259 496.4556 501.00959 504.49259 506.50859 509.99159 516.1476 522.0111 524.4051">en egen dedikert b&#x00e6;rekraftsrapport. Denne er utarbeidet med utgangspunkt i de prinsippene som kreves i GRI </tspan><tspan y="-702.8513" x="70.8661 73.4005 79.57269 81.66609 86.74659 91.79829 96.622287 98.63828 100.99808 106.71308 111.57128 116.66078 121.74128 125.16848 128.07189 130.08789 135.15309 140.14809 142.49529 144.90009 149.90769 152.01369 154.9027 156.9187 161.74991 164.65332 166.74494 171.08924 175.44434 178.21004 180.36104 182.69113 188.84444 193.52175 196.68166 199.43117 204.08417 206.39537 211.62976 213.77266 218.85587 221.87987 224.25946 229.32736 234.00467 236.89368 239.23278 243.93888 248.97527 253.24308 257.91499 260.02009 262.9091 265.2491 270.07313 272.41944 277.05534 281.92164 289.93525 297.97044 302.67564 307.68324 309.69294 311.74674 316.79035 321.85197 326.50498 328.8162 333.1695 338.0277 341.0517 343.43223 348.5262 353.25035 358.28495 361.42955 363.48695 366.69184 369.58085 371.92088 379.95518 384.6793 389.6833 392.0215 396.87974 401.92604 406.95973 409.97203 414.62504 416.93626 418.95225 421.31205 425.66535 430.52357 433.54756 435.92716 440.98066 444.00465 448.90785 453.89027 458.44425 460.57456 465.23747 466.95646 469.29289 474.38688 479.38188 481.72908 489.76338 494.48838 499.49238 501.8306 506.6888 511.73423 516.76797 519.7802 524.4332">(Global Reporting Initiative). Dette gj&#x00f8;r det enkelt &#x00e5; sammenligne v&#x00e5;r bedrift med andre i v&#x00e5;r bransje, og med andre </tspan><tspan y="-692.05136" x="70.8661 75.9601 80.6851 85.718799 88.863399 90.92169 94.126598 96.87609 101.58129 104.60529 107.17029 109.18629 111.738689 116.596889 121.64229 126.67599 129.68918 134.34218 136.84418 141.89678 144.92078 149.82398 154.80637 159.36037 161.49066 166.19586 169.21987 171.79296 176.73395 181.61016 186.16416 188.30706 193.38755 198.32854 203.22455 205.32965 208.21866 210.74765 215.84255 220.83754 223.37554 225.39154 230.38474 233.13425 237.83945 241.01375 245.95475 250.83095 255.38045 257.52424 262.60386 267.54487 272.44087 274.54685 277.53666 279.68766 282.20768 287.47718 292.20219 297.20619 299.7352 304.5592 307.09724 309.89173 314.95155 317.00624 322.08134 326.73435 329.23637 335.39237 341.25587 343.73448 347.59819 350.62217 355.52537 360.57887 365.66835 370.74885 374.17604 376.92463 381.63075 384.77534 386.79133 391.85655 396.85154 399.38957 402.23536 407.09358 410.11756 412.68977 417.15467 419.17066 421.71766 426.81257 431.80757 436.46147 441.28547 443.8235 448.5287 453.4697 456.0617 461.1278 465.7997 467.8157 472.90974 477.58705 480.49046 482.49925 484.55393 489.54893 492.08695 497.18095 502.17594 504.71397 509.57218 514.66708 519.37228 524.31326">bedrifter i andre bransjer nasjonalt og internasjonalt. Ved &#x00e5; f&#x00f8;lge GRI-rapportering f&#x00e5;r vi ogs&#x00e5; en helhetlig og &#x00e5;pen </tspan><tspan y="-681.25137" x="70.8661 75.91869 78.93189 83.60289 88.191089 92.896289 97.86249 100.80818 105.61328 110.16278 112.23278 117.38528 122.39468 124.58168 129.32558 133.72928 135.91628 140.26958 145.11157 148.20128 150.38828 155.48227 160.20728 165.22928 168.38289 170.41689 173.64878 176.63857">presentasjon av v&#x00e5;r bedrift.</tspan></text>
</g>
<text fill="#2b3b52" xml:space="preserve" transform="matrix(1 0 -0 1 0 841.89)" font-size="15" font-family="Roboto"><tspan y="-759.7736" x="70.8661 78.487598 86.944599 94.7011 101.245609 109.97561 118.495609 122.230609 130.5121 139.0366 147.52661 152.77062 156.62561 165.10363 173.61913 181.56012 186.82512 190.56012 194.44512 198.18012 203.08812 211.59613 216.90763 225.38564 233.82465 237.70214 246.19214 249.92714 254.95815 258.74116 262.62617 266.36116 271.39067 275.26817 283.70567 287.48869 291.3422 299.8577 307.7987 312.94673 320.79173 324.5267 329.6957 337.87074 346.4012 354.9152 363.4232 369.0812 374.2112 377.9462 386.4362 394.92619 398.66117 402.5222 410.89668 415.79719 424.30519 429.6107 442.59919 450.6797 458.32218 462.23118 470.74668 479.23667 479.24266">102-48 Endringer i forhold til tidligere rapport og informasjon  </tspan></text>
<g id="Layer-1" data-name="Artifact">
<clipPath id="cp636">
<path transform="matrix(1,0,0,-1,0,841.89)" d="M 0 0 L 595.276 0 L 595.276 841.89 L 0 841.89 Z "/>
</clipPath>
<g clip-path="url(#cp636)">
<filter id="blend_3"><feBlend mode="overlay" in2="BackgroundImage" in="SourceGraphic"/></filter>
<g filter="url(#blend_3)">
<clipPath id="cp637">
<path transform="matrix(1,0,0,-1,0,841.89)" d="M 69.8661 511.638 L 525.409 511.638 L 525.409 514.138 L 69.8661 514.138 Z "/>
</clipPath>
<g clip-path="url(#cp637)">
<path transform="matrix(1,0,0,-1,70.8661,329.00233)" stroke-width=".5" stroke-linecap="butt" stroke-miterlimit="4" stroke-linejoin="miter" fill="none" stroke="#b9bbbd" d="M 0 0 L 453.543 0 "/>
</g>
</g>
</g>
<g id="Layer-1" data-name="Span">
</g>
<text fill="#2b3b52" xml:space="preserve" transform="matrix(1 0 -0 1 0 841.89)" font-size="15" font-family="Roboto"><tspan y="-600.6553" x="70.8661 78.487598 86.944599 94.7011 101.245609 109.45061 117.97061 121.70561 129.9871 138.51161 147.00162 152.24562 156.10062 164.57863 173.09413 181.03513 186.30013 190.03513 193.92012 197.65512 205.52863 212.84862 221.36862 226.51512 234.46363 242.87712 250.67713 259.13414 262.98915 271.46714 279.98265 287.92216 293.18717 296.92216 305.41215 313.90214 317.63713 324.97813 332.78865 340.51814 348.46513 356.8771 361.9021 365.68513 369.53865 378.05564 385.90065 389.63563 394.53465 402.47416 415.46266 423.62266 427.35765 432.40065 437.56367 445.72367 449.45866 454.48216 458.35966 466.79716 470.58018 474.43519 482.95069 490.8902 496.0382 503.8832">102-49 Endringer i avgrensninger og vesentlige tema fra tidligere </tspan></text>
</g>
<g id="Layer-1" data-name="Span">
</g>
<g id="Layer-1" data-name="Span">
<text fill="#2b3b52" xml:space="preserve" transform="matrix(1 0 -0 1 0 841.89)" font-size="15" font-family="Roboto"><tspan y="-582.6553" x="70.8661 76.0291 84.2041 92.7346 101.23959 109.74459 115.40409">rapport</tspan></text>
</g>
<g id="Layer-1" data-name="Span">
</g>
<text fill="#404041" xml:space="preserve" transform="matrix(1 0 -0 1 0 841.89)" font-size="9" font-family="Roboto"><tspan y="-558.3607" x="70.8661 78.6322 80.6419 82.666 84.8089 89.8921 92.9161 97.8193 102.871898 107.961399 113.04189 116.46909 119.21859 123.92379 128.86479 130.70079 133.6528 136.6768 141.50081 143.3233 148.38759 153.19539 157.6441 162.6301 164.39409 169.48268 177.35318 180.19899 184.9942 188.15412 190.90363 195.60883 198.63283 200.44182 205.47551 208.62012 210.67842 213.88333 216.63195 221.33805 226.27904 228.11504 231.00405 233.02005 235.03606 236.82706 241.87876 246.70276 251.78775 256.44078 258.18678 264.34278 267.36677 272.24296 275.18955 280.04777 285.08509 290.08009 292.09608 296.99928 301.39939 305.95338 307.7444 313.41169 318.7397 320.6072 325.7012 330.6962 332.4782 338.1734 340.2551 344.92613 347.01863 351.37104 356.19505 357.97257 363.03956 365.05015 369.65003 373.91783 378.54835 381.39414 386.25236 389.43565 397.40965 399.17366 404.84187 410.37596 412.52696 414.29096 420.44334 425.14945 430.18586 435.24836 439.90138 441.64289 446.6775 454.59483 457.60713 462.31324 466.86274 469.88673 474.6801 477.885 480.77403 485.3739 488.3979 493.3011 498.35368 503.44316 508.52366 511.95085 514.7003 519.4055 524.3465">Milj&#x00f8;rapporten fra 2019 omfatter driften til b&#x00e5;de Gratanglaks AS og Kleiva Fiskefarm AS. Denne b&#x00e6;rekraftsrapporten </tspan><tspan y="-547.5607" x="70.8661 75.9547 83.826099 86.6719 91.467098 94.62609 97.37559 102.08169 105.10569 107.286388 111.76838 116.80658 121.74758 123.949878 130.10588 133.12989 138.00609 140.9518 145.81 150.84819 155.84319 157.85919 162.76239 167.16249 171.71649 173.87918 179.54738 185.08148 187.23249 189.36368 194.03919 198.75429 206.74359 211.60269 216.30789 219.3319 221.51349 226.60749 231.60248 233.74988 239.49369 245.03769 247.49199 252.19719 255.22119 257.4028 260.263 265.69358 270.3466 274.62159 276.8833 282.4426 287.1478 290.52729 293.32179 298.40229 301.58558 309.57487 314.43309 319.4947 324.199 328.85203 330.96794 333.37275 338.41816 343.42216 345.51466 350.23878 355.03398 357.78797 362.86848 365.97526 370.24934 373.18333 375.24705 379.95317 382.97715 385.15788 389.86308 394.90937 399.94306 402.95536 407.63359 410.52259 412.66279 414.67878 416.83879 419.63328 424.71379 427.88807 432.96678 438.02479 440.0876 445.09159 447.2309 450.1199 452.1359 454.1519 456.3128 462.4688 468.3323 470.72633 472.89985 477.99385 482.98884 485.13716 490.06016 494.42155 499.07456 501.18598 506.92976 512.47378 514.92807 519.63327 522.25857">omfatter kun Gratanglaks AS. Temaer og KPIer (Key Performance Indicators) er endret i forhold til GRI og nye KPIer.</tspan></text>
<g id="Layer-1" data-name="Artifact">
<clipPath id="cp638">
<path transform="matrix(1,0,0,-1,0,841.89)" d="M 0 0 L 595.276 0 L 595.276 841.89 L 0 841.89 Z "/>
</clipPath>
<g clip-path="url(#cp638)">
<g filter="url(#blend_3)">
<clipPath id="cp639">
<path transform="matrix(1,0,0,-1,0,841.89)" d="M 69.8661 645.328 L 525.409 645.328 L 525.409 647.828 L 69.8661 647.828 Z "/>
</clipPath>
<g clip-path="url(#cp639)">
<path transform="matrix(1,0,0,-1,70.8661,195.31183)" stroke-width=".5" stroke-linecap="butt" stroke-miterlimit="4" stroke-linejoin="miter" fill="none" stroke="#b9bbbd" d="M 0 0 L 453.543 0 "/>
</g>
</g>
</g>
<g id="Layer-1" data-name="Span">
</g>
<text fill="#2b3b52" xml:space="preserve" transform="matrix(1 0 -0 1 0 841.89)" font-size="15" font-family="Roboto"><tspan y="-466.9646" x="70.8661 78.48609 86.94459 94.70108 100.96658 109.50159 118.02759 121.76259 131.2276 139.4026 147.9331 156.43811 164.94312 170.60112 175.49413 183.43363 188.67913 192.53412 201.01213 209.47214 217.26464 225.76964 233.70914 238.95464 242.79013 251.29514 259.78816 267.63914">102-50 Rapporteringsperiode </tspan></text>
</g>
<g id="Layer-1" data-name="Artifact">
<clipPath id="cp640">
<path transform="matrix(1,0,0,-1,0,841.89)" d="M 0 0 L 595.276 0 L 595.276 841.89 L 0 841.89 Z "/>
</clipPath>
<g clip-path="url(#cp640)">
<g filter="url(#blend_3)">
<clipPath id="cp641">
<path transform="matrix(1,0,0,-1,0,841.89)" d="M 69.8661 301.401 L 525.409 301.401 L 525.409 303.901 L 69.8661 303.901 Z "/>
</clipPath>
<g clip-path="url(#cp641)">
<path transform="matrix(1,0,0,-1,70.8661,539.239)" stroke-width=".5" stroke-linecap="butt" stroke-miterlimit="4" stroke-linejoin="miter" fill="none" stroke="#b9bbbd" d="M 0 0 L 453.543 0 "/>
</g>
</g>
</g>
<g id="Layer-1" data-name="Span">
</g>
<text fill="#2b3b52" xml:space="preserve" transform="matrix(1 0 -0 1 0 841.89)" font-size="15" font-family="Roboto"><tspan y="-361.8463" x="70.8661 78.48609 86.94459 94.70108 100.96658 108.94809 117.47409 121.20909 129.3196 137.8246 143.1301 148.3741 152.2291 160.7446 168.59709 172.33209 177.49359 185.6686 194.1991 202.7041 211.2091 216.86711">102-51 Forrige rapport</tspan></text>
</g>
<g id="Layer-1" data-name="Artifact">
<clipPath id="cp642">
<path transform="matrix(1,0,0,-1,0,841.89)" d="M 0 0 L 595.276 0 L 595.276 841.89 L 0 841.89 Z "/>
</clipPath>
<g clip-path="url(#cp642)">
<g filter="url(#blend_3)">
<clipPath id="cp643">
<path transform="matrix(1,0,0,-1,0,841.89)" d="M 69.8661 406.519 L 525.409 406.519 L 525.409 409.019 L 69.8661 409.019 Z "/>
</clipPath>
<g clip-path="url(#cp643)">
<path transform="matrix(1,0,0,-1,70.8661,434.12074)" stroke-width=".5" stroke-linecap="butt" stroke-miterlimit="4" stroke-linejoin="miter" fill="none" stroke="#b9bbbd" d="M 0 0 L 453.543 0 "/>
</g>
</g>
</g>
<g id="Layer-1" data-name="Span">
</g>
<text fill="#404041" xml:space="preserve" transform="matrix(1 0 -0 1 0 841.89)" font-size="9" font-family="Roboto"><tspan y="-442.4424" x="70.8661 75.3256 77.4766 79.579 84.4372 89.378208 94.494709 99.352909 102.37691 104.5639 110.422908 112.6099 117.8524 122.311908 124.41341 129.48041 134.1334 138.73961 143.45381 151.4602 156.5542 161.2594 163.8847">1.januar &#x2013; 31.desember.</tspan></text>
</g>
<g id="Layer-1" data-name="Span">
</g>
<g id="Layer-1" data-name="Span">
<text fill="#404041" xml:space="preserve" transform="matrix(1 0 -0 1 0 841.89)" font-size="9" font-family="Roboto"><tspan y="-337.324" x="70.8661 78.6322 80.6419 82.666 84.8089 89.8921 92.9161 97.8193 102.871898 107.961399 113.04189 116.46909 119.35809 121.54509 127.70109 130.72509 135.61029 138.5569 143.4151 148.4524 153.44739 155.4634 160.3666 164.7667 169.3207 171.50769 177.23439 179.3152 183.9871 186.07872 190.43202 195.25603 197.44303 202.52352 207.33132 211.78003 216.76602 218.95302 221.58913 226.74254 231.82215 233.97315 239.12294 244.22505 246.37065 251.43495 256.24278 260.69148 265.48216 268.24696">Milj&#x00f8;rapport Gratanglaks Kleiva 2019 (03.06.2019).</tspan></text>
</g>
<g id="Layer-1" data-name="Span">
</g>
<text fill="#2b3b52" xml:space="preserve" transform="matrix(1 0 -0 1 0 841.89)" font-size="15" font-family="Roboto"><tspan y="-256.9646" x="70.8661 78.487598 86.944599 94.701099 100.96659 109.17609 117.700588 121.435588 130.90059 139.07559 147.6061 156.1186 164.62662 170.28612 175.17913 183.11862 188.36412 192.21912 200.69713 209.15714 216.90615 224.56516 232.23166 240.14867 244.00366 252.46367">102-52 Rapporteringssyklus</tspan><tspan y="-151.8446" x="70.8661 78.48609 86.94459 94.70108 100.96658 109.47609 118.00209 121.73709 130.8886 139.4041 147.8161 152.9281 161.1031 169.2856 174.41861 178.15361 183.05413 191.55913 196.82563 200.56063 208.35463 216.85964 225.37213 230.59513 238.38762 251.37462 259.4836 263.3716 267.1066 272.1301 275.9131 279.80259 283.53758 288.70057 296.87556 305.40608 313.91108 322.41609 328.07557 332.96855 340.91554">102-53 Kontakt for sp&#x00f8;rsm&#x00e5;l til rapporten</tspan></text>
<g id="Layer-1" data-name="Artifact">
<clipPath id="cp644">
<path transform="matrix(1,0,0,-1,0,841.89)" d="M 0 0 L 595.276 0 L 595.276 841.89 L 0 841.89 Z "/>
</clipPath>
<g clip-path="url(#cp644)">
<g filter="url(#blend_3)">
<clipPath id="cp645">
<path transform="matrix(1,0,0,-1,0,841.89)" d="M 69.8661 196.519 L 525.409 196.519 L 525.409 199.019 L 69.8661 199.019 Z "/>
</clipPath>
<g clip-path="url(#cp645)">
<path transform="matrix(1,0,0,-1,70.8661,644.1207)" stroke-width=".5" stroke-linecap="butt" stroke-miterlimit="4" stroke-linejoin="miter" fill="none" stroke="#b9bbbd" d="M 0 0 L 453.543 0 "/>
</g>
</g>
</g>
<g id="Layer-1" data-name="Span">
</g>
<text fill="#404041" xml:space="preserve" transform="matrix(1 0 -0 1 0 841.89)" font-size="9" font-family="Roboto"><tspan y="-232.4424" x="70.8661 76.55049 79.69509 81.675098 83.7568 88.8508">&#x00c5;rlig.</tspan></text>
</g>
<g id="Layer-1" data-name="Span">
</g>
<g id="Layer-1" data-name="Span">
</g>
<g id="Layer-1" data-name="Span">
</g>
<text fill="#404041" xml:space="preserve" transform="matrix(1 0 -0 1 0 841.89)" font-size="9" font-family="Roboto"><tspan y="-127.324" x="70.8661 78.7078 83.7883 88.7959 90.8884 95.613399 100.43739 102.62439 107.676097 109.73979 114.80679 119.642498 123.507099 129.8971 134.6032 137.7865 145.7758 150.634 155.6164 160.2226 164.9287 170.04969 171.76868 173.95568 179.05959 184.1194 189.10541 191.2924 196.34682 201.33283 203.51982 208.73534 213.86804 218.97014">Monica Eide-Hermansen, 932 92 466.</tspan></text>
<text fill="#404041" xml:space="preserve" transform="matrix(1 0 -0 1 0 841.89)" font-size="8" font-family="Roboto" font-weight="bold"><tspan y="-44.7402" x="70.8661 75.506099">62</tspan></text>
<text fill="#404041" xml:space="preserve" transform="matrix(1 0 -0 1 0 841.89)" font-size="7" font-family="Roboto"><tspan y="-29.016" x="70.8661 75.703098 79.73159 84.82059 88.84908 93.455089 97.48358 101.52258 105.56228 109.43818 111.18118 116.13508 120.72568 125.31628 128.77498 133.24518 137.70418 142.76099 144.90158 149.99059 154.82759 158.8561">GENERELLE OPPLYSNINGER</tspan></text>
<g id="Layer-1" data-name="Artifact">
<clipPath id="cp646">
<path transform="matrix(1,0,0,-1,0,841.89)" d="M 0 0 L 595.276 0 L 595.276 841.89 L 0 841.89 Z "/>
</clipPath>
<g clip-path="url(#cp646)">
<path transform="matrix(1,0,0,-1,1119.685,802.3869)" stroke-width=".5" stroke-linecap="butt" stroke-miterlimit="4" stroke-linejoin="miter" fill="none" stroke="#404041" d="M 0 0 L -1048.819 0 "/>
</g>
<g id="Layer-1" data-name="Artifact">
<path transform="matrix(1,0,0,-1,70.8661,39.3869)" stroke-width=".5" stroke-linecap="butt" stroke-miterlimit="4" stroke-linejoin="miter" fill="none" stroke="#404041" d="M 0 0 L 1048.819 0 "/>
</g>
</g>
</g>
</g>
</svg>
