<?xml version="1.0" encoding="UTF-8" standalone="no"?>
<!DOCTYPE svg PUBLIC "-//W3C//DTD SVG 1.1//EN" "http://www.w3.org/Graphics/SVG/1.1/DTD/svg11.dtd">
<svg xmlns="http://www.w3.org/2000/svg" xmlns:xlink="http://www.w3.org/1999/xlink" version="1.1" width="595.276pt" height="841.89pt" viewBox="0 0 595.276 841.89">
<g enable-background="new">
<g>
<path transform="matrix(1,0,0,-1,0,841.89)" d="M 70.866 702.632 L 524.223 702.632 L 524.223 680.315 L 70.866 680.315 Z " fill="#e8f1e6"/>
<path transform="matrix(1,0,0,-1,70.8661,107.341739)" stroke-width=".75" stroke-linecap="butt" stroke-miterlimit="10" stroke-linejoin="miter" fill="none" stroke="#1fa249" d="M 0 0 L 76.519 0 "/>
<path transform="matrix(1,0,0,-1,147.3852,107.341739)" stroke-width=".75" stroke-linecap="butt" stroke-miterlimit="10" stroke-linejoin="miter" fill="none" stroke="#1fa249" d="M 0 0 L 103.008 0 "/>
<path transform="matrix(1,0,0,-1,250.3937,107.341739)" stroke-width=".75" stroke-linecap="butt" stroke-miterlimit="10" stroke-linejoin="miter" fill="none" stroke="#1fa249" d="M 0 0 L 130.866 0 "/>
<path transform="matrix(1,0,0,-1,381.2598,107.341739)" stroke-width=".75" stroke-linecap="butt" stroke-miterlimit="10" stroke-linejoin="miter" fill="none" stroke="#1fa249" d="M 0 0 L 142.963 0 "/>
<path transform="matrix(1,0,0,-1,70.8661,193.11621)" stroke-width=".5" stroke-linecap="butt" stroke-miterlimit="10" stroke-linejoin="miter" fill="none" stroke="#1fa249" d="M 0 0 L 76.519 0 "/>
<path transform="matrix(1,0,0,-1,147.3852,193.11621)" stroke-width=".5" stroke-linecap="butt" stroke-miterlimit="10" stroke-linejoin="miter" fill="none" stroke="#1fa249" d="M 0 0 L 103.008 0 "/>
<path transform="matrix(1,0,0,-1,250.3937,193.11621)" stroke-width=".5" stroke-linecap="butt" stroke-miterlimit="10" stroke-linejoin="miter" fill="none" stroke="#1fa249" d="M 0 0 L 130.866 0 "/>
<path transform="matrix(1,0,0,-1,381.2598,193.11621)" stroke-width=".5" stroke-linecap="butt" stroke-miterlimit="10" stroke-linejoin="miter" fill="none" stroke="#1fa249" d="M 0 0 L 142.963 0 "/>
<path transform="matrix(1,0,0,-1,70.8661,232.80481)" stroke-width=".5" stroke-linecap="butt" stroke-miterlimit="10" stroke-linejoin="miter" fill="none" stroke="#1fa249" d="M 0 0 L 76.519 0 "/>
<path transform="matrix(1,0,0,-1,147.3852,232.80481)" stroke-width=".5" stroke-linecap="butt" stroke-miterlimit="10" stroke-linejoin="miter" fill="none" stroke="#1fa249" d="M 0 0 L 103.008 0 "/>
<path transform="matrix(1,0,0,-1,250.3937,232.80481)" stroke-width=".5" stroke-linecap="butt" stroke-miterlimit="10" stroke-linejoin="miter" fill="none" stroke="#1fa249" d="M 0 0 L 130.866 0 "/>
<path transform="matrix(1,0,0,-1,381.2598,232.80481)" stroke-width=".5" stroke-linecap="butt" stroke-miterlimit="10" stroke-linejoin="miter" fill="none" stroke="#1fa249" d="M 0 0 L 142.963 0 "/>
<path transform="matrix(1,0,0,-1,70.8661,264.346)" stroke-width=".5" stroke-linecap="butt" stroke-miterlimit="10" stroke-linejoin="miter" fill="none" stroke="#1fa249" d="M 0 0 L 76.519 0 "/>
<path transform="matrix(1,0,0,-1,147.3852,264.346)" stroke-width=".5" stroke-linecap="butt" stroke-miterlimit="10" stroke-linejoin="miter" fill="none" stroke="#1fa249" d="M 0 0 L 103.008 0 "/>
<path transform="matrix(1,0,0,-1,250.3937,264.346)" stroke-width=".5" stroke-linecap="butt" stroke-miterlimit="10" stroke-linejoin="miter" fill="none" stroke="#1fa249" d="M 0 0 L 130.866 0 "/>
<path transform="matrix(1,0,0,-1,381.2598,264.346)" stroke-width=".5" stroke-linecap="butt" stroke-miterlimit="10" stroke-linejoin="miter" fill="none" stroke="#1fa249" d="M 0 0 L 142.963 0 "/>
<path transform="matrix(1,0,0,-1,70.8661,295.88734)" stroke-width=".5" stroke-linecap="butt" stroke-miterlimit="10" stroke-linejoin="miter" fill="none" stroke="#1fa249" d="M 0 0 L 76.519 0 "/>
<path transform="matrix(1,0,0,-1,147.3852,295.88734)" stroke-width=".5" stroke-linecap="butt" stroke-miterlimit="10" stroke-linejoin="miter" fill="none" stroke="#1fa249" d="M 0 0 L 103.008 0 "/>
<path transform="matrix(1,0,0,-1,250.3937,295.88734)" stroke-width=".5" stroke-linecap="butt" stroke-miterlimit="10" stroke-linejoin="miter" fill="none" stroke="#1fa249" d="M 0 0 L 130.866 0 "/>
<path transform="matrix(1,0,0,-1,381.2598,295.88734)" stroke-width=".5" stroke-linecap="butt" stroke-miterlimit="10" stroke-linejoin="miter" fill="none" stroke="#1fa249" d="M 0 0 L 142.963 0 "/>
<path transform="matrix(1,0,0,-1,70.8661,327.42854)" stroke-width=".5" stroke-linecap="butt" stroke-miterlimit="10" stroke-linejoin="miter" fill="none" stroke="#1fa249" d="M 0 0 L 76.519 0 "/>
<path transform="matrix(1,0,0,-1,147.3852,327.42854)" stroke-width=".5" stroke-linecap="butt" stroke-miterlimit="10" stroke-linejoin="miter" fill="none" stroke="#1fa249" d="M 0 0 L 103.008 0 "/>
<path transform="matrix(1,0,0,-1,250.3937,327.42854)" stroke-width=".5" stroke-linecap="butt" stroke-miterlimit="10" stroke-linejoin="miter" fill="none" stroke="#1fa249" d="M 0 0 L 130.866 0 "/>
<path transform="matrix(1,0,0,-1,381.2598,327.42854)" stroke-width=".5" stroke-linecap="butt" stroke-miterlimit="10" stroke-linejoin="miter" fill="none" stroke="#1fa249" d="M 0 0 L 142.963 0 "/>
<path transform="matrix(1,0,0,-1,70.8661,358.96974)" stroke-width=".5" stroke-linecap="butt" stroke-miterlimit="10" stroke-linejoin="miter" fill="none" stroke="#1fa249" d="M 0 0 L 76.519 0 "/>
<path transform="matrix(1,0,0,-1,147.3852,358.96974)" stroke-width=".5" stroke-linecap="butt" stroke-miterlimit="10" stroke-linejoin="miter" fill="none" stroke="#1fa249" d="M 0 0 L 103.008 0 "/>
<path transform="matrix(1,0,0,-1,250.3937,358.96974)" stroke-width=".5" stroke-linecap="butt" stroke-miterlimit="10" stroke-linejoin="miter" fill="none" stroke="#1fa249" d="M 0 0 L 130.866 0 "/>
<path transform="matrix(1,0,0,-1,381.2598,358.96974)" stroke-width=".5" stroke-linecap="butt" stroke-miterlimit="10" stroke-linejoin="miter" fill="none" stroke="#1fa249" d="M 0 0 L 142.963 0 "/>
<path transform="matrix(1,0,0,-1,70.8661,409.4583)" stroke-width=".5" stroke-linecap="butt" stroke-miterlimit="10" stroke-linejoin="miter" fill="none" stroke="#1fa249" d="M 0 0 L 76.519 0 "/>
<path transform="matrix(1,0,0,-1,147.3852,409.4583)" stroke-width=".5" stroke-linecap="butt" stroke-miterlimit="10" stroke-linejoin="miter" fill="none" stroke="#1fa249" d="M 0 0 L 103.008 0 "/>
<path transform="matrix(1,0,0,-1,250.3937,409.4583)" stroke-width=".5" stroke-linecap="butt" stroke-miterlimit="10" stroke-linejoin="miter" fill="none" stroke="#1fa249" d="M 0 0 L 130.866 0 "/>
<path transform="matrix(1,0,0,-1,381.2598,409.4583)" stroke-width=".5" stroke-linecap="butt" stroke-miterlimit="10" stroke-linejoin="miter" fill="none" stroke="#1fa249" d="M 0 0 L 142.963 0 "/>
<path transform="matrix(1,0,0,-1,70.8661,449.1469)" stroke-width=".5" stroke-linecap="butt" stroke-miterlimit="10" stroke-linejoin="miter" fill="none" stroke="#1fa249" d="M 0 0 L 76.519 0 "/>
<path transform="matrix(1,0,0,-1,147.3852,449.1469)" stroke-width=".5" stroke-linecap="butt" stroke-miterlimit="10" stroke-linejoin="miter" fill="none" stroke="#1fa249" d="M 0 0 L 103.008 0 "/>
<path transform="matrix(1,0,0,-1,250.3937,449.1469)" stroke-width=".5" stroke-linecap="butt" stroke-miterlimit="10" stroke-linejoin="miter" fill="none" stroke="#1fa249" d="M 0 0 L 130.866 0 "/>
<path transform="matrix(1,0,0,-1,381.2598,449.1469)" stroke-width=".5" stroke-linecap="butt" stroke-miterlimit="10" stroke-linejoin="miter" fill="none" stroke="#1fa249" d="M 0 0 L 142.963 0 "/>
<path transform="matrix(1,0,0,-1,70.8661,499.63554)" stroke-width=".5" stroke-linecap="butt" stroke-miterlimit="10" stroke-linejoin="miter" fill="none" stroke="#1fa249" d="M 0 0 L 76.519 0 "/>
<path transform="matrix(1,0,0,-1,147.3852,499.63554)" stroke-width=".5" stroke-linecap="butt" stroke-miterlimit="10" stroke-linejoin="miter" fill="none" stroke="#1fa249" d="M 0 0 L 103.008 0 "/>
<path transform="matrix(1,0,0,-1,250.3937,499.63554)" stroke-width=".5" stroke-linecap="butt" stroke-miterlimit="10" stroke-linejoin="miter" fill="none" stroke="#1fa249" d="M 0 0 L 130.866 0 "/>
<path transform="matrix(1,0,0,-1,381.2598,499.63554)" stroke-width=".5" stroke-linecap="butt" stroke-miterlimit="10" stroke-linejoin="miter" fill="none" stroke="#1fa249" d="M 0 0 L 142.963 0 "/>
<path transform="matrix(1,0,0,-1,70.8661,539.324)" stroke-width=".5" stroke-linecap="butt" stroke-miterlimit="10" stroke-linejoin="miter" fill="none" stroke="#1fa249" d="M 0 0 L 76.519 0 "/>
<path transform="matrix(1,0,0,-1,147.3852,539.324)" stroke-width=".5" stroke-linecap="butt" stroke-miterlimit="10" stroke-linejoin="miter" fill="none" stroke="#1fa249" d="M 0 0 L 103.008 0 "/>
<path transform="matrix(1,0,0,-1,250.3937,539.324)" stroke-width=".5" stroke-linecap="butt" stroke-miterlimit="10" stroke-linejoin="miter" fill="none" stroke="#1fa249" d="M 0 0 L 130.866 0 "/>
<path transform="matrix(1,0,0,-1,381.2598,539.324)" stroke-width=".5" stroke-linecap="butt" stroke-miterlimit="10" stroke-linejoin="miter" fill="none" stroke="#1fa249" d="M 0 0 L 142.963 0 "/>
<path transform="matrix(1,0,0,-1,70.8661,570.86538)" stroke-width=".5" stroke-linecap="butt" stroke-miterlimit="10" stroke-linejoin="miter" fill="none" stroke="#1fa249" d="M 0 0 L 76.519 0 "/>
<path transform="matrix(1,0,0,-1,147.3852,570.86538)" stroke-width=".5" stroke-linecap="butt" stroke-miterlimit="10" stroke-linejoin="miter" fill="none" stroke="#1fa249" d="M 0 0 L 103.008 0 "/>
<path transform="matrix(1,0,0,-1,250.3937,570.86538)" stroke-width=".5" stroke-linecap="butt" stroke-miterlimit="10" stroke-linejoin="miter" fill="none" stroke="#1fa249" d="M 0 0 L 130.866 0 "/>
<path transform="matrix(1,0,0,-1,381.2598,570.86538)" stroke-width=".5" stroke-linecap="butt" stroke-miterlimit="10" stroke-linejoin="miter" fill="none" stroke="#1fa249" d="M 0 0 L 142.963 0 "/>
<path transform="matrix(1,0,0,-1,70.8661,602.4065)" stroke-width=".5" stroke-linecap="butt" stroke-miterlimit="10" stroke-linejoin="miter" fill="none" stroke="#1fa249" d="M 0 0 L 76.519 0 "/>
<path transform="matrix(1,0,0,-1,147.3852,602.4065)" stroke-width=".5" stroke-linecap="butt" stroke-miterlimit="10" stroke-linejoin="miter" fill="none" stroke="#1fa249" d="M 0 0 L 103.008 0 "/>
<path transform="matrix(1,0,0,-1,250.3937,602.4065)" stroke-width=".5" stroke-linecap="butt" stroke-miterlimit="10" stroke-linejoin="miter" fill="none" stroke="#1fa249" d="M 0 0 L 130.866 0 "/>
<path transform="matrix(1,0,0,-1,381.2598,602.4065)" stroke-width=".5" stroke-linecap="butt" stroke-miterlimit="10" stroke-linejoin="miter" fill="none" stroke="#1fa249" d="M 0 0 L 142.963 0 "/>
<g id="Layer-1" data-name="Span">
</g>
<g id="Layer-1" data-name="Span">
</g>
<g id="Layer-1" data-name="Span">
</g>
<g id="Layer-1" data-name="Span">
</g>
<g id="Layer-1" data-name="Span">
</g>
<g id="Layer-1" data-name="Span">
</g>
<g id="Layer-1" data-name="Span">
<text fill="#1fa249" xml:space="preserve" transform="matrix(1 0 -0 1 0 841.89)" font-size="12" font-family="Roboto" font-weight="bold"><tspan y="-748.286" x="74.8661 82.89289 90.49489 93.90529 98.78569 105.73849 112.74769 119.63569 122.62369 133.0517 136.1861 139.32169 142.51728 149.31288 159.68209 165.94489 172.11168 178.26049 181.46448 188.26009 194.53609 197.5241 200.72089 207.51529 214.2605 217.4453 223.8461 230.2901 234.2777 241.05411 245.23851 251.5973">GRI-300 Milj&#x00f8;messige indikatorer</tspan></text>
<text fill="#1fa249" xml:space="preserve" transform="matrix(1 0 -0 1 0 841.89)" font-size="10" font-family="Roboto" font-weight="bold"><tspan y="-714.6527" x="76.5354 83.3134 89.7434 92.6784 97.0084 100.017398 105.76039 111.46039 114.19039 119.61039 125.05739 128.46439 134.19239 153.05539 159.55539 164.8564 170.0904 175.6164 179.2094 181.93741 186.9534 192.2984 195.0084 200.2014 256.06538 262.32038 265.07038 270.80738 276.03739 278.5274 282.1004 287.5754 293.33143 299.07743 304.8044 308.66743 386.93537 393.96235 397.37236 402.71635 405.45335 410.90034 414.31034 419.65434 422.36534 427.55833 432.93534">GRI-IndikatorBeskrivelseSide rapportUtelatelser</tspan><tspan y="-660.7927" x="76.54538 82.425388 87.91438 93.118389 96.56838">301-1</tspan></text>
</g>
<g id="Layer-1" data-name="Span">
</g>
<text fill="#231f20" xml:space="preserve" transform="matrix(1 0 -0 1 0 841.89)" font-size="9" font-family="Roboto"><tspan y="-666.5695" x="153.0545 160.85572 165.65093 168.40044 173.10564 176.25025 178.26625 183.11725 185.19806 189.90416 192.92816 195.11516 200.21727 203.40058 208.43877 213.16558 216.20578 217.92478 220.11177 228.10288 232.92688 234.94289 237.12989">Materialer brukt, m&#x00e5;l  </tspan><tspan y="-655.76956" x="153.0545 157.3988 162.104 166.82991 169.71892 171.90592 176.5859 178.59561 180.67642 185.38253 188.40653 190.59352 194.99903 200.05612 202.07213 207.14632">vekt eller volum</tspan></text>
<path transform="matrix(1,0,0,-1,318.7833,186.77979)" stroke-width=".439" stroke-linecap="butt" stroke-miterlimit="10" stroke-linejoin="miter" fill="none" stroke="#1e5e9e" d="M 0 0 L 9.69 0 "/>
<path transform="matrix(1,0,0,-1,331.8194,186.77979)" stroke-width=".439" stroke-linecap="butt" stroke-miterlimit="10" stroke-linejoin="miter" fill="none" stroke="#1e5e9e" d="M 0 0 L 10.292 0 "/>
<g id="Layer-1" data-name="Span">
</g>
<g id="Layer-1" data-name="Span">
</g>
<g id="Layer-1" data-name="Span">
<text fill="#231f20" xml:space="preserve" transform="matrix(1 0 -0 1 0 841.89)" font-size="9" font-family="Roboto"><tspan y="-666.5695" x="256.063 262.219 268.0816 270.5602 274.3015 279.4558 284.6875 289.6735 291.8605 299.62843 301.63813 303.6622 305.806 310.8964 318.9307 323.5837 328.1944 332.76008 334.81477 339.88987 344.54289">GRI-300 Milj&#x00f8;messige </tspan><tspan y="-655.76956" x="256.063 258.07899 263.15229 268.15629 270.17228 274.66419 279.45939 282.21339 287.293 290.3053 295.0114 298.0354 300.2224 304.8367 306.9004 311.96739 316.6204">indikatorer side </tspan></text>
</g>
<g id="Layer-1" data-name="Span">
<text fill="#1e5e9e" xml:space="preserve" transform="matrix(1 0 -0 1 0 841.89)" font-size="9" font-family="Roboto"><tspan y="-655.76956" x="318.784 323.8672">71</tspan></text>
</g>
<g id="Layer-1" data-name="Span">
<text fill="#231f20" xml:space="preserve" transform="matrix(1 0 -0 1 0 841.89)" font-size="9" font-family="Roboto"><tspan y="-655.76956" x="328.477">-</tspan></text>
</g>
<g id="Layer-1" data-name="Span">
<text fill="#1e5e9e" xml:space="preserve" transform="matrix(1 0 -0 1 0 841.89)" font-size="9" font-family="Roboto"><tspan y="-655.76956" x="331.82499 336.99998">72</tspan></text>
</g>
<g id="Layer-1" data-name="Span">
<text fill="#1fa249" xml:space="preserve" transform="matrix(1 0 -0 1 0 841.89)" font-size="10" font-family="Roboto" font-weight="bold"><tspan y="-625.1795" x="76.5354 82.415409 87.903408 93.108409 96.9114">301-2</tspan></text>
</g>
<g id="Layer-1" data-name="Span">
</g>
<g id="Layer-1" data-name="Span">
</g>
<text fill="#231f20" xml:space="preserve" transform="matrix(1 0 -0 1 0 841.89)" font-size="9" font-family="Roboto"><tspan y="-636.3545" x="153.0545 158.7695 163.5755 168.1412 170.15721 173.35852 177.84053 182.78153 184.93433 189.64043 193.06763 195.81714 200.47014">Resirkulerte </tspan><tspan y="-625.5545" x="153.0545 155.07051 160.13481 165.1172 169.7531 174.54831 177.43732 182.04622 190.03553 194.83074 197.58025 202.28545 205.43006 207.44606 212.29706 214.37787 219.08397 222.10797">innsatsmaterialer </tspan><tspan y="-614.7545" x="153.0545 158.1071 161.29039 166.25839 171.05629">brukt</tspan></text>
<path transform="matrix(1,0,0,-1,318.7833,222.39472)" stroke-width=".439" stroke-linecap="butt" stroke-miterlimit="10" stroke-linejoin="miter" fill="none" stroke="#1e5e9e" d="M 0 0 L 10.292 0 "/>
<g id="Layer-1" data-name="Span">
</g>
<g id="Layer-1" data-name="Span">
</g>
<g id="Layer-1" data-name="Span">
<text fill="#231f20" xml:space="preserve" transform="matrix(1 0 -0 1 0 841.89)" font-size="9" font-family="Roboto"><tspan y="-630.9545" x="256.063 262.219 268.0816 270.5602 274.3015 279.4558 284.6875 289.6735 291.8605 299.62843 301.63813 303.6622 305.806 310.8964 318.9307 323.5837 328.1944 332.76008 334.81477 339.88987 344.54289">GRI-300 Milj&#x00f8;messige </tspan><tspan y="-620.15457" x="256.063 258.07899 263.15229 268.15629 270.17228 274.66419 279.45939 282.21339 287.293 290.3053 295.0114 298.0354 300.2224 304.8367 306.9004 311.96739 316.6204">indikatorer side </tspan></text>
</g>
<g id="Layer-1" data-name="Span">
<text fill="#1e5e9e" xml:space="preserve" transform="matrix(1 0 -0 1 0 841.89)" font-size="9" font-family="Roboto"><tspan y="-620.15457" x="318.784 323.95899">72</tspan></text>
</g>
<g id="Layer-1" data-name="Span">
<text fill="#1fa249" xml:space="preserve" transform="matrix(1 0 -0 1 0 841.89)" font-size="10" font-family="Roboto" font-weight="bold"><tspan y="-589.5646" x="76.5354 82.415409 88.262409 93.6404 97.0904">302-1</tspan></text>
</g>
<g id="Layer-1" data-name="Span">
</g>
<text fill="#231f20" xml:space="preserve" transform="matrix(1 0 -0 1 0 841.89)" font-size="9" font-family="Roboto"><tspan y="-595.3396" x="153.0545 158.1206 163.1822 167.8883 170.9006 175.8956 177.97191 180.76642 185.84601 189.02031 194.07292 197.25623 202.29532 206.70532 208.89232 211.85602 214.88002 219.70403 221.89102 226.67183 231.74692 236.45302 241.39402">Energiforbruk fra egen </tspan><tspan y="-584.5396" x="153.0545 157.5194 159.5354 162.73671 167.13681 171.74662 176.8352 184.8416 189.9077 194.5859 197.47492">virksomhet </tspan></text>
<path transform="matrix(1,0,0,-1,318.7833,258.00965)" stroke-width=".439" stroke-linecap="butt" stroke-miterlimit="10" stroke-linejoin="miter" fill="none" stroke="#1e5e9e" d="M 0 0 L 9.99 0 "/>
<path transform="matrix(1,0,0,-1,332.12,258.00965)" stroke-width=".439" stroke-linecap="butt" stroke-miterlimit="10" stroke-linejoin="miter" fill="none" stroke="#1e5e9e" d="M 0 0 L 10.309 0 "/>
<g id="Layer-1" data-name="Span">
</g>
<g id="Layer-1" data-name="Span">
</g>
<g id="Layer-1" data-name="Span">
<text fill="#231f20" xml:space="preserve" transform="matrix(1 0 -0 1 0 841.89)" font-size="9" font-family="Roboto"><tspan y="-595.3396" x="256.063 262.219 268.0816 270.5602 274.3015 279.4558 284.6875 289.6735 291.8605 299.62843 301.63813 303.6622 305.806 310.8964 318.9307 323.5837 328.1944 332.76008 334.81477 339.88987 344.54289">GRI-300 Milj&#x00f8;messige </tspan><tspan y="-584.5396" x="256.063 258.07899 263.15229 268.15629 270.17228 274.66419 279.45939 282.21339 287.293 290.3053 295.0114 298.0354 300.2224 304.8367 306.9004 311.96739 316.6204">indikatorer side </tspan></text>
</g>
<g id="Layer-1" data-name="Span">
<text fill="#1e5e9e" xml:space="preserve" transform="matrix(1 0 -0 1 0 841.89)" font-size="9" font-family="Roboto"><tspan y="-584.5396" x="318.784 323.95899">72</tspan></text>
</g>
<g id="Layer-1" data-name="Span">
<text fill="#231f20" xml:space="preserve" transform="matrix(1 0 -0 1 0 841.89)" font-size="9" font-family="Roboto"><tspan y="-584.5396" x="328.774">-</tspan></text>
</g>
<g id="Layer-1" data-name="Span">
<text fill="#1e5e9e" xml:space="preserve" transform="matrix(1 0 -0 1 0 841.89)" font-size="9" font-family="Roboto"><tspan y="-584.5396" x="332.12199 337.31498">73</tspan></text>
</g>
<g id="Layer-1" data-name="Span">
<text fill="#1fa249" xml:space="preserve" transform="matrix(1 0 -0 1 0 841.89)" font-size="10" font-family="Roboto" font-weight="bold"><tspan y="-558.0234" x="76.5354 82.415409 88.261409 93.64041 97.443408">302-2</tspan></text>
</g>
<g id="Layer-1" data-name="Span">
</g>
<text fill="#231f20" xml:space="preserve" transform="matrix(1 0 -0 1 0 841.89)" font-size="9" font-family="Roboto"><tspan y="-563.7984" x="153.0545 158.1206 163.1822 167.8883 170.9006 175.8956 177.97191 180.76642 185.84601 189.02031 194.07292 197.25623 202.29532 206.70532 208.89232 214.00702 216.75653 221.46173 226.38112 229.17563 234.25522 237.27922">Energiforbruk utenfor </tspan><tspan y="-552.9984" x="153.0545 158.13411 161.14733 166.19452 171.05272 176.06032 178.04032 182.70232 187.49031 192.05872 194.20163 199.28214 204.34374 209.04984">organisasjonen</tspan></text>
<path transform="matrix(1,0,0,-1,318.7833,289.55085)" stroke-width=".439" stroke-linecap="butt" stroke-miterlimit="10" stroke-linejoin="miter" fill="none" stroke="#1e5e9e" d="M 0 0 L 10.309 0 "/>
<g id="Layer-1" data-name="Span">
</g>
<g id="Layer-1" data-name="Span">
</g>
<g id="Layer-1" data-name="Span">
<text fill="#231f20" xml:space="preserve" transform="matrix(1 0 -0 1 0 841.89)" font-size="9" font-family="Roboto"><tspan y="-563.7984" x="256.063 262.219 268.0816 270.5602 274.3015 279.4558 284.6875 289.6735 291.8605 299.62843 301.63813 303.6622 305.806 310.8964 318.9307 323.5837 328.1944 332.76008 334.81477 339.88987 344.54289">GRI-300 Milj&#x00f8;messige </tspan><tspan y="-552.9984" x="256.063 258.07899 263.15229 268.15629 270.17228 274.66419 279.45939 282.21339 287.293 290.3053 295.0114 298.0354 300.2224 304.8367 306.9004 311.96739 316.6204">indikatorer side </tspan></text>
</g>
<g id="Layer-1" data-name="Span">
<text fill="#1e5e9e" xml:space="preserve" transform="matrix(1 0 -0 1 0 841.89)" font-size="9" font-family="Roboto"><tspan y="-552.9984" x="318.784 323.977">73</tspan></text>
</g>
<g id="Layer-1" data-name="Span">
<text fill="#1fa249" xml:space="preserve" transform="matrix(1 0 -0 1 0 841.89)" font-size="10" font-family="Roboto" font-weight="bold"><tspan y="-526.4822" x="76.5354 82.4154 88.2624 93.642398 97.807399">302-3</tspan></text>
</g>
<text fill="#231f20" xml:space="preserve" transform="matrix(1 0 -0 1 0 841.89)" font-size="9" font-family="Roboto"><tspan y="-526.8572" x="153.0545 158.1206 163.1822 167.8883 170.9006 175.8956 177.92331 179.93932 184.93251 187.68112 192.38722 197.36962 201.93532 204.04042 206.78993 211.46814 214.35715">Energiintensitet </tspan></text>
<path transform="matrix(1,0,0,-1,318.7833,321.09205)" stroke-width=".439" stroke-linecap="butt" stroke-miterlimit="10" stroke-linejoin="miter" fill="none" stroke="#1e5e9e" d="M 0 0 L 9.617 0 "/>
<g id="Layer-1" data-name="Span">
</g>
<g id="Layer-1" data-name="Span">
</g>
<g id="Layer-1" data-name="Span">
<text fill="#231f20" xml:space="preserve" transform="matrix(1 0 -0 1 0 841.89)" font-size="9" font-family="Roboto"><tspan y="-532.2572" x="256.063 262.219 268.0816 270.5602 274.3015 279.4558 284.6875 289.6735 291.8605 299.62843 301.63813 303.6622 305.806 310.8964 318.9307 323.5837 328.1944 332.76008 334.81477 339.88987 344.54289">GRI-300 Milj&#x00f8;messige </tspan><tspan y="-521.4572" x="256.063 258.07899 263.15229 268.15629 270.17228 274.66419 279.45939 282.21339 287.293 290.3053 295.0114 298.0354 300.2224 304.8367 306.9004 311.96739 316.6204">indikatorer side </tspan></text>
</g>
<g id="Layer-1" data-name="Span">
<text fill="#1e5e9e" xml:space="preserve" transform="matrix(1 0 -0 1 0 841.89)" font-size="9" font-family="Roboto"><tspan y="-521.4572" x="318.784 323.284">74</tspan></text>
</g>
<g id="Layer-1" data-name="Span">
<text fill="#1fa249" xml:space="preserve" transform="matrix(1 0 -0 1 0 841.89)" font-size="10" font-family="Roboto" font-weight="bold"><tspan y="-494.9409" x="76.5354 82.4154 88.2624 93.642398 98.0404">302-4</tspan></text>
</g>
<g id="Layer-1" data-name="Span">
</g>
<text fill="#231f20" xml:space="preserve" transform="matrix(1 0 -0 1 0 841.89)" font-size="9" font-family="Roboto"><tspan y="-500.7159" x="153.0545 158.7695 163.6475 168.6803 173.71939 178.11949 182.6735 184.81639 189.89598 194.83698 197.02397 201.83808 206.16707">Reduksjon av </tspan><tspan y="-489.91593" x="153.0545 157.77951 162.8231 167.54811 170.5433 175.5563 177.61461 180.4091 185.48871 188.663 193.71649 196.89978 201.93799 206.20578 210.88399">energiforbruket</tspan></text>
<path transform="matrix(1,0,0,-1,318.7833,352.6333)" stroke-width=".439" stroke-linecap="butt" stroke-miterlimit="10" stroke-linejoin="miter" fill="none" stroke="#1e5e9e" d="M 0 0 L 9.617 0 "/>
<g id="Layer-1" data-name="Span">
</g>
<g id="Layer-1" data-name="Span">
</g>
<g id="Layer-1" data-name="Span">
<text fill="#231f20" xml:space="preserve" transform="matrix(1 0 -0 1 0 841.89)" font-size="9" font-family="Roboto"><tspan y="-500.7159" x="256.063 262.219 268.0816 270.5602 274.3015 279.4558 284.6875 289.6735 291.8605 299.62843 301.63813 303.6622 305.806 310.8964 318.9307 323.5837 328.1944 332.76008 334.81477 339.88987 344.54289">GRI-300 Milj&#x00f8;messige </tspan><tspan y="-489.91593" x="256.063 258.07899 263.15229 268.15629 270.17228 274.66419 279.45939 282.21339 287.293 290.3053 295.0114 298.0354 300.2224 304.8367 306.9004 311.96739 316.6204">indikatorer side </tspan></text>
</g>
<g id="Layer-1" data-name="Span">
<text fill="#1e5e9e" xml:space="preserve" transform="matrix(1 0 -0 1 0 841.89)" font-size="9" font-family="Roboto"><tspan y="-489.91593" x="318.784 323.284">74</tspan></text>
</g>
<g id="Layer-1" data-name="Span">
<text fill="#1fa249" xml:space="preserve" transform="matrix(1 0 -0 1 0 841.89)" font-size="10" font-family="Roboto" font-weight="bold"><tspan y="-453.926" x="76.5354 82.4154 88.3444 94.1524 98.5524">304-4</tspan></text>
</g>
<g id="Layer-1" data-name="Span">
</g>
<g id="Layer-1" data-name="Span">
</g>
<g id="Layer-1" data-name="Span">
</g>
<text fill="#231f20" xml:space="preserve" transform="matrix(1 0 -0 1 0 841.89)" font-size="9" font-family="Roboto"><tspan y="-470.501" x="153.0545 157.7435 162.6836 165.6302 170.45421 172.55931 175.44832 177.63532 182.50252 187.46782 190.41443 195.23844 197.24724 199.26325 201.45024 206.33725 209.76445 212.51396 217.22006 220.24407 222.43106 225.43167 228.45568 233.27968">Totalt antall arter fra </tspan><tspan y="-459.70103" x="153.0545 155.4998 161.6297 167.44371 173.89852 177.73702 179.74672 181.75643 186.37163 189.12114 193.82634 198.76734 200.95433 205.70273 208.86174 211.61125 216.31735 219.34136 221.52835 226.46935 228.67795 233.03125 237.85526">IUCN-listen etter niv&#x00e5; </tspan><tspan y="-448.90104" x="153.0545 158.1485 163.1435 165.33049 170.45238 173.38549 176.81629 181.15969 186.20958 191.24327 196.25087 198.26688 203.33118 208.32617 212.91167 215.75658 220.61478 223.62798 228.28098 230.46797 232.48398">og utryddningsfare i </tspan><tspan y="-438.10105" x="153.0545 158.1062 162.85012 167.315 169.33101 172.53322 176.80103 181.52513 186.59304 191.24604 193.43303 198.49283 201.67613 209.66634 214.49034 219.57534 224.28054">p&#x00e5;virkede orm&#x00e5;der</tspan></text>
<path transform="matrix(1,0,0,-1,318.7833,393.64823)" stroke-width=".439" stroke-linecap="butt" stroke-miterlimit="10" stroke-linejoin="miter" fill="none" stroke="#1e5e9e" d="M 0 0 L 9.73 0 "/>
<path transform="matrix(1,0,0,-1,331.8599,393.64823)" stroke-width=".439" stroke-linecap="butt" stroke-miterlimit="10" stroke-linejoin="miter" fill="none" stroke="#1e5e9e" d="M 0 0 L 10.185 0 "/>
<g id="Layer-1" data-name="Span">
</g>
<g id="Layer-1" data-name="Span">
</g>
<g id="Layer-1" data-name="Span">
<text fill="#231f20" xml:space="preserve" transform="matrix(1 0 -0 1 0 841.89)" font-size="9" font-family="Roboto"><tspan y="-459.701" x="256.063 262.219 268.0816 270.5602 274.3015 279.4558 284.6875 289.6735 291.8605 299.62843 301.63813 303.6622 305.806 310.8964 318.9307 323.5837 328.1944 332.76008 334.81477 339.88987 344.54289">GRI-300 Milj&#x00f8;messige </tspan><tspan y="-448.901" x="256.063 258.07899 263.15229 268.15629 270.17228 274.66419 279.45939 282.21339 287.293 290.3053 295.0114 298.0354 300.2224 304.8367 306.9004 311.96739 316.6204">indikatorer side </tspan></text>
</g>
<g id="Layer-1" data-name="Span">
<text fill="#1e5e9e" xml:space="preserve" transform="matrix(1 0 -0 1 0 841.89)" font-size="9" font-family="Roboto"><tspan y="-448.901" x="318.784 323.284">74</tspan></text>
</g>
<g id="Layer-1" data-name="Span">
<text fill="#231f20" xml:space="preserve" transform="matrix(1 0 -0 1 0 841.89)" font-size="9" font-family="Roboto"><tspan y="-448.901" x="328.513">-</tspan></text>
</g>
<g id="Layer-1" data-name="Span">
<text fill="#1e5e9e" xml:space="preserve" transform="matrix(1 0 -0 1 0 841.89)" font-size="9" font-family="Roboto"><tspan y="-448.901" x="331.861 336.92799">76</tspan></text>
</g>
<g id="Layer-1" data-name="Span">
<text fill="#1fa249" xml:space="preserve" transform="matrix(1 0 -0 1 0 841.89)" font-size="10" font-family="Roboto" font-weight="bold"><tspan y="-408.8374" x="76.5354 82.415409 88.19841 94.01241 97.45741">305-1</tspan></text>
</g>
<g id="Layer-1" data-name="Span">
</g>
<g id="Layer-1" data-name="Span">
</g>
<text fill="#231f20" xml:space="preserve" transform="matrix(1 0 -0 1 0 841.89)" font-size="9" font-family="Roboto"><tspan y="-420.0124" x="153.0545 159.17272 161.18872 164.39003 168.65784 173.33605 176.08466 180.73766 182.92465 188.00785 190.89685 195.46256 197.47136 199.48737 204.56696 209.55295 211.73995 216.50905 220.83805">Dirkete utslipp av </tspan><tspan y="-409.2124" x="153.0545 157.5743 159.55429 161.63059 169.61989 174.45738 179.50548 184.29347 188.92128 193.52748 198.23358">klimagasser</tspan><tspan y="-398.4124" x="153.0545 155.68521 161.22922 167.11792 173.26583 178.88184 184.00284 186.18984 190.49634">(SCOPE 1)</tspan></text>
<path transform="matrix(1,0,0,-1,318.7833,438.73683)" stroke-width=".439" stroke-linecap="butt" stroke-miterlimit="10" stroke-linejoin="miter" fill="none" stroke="#1e5e9e" d="M 0 0 L 10.437 0 "/>
<g id="Layer-1" data-name="Span">
</g>
<g id="Layer-1" data-name="Span">
</g>
<g id="Layer-1" data-name="Span">
<text fill="#231f20" xml:space="preserve" transform="matrix(1 0 -0 1 0 841.89)" font-size="9" font-family="Roboto"><tspan y="-414.6124" x="256.063 262.219 268.0816 270.5602 274.3015 279.4558 284.6875 289.6735 291.8605 299.62843 301.63813 303.6622 305.806 310.8964 318.9307 323.5837 328.1944 332.76008 334.81477 339.88987 344.54289">GRI-300 Milj&#x00f8;messige </tspan><tspan y="-403.8124" x="256.063 258.07899 263.15229 268.15629 270.17228 274.66419 279.45939 282.21339 287.293 290.3053 295.0114 298.0354 300.2224 304.8367 306.9004 311.96739 316.6204">indikatorer side </tspan></text>
</g>
<g id="Layer-1" data-name="Span">
<text fill="#1e5e9e" xml:space="preserve" transform="matrix(1 0 -0 1 0 841.89)" font-size="9" font-family="Roboto"><tspan y="-403.8124" x="318.784 324.103">77</tspan></text>
</g>
<g id="Layer-1" data-name="Span">
<text fill="#1fa249" xml:space="preserve" transform="matrix(1 0 -0 1 0 841.89)" font-size="10" font-family="Roboto" font-weight="bold"><tspan y="-363.7488" x="76.5354 82.415409 88.19841 94.01241 97.81541">305-2</tspan></text>
</g>
<g id="Layer-1" data-name="Span">
</g>
<g id="Layer-1" data-name="Span">
</g>
<g id="Layer-1" data-name="Span">
</g>
<text fill="#231f20" xml:space="preserve" transform="matrix(1 0 -0 1 0 841.89)" font-size="9" font-family="Roboto"><tspan y="-380.3239" x="153.0545 155.4593 160.5047 165.5087 167.5247 170.56401 175.27011 179.99602 182.74553 187.39853 189.58553 194.67142 197.56043 202.12613 204.13494 206.15094 211.23053 216.21652 218.40352 223.17443 227.50342">Indirekte utslipp av </tspan><tspan y="-369.52394" x="153.0545 157.57431 159.58402 161.63332 169.62262 174.46013 179.50823 184.31243 188.92313 193.52843 198.23453 201.25853 203.44553 208.04453 212.96752 217.72672 220.88573 223.63524 228.31345 231.20246 233.38945 236.27846 238.30527 240.32128">klimagasser knyttet til </tspan><tspan y="-358.72395" x="153.0545 157.77951 162.8231 167.54811 170.5433 175.5563 177.61461 180.4091 185.48871 188.663 193.71649 196.89978 201.93799">energiforbruk</tspan><tspan y="-347.92396" x="153.0545 155.68521 161.22922 167.11792 173.26583 178.88184 184.00284 186.18984 190.89864">(SCOPE 2)</tspan></text>
<path transform="matrix(1,0,0,-1,318.7833,483.82533)" stroke-width=".439" stroke-linecap="butt" stroke-miterlimit="10" stroke-linejoin="miter" fill="none" stroke="#1e5e9e" d="M 0 0 L 10.437 0 "/>
<g id="Layer-1" data-name="Span">
</g>
<g id="Layer-1" data-name="Span">
</g>
<g id="Layer-1" data-name="Span">
<text fill="#231f20" xml:space="preserve" transform="matrix(1 0 -0 1 0 841.89)" font-size="9" font-family="Roboto"><tspan y="-369.5239" x="256.063 262.219 268.0816 270.5602 274.3015 279.4558 284.6875 289.6735 291.8605 299.62843 301.63813 303.6622 305.806 310.8964 318.9307 323.5837 328.1944 332.76008 334.81477 339.88987 344.54289">GRI-300 Milj&#x00f8;messige </tspan><tspan y="-358.7239" x="256.063 258.07899 263.15229 268.15629 270.17228 274.66419 279.45939 282.21339 287.293 290.3053 295.0114 298.0354 300.2224 304.8367 306.9004 311.96739 316.6204">indikatorer side </tspan></text>
</g>
<g id="Layer-1" data-name="Span">
<text fill="#1e5e9e" xml:space="preserve" transform="matrix(1 0 -0 1 0 841.89)" font-size="9" font-family="Roboto"><tspan y="-358.7239" x="318.784 324.103">77</tspan></text>
</g>
<g id="Layer-1" data-name="Span">
<text fill="#1fa249" xml:space="preserve" transform="matrix(1 0 -0 1 0 841.89)" font-size="10" font-family="Roboto" font-weight="bold"><tspan y="-318.6603" x="76.5354 82.415409 88.19741 94.01241 98.177417">305-3</tspan></text>
</g>
<g id="Layer-1" data-name="Span">
</g>
<g id="Layer-1" data-name="Span">
</g>
<text fill="#231f20" xml:space="preserve" transform="matrix(1 0 -0 1 0 841.89)" font-size="9" font-family="Roboto"><tspan y="-329.8353" x="153.0545 158.7389 163.7843 168.8189 171.83119 176.48419 178.67119 180.6872 185.73349 190.73749 192.7535 195.7928 200.498 205.2239 207.97342 212.62642">Andre indirekte </tspan><tspan y="-319.0353" x="153.0545 157.5743 159.55429 161.63059 169.61989 174.45738 179.50548 184.29347 188.92128 193.48789 198.58998 201.47628 206.04198 208.02198 210.08927 215.14186 220.15216">klimagassutslipp </tspan><tspan y="-308.23533" x="153.0545 155.68521 161.22922 167.11792 173.26583 178.88184 184.00284 186.18984 190.85634">(SCOPE 3)</tspan></text>
<path transform="matrix(1,0,0,-1,318.7833,528.91397)" stroke-width=".439" stroke-linecap="butt" stroke-miterlimit="10" stroke-linejoin="miter" fill="none" stroke="#1e5e9e" d="M 0 0 L 9.789 0 "/>
<path transform="matrix(1,0,0,-1,331.9193,528.91397)" stroke-width=".439" stroke-linecap="butt" stroke-miterlimit="10" stroke-linejoin="miter" fill="none" stroke="#1e5e9e" d="M 0 0 L 10.279 0 "/>
<g id="Layer-1" data-name="Span">
</g>
<g id="Layer-1" data-name="Span">
</g>
<g id="Layer-1" data-name="Span">
<text fill="#231f20" xml:space="preserve" transform="matrix(1 0 -0 1 0 841.89)" font-size="9" font-family="Roboto"><tspan y="-324.4353" x="256.063 262.219 268.0816 270.5602 274.3015 279.4558 284.6875 289.6735 291.8605 299.62843 301.63813 303.6622 305.806 310.8964 318.9307 323.5837 328.1944 332.76008 334.81477 339.88987 344.54289">GRI-300 Milj&#x00f8;messige </tspan><tspan y="-313.6353" x="256.063 258.07899 263.15229 268.15629 270.17228 274.66419 279.45939 282.21339 287.293 290.3053 295.0114 298.0354 300.2224 304.8367 306.9004 311.96739 316.6204">indikatorer side </tspan></text>
</g>
<g id="Layer-1" data-name="Span">
<text fill="#1e5e9e" xml:space="preserve" transform="matrix(1 0 -0 1 0 841.89)" font-size="9" font-family="Roboto"><tspan y="-313.6353" x="318.784 324.103">77</tspan></text>
</g>
<g id="Layer-1" data-name="Span">
<text fill="#231f20" xml:space="preserve" transform="matrix(1 0 -0 1 0 841.89)" font-size="9" font-family="Roboto"><tspan y="-313.6353" x="328.576">-</tspan></text>
</g>
<g id="Layer-1" data-name="Span">
<text fill="#1e5e9e" xml:space="preserve" transform="matrix(1 0 -0 1 0 841.89)" font-size="9" font-family="Roboto"><tspan y="-313.6353" x="331.92399 337.0882">78</tspan></text>
</g>
<g id="Layer-1" data-name="Span">
<text fill="#1fa249" xml:space="preserve" transform="matrix(1 0 -0 1 0 841.89)" font-size="10" font-family="Roboto" font-weight="bold"><tspan y="-283.0454" x="76.5354 82.4154 88.1954 94.00939 98.40939">305-4</tspan></text>
</g>
<g id="Layer-1" data-name="Span">
</g>
<text fill="#231f20" xml:space="preserve" transform="matrix(1 0 -0 1 0 841.89)" font-size="9" font-family="Roboto"><tspan y="-288.8204" x="153.0545 159.2456 162.13462 166.69942 168.70912 170.72513 175.80472 180.83481 182.85082 187.84311 190.59262 195.29872 200.28112 204.84682 206.95192 209.70143 214.37964 217.26865 219.45565 224.20764 228.53664">Utslippintensitet av </tspan><tspan y="-278.02043" x="153.0545 157.5743 159.55429 161.63059 169.61989 174.45738 179.50548 184.29347 188.92128 193.52748 198.23358">klimagasser</tspan></text>
<path transform="matrix(1,0,0,-1,318.7833,564.5288)" stroke-width=".439" stroke-linecap="butt" stroke-miterlimit="10" stroke-linejoin="miter" fill="none" stroke="#1e5e9e" d="M 0 0 L 10.279 0 "/>
<g id="Layer-1" data-name="Span">
</g>
<g id="Layer-1" data-name="Span">
</g>
<g id="Layer-1" data-name="Span">
<text fill="#231f20" xml:space="preserve" transform="matrix(1 0 -0 1 0 841.89)" font-size="9" font-family="Roboto"><tspan y="-288.8204" x="256.063 262.219 268.0816 270.5602 274.3015 279.4558 284.6875 289.6735 291.8605 299.62843 301.63813 303.6622 305.806 310.8964 318.9307 323.5837 328.1944 332.76008 334.81477 339.88987 344.54289">GRI-300 Milj&#x00f8;messige </tspan><tspan y="-278.02043" x="256.063 258.07899 263.15229 268.15629 270.17228 274.66419 279.45939 282.21339 287.293 290.3053 295.0114 298.0354 300.2224 304.8367 306.9004 311.96739 316.6204">indikatorer side </tspan></text>
</g>
<g id="Layer-1" data-name="Span">
<text fill="#1e5e9e" xml:space="preserve" transform="matrix(1 0 -0 1 0 841.89)" font-size="9" font-family="Roboto"><tspan y="-278.02043" x="318.784 323.9482">78</tspan></text>
</g>
<g id="Layer-1" data-name="Span">
<text fill="#1fa249" xml:space="preserve" transform="matrix(1 0 -0 1 0 841.89)" font-size="10" font-family="Roboto" font-weight="bold"><tspan y="-251.5042" x="76.5354 82.415409 88.180408 93.20241 96.64741">307-1</tspan></text>
</g>
<g id="Layer-1" data-name="Span">
</g>
<text fill="#231f20" xml:space="preserve" transform="matrix(1 0 -0 1 0 841.89)" font-size="9" font-family="Roboto"><tspan y="-257.2791" x="153.0545 158.7146 161.8979 166.9505 172.0004 177.0044 179.19139 184.2503 189.07431 191.2613 193.37181 198.32 202.6634 207.3695 210.39351 212.5805 217.724 222.719">Brudd p&#x00e5; lover og </tspan><tspan y="-246.47911" x="153.0545 156.0668 160.7837 165.7787 167.8775 172.5836 175.6076 177.7946 182.3936 187.31659 192.07579 195.2357 197.98432 202.66252 205.55153 207.73853 210.62754 212.65435 214.67035 216.85735 224.86734 226.87615 228.90116 231.04405">regler knyttet til milj&#x00f8;</tspan></text>
<path transform="matrix(1,0,0,-1,318.7833,596.07)" stroke-width=".439" stroke-linecap="butt" stroke-miterlimit="10" stroke-linejoin="miter" fill="none" stroke="#1e5e9e" d="M 0 0 L 10.309 0 "/>
<g id="Layer-1" data-name="Span">
</g>
<g id="Layer-1" data-name="Span">
</g>
<g id="Layer-1" data-name="Span">
<text fill="#231f20" xml:space="preserve" transform="matrix(1 0 -0 1 0 841.89)" font-size="9" font-family="Roboto"><tspan y="-257.2791" x="256.063 262.219 268.0816 270.5602 274.3015 279.4558 284.6875 289.6735 291.8605 299.62843 301.63813 303.6622 305.806 310.8964 318.9307 323.5837 328.1944 332.76008 334.81477 339.88987 344.54289">GRI-300 Milj&#x00f8;messige </tspan><tspan y="-246.47911" x="256.063 258.07899 263.15229 268.15629 270.17228 274.66419 279.45939 282.21339 287.293 290.3053 295.0114 298.0354 300.2224 304.8367 306.9004 311.96739 316.6204">indikatorer side </tspan></text>
</g>
<g id="Layer-1" data-name="Span">
<text fill="#1e5e9e" xml:space="preserve" transform="matrix(1 0 -0 1 0 841.89)" font-size="9" font-family="Roboto"><tspan y="-246.47911" x="318.784 323.977">79</tspan></text>
</g>
<g id="Layer-1" data-name="Span">
</g>
<text fill="#404041" xml:space="preserve" transform="matrix(1 0 -0 1 0 841.89)" font-size="8" font-family="Roboto" font-weight="bold"><tspan y="-44.7402" x="70.8661 75.6581">90</tspan></text>
<text fill="#404041" xml:space="preserve" transform="matrix(1 0 -0 1 0 841.89)" font-size="7" font-family="Roboto"><tspan y="-29.016" x="70.8661 75.703098 80.2755 82.3622 85.0292 88.8631 93.51949 98.13949 102.16799 106.206989">GRI-TABELL</tspan></text>
<g id="Layer-1" data-name="Artifact">
<clipPath id="cp756">
<path transform="matrix(1,0,0,-1,0,841.89)" d="M 0 0 L 595.276 0 L 595.276 841.89 L 0 841.89 Z "/>
</clipPath>
<g clip-path="url(#cp756)">
<path transform="matrix(1,0,0,-1,1119.685,802.3869)" stroke-width=".5" stroke-linecap="butt" stroke-miterlimit="4" stroke-linejoin="miter" fill="none" stroke="#404041" d="M 0 0 L -1048.819 0 "/>
</g>
<g id="Layer-1" data-name="Artifact">
<path transform="matrix(1,0,0,-1,70.8661,39.3869)" stroke-width=".5" stroke-linecap="butt" stroke-miterlimit="4" stroke-linejoin="miter" fill="none" stroke="#404041" d="M 0 0 L 1048.819 0 "/>
</g>
</g>
</g>
</g>
</svg>
