<?xml version="1.0" encoding="UTF-8" standalone="no"?>
<!DOCTYPE svg PUBLIC "-//W3C//DTD SVG 1.1//EN" "http://www.w3.org/Graphics/SVG/1.1/DTD/svg11.dtd">
<svg xmlns="http://www.w3.org/2000/svg" xmlns:xlink="http://www.w3.org/1999/xlink" version="1.1" width="595.276pt" height="841.89pt" viewBox="0 0 595.276 841.89">
<g enable-background="new">
<path transform="matrix(1,0,0,-1,0,841.89)" d="M 70.866 674.306 L 222.047 674.306 L 222.047 637.96408 L 70.866 637.96408 Z M 373.228 674.306 L 524.409 674.306 L 524.409 637.96408 L 373.228 637.96408 Z " fill="#e8f3f1"/>
<path transform="matrix(1,0,0,-1,70.8661,141.70893)" stroke-width="1" stroke-linecap="butt" stroke-miterlimit="10" stroke-linejoin="miter" fill="none" stroke="#231f20" d="M 0 0 L 151.181 0 "/>
<path transform="matrix(1,0,0,-1,222.0472,141.70893)" stroke-width="1" stroke-linecap="butt" stroke-miterlimit="10" stroke-linejoin="miter" fill="none" stroke="#231f20" d="M 0 0 L 151.181 0 "/>
<path transform="matrix(1,0,0,-1,373.2283,141.70893)" stroke-width="1" stroke-linecap="butt" stroke-miterlimit="10" stroke-linejoin="miter" fill="none" stroke="#231f20" d="M 0 0 L 151.181 0 "/>
<g id="Layer-1" data-name="Span">
</g>
<g id="Layer-1" data-name="Span">
</g>
<g id="Layer-1" data-name="Span">
</g>
<g id="Layer-1" data-name="Span">
<text fill="#10a79d" xml:space="preserve" transform="matrix(1 0 -0 1 0 841.89)" font-size="12" font-family="Roboto" font-weight="bold"><tspan y="-705.4551" x="74.8661 82.5833 85.7633 89.7569 96.12769 102.8789 109.0637 115.46449 121.93969 128.73889 135.05809 138.1925 141.3965 148.1705 151.15851 157.94211 164.1797 170.3417 269.0381 276.7793 279.97129 286.3433 293.1089 297.28727 300.27528 307.05528 313.29167 319.45487">Vitenskapelig navnKjent navn</tspan></text>
<text fill="#10a79d" xml:space="preserve" transform="matrix(1 0 -0 1 0 841.89)" font-size="12" font-family="Roboto" font-weight="bold"><tspan y="-705.4551" x="410.81809 418.5773 421.7645 428.1725 434.34049 440.4881 443.7857 447.4449 451.1729 457.5689 463.9769 470.0873 473.2625 480.0509">Klassifikasjon</tspan></text>
</g>
<g id="Layer-1" data-name="Span">
</g>
<g id="Layer-1" data-name="Span">
</g>
<g id="Layer-1" data-name="Span">
<text fill="#231f20" xml:space="preserve" transform="matrix(1 0 -0 1 0 841.89)" font-size="9" font-family="Roboto"><tspan y="-652.7596" x="85.0393 91.4014 96.225399 98.23509 100.32759 105.00849 110.0872 115.2037 119.9089 123.0922 128.0332 132.5872 134.7742 139.9204 143.3503 147.85749 152.89478 157.83577 284.5783 290.95033 295.6744 300.0205 304.67353 307.79924 387.40333 393.1993">Halichoerus grypusHavertVU</tspan></text>
</g>
<g id="Layer-1" data-name="Span">
<text fill="#404041" xml:space="preserve" transform="matrix(1 0 -0 1 0 841.89)" font-size="12" font-family="Roboto"><tspan y="-762.0236" x="70.8661 76.9009 83.45411 90.282108 96.6073 99.6469 102.75849 105.74649 112.70649 119.64849 126.45129 131.70128 138.66129">Tabell 404-4a</tspan></text>
</g>
<text fill="#2b3b52" xml:space="preserve" transform="matrix(1 0 -0 1 0 841.89)" font-size="9" font-family="Roboto"><tspan y="-737.5013" x="70.8661 76.42629 78.89859 84.13119 89.32329 94.299388 97.63838 100.70648 105.58179 110.83778 115.56278">Sj&#x00f8;pattedyr</tspan></text>
<path transform="matrix(1,0,0,-1,0,841.89)" d="M 70.866 506.823 L 222.047 506.823 L 222.047 471.727 L 70.866 471.727 Z M 373.228 506.823 L 524.409 506.823 L 524.409 471.727 L 373.228 471.727 Z M 70.866 471.726 L 222.047 471.726 L 222.047 436.63 L 70.866 436.63 Z M 373.228 471.726 L 524.409 471.726 L 524.409 436.63 L 373.228 436.63 Z M 70.866 436.63 L 222.047 436.63 L 222.047 401.534 L 70.866 401.534 Z M 373.228 436.63 L 524.409 436.63 L 524.409 401.534 L 373.228 401.534 Z M 70.866 401.533 L 222.047 401.533 L 222.047 366.43699 L 70.866 366.43699 Z M 373.228 401.533 L 524.409 401.533 L 524.409 366.43699 L 373.228 366.43699 Z M 70.866 366.437 L 222.047 366.437 L 222.047 331.341 L 70.866 331.341 Z M 373.228 366.437 L 524.409 366.437 L 524.409 331.341 L 373.228 331.341 Z M 70.866 331.34 L 222.047 331.34 L 222.047 296.244 L 70.866 296.244 Z M 373.228 331.34 L 524.409 331.34 L 524.409 296.244 L 373.228 296.244 Z M 70.866 296.244 L 222.047 296.244 L 222.047 261.14799 L 70.866 261.14799 Z M 373.228 296.244 L 524.409 296.244 L 524.409 261.14799 L 373.228 261.14799 Z M 70.866 261.147 L 222.047 261.147 L 222.047 226.051 L 70.866 226.051 Z M 373.228 261.147 L 524.409 261.147 L 524.409 226.051 L 373.228 226.051 Z M 70.866 226.051 L 222.047 226.051 L 222.047 190.95499 L 70.866 190.95499 Z M 373.228 226.051 L 524.409 226.051 L 524.409 190.95499 L 373.228 190.95499 Z " fill="#e8f3f1"/>
<path transform="matrix(1,0,0,-1,70.8661,309.19203)" stroke-width="1" stroke-linecap="butt" stroke-miterlimit="10" stroke-linejoin="miter" fill="none" stroke="#231f20" d="M 0 0 L 151.181 0 "/>
<path transform="matrix(1,0,0,-1,222.0472,309.19203)" stroke-width="1" stroke-linecap="butt" stroke-miterlimit="10" stroke-linejoin="miter" fill="none" stroke="#231f20" d="M 0 0 L 151.181 0 "/>
<path transform="matrix(1,0,0,-1,373.2283,309.19203)" stroke-width="1" stroke-linecap="butt" stroke-miterlimit="10" stroke-linejoin="miter" fill="none" stroke="#231f20" d="M 0 0 L 151.181 0 "/>
<g id="Layer-1" data-name="Span">
</g>
<g id="Layer-1" data-name="Span">
</g>
<g id="Layer-1" data-name="Span">
</g>
<g id="Layer-1" data-name="Span">
<text fill="#10a79d" xml:space="preserve" transform="matrix(1 0 -0 1 0 841.89)" font-size="12" font-family="Roboto" font-weight="bold"><tspan y="-537.972" x="74.8661 82.5833 85.7633 89.7569 96.12769 102.8789 109.0637 115.46449 121.93969 128.73889 135.05809 138.1925 141.3965 148.1705 151.15851 157.94211 164.1797 170.3417 269.0381 276.7793 279.97129 286.3433 293.1089 297.28727 300.27528 307.05528 313.29167 319.45487">Vitenskapelig navnKjent navn</tspan></text>
<text fill="#10a79d" xml:space="preserve" transform="matrix(1 0 -0 1 0 841.89)" font-size="12" font-family="Roboto" font-weight="bold"><tspan y="-537.972" x="410.81809 418.5773 421.7645 428.1725 434.34049 440.4881 443.7857 447.4449 451.1729 457.5689 463.9769 470.0873 473.2625 480.0509">Klassifikasjon</tspan></text>
</g>
<g id="Layer-1" data-name="Span">
</g>
<g id="Layer-1" data-name="Span">
</g>
<g id="Layer-1" data-name="Span">
</g>
<g id="Layer-1" data-name="Span">
</g>
<g id="Layer-1" data-name="Span">
</g>
<g id="Layer-1" data-name="Span">
</g>
<g id="Layer-1" data-name="Span">
</g>
<g id="Layer-1" data-name="Span">
</g>
<g id="Layer-1" data-name="Span">
</g>
<g id="Layer-1" data-name="Span">
</g>
<g id="Layer-1" data-name="Span">
</g>
<g id="Layer-1" data-name="Span">
</g>
<g id="Layer-1" data-name="Span">
</g>
<g id="Layer-1" data-name="Span">
</g>
<g id="Layer-1" data-name="Span">
</g>
<g id="Layer-1" data-name="Span">
</g>
<g id="Layer-1" data-name="Span">
</g>
<g id="Layer-1" data-name="Span">
</g>
<g id="Layer-1" data-name="Span">
</g>
<g id="Layer-1" data-name="Span">
</g>
<g id="Layer-1" data-name="Span">
</g>
<g id="Layer-1" data-name="Span">
</g>
<g id="Layer-1" data-name="Span">
</g>
<g id="Layer-1" data-name="Span">
</g>
<g id="Layer-1" data-name="Span">
</g>
<g id="Layer-1" data-name="Span">
</g>
<g id="Layer-1" data-name="Span">
<text fill="#231f20" xml:space="preserve" transform="matrix(1 0 -0 1 0 841.89)" font-size="9" font-family="Roboto"><tspan y="-485.8993" x="85.0393 90.1369 94.9951 98.178409 103.11941 107.67341 109.860408 114.822109 117.834407 122.90951 127.61561 132.58092 135.52753 140.32274 143.23964 148.18064 279.6913 285.84733 288.8713 293.6953 301.6693 306.49333 310.94563 387.39433 393.1903">Larus argentatusGr&#x00e5;m&#x00e5;keVU</tspan><tspan y="-450.7993" x="85.030307 90.89381 92.9044 97.51511 102.15011 106.974109 109.1611 112.110408 115.255008 117.3178 122.3578 127.2169 131.8987 135.06311 139.5406 141.55661 283.2823 288.96128 291.97447 296.24946 300.65946 305.06947 307.12147 387.3943 392.6413">Rissa tridactylaKrykkjeEN</tspan><tspan y="-415.69929" x="85.03027 90.12787 94.98607 98.16937 103.110378 107.664379 109.85137 114.67897 119.53717 124.47817 129.41918 276.46028 281.52726 283.54325 288.09724 292.37763 297.03065 305.00465 309.82865 314.15675 387.38526 393.18125">Larus canusFiskem&#x00e5;keVU</tspan><tspan y="-380.59928" x="85.02124 90.688549 93.43804 98.14324 101.31844 106.259449 111.08344 113.27044 118.21144 120.22744 123.59974 128.63884 133.68424 138.76474 273.13926 280.92427 285.74827 290.15827 293.14717 297.80018 299.81617 301.83216 304.72117 309.37419 312.39817 317.33918 387.38526 392.63227">Sterna hirundoMakrellterneEN</tspan><tspan y="-345.49928" x="85.02124 90.29524 95.15344 100.21504 104.88694 106.89574 108.911739 113.85274 118.40674 120.593738 125.07664 129.93483 134.99643 139.66834 141.67714 143.69315 148.63414 289.01527 294.56828 296.58427 301.57026 387.38526 393.27125">Vanellus vanellusVipeCR</tspan><tspan y="-310.39927" x="85.02124 91.118747 94.26334 96.30544 101.143848 103.33084 108.13684 112.94284 115.03354 120.108638 285.42427 290.16728 295.20729 303.18128 307.51029 387.38526 393.27125">Uria aalgeLomviCR</tspan><tspan y="-275.29927" x="85.02124 90.688549 93.43804 98.14324 101.18254 105.898548 110.97814 114.002147 118.90444 122.04904 124.06504 129.00605 133.56005 135.74704 140.92923 145.78743 148.81143 153.66065 158.22635 160.33235 163.22136 165.32376 169.98307 174.92406 287.11625 292.17875 296.45375 300.78276 302.83476 387.38526 393.18125">Stercorarius parasiticusTyvjoVU</tspan><tspan y="-240.19925" x="85.02124 90.59854 95.68804 103.677349 108.47255 111.222049 115.927249 119.071849 121.11305 125.951457 128.13845 136.17095 141.22895 143.20894 145.18894 147.16893 151.86064 156.42635 158.47565 166.46585 284.39826 292.59727 295.88584 298.86485 303.80586 308.80085 387.38526 393.18125">Somateria mollissima&#x00c6;rfuglVU</tspan><tspan y="-205.09925" x="85.02124 91.42924 96.24334 100.95844 108.94775 113.74295 116.496959 121.57295 126.61025 131.62235 136.20604 138.39305 143.43216 148.02216 150.94716 154.05126 158.87526 160.92726 165.67116 170.71207 175.72507 288.02525 293.39823 295.45024 300.10325 302.11924 387.38526 393.89497">Haematopus ostralegusTjeldNT</tspan></text>
</g>
<g id="Layer-1" data-name="Span">
<text fill="#404041" xml:space="preserve" transform="matrix(1 0 -0 1 0 841.89)" font-size="12" font-family="Roboto"><tspan y="-594.5405" x="70.8661 76.9009 83.45411 90.282108 96.6073 99.6469 102.75849 105.74649 112.70649 119.64849 126.45129 131.70128 138.66849">Tabell 404-4c</tspan></text>
</g>
<g id="Layer-1" data-name="Span">
<text fill="#2b3b52" xml:space="preserve" transform="matrix(1 0 -0 1 0 841.89)" font-size="9" font-family="Roboto"><tspan y="-570.0182" x="70.8661 75.7873 81.021709 86.22371 88.66271 93.54971">Fugler</tspan></text>
</g>
<g id="Layer-1" data-name="Span">
</g>
<text fill="#404041" xml:space="preserve" transform="matrix(1 0 -0 1 0 841.89)" font-size="7" font-family="Roboto"><tspan y="-29.016" x="425.599 431.8101 433.9521 438.0933 442.1204 447.08549 453.3295 457.3678 461.8555 466.2865 468.4453 473.2816 477.15748 478.90046 481.04246 486.13078 490.93278 493.07478 497.96708 502.1454 506.37059 511.32447 515.9291 519.9576">MILJ&#x00d8;MESSIGE INDIKATORER</tspan></text>
<text fill="#404041" xml:space="preserve" transform="matrix(1 0 -0 1 0 841.89)" font-size="8" font-family="Roboto" font-weight="bold"><tspan y="-44.7402" x="515.2297 519.82168">75</tspan></text>
<g id="Layer-1" data-name="Artifact">
<clipPath id="cp704">
<path transform="matrix(1,0,0,-1,0,841.89)" d="M 0 0 L 595.276 0 L 595.276 841.89 L 0 841.89 Z "/>
</clipPath>
<g clip-path="url(#cp704)">
<path transform="matrix(1,0,0,-1,524.4094,802.3869)" stroke-width=".5" stroke-linecap="butt" stroke-miterlimit="4" stroke-linejoin="miter" fill="none" stroke="#404041" d="M 0 0 L -1048.819 0 "/>
</g>
<g id="Layer-1" data-name="Span">
</g>
<text fill="#404041" xml:space="preserve" transform="matrix(1 0 -0 1 0 841.89)" font-size="5" font-family="Roboto" font-weight="bold"><tspan y="-805.9686" x="403.742 407.072 410.257 413.222 415.8245 419.0045 422.5345 425.86448 428.68849 431.86848 435.05348 438.14347 439.38847 442.56846">GRATANGLAKS AS</tspan></text>
</g>
<g id="Layer-1" data-name="Span">
</g>
<g id="Layer-1" data-name="Span">
<text fill="#595959" xml:space="preserve" transform="matrix(1 0 -0 1 0 841.89)" font-size="5" font-family="Roboto"><tspan y="-805.9686" x="452.0188 455.3038 460.1488 463.3988 466.4088 469.7138 472.9638 476.3938 479.3768 482.4918 485.6268 488.8768 492.3068 495.6318 498.95683 502.5668 505.6203">B&#x00c6;REKRAFTSRAPPORT</tspan></text>
</g>
<text fill="#404041" xml:space="preserve" transform="matrix(1 0 -0 1 0 841.89)" font-size="5" font-family="Roboto" font-weight="bold"><tspan y="-805.9686" x="512.5638 515.4338 518.3038 521.17379">2020</tspan></text>
<g id="Layer-1" data-name="Artifact">
<clipPath id="cp705">
<path transform="matrix(1,0,0,-1,0,841.89)" d="M 0 0 L 595.276 0 L 595.276 841.89 L 0 841.89 Z "/>
</clipPath>
<g clip-path="url(#cp705)">
<path transform="matrix(1,0,0,-1,-524.4094,39.3869)" stroke-width=".5" stroke-linecap="butt" stroke-miterlimit="4" stroke-linejoin="miter" fill="none" stroke="#404041" d="M 0 0 L 1048.819 0 "/>
</g>
</g>
</g>
</svg>
