<?xml version="1.0" encoding="UTF-8" standalone="no"?>
<!DOCTYPE svg PUBLIC "-//W3C//DTD SVG 1.1//EN" "http://www.w3.org/Graphics/SVG/1.1/DTD/svg11.dtd">
<svg xmlns="http://www.w3.org/2000/svg" xmlns:xlink="http://www.w3.org/1999/xlink" version="1.1" width="595.276pt" height="841.89pt" viewBox="0 0 595.276 841.89">
<g enable-background="new">
<g>
<g id="Layer-1" data-name="Span">
</g>
<g id="Layer-1" data-name="Span">
</g>
<g id="Layer-1" data-name="Span">
<text fill="#00578c" xml:space="preserve" transform="matrix(1 0 -0 1 0 841.89)" font-size="15" font-family="Roboto"><tspan y="-759.7736" x="70.8661 79.25559 87.22209 94.61559 100.08759 108.60759 112.34259 120.616588 124.47159 132.9211 141.1036 149.5171 157.2436 161.1001 168.9916 172.77309 176.63109 184.47609 188.21109 192.06609 205.11609 213.59859 217.38158 221.22907 228.99607 237.07657 244.72057 248.62958 257.14509 265.64707 273.58659 278.8516 282.58659 291.07658 299.56657 303.30155 311.49156 320.01603 328.506 333.65403 341.49903 345.234 350.48554 354.26554 361.9905 365.838 373.368 381.8475 389.7885 395.05354 398.7885 407.2785 415.7685 419.50349 432.51597 440.97596 444.75898 448.61399 457.14149 465.61799 473.4915 478.383 486.324 491.58903">201-2 Finansielle implikasjoner og andre risikoer og muligheter </tspan><tspan y="-741.7736" x="70.8661 79.38609 84.70659 93.22659 101.7466 110.248607 118.123607 123.25811 126.99311 134.91011 138.6931 142.5391 155.52759 163.5676 168.4696 176.97762 182.14061 190.3231 198.84311 207.3406 212.5861 216.4411 224.9191 233.4391 241.3801">grunnet klimaforandringer</tspan></text>
</g>
<g id="Layer-1" data-name="Span">
</g>
<g id="Layer-1" data-name="Span">
</g>
<g id="Layer-1" data-name="Span">
</g>
<g id="Layer-1" data-name="Span">
</g>
<g id="Layer-1" data-name="Span">
</g>
<g id="Layer-1" data-name="Span">
</g>
<g id="Layer-1" data-name="Span">
</g>
<g id="Layer-1" data-name="Span">
</g>
<g id="Layer-1" data-name="Span">
</g>
<g id="Layer-1" data-name="Span">
</g>
<g id="Layer-1" data-name="Span">
</g>
<g id="Layer-1" data-name="Span">
</g>
<g id="Layer-1" data-name="Span">
</g>
<g id="Layer-1" data-name="Span">
</g>
<g id="Layer-1" data-name="Span">
</g>
<g id="Layer-1" data-name="Span">
</g>
<g id="Layer-1" data-name="Span">
</g>
<g id="Layer-1" data-name="Span">
</g>
<g id="Layer-1" data-name="Span">
</g>
<g id="Layer-1" data-name="Span">
</g>
<g id="Layer-1" data-name="Span">
</g>
<g id="Layer-1" data-name="Span">
</g>
<g id="Layer-1" data-name="Span">
</g>
<g id="Layer-1" data-name="Span">
</g>
<g id="Layer-1" data-name="Span">
</g>
<g id="Layer-1" data-name="Span">
</g>
<g id="Layer-1" data-name="Span">
</g>
<g id="Layer-1" data-name="Span">
</g>
<text fill="#404041" xml:space="preserve" transform="matrix(1 0 -0 1 0 841.89)" font-size="9" font-family="Roboto"><tspan y="-717.2513" x="70.8661 76.561298 78.57099 80.62029 88.61049 93.46959 98.17479 103.22019 108.25479 111.39939 113.41539 118.48059 123.555698 128.2618 131.2858 134.6518 139.3579 142.3819 145.7479 150.454 155.39499 158.7826 163.88469 166.9978 169.79232 174.8719 177.8959 182.9305 186.0751 188.09111 193.15631 198.1513 201.48491 206.09381 211.1833 219.1573 222.4783 227.53 232.27391 236.7388 238.7548 241.95612 246.22393 250.93003 253.95403 257.32 262.26103 267.12825 270.04515 275.08335 278.09565 282.80177 287.74278 291.13038 295.48368 300.3419 302.96717 305.11817 308.43467 310.82868 314.1884 319.2095 323.9534 328.448 333.50059 336.68476 341.72297 346.13298 349.46299 354.51649 357.54048 362.6255 367.65919 372.6002 377.27839 381.98359 384.99678 389.70198 392.72596 396.09196 400.55598 402.57197 405.91999 407.93598 411.284 415.9199 420.7862 428.7413 433.3412 438.3722 440.38099 442.38978 444.40577 447.75379 455.78898 460.5131 465.5171 468.8417 473.7827 478.64994 481.56596 486.60508 489.61738 494.32258 499.4445 501.16349 504.4845 509.5794 514.5744 517.908 522.372 524.388">Klimaendringer er en utfordring som p&#x00e5;virker naturen v&#x00e5;r. I havbruk produserer vi i samspill med naturen, og vi </tspan><tspan y="-706.4513" x="70.8661 75.91779 80.66169 85.126598 87.14259 90.344799 94.612598 99.265598 103.819599 106.43859 108.45459 111.073589 115.68879 118.44279 123.522388 126.54639 129.18338 134.22698 137.25098 142.07498 147.07898 149.74298 154.4869 158.81589 161.47989 166.42089 171.28809 174.20499 179.24318 182.41748 186.96698 189.97928 194.63228 197.81919 200.5678 205.2739 207.8992 210.0502 212.6422 218.7946 223.47191 226.36092 228.96192 234.1972 236.3401 241.42241 244.44641 247.0834 251.87862 254.76763 257.36863 261.72105 266.57926 269.60325 272.24028 276.70518 278.72117 281.92247 286.32347 290.93235 296.02186 304.02735 309.09346 313.77168 316.66069 319.2617 324.35569 329.35069 334.00459 338.82859 341.4386 345.9035 347.9123 349.92829 352.5473 357.0293 362.0675 367.1039 372.1664 376.81944 379.39344 384.42445 386.43324 388.44923 391.06825 396.11994 400.86384 405.32786 407.34385 410.54515 414.81294 419.49116 422.38017 424.98118 429.72508 434.05409 436.71809 441.23789 443.24668 445.29689 453.28617 458.14527 462.85139 467.8968 472.9314 476.076 478.09199 483.1572 488.2323 492.9375 495.56278 497.71379 500.3058 506.45909 511.13639 514.0254 516.6264 521.3316 524.3556">p&#x00e5;virkes i stor grad av naturkrefter. Det gj&#x00f8;r at v&#x00e5;r virksomhet ogs&#x00e5; vil kunne bli p&#x00e5;virket av klimaendringer. Det er </tspan><tspan y="-695.6513" x="70.8661 74.0107 76.02129 80.5861 82.6021 86.9014 91.9414 94.4704 97.2649 102.3445 105.3685 107.9695 113.0527 117.778598 120.52809 125.18109 127.719089 131.9923 137.03229 141.64749 144.5797 149.52069 154.3447 159.5017 164.2078 167.2318 169.8328 174.3823 179.30619 184.06449 187.2244 189.9739 194.65122 197.54022 200.10523 203.00864 205.01834 207.03435 209.61734 214.21724 218.68215 223.50615 228.59204 233.29724 236.32125 238.92224 243.53115 248.62064 256.59465 259.15065 261.94425 267.00495 269.05876 274.13475 278.78776 281.32579 286.06968 290.39869 293.0267 298.1099 302.8358 305.7248 308.2898 312.995 317.3951 322.01029 324.9434 327.9557 332.6708 340.53233 344.85054 352.76875 355.394 357.545 360.101 366.2543 370.9316 374.09153 376.84104 381.49406 384.03208 388.49787 393.35609 398.2971 400.9251 408.9594 413.68443 418.73524 421.52973 426.6129 429.6252 434.27824 436.81626 441.41615 445.88105 450.70506 455.79096 460.49617 463.52015 466.12117 471.17286 475.99687 478.57087 483.42909 488.4376 490.51838 495.2353 500.28428 505.27928 507.85328 512.5243 514.534 516.6148 521.3209 524.3449">risiko for &#x00f8;kte kostnader knyttet til skader som f&#x00f8;lge av &#x00f8;kt ekstremv&#x00e6;r. Dette kan medf&#x00f8;re skader p&#x00e5; anlegg eller </tspan><tspan y="-684.8513" x="70.8661 75.970897 81.038799 85.70979 87.72579 92.59029 97.69689 100.44639 105.09939 107.286388 112.322788 115.50699 120.54519 125.15228 127.30328 129.49028 137.28429 142.22528 144.30609 146.3608 151.35579 153.54279 156.70359 158.71329 163.27899 165.295 169.5943 174.6343 176.82129 181.4977 184.5217 186.7087 189.7831 194.87349 202.88799 210.86829 212.8843 217.9486 223.08579 224.80478 226.99178 232.03177 235.17638 237.23378 240.43869 243.3277 247.9384 252.5527 255.49932 260.3575 265.33995 269.89393 272.08094 277.20646 282.20146 284.38847 289.16386 292.32377 295.07237 299.77848 302.92308 304.93186 306.98655 312.06166 316.76777 319.78007 324.43309 326.6201 331.63038 333.72468 338.78178 340.87608 345.97007 350.96507 352.99275 357.59263 361.8604 366.51344 368.70045 371.61375 374.79704 379.73805 384.37574 386.45744 391.16264 393.7879">&#x00f8;delagte bruk. Mulig risiko er r&#x00f8;mming, driftsstans og ytterligere biologiske trusler.</tspan><tspan y="-663.25137" x="70.8661 78.6952 83.4193 88.423297 90.57789 95.66019 100.38699 103.27599 105.43059 110.13669 114.53679 119.15199 122.08419 125.09739 129.8116 137.6731 141.99219 149.91039 152.93439 155.13039 160.1821 165.0061 170.0911 174.7441 176.87169 181.9234 186.7474 188.9101 190.9261 195.81131 200.8567 205.8607 208.0153 213.1093 218.1043 220.26789 223.1713 225.1801 227.1961 229.3741 234.39519 239.1391 243.5266 248.2066 249.9256 252.0766 256.5415 258.5512 260.5672 262.7452 267.8131 272.49043 275.37944 277.53495 282.62895 287.62394 292.27784 297.10185 299.26457 303.74656 308.78477 313.82118 318.88368 323.53669 325.6634 330.26329 334.72819 339.5864 344.68128 349.3343 353.88829 356.06629 361.1486 365.8754 368.7644 370.919 376.0139 380.7191 385.7987 390.74693 395.07594 397.29896 400.09346 405.17308 408.19706 410.39308 412.40907 417.34199 421.68629 426.3393 430.95448 433.70399 438.40919 441.55378 443.56977 448.63407 453.71006 458.41526 461.43925 463.63526 465.65126 467.82926 472.39494 474.41093 478.98744 483.25523 487.96134 491.13563 496.20173 500.87995 503.76896 508.38594 510.95994 514.3169 519.4109 524.4059">Med &#x00f8;kt ekstremv&#x00e6;r b&#x00e5;de p&#x00e5; land og til havs, vil det ogs&#x00e5; kunne skapes &#x00f8;kt behov for investeringer i sikkerhets- og </tspan><tspan y="-652.45138" x="70.8661 75.9601 80.6662 83.6785 88.402599 93.40659 98.00649 102.47139 107.32959 112.31559 116.957798 119.86119 121.86999 123.97598 126.921688 131.77988 136.38788 138.53888 141.03188 147.18428 151.86249 154.7515 157.2535 161.9587 164.9827 167.5279 172.62189 177.61688 182.26988 187.09389 189.60489 194.31009 199.25109 201.81609 204.9607 206.9713 211.5361 213.55211 217.85141 222.8914 225.3574 227.37342 229.8934 232.68701 237.7675 240.9418 246.0205 251.07849 253.1413 258.1453 260.6473 263.55073 265.5595 267.5755 270.09553 278.07673 283.01774 285.0985 287.1532 292.2283 296.88133 299.35633 304.06245 309.10786 314.14155 317.28703 319.303 324.3673 329.4433 334.1485 337.1725 339.71769 341.73368 344.2537 347.27769 352.189 360.2026 368.2369 372.94303 378.03703 382.71525 385.61866 387.63465 392.69895 397.77494 402.44596 404.45655 409.0627 413.7679 416.3932 418.5442 421.0372 427.4002 432.1441 436.63783 441.64634 443.7379 448.09123 452.89543 457.5097 460.41313 462.4678 467.5105 472.5181 474.5341 479.5984 484.73649 486.45549 488.9557 493.57087 496.32487 501.40449 504.58778 512.45919 515.5516 517.6459 522.66879 524.38778">beredskapstiltak. Det er ogs&#x00e5; en risiko i forhold til mulige endringer i rammebetingelser. Havniv&#x00e5;stigning, stormflo, </tspan><tspan y="-641.65139" x="70.8661 73.6606 78.7402 81.847 86.413608 91.452709 94.597309 96.613307 101.678508 106.67351 108.457309 113.55221 118.54721 120.33101 124.94621 127.70021 132.78252 135.95682 138.96912 143.62212 145.37082 150.42342 155.28162 159.78882 161.91912 166.62522 171.6616 176.6692 178.68521 183.74951 188.8255 193.5307 196.5547 198.3727 203.41629 206.5996 211.63779 216.67508 221.73668 226.41489 229.3039 231.08049 235.39868 243.31688 246.34088 248.15888 252.62468 257.48197 262.42298 264.2617 269.25669 271.27268 273.0907 277.7968 282.84223 287.87684 290.88914 295.61326 300.68116 305.33418 307.08198 311.6324 314.65638 319.44438 323.77339 325.6193 328.5083 330.5243 332.54029 334.3394 339.34339 341.3936 349.4279 354.1331 359.1164 363.67039 365.8133 370.8929 375.9554 380.6606 383.8052 385.8212 390.8855 396.0236 397.74259 399.5156 404.13078 407.07649 411.93559 416.981 422.02009 426.8783 429.90229 434.97019 439.67539 442.69938 444.5174 449.18843 451.19813 453.2789 457.98503 461.009 462.82704 467.73744 472.09434 477.17396 480.19795 482.01597 486.93898 491.30036 495.95338 497.7021 502.5603 507.5679 509.64869 514.3656 519.4146 524.4096">forsuring og st&#x00f8;rre p&#x00e5;kjenninger grunnet v&#x00e6;r kan gi endrede krav til dimensjonering, standarder eller hvor nye anlegg </tspan><tspan y="-630.8514" x="70.8661 75.33099 80.18919 85.130199 87.31719 89.48169 94.56129 99.026187 103.85018 105.85988 107.869579 112.47578 117.18098 120.194179 124.847179 129.51187 131.66287 133.84987 138.91507 143.85607 146.04306 150.97147 156.00786 161.07036 165.77556 170.71656 172.90355 176.11835 178.12895 182.69466 184.71067 189.00997 194.04996 196.23696 200.91426 203.93827 206.12526 211.25707 215.98297 218.73249 223.38549 225.57248 228.59648 233.36739 237.71979 242.57799 245.59029 250.29639 254.5687 259.6087 264.22389 267.15699 272.098 276.922 282.0799 286.7851 289.41038 291.56138">kan lokaliseres. En annen risiko er &#x00f8;kte r&#x00e5;varekostnader. </tspan><tspan y="-609.2514" x="70.8661 76.561298 78.57099 80.62029 88.61049 93.46959 98.17479 103.22019 108.25479 111.39939 113.41539 118.48059 123.555698 128.2618 131.2858 132.9778 137.4427 142.3009 147.2419 148.96089 153.66609 158.0662 162.6724 167.3866 175.39299 180.487 185.158 187.25052 191.71541 193.72512 198.27912 199.95311 205.00482 209.74874 214.21363 216.22963 219.43094 223.69875 228.35175 229.98075 234.58695 239.25795 241.35047 245.69387 250.34687 251.97586 254.77037 259.84999 263.02427 268.07777 271.10176 276.18678 281.22047 286.25868 290.65879 295.21278 297.35569 302.4362 307.4978 312.20393 317.14494 318.86396 323.20826 327.93238 332.93638 334.59239 339.38758 342.27659 343.9326 349.0005 353.6778 356.5668 358.2228 362.6877 367.54594 372.48695 374.20597 379.23606 381.24577 383.26176 384.93577 389.64189 394.5829 396.3019 399.3142 404.0392 409.07203 414.11024 418.51036 423.06434 425.20814 430.28776 435.22877 436.94779 438.96379 440.6378 442.7807 447.8612 450.8852 455.91889 460.97239 464.15568 469.19389 473.594 478.19389 483.24647 486.27046 491.35636 496.38917 501.42829 505.8284 510.3779 512.52169 517.60128 522.72317 524.44216">Klimaendringer kan eksempelvis p&#x00e5;virke selve f&#x00f4;rproduksjonen ved at det kan bli en reduksjon i jordbruksproduksjon, </tspan><tspan y="-598.4514" x="70.8661 75.9601 80.9551 84.3211 89.3881 94.0942 97.4737 100.2682 105.3478 108.3718 111.7702 116.31971 121.26071 126.19091 131.24352 136.29703 141.36313 146.04044 148.92945 152.28644 157.33904 162.16304 165.52904 168.55304 173.34195 177.69525 182.55345 185.56575 190.27095 192.89626 195.04726 198.39525 200.78925 204.18224 206.97675 212.05724 215.06954 219.74684 222.63585 225.99285 228.89626 230.90506 232.92107 236.29607 238.31208 243.19728 247.59738 252.20359 256.9097 261.8507 265.27073 270.32423 273.5075 278.54573 282.8135 287.46653 292.0205 295.4009 303.2795 307.6409 312.2939 315.62394 317.67414 325.67964 330.7691 335.8496 339.2768 342.0263 346.7315 350.1587 353.0477 356.40473 361.0145 365.9762 370.3466 375.284 377.435 380.78303 386.9354 391.61363 394.50263 397.85966 402.85466 404.87065 407.89463 411.33894 414.48353 416.49324 421.0589 423.0749 427.3751 432.4151 435.7361 440.2856 445.20954 449.96784 453.12776 455.87727 460.55458 463.44358 466.8006 469.704 471.7128 473.7288 477.1038 485.085 490.026 492.10679 494.16148 499.23658 503.8896 507.2196 512.3019 517.0278 519.7772 524.43026">og derfor knapphet p&#x00e5; r&#x00e5;varer. I f&#x00f4;ret til laksen brukes mye importert soya. Det gir risiko knyttet til mulige &#x00f8;kte </tspan><tspan y="-587.6514" x="70.8661 75.13839 80.17839 84.792697 87.72579 92.666797 97.49079 102.64869 107.35389 110.37789 112.582889 117.63548 122.45948 124.637477 127.57057 130.59458 135.49777 140.48107 145.08097 150.17046 155.25005 158.67725 161.71836 163.43735 165.59735 170.64005 173.82425 178.86244 183.89884 188.96134 193.63864 196.52765 198.69664 203.31185 206.24405 209.25635 213.96245 218.99974 224.07573 228.78093 231.79323 236.44623 238.58823 241.60053 246.31653 251.35832 256.36683 258.44853 263.15373 266.2983 268.3143 273.3786 278.4537 283.15983 286.1838 288.38883 293.44053 298.26454 300.44255 305.54466 308.43367 312.99934 315.00904 317.02503 322.10554 327.1068 329.2578 331.41694 337.78086 342.52476 347.27046 350.01997 354.73509 362.74058 367.83457 372.54069 375.56468 380.40489 383.32179 388.3591 391.3831 393.589 398.6407 403.38459 407.8495 409.86549 413.06678 417.33549 422.04069 425.06468 427.26878 432.36369 437.35868 442.01258 446.83659 449.0146 451.03059 455.91578 460.3159 464.98057 467.13157 469.29158 474.3892 479.2474 483.64753 488.2537 492.9589 497.8999 500.13194 504.59684 509.45506 514.39608 516.62808 519.57467 524.3986">kostnader p&#x00e5; transport, grunnet strengere reguleringer p&#x00e5; utslipp. Havtemperatur p&#x00e5;virker ogs&#x00e5; laks. Laksen kan ta </tspan><tspan y="-576.85147" x="70.8661 75.945697 80.99919 85.98519 88.370189 91.16469 96.244289 99.256587 103.934787 106.823787 109.19078 114.22988 119.08808 122.23268 124.24148 126.29617 131.37126 136.07736 139.08966 143.74266 146.08266 151.17755 156.17255 158.54854 163.01253 165.02223 167.03824 169.42324 173.90525 178.94434 183.98073 189.04233 193.69533 196.03533 200.63523 205.66532 207.67592 212.28122 216.93422 219.27422 227.25452 229.27053 234.34381 239.3775 242.3898 247.0428 249.3828 254.32379 259.254 262.27799 264.681 267.4305 272.1447 280.15113 285.24513 289.95033 292.9743 297.8136 300.7305 305.76963 308.78193 313.48713 318.42814 320.85816 322.87416 325.25917 330.28028 335.02418 339.36848 344.04579 346.93479 349.3018 354.3841 358.6519 363.358 366.382 368.785 373.12843 377.78144 382.38673 387.09284 392.05815 394.96156 396.97126 399.02507 404.11906 406.27006 408.62806 415.01808 419.87629 422.90028 425.30329 430.3253 435.06919 439.81489 442.5644 447.2795 455.285 460.379 465.0851 468.1091 472.9493 475.8662 480.90443 483.91673 488.62284 493.68446 498.33747 500.6775 505.29267 508.19609 510.24989 515.32589 520.03109 522.6816 524.4006">opp f&#x00f4;ret d&#x00e5;rligere og vil kunne spise mindre n&#x00e5;r temperaturen i havet &#x00f8;ker vesentlig. N&#x00e5;r havtemperaturene stiger, </tspan><tspan y="-566.05148" x="70.8661 73.799198 76.943798 79.03539 83.37969 88.03269 92.58669 95.73669 100.83159 105.82659 110.48049 115.30449 118.44009 120.456089 125.341289 129.74138 134.34758 139.01949 141.03549 145.97649 150.68079 155.38689 160.32788 163.51747 168.61238 173.33649 178.37018 181.38338 186.00308 188.15409 191.27709 197.42949 202.1077 205.26671 208.01622 212.66922 215.76972 220.2337 222.24341 224.25942 227.40941 231.89142 236.92961 241.966 247.0285 251.6815 254.7811 257.7934 262.4464 267.013 272.0215 274.12663 276.87614 281.58226 284.59455 289.24757 292.34718 294.36317 297.51319 302.5955 307.32139 310.2104 313.3424 318.395 321.57917 326.61738 331.02738 334.1594 338.9033 343.2323 346.42823 354.46253 359.16773 363.6335 368.4908 373.49934 375.50904 380.10893 384.51893 387.65095 392.39485 396.85975 398.87574 403.81675 408.51475 413.52326 415.53926 420.60447 425.74168 427.46067 430.58369 435.19346 440.28208 448.25608 451.3791 453.4329 458.66819 460.7985 465.5037 470.4447 473.63523 478.10014 482.95835 487.89936 491.08897 499.12416 503.84828 508.89909 511.69358 516.77676 519.789 524.442">trives ogs&#x00e5; lakselusen bedre. Dette vil kunne resultere i &#x00f8;kt bruk av mekanisk avlusning, som igjen kan medf&#x00f8;re </tspan><tspan y="-555.25149" x="70.8661 75.948398 80.6743 83.5633 86.6413 91.721797 96.82659 101.89359 106.56549 108.57429 110.62898 115.671688 120.738689 125.415988 128.305 131.383 136.4347 141.2587 144.3403 146.35631 151.24152 155.64162 160.30632 162.45732 165.52182 171.69492 176.42082 179.30983 182.38784 187.44045 190.62375 195.66284 200.07285 203.15085 207.89476 212.22376 215.36565 220.10776 224.57355 226.58956 231.53055 236.22855 241.23705 243.25305 248.31735 253.31235 257.93833 265.91954 267.98234 272.98634 275.0671 279.7723 282.7963 285.9103 290.3752 295.23344 300.17445 303.31007 308.40498 313.39997 318.05387 322.87788 325.95948 328.04026 332.76527 337.83226 342.48527 345.53178 348.43519 350.44398 352.45997 355.55598 360.35118 363.24018 366.3137 368.32969 373.21488 377.615 382.22117 386.89219 388.90818 393.84919 398.55439 403.2605 408.2015 411.33714 416.43925 419.58656 424.05146 426.06745 430.61427 432.69596 437.40116 440.42515 443.53916 446.55235 451.20536 455.77104 457.78074 462.3959 465.14543 469.85063 474.83393 479.3879 482.48393 490.51643 495.4565 498.34553 501.42353 506.42753 508.43724 513.0479 517.6541 522.2738 524.4248">&#x00f8;kt d&#x00f8;delighet p&#x00e5; laks. &#x00d8;kt bruk av avlusningsmidler kan ogs&#x00e5; lede til at lakselusen utvikler resistens mot disse. </tspan><tspan y="-544.4515" x="70.8661 77.022098 80.0461 84.922298 87.8689 92.7271 97.7644 102.7594 104.7754 109.6786 114.07869 118.63269 120.738689 125.34489 130.0501 133.0741 135.19809 139.9933 142.88231 144.9658 149.9608 152.0731 157.1527 162.2053 167.02931 169.11013 173.76313 175.81873 180.33853 182.34734 184.39754 192.38684 197.24594 201.95114 206.99744 212.03113 215.17574 217.19174 222.25605 227.33203 232.03723 235.06124 237.18523 241.65012 243.65892 245.67493 247.77913 252.80924 254.81894 256.83494 258.93824 263.61647 266.50547 268.589 273.20329 276.14988 280.97389 285.99678 288.05058 293.04557 295.13719 299.6012 301.6172 306.3701 309.2735 311.3273 316.4024 321.10853 324.12083 328.77384 330.83216 333.58076 338.29588 346.28517 351.10917 353.19987 355.99436 361.07398 364.09797 366.22288 370.5753 375.4335 378.4575 380.5815 383.7261 385.7367 390.30149 392.31748 396.6168 401.6568 406.2711 409.4355 413.9427 417.08729 419.10328 424.1685 429.26249 431.41349 433.488 435.56434 441.96696 446.92686 451.28825 455.94126 457.99687 463.88557">Gratanglaks ser at globale klimaendringer vil bli et stadig viktigere tema for v&#x00e5;r risikostyring.  H&#x00f8;ye CO</tspan></text>
<text fill="#404041" xml:space="preserve" transform="matrix(1 0 -0 1 0 841.89)" font-size="5.247" font-family="Roboto"><tspan y="-541.4543" x="470.0028">2</tspan></text>
<text fill="#404041" xml:space="preserve" transform="matrix(1 0 -0 1 0 841.89)" font-size="9" font-family="Roboto"><tspan y="-544.4514" x="472.9333 476.80509 481.90809 484.7971 489.36277 491.37248 493.38847 498.46897 503.42707 505.14607 507.22508 512.3073 517.0332 519.78268 524.43569">-utslipp, &#x00f8;kte </tspan><tspan y="-533.6514" x="70.86728 75.611179 79.930278 84.92528 87.00158 90.20558 92.95508 97.66118 100.68518 102.734477 107.78617 112.61017 114.62617 117.42067 122.46067 127.07137 131.63617 133.64588 135.66188 140.74149 145.54569 150.15189 154.85709 158.28429 161.1733 163.1803 168.2338 171.2461 175.9513 180.93369 185.53989 190.21179 192.2278 194.25279 199.34769 204.34268 206.35868 211.06478 216.12638 220.83248 223.84477 228.83977 230.98897 232.70796 234.71317 239.70816 241.72417 244.74817 246.84247 249.98708 251.99768 256.56336 258.57936 262.87867 267.91868 269.88969 272.68418 277.7638 280.78779 282.8371 287.9203 292.64619 295.39479 300.0478 302.0278 307.0624 310.207 312.2644 315.4693 318.3583 322.9582 327.2305 332.2705 336.88569 339.8188 344.7598 349.5838 354.7417 359.4469 362.07218 364.22319 366.2212 373.9873 375.997 378.0211 380.164 385.2472 388.2595 392.9755 398.05149 402.7225 404.815 409.15843 413.86454 417.03883 421.3066 425.98393 428.87294 430.88084 435.58695 438.61094 440.66026 442.67625 444.70127 449.31645 452.26216 457.08616 462.10905 464.16285 469.15785 471.17387 473.96836 479.04798 482.07197 486.97517 492.02146 497.05516 500.19975 502.21574 507.28096 512.27597 514.29196 519.3859 524.3809">avgifter p&#x00e5; fossilbasert brensel og energi, gir risiko for &#x00f8;kte driftskostnader. Milj&#x00f8;regelverket er i stadig forandring og </tspan><tspan y="-522.85147" x="70.86728 75.332187 80.190387 85.131389 87.51638 92.56808 97.31197 101.77688 103.79288 106.99508 111.26288 115.91588 118.21088 123.25088 127.86158 132.41558 134.76277 139.81449 144.63849 146.96949 150.06279 152.1436 156.8497 159.862 164.515 166.81 174.7993 179.59452 182.34403 187.04923 189.67453 191.82553 194.13944 199.81394 201.82994 204.17534 208.64025 213.49845 218.43944 220.82444 225.09674 230.18624 238.19983 246.23503 250.88803 253.18303 256.08644 258.09614 260.11213 262.45753 267.28153 269.61256 277.60276 282.39707 285.55699 288.3065 292.9595 295.25453 300.3485 305.02674 307.97334 312.79734 314.8781 319.53114 321.82615 326.90846 331.63526 334.38386 339.03688 341.33189 345.79679 350.655 353.82929 358.91969 363.9993 368.9826 373.5816 378.0465 382.8417 386.00163 388.75114 393.45634 396.48033 398.84645 403.39595 408.31986 413.07817 416.23808 418.98759 423.6649 426.5539 428.87593 431.77934 433.78904 435.80503 438.15043 442.85563 447.91813 452.62333 455.63563 460.6306 462.6466 465.0046 470.09953 475.0945 477.42555 482.45924 485.60383 487.69633 492.08293 496.6981 499.4521 504.367 507.5242 510.2395 511.9585 514.28146 519.3754 524.3704">kan p&#x00e5;virke oss p&#x00e5; flere m&#x00e5;ter. Vi kan komme til &#x00e5; m&#x00e5;tte betale &#x00f8;kte karbonskatter knyttet til energi og drivstoff, og </tspan><tspan y="-512.05148" x="70.86728 75.332187 77.34818 79.53518 84.027988 86.03768 88.05368 90.24068 94.75148 99.79058 104.82698 109.88858 114.54158 116.72858 121.762279 124.94558 129.98378 134.25159 138.90459 141.09159 149.10968 153.81488 156.83889 159.02588 161.97879 164.0416 169.0456 171.23259 176.33469 181.32968 183.51668 186.54068 191.19368 195.80438 200.37099 205.40918 208.51598 213.12218 217.82828 220.85228 223.03928 228.14048 232.96448 235.15148 238.17548 243.09758 248.15019 253.2397 258.3202 261.74739 264.4969 269.2021 272.34669 274.36268 279.42698 284.52098 286.67198">vi vil kunne bruke mer tid og ressurser p&#x00e5; rapportering. </tspan><tspan y="-490.45146" x="70.86728 77.23568 85.15298 88.29758 90.313579 95.37788 100.37288 105.00788 107.58188 111.62018 116.71418 121.70918 124.55678 127.53578 129.43929 134.03919 138.30699 143.01219 146.1568 148.2205 153.2875 157.9936 163.04532 167.90352 171.33072 174.08023 178.79534 186.82964 191.53484 196.50104 199.25055 203.92786 206.81687 211.37087 214.23287 217.16597 220.18997 225.08238 228.06139 229.991 234.5405 239.0603 241.1699 245.4449 250.1816 254.7356 259.0106 263.77879 266.5283 271.2425 279.2165 282.0515 284.846 289.92564 292.94963 295.83055 300.85166 305.59556 310.09016 315.14274 318.32603 323.36424 328.02714 329.74613 332.58204 337.5176 341.8538 346.90278 351.97877 356.68397 359.70796 362.58888 367.64057 372.46458 375.31129 383.29158 385.30128 387.32627 389.46919 394.55149 399.60408 404.34709 408.81199 410.82798 414.02928 418.57878 423.58638 425.60237 430.66667 435.74266 440.44786 445.38887 448.29048 453.03437 457.36338 460.2704 462.28639 467.17158 471.5717 476.17787 480.84889 482.86488 487.80589 492.58576 494.30476 497.14067 502.23558 507.23057 510.0782 514.543 519.4012 524.34219">N&#x00e6;rings- og fiskeridepartementets trafikklyssystem for havbruk, bygger p&#x00e5; milj&#x00f8;p&#x00e5;virkningen av lakselus, og kan </tspan><tspan y="-479.65147" x="70.86728 75.96128 80.95628 85.61018 90.43418 93.21518 98.21018 100.22618 103.03418 108.11648 112.38877 117.46927 122.54437 127.63387 135.61418 137.62389 142.22379 146.4916 151.14459 153.88959 158.98448 163.70049 168.74408 171.75638 176.46158 181.44487 186.01058 188.02658 193.09088 198.16687 202.87207 205.89608 208.70407 211.49858 216.57817 219.60218 222.41017 227.01638 231.68738 233.69799 238.29788 242.76279 247.62099 252.715 257.39323 260.28224 263.05424 267.40754 272.26576 275.69294 278.68275 280.83375 283.59675 288.86625 293.59037 298.59437 301.36637 304.15998 309.24049 312.26448 315.07249 320.15119 325.11109 329.47248 334.1255 336.8705 338.8865 343.8275 348.5327 353.2379 358.24644 360.338 364.6913 369.5504 374.2556 377.2796 380.08763 384.55253 386.5613 388.5773 391.36643 395.83134 397.84733 400.63734 405.11933 410.15846 415.19486 420.25648 424.9095 427.6545 432.6846 434.6934 436.70939 439.4994 444.5511 449.3751 451.39109 456.25559 461.36219 464.2512 467.0232 471.8472 474.6282 477.6405 482.3655 487.39833 492.33934 497.0166 501.72273 504.73503 509.38804 512.13308 516.4863 521.3445 524.36849">ogs&#x00e5; gi &#x00f8;konomiske begrensinger for selskapet v&#x00e5;rt. Ved for h&#x00f8;ye luseniv&#x00e5;er vil vi kunne bli p&#x00e5;lagt &#x00e5; redusere v&#x00e5;r </tspan><tspan y="-468.85148" x="70.86728 75.919879 78.94388 84.02978 89.06258 94.10168 98.50177 103.05577 105.19867 110.27827 115.40017 117.11917 119.27917 123.950168 125.95986 128.04067 132.74677 135.77077 137.97577 142.77098 145.65999 147.82898 152.29387 154.30988 156.49687 158.51288 163.08939 167.3572 172.0102 174.15219 176.998 181.8562 184.8802 187.0852 195.0664 200.0074 202.08821 204.14292 209.18561 214.25261 218.92992 221.81893 223.98792 226.89133 228.90103 230.91704 233.10404 237.92804 240.10604 244.46202 249.54251 253.94261 258.5488 263.2018 265.34294 270.57823 272.70854 277.41374 282.45106 287.52616 292.61567 300.58967 302.74967 307.83198 312.55787 315.44688 317.61589 322.66847 325.69245 330.77836 335.81117 340.84938 345.24949 349.80348 351.94728 357.0269 362.1209 364.2719 366.43193 372.5852 377.2625 380.15153 382.32054 387.02665 390.05064 392.25566 397.34965 402.34465 406.99855 411.82255 413.99607 419.08647 424.14356 426.15327 428.25837 431.16178 433.17237 437.77137 442.03916 446.69218 448.83418 453.83818 455.84877 460.44776 464.92976 469.87077 474.49314 476.63606 481.71568 486.77818 491.48338 494.50736 496.71238 501.26188 506.1858 510.9441 514.10397 516.8534 521.5307 524.4197">produksjon, eller at vi ikke f&#x00e5;r mulighet til &#x00e5; vokse gjennom &#x00f8;kt produksjon. Det er ogs&#x00e5; politiske diskusjoner knyttet </tspan><tspan y="-458.05149" x="70.86728 73.770679 75.77947 77.79547 80.29747 83.22967 86.25367 91.146068 94.12507 96.054668 100.604167 105.12396 107.23266 111.50766 116.24436 120.79836 125.073368 129.84157 132.59108 137.30529 145.33959 150.01779 153.0589 154.7779 157.25469 162.34958 167.34458 169.83307 174.92256 182.89656 185.37245 190.43946 195.11766 198.27667 201.02619 205.67919 208.13259 212.73159 217.19739 222.0214 224.0374 226.5394 228.5554 233.6197 238.13951 240.15552 245.23601 250.30301 255.00911 258.02143 262.67445 265.12696 268.22026 270.30104 275.00715 278.01945 282.67247 285.12498 293.10618 295.11497 297.13996 299.28288 304.37327 312.40846 317.06147 321.67216 326.23783 328.29164 333.36674 338.01976 340.47315 345.52485 350.38307 353.40705 358.31837 366.35356 371.03086 373.78038 378.48558 381.49876 386.11848 388.26948 390.74089 395.64048 399.98478 404.68998 409.6562 412.5731 417.6446 422.3156 424.32533 426.4061 431.0591 433.5125 438.2177 443.264 448.2977 451.4423 453.45829 458.52259 463.5977 468.3038 471.3278 473.8496 478.9157 483.62184 486.6458 489.16764 493.63166 495.64137 497.65736 500.15846 504.64045 509.67958 514.71597 519.7775 524.43057">til trafikklyssystemet, og om dette skal inkludere flere milj&#x00f8;messige parametere. Eventuelle endringer her vil kunne </tspan><tspan y="-447.2515" x="70.86728 75.918979 80.66287 85.12778 87.143779 90.34598 94.613788 99.266788 102.15218 106.505489 111.363689 114.38769 117.341487 122.37608 125.52068 127.57808 130.78299 133.7728 135.9238 138.8281 144.5242 146.533 148.5832 156.57251 161.43161 166.13681 171.1831 176.2168 179.3614 181.37741 186.44171 191.5177 196.2229 201.2845 205.9375 208.82379 213.81879 215.8348 218.8588 221.85849 226.95249 231.94748 236.60138 241.42539 244.34679 249.42188 254.53838 259.24357 264.18458 267.15998 275.14207 280.15058 282.15937 284.21406 289.25675 294.32377 299.00108 301.75059 306.4567 309.48069 312.4345 315.229 320.3095 323.3335 326.2882 332.4442 335.4682 340.3444 343.291 348.1492 353.18653 358.18153 360.1975 365.09983 369.50083 374.1646 376.3156 379.22084 385.39033 390.44383 395.50813 400.5418 403.555 408.2323 411.3922 414.28123 418.9477 421.9267 423.8311 428.43009 432.8401 435.7579 440.77903 445.63725 448.66123 451.61595 456.29417 459.18318 462.09648 465.10877 469.78068 471.79667 476.62068 479.52409 481.61659 486.36228 489.25129 492.1655 494.1815 498.9524 503.699 506.588 509.5013 515.39089">p&#x00e5;virke v&#x00e5;r drift. Klimaendringene gir ogs&#x00e5; noen muligheter for Gratanglaks. Oppdrettsfisk har et relativt lavt CO</tspan></text>
<text fill="#404041" xml:space="preserve" transform="matrix(1 0 -0 1 0 841.89)" font-size="5.247" font-family="Roboto"><tspan y="-444.2543" x="521.5016 524.40847">2 </tspan></text>
<text fill="#404041" xml:space="preserve" transform="matrix(1 0 -0 1 0 841.89)" font-size="9" font-family="Roboto"><tspan y="-436.4514" x="70.8661 75.9682 78.8572 83.422908 85.4326 87.4486 92.5282 97.5142 101.02419 105.659198 110.52549 118.539989 126.57429 131.2795 136.288 138.2968 140.3515 145.3942 150.4567 155.134 158.02301 161.515 169.5493 174.2743 179.2783 182.7703 187.6285 192.67389 197.70848 200.72078 205.37378 208.83878 213.69698 218.70458 220.75478 228.74408 233.56809 235.57869 240.17769 244.4464 249.0994 252.56439 257.61698 260.64097 265.58198 268.33058 273.00248 275.01847 280.08277 284.60258 286.61137 288.67506 293.74205 298.44816 301.07344 303.22444 306.70744 309.10145 312.62947 315.53288 317.54258 319.55137 321.63307 326.34907 331.39897 336.39396 339.89497 344.60017 347.62416 351.15937 356.21287 359.39616 364.43437 368.84437 372.34269 377.08659 381.4156 384.9769 386.9929 391.87809 396.9235 401.9635 406.82173 409.834 414.48704 419.29304 421.30903 424.82444 429.91844 434.91343 438.41444 443.12055 448.18217 452.88737 455.90055 460.89555 462.91154 466.43955 469.34297 471.35267 473.36866 476.87867 481.95829 487.01179 491.93028 496.28358 501.14179 504.32508 512.30538 514.32138 519.3856 524.3806">utslipp sammenlignet med andre animalske proteinkilder. I tillegg er bruk av landareal og energi til oppvarming </tspan><tspan y="-425.6514" x="70.8661 72.882099 77.768199 82.8055 87.9121 90.8011 93.0511 95.0671 99.838 104.1823 108.8875 111.899799 116.552799 118.775798 123.481899 128.5183 133.45929 135.7723 138.5668 143.6473 146.6713 148.95729 150.9733 155.8585 160.9039 165.93849 170.9902 175.7944 180.4006 185.1058 188.533 191.42201 193.67201 198.17922 200.32212 205.26581 208.42482 211.35793 216.41144 219.43544 224.52043 229.55413 234.59232 238.99242 243.54642 245.68932 250.7689 255.8638 258.0148 260.2558 268.0849 272.8099 277.8139 280.0639 284.7691 289.7101 292.02314 297.10633 301.3741 306.0793 311.1256 316.1926 320.8456 323.06864 328.06364 330.17503 335.25553 340.30723 345.13124 347.14723 349.41523 354.50923 359.16224 361.93873 366.99583 369.0118 373.58833 378.59593 380.6119 385.6762 390.81343 392.5324 394.7734 399.47953 402.5035 404.78953 409.14283 414.00105 417.02503 419.31105 424.16926 428.88166 433.23408 438.0923 442.57429 447.5153 449.69239 452.60929 457.6484 460.6724 462.9584 468.0263 472.7315 476.111 478.9055 483.986 487.00999 489.296 494.0021 498.9431 501.25614 506.32313 510.99504 513.01107 515.27816 520.02206 524.351">langt lavere enn for landbasert kj&#x00f8;ttproduksjon. Med en &#x00f8;kende global befolkning, er v&#x00e5;r akvakultur derfor en del av </tspan><tspan y="-414.8514" x="70.8661 72.959499 78.0013 82.6012 87.608798 89.624797 94.689098 99.7642 104.4703 109.5643 111.7153 113.9023 119.5768 121.5928 123.77979 128.27439 133.13259 138.07358 140.26058 145.38338 148.40738 153.49327 158.52606 163.46706 168.14527 172.85137 175.86367 180.51667 182.70366 187.73647 190.76047 195.70146 198.45008 203.12198 205.13799 210.07898 212.26598 214.28199 216.46898 221.21018 223.96419 229.04468 232.47188 235.36089 237.54788 241.91287 246.96997 248.98598 254.06017 262.03419 264.2212 272.2591 276.9841 281.9881 284.1751 288.85963 291.74864 293.93565 295.95164 300.73155 305.47816 308.36717 310.55418 315.08207 317.09178 319.14106 327.13127 331.95527 336.69828 341.4449 344.378 347.80879 352.31599 356.86549 361.4726">l&#x00f8;sningen. Vi kan produsere protein i stort volum med et lavt klimaavtrykk.</tspan></text>
<g id="Layer-1" data-name="Artifact">
<clipPath id="cp673">
<path transform="matrix(1,0,0,-1,0,841.89)" d="M 0 0 L 595.276 0 L 595.276 841.89 L 0 841.89 Z "/>
</clipPath>
<g clip-path="url(#cp673)">
<filter id="blend_3"><feBlend mode="overlay" in2="BackgroundImage" in="SourceGraphic"/></filter>
<g filter="url(#blend_3)">
<clipPath id="cp674">
<path transform="matrix(1,0,0,-1,0,841.89)" d="M 69.8661 378.928 L 525.409 378.928 L 525.409 381.428 L 69.8661 381.428 Z "/>
</clipPath>
<g clip-path="url(#cp674)">
<path transform="matrix(1,0,0,-1,70.8661,461.7117)" stroke-width=".5" stroke-linecap="butt" stroke-miterlimit="4" stroke-linejoin="miter" fill="none" stroke="#b9bbbd" d="M 0 0 L 453.543 0 "/>
</g>
</g>
</g>
<g id="Layer-1" data-name="Span">
</g>
<text fill="#00578c" xml:space="preserve" transform="matrix(1 0 -0 1 0 841.89)" font-size="15" font-family="Roboto"><tspan y="-334.2552" x="70.8661 79.25559 87.712589 95.46909 100.94109 109.46109 113.19609 122.83809 131.3626 139.8526 147.7426 151.6276 155.3626 163.2361 170.8411 174.5761 178.43109 186.35109 194.8411 202.73259 206.51259 214.2421 222.1891 230.67911 234.41411 239.56812 247.50762 255.48612 260.80665 269.31614 274.68464 279.57615 287.51716 293.17518 298.30519 302.04017 307.08918 312.2522 320.4122 324.1472 327.9827 336.4907 344.2577 352.3667 356.1452 363.9107 372.08573 384.9767 390.03623 398.56373 407.0867 415.58869 423.4622">202-2 Andel av ledelsen rekruttert fra lokalsamfunnet</tspan></text>
</g>
<g id="Layer-1" data-name="Span">
</g>
<g id="Layer-1" data-name="Span">
</g>
<g id="Layer-1" data-name="Span">
</g>
<g id="Layer-1" data-name="Span">
</g>
<text fill="#404041" xml:space="preserve" transform="matrix(1 0 -0 1 0 841.89)" font-size="9" font-family="Roboto"><tspan y="-309.733" x="70.8661 73.26009 75.79899 81.95499 84.97899 89.85519 92.80089 97.65909 102.69729 107.69229 109.70829 114.61149 119.01158 123.56558 126.09278 131.76097 137.19248 139.69087 144.71196 149.57016 152.59416 155.14026 159.60515 161.62116 164.14655 168.82476 171.71376 174.21846 178.83367 181.58318 186.28838 189.46268 194.18949 197.07849 199.58319 204.6655 209.64879 214.24869 218.5165 223.1695 225.64629 230.73488 238.70888 241.20908 246.03308 248.54589 251.52489 253.4545 258.49183 263.55345 268.20646 270.68327 275.54148 280.52479 285.15977 289.95497 293.11488 295.86439 300.5174 302.9942 305.0885 310.16813 314.63304 319.45704 321.56303 324.60325 326.32225 328.82426 333.49617 335.50495 337.58665 342.29185 345.31584 347.86195 352.72016 357.70347 362.30876 366.98698 370.14598 372.89549 377.5485 380.0262 382.81983 387.87785 389.89384 394.30384 396.84007 404.87525 409.59938 414.60337 417.10719 420.0106 422.01939 424.03538 428.61189 433.53489 438.29408 441.22718 446.23478 448.25077 453.31507 458.31007 460.82289 463.7263 465.736 467.75199 470.2774 476.4334 479.4574 484.3336 487.2793 492.1375 497.17573 502.25083 506.95695 512.05099 514.20199 516.69857 522.37307 524.38906">I Gratanglaks AS har vi et sterkt &#x00f8;nske om &#x00e5; finne ansatte lokalt, eller ansette folk med tilknytning til Gratangen. Vi </tspan><tspan y="-298.933" x="70.8661 75.210399 79.887699 82.776699 84.74769 89.84259 94.83759 99.49149 104.31549 106.29549 111.03938 115.368389 117.40238 122.10848 125.48798 128.33379 133.19199 136.3366 138.3526 143.4178 148.555 150.27399 152.23598 157.03119 159.9202 161.89119 166.7152 168.69519 173.55249 178.53578 183.14199 187.81929 190.9792 193.72872 198.38172 200.32572 203.12023 208.17733 210.19333 214.60334 216.60224 224.63654 229.36154 234.36554 236.33654 239.23995 241.24875 243.26476 247.84127 252.76425 257.52345 260.45567 265.46418 267.48017 272.54539 277.54039 279.5204 282.4094 284.42539 286.44139 288.4304 294.5864 297.61039 302.48658 305.43229 310.2905 315.3287 320.4038 325.10993 330.05094 332.08494 337.16725 341.43504 346.14115 349.16514 351.17216 355.72615 357.82856 362.68678 367.67008 372.27537 376.98149 381.9225 383.95649 386.75099 391.8306 394.85459 396.8616 401.6568 404.5458 406.5168 411.5838 416.23683 418.18083 423.21183 425.2206 427.2366 430.2606 432.2946 437.38499 442.50059 447.20579 452.25209 457.31907 461.97209 463.91609 468.9831 473.6883 476.71229 478.7193 483.8133 488.5194 491.7027 499.692 504.5502 509.61183 514.31796 519.2832 522.273 524.424">vet ogs&#x00e5; av erfaring, at &#x00e5; ansette folk med tilknytning til Gratangen &#x00f8;ker sjansen for at de blir boende her permanent. </tspan><tspan y="-288.13304" x="70.8661 76.3003 81.3898 89.3953 94.4893 99.1675 102.114109 106.972309 111.954708 116.560909 121.213909 123.8905 128.91249 133.77069 136.7947 139.53969 141.5557 144.28269 148.63509 153.49329 156.51729 159.26229 164.25908 172.17638 175.32099 177.33699 182.40129 187.39629 190.10979 195.1399 197.1496 199.2547 202.41461 205.30362 208.01262 212.62783 215.57444 220.39844 225.42134 227.47515 232.47014 235.18454 239.64943 241.66544 246.41834 249.32175 251.37555 256.45155 261.15675 264.16905 268.83195 270.55094 273.25096 278.34587 283.34086 286.05348 290.53547 295.5746 300.611 305.5934 310.1933 314.6582 319.51643 324.6113 329.3165 334.2575 337.02503 341.6348 346.72343 354.69743 357.39744 361.86235 363.87834 366.60536 371.62648 376.48469 379.50868 382.2537 387.34858 392.05378 397.13249 402.08158 406.41059 409.1826 411.9762 417.0567 420.0807 422.8257 427.29063 432.14884 437.08985 439.85737 441.87336 444.60038 449.64039 454.47789 459.47288 462.1855 467.23808 471.98197 476.44599 478.46199 481.66328 485.93107 490.58409 493.2616 498.172 502.5163 507.2305 515.2045 517.90457 522.3685 524.3845">Kompetanse har i v&#x00e5;r n&#x00e6;ring blitt stadig viktigere, og kunnskapen som vi har behov for kan i dag p&#x00e5;virke hvem vi </tspan><tspan y="-277.33305" x="70.8661 73.878398 78.60339 83.134899 86.3182 91.4203 94.5802 97.3297 102.054698 105.048999 109.773998 112.8277 115.0147 117.9181 119.926898 121.970798 124.1578 129.2518 133.9768 139.01142 142.1074 144.21071 147.4156 150.1642 154.8892 159.96521">rekrutterer til bedriften.</tspan></text>
<path transform="matrix(1,0,0,-1,70.8661,601.8773)" stroke-width="1" stroke-linecap="butt" stroke-miterlimit="10" stroke-linejoin="miter" fill="none" stroke="#231f20" d="M 0 0 L 170.079 0 "/>
<path transform="matrix(1,0,0,-1,240.9449,601.8773)" stroke-width="1" stroke-linecap="butt" stroke-miterlimit="10" stroke-linejoin="miter" fill="none" stroke="#231f20" d="M 0 0 L 70.866 0 "/>
<path transform="matrix(1,0,0,-1,311.811,601.8773)" stroke-width="1" stroke-linecap="butt" stroke-miterlimit="10" stroke-linejoin="miter" fill="none" stroke="#231f20" d="M 0 0 L 70.866 0 "/>
<path transform="matrix(1,0,0,-1,382.6772,601.8773)" stroke-width="1" stroke-linecap="butt" stroke-miterlimit="10" stroke-linejoin="miter" fill="none" stroke="#231f20" d="M 0 0 L 70.866 0 "/>
<path transform="matrix(1,0,0,-1,453.5433,601.8773)" stroke-width="1" stroke-linecap="butt" stroke-miterlimit="10" stroke-linejoin="miter" fill="none" stroke="#231f20" d="M 0 0 L 70.866 0 "/>
<g id="Layer-1" data-name="Span">
</g>
<g id="Layer-1" data-name="Span">
<text fill="#231f20" xml:space="preserve" transform="matrix(1 0 -0 1 0 841.89)" font-size="9" font-family="Roboto"><tspan y="-246.4118" x="74.8661 80.9519 85.982898 90.689899 95.69029 98.95459 101.86429">Ansatte</tspan></text>
</g>
<g id="Layer-1" data-name="Span">
</g>
<g id="Layer-1" data-name="Span">
</g>
<g id="Layer-1" data-name="Span">
</g>
<g id="Layer-1" data-name="Span">
<text fill="#00578c" xml:space="preserve" transform="matrix(1 0 -0 1 0 841.89)" font-size="12" font-family="Roboto" font-weight="bold"><tspan y="-245.2868" x="281.5344 288.324 294.79084 300.92646 352.3704 359.15998 365.62678 371.79716 423.2904 430.08 436.54679 442.66679 493.04643 499.8384 506.74803 513.54006">2017201820192020</tspan></text>
</g>
<g id="Layer-1" data-name="Span">
</g>
<g id="Layer-1" data-name="Span">
</g>
<g id="Layer-1" data-name="Span">
</g>
<g id="Layer-1" data-name="Span">
</g>
<g id="Layer-1" data-name="Span">
</g>
<g id="Layer-1" data-name="Span">
</g>
<g id="Layer-1" data-name="Span">
</g>
<g id="Layer-1" data-name="Span">
</g>
<g id="Layer-1" data-name="Span">
</g>
<g id="Layer-1" data-name="Span">
</g>
<g id="Layer-1" data-name="Span">
</g>
<g id="Layer-1" data-name="Span">
</g>
<g id="Layer-1" data-name="Span">
</g>
<g id="Layer-1" data-name="Span">
</g>
<g id="Layer-1" data-name="Span">
</g>
<g id="Layer-1" data-name="Span">
</g>
<g id="Layer-1" data-name="Span">
</g>
<g id="Layer-1" data-name="Span">
</g>
<g id="Layer-1" data-name="Span">
</g>
<g id="Layer-1" data-name="Span">
</g>
<g id="Layer-1" data-name="Span">
</g>
<g id="Layer-1" data-name="Span">
</g>
<g id="Layer-1" data-name="Span">
</g>
<g id="Layer-1" data-name="Span">
</g>
<g id="Layer-1" data-name="Span">
<text fill="#231f20" xml:space="preserve" transform="matrix(1 0 -0 1 0 841.89)" font-size="9" font-family="Roboto"><tspan y="-224.2588" x="79.3701 84.059108 88.99921 91.94581 96.769809 98.87491 101.76391 103.950908 105.9669 108.1539 113.0382 118.080898 126.14759 298.32209 369.18809 440.05409 510.92008">Totalt i adm.7778</tspan><tspan y="-200.49881" x="79.370059 84.05906 88.99916 91.94576 96.76976 98.87486 101.76386 103.95086 105.96686 108.153858 113.038158 118.08085 126.147548 128.29854 130.48554 133.49784 138.20304 142.75344 145.93674 151.03884 154.19875 156.94736 161.65346 165.08066 167.96967 170.15666 172.25907 177.33866 181.80446 186.62847 188.73447 298.32206 369.18806 440.05406 510.92005">Totalt i adm. rekruttert lokalt7778</tspan><tspan y="-176.73882" x="79.370029 84.05903 88.99913 91.94573 96.76973 98.87483 101.76383 103.95083 108.672229 113.13623 115.15223 120.21563 125.27813 129.98334 133.00734 135.19434 137.21035 139.39734 144.32215 149.36484 157.43244 298.32203 369.18803 440.05403 510.92">Totalt kvinner i adm.5555</tspan><tspan y="-129.21881" x="79.369998 85.0544 90.0998 95.1677 99.8387 101.8547 104.041698 108.81439 113.143398 115.33039 120.25249 125.29608 133.36278 135.51378 137.70078 140.71308 145.41828 149.96778 153.15108 158.25408 161.41309 164.1626 168.8687 172.2959 175.1849 177.3719 179.4743 184.5539 189.0188 193.8428 195.9488 269.621 274.1498 279.3788 284.4161 286.25843 291.48744 296.64533 340.487 345.0158 350.2448 355.2821 357.12443 362.35343 367.51133 411.353 415.8818 421.1108 426.1481 427.99043 433.21943 438.37733 482.219 486.7478 491.9768 497.0141 498.8564 504.08543 509.24333">Andel av adm. rekruttert lokalt100,00%100,00%100,00%100,00%</tspan><tspan y="-105.45881" x="79.369998 85.0544 90.0998 95.1677 99.8387 101.8547 104.041698 108.78289 113.247798 115.263797 120.328098 125.389698 130.0958 133.1198 135.3068 137.3228 139.5098 144.4346 149.4773 157.54399 274.84999 279.88008 284.36207 286.23228 291.53596 296.65065 345.71598 350.74607 355.22807 357.09828 362.40196 367.51664 416.58198 421.61207 426.09407 427.96427 433.26795 438.38264 487.02497 491.94798 497.10499 498.9248 504.09983 509.25685">Andel kvinner i adm.71,43%71,43%71,43%62,50%</tspan></text>
</g>
<g id="Layer-1" data-name="Span">
</g>
<text fill="#404041" xml:space="preserve" transform="matrix(1 0 -0 1 0 841.89)" font-size="8" font-family="Roboto" font-weight="bold"><tspan y="-44.7402" x="70.8661 75.6693">68</tspan></text>
<text fill="#404041" xml:space="preserve" transform="matrix(1 0 -0 1 0 841.89)" font-size="7" font-family="Roboto"><tspan y="-29.016" x="70.8661 75.83119 80.21879 85.17199 90.271488 95.22538 101.436489 103.53298 107.99198 112.69528 116.57118 118.314189 120.45478 125.54378 130.34508 132.48567 137.37728 141.55628 145.78148 150.73468 155.34069 159.36919">&#x00d8;KONOMISKE INDIKATORER</tspan></text>
<g id="Layer-1" data-name="Artifact">
<clipPath id="cp675">
<path transform="matrix(1,0,0,-1,0,841.89)" d="M 0 0 L 595.276 0 L 595.276 841.89 L 0 841.89 Z "/>
</clipPath>
<g clip-path="url(#cp675)">
<path transform="matrix(1,0,0,-1,1119.685,802.3869)" stroke-width=".5" stroke-linecap="butt" stroke-miterlimit="4" stroke-linejoin="miter" fill="none" stroke="#404041" d="M 0 0 L -1048.819 0 "/>
</g>
<g id="Layer-1" data-name="Span">
</g>
<text fill="#404041" xml:space="preserve" transform="matrix(1 0 -0 1 0 841.89)" font-size="5" font-family="Roboto" font-weight="bold"><tspan y="-805.9686" x="70.8661 74.1961 77.381099 80.3461 82.9486 86.1286 89.6586 92.9886 95.8126 98.9926 102.1776 105.26759 106.512599 109.6926">GRATANGLAKS AS</tspan></text>
</g>
<g id="Layer-1" data-name="Span">
</g>
<g id="Layer-1" data-name="Span">
<text fill="#595959" xml:space="preserve" transform="matrix(1 0 -0 1 0 841.89)" font-size="5" font-family="Roboto"><tspan y="-805.9686" x="119.143 122.428 127.273 130.52301 133.533 136.838 140.088 143.51799 146.50099 149.616 152.75099 156.00099 159.43099 162.75598 166.08098 169.69098 172.74448">B&#x00c6;REKRAFTSRAPPORT</tspan></text>
</g>
<text fill="#404041" xml:space="preserve" transform="matrix(1 0 -0 1 0 841.89)" font-size="5" font-family="Roboto" font-weight="bold"><tspan y="-805.9686" x="179.688 182.558 185.428 188.29799">2020</tspan></text>
<g id="Layer-1" data-name="Artifact">
<clipPath id="cp676">
<path transform="matrix(1,0,0,-1,0,841.89)" d="M 0 0 L 595.276 0 L 595.276 841.89 L 0 841.89 Z "/>
</clipPath>
<g clip-path="url(#cp676)">
<path transform="matrix(1,0,0,-1,70.8661,39.3869)" stroke-width=".5" stroke-linecap="butt" stroke-miterlimit="4" stroke-linejoin="miter" fill="none" stroke="#404041" d="M 0 0 L 1048.819 0 "/>
</g>
</g>
</g>
</g>
</svg>
