<?xml version="1.0" encoding="UTF-8" standalone="no"?>
<!DOCTYPE svg PUBLIC "-//W3C//DTD SVG 1.1//EN" "http://www.w3.org/Graphics/SVG/1.1/DTD/svg11.dtd">
<svg xmlns="http://www.w3.org/2000/svg" xmlns:xlink="http://www.w3.org/1999/xlink" version="1.1" width="595.276pt" height="841.89pt" viewBox="0 0 595.276 841.89">
<g enable-background="new">
<g>
<g id="Layer-1" data-name="Artifact">
<clipPath id="cp723">
<path transform="matrix(1,0,0,-1,0,841.89)" d="M 0 0 L 595.276 0 L 595.276 841.89 L 0 841.89 Z "/>
</clipPath>
<g clip-path="url(#cp723)">
<g opacity=".149994">
<clipPath id="cp724">
<path transform="matrix(1,0,0,-1,0,841.89)" d="M 62.7795 739.947 L 532.496 739.947 L 532.496 772.024 L 62.7795 772.024 Z "/>
</clipPath>
<g clip-path="url(#cp724)">
<path transform="matrix(1,0,0,-1,0,841.89)" d="M 63.78 740.947 L 531.496 740.947 L 531.496 771.02407 L 63.78 771.02407 Z " fill="#f1bc20"/>
</g>
</g>
</g>
<g id="Layer-1" data-name="Span">
</g>
<text fill="#f1bc20" xml:space="preserve" transform="matrix(1 0 -0 1 0 841.89)" font-size="10" font-family="Roboto"><tspan y="-752.2842" x="72 78.15 85 91.15 94.104 100.453998 105.974 111.514 114.004 116.883998 123.934 130.634 133.514 139.884 145.779 151.51201 158.36202 164.72202 170.26201">SOSIALE INDIKATORER</tspan></text>
</g>
<g id="Layer-1" data-name="Span">
</g>
<text fill="#f1bc20" xml:space="preserve" transform="matrix(1 0 -0 1 0 841.89)" font-size="15" font-family="Roboto"><tspan y="-514.7674" x="70.8661 79.55859 88.0306 96.3451 101.8171 110.3371 114.0721 121.999599 130.17459 135.32259 143.21408 147.09008 155.58008 163.52709 171.93909 176.9641 180.9361 185.30133 189.6451 197.3746 205.3141 210.5596 214.4146 222.89261 231.51912 234.90912 238.64412 243.88362 247.66362 255.38863 259.2361 266.7661 274.9591 282.60914 291.1306 296.29963 304.7896 312.73063 317.97465 321.82966 330.30766 338.79765 342.53263 351.0226 359.5126 363.2476 371.73008 379.67707 388.20155 396.69154 404.58155 408.36155 416.09104 423.90003 431.62953 439.50303 444.87153 449.76304 457.70405 463.32606 468.22657 476.73457 481.95759 489.75007 497.73756 506.19456 510.04957 518.5275">403-2 Fareidentifisering, risikovurdering og hendelsesetterforskning</tspan></text>
<g id="Layer-1" data-name="Artifact">
<clipPath id="cp725">
<path transform="matrix(1,0,0,-1,0,841.89)" d="M 0 0 L 595.276 0 L 595.276 841.89 L 0 841.89 Z "/>
</clipPath>
<g clip-path="url(#cp725)">
<filter id="blend_3"><feBlend mode="overlay" in2="BackgroundImage" in="SourceGraphic"/></filter>
<g filter="url(#blend_3)">
<clipPath id="cp726">
<path transform="matrix(1,0,0,-1,0,841.89)" d="M 69.8661 559.44 L 525.409 559.44 L 525.409 561.94 L 69.8661 561.94 Z "/>
</clipPath>
<g clip-path="url(#cp726)">
<path transform="matrix(1,0,0,-1,70.8661,281.1996)" stroke-width=".5" stroke-linecap="butt" stroke-miterlimit="4" stroke-linejoin="miter" fill="none" stroke="#b9bbbd" d="M 0 0 L 453.543 0 "/>
</g>
</g>
</g>
<g id="Layer-1" data-name="Artifact">
<g filter="url(#blend_3)">
<clipPath id="cp727">
<path transform="matrix(1,0,0,-1,0,841.89)" d="M 69.8661 324.706 L 525.409 324.706 L 525.409 327.206 L 69.8661 327.206 Z "/>
</clipPath>
<g clip-path="url(#cp727)">
<path transform="matrix(1,0,0,-1,70.8661,515.9336)" stroke-width=".5" stroke-linecap="butt" stroke-miterlimit="4" stroke-linejoin="miter" fill="none" stroke="#b9bbbd" d="M 0 0 L 453.543 0 "/>
</g>
</g>
</g>
<g id="Layer-1" data-name="Span">
</g>
<text fill="#404041" xml:space="preserve" transform="matrix(1 0 -0 1 0 841.89)" font-size="9" font-family="Roboto"><tspan y="-490.0174" x="70.8661 76.5415 78.557498 82.10349 86.80959 89.833599 93.39759 98.00739 103.09599 111.06999 114.58899 119.44719 122.62149 127.71639 132.3874 134.45111 139.45511 144.02712 149.02211 151.13262 155.47602 160.18212 163.20612 166.77011 169.56462 174.64421 177.81851 182.8495 184.8583 186.87432 191.62722 194.37583 199.05403 201.94304 205.47104 210.70543 212.83663 217.54183 222.57822 227.6542 232.7428 240.7168 244.2358 246.2518 251.2441 253.9936 258.6997 261.874 266.9104 271.1827 276.26234 281.22856 284.16166 287.18565 292.24275 294.25245 296.30986 299.10435 304.18397 307.29167 311.89067 316.44017 319.58564 321.64305 324.84794 327.59745 332.30265 337.24366 340.83467 343.72367 345.73966 347.75566 351.30168 356.12568 359.6627 364.21669 368.49168 373.25895 376.00846 380.72358 388.71287 393.50807 396.41148 398.42118 403.02107 407.43107 410.95909 415.8173 418.99159 424.08647 428.75749 430.82118 435.88816 440.54118 444.0413 452.07649 456.8006 461.8046 465.3326 470.39964 475.07066 477.08125 481.6874 486.34944 488.06843 491.58744 499.56773 501.57743 503.6015 505.7453 510.7583 514.2773 519.3713 524.3663">Vi er som arbeidsgiver forpliktet gjennom internkontrollforskriften til &#x00e5; systematisk arbeide med helse, milj&#x00f8; og </tspan></text>
</g>
<g id="Layer-1" data-name="Span">
</g>
<g id="Layer-1" data-name="Span">
</g>
<g id="Layer-1" data-name="Span">
</g>
<g id="Layer-1" data-name="Span">
</g>
<g id="Layer-1" data-name="Span">
</g>
<g id="Layer-1" data-name="Span">
</g>
<g id="Layer-1" data-name="Span">
</g>
<g id="Layer-1" data-name="Span">
</g>
<g id="Layer-1" data-name="Span">
</g>
<g id="Layer-1" data-name="Span">
</g>
<g id="Layer-1" data-name="Span">
</g>
<g id="Layer-1" data-name="Span">
<text fill="#404041" xml:space="preserve" transform="matrix(1 0 -0 1 0 841.89)" font-size="9" font-family="Roboto"><tspan y="-479.2174" x="70.8661 75.4318 77.4478 82.0243 86.293 90.9982 94.1725 99.2386 103.9168 106.9066 109.0576 111.0133 117.166599 121.844799 125.00379 127.75329 132.4063 134.344 139.2022 142.3765 147.47049 152.1424 154.2052 159.2731 163.95041 166.83942 168.80501 171.59952 176.67911 179.6914 184.40831 189.4555 194.3137 197.3377 199.34471 201.36072 203.34972 207.98561 212.85102 220.84122 225.69942 228.87372 233.96772 238.63962 240.70243 245.70642 247.67111 255.70542 260.42955 265.43354 267.39826 272.46617 277.11918 279.0569 283.9151 288.89753 293.53343 298.3286 301.48854 304.23805 308.85777 311.00877 312.96537 318.64079 320.65678 322.64579 327.6678 332.526 335.55 337.557 342.50523 346.84953 351.55473 354.6615 359.22718 361.24317 365.99607 368.88508 370.85069 375.7989 380.1432 384.8484 387.87239 389.8794 391.9737 396.9219 401.2662 405.9714 408.9954 411.0024 416.09733 421.09233 423.06513 425.85963 430.94013 434.0469 438.6459 443.19633 446.3409 448.39833 451.6032 454.35273 459.05793 462.0819 464.08894 468.6987 473.7882 481.7622 483.7242 488.4294 491.4534 493.46043 498.31864 503.04454 505.96055 511.03297 515.704 517.7137 519.7945 524.4475">sikkerhet. Dette arbeidet foreg&#x00e5;r i samarbeid med de ansatte. Vi har oversikt over lover og forskrifter som er aktuelle </tspan><tspan y="-468.41743" x="70.8661 73.6606 78.7402 81.7642 84.158199 89.2522 93.977199 99.010898 102.155498 104.21379 107.41869 110.16819 114.87339 119.81439 122.23089 126.58419 131.44239 134.06769 136.21869 138.56769 144.24309 146.2591 148.63509 153.65618 158.51438 161.53838 163.93238 168.39728 173.25548 176.68268 179.58609 181.6021 186.4666 191.5732 194.4622 196.8202 199.66512 204.52332 207.53562 212.24172 214.89221 216.6112 218.9602 224.0542 229.0492 231.4117 236.64699 238.78989 243.86948 247.29758 250.18659 252.54549 255.6901 257.6998 262.26548 264.28147 268.58079 273.529 278.0317 283.06904 286.09303 291.16093 295.86613 299.0107 301.0267 306.091 311.167 315.8722 318.49748 320.64848 322.99748 328.67198 330.68797 333.06398 338.08598 342.94419 345.96818 348.36219 353.4643 356.4109 361.2691 364.4434 369.53739 374.2093 376.2721 381.34 386.0173 388.9063 391.2643 395.9695 400.91053 403.32704 408.34904 413.20726 418.25267 423.25666 425.26637 427.28236 432.34757 437.34257 441.96046 446.99055 449.00654 453.89173 459.01274 460.73173 463.08073 468.1747 473.1697 475.53224 480.142 485.2252 488.2375 493.3126 498.0178 501.04179 503.4358 506.2303 511.3108 514.3348 516.72879 521.5239 524.4129">for bedriften v&#x00e5;r. Vi har kartlagt farer, og gjort risikovurderinger. Vi har utarbeidet en handlingsplan, og s&#x00f8;rger for at </tspan><tspan y="-457.61744" x="70.8661 73.76949 75.77829 77.884288 80.83089 85.68819 89.956897 94.662097 99.723697 104.37669 107.13069 109.14669 111.94569 116.975788 118.99178 123.87608 128.93859 133.64379 138.58478 141.42877 146.45977 148.46857 150.48458 153.50858 156.35257 161.58786 163.71816 168.42336 173.46065 178.53574 183.62523 191.49573 194.29024 199.37255 202.79975 205.78955 207.94055 210.71256 213.10655 215.92356 218.82697 220.83577 222.84548 224.92629 229.64229 234.69219 239.68718 242.47718 245.38059 247.38939 249.4054 252.20439 257.2714 261.9775 266.91853 269.76255 274.80165 279.63914 284.63414 286.66093 288.7156 293.7907 298.44374 301.19773 306.27735 311.33085 316.23493 319.02943 324.08924 326.14393 331.13893 333.1549 338.2372 343.3132 348.0184 352.9594 355.80345 360.54734 364.87635 367.72038 374.0879 381.908 387.39619 391.19239 396.0506 399.22489 404.31889 408.99079 411.0536 416.1215 420.7988 423.8399 425.5589 428.3309 433.37809 438.2363 441.26029 444.0773 448.54133 450.5573 453.35633 458.26673 462.61103 467.31715 470.74433 473.63334 476.41435 481.27256 484.29655 487.11357 489.16825 494.40266 496.53385 501.23905 506.27638 511.35148 516.44009 524.41409">tiltakene i planen blir gjennomf&#x00f8;rt. I tillegg til den daglige oppf&#x00f8;lgingen av HMS-arbeidet, g&#x00e5;r vi hvert &#x00e5;r igjennom </tspan><tspan y="-446.81745" x="70.8661 75.2194 80.0776 83.5048 86.3938 88.6438 95.0158 102.83501 108.32321 112.12301 116.67701 120.95201 125.719318 128.46883 133.18303 141.25063 143.40163 145.64263 148.03662 150.32262 155.38962 160.09572 165.13211 170.19371 174.84671 177.0697 182.1223 185.1463 190.1863 194.7925 199.4455 204.0562 208.6615 213.3676 218.3086 220.6216 225.1234 230.16159 233.1856 238.2535 242.9587 245.9719 250.6771 253.7011 255.9952 260.46009 262.47608 264.74949 269.8381 277.8121 280.06123 286.42875 294.24797 299.73616 303.60075 308.63084 310.64683 315.532 320.5945 325.2997 330.24073 332.55375 335.51475 340.55296 345.59117 350.66627 355.37147 358.38377 363.08988 366.11387 368.40797 370.42396 372.69828 377.75086 380.77485 385.67805 390.07817 394.64384 396.65354 401.3344 403.0534 405.3034 409.7683 411.7843 414.0577 418.56044 423.59864 426.62263 431.69053 436.39573 439.40803 444.11415 447.13813 449.43223 454.52085 462.49485 464.74397 469.81095 474.48918 477.37818 479.62818 484.3343 487.35829 489.6515 494.7266 499.8431 504.49613 506.71916 511.32893 516.4175 524.3915">v&#x00e5;rt HMS-system. I denne prosessen vurderer vi om HMS-planen fungerer i praksis, vi vurderer om det er noe som </tspan><tspan y="-436.01747" x="70.8661 75.972698 81.05589 84.079898 86.26689 91.02159 96.06699 101.10159 104.11389 108.76689 113.44779 115.166797 117.35379 122.45319 127.4482 129.6352 134.68239 136.6984 141.5836 146.5921 148.67292 153.38982 158.43881 163.5139 168.22 171.244 173.431 178.5745 183.56949 185.75649 190.82529 193.9699 196.0642 201.14379 204.28839 206.3944 209.1439 213.8491 216.8614 221.5675 224.5915 226.7785 231.4711 235.8154 240.5206 245.4859 248.4028 253.47519 258.1462 260.2522 263.1412 265.32823 270.26023 274.62074 279.27375 281.46076 284.34977 286.34956 288.45555 291.40214 296.26036 300.86747">b&#x00f8;r endres, og planlegger og prioriterer eventuelt nye tiltak.</tspan><tspan y="-414.41746" x="70.8661 73.26009 74.73069 80.88669 83.91069 88.78689 91.73349 96.59169 101.62899 106.62399 108.63999 113.54319 117.94328 122.497287 123.955287 128.66049 131.6845 133.16049 138.2275 142.9048 145.79381 147.23381 149.24982 154.11432 159.22092 162.10993 163.54993 168.62952 173.68302 178.669 180.1225 183.02591 185.03562 187.05162 188.50962 192.85391 197.55912 200.73342 205.79592 210.50112 213.68442 218.72351 223.7689 228.8368 233.542 236.1925 237.9115 239.3425 244.4374 249.43239 250.87689 252.8929 254.35089 257.2399 259.2559 261.26469 263.34638 268.06239 273.11228 278.10728 279.5518 284.6314 289.6885 291.7522 296.81919 301.52439 304.54838 306.02439 310.4884 312.5044 313.9624 316.7569 321.83653 325.2637 328.1671 330.2605 335.3437 340.43769 345.1438 350.1892 355.2562 359.9092 361.32225 365.59455 370.67417 375.64039 378.58699 383.4452 388.17109 391.0601 392.5001 400.5344 405.2585 410.2625 411.7025 416.04594 420.75205 423.92634 428.98796 433.75617 438.8448 446.85029 451.88758 456.9402 462.02699 464.17799 465.60899 470.87849 475.5846 478.75889 483.8205 488.5887 493.67735 501.68284 506.72013 511.77275 516.84066 521.51797 524.4069">I Gratanglaks er det lagt opp til vernerunder, og i tillegg holder vi fortl&#x00f8;pende kontakt med verneombud. Verneombudet </tspan><tspan y="-403.61747" x="70.8661 75.8872 80.7454 83.7694 85.3786 90.0559 92.9449 94.510898 99.110797 104.204799 108.857799 113.4235 115.504299 120.17619 122.281299 125.170299 126.73629 131.35149 134.1055 139.18509 142.61229 145.5013 147.06729 151.92549 156.90879 161.47539 165.82869 170.68689 173.71089 175.31919 178.1137 183.19419 186.21819 187.82648 192.65048 194.22548 197.01999 202.07979 204.13449 209.20958 213.86258 215.40068 220.48027 225.53379 230.51978 232.10378 236.66858 238.68459 243.2611 247.5289 252.235 255.4093 260.4754 265.15364 268.04264 269.60865 274.66123 279.48524 281.06025 285.91847 289.09275 294.18763 298.85865 300.92234 305.92634 310.5262 315.5563 317.5723 322.4035 327.01329 331.61946 336.32557 341.4196 343.5706 345.1276 350.3971 355.12123 360.15583 364.42814 369.51676 377.53126 385.56556 390.27076 395.31706 400.38404 405.03706 406.57606 411.17594 415.64085 420.46485 422.48085 424.06486 429.30015 431.43046 436.13658 441.17298 446.24809 451.3376 459.2081 462.0026 467.0849 470.0972 474.7502 476.2892 480.6335 485.3387 488.513 493.5755 498.2807 501.464 506.5031 511.54853 516.61557 521.32168 524.34567">har et spesielt stort ansvar for &#x00e5; f&#x00f8;lge opp sikkerhet p&#x00e5; arbeidsplassen. Vedkommende skal gjennomf&#x00f8;re vernerunder </tspan><tspan y="-392.81748" x="70.8661 75.7765 80.1334 85.213 88.237 90.406 95.4739 100.1269 102.232898 104.24889 109.11339 114.18849 118.89459 121.918598 124.08759 127.111598 132.01479 137.0674 142.1569 147.2374 150.6646 153.41411 158.11931 161.14331 163.3123 167.9221 173.0107 180.9847 183.10869 187.8535 192.1825 197.2504 201.9556 206.5051 210.7729 215.479 218.503 220.672 225.3151 229.6594 234.3646 239.3308 242.2468 247.31919 251.99019 253.9999 256.0807 260.7337 262.83973 270.829 275.68724 280.72456 285.71955 287.81834 292.52445 295.14973 297.30073 299.42475 304.69425 309.41926 314.42326 316.55628 324.54557 329.40379 334.442 339.43699 341.53669 346.24189 348.89237 350.61137 352.73539 357.33528 361.80018 366.62419 368.64018 370.79118 372.88548 377.9651 382.43 387.254 389.2637 391.3688 394.11833 398.79655 401.68556 406.25123 408.33293 413.05705 418.12495 422.83015 425.84245 430.54856 435.48957 437.68559 440.48008 445.5399 447.59458 452.66969 457.3227 459.4278 464.50923 469.5618 474.5478 476.6988 481.7937 486.7887 488.9298 493.53959 498.6219 501.6342 506.71018 511.3632 513.4692 516.2637 521.3442 524.36819">hvor de lager rapporter som avdekker eventuelle mangler. Ved mangler, skal lokalitetslederen f&#x00f8;lge opp og s&#x00f8;rge for </tspan><tspan y="-382.0175" x="70.8661 75.66129 78.55029 80.78949 85.53339 90.26739 94.73139 96.74739 101.0422 105.7474 110.8099 115.4629 117.673297 119.68929 124.75449 129.30399 133.5718 138.2248 142.9057 144.6247 146.86029 151.95429 156.94928 159.19658 163.99179 166.8808 169.12 173.76309 178.10739 182.81259 187.7788 190.6957 195.76718 200.43819 202.44789 204.4639 206.7238 214.7131 219.5713 224.6086 229.60359 231.7024 236.4085 241.45389 246.52179 251.17479 253.3852 258.4657 263.51829 268.5493 270.58329 278.5015 281.6461 283.66209 288.7273 293.7223 295.9687 300.9997 303.00849 305.02449 308.04847 310.35517 315.35017 317.47416 320.63407 323.623 325.774 328.0042 333.31694 338.05094 342.51496 344.53096 348.95805 353.56874 358.1227 362.3977 367.1659 369.9154 374.6296 382.6639 387.34214 390.23115 392.47035 394.48634 396.74626 401.74485 407.98545 413.31346 415.64897 420.70246 423.88575 428.92396 433.19175 437.84477 442.39875 444.66047 449.75447 454.74946 459.40245 464.22645 466.47377 469.36277 471.37876 473.39476 475.65467 480.47868 482.72508 485.74906 490.65226 495.70484 500.79524 505.87486 509.30204 512.0515 516.7567 519.769 524.422">at avvikene lukkes, og at eventuell manglende oppl&#x00e6;ring blir gitt. Avvikssystemet i EQS brukes ogs&#x00e5; til &#x00e5; rapportere </tspan><tspan y="-371.2175" x="70.8661 75.9277 80.580699 85.1959 87.944499 92.6506 97.5916 102.5326 104.7853 109.2925 113.842 118.1098 122.815 125.44121 127.59221 129.9727 135.6472 137.66321 140.07521 142.86972 147.93042 149.98423 155.05931 159.76541 162.78942 165.2194 170.2999 175.3525 180.3385 182.7451 187.6555 192.01239 197.09198 200.11598 205.15598 210.01418 214.95517 217.40587 222.40987 224.41957 229.03028 233.63648 238.28948 240.65108 245.11598 249.97418 254.91518 257.36677 260.16127 265.24089 268.41517 273.35618 275.37217 280.51658 285.55119 288.56349 293.2165 297.88117 300.03218 302.4127 307.6822 312.4063 317.4103 319.79893 321.8149 326.87834 331.88594 333.98023 339.07423 344.1241 349.1191 351.1351 356.2174 361.2124 363.61003 365.626 368.03804 372.592 376.867 381.6352 384.3847 389.0989 397.1341 401.8114 404.8525 406.5715 408.9565 411.8023 416.66053 419.6845 422.11454 426.57945 428.59544 431.00746 436.05467 444.03587 446.09867 451.14768 456.21559 460.8866 462.9026 467.9813 472.8395 476.2667 479.1557 481.5461 486.15229 490.8053 493.1669 498.2339 502.94 507.881 510.3326 514.8974 516.908 521.52328 524.41226">nestenulykker. Vi f&#x00f8;lger opp hvordan disse kan forhindres. Ved innlogging i systemet, f&#x00e5;r vi umiddelbart se den sist </tspan><tspan y="-360.4175" x="70.8661 75.9682 79.0813 81.8758 86.9581 90.3853 93.134799 97.787799 99.97479 103.099597 105.11019 109.675899 111.691898 115.991199 120.9403 125.4421 130.4812 133.5052 138.5722 143.2783 146.42292 148.43892 153.50412 158.57921 163.28531 168.4063 170.12529 172.31229 177.41168 182.40668 184.59368 189.31598 194.25698 196.44397 199.65877 201.66847 206.23418 208.25019 212.54949 217.58948 222.19118 226.90717 231.98766 234.99996 239.65296 241.83995 246.87186 251.69586 256.78178 261.43479 263.6218 266.39649 271.4761 274.5001 276.6871 278.83 283.9105 288.3754 293.1994 295.2082 297.31419 300.0637 304.741 307.63 309.81703 314.92 319.915 322.10203 327.1978 330.2101 335.2582 340.11643 345.12403 347.1346 351.7705 356.5747 361.1242 363.268 368.34764 373.44166">utf&#x00f8;rte risikovurderingen, og en risikoscore b&#x00e5;de for lokalitet og organisasjon.</tspan></text>
</g>
<g id="Layer-1" data-name="Span">
<text fill="#f1bc20" xml:space="preserve" transform="matrix(1 0 -0 1 0 841.89)" font-size="15" font-family="Roboto"><tspan y="-695.2736" x="71.0806 79.7731 88.24511 96.55961 101.64611 110.16611 113.90111 124.4551 132.3451 136.12509 143.8546 151.8226 155.2126 158.9476 171.9376 175.7206 179.5051 183.41559 191.9206 195.6556 204.1456 212.6356 216.3706 224.10161 227.9491 235.9276 243.4576 251.3971 256.7101 265.1866 273.05863 278.18864 281.9236 289.7476 295.1746 302.8411 308.0866 311.94013 320.41813 328.8781 336.6286 344.2876 351.7051 359.5231 364.4161 372.35713">403-1 Helse, milj&#x00f8; og sikkerhet styringssystem</tspan></text>
</g>
<g id="Layer-1" data-name="Span">
</g>
<g id="Layer-1" data-name="Span">
</g>
<g id="Layer-1" data-name="Span">
</g>
<g id="Layer-1" data-name="Span">
</g>
<g id="Layer-1" data-name="Span">
</g>
<g id="Layer-1" data-name="Span">
</g>
<g id="Layer-1" data-name="Span">
<text fill="#404041" xml:space="preserve" transform="matrix(1 0 -0 1 0 841.89)" font-size="9" font-family="Roboto"><tspan y="-670.7513" x="71.0806 73.474597 75.66159 81.81759 84.84159 89.71779 92.66439 97.52259 102.55989 107.55489 109.57089 114.47409 118.87419 123.42819 125.603488 130.30959 133.33359 135.52689 139.88019 144.73749 147.76149 149.95569 155.03438 159.99428 164.35567 169.00867 173.62297 176.37248 181.02548 183.14948 188.20207 191.34668 193.44098 198.52057 201.66518 203.77118 206.52069 211.198 214.087 216.238 221.30411 225.97602 227.98572 232.59192 237.25482 238.97382 241.12302 249.10332 251.11302 253.13713 255.28093 260.29396 262.43595 267.52995 272.52494 274.68495 279.2506 281.2666 285.8431 290.1109 294.81703 297.9913 303.05833 307.73564 310.62464 312.77565 315.57014 320.64976 323.67375 325.86796 330.22038 335.07859 338.09089 342.7439 344.867 349.72523 354.70765 359.34355 364.13874 367.29866 370.04725 374.66786 376.81886 378.96086 384.63627 386.65226 388.82127 393.52738 396.55137 398.74467 403.25187 405.38307 410.08827 415.05357 417.94258 420.09358 422.88807 427.96858 430.99256 433.18586 438.00987 440.16987 444.48899 452.4063 455.4186 460.07164 462.19566 466.90086 471.84187 474.05589 479.14448 484.23039 489.23439 491.38539 496.47938 501.47438 503.63438 506.5666 509.99739 514.3336 519.3826 524.3776">I Gratanglaks er v&#x00e5;r h&#x00f8;yeste prioritet helse, milj&#x00f8; og sikkerhet for v&#x00e5;re ansatte. Vi er kjent for &#x00e5; v&#x00e6;re en god og trygg </tspan><tspan y="-659.9513" x="71.0806 75.9388 79.1131 84.208 88.879 90.942699 95.94669 100.51869 105.513698 107.62419 111.96759 116.67369 119.298999 121.45 122.93589 129.10628 134.15889 139.1899 141.2239 149.1421 152.28672 154.30272 159.36792 164.36292 165.8659 167.88191 169.3984 174.2566 177.43091 182.5249 187.19681 189.25962 194.26361 198.86351 203.93051 208.60152 210.61212 215.21743 219.87042 221.33832 226.43231 231.4273 232.9312 237.4969 239.51291 244.08942 248.35723 253.06333 256.2376 261.3037 265.98194 268.87095 270.36585 274.96574 279.47294 281.60414 286.30934 289.3333 290.86964 295.9222 300.74623 305.83213 310.48515 311.95216 313.96815 315.48466 318.41777 321.44175 326.26576 331.26976 332.82676 340.86106 345.58607 350.59007 352.08409 354.17839 359.258 363.7229 368.5469 370.6286 375.28163 376.74864 378.84294 383.79115 388.13545 392.84065 395.86463 397.40095 402.49586 407.49085 408.99388 411.78837 416.86799 419.97477 424.57466 429.12416 432.26875 434.32704 437.53193 440.28144 444.98664 448.01063 449.54695 452.05345 456.91166 460.08595 465.18083 469.85185 471.91554 476.91954 481.5284 489.5087 491.5184 493.54249 495.6854 500.7461 502.83949 507.78858 512.13198 516.8381 521.53158 524.4656">arbeidsgiver. Oppl&#x00e6;ring i arbeidshelse og sikkerhet skjer b&#x00e5;de i tr&#x00e5;d med lokale lover og forskrifter (arbeidsmilj&#x00f8;loven) </tspan><tspan y="-649.1513" x="71.0806 76.1746 81.1696 83.5906 85.6066 88.03659 93.10269 97.80789 102.84519 107.9239 112.981899 115.04469 120.04869 122.460689 125.349689 127.365688 129.38169 131.81168 134.23537 139.79647 145.88947 148.25646 153.44046 158.61545 163.84804 168.65584 173.14145 176.94216 181.55736 184.50307 189.36127 194.40756 199.44666 204.30486 207.32886 212.39676 217.10196 222.19596 224.34696 226.74996 234.57906 239.30406 244.30806 246.72006 251.32987 256.41218 260.68089 265.3519 267.4615 271.73649 276.29048 278.85188 283.90357 288.72758 291.1486 296.0068 299.182 304.276 308.94703 311.0107 316.0147 320.6146 325.6816 330.35264 332.36235 336.9685 341.6314 343.3504 345.7597 348.5542 353.63383 356.64613 361.35224 366.2878 370.624 375.67298 380.74897 385.45417 388.47816 390.93156 395.39646 397.41246 399.84248 404.70069 407.87498 412.96897 417.64088 419.70368 424.70768 429.30668 432.31898 436.99089 439.00688 443.83088 446.58039 451.2865 454.71369 457.4632 462.1162 464.50123 469.0552 473.5885 477.8779 482.9584 488.04704 496.06153 504.09584 508.80104 511.825 514.2793 519.3733 524.3683">og i henhold til ISO 45001-standarden. Med s&#x00f8;kelys p&#x00e5; arbeidshelse, forebygger vi arbeidsrelaterte sykdommer og </tspan><tspan y="-638.3513" x="71.0806 75.6805 80.1454 84.9694 90.0544 94.7605 97.411 99.130008 101.317 106.416408 111.41141 113.598407 116.566608 119.5789 124.293109 132.3076 140.3419 145.0471 148.0711 150.2581 155.3746 160.04561 162.05622 166.66152 171.31452 173.50151 175.51752 177.70452 182.57262 185.74692 190.84091 195.51282 197.57563 202.57962 207.14443 209.15413 211.24575 215.59004 220.26735 223.25716">skader, og fremmer helse i arbeidslivet.</tspan><tspan y="-616.75137" x="71.0806 76.7353 78.744098 80.82579 85.47879 88.67289 93.53109 96.70539 101.79939 106.47129 108.53409 113.538089 118.137088 121.32129 126.42339 129.3268 131.3428 136.4323 141.1375 144.1615 147.4249 152.0347 157.12329 165.09729 168.31479 173.40879 178.11489 181.13889 186.22119 189.23349 193.93959 196.9636 200.22609 206.59809 214.41728 219.97928 221.69828 224.91757 229.51657 233.98238 238.80638 240.82239 244.06598 249.16808 252.28119 255.0757 260.158 263.1703 267.8233 272.3773 275.6218 280.2991 283.459 286.20854 290.91374 293.9377 297.2011 301.5544 306.41264 309.42494 314.07795 317.27207 322.32466 325.34864 330.38865 334.99394 339.71894 344.82106 349.32826 352.34056 357.04576 360.06974 363.33314 368.42713 373.42213 376.65315 381.74714 386.40016 391.00004 395.54954 398.69413 400.78663 405.13005 409.80195 411.81166 416.41783 421.12394 424.14793 427.41044 429.42643 432.66914 437.38246 441.73487 446.55888 448.56858 450.67369 453.4232 458.1005 460.9895 465.6002 470.15419 474.42918 479.19737 481.94688 486.66108 494.69627 499.37358 502.26258 505.4846 510.4841 516.7247 522.2588 524.4098">Alle arbeidsrutiner som ber&#x00f8;rer HMS, skal utf&#x00f8;res etter v&#x00e5;re prosedyrer og beskrivelser i kvalitetssystemet EQS. </tspan><tspan y="-605.95138" x="71.0806 76.7524 81.027408 85.76771 88.517208 93.23231 101.26661 105.94481 108.83381 111.92081 116.973407 120.15671 125.19581 129.46361 134.11661 138.67061 141.7756 144.67902 146.68872 148.70473 151.80973 156.63373 159.72972 164.96501 167.0953 171.8005 176.8378 181.91289 187.00238 194.87288 197.66739 202.7497 205.762 210.415 213.47499 216.6196 218.6302 223.195 225.21102 229.51032 234.45941 238.96121 243.9994 247.0234 252.09041 256.7965 259.9411 261.9571 267.0214 272.09739 276.80259 279.82658 282.9568 287.5063 292.4302 297.1885 300.34843 303.09794 307.77525 310.66426 313.75126 316.65467 318.66438 320.68037 323.78538 330.1529 337.9721 343.53413 345.2531 348.33924 356.37355 361.07966 366.02067 369.1707 373.8768 376.9008 380.031 385.125 390.12 394.7739 399.5979 402.6939 404.7099 407.8203 412.8729 416.05619 421.0944 425.5044 428.59773 430.6137 433.71873 436.5132 441.59284 444.76713 449.79814 451.81413 456.88743 461.9544 466.62544 468.63603 473.2422 477.8952 480.9552 488.9895 493.7145 498.7185 501.8055 506.66374 511.70915 516.74288 519.7551 524.40817">Systemet brukes til &#x00e5; gjennomf&#x00f8;re risikovurderinger knyttet til HMS, men er ogs&#x00e5; i bruk i forbindelse med andre </tspan><tspan y="-595.15139" x="71.0806 76.1746 80.8996 85.9333 89.077899 91.13619 94.341098 97.230098 101.839 106.9285 114.934 117.958 122.782 127.912899 132.6181 135.6421 137.8291 140.67311 145.7527 148.7767 150.9637 155.7877 157.9747 162.60521 164.62122 169.19773 172.21002 176.86302 179.05002 183.73542 188.6764 190.8634 196.1689 198.2992 203.0053 208.04169 213.11678 218.20627 226.21537 231.26346 236.12256 240.82776 245.87406 250.94106 255.59406 257.78108 262.83998 267.80079 272.07579 274.2628 279.1048 283.4581 288.2821 290.2909 292.39689 295.14549 299.8237 302.8135">bedriftsomr&#x00e5;der for &#x00e5; sikre en gjennomg&#x00e5;ende h&#x00f8;y kvalitet.</tspan></text>
</g>
<g id="Layer-1" data-name="Span">
<text fill="#f1bc20" xml:space="preserve" transform="matrix(1 0 -0 1 0 841.89)" font-size="15" font-family="Roboto"><tspan y="-280.0334" x="70.8661 79.55859 88.0306 96.3451 102.519107 111.03911 114.77411 124.41611 132.3361 140.83512 146.07912 149.87862 155.27863 160.32913 168.12914 176.60564 184.49564 188.27564 196.00514 203.87865 208.83916 212.74817 220.69518 229.19718 237.00768 244.82569 249.7172 257.66569">403-3 Bedriftshelsetjenesten</tspan></text>
</g>
<g id="Layer-1" data-name="Span">
</g>
<g id="Layer-1" data-name="Span">
</g>
<text fill="#404041" xml:space="preserve" transform="matrix(1 0 -0 1 0 841.89)" font-size="9" font-family="Roboto"><tspan y="-255.5112" x="70.8661 76.5415 78.557498 80.74449 83.565998 88.62579 90.68049 95.75559 100.46079 103.484798 105.67179 112.08969 119.9089 125.2369 127.4239 132.5818 135.6058 140.6458 145.252 149.977 155.0791 159.58629 162.59859 167.30379 170.32779 172.51479 177.17409 182.26268 190.23668 192.42368 197.13338 200.15738 202.34438 207.49327 210.43898 215.29718 218.47238 223.56638 228.23738 230.30109 235.36809 240.0463 242.9353 245.1223 247.9249 253.00539 256.0294 258.2164 263.08903 265.09873 267.1795 271.83253 274.01954 278.85795 282.03224 287.1271 291.79814 293.86183 298.8658 303.4756 308.5552 313.6501 318.3553 321.37928 326.2285 330.78248 332.92539 338.0059 343.0675 347.77363 350.3989">Vi f&#x00f8;lger HMS prosedyrer som er utarbeidet for alle arbeidsoperasjoner.</tspan></text>
<text fill="#404041" xml:space="preserve" transform="matrix(1 0 -0 1 0 841.89)" font-size="7" font-family="Roboto"><tspan y="-29.016" x="448.5529 453.0119 457.9609 462.3926 464.58293 469.23933 473.27833 477.15495 478.89796 481.03858 486.12757 490.92887 493.0695 497.9611 502.14009 506.36528 511.31849 515.9245 519.953">SOSIALE INDIKATORER</tspan></text>
<text fill="#404041" xml:space="preserve" transform="matrix(1 0 -0 1 0 841.89)" font-size="8" font-family="Roboto" font-weight="bold"><tspan y="-44.7402" x="515.2297 519.82168">81</tspan></text>
<g id="Layer-1" data-name="Artifact">
<clipPath id="cp728">
<path transform="matrix(1,0,0,-1,0,841.89)" d="M 0 0 L 595.276 0 L 595.276 841.89 L 0 841.89 Z "/>
</clipPath>
<g clip-path="url(#cp728)">
<path transform="matrix(1,0,0,-1,524.4094,802.3869)" stroke-width=".5" stroke-linecap="butt" stroke-miterlimit="4" stroke-linejoin="miter" fill="none" stroke="#404041" d="M 0 0 L -524.409 0 "/>
</g>
<g id="Layer-1" data-name="Artifact">
<path transform="matrix(1,0,0,-1,0,39.3869)" stroke-width=".5" stroke-linecap="butt" stroke-miterlimit="4" stroke-linejoin="miter" fill="none" stroke="#404041" d="M 0 0 L 524.409 0 "/>
</g>
</g>
</g>
</g>
</svg>
