<?xml version="1.0" encoding="UTF-8" standalone="no"?>
<!DOCTYPE svg PUBLIC "-//W3C//DTD SVG 1.1//EN" "http://www.w3.org/Graphics/SVG/1.1/DTD/svg11.dtd">
<svg xmlns="http://www.w3.org/2000/svg" xmlns:xlink="http://www.w3.org/1999/xlink" version="1.1" width="595.276pt" height="841.89pt" viewBox="0 0 595.276 841.89">
<g enable-background="new">
<g>
<g id="Layer-1" data-name="Span">
</g>
<g id="Layer-1" data-name="Span">
</g>
<g id="Layer-1" data-name="Span">
<text fill="#404041" xml:space="preserve" transform="matrix(1 0 -0 1 0 841.89)" font-size="9" font-family="Roboto"><tspan y="-195.3195" x="70.8661 77.022098 80.0461 84.922298 87.8689 92.7271 97.7644 102.7594 104.7754 109.6786 114.07869 118.63269 120.62709 125.69409 130.366 132.4711 135.41771 140.27591 143.29991 145.3123 147.32831 149.3173 154.2583 156.33911 158.35512 162.64992 167.30292 169.24692 174.30042 177.32442 182.36441 186.97061 191.62361 196.23432 200.84052 205.54572 208.19622 209.9152 211.8835 216.4933 221.5828 229.5568 231.51879 234.19899 236.3113 241.0174 245.4175 250.0822 252.2332 254.19519 258.92469 263.19969 267.94087 270.82987 275.43876 280.51927 285.58088 290.287 295.31709 297.33308 302.21827 307.32939 311.19309 316.24659 319.27058 324.31059 328.91676 333.56977 338.18046 342.78663 347.49183 350.1171 352.2681 354.23103 359.90644 361.92243 363.91145 368.5266 371.43003 373.4388 375.44853 377.5293 382.2354 385.2594 387.27183 392.35145 397.40495 402.39094 404.37995 409.47395 414.46894 416.44895 418.46495 423.40596 426.20045 431.28096 434.46424 442.49855 447.20466 450.21696 454.92216 457.94615 459.95857 464.89958 469.82978 472.85377 474.86079 479.32569 481.34169 483.3307 487.603 492.68263 497.64793 500.5945 505.45274 510.17863 512.9281 517.5811 522.24496 524.39596">Gratanglaks deltar i ulike prosesser, som f.eks. kystsoneplan-prosesser. Vi stiller opp og informerer n&#x00e5;r vi kontaktes. </tspan><tspan y="-184.5195" x="70.8661 76.3372 78.400897 83.467899 88.173999 93.115 95.301998 99.8362 101.852199 104.03919 108.77229 111.796298 113.98329 118.73799 123.67899 125.86599 127.94589 130.051 132.8005 137.5057 142.4467 144.6337 149.79878 154.52289 159.55748 162.70209 164.75949 167.9644 170.85341 173.0404 181.08371 185.80782 190.81182 192.99881 196.09932 198.11533 202.93933 205.82834 208.01534 212.63864 215.57175 218.75505 223.79325 228.51915 231.43605 236.47425 239.12564 240.84464 243.03163 247.74224 250.76624 252.95323 257.46675 259.48274 261.66975 266.04286 270.71388 272.77757 277.78157 279.83625 284.83125 287.01826 289.90727 291.94306 293.99775 299.23216 301.36247 306.06858 311.1059 316.1819 320.8529 322.8626 324.9164 329.99153 334.61213">Siden vi er en liten bedrift med flat struktur, er vi veldig tilgjengelige.</tspan></text>
</g>
<text fill="#2b3b52" xml:space="preserve" transform="matrix(1 0 -0 1 0 841.89)" font-size="15" font-family="Roboto"><tspan y="-219.8417" x="70.8661 78.487598 86.944599 94.7011 101.245609 109.92311 118.443119 122.178119 126.424617 134.8381 139.73111 147.67061 152.8336 161.0086 168.63912 176.28311 180.19211 188.70761 197.19762 200.93262 213.94663 221.86814 230.35814 234.09314 237.95413 246.36614 251.25914 259.19865 264.34666 272.15565 279.90464 287.63563 295.5826 303.9946 308.9101 317.43009 322.7506 331.2706 339.8011 348.31358 356.25309 361.5181">102-43 Interaksjon med interessentgrupper </tspan></text>
<g id="Layer-1" data-name="Artifact">
<clipPath id="cp617">
<path transform="matrix(1,0,0,-1,0,841.89)" d="M 0 0 L 595.276 0 L 595.276 841.89 L 0 841.89 Z "/>
</clipPath>
<g clip-path="url(#cp617)">
<filter id="blend_3"><feBlend mode="overlay" in2="BackgroundImage" in="SourceGraphic"/></filter>
<g filter="url(#blend_3)">
<clipPath id="cp618">
<path transform="matrix(1,0,0,-1,0,841.89)" d="M 69.8661 264.515 L 525.409 264.515 L 525.409 267.015 L 69.8661 267.015 Z "/>
</clipPath>
<g clip-path="url(#cp618)">
<path transform="matrix(1,0,0,-1,70.8661,576.12527)" stroke-width=".5" stroke-linecap="butt" stroke-miterlimit="4" stroke-linejoin="miter" fill="none" stroke="#b9bbbd" d="M 0 0 L 453.543 0 "/>
</g>
</g>
</g>
</g>
<path transform="matrix(1,0,0,-1,422.4945,542.1113)" stroke-width=".439" stroke-linecap="butt" stroke-miterlimit="10" stroke-linejoin="miter" fill="none" stroke="#1e5e9e" d="M 0 0 L 8.853 0 "/>
<g id="Layer-1" data-name="Span">
</g>
<g id="Layer-1" data-name="Span">
</g>
<g id="Layer-1" data-name="Span">
<text fill="#404041" xml:space="preserve" transform="matrix(1 0 -0 1 0 841.89)" font-size="9" font-family="Roboto"><tspan y="-311.2379" x="70.8661 76.5415 78.557498 80.74449 85.11489 89.78679 91.841487 96.91659 101.62179 104.64579 106.83279 108.848789 113.886089 116.63558 121.34078 124.35308 129.00609 133.61679 138.22209 142.92819 147.8935 150.643 155.3491 158.37311 160.5601 165.66132 170.48532 172.67232 177.73122 180.91452 185.95272 190.99 195.9976 198.01361 202.87722 207.87221 210.0592 214.8202 219.1492 221.3362 223.3522 228.37059 231.1651 236.24469 239.428 247.4173 252.2215 256.77549 258.9184 263.9989 268.9399 271.12693 274.14915 277.17314 281.99714 284.18415 286.33876 291.41838 295.88417 300.70817 302.71876 307.35466 312.22096 320.09147 323.05247 328.09068 333.128 338.1896 342.86784 345.90806 347.62705 349.81407 351.90116 356.54429 360.88859 365.59379 368.61778 373.52098 378.56727 383.64686 388.72917 391.74147 396.44758 399.09806 400.81706 403.00407 410.88807 415.39436 420.44065 425.44465 427.49934 432.54203 437.60905 442.28636 445.03587 449.74107 452.39155 454.11054">Vi velger interessenter p&#x00e5; grunnlag av informasjon fra lokalsamfunnet, leverand&#x00f8;rer, myndigheter, </tspan><tspan y="-300.43794" x="70.8661 75.4723 80.1775 83.6047 86.508098 88.66629 91.645298 93.54879 98.15409 102.86019 106.00479 108.02079 113.08509 118.08009 122.70789 127.78839 130.80069 135.84789 140.70609 145.76769 150.47379 153.12429 154.84328 157.03028 165.02498 169.88318 173.05748 177.32529 182.0503 187.05429 189.24129 194.34249 199.33748 201.52448 204.33788 209.41837 212.59177 217.64527 220.82857 225.86676 230.13547 234.84067 238.01497 243.07657 247.69718 249.84818 252.03517 257.30827 262.16648 265.19047 267.37748 271.77128 276.4243 281.03047 285.73567 290.70188 293.59089 295.60688 297.66069 302.70429 307.7704 312.4486 315.33763 319.9735 324.83174 329.77275 334.66874 336.77745 341.05244 345.78373 350.43675 352.62376 357.06977 361.92799 366.869 369.056 371.207 375.86003 380.4653 385.11833 389.6723 391.8593 396.9425 401.7665 403.95353 408.53453 410.5982 415.6652 420.3182">sertifiseringsorganer, marked og forbrukerne. V&#x00e5;r vesentlighetsanalyse kan leses p&#x00e5; side </tspan></text>
</g>
<g id="Layer-1" data-name="Span">
<text fill="#1e5e9e" xml:space="preserve" transform="matrix(1 0 -0 1 0 841.89)" font-size="9" font-family="Roboto"><tspan y="-300.43794" x="422.4961 427.1311">17</tspan></text>
</g>
<g id="Layer-1" data-name="Span">
<text fill="#404041" xml:space="preserve" transform="matrix(1 0 -0 1 0 841.89)" font-size="9" font-family="Roboto"><tspan y="-300.43794" x="431.35209">.</tspan></text>
</g>
<text fill="#2b3b52" xml:space="preserve" transform="matrix(1 0 -0 1 0 841.89)" font-size="15" font-family="Roboto"><tspan y="-335.7601" x="70.8661 78.487598 86.944599 94.7011 101.245609 109.446109 117.96611 121.70111 132.00762 137.37612 144.70961 152.6011 156.4546 164.97011 172.8616 176.6416 184.37111 192.21611 195.95111 203.82611 211.4311 215.1661 219.0181 227.4301 232.3231 240.2641 245.4106 253.2211 260.9701 268.6996 276.64659 285.05857 289.97407 298.49406 303.81459 312.33457 320.86506 329.37754 337.31855 342.58357">102-42 Utvelgelse av interessentgrupper </tspan></text>
<g id="Layer-1" data-name="Artifact">
<clipPath id="cp619">
<path transform="matrix(1,0,0,-1,0,841.89)" d="M 0 0 L 595.276 0 L 595.276 841.89 L 0 841.89 Z "/>
</clipPath>
<g clip-path="url(#cp619)">
<g filter="url(#blend_3)">
<clipPath id="cp620">
<path transform="matrix(1,0,0,-1,0,841.89)" d="M 69.8661 380.433 L 525.409 380.433 L 525.409 382.933 L 69.8661 382.933 Z "/>
</clipPath>
<g clip-path="url(#cp620)">
<path transform="matrix(1,0,0,-1,70.8661,460.20683)" stroke-width=".5" stroke-linecap="butt" stroke-miterlimit="4" stroke-linejoin="miter" fill="none" stroke="#b9bbbd" d="M 0 0 L 453.543 0 "/>
</g>
</g>
</g>
</g>
<path transform="matrix(1,0,0,-1,0,841.89)" d="M 70.866 450.563 L 297.638 450.563 L 297.638 433.585 L 70.866 433.585 Z M 70.866 433.585 L 297.638 433.585 L 297.638 417.107 L 70.866 417.107 Z " fill="#eaebee"/>
<path transform="matrix(1,0,0,-1,70.8661,391.3269)" stroke-width="1" stroke-linecap="butt" stroke-miterlimit="10" stroke-linejoin="miter" fill="none" stroke="#231f20" d="M 0 0 L 226.772 0 "/>
<path transform="matrix(1,0,0,-1,297.6378,391.3269)" stroke-width="1" stroke-linecap="butt" stroke-miterlimit="10" stroke-linejoin="miter" fill="none" stroke="#231f20" d="M 0 0 L 226.772 0 "/>
<g id="Layer-1" data-name="Span">
</g>
<g id="Layer-1" data-name="Span">
<text fill="#231f20" xml:space="preserve" transform="matrix(1 0 -0 1 0 841.89)" font-size="9" font-family="Roboto"><tspan y="-456.9621" x="74.8661 80.950099">&#x00c5;r</tspan></text>
</g>
<g id="Layer-1" data-name="Span">
<text fill="#2a3b52" xml:space="preserve" transform="matrix(1 0 -0 1 0 841.89)" font-size="12" font-family="Roboto" font-weight="bold"><tspan y="-455.8371" x="493.0348 499.82679 506.7364 513.5284">2020</tspan></text>
</g>
<g id="Layer-1" data-name="Span">
</g>
<g id="Layer-1" data-name="Span">
</g>
<g id="Layer-1" data-name="Span">
</g>
<g id="Layer-1" data-name="Span">
<text fill="#231f20" xml:space="preserve" transform="matrix(1 0 -0 1 0 841.89)" font-size="9" font-family="Roboto"><tspan y="-438.4489" x="74.8662 80.550609 85.51591 88.46251 93.28651 95.2962 97.3122 99.4992 104.3862 109.3686 114.0045 118.7997 121.958698 124.70819 129.36119 131.54819 139.56359 144.28769 149.29169 151.47869 154.4325 159.2907 162.4353 164.4936 167.64992 510.4482 515.42526">Antall ansatte med tariff26</tspan><tspan y="-421.9699" x="74.86621 80.55061 85.44662 88.46522 93.289218 95.29891 97.34191 99.52891 104.38711 109.369518 114.00542 118.78442 121.96232 124.71182 510.4482 515.42526">Antall ansatte26</tspan></text>
</g>
<g id="Layer-1" data-name="Span">
</g>
<g id="Layer-1" data-name="Span">
</g>
<g id="Layer-1" data-name="Span">
</g>
<g id="Layer-1" data-name="Span">
<text fill="#404041" xml:space="preserve" transform="matrix(1 0 -0 1 0 841.89)" font-size="9" font-family="Roboto"><tspan y="-529.1419" x="70.87021 77.02621 80.05021 84.92641 87.87301 92.73121 97.76851 102.76351 104.77951 109.68271 114.08281 118.63681 122.62021 127.66741 132.5256 135.5496 140.4528 145.419 148.16762 152.87372 155.88602 160.59122 163.61522 167.61753 170.41114 175.49163 178.51563 182.51703 187.31224 190.20125 194.16124 198.98525 200.99405 203.07576 207.72876 211.66176 216.27156 221.36016 229.33415 233.29055 238.14875 241.32305 246.41706 251.08896 253.15177 258.21968 262.92488 265.94886 269.95027 275.02897 280.06898 284.62297 288.60636 293.64637 298.25706 302.81105 306.79444 312.65345 316.96177 322.01347 326.83747 331.92338 336.5764 340.5094 343.3552 348.1594 352.77458 355.66358 359.6236 364.7176 369.7126 373.6816 381.6628 383.72563 388.7296 390.8104 395.5165 398.9437 401.8327 403.9054 408.9094 410.96409 415.95909 419.9281 425.7871 430.0963 435.1264 437.1352 439.15119 442.17518 446.20359 451.0618 456.04423 460.6801 465.4753 468.63523 471.52424 475.48426 477.50025 481.47825 486.54527 491.25047 496.28779 501.3665 506.42359 508.48728 513.4913 517.4513 520.3547 522.3644 524.3804">Gratanglaks garanterer for at alle som arbeider hos oss &#x2013; b&#x00e5;de fast og midlertidig &#x2013; blir ansatt i henhold til </tspan><tspan y="-518.3419" x="70.87021 77.23231 81.976207 86.47081 91.52341 94.70671 99.74581 104.145908 108.75571 113.70391 118.04821 122.75341 125.76571 130.47182 135.45421 140.05411 144.32642 149.41501 157.371 161.9862 164.73482 169.44092 174.53491 176.68592 181.18592 186.86132 188.87732 193.40431 198.49922 203.20442 208.12741 212.88661 216.04653 218.79604 223.50124 226.52524 231.07564 233.16994 238.25225 243.28864 248.27193 252.88263 257.49693 260.40034 262.45503 267.53013 272.19215 273.91114 278.41835 283.02723 288.11674 296.09074 300.59074 305.44895 308.59355 310.60234 312.657 317.652 322.17 325.1832 329.82633 334.29124 336.35404 341.42195 346.12715 349.13945 353.79246 358.34645 362.87345 364.88945 369.41645 374.05235 378.91865 386.90794 391.76615 394.94044 400.03443 404.70634 406.76914 411.77314 416.28215 424.31645 428.98747 430.99717 433.09147 438.18009 446.15409 450.65409 455.4781 460.53968 468.51997 470.53596 475.57148 477.58119 482.19636 485.12947 488.15345 493.00267 497.55665 499.69956 504.77919 509.72019 514.2922 519.38619 524.38119">Havbruksoverenskomsten. Vi benytter l&#x00f8;nnsstige, som &#x00e5;rlig revideres i samarbeid mellom administrasjon og </tspan><tspan y="-507.54194" x="70.87021 73.773609 75.7824 77.7921 79.800899 81.90689 84.79589 89.362499 93.7158 98.539798 100.5936 105.7011 108.4506 113.1036 114.773097 116.78909 118.50809 123.50759 128.1795 130.18831 132.26912 136.92212 141.48963 144.28414 149.36373 152.53803 157.57442 162.61351 167.6589 172.7268 177.40412 180.39392 182.54492 184.23693 190.39023 195.06754 197.95655 199.65755 204.36275 207.38675 209.12375 213.60576 218.64485 223.58585 225.34534 230.39704 235.22104 236.92743 241.75144 246.81304 254.79334 256.80934 261.84394 263.85453 268.4697 271.4028 274.4268 279.267 282.1704 284.262 288.6063 293.2593 294.92884 299.544 302.44743 304.4562 306.465 308.4747 310.4907 315.5559 320.631 325.33714 328.3611 330.0981 334.8933 337.78233 339.48335 344.55125 349.22856 352.11756 353.81858 359.05299 361.1959 366.27909 369.29139 373.9444 378.49839 380.2174 384.9226 389.86363 391.62315 396.23744 404.15565 407.26243 411.8623 416.3821 418.3909 420.4969 423.3859 425.0869 429.58964 434.62785 437.65184 442.71974 447.42494 450.56953 452.5855 457.6498 462.6448 464.3503 469.0942 473.42323 475.18724 480.2542 484.9594 489.90043 491.66444 496.36964 501.40696 505.67475 510.34577 512.4518 515.2004 519.8534 524.4074">tillitsvalgte i Fellesforbundet. Det er kun p&#x00e5; administrative stillinger at det gj&#x00f8;res en s&#x00e6;rskilt vurdering av den enkeltes </tspan><tspan y="-496.74195" x="70.87021 75.1425 80.2311 88.2375 93.331508 98.011508 100.95811 105.81631 110.798709 115.37971 120.03901 122.226009 127.3065 132.3591 137.3721 139.55912 147.59162 152.53171 155.4279 157.61492 159.70832 164.7906 169.7586 174.813 179.4129 184.44301 186.48601 191.2902 195.8712 200.4522 205.2114 208.35599 210.39899 215.36699 220.53389">kompetanse opp mot l&#x00f8;nnsplassering.</tspan></text>
</g>
<text fill="#2b3b52" xml:space="preserve" transform="matrix(1 0 -0 1 0 841.89)" font-size="15" font-family="Roboto"><tspan y="-553.6666" x="70.8661 78.487598 86.944599 94.7011 101.245609 108.90461 117.42461 121.15961 130.3171 138.7576 142.54059 146.39708 154.33808 162.51908 167.54409 171.38108 178.71457 186.55957 190.29457 198.16957 206.16007 211.27057 219.37958 223.23758 231.17708 236.44208 240.17708 248.66709 257.15708 260.89207 264.75608 273.2761 281.79908 290.21257 297.99156 302.89356 311.40156 316.71458 325.16407 333.34806 341.87254 350.31004 354.09156 357.94657 366.42457 374.94007 382.88108 388.1461">102-41 Kollektive avtaler og l&#x00f8;nnsforhandlinger </tspan></text>
<g id="Layer-1" data-name="Artifact">
<clipPath id="cp621">
<path transform="matrix(1,0,0,-1,0,841.89)" d="M 0 0 L 595.276 0 L 595.276 841.89 L 0 841.89 Z "/>
</clipPath>
<g clip-path="url(#cp621)">
<g filter="url(#blend_3)">
<clipPath id="cp622">
<path transform="matrix(1,0,0,-1,0,841.89)" d="M 69.8661 597.84 L 525.409 597.84 L 525.409 600.34 L 69.8661 600.34 Z "/>
</clipPath>
<g clip-path="url(#cp622)">
<path transform="matrix(1,0,0,-1,70.8661,242.80042)" stroke-width=".5" stroke-linecap="butt" stroke-miterlimit="4" stroke-linejoin="miter" fill="none" stroke="#b9bbbd" d="M 0 0 L 453.543 0 "/>
</g>
</g>
</g>
</g>
<path transform="matrix(1,0,0,-1,241.3278,225.79779)" stroke-width=".439" stroke-linecap="butt" stroke-miterlimit="10" stroke-linejoin="miter" fill="none" stroke="#1e5e9e" d="M 0 0 L 8.853 0 "/>
<g id="Layer-1" data-name="Span">
</g>
<g id="Layer-1" data-name="Span">
</g>
<g id="Layer-1" data-name="Span">
</g>
<g id="Layer-1" data-name="Span">
</g>
<g id="Layer-1" data-name="Span">
</g>
<g id="Layer-1" data-name="Span">
<text fill="#404041" xml:space="preserve" transform="matrix(1 0 -0 1 0 841.89)" font-size="9" font-family="Roboto"><tspan y="-670.7513" x="70.8661 77.022098 80.0461 84.922298 87.8689 92.7271 97.7644 102.7594 104.7754 109.6786 114.07869 118.63269 124.365688 128.93138 130.94739 136.03598 140.68898 146.37248 148.38849 153.38169 156.1312 160.8364 163.8487 168.5017 173.1124 177.7177 182.4238 187.3891 190.13861 194.84381 197.86782 203.6188 206.46462 211.20853 215.70313 220.76473 225.47083 228.49483 234.24582 239.29842 242.31072 247.03572 252.13422 255.12403 257.27503 262.98106 267.86445 270.88844 275.71244 281.47517 286.57005 291.22306 295.78874 297.80473 302.93385 305.86695 310.87455 312.89054 317.95484 322.94984 327.58213 330.52873 335.38694 339.65473 344.36085 347.37315 352.02616 357.71507 362.80998 367.80497 373.52268 378.57618 381.58937 386.30357 394.28385 396.29444 400.90513 405.4771 410.4721 412.5817 416.926 421.6312 424.6435 429.2965 434.98 437.88343 439.8922 441.9082 447.6412 452.1232 457.1614 462.2077 467.2747 471.9808 475.0048 480.7558 485.8498 490.8448 496.5643 501.5053 506.43553 511.525 516.6415 521.3467 524.37069">Gratanglaks sine interessenter favner bredt. Fra beslutningstakere og premissgivere til kunder og naboer </tspan><tspan y="-659.9513" x="70.8661 73.76949 75.77829 77.79429 82.60928 86.961688 91.819889 94.84389 99.67688 104.73038 107.75438 112.83938 117.87308 122.91128 127.31137 131.86537 134.00827 139.08876 144.18276 146.33376 151.12175 156.79715 158.81316 163.62816 168.23436 172.93956 175.96356 180.79656 185.84917 190.67317 195.47917 197.57257 202.65306 207.11797 211.94197 213.95168 218.58757 223.45388 231.32437 234.28537 239.32447 244.36086 249.48184 251.20084 255.98883 260.99736 263.00614 265.02214 269.31694 273.96995 278.73997 283.81959 286.83189 291.87907 296.73728 301.7458 303.7555 308.3914 313.1956 317.74958 319.8925 324.973 330.0346 334.7398 337.3903 339.10929 343.8973 348.75553 353.73796 358.37385 363.16905 366.32804 369.07756 373.74046 375.45945 380.24748 383.09327 387.93077 392.99055 395.78504 400.86466 403.87696 408.58308 413.59068 415.60667 420.67097 425.74696 430.45216 433.10264 434.82164 439.60966 442.81816 447.29566 449.31166 453.60646 458.26936 459.98835 464.77638 469.63459 474.0347 478.58869 480.7316 485.81123 490.808 498.72535 501.73765 506.44377 509.46775 514.3008 519.3948 524.3898">til v&#x00e5;r produksjon. Vi ser p&#x00e5; lokalsamfunn, ulike organisasjoner, ansatte, fagforeninger, fylke, aksjon&#x00e6;rer og </tspan><tspan y="-649.1513" x="70.8661 75.33099 80.18919 85.22019 87.325298 90.2719 95.095897 97.10469 99.186389 103.82948 108.17378 112.87898 115.902988 120.80618 125.852489 130.9321 136.0144 139.0276 143.7328 146.36171 149.59992 154.45812 159.50351 164.5381 167.5504 172.2034 174.31839 176.4001 181.0432 185.3875 190.0927 193.1167 198.019 203.06529 208.1449 213.2272 216.2404 220.9456 223.9696 226.1476 230.7574 235.846 243.81999 245.95299 250.30539 255.16359 258.1759 262.82893 264.94395 266.95994 271.95314 274.70265 279.40785 282.42015 287.07316 291.68385 296.28913 300.99525 305.96055 308.71006 313.41526 316.04054 318.19154 320.32456 322.45759 324.8516 327.0296 329.933 331.94273 333.9515 336.0332 340.7492 345.7991 350.7941 352.9451 357.6503 360.6743 362.8613 367.92829 372.5813 374.69633 379.3052 384.3947 392.3687 394.50175 399.00895 401.15275 406.23506 411.32905 416.03517 419.05915 421.23716 423.25315 428.13835 432.53935 437.14463 441.85075 446.79176 448.99678 453.35008 458.20829 460.85877 462.57777 464.71708 469.76878 474.59278 479.67869 484.3317 486.44673 491.0826 495.90663 497.96043 502.9554 507.5391 509.61988 514.3449 519.3939 524.39797">kapitalleverand&#x00f8;rer/andre leverand&#x00f8;rer som v&#x00e5;re interessenter.  I tillegg er de som kj&#x00f8;per laksen v&#x00e5;r, b&#x00e5;de salgsledd </tspan><tspan y="-638.3513" x="70.8661 75.9601 80.9551 83.1421 87.7267 89.7427 94.8718 98.0317 100.9648 105.4468 110.485 115.5313 120.598308 125.304409 128.3284 130.5154 135.1738 140.26239 148.23639 150.42339 155.458 157.474 162.5401 167.0896 171.3574 176.0626 179.08661 181.2736 183.28961 188.21982 192.61992 197.22522 201.93132 206.87232 209.05931 213.4828 218.341 221.365 223.552 228.68109 233.73369 238.7197 240.9067 243.8857 246.9097 251.7337 253.9207 261.97123 266.76643 269.91374 274.26615 279.12437 282.13667 286.86167 291.86567 293.87626 298.47615 302.74394 307.44914 312.57106 314.29005 316.47706 320.94648 322.96247 327.71537 330.61878 332.67347 337.74858 342.40159 344.5886 347.36329 352.4438 355.46778 357.6548 362.7434 367.3541 372.01789 374.16889">og sluttkunder som plukker laksen v&#x00e5;r opp fra matvaredisken, viktige for oss. </tspan><tspan y="-616.75137" x="70.8661 76.1401 80.9983 84.0223 86.2093 90.6022 95.2552 99.860507 104.566608 109.531909 112.4353 114.445 116.4988 121.541507 126.608509 131.28582 134.17482 138.81072 143.66892 148.60991 153.50592 155.61553 159.89052 164.62273 169.27573 171.46273 175.90782 180.76602 185.70702 187.89402 190.04592 194.69892 199.30512 203.95812 208.51212 210.69911 215.78142 220.60543 222.79242 227.37432 229.43712 234.50502 239.15802">V&#x00e5;r vesentlighetsanalyse kan leses p&#x00e5; side </tspan></text>
</g>
<g id="Layer-1" data-name="Span">
<text fill="#1e5e9e" xml:space="preserve" transform="matrix(1 0 -0 1 0 841.89)" font-size="9" font-family="Roboto"><tspan y="-616.75137" x="241.32611 245.9611">17</tspan></text>
</g>
<g id="Layer-1" data-name="Span">
<text fill="#404041" xml:space="preserve" transform="matrix(1 0 -0 1 0 841.89)" font-size="9" font-family="Roboto"><tspan y="-616.75137" x="250.18212">.</tspan></text>
</g>
<text fill="#2b3b52" xml:space="preserve" transform="matrix(1 0 -0 1 0 841.89)" font-size="15" font-family="Roboto"><tspan y="-695.2736" x="70.8661 78.487598 86.944599 94.701099 101.2456 109.938098 118.46259 122.19759 132.5506 139.8856 147.8206 153.0436 160.7686 164.6161 172.7986 177.9316 181.6666 189.8596 197.19312 205.12812 210.39311 214.12812 217.98313 226.39513 231.28813 239.22313 244.37113 252.18012 259.92915 267.65867 275.60716 284.01914 288.93464 297.45463 302.77516 311.29515 319.82563 328.3381 336.2731 341.5396">102-40 Oversikt over interessentgrupper </tspan></text>
<g id="Layer-1" data-name="Artifact">
<clipPath id="cp623">
<path transform="matrix(1,0,0,-1,0,841.89)" d="M 0 0 L 595.276 0 L 595.276 841.89 L 0 841.89 Z "/>
</clipPath>
<g clip-path="url(#cp623)">
<g opacity=".149994">
<clipPath id="cp624">
<path transform="matrix(1,0,0,-1,0,841.89)" d="M 62.7795 739.947 L 532.496 739.947 L 532.496 772.024 L 62.7795 772.024 Z "/>
</clipPath>
<g clip-path="url(#cp624)">
<path transform="matrix(1,0,0,-1,0,841.89)" d="M 63.78 740.947 L 531.496 740.947 L 531.496 771.02407 L 63.78 771.02407 Z " fill="#949699"/>
</g>
</g>
</g>
<g id="Layer-1" data-name="Span">
</g>
<text fill="#404041" xml:space="preserve" transform="matrix(1 0 -0 1 0 841.89)" font-size="10" font-family="Roboto"><tspan y="-752.2352" x="94.3437 97.223697 104.123699 109.9937 115.5337 121.8937 127.4337 133.5837 139.73369 145.27368 152.16568 158.03568 163.57567 170.62567 177.34568 183.69568 189.84568 195.36568 200.90567 209.60567 215.14566 222.02466">INTERESSENTENGASJEMENT</tspan></text>
</g>
<g id="Layer-1" data-name="Artifact">
<clipPath id="cp625">
<path transform="matrix(1,0,0,-1,0,841.89)" d="M 0 0 L 595.276 0 L 595.276 841.89 L 0 841.89 Z "/>
</clipPath>
<g clip-path="url(#cp625)">
<path transform="matrix(1,0,0,-1,79.8798,95.24353)" d="M 0 0 C 4.978 0 9.014 4.181 9.014 9.338 C 9.014 14.496 4.978 18.677 0 18.677 C -4.978 18.677 -9.014 14.496 -9.014 9.338 C -9.014 4.181 -4.978 0 0 0 " fill="#ffffff"/>
</g>
<g id="Layer-1" data-name="Span">
</g>
<text fill="#404041" xml:space="preserve" transform="matrix(1 0 -0 1 0 841.89)" font-size="12" font-family="Roboto"><tspan y="-751.4851" x="76.1102">5</tspan></text>
</g>
<g id="Layer-1" data-name="Span">
</g>
<g id="Layer-1" data-name="Span">
</g>
<text fill="#404041" xml:space="preserve" transform="matrix(1 0 -0 1 0 841.89)" font-size="8" font-family="Roboto" font-weight="bold"><tspan y="-44.7402" x="70.8661 75.65009">60</tspan></text>
<text fill="#404041" xml:space="preserve" transform="matrix(1 0 -0 1 0 841.89)" font-size="7" font-family="Roboto"><tspan y="-29.016" x="70.8661 75.703098 79.73159 84.82059 88.84908 93.455089 97.48358 101.52258 105.56228 109.43818 111.18118 116.13508 120.72568 125.31628 128.77498 133.24518 137.70418 142.76099 144.90158 149.99059 154.82759 158.8561">GENERELLE OPPLYSNINGER</tspan></text>
<g id="Layer-1" data-name="Artifact">
<clipPath id="cp626">
<path transform="matrix(1,0,0,-1,0,841.89)" d="M 0 0 L 595.276 0 L 595.276 841.89 L 0 841.89 Z "/>
</clipPath>
<g clip-path="url(#cp626)">
<path transform="matrix(1,0,0,-1,1119.685,802.3869)" stroke-width=".5" stroke-linecap="butt" stroke-miterlimit="4" stroke-linejoin="miter" fill="none" stroke="#404041" d="M 0 0 L -1048.819 0 "/>
</g>
<g id="Layer-1" data-name="Span">
</g>
<text fill="#404041" xml:space="preserve" transform="matrix(1 0 -0 1 0 841.89)" font-size="5" font-family="Roboto" font-weight="bold"><tspan y="-805.9686" x="70.8661 74.1961 77.381099 80.3461 82.9486 86.1286 89.6586 92.9886 95.8126 98.9926 102.1776 105.26759 106.512599 109.6926">GRATANGLAKS AS</tspan></text>
</g>
<g id="Layer-1" data-name="Span">
</g>
<g id="Layer-1" data-name="Span">
<text fill="#595959" xml:space="preserve" transform="matrix(1 0 -0 1 0 841.89)" font-size="5" font-family="Roboto"><tspan y="-805.9686" x="119.143 122.428 127.273 130.52301 133.533 136.838 140.088 143.51799 146.50099 149.616 152.75099 156.00099 159.43099 162.75598 166.08098 169.69098 172.74448">B&#x00c6;REKRAFTSRAPPORT</tspan></text>
</g>
<text fill="#404041" xml:space="preserve" transform="matrix(1 0 -0 1 0 841.89)" font-size="5" font-family="Roboto" font-weight="bold"><tspan y="-805.9686" x="179.688 182.558 185.428 188.29799">2020</tspan></text>
<g id="Layer-1" data-name="Artifact">
<clipPath id="cp627">
<path transform="matrix(1,0,0,-1,0,841.89)" d="M 0 0 L 595.276 0 L 595.276 841.89 L 0 841.89 Z "/>
</clipPath>
<g clip-path="url(#cp627)">
<path transform="matrix(1,0,0,-1,70.8661,39.3869)" stroke-width=".5" stroke-linecap="butt" stroke-miterlimit="4" stroke-linejoin="miter" fill="none" stroke="#404041" d="M 0 0 L 1048.819 0 "/>
</g>
</g>
</g>
</g>
</svg>
