<?xml version="1.0" encoding="UTF-8" standalone="no"?>
<!DOCTYPE svg PUBLIC "-//W3C//DTD SVG 1.1//EN" "http://www.w3.org/Graphics/SVG/1.1/DTD/svg11.dtd">
<svg xmlns="http://www.w3.org/2000/svg" xmlns:xlink="http://www.w3.org/1999/xlink" version="1.1" width="595.276pt" height="841.89pt" viewBox="0 0 595.276 841.89">
<g enable-background="new">
<g>
<path transform="matrix(1,0,0,-1,0,841.89)" d="M 70.866 702.632 L 524.223 702.632 L 524.223 680.315 L 70.866 680.315 Z " fill="#fef8e9"/>
<path transform="matrix(1,0,0,-1,70.8661,107.341739)" stroke-width=".75" stroke-linecap="butt" stroke-miterlimit="10" stroke-linejoin="miter" fill="none" stroke="#f1bc20" d="M 0 0 L 76.519 0 "/>
<path transform="matrix(1,0,0,-1,147.3852,107.341739)" stroke-width=".75" stroke-linecap="butt" stroke-miterlimit="10" stroke-linejoin="miter" fill="none" stroke="#f1bc20" d="M 0 0 L 103.008 0 "/>
<path transform="matrix(1,0,0,-1,250.3937,107.341739)" stroke-width=".75" stroke-linecap="butt" stroke-miterlimit="10" stroke-linejoin="miter" fill="none" stroke="#f1bc20" d="M 0 0 L 130.866 0 "/>
<path transform="matrix(1,0,0,-1,381.2598,107.341739)" stroke-width=".75" stroke-linecap="butt" stroke-miterlimit="10" stroke-linejoin="miter" fill="none" stroke="#f1bc20" d="M 0 0 L 142.963 0 "/>
<path transform="matrix(1,0,0,-1,70.8661,724.98367)" stroke-width=".5" stroke-linecap="butt" stroke-miterlimit="10" stroke-linejoin="miter" fill="none" stroke="#f1bc20" d="M 0 0 L 76.519 0 "/>
<path transform="matrix(1,0,0,-1,147.3852,724.98367)" stroke-width=".5" stroke-linecap="butt" stroke-miterlimit="10" stroke-linejoin="miter" fill="none" stroke="#f1bc20" d="M 0 0 L 103.008 0 "/>
<path transform="matrix(1,0,0,-1,250.3937,724.98367)" stroke-width=".5" stroke-linecap="butt" stroke-miterlimit="10" stroke-linejoin="miter" fill="none" stroke="#f1bc20" d="M 0 0 L 130.866 0 "/>
<path transform="matrix(1,0,0,-1,381.2598,724.98367)" stroke-width=".5" stroke-linecap="butt" stroke-miterlimit="10" stroke-linejoin="miter" fill="none" stroke="#f1bc20" d="M 0 0 L 142.963 0 "/>
<path transform="matrix(1,0,0,-1,70.8661,201.26349)" stroke-width=".5" stroke-linecap="butt" stroke-miterlimit="10" stroke-linejoin="miter" fill="none" stroke="#f1bc20" d="M 0 0 L 76.519 0 "/>
<path transform="matrix(1,0,0,-1,147.3852,201.26349)" stroke-width=".5" stroke-linecap="butt" stroke-miterlimit="10" stroke-linejoin="miter" fill="none" stroke="#f1bc20" d="M 0 0 L 103.008 0 "/>
<path transform="matrix(1,0,0,-1,250.3937,201.26349)" stroke-width=".5" stroke-linecap="butt" stroke-miterlimit="10" stroke-linejoin="miter" fill="none" stroke="#f1bc20" d="M 0 0 L 130.866 0 "/>
<path transform="matrix(1,0,0,-1,381.2598,201.26349)" stroke-width=".5" stroke-linecap="butt" stroke-miterlimit="10" stroke-linejoin="miter" fill="none" stroke="#f1bc20" d="M 0 0 L 142.963 0 "/>
<path transform="matrix(1,0,0,-1,70.8661,240.95209)" stroke-width=".5" stroke-linecap="butt" stroke-miterlimit="10" stroke-linejoin="miter" fill="none" stroke="#f1bc20" d="M 0 0 L 76.519 0 "/>
<path transform="matrix(1,0,0,-1,147.3852,240.95209)" stroke-width=".5" stroke-linecap="butt" stroke-miterlimit="10" stroke-linejoin="miter" fill="none" stroke="#f1bc20" d="M 0 0 L 103.008 0 "/>
<path transform="matrix(1,0,0,-1,250.3937,240.95209)" stroke-width=".5" stroke-linecap="butt" stroke-miterlimit="10" stroke-linejoin="miter" fill="none" stroke="#f1bc20" d="M 0 0 L 130.866 0 "/>
<path transform="matrix(1,0,0,-1,381.2598,240.95209)" stroke-width=".5" stroke-linecap="butt" stroke-miterlimit="10" stroke-linejoin="miter" fill="none" stroke="#f1bc20" d="M 0 0 L 142.963 0 "/>
<path transform="matrix(1,0,0,-1,70.8661,272.4934)" stroke-width=".5" stroke-linecap="butt" stroke-miterlimit="10" stroke-linejoin="miter" fill="none" stroke="#f1bc20" d="M 0 0 L 76.519 0 "/>
<path transform="matrix(1,0,0,-1,147.3852,272.4934)" stroke-width=".5" stroke-linecap="butt" stroke-miterlimit="10" stroke-linejoin="miter" fill="none" stroke="#f1bc20" d="M 0 0 L 103.008 0 "/>
<path transform="matrix(1,0,0,-1,250.3937,272.4934)" stroke-width=".5" stroke-linecap="butt" stroke-miterlimit="10" stroke-linejoin="miter" fill="none" stroke="#f1bc20" d="M 0 0 L 130.866 0 "/>
<path transform="matrix(1,0,0,-1,381.2598,272.4934)" stroke-width=".5" stroke-linecap="butt" stroke-miterlimit="10" stroke-linejoin="miter" fill="none" stroke="#f1bc20" d="M 0 0 L 142.963 0 "/>
<path transform="matrix(1,0,0,-1,70.8661,312.1819)" stroke-width=".5" stroke-linecap="butt" stroke-miterlimit="10" stroke-linejoin="miter" fill="none" stroke="#f1bc20" d="M 0 0 L 76.519 0 "/>
<path transform="matrix(1,0,0,-1,147.3852,312.1819)" stroke-width=".5" stroke-linecap="butt" stroke-miterlimit="10" stroke-linejoin="miter" fill="none" stroke="#f1bc20" d="M 0 0 L 103.008 0 "/>
<path transform="matrix(1,0,0,-1,250.3937,312.1819)" stroke-width=".5" stroke-linecap="butt" stroke-miterlimit="10" stroke-linejoin="miter" fill="none" stroke="#f1bc20" d="M 0 0 L 130.866 0 "/>
<path transform="matrix(1,0,0,-1,381.2598,312.1819)" stroke-width=".5" stroke-linecap="butt" stroke-miterlimit="10" stroke-linejoin="miter" fill="none" stroke="#f1bc20" d="M 0 0 L 142.963 0 "/>
<path transform="matrix(1,0,0,-1,70.8661,343.7232)" stroke-width=".5" stroke-linecap="butt" stroke-miterlimit="10" stroke-linejoin="miter" fill="none" stroke="#f1bc20" d="M 0 0 L 76.519 0 "/>
<path transform="matrix(1,0,0,-1,147.3852,343.7232)" stroke-width=".5" stroke-linecap="butt" stroke-miterlimit="10" stroke-linejoin="miter" fill="none" stroke="#f1bc20" d="M 0 0 L 103.008 0 "/>
<path transform="matrix(1,0,0,-1,250.3937,343.7232)" stroke-width=".5" stroke-linecap="butt" stroke-miterlimit="10" stroke-linejoin="miter" fill="none" stroke="#f1bc20" d="M 0 0 L 130.866 0 "/>
<path transform="matrix(1,0,0,-1,381.2598,343.7232)" stroke-width=".5" stroke-linecap="butt" stroke-miterlimit="10" stroke-linejoin="miter" fill="none" stroke="#f1bc20" d="M 0 0 L 142.963 0 "/>
<path transform="matrix(1,0,0,-1,70.8661,375.2644)" stroke-width=".5" stroke-linecap="butt" stroke-miterlimit="10" stroke-linejoin="miter" fill="none" stroke="#f1bc20" d="M 0 0 L 76.519 0 "/>
<path transform="matrix(1,0,0,-1,147.3852,375.2644)" stroke-width=".5" stroke-linecap="butt" stroke-miterlimit="10" stroke-linejoin="miter" fill="none" stroke="#f1bc20" d="M 0 0 L 103.008 0 "/>
<path transform="matrix(1,0,0,-1,250.3937,375.2644)" stroke-width=".5" stroke-linecap="butt" stroke-miterlimit="10" stroke-linejoin="miter" fill="none" stroke="#f1bc20" d="M 0 0 L 130.866 0 "/>
<path transform="matrix(1,0,0,-1,381.2598,375.2644)" stroke-width=".5" stroke-linecap="butt" stroke-miterlimit="10" stroke-linejoin="miter" fill="none" stroke="#f1bc20" d="M 0 0 L 142.963 0 "/>
<path transform="matrix(1,0,0,-1,70.8661,458.153)" stroke-width=".5" stroke-linecap="butt" stroke-miterlimit="10" stroke-linejoin="miter" fill="none" stroke="#f1bc20" d="M 0 0 L 76.519 0 "/>
<path transform="matrix(1,0,0,-1,147.3852,458.153)" stroke-width=".5" stroke-linecap="butt" stroke-miterlimit="10" stroke-linejoin="miter" fill="none" stroke="#f1bc20" d="M 0 0 L 103.008 0 "/>
<path transform="matrix(1,0,0,-1,250.3937,458.153)" stroke-width=".5" stroke-linecap="butt" stroke-miterlimit="10" stroke-linejoin="miter" fill="none" stroke="#f1bc20" d="M 0 0 L 130.866 0 "/>
<path transform="matrix(1,0,0,-1,381.2598,458.153)" stroke-width=".5" stroke-linecap="butt" stroke-miterlimit="10" stroke-linejoin="miter" fill="none" stroke="#f1bc20" d="M 0 0 L 142.963 0 "/>
<path transform="matrix(1,0,0,-1,70.8661,489.6942)" stroke-width=".5" stroke-linecap="butt" stroke-miterlimit="10" stroke-linejoin="miter" fill="none" stroke="#f1bc20" d="M 0 0 L 76.519 0 "/>
<path transform="matrix(1,0,0,-1,147.3852,489.6942)" stroke-width=".5" stroke-linecap="butt" stroke-miterlimit="10" stroke-linejoin="miter" fill="none" stroke="#f1bc20" d="M 0 0 L 103.008 0 "/>
<path transform="matrix(1,0,0,-1,250.3937,489.6942)" stroke-width=".5" stroke-linecap="butt" stroke-miterlimit="10" stroke-linejoin="miter" fill="none" stroke="#f1bc20" d="M 0 0 L 130.866 0 "/>
<path transform="matrix(1,0,0,-1,381.2598,489.6942)" stroke-width=".5" stroke-linecap="butt" stroke-miterlimit="10" stroke-linejoin="miter" fill="none" stroke="#f1bc20" d="M 0 0 L 142.963 0 "/>
<path transform="matrix(1,0,0,-1,70.8661,521.2354)" stroke-width=".5" stroke-linecap="butt" stroke-miterlimit="10" stroke-linejoin="miter" fill="none" stroke="#f1bc20" d="M 0 0 L 76.519 0 "/>
<path transform="matrix(1,0,0,-1,147.3852,521.2354)" stroke-width=".5" stroke-linecap="butt" stroke-miterlimit="10" stroke-linejoin="miter" fill="none" stroke="#f1bc20" d="M 0 0 L 103.008 0 "/>
<path transform="matrix(1,0,0,-1,250.3937,521.2354)" stroke-width=".5" stroke-linecap="butt" stroke-miterlimit="10" stroke-linejoin="miter" fill="none" stroke="#f1bc20" d="M 0 0 L 130.866 0 "/>
<path transform="matrix(1,0,0,-1,381.2598,521.2354)" stroke-width=".5" stroke-linecap="butt" stroke-miterlimit="10" stroke-linejoin="miter" fill="none" stroke="#f1bc20" d="M 0 0 L 142.963 0 "/>
<path transform="matrix(1,0,0,-1,70.8661,552.77676)" stroke-width=".5" stroke-linecap="butt" stroke-miterlimit="10" stroke-linejoin="miter" fill="none" stroke="#f1bc20" d="M 0 0 L 76.519 0 "/>
<path transform="matrix(1,0,0,-1,147.3852,552.77676)" stroke-width=".5" stroke-linecap="butt" stroke-miterlimit="10" stroke-linejoin="miter" fill="none" stroke="#f1bc20" d="M 0 0 L 103.008 0 "/>
<path transform="matrix(1,0,0,-1,250.3937,552.77676)" stroke-width=".5" stroke-linecap="butt" stroke-miterlimit="10" stroke-linejoin="miter" fill="none" stroke="#f1bc20" d="M 0 0 L 130.866 0 "/>
<path transform="matrix(1,0,0,-1,381.2598,552.77676)" stroke-width=".5" stroke-linecap="butt" stroke-miterlimit="10" stroke-linejoin="miter" fill="none" stroke="#f1bc20" d="M 0 0 L 142.963 0 "/>
<path transform="matrix(1,0,0,-1,70.8661,592.46536)" stroke-width=".5" stroke-linecap="butt" stroke-miterlimit="10" stroke-linejoin="miter" fill="none" stroke="#f1bc20" d="M 0 0 L 76.519 0 "/>
<path transform="matrix(1,0,0,-1,147.3852,592.46536)" stroke-width=".5" stroke-linecap="butt" stroke-miterlimit="10" stroke-linejoin="miter" fill="none" stroke="#f1bc20" d="M 0 0 L 103.008 0 "/>
<path transform="matrix(1,0,0,-1,250.3937,592.46536)" stroke-width=".5" stroke-linecap="butt" stroke-miterlimit="10" stroke-linejoin="miter" fill="none" stroke="#f1bc20" d="M 0 0 L 130.866 0 "/>
<path transform="matrix(1,0,0,-1,381.2598,592.46536)" stroke-width=".5" stroke-linecap="butt" stroke-miterlimit="10" stroke-linejoin="miter" fill="none" stroke="#f1bc20" d="M 0 0 L 142.963 0 "/>
<path transform="matrix(1,0,0,-1,70.8661,642.9538)" stroke-width=".5" stroke-linecap="butt" stroke-miterlimit="10" stroke-linejoin="miter" fill="none" stroke="#f1bc20" d="M 0 0 L 76.519 0 "/>
<path transform="matrix(1,0,0,-1,147.3852,642.9538)" stroke-width=".5" stroke-linecap="butt" stroke-miterlimit="10" stroke-linejoin="miter" fill="none" stroke="#f1bc20" d="M 0 0 L 103.008 0 "/>
<path transform="matrix(1,0,0,-1,250.3937,642.9538)" stroke-width=".5" stroke-linecap="butt" stroke-miterlimit="10" stroke-linejoin="miter" fill="none" stroke="#f1bc20" d="M 0 0 L 130.866 0 "/>
<path transform="matrix(1,0,0,-1,381.2598,642.9538)" stroke-width=".5" stroke-linecap="butt" stroke-miterlimit="10" stroke-linejoin="miter" fill="none" stroke="#f1bc20" d="M 0 0 L 142.963 0 "/>
<path transform="matrix(1,0,0,-1,70.8661,674.495)" stroke-width=".5" stroke-linecap="butt" stroke-miterlimit="10" stroke-linejoin="miter" fill="none" stroke="#f1bc20" d="M 0 0 L 76.519 0 "/>
<path transform="matrix(1,0,0,-1,147.3852,674.495)" stroke-width=".5" stroke-linecap="butt" stroke-miterlimit="10" stroke-linejoin="miter" fill="none" stroke="#f1bc20" d="M 0 0 L 103.008 0 "/>
<path transform="matrix(1,0,0,-1,250.3937,674.495)" stroke-width=".5" stroke-linecap="butt" stroke-miterlimit="10" stroke-linejoin="miter" fill="none" stroke="#f1bc20" d="M 0 0 L 130.866 0 "/>
<path transform="matrix(1,0,0,-1,381.2598,674.495)" stroke-width=".5" stroke-linecap="butt" stroke-miterlimit="10" stroke-linejoin="miter" fill="none" stroke="#f1bc20" d="M 0 0 L 142.963 0 "/>
<g id="Layer-1" data-name="Span">
</g>
<g id="Layer-1" data-name="Span">
</g>
<g id="Layer-1" data-name="Span">
</g>
<g id="Layer-1" data-name="Span">
</g>
<g id="Layer-1" data-name="Span">
</g>
<g id="Layer-1" data-name="Span">
</g>
<g id="Layer-1" data-name="Span">
<text fill="#f1bc20" xml:space="preserve" transform="matrix(1 0 -0 1 0 841.89)" font-size="12" font-family="Roboto" font-weight="bold"><tspan y="-748.286" x="74.8661 82.89289 90.49489 93.90529 99.07369 106.086498 113.095699 119.983699 122.971698 130.4225 137.14731 143.2949 146.4821 152.9261 156.1193 162.3953 165.3833 168.57889 175.3745 182.1185 185.3033 191.7053 198.1493 202.1357 208.9133 213.0965 219.4565">GRI-400 Sosiale indikatorer</tspan></text>
<text fill="#f1bc20" xml:space="preserve" transform="matrix(1 0 -0 1 0 841.89)" font-size="10" font-family="Roboto" font-weight="bold"><tspan y="-714.6527" x="76.5354 83.3134 89.7434 92.6784 97.0084 100.017398 105.76039 111.46039 114.19039 119.61039 125.05739 128.46439 134.19239 153.05539 159.55539 164.8564 170.0904 175.6164 179.2094 181.93741 186.9534 192.2984 195.0084 200.2014 256.06538 262.32038 265.07038 270.80738 276.03739 278.5274 282.1004 287.5754 293.33143 299.07743 304.8044 308.66743 386.93537 393.96235 397.37236 402.71635 405.45335 410.90034 414.31034 419.65434 422.36534 427.55833 432.93534">GRI-IndikatorBeskrivelseSide rapportUtelatelser</tspan><tspan y="-656.7227" x="76.54538 82.47338 88.30638 94.06039 97.50539">403-1</tspan></text>
</g>
<g id="Layer-1" data-name="Span">
</g>
<g id="Layer-1" data-name="Span">
</g>
<text fill="#231f20" xml:space="preserve" transform="matrix(1 0 -0 1 0 841.89)" font-size="9" font-family="Roboto"><tspan y="-667.8958" x="153.0545 159.4445 164.11641 166.0964 170.72962 175.39252 177.11511 179.30211 187.28241 189.2624 191.3135 193.45732 198.47122">Helse, milj&#x00f8; </tspan><tspan y="-657.0958" x="153.0545 158.1485 163.1435 165.33049 169.91509 171.93109 176.5076 180.7754 185.4806 188.6558 193.72191 198.39922 201.28823">og sikkerhet </tspan><tspan y="-646.29586" x="153.0545 157.66971 160.83322 165.34041 168.48502 170.50102 175.56533 180.56032 185.18813 189.74213 194.01712 198.78443 201.53394 206.24904">styringssystem</tspan></text>
<path transform="matrix(1,0,0,-1,274.5794,190.8534)" stroke-width=".439" stroke-linecap="butt" stroke-miterlimit="10" stroke-linejoin="miter" fill="none" stroke="#1e5e9e" d="M 0 0 L 10.066 0 "/>
<g id="Layer-1" data-name="Span">
</g>
<g id="Layer-1" data-name="Span">
</g>
<g id="Layer-1" data-name="Span">
<text fill="#231f20" xml:space="preserve" transform="matrix(1 0 -0 1 0 841.89)" font-size="9" font-family="Roboto"><tspan y="-662.4957" x="256.063 262.219 268.0816 270.5602 274.4212 279.72129 284.95298 289.93898 292.12599 297.7042 302.7442 307.309 309.32499 314.176 316.25679 320.9098 323.0968 325.1128 330.1681 335.1721 337.18809 341.68089 346.4752 349.2292 354.3097 357.322 362.0272 365.05119">GRI-400 Sosiale indikatorer </tspan><tspan y="-651.69577" x="256.063 260.599 262.68879 267.75669 272.3917">side </tspan></text>
</g>
<g id="Layer-1" data-name="Span">
<text fill="#1e5e9e" xml:space="preserve" transform="matrix(1 0 -0 1 0 841.89)" font-size="9" font-family="Roboto"><tspan y="-651.69577" x="274.576 279.526">81</tspan></text>
</g>
<g id="Layer-1" data-name="Span">
<text fill="#f1bc20" xml:space="preserve" transform="matrix(1 0 -0 1 0 841.89)" font-size="10" font-family="Roboto" font-weight="bold"><tspan y="-617.0322" x="76.5354 82.4634 88.2964 94.05041 97.8534">403-2</tspan></text>
</g>
<g id="Layer-1" data-name="Span">
</g>
<g id="Layer-1" data-name="Span">
</g>
<text fill="#231f20" xml:space="preserve" transform="matrix(1 0 -0 1 0 841.89)" font-size="9" font-family="Roboto"><tspan y="-628.2072" x="153.0545 157.95142 162.80962 165.82192 170.49382 172.55661 177.62451 182.34952 187.29772 190.20021 192.35842 195.40941 197.2409 201.8471 206.57212 209.6681 211.7363 216.7736 221.91172 223.63431">Fareidentifisering, </tspan><tspan y="-617.4072" x="153.0545 156.19911 158.20972 162.77452 164.79053 169.08983 174.03803 178.54073 183.57892 186.60292 191.67082 196.37602 199.52063 201.53664 206.60094 211.59593 213.78293 218.89403 223.88903">risikovurdering og </tspan><tspan y="-606.60726" x="153.0545 158.1206 162.82669 167.87209 172.93909 177.61098 179.62068 184.20168 188.88169 193.46268 198.16788 201.32688 204.07637 208.78159 212.16199 214.95558 220.03609 223.14289 227.74188 232.26168 234.30467 239.27268">hendelsesetterforsking</tspan></text>
<path transform="matrix(1,0,0,-1,274.5794,230.54199)" stroke-width=".439" stroke-linecap="butt" stroke-miterlimit="10" stroke-linejoin="miter" fill="none" stroke="#1e5e9e" d="M 0 0 L 10.066 0 "/>
<g id="Layer-1" data-name="Span">
</g>
<g id="Layer-1" data-name="Span">
</g>
<g id="Layer-1" data-name="Span">
<text fill="#231f20" xml:space="preserve" transform="matrix(1 0 -0 1 0 841.89)" font-size="9" font-family="Roboto"><tspan y="-622.8071" x="256.063 262.219 268.0816 270.5602 274.4212 279.72129 284.95298 289.93898 292.12599 297.7042 302.7442 307.309 309.32499 314.176 316.25679 320.9098 323.0968 325.1128 330.1681 335.1721 337.18809 341.68089 346.4752 349.2292 354.3097 357.322 362.0272 365.05119">GRI-400 Sosiale indikatorer </tspan><tspan y="-612.00717" x="256.063 260.599 262.68879 267.75669 272.3917">side </tspan></text>
</g>
<g id="Layer-1" data-name="Span">
<text fill="#1e5e9e" xml:space="preserve" transform="matrix(1 0 -0 1 0 841.89)" font-size="9" font-family="Roboto"><tspan y="-612.00717" x="274.576 279.526">81</tspan></text>
</g>
<g id="Layer-1" data-name="Span">
<text fill="#f1bc20" xml:space="preserve" transform="matrix(1 0 -0 1 0 841.89)" font-size="10" font-family="Roboto" font-weight="bold"><tspan y="-581.4172" x="76.5354 82.4634 88.2964 94.05041 98.21541">403-3</tspan></text>
</g>
<text fill="#231f20" xml:space="preserve" transform="matrix(1 0 -0 1 0 841.89)" font-size="9" font-family="Roboto"><tspan y="-581.7922" x="153.0545 158.79741 163.52152 168.54352 171.69713 173.73113 176.96302 179.8484 184.42041 189.5135 194.18451 196.1942 200.8004 205.4786 208.3694 210.49971 215.20491 220.26741 224.93842 229.53563 232.28513 236.99033">Bedriftshelsetjenesten</tspan></text>
<path transform="matrix(1,0,0,-1,274.5794,266.15705)" stroke-width=".439" stroke-linecap="butt" stroke-miterlimit="10" stroke-linejoin="miter" fill="none" stroke="#1e5e9e" d="M 0 0 L 10.066 0 "/>
<g id="Layer-1" data-name="Span">
</g>
<g id="Layer-1" data-name="Span">
</g>
<g id="Layer-1" data-name="Span">
<text fill="#231f20" xml:space="preserve" transform="matrix(1 0 -0 1 0 841.89)" font-size="9" font-family="Roboto"><tspan y="-587.1923" x="256.063 262.219 268.0816 270.5602 274.4212 279.72129 284.95298 289.93898 292.12599 297.7042 302.7442 307.309 309.32499 314.176 316.25679 320.9098 323.0968 325.1128 330.1681 335.1721 337.18809 341.68089 346.4752 349.2292 354.3097 357.322 362.0272 365.05119">GRI-400 Sosiale indikatorer </tspan><tspan y="-576.39236" x="256.063 260.599 262.68879 267.75669 272.3917">side </tspan></text>
</g>
<g id="Layer-1" data-name="Span">
<text fill="#1e5e9e" xml:space="preserve" transform="matrix(1 0 -0 1 0 841.89)" font-size="9" font-family="Roboto"><tspan y="-576.39236" x="274.576 279.526">81</tspan></text>
</g>
<g id="Layer-1" data-name="Span">
<text fill="#f1bc20" xml:space="preserve" transform="matrix(1 0 -0 1 0 841.89)" font-size="10" font-family="Roboto" font-weight="bold"><tspan y="-545.8024" x="76.5354 82.4634 88.2964 94.05041 98.4484">403-4</tspan></text>
</g>
<g id="Layer-1" data-name="Span">
</g>
<g id="Layer-1" data-name="Span">
</g>
<text fill="#231f20" xml:space="preserve" transform="matrix(1 0 -0 1 0 841.89)" font-size="9" font-family="Roboto"><tspan y="-556.9774" x="153.0545 160.88359 165.6077 170.6477 175.4897 178.682 183.7769 188.4479 190.4819 195.57592 200.28112 203.45632 208.51792 213.18892 217.75463">Medarbeidernes </tspan><tspan y="-546.1774" x="153.0545 161.0888 165.81381 170.8988 175.3637 177.3797 180.58101 185.13141 190.139 192.15502 197.22022 202.21521 204.4022 206.41822 208.60521 215.0177 222.8369 228.326">medvirkning i HMS-</tspan><tspan y="-535.37747" x="153.0545 157.8965 161.0888 166.1837 170.8547 172.8887 177.98271 182.66002">arbeidet</tspan></text>
<path transform="matrix(1,0,0,-1,274.5794,301.7718)" stroke-width=".439" stroke-linecap="butt" stroke-miterlimit="10" stroke-linejoin="miter" fill="none" stroke="#1e5e9e" d="M 0 0 L 10.275 0 "/>
<g id="Layer-1" data-name="Span">
</g>
<g id="Layer-1" data-name="Span">
</g>
<g id="Layer-1" data-name="Span">
<text fill="#231f20" xml:space="preserve" transform="matrix(1 0 -0 1 0 841.89)" font-size="9" font-family="Roboto"><tspan y="-551.5773" x="256.063 262.219 268.0816 270.5602 274.4212 279.72129 284.95298 289.93898 292.12599 297.7042 302.7442 307.309 309.32499 314.176 316.25679 320.9098 323.0968 325.1128 330.1681 335.1721 337.18809 341.68089 346.4752 349.2292 354.3097 357.322 362.0272 365.05119">GRI-400 Sosiale indikatorer </tspan><tspan y="-540.7773" x="256.063 260.599 262.68879 267.75669 272.3917">side </tspan></text>
</g>
<g id="Layer-1" data-name="Span">
<text fill="#1e5e9e" xml:space="preserve" transform="matrix(1 0 -0 1 0 841.89)" font-size="9" font-family="Roboto"><tspan y="-540.7773" x="274.576 279.733">82</tspan></text>
</g>
<g id="Layer-1" data-name="Span">
<text fill="#f1bc20" xml:space="preserve" transform="matrix(1 0 -0 1 0 841.89)" font-size="10" font-family="Roboto" font-weight="bold"><tspan y="-510.1874" x="76.5354 82.463397 88.296398 94.05039 98.30039">403-5</tspan></text>
</g>
<text fill="#231f20" xml:space="preserve" transform="matrix(1 0 -0 1 0 841.89)" font-size="9" font-family="Roboto"><tspan y="-510.5624" x="153.0545 159.42201 167.24121 172.7294 176.702 181.7816 186.8342 191.8652 193.8992 201.5402 204.9638 207.0068 211.97481">HMS-oppl&#x00e6;ring</tspan></text>
<path transform="matrix(1,0,0,-1,274.5794,337.38673)" stroke-width=".439" stroke-linecap="butt" stroke-miterlimit="10" stroke-linejoin="miter" fill="none" stroke="#1e5e9e" d="M 0 0 L 10.275 0 "/>
<g id="Layer-1" data-name="Span">
</g>
<g id="Layer-1" data-name="Span">
</g>
<g id="Layer-1" data-name="Span">
<text fill="#231f20" xml:space="preserve" transform="matrix(1 0 -0 1 0 841.89)" font-size="9" font-family="Roboto"><tspan y="-515.9625" x="256.063 262.219 268.0816 270.5602 274.4212 279.72129 284.95298 289.93898 292.12599 297.7042 302.7442 307.309 309.32499 314.176 316.25679 320.9098 323.0968 325.1128 330.1681 335.1721 337.18809 341.68089 346.4752 349.2292 354.3097 357.322 362.0272 365.05119">GRI-400 Sosiale indikatorer </tspan><tspan y="-505.16255" x="256.063 260.599 262.68879 267.75669 272.3917">side </tspan></text>
</g>
<g id="Layer-1" data-name="Span">
<text fill="#1e5e9e" xml:space="preserve" transform="matrix(1 0 -0 1 0 841.89)" font-size="9" font-family="Roboto"><tspan y="-505.16255" x="274.576 279.733">82</tspan></text>
</g>
<g id="Layer-1" data-name="Span">
<text fill="#f1bc20" xml:space="preserve" transform="matrix(1 0 -0 1 0 841.89)" font-size="10" font-family="Roboto" font-weight="bold"><tspan y="-478.6462" x="76.5354 82.4634 88.2964 94.05041 98.5164">403-6</tspan></text>
</g>
<g id="Layer-1" data-name="Span">
</g>
<text fill="#231f20" xml:space="preserve" transform="matrix(1 0 -0 1 0 841.89)" font-size="9" font-family="Roboto"><tspan y="-484.4212" x="153.0545 157.93881 160.95111 165.66532 173.67981 181.71411 186.36711 188.55411 193.28092 197.60991">Fremme av </tspan><tspan y="-473.62123" x="153.0545 157.9145 161.0888 166.18372 170.87271 172.91841 177.92601 182.516 185.48961 190.34961 194.6174 199.3226 202.3826 207.01129 209.1983 214.2644 218.9534 220.9451 225.5513">arbeidstakers helse</tspan></text>
<path transform="matrix(1,0,0,-1,274.5794,368.928)" stroke-width=".439" stroke-linecap="butt" stroke-miterlimit="10" stroke-linejoin="miter" fill="none" stroke="#1e5e9e" d="M 0 0 L 10.275 0 "/>
<g id="Layer-1" data-name="Span">
</g>
<g id="Layer-1" data-name="Span">
</g>
<g id="Layer-1" data-name="Span">
<text fill="#231f20" xml:space="preserve" transform="matrix(1 0 -0 1 0 841.89)" font-size="9" font-family="Roboto"><tspan y="-484.4212" x="256.063 262.219 268.0816 270.5602 274.4212 279.72129 284.95298 289.93898 292.12599 297.7042 302.7442 307.309 309.32499 314.176 316.25679 320.9098 323.0968 325.1128 330.1681 335.1721 337.18809 341.68089 346.4752 349.2292 354.3097 357.322 362.0272 365.05119">GRI-400 Sosiale indikatorer </tspan><tspan y="-473.62123" x="256.063 260.599 262.68879 267.75669 272.3917">side </tspan></text>
</g>
<g id="Layer-1" data-name="Span">
<text fill="#1e5e9e" xml:space="preserve" transform="matrix(1 0 -0 1 0 841.89)" font-size="9" font-family="Roboto"><tspan y="-473.62123" x="274.576 279.733">82</tspan></text>
</g>
<g id="Layer-1" data-name="Span">
<text fill="#f1bc20" xml:space="preserve" transform="matrix(1 0 -0 1 0 841.89)" font-size="10" font-family="Roboto" font-weight="bold"><tspan y="-421.4313" x="76.5354 82.4634 88.2964 94.05041 97.64441">403-7</tspan></text>
</g>
<g id="Layer-1" data-name="Span">
</g>
<g id="Layer-1" data-name="Span">
</g>
<g id="Layer-1" data-name="Span">
</g>
<g id="Layer-1" data-name="Span">
</g>
<g id="Layer-1" data-name="Span">
</g>
<g id="Layer-1" data-name="Span">
</g>
<text fill="#231f20" xml:space="preserve" transform="matrix(1 0 -0 1 0 841.89)" font-size="9" font-family="Roboto"><tspan y="-454.2063" x="153.0545 158.0666 163.1462 166.1585 170.8646 175.80019 180.13639 185.18538 190.18038 192.19638 197.27867 202.27367 204.46067 209.57176 214.56676">Forebygging og </tspan><tspan y="-443.4063" x="153.0545 158.1485 162.8654 167.9081 170.9204 175.6265 180.60889 185.20879 190.21729 192.23329 197.29759 202.29259 204.47959 209.23969 213.56868">begrensning av </tspan><tspan y="-432.60633" x="153.0545 157.8587 162.4586 167.55261 172.25872 176.98462 179.73323 184.43933 187.46334 189.65033 197.73413 202.45824 207.46224">aspekter med </tspan><tspan y="-421.80635" x="153.0545 157.685 160.84221 163.62412 168.33022 173.05612 175.94513 178.13213 183.19284 188.01685 190.20384 195.07735 200.06064 204.69564 209.49085 212.65076 215.40027 220.05327 224.60727">effekt p&#x00e5; ansattes </tspan><tspan y="-411.00636" x="153.0545 158.1206 162.79251 164.80222 169.40842 174.24411 176.81812 179.00511 185.306 190.301 192.48799 197.06989 199.08589 203.6624 207.9302 212.6363 215.81061 220.87671 225.55492 228.44393">helse- og sikkerhet </tspan><tspan y="-400.20637" x="153.0545 158.0585 160.07451 163.11382 167.81902 172.54582 175.29444 179.94744 182.13443 186.66504 191.58803 196.34723 199.50624 202.25576 206.93396 209.82297 212.00997 214.89897 216.92578 218.94179">direkte knyttet til </tspan><tspan y="-389.40638" x="153.0545 155.84902 160.9286 163.9409 168.61911 171.55222 176.55982 178.57582 183.64012 188.63512 193.22061 196.01512 201.09471 204.26992 209.30002 211.31603 216.38932 221.45632 226.12822 228.13793 232.74413 237.45023">foretningsforbindelser</tspan></text>
<path transform="matrix(1,0,0,-1,274.5794,426.1429)" stroke-width=".439" stroke-linecap="butt" stroke-miterlimit="10" stroke-linejoin="miter" fill="none" stroke="#1e5e9e" d="M 0 0 L 10.275 0 "/>
<g id="Layer-1" data-name="Span">
</g>
<g id="Layer-1" data-name="Span">
</g>
<g id="Layer-1" data-name="Span">
<text fill="#231f20" xml:space="preserve" transform="matrix(1 0 -0 1 0 841.89)" font-size="9" font-family="Roboto"><tspan y="-427.2063" x="256.063 262.219 268.0816 270.5602 274.4212 279.72129 284.95298 289.93898 292.12599 297.7042 302.7442 307.309 309.32499 314.176 316.25679 320.9098 323.0968 325.1128 330.1681 335.1721 337.18809 341.68089 346.4752 349.2292 354.3097 357.322 362.0272 365.05119">GRI-400 Sosiale indikatorer </tspan><tspan y="-416.4063" x="256.063 260.599 262.68879 267.75669 272.3917">side </tspan></text>
</g>
<g id="Layer-1" data-name="Span">
<text fill="#1e5e9e" xml:space="preserve" transform="matrix(1 0 -0 1 0 841.89)" font-size="9" font-family="Roboto"><tspan y="-416.4063" x="274.576 279.733">82</tspan></text>
</g>
<g id="Layer-1" data-name="Span">
<text fill="#f1bc20" xml:space="preserve" transform="matrix(1 0 -0 1 0 841.89)" font-size="10" font-family="Roboto" font-weight="bold"><tspan y="-364.2164" x="76.5354 82.4634 88.2964 94.0504 98.3104">403-9</tspan></text>
</g>
<g id="Layer-1" data-name="Span">
</g>
<text fill="#231f20" xml:space="preserve" transform="matrix(1 0 -0 1 0 841.89)" font-size="9" font-family="Roboto"><tspan y="-369.9914" x="153.0545 158.7389 161.91321 167.0072 171.67911 173.74192 178.74591 183.34581 186.35811 191.02912 193.04512 197.86913 200.61864 205.32474 208.75194 211.50145 216.15445">Arbeidsrelaterte </tspan><tspan y="-359.1914" x="153.0545 157.6544 162.11931 166.9658 172.0328 176.738">skader</tspan></text>
<path transform="matrix(1,0,0,-1,274.5794,483.35783)" stroke-width=".439" stroke-linecap="butt" stroke-miterlimit="10" stroke-linejoin="miter" fill="none" stroke="#1e5e9e" d="M 0 0 L 24.368 0 "/>
<g id="Layer-1" data-name="Span">
</g>
<g id="Layer-1" data-name="Span">
</g>
<g id="Layer-1" data-name="Span">
<text fill="#231f20" xml:space="preserve" transform="matrix(1 0 -0 1 0 841.89)" font-size="9" font-family="Roboto"><tspan y="-369.9914" x="256.063 262.219 268.0816 270.5602 274.4212 279.72129 284.95298 289.93898 292.12599 297.7042 302.7442 307.309 309.32499 314.176 316.25679 320.9098 323.0968 325.1128 330.1681 335.1721 337.18809 341.68089 346.4752 349.2292 354.3097 357.322 362.0272 365.05119">GRI-400 Sosiale indikatorer </tspan><tspan y="-359.1914" x="256.063 260.599 262.68879 267.75669 272.3917">side </tspan></text>
</g>
<g id="Layer-1" data-name="Span">
</g>
<g id="Layer-1" data-name="Span">
</g>
<g id="Layer-1" data-name="Span">
<text fill="#1e5e9e" xml:space="preserve" transform="matrix(1 0 -0 1 0 841.89)" font-size="9" font-family="Roboto"><tspan y="-359.1914" x="274.576 279.733 284.54798 288.55299 293.82429">82-83</tspan></text>
</g>
<g id="Layer-1" data-name="Span">
<text fill="#f1bc20" xml:space="preserve" transform="matrix(1 0 -0 1 0 841.89)" font-size="10" font-family="Roboto" font-weight="bold"><tspan y="-332.6752" x="76.5354 82.4634 88.2964 94.05041 97.49541 102.81641">403-10</tspan></text>
</g>
<text fill="#231f20" xml:space="preserve" transform="matrix(1 0 -0 1 0 841.89)" font-size="9" font-family="Roboto"><tspan y="-333.0502" x="153.0545 158.7263 163.23349 167.5013 172.13179 175.0838 178.1078 182.89672 187.2158 195.1331">Sykefrav&#x00e6;r</tspan></text>
<path transform="matrix(1,0,0,-1,274.5794,514.89907)" stroke-width=".439" stroke-linecap="butt" stroke-miterlimit="10" stroke-linejoin="miter" fill="none" stroke="#1e5e9e" d="M 0 0 L 10.386 0 "/>
<g id="Layer-1" data-name="Span">
</g>
<g id="Layer-1" data-name="Span">
</g>
<g id="Layer-1" data-name="Span">
<text fill="#231f20" xml:space="preserve" transform="matrix(1 0 -0 1 0 841.89)" font-size="9" font-family="Roboto"><tspan y="-338.4502" x="256.063 262.219 268.0816 270.5602 274.4212 279.72129 284.95298 289.93898 292.12599 297.7042 302.7442 307.309 309.32499 314.176 316.25679 320.9098 323.0968 325.1128 330.1681 335.1721 337.18809 341.68089 346.4752 349.2292 354.3097 357.322 362.0272 365.05119">GRI-400 Sosiale indikatorer </tspan><tspan y="-327.6502" x="256.063 260.599 262.68879 267.75669 272.3917">side </tspan></text>
</g>
<g id="Layer-1" data-name="Span">
<text fill="#1e5e9e" xml:space="preserve" transform="matrix(1 0 -0 1 0 841.89)" font-size="9" font-family="Roboto"><tspan y="-327.6502" x="274.576 279.8473">83</tspan></text>
</g>
<g id="Layer-1" data-name="Span">
<text fill="#f1bc20" xml:space="preserve" transform="matrix(1 0 -0 1 0 841.89)" font-size="10" font-family="Roboto" font-weight="bold"><tspan y="-301.1339" x="76.5354 81.820407 86.73041 91.93441 95.37941">411-1</tspan></text>
</g>
<g id="Layer-1" data-name="Span">
</g>
<text fill="#231f20" xml:space="preserve" transform="matrix(1 0 -0 1 0 841.89)" font-size="9" font-family="Roboto"><tspan y="-306.9089" x="153.0545 158.7146 161.8979 166.9505 172.0004 177.0044 179.19139 184.2503 189.07431 191.2613 196.3157 199.6952 202.48972 207.54772 209.56372 213.99083 218.54483">Brudd p&#x00e5; urfolks </tspan><tspan y="-296.10893" x="153.0545 156.0668 160.74501 163.904 166.802 168.827 173.9066 178.9727 183.65001 186.3995 191.1056">rettigheter</tspan></text>
<path transform="matrix(1,0,0,-1,274.5794,546.4402)" stroke-width=".439" stroke-linecap="butt" stroke-miterlimit="10" stroke-linejoin="miter" fill="none" stroke="#1e5e9e" d="M 0 0 L 10.472 0 "/>
<g id="Layer-1" data-name="Span">
</g>
<g id="Layer-1" data-name="Span">
</g>
<g id="Layer-1" data-name="Span">
<text fill="#231f20" xml:space="preserve" transform="matrix(1 0 -0 1 0 841.89)" font-size="9" font-family="Roboto"><tspan y="-306.9089" x="256.063 262.219 268.0816 270.5602 274.4212 279.72129 284.95298 289.93898 292.12599 297.7042 302.7442 307.309 309.32499 314.176 316.25679 320.9098 323.0968 325.1128 330.1681 335.1721 337.18809 341.68089 346.4752 349.2292 354.3097 357.322 362.0272 365.05119">GRI-400 Sosiale indikatorer </tspan><tspan y="-296.10893" x="256.063 260.599 262.68879 267.75669 272.3917">side </tspan></text>
</g>
<g id="Layer-1" data-name="Span">
<text fill="#1e5e9e" xml:space="preserve" transform="matrix(1 0 -0 1 0 841.89)" font-size="9" font-family="Roboto"><tspan y="-296.10893" x="274.576 279.931">84</tspan></text>
</g>
<g id="Layer-1" data-name="Span">
<text fill="#f1bc20" xml:space="preserve" transform="matrix(1 0 -0 1 0 841.89)" font-size="10" font-family="Roboto" font-weight="bold"><tspan y="-265.519" x="76.5354 81.820407 87.00541 92.759418 96.204418">413-1</tspan></text>
</g>
<g id="Layer-1" data-name="Span">
</g>
<g id="Layer-1" data-name="Span">
</g>
<text fill="#231f20" xml:space="preserve" transform="matrix(1 0 -0 1 0 841.89)" font-size="9" font-family="Roboto"><tspan y="-276.694" x="153.0545 157.9604 163.04 167.5049 172.3289 174.41062 179.06362 181.25061 185.936 190.9742 196.0214 200.82559 205.3796 207.50989 212.22499 220.2593 224.9654 229.9307 232.9718 234.6908">Lokale engasjement, </tspan><tspan y="-265.894" x="153.0545 158.1566 161.30391 165.7688 167.7848 172.3316 174.34131 176.35732 181.42252 186.41751 191.03542 196.08803 199.11203 204.20693 209.24962 212.27362 217.18492 225.19942 233.23372 237.93892 240.96292">utviklingsprogrammer </tspan><tspan y="-255.09401" x="153.0545 158.1485 163.1435 165.33049 170.402 175.1459 179.6099 181.6259 184.82721 189.37671 194.38521 196.40122 201.46552 206.46051 211.0505 216.0932 219.1172 223.94121">og p&#x00e5;virkningsgrad</tspan></text>
<path transform="matrix(1,0,0,-1,274.5794,582.0552)" stroke-width=".439" stroke-linecap="butt" stroke-miterlimit="10" stroke-linejoin="miter" fill="none" stroke="#1e5e9e" d="M 0 0 L 10.472 0 "/>
<g id="Layer-1" data-name="Span">
</g>
<g id="Layer-1" data-name="Span">
</g>
<g id="Layer-1" data-name="Span">
<text fill="#231f20" xml:space="preserve" transform="matrix(1 0 -0 1 0 841.89)" font-size="9" font-family="Roboto"><tspan y="-271.294" x="256.063 262.219 268.0816 270.5602 274.4212 279.72129 284.95298 289.93898 292.12599 297.7042 302.7442 307.309 309.32499 314.176 316.25679 320.9098 323.0968 325.1128 330.1681 335.1721 337.18809 341.68089 346.4752 349.2292 354.3097 357.322 362.0272 365.05119">GRI-400 Sosiale indikatorer </tspan><tspan y="-260.49403" x="256.063 260.599 262.68879 267.75669 272.3917">side </tspan></text>
</g>
<g id="Layer-1" data-name="Span">
<text fill="#1e5e9e" xml:space="preserve" transform="matrix(1 0 -0 1 0 841.89)" font-size="9" font-family="Roboto"><tspan y="-260.49403" x="274.576 279.931">84</tspan></text>
</g>
<g id="Layer-1" data-name="Span">
<text fill="#f1bc20" xml:space="preserve" transform="matrix(1 0 -0 1 0 841.89)" font-size="10" font-family="Roboto" font-weight="bold"><tspan y="-220.4304" x="76.5354 81.820407 87.11741 92.96541 96.415409">416-1</tspan></text>
</g>
<g id="Layer-1" data-name="Span">
</g>
<g id="Layer-1" data-name="Span">
</g>
<g id="Layer-1" data-name="Span">
</g>
<text fill="#231f20" xml:space="preserve" transform="matrix(1 0 -0 1 0 841.89)" font-size="9" font-family="Roboto"><tspan y="-237.0054" x="153.0545 158.4779 163.5161 166.5401 171.608 176.3132 179.45781 181.47382 186.53812 191.53311 193.72011 198.48021 202.8092 204.9962 210.1388 214.8098 216.8204 221.4266 226.2614 228.8354 231.0224 237.32329 242.31829">Vurdering av helse- og </tspan><tspan y="-226.2054" x="153.0545 157.62021 159.63622 164.21273 168.48143 173.18663 176.36093 181.42704 186.10524 188.99425 193.59415 198.64585 203.38976 207.85465 209.87065 213.07196 217.62146 222.62996 224.64597 229.71027 234.70526">sikkerhetsp&#x00e5;virkning </tspan><tspan y="-215.4054" x="153.0545 156.00652 159.03052 163.85453 166.04152 171.15892 174.18292 179.26792 184.3016 189.3398 194.0657 196.81522 201.52132 204.54532 206.73232 211.87581 216.8708">fra produkter og </tspan><tspan y="-204.6054" x="153.0545 155.9453 158.07559 162.8006 167.8442 172.4972 177.1124 179.861 184.586">tjenester</tspan></text>
<path transform="matrix(1,0,0,-1,274.5794,627.1438)" stroke-width=".439" stroke-linecap="butt" stroke-miterlimit="10" stroke-linejoin="miter" fill="none" stroke="#1e5e9e" d="M 0 0 L 10.472 0 "/>
<g id="Layer-1" data-name="Span">
</g>
<g id="Layer-1" data-name="Span">
</g>
<g id="Layer-1" data-name="Span">
<text fill="#231f20" xml:space="preserve" transform="matrix(1 0 -0 1 0 841.89)" font-size="9" font-family="Roboto"><tspan y="-226.2054" x="256.063 262.219 268.0816 270.5602 274.4212 279.72129 284.95298 289.93898 292.12599 297.7042 302.7442 307.309 309.32499 314.176 316.25679 320.9098 323.0968 325.1128 330.1681 335.1721 337.18809 341.68089 346.4752 349.2292 354.3097 357.322 362.0272 365.05119">GRI-400 Sosiale indikatorer </tspan><tspan y="-215.4054" x="256.063 260.599 262.68879 267.75669 272.3917">side </tspan></text>
</g>
<g id="Layer-1" data-name="Span">
<text fill="#1e5e9e" xml:space="preserve" transform="matrix(1 0 -0 1 0 841.89)" font-size="9" font-family="Roboto"><tspan y="-215.4054" x="274.576 279.931">84</tspan></text>
</g>
<g id="Layer-1" data-name="Span">
<text fill="#f1bc20" xml:space="preserve" transform="matrix(1 0 -0 1 0 841.89)" font-size="10" font-family="Roboto" font-weight="bold"><tspan y="-179.4155" x="76.5354 81.820407 87.11741 92.96541 96.7684">416-2</tspan></text>
</g>
<g id="Layer-1" data-name="Span">
</g>
<text fill="#231f20" xml:space="preserve" transform="matrix(1 0 -0 1 0 841.89)" font-size="9" font-family="Roboto"><tspan y="-185.1905" x="153.0545 158.3672 163.1003 167.56519 169.58119 173.9912 176.17819 181.26949 186.09349 188.28049 193.36638 198.03739 200.04799 204.65329 209.3162 211.03519 213.22219 221.20789 223.21669 225.2417 227.3846 232.3976 234.5846 239.68219 244.67719">Avvik p&#x00e5; helse, milj&#x00f8; og </tspan><tspan y="-174.3905" x="153.0545 157.62021 159.63622 164.21273 168.48143 173.18663 176.36093 181.42704 186.10524 188.99425 191.18125 193.19725 195.38425 200.51604 205.24015 210.27474 213.41934 215.47675 218.68166 221.43117 226.13727">sikkerhet i bedriften</tspan></text>
<path transform="matrix(1,0,0,-1,274.5794,668.1587)" stroke-width=".439" stroke-linecap="butt" stroke-miterlimit="10" stroke-linejoin="miter" fill="none" stroke="#1e5e9e" d="M 0 0 L 10.472 0 "/>
<g id="Layer-1" data-name="Span">
</g>
<g id="Layer-1" data-name="Span">
</g>
<g id="Layer-1" data-name="Span">
<text fill="#231f20" xml:space="preserve" transform="matrix(1 0 -0 1 0 841.89)" font-size="9" font-family="Roboto"><tspan y="-185.1905" x="256.063 262.219 268.0816 270.5602 274.4212 279.72129 284.95298 289.93898 292.12599 297.7042 302.7442 307.309 309.32499 314.176 316.25679 320.9098 323.0968 325.1128 330.1681 335.1721 337.18809 341.68089 346.4752 349.2292 354.3097 357.322 362.0272 365.05119">GRI-400 Sosiale indikatorer </tspan><tspan y="-174.3905" x="256.063 260.599 262.68879 267.75669 272.3917">side </tspan></text>
</g>
<g id="Layer-1" data-name="Span">
<text fill="#1e5e9e" xml:space="preserve" transform="matrix(1 0 -0 1 0 841.89)" font-size="9" font-family="Roboto"><tspan y="-174.3905" x="274.576 279.931">84</tspan></text>
</g>
<g id="Layer-1" data-name="Span">
<text fill="#f1bc20" xml:space="preserve" transform="matrix(1 0 -0 1 0 841.89)" font-size="10" font-family="Roboto" font-weight="bold"><tspan y="-138.4007" x="76.5354 81.820407 87.0304 92.8774 96.3224">419-1</tspan></text>
</g>
<g id="Layer-1" data-name="Span">
</g>
<g id="Layer-1" data-name="Span">
</g>
<g id="Layer-1" data-name="Span">
</g>
<text fill="#231f20" xml:space="preserve" transform="matrix(1 0 -0 1 0 841.89)" font-size="9" font-family="Roboto"><tspan y="-154.9756" x="153.0545 158.7146 161.8979 166.9505 172.0004 177.0044 179.19139 184.2503 189.07431 191.2613 193.37181 198.32 202.6634 207.3695 210.39351 212.5805 217.724 222.719">Brudd p&#x00e5; lover og </tspan><tspan y="-144.1756" x="153.0545 156.0668 160.7837 165.7787 167.8775 172.5836 175.6076 177.7946 182.3936 187.31659 192.07579 195.2357 197.98432 202.66252 205.55153 207.73853 210.62754 212.65435 214.67035">regler knyttet til </tspan><tspan y="-133.3756" x="153.0545 157.6904 162.5414 170.4299 173.3909 178.3589 183.3269 188.45421 193.0352 201.09741 205.74951 210.3305 214.9232 216.977 222.05211 226.68442">samfunnsmessige </tspan><tspan y="-122.57559" x="153.0545 155.849 160.9286 164.10379 169.1825 174.2396 176.30329">forhold</tspan></text>
<path transform="matrix(1,0,0,-1,274.5794,709.1735)" stroke-width=".439" stroke-linecap="butt" stroke-miterlimit="10" stroke-linejoin="miter" fill="none" stroke="#1e5e9e" d="M 0 0 L 10.472 0 "/>
<g id="Layer-1" data-name="Span">
</g>
<g id="Layer-1" data-name="Span">
</g>
<g id="Layer-1" data-name="Span">
<text fill="#231f20" xml:space="preserve" transform="matrix(1 0 -0 1 0 841.89)" font-size="9" font-family="Roboto"><tspan y="-144.1756" x="256.063 262.219 268.0816 270.5602 274.4212 279.72129 284.95298 289.93898 292.12599 297.7042 302.7442 307.309 309.32499 314.176 316.25679 320.9098 323.0968 325.1128 330.1681 335.1721 337.18809 341.68089 346.4752 349.2292 354.3097 357.322 362.0272 365.05119">GRI-400 Sosiale indikatorer </tspan><tspan y="-133.3756" x="256.063 260.599 262.68879 267.75669 272.3917">side </tspan></text>
</g>
<g id="Layer-1" data-name="Span">
<text fill="#1e5e9e" xml:space="preserve" transform="matrix(1 0 -0 1 0 841.89)" font-size="9" font-family="Roboto"><tspan y="-133.3756" x="274.576 279.931">84</tspan></text>
</g>
<g id="Layer-1" data-name="Span">
</g>
<text fill="#404041" xml:space="preserve" transform="matrix(1 0 -0 1 0 841.89)" font-size="7" font-family="Roboto"><tspan y="-29.016" x="485.2021 490.0391 494.61149 496.69819 499.36518 503.19908 507.85548 512.47549 516.50399 520.54299">GRI-TABELL</tspan></text>
<text fill="#404041" xml:space="preserve" transform="matrix(1 0 -0 1 0 841.89)" font-size="8" font-family="Roboto" font-weight="bold"><tspan y="-44.7402" x="515.2297 519.82168">91</tspan></text>
<g id="Layer-1" data-name="Artifact">
<clipPath id="cp757">
<path transform="matrix(1,0,0,-1,0,841.89)" d="M 0 0 L 595.276 0 L 595.276 841.89 L 0 841.89 Z "/>
</clipPath>
<g clip-path="url(#cp757)">
<path transform="matrix(1,0,0,-1,524.4094,802.3869)" stroke-width=".5" stroke-linecap="butt" stroke-miterlimit="4" stroke-linejoin="miter" fill="none" stroke="#404041" d="M 0 0 L -1048.819 0 "/>
</g>
<g id="Layer-1" data-name="Span">
</g>
<text fill="#404041" xml:space="preserve" transform="matrix(1 0 -0 1 0 841.89)" font-size="5" font-family="Roboto" font-weight="bold"><tspan y="-805.9686" x="403.5553 406.88529 410.07029 413.03529 415.6378 418.81779 422.34779 425.67778 428.50178 431.68177 434.86677 437.95677 439.20176 442.38175">GRATANGLAKS AS</tspan></text>
</g>
<g id="Layer-1" data-name="Span">
</g>
<g id="Layer-1" data-name="Span">
<text fill="#595959" xml:space="preserve" transform="matrix(1 0 -0 1 0 841.89)" font-size="5" font-family="Roboto"><tspan y="-805.9686" x="451.8321 455.1171 459.9621 463.2121 466.2221 469.5271 472.7771 476.2071 479.1901 482.30509 485.4401 488.6901 492.1201 495.4451 498.7701 502.3801 505.4336">B&#x00c6;REKRAFTSRAPPORT</tspan></text>
</g>
<text fill="#404041" xml:space="preserve" transform="matrix(1 0 -0 1 0 841.89)" font-size="5" font-family="Roboto" font-weight="bold"><tspan y="-805.9686" x="512.3771 515.2471 518.11709 520.98709">2020</tspan></text>
<g id="Layer-1" data-name="Artifact">
<clipPath id="cp758">
<path transform="matrix(1,0,0,-1,0,841.89)" d="M 0 0 L 595.276 0 L 595.276 841.89 L 0 841.89 Z "/>
</clipPath>
<g clip-path="url(#cp758)">
<path transform="matrix(1,0,0,-1,-524.4094,39.3869)" stroke-width=".5" stroke-linecap="butt" stroke-miterlimit="4" stroke-linejoin="miter" fill="none" stroke="#404041" d="M 0 0 L 1048.819 0 "/>
</g>
</g>
</g>
</g>
</svg>
