<?xml version="1.0" encoding="UTF-8" standalone="no"?>
<!DOCTYPE svg PUBLIC "-//W3C//DTD SVG 1.1//EN" "http://www.w3.org/Graphics/SVG/1.1/DTD/svg11.dtd">
<svg xmlns="http://www.w3.org/2000/svg" xmlns:xlink="http://www.w3.org/1999/xlink" version="1.1" width="595.276pt" height="841.89pt" viewBox="0 0 595.276 841.89">
<g enable-background="new">
<g>
<path transform="matrix(1,0,0,-1,70.8661,143.20893)" stroke-width="1" stroke-linecap="butt" stroke-miterlimit="10" stroke-linejoin="miter" fill="none" stroke="#231f20" d="M 0 0 L 130.835 0 "/>
<path transform="matrix(1,0,0,-1,201.7011,143.20893)" stroke-width="1" stroke-linecap="butt" stroke-miterlimit="10" stroke-linejoin="miter" fill="none" stroke="#231f20" d="M 0 0 L 64.504 0 "/>
<path transform="matrix(1,0,0,-1,266.2054,143.20893)" stroke-width="1" stroke-linecap="butt" stroke-miterlimit="10" stroke-linejoin="miter" fill="none" stroke="#231f20" d="M 0 0 L 64.504 0 "/>
<path transform="matrix(1,0,0,-1,330.7098,143.20893)" stroke-width="1" stroke-linecap="butt" stroke-miterlimit="10" stroke-linejoin="miter" fill="none" stroke="#231f20" d="M 0 0 L 64.504 0 "/>
<path transform="matrix(1,0,0,-1,395.2141,143.20893)" stroke-width="1" stroke-linecap="butt" stroke-miterlimit="10" stroke-linejoin="miter" fill="none" stroke="#231f20" d="M 0 0 L 64.504 0 "/>
<path transform="matrix(1,0,0,-1,459.7184,143.20893)" stroke-width="1" stroke-linecap="butt" stroke-miterlimit="10" stroke-linejoin="miter" fill="none" stroke="#231f20" d="M 0 0 L 64.504 0 "/>
<g id="Layer-1" data-name="Span">
</g>
<g id="Layer-1" data-name="Span">
<text fill="#231f20" xml:space="preserve" transform="matrix(1 0 -0 1 0 841.89)" font-size="9" font-family="Roboto"><tspan y="-705.0801" x="74.8661 80.7548 86.8802 91.8662 94.0532 99.157108 102.046108 106.61091 108.620609 110.636608 115.7171 120.7031 122.8901 125.5964 128.3495 133.43 138.46639 143.16078">CO2 utslipp (tonn)</tspan></text>
</g>
<g id="Layer-1" data-name="Span">
</g>
<g id="Layer-1" data-name="Span">
</g>
<g id="Layer-1" data-name="Span">
</g>
<g id="Layer-1" data-name="Span">
</g>
<g id="Layer-1" data-name="Span">
<text fill="#10a79d" xml:space="preserve" transform="matrix(1 0 -0 1 0 841.89)" font-size="12" font-family="Roboto" font-weight="bold"><tspan y="-703.9551" x="234.6664 241.5544 248.4424 255.3304 299.16639 306.05439 312.94239 319.83039 363.66639 370.55439 377.44239 384.33039 428.16639 435.05439 441.94239 448.83039 492.66639 499.55439 506.44239 513.3304">20162017201820192020</tspan></text>
</g>
<g id="Layer-1" data-name="Span">
<text fill="#231f20" xml:space="preserve" transform="matrix(1 0 -0 1 0 841.89)" font-size="9" font-family="Roboto"><tspan y="-686.5669" x="74.8661 80.76109 82.77709 87.43009 91.98409 96.63709">Diesel</tspan></text>
</g>
<g id="Layer-1" data-name="Span">
</g>
<g id="Layer-1" data-name="Span">
</g>
<g id="Layer-1" data-name="Span">
</g>
<g id="Layer-1" data-name="Span">
<text fill="#2b3b52" xml:space="preserve" transform="matrix(1 0 -0 1 0 841.89)" font-size="9" font-family="Roboto"><tspan y="-686.5669" x="247.05411 252.07611 257.2214 311.32313 316.53233 321.7253 376.21315 381.10914 386.22834 440.67115 445.85874 450.72773">599583522947</tspan></text>
</g>
<g id="Layer-1" data-name="Span">
</g>
<g id="Layer-1" data-name="Span">
</g>
<g id="Layer-1" data-name="Span">
</g>
<g id="Layer-1" data-name="Span">
</g>
<g id="Layer-1" data-name="Span">
</g>
<g id="Layer-1" data-name="Span">
</g>
<g id="Layer-1" data-name="Span">
</g>
<g id="Layer-1" data-name="Span">
</g>
<g id="Layer-1" data-name="Span">
</g>
<g id="Layer-1" data-name="Span">
</g>
<g id="Layer-1" data-name="Span">
</g>
<g id="Layer-1" data-name="Span">
</g>
<g id="Layer-1" data-name="Span">
</g>
<g id="Layer-1" data-name="Span">
</g>
<g id="Layer-1" data-name="Span">
</g>
<g id="Layer-1" data-name="Span">
</g>
<g id="Layer-1" data-name="Span">
</g>
<g id="Layer-1" data-name="Span">
</g>
<g id="Layer-1" data-name="Span">
<text fill="#231f20" xml:space="preserve" transform="matrix(1 0 -0 1 0 841.89)" font-size="9" font-family="Roboto"><tspan y="-686.5669" x="505.00315 510.13584 515.22988">665</tspan><tspan y="-670.0879" x="74.86615 80.38315 85.03615 89.97715 94.53115 96.54715 252.81415 257.22056 317.37117 321.72715 381.16316 386.23014 445.80116 450.73316 510.12416 515.23617">Bensin1315202529</tspan><tspan y="-653.6089" x="74.86615 80.38315 82.39915 87.43915 90.41815 95.35915 100.01215 102.02815 257.21516 321.71815 376.13215 381.19197 386.22297 450.72416 515.2272">Biofuel 0032300</tspan><tspan y="-637.1299" x="74.85718 79.80088 84.84088 87.72988 92.55388 94.56988 97.45888 99.645877 104.586879 107.475879 112.02988 114.045879 116.061878 121.047878 126.033878 128.22087 133.54888 138.18387 143.22386 148.20987 152.86287 155.04987 248.05318 252.85198 257.20799 311.5572 316.5792 321.71189 376.1502 381.4152 386.2122 440.8332 445.7382 450.7161 504.9762 510.0342 515.2218">Totalt utslipp Scope 1612598542972694</tspan></text>
</g>
<g id="Layer-1" data-name="Span">
</g>
<g id="Layer-1" data-name="Span">
<text fill="#404041" xml:space="preserve" transform="matrix(1 0 -0 1 0 841.89)" font-size="9" font-family="Roboto" font-weight="bold"><tspan y="-723.9169" x="70.8522 76.5699 81.3219 86.5131 91.7205 96.4275 98.668498 103.834499 106.07549 112.16129 114.65969 117.90959 122.78489 127.90229 131.01358 135.72058 137.96158 143.17528 146.38558 151.10787 153.57027 156.06867 161.28687">Scope 1 Direkte utslipp</tspan></text>
<text fill="#404041" xml:space="preserve" transform="matrix(1 0 -0 1 0 841.89)" font-size="12" font-family="Roboto"><tspan y="-762.0236" x="70.8661 76.900897 83.452899 90.2821 96.6073 99.6433 102.75371 105.74171 112.58651 119.304119 126.04812 131.00412">Tabell 305-3</tspan></text>
</g>
<g id="Layer-1" data-name="Span">
<text fill="#231f20" xml:space="preserve" transform="matrix(1 0 -0 1 0 841.89)" font-size="9" font-family="Roboto"><tspan y="-587.8263" x="74.8661 79.9025 81.98329 86.70829 91.41619 94.34929 97.44529 99.500888 104.06568 106.17168 108.92117 113.59847">Elektrisitet</tspan></text>
</g>
<g id="Layer-1" data-name="Span">
</g>
<g id="Layer-1" data-name="Span">
</g>
<g id="Layer-1" data-name="Span">
</g>
<g id="Layer-1" data-name="Span">
<text fill="#2b3b52" xml:space="preserve" transform="matrix(1 0 -0 1 0 841.89)" font-size="9" font-family="Roboto"><tspan y="-587.8263" x="252.0311 257.2151 312.0251 316.8491 321.7208 381.22608 386.22108 440.36509 445.5185 450.7232">8024737309</tspan></text>
</g>
<g id="Layer-1" data-name="Span">
</g>
<g id="Layer-1" data-name="Span">
<text fill="#231f20" xml:space="preserve" transform="matrix(1 0 -0 1 0 841.89)" font-size="9" font-family="Roboto"><tspan y="-587.8263" x="510.38508 515.22708">76</tspan><tspan y="-571.5813" x="74.857089 79.54609 84.48619 87.43279 92.25679 94.36189 97.25089 99.43789 104.54899 107.43799 112.00369 114.01249 116.02849 121.108089 126.094089 128.28108 133.87549 138.59238 143.67197 148.76686 153.41986 155.60686">Totalt utslipp Scope 2</tspan></text>
</g>
<g id="Layer-1" data-name="Span">
</g>
<g id="Layer-1" data-name="Span">
</g>
<g id="Layer-1" data-name="Span">
</g>
<g id="Layer-1" data-name="Span">
<text fill="#2b3b52" xml:space="preserve" transform="matrix(1 0 -0 1 0 841.89)" font-size="9" font-family="Roboto"><tspan y="-571.5813" x="252.02208 257.2061 312.01609 316.8401 321.7118 381.2171 386.2121 440.3561 445.50953 450.71424">8024737309</tspan></text>
</g>
<g id="Layer-1" data-name="Span">
</g>
<g id="Layer-1" data-name="Span">
</g>
<g id="Layer-1" data-name="Span">
</g>
<g id="Layer-1" data-name="Span">
</g>
<g id="Layer-1" data-name="Span">
</g>
<g id="Layer-1" data-name="Span">
</g>
<g id="Layer-1" data-name="Span">
<text fill="#231f20" xml:space="preserve" transform="matrix(1 0 -0 1 0 841.89)" font-size="9" font-family="Roboto"><tspan y="-571.5813" x="510.3761 515.2181">76</tspan></text>
<text fill="#231f20" xml:space="preserve" transform="matrix(1 0 -0 1 0 841.89)" font-size="10" font-family="Roboto"><tspan y="-549.2828" x="74.8661 80.0801 85.83211 89.142108 94.602108 97.1591 100.4291 102.9091 108.58011 111.879108 117.08311 119.52811 122.01411 127.727108 133.3371 135.8171 141.9201 147.27611 153.06111 158.76811 164.06812 166.54811 172.1681 174.6481 180.3181 182.7981 245.26612 250.87012 256.5871 309.4161 315.29609 321.09608 374.1961 379.9881 385.6011 433.5961 438.6491 444.3541 450.1071 503.14613 509.02613 514.61618">Totalt utslipp Scope 1 + 26928455791280771</tspan></text>
</g>
<text fill="#404041" xml:space="preserve" transform="matrix(1 0 -0 1 0 841.89)" font-size="9" font-family="Roboto" font-weight="bold"><tspan y="-607.7418" x="70.8661 76.5838 81.3358 86.527 91.7344 96.4414 98.682399 103.8484 106.08939 108.596797 113.82399 119.90979 122.40819 125.65719 130.53339 135.64989 138.76209 143.46909 145.71009 150.92378 154.13318 158.85637 161.31877 163.81627 169.03447">Scope 2 inDirekte utslipp</tspan></text>
<path transform="matrix(1,0,0,-1,69.0945,353.45713)" stroke-width="1" stroke-linecap="butt" stroke-miterlimit="10" stroke-linejoin="miter" fill="none" stroke="#231f20" d="M 0 0 L 130.835 0 "/>
<path transform="matrix(1,0,0,-1,199.9294,353.45713)" stroke-width="1" stroke-linecap="butt" stroke-miterlimit="10" stroke-linejoin="miter" fill="none" stroke="#231f20" d="M 0 0 L 64.504 0 "/>
<path transform="matrix(1,0,0,-1,264.4338,353.45713)" stroke-width="1" stroke-linecap="butt" stroke-miterlimit="10" stroke-linejoin="miter" fill="none" stroke="#231f20" d="M 0 0 L 64.504 0 "/>
<path transform="matrix(1,0,0,-1,328.9381,353.45713)" stroke-width="1" stroke-linecap="butt" stroke-miterlimit="10" stroke-linejoin="miter" fill="none" stroke="#231f20" d="M 0 0 L 64.504 0 "/>
<path transform="matrix(1,0,0,-1,393.4424,353.45713)" stroke-width="1" stroke-linecap="butt" stroke-miterlimit="10" stroke-linejoin="miter" fill="none" stroke="#231f20" d="M 0 0 L 64.504 0 "/>
<path transform="matrix(1,0,0,-1,457.9468,353.45713)" stroke-width="1" stroke-linecap="butt" stroke-miterlimit="10" stroke-linejoin="miter" fill="none" stroke="#231f20" d="M 0 0 L 64.504 0 "/>
<g id="Layer-1" data-name="Span">
</g>
<g id="Layer-1" data-name="Span">
</g>
<g id="Layer-1" data-name="Span">
</g>
<g id="Layer-1" data-name="Span">
<text fill="#231f20" xml:space="preserve" transform="matrix(1 0 -0 1 0 841.89)" font-size="9" font-family="Roboto"><tspan y="-494.8318" x="73.0945 78.6916 81.7156 86.8015 91.8874 94.0384 96.225399 100.96839 105.29739 107.48439 110.35179 115.43229 118.45629 120.64329 125.78679 130.78179 132.96878 135.99279 140.79969 145.15299 150.01029 153.02349 157.72869">Prod. av f&#x00f4;r og r&#x00e5;varer</tspan><tspan y="-473.0518" x="73.0945 77.7835 82.7236 85.670207 90.4942 92.5102 94.6972 99.3277 104.0437 109.1242 114.2182 118.8712 121.0582 235.9315 240.3379 245.3338 250.3504 255.44171">Total scope 313796</tspan></text>
</g>
<g id="Layer-1" data-name="Span">
</g>
<g id="Layer-1" data-name="Span">
</g>
<g id="Layer-1" data-name="Span">
</g>
<g id="Layer-1" data-name="Span">
<text fill="#2b3b52" xml:space="preserve" transform="matrix(1 0 -0 1 0 841.89)" font-size="9" font-family="Roboto"><tspan y="-473.0518" x="300.4345 304.8409 309.83683 314.85343 319.94474 364.9375 369.3439 374.3398 379.3564 384.44773 429.4405 433.8469 438.8428 443.8594 448.9507 494.2135 498.7045 503.5717 508.47758 513.45547">13796137961379614972</tspan></text>
</g>
<g id="Layer-1" data-name="Span">
</g>
<g id="Layer-1" data-name="Span">
</g>
<g id="Layer-1" data-name="Span">
</g>
<g id="Layer-1" data-name="Span">
</g>
<g id="Layer-1" data-name="Span">
</g>
<g id="Layer-1" data-name="Span">
<text fill="#231f20" xml:space="preserve" transform="matrix(1 0 -0 1 0 841.89)" font-size="9" font-family="Roboto"><tspan y="-450.0388" x="73.08551 77.770008 82.915309 86.108509 91.10081 93.43181 95.672809 101.554309 107.788608 112.900608 115.1416 121.4524 124.612308 129.37509 131.77359 134.20809 139.45058 144.54457 146.78557 149.72316 152.78316 158.01755 163.25644 168.12723 234.5365 239.21649 244.64078 250.00568 255.30667 299.6875 304.3675 309.68019 315.04957 319.80787 364.5955 369.2764 374.6116 379.81 384.31 428.7295 433.33479 438.58808 443.74418 448.81477 493.6915 498.29679 503.4781 507.9781 513.3133">Total CO2 Utslipp (tonn)1448814641143741507615743</tspan></text>
</g>
<text fill="#404041" xml:space="preserve" transform="matrix(1 0 -0 1 0 841.89)" font-size="9" font-family="Roboto" font-weight="bold"><tspan y="-514.8298" x="70.84448 76.56218 81.31418 86.50628 91.712779 96.41978 98.660778">Scope 3</tspan></text>
<g id="Layer-1" data-name="Artifact">
<clipPath id="cp713">
<path transform="matrix(1,0,0,-1,0,841.89)" d="M 0 0 L 595.276 0 L 595.276 841.89 L 0 841.89 Z "/>
</clipPath>
<g clip-path="url(#cp713)">
<filter id="blend_3"><feBlend mode="overlay" in2="BackgroundImage" in="SourceGraphic"/></filter>
<g filter="url(#blend_3)">
<clipPath id="cp714">
<path transform="matrix(1,0,0,-1,0,841.89)" d="M 69.8661 411.951 L 525.409 411.951 L 525.409 414.451 L 69.8661 414.451 Z "/>
</clipPath>
<g clip-path="url(#cp714)">
<path transform="matrix(1,0,0,-1,70.8661,428.68913)" stroke-width=".5" stroke-linecap="butt" stroke-miterlimit="4" stroke-linejoin="miter" fill="none" stroke="#b9bbbd" d="M 0 0 L 453.543 0 "/>
</g>
</g>
</g>
<g id="Layer-1" data-name="Span">
</g>
<text fill="#10a79d" xml:space="preserve" transform="matrix(1 0 -0 1 0 841.89)" font-size="15" font-family="Roboto"><tspan y="-368.0279" x="71.0528 79.5938 87.9728 96.3833 102.9278 111.453807 115.188808 118.923809 129.22582 134.28083 142.00583 145.78884 149.63634 158.16683 166.59381 174.31882 178.17382 186.5888 191.4818 199.4288 207.84381 215.56882 219.4058 224.29882 232.17082 237.30533 241.04033 248.90933 256.51133 260.24635 268.16484 271.94633 275.79383 288.78233 296.88233 305.34983 313.4348 321.1838 328.9088 336.8498">305-4  Utslippsintensitet av klimagasser</tspan></text>
</g>
<g id="Layer-1" data-name="Span">
</g>
<g id="Layer-1" data-name="Span">
</g>
<g id="Layer-1" data-name="Span">
</g>
<g id="Layer-1" data-name="Span">
</g>
<g id="Layer-1" data-name="Span">
</g>
<g id="Layer-1" data-name="Span">
</g>
<g id="Layer-1" data-name="Span">
</g>
<g id="Layer-1" data-name="Span">
</g>
<g id="Layer-1" data-name="Span">
</g>
<g id="Layer-1" data-name="Span">
</g>
<g id="Layer-1" data-name="Span">
</g>
<g id="Layer-1" data-name="Span">
</g>
<text fill="#404041" xml:space="preserve" transform="matrix(1 0 -0 1 0 841.89)" font-size="9" font-family="Roboto"><tspan y="-343.5056" x="71.0528 77.243907 80.132907 84.69771 86.707408 88.723407 93.803 98.789 103.3817 105.3977 110.39 113.139499 117.844699 122.827999 127.3937 129.4988 132.2483 136.92562 139.81462 142.28511 147.02902 151.35802 153.89511 158.41492 160.42372 162.47393 170.46323 175.30074 180.34793 185.15213 189.76284 194.36904 199.07424 202.09824 204.60564 212.59494 217.41895 219.50066 224.15366 228.70766 231.20066 233.21666 235.70696 238.46007 243.54056 248.57695 253.51795 256.04966 261.93836">Utslippsintensitet av klimagasser m&#x00e5;les i tonn CO</tspan></text>
<text fill="#404041" xml:space="preserve" transform="matrix(1 0 -0 1 0 841.89)" font-size="5.247" font-family="Roboto"><tspan y="-340.5086" x="268.0599">2</tspan></text>
<text fill="#404041" xml:space="preserve" transform="matrix(1 0 -0 1 0 841.89)" font-size="9" font-family="Roboto"><tspan y="-343.5056" x="270.9678 273.43113 278.52513 283.23033 286.2543 288.76533 291.51933 296.59895 301.63627 306.57728 309.1081 312.0871 313.9915 318.59049 323.0005 325.4746 330.5272 333.55119 338.6371 343.6699 348.6109 353.2891 357.9943 361.42149 364.4113 366.5623 369.0229 374.6983 376.7143 379.20463 384.22575 389.08396 392.10795 394.61897 399.32417 404.26518 406.79689 411.88008 416.14787 420.85307 425.89936 430.96635 435.61936 438.06108 440.99418 444.00648 448.71168 453.75798 458.76197 461.23069 464.18269 467.20668 472.03068 474.5525 479.6168 484.4246 488.8643 493.85029 496.3154 499.2674 502.29139 507.2027 515.1767 517.6409 520.5443 522.554 524.57"> per tonn fisk produsert. Vi har en &#x00f8;kende trend fra 2016 fram til </tspan><tspan y="-332.70564" x="71.05081 76.11511 81.22171 86.28601 91.27201 93.784809 95.800807 98.3406 104.2302">2020 i CO</tspan></text>
<text fill="#404041" xml:space="preserve" transform="matrix(1 0 -0 1 0 841.89)" font-size="5.247" font-family="Roboto"><tspan y="-329.7086" x="110.3586">2</tspan></text>
<text fill="#404041" xml:space="preserve" transform="matrix(1 0 -0 1 0 841.89)" font-size="9" font-family="Roboto"><tspan y="-332.7057" x="113.289 117.1275 119.1435 124.1358 126.8853 131.5905 136.57379 141.1395 143.2446 145.99411 150.67142 153.71253 155.43152 157.94792 165.98313 170.68833 175.62932 178.21231 181.15892 185.98293 187.99263 190.07344 194.77954 199.84114 204.49414 206.98714 209.78165 214.86124 218.04454 223.14664 226.03565 228.55564 231.35015 236.43064 239.45464 242.01064 247.07494 251.88274 256.33146 261.31745 263.82847 268.53367 271.55766 274.11366 278.72343 283.81205 291.78605 294.29707 297.20048 299.26329 304.26728 306.27607 308.32987 313.40586 318.11106 321.12336 325.77638 328.26939 333.331 337.975 342.4696 347.4349 350.3239 352.84303 354.859 359.4364 363.7042 368.3572 370.85023 375.85423 377.8702 380.9095 385.6147 390.3415 393.0901 397.7431 400.2361 404.872 409.73744 417.75193 425.78623 430.49235 435.49995 437.50965 439.56346 444.60615 449.64347 454.69517 459.55339 462.56568 467.18629 469.33729 471.84739 474.2414 476.7974 482.9534 485.9774 490.85359 493.7993 498.6575 503.6957 508.6907 510.7067 515.6099 520.01 524.564">-intensitet, men tallene forut for 2019 er som tidligere nevnt ikke direkte sammenlignbare. I Gratanglaks </tspan><tspan y="-321.9057" x="71.052 76.073108 80.931308 83.95531 86.721 91.185909 93.201908 95.9469 100.9689 105.7641 108.923999 111.812999 114.53729 119.21549 122.10449 124.82879 129.90839 134.86829 139.22968 143.93488 146.94718 151.60018 154.29747 157.09198 162.17157 165.34587 170.39939 173.58269 178.62088 183.03089 185.75968 190.85367 195.84867 198.58196 206.56226 208.57826 213.65065 218.68434 221.69664 226.34964 229.04694 232.02594 233.92945 238.52935 242.93935 245.66814 247.68415 250.42914 258.46434 263.16954 266.1935 271.2605 275.9666 281.02824 285.64884 287.79985 290.51515 296.66844 301.34574 304.23475 306.95997 309.97227 314.62528 319.19096 324.13197 326.30906 329.05857 333.76469 336.77699 341.48219 344.50617 347.27189 349.28788 352.03379 357.1125 362.0724 366.43379 371.13899 374.15129 378.8043 381.50163 384.4482 389.27223 391.281 393.3708 395.5218 398.2371 404.1258">har vi hatt et h&#x00f8;yere forbruk og mindre fisk i merdene. Det resulterer i h&#x00f8;yere tall. CO</tspan></text>
<text fill="#404041" xml:space="preserve" transform="matrix(1 0 -0 1 0 841.89)" font-size="5.247" font-family="Roboto"><tspan y="-318.9086" x="410.2438">2</tspan></text>
<text fill="#404041" xml:space="preserve" transform="matrix(1 0 -0 1 0 841.89)" font-size="9" font-family="Roboto"><tspan y="-321.9056" x="413.1743 417.038 420.06199 424.96519 430.01869 435.10816 440.18778 443.61589 446.36448 451.0706 454.21519 456.23118 461.2964 466.3715 471.0776 476.01863 478.80863 481.60313 486.68275 489.70674 492.46974 497.53404 502.34184 506.79054 511.77653 514.4945 519.5885 524.5835">-rapporteringen for 2019 og </tspan><tspan y="-311.10563" x="71.04828 76.11258 81.21918 86.28348 91.26948 94.11347 99.19308 104.250179 106.31387 111.380878 116.086078 119.11008 121.99908 127.07778 132.03769 136.39908 141.10428 144.11658 148.76958 151.59558 156.30889 160.66129 165.48529 167.495 169.6001 172.34961 177.02692 180.06803 181.78702 184.63101 189.7259 194.7209 197.5784 202.2845 205.3085 208.1975 216.2327 220.9379 223.9619 226.85089 231.94039 239.81089 242.6567 247.4519 250.61182 253.36043 258.06654 263.11195 268.17985 272.83287 275.65437 280.36048 285.39689 290.3379 293.2539 296.15733 298.22013 303.22413 305.2329 307.2876 312.3627 317.06883 320.08113 324.73414 327.55564 332.41386 335.04005 337.19105 340.03507 346.18836 350.86567 354.02558 356.7751 361.4281 364.25413 368.71903 373.57725 378.51826 381.42976 385.74888 393.66709 396.67939 401.3324 404.1539 409.22993 414.34553 418.99855 421.82456 426.56846 430.89747 433.81349 438.6717 441.77848 446.41438 451.27168 455.54039 460.24559 465.18659 468.1026 470.9916 473.0076 475.0236 477.8946 482.6898 485.5788 488.4318 491.2263 496.3059 499.4802 504.5337 507.71699 512.7552 517.02297 521.7012 524.59017">2020 holder h&#x00f8;yere kvalitet, og er mer omfattende enn tidligere &#x00e5;r. Dette kan v&#x00e6;re noe av &#x00e5;rsaken til at forbruket </tspan><tspan y="-300.30564" x="71.04828 75.32058 80.40918 88.423679 96.45798 101.16408 104.18808 106.40208 109.35408 112.36638 117.08148 125.05548 127.22448 131.83428 136.92287 144.89687 147.06586 152.14455 157.10535 161.46584 166.17194 169.18424 173.80394 175.95494 178.12393 183.70124 188.78983 196.76383 198.93282 201.83623 203.89904 208.90303 210.91184 212.96654 218.04163 222.74773 225.76003 230.41303 232.55863 237.62023 242.26422 246.75792 251.72412 254.76523 256.48423 258.65324 263.11814 265.12693 267.1429 269.33894 274.43293 279.42793 284.08183 288.90583 291.08744 294.18074 296.2615 300.96763 303.97993 308.63294 310.77854 312.87193 317.95243 322.41734 327.24134 329.25013 331.3561 334.10563 338.78294 341.53245 346.23765 349.26164 351.47566 353.49165 355.68766 360.72227 363.86686 365.92427 369.12916 372.01817 374.19618 378.83116 383.69746 391.61567 394.50468 396.57737 401.58137 403.63606 408.77326 410.49226 412.66127 420.69557 425.42057 430.47138 433.26588 438.34819 441.36048 446.0135 448.16 452.8373 455.72633 457.89985 462.98304 467.70893 470.59794 472.77146 477.77546 479.85624 484.50926 489.11454 493.78645 495.84385 498.63835 503.71885 506.89314 511.9457 515.129 520.1681 524.57809">kommer frem som h&#x00f8;yere. Som tidligere nevnt, vil ogs&#x00e5; flere lokaliteter i drift samtidig, medf&#x00f8;re et &#x00f8;kt dieselforbruk </tspan><tspan y="-289.50566" x="71.04828 73.84278 78.92238 81.94638 84.13338 88.53348 93.39168 96.40398 101.05698 103.24397 108.27587 113.07107 115.820568 120.525768 123.15197">for v&#x00e5;re b&#x00e5;ter.</tspan></text>
<path transform="matrix(1,0,0,-1,70.8661,656.8999)" stroke-width="1" stroke-linecap="butt" stroke-miterlimit="10" stroke-linejoin="miter" fill="none" stroke="#231f20" d="M 0 0 L 130.835 0 "/>
<path transform="matrix(1,0,0,-1,201.7011,656.8999)" stroke-width="1" stroke-linecap="butt" stroke-miterlimit="10" stroke-linejoin="miter" fill="none" stroke="#231f20" d="M 0 0 L 64.504 0 "/>
<path transform="matrix(1,0,0,-1,266.2054,656.8999)" stroke-width="1" stroke-linecap="butt" stroke-miterlimit="10" stroke-linejoin="miter" fill="none" stroke="#231f20" d="M 0 0 L 64.504 0 "/>
<path transform="matrix(1,0,0,-1,330.7098,656.8999)" stroke-width="1" stroke-linecap="butt" stroke-miterlimit="10" stroke-linejoin="miter" fill="none" stroke="#231f20" d="M 0 0 L 64.504 0 "/>
<path transform="matrix(1,0,0,-1,395.2141,656.8999)" stroke-width="1" stroke-linecap="butt" stroke-miterlimit="10" stroke-linejoin="miter" fill="none" stroke="#231f20" d="M 0 0 L 64.504 0 "/>
<path transform="matrix(1,0,0,-1,459.7184,656.8999)" stroke-width="1" stroke-linecap="butt" stroke-miterlimit="10" stroke-linejoin="miter" fill="none" stroke="#231f20" d="M 0 0 L 64.504 0 "/>
<g id="Layer-1" data-name="Span">
</g>
<g id="Layer-1" data-name="Span">
</g>
<g id="Layer-1" data-name="Span">
</g>
<g id="Layer-1" data-name="Span">
</g>
<g id="Layer-1" data-name="Span">
</g>
<g id="Layer-1" data-name="Span">
<text fill="#10a79d" xml:space="preserve" transform="matrix(1 0 -0 1 0 841.89)" font-size="12" font-family="Roboto" font-weight="bold"><tspan y="-190.2641" x="234.6664 241.5544 248.4424 255.3304 299.16639 306.05439 312.94239 319.83039 363.66639 370.55439 377.44239 384.33039 428.16639 435.05439 441.94239 448.83039 492.66639 499.55439 506.44239 513.3304">20162017201820192020</tspan></text>
</g>
<g id="Layer-1" data-name="Span">
<text fill="#231f20" xml:space="preserve" transform="matrix(1 0 -0 1 0 841.89)" font-size="9" font-family="Roboto"><tspan y="-172.8759" x="74.8661 79.6091 84.4331 88.843097 93.397098 95.58409 100.57009 103.84789 108.88789 113.89189 118.83289 123.386898 128.0399 131.23941 134.12842 136.31542 139.18642 143.46952 148.46451">Laks produsert (kg)</tspan></text>
</g>
<g id="Layer-1" data-name="Span">
</g>
<g id="Layer-1" data-name="Span">
</g>
<g id="Layer-1" data-name="Span">
</g>
<g id="Layer-1" data-name="Span">
<text fill="#2b3b52" xml:space="preserve" transform="matrix(1 0 -0 1 0 841.89)" font-size="9" font-family="Roboto"><tspan y="-172.8759" x="221.99808 226.98407 229.17107 234.39287 239.58498 244.57099 246.75798 251.97438 257.21778 286.73509 291.72108 293.90809 299.11637 304.24906 309.23506 311.42207 316.53587 321.72166 353.99208 358.97807 361.16508 365.65968 370.45848 375.44447 377.63148 381.87318 386.22917 416.41609 421.40208 423.58909 428.45988 433.43418 438.42018 440.60719 445.67869 450.73399">7 638 6048 098 2907 142 1158 495 369</tspan></text>
</g>
<g id="Layer-1" data-name="Span">
</g>
<g id="Layer-1" data-name="Span">
</g>
<g id="Layer-1" data-name="Span">
</g>
<g id="Layer-1" data-name="Span">
</g>
<g id="Layer-1" data-name="Span">
</g>
<g id="Layer-1" data-name="Span">
</g>
<g id="Layer-1" data-name="Span">
</g>
<g id="Layer-1" data-name="Span">
</g>
<g id="Layer-1" data-name="Span">
</g>
<g id="Layer-1" data-name="Span">
</g>
<g id="Layer-1" data-name="Span">
</g>
<g id="Layer-1" data-name="Span">
</g>
<g id="Layer-1" data-name="Span">
</g>
<g id="Layer-1" data-name="Span">
</g>
<g id="Layer-1" data-name="Span">
</g>
<g id="Layer-1" data-name="Span">
<text fill="#231f20" xml:space="preserve" transform="matrix(1 0 -0 1 0 841.89)" font-size="9" font-family="Roboto"><tspan y="-172.8759" x="480.54109 485.52708 487.71409 492.6956 497.62669 502.61268 504.79969 509.9351 515.2388">8 725 664</tspan><tspan y="-156.3969" x="74.86606 79.19866 84.193668 86.38066 92.221668">kg CO</tspan></text>
<text fill="#231f20" xml:space="preserve" transform="matrix(1 0 -0 1 0 841.89)" font-size="5.247" font-family="Roboto"><tspan y="-153.4004" x="98.2231">2</tspan></text>
<text fill="#231f20" xml:space="preserve" transform="matrix(1 0 -0 1 0 841.89)" font-size="9" font-family="Roboto"><tspan y="-156.3974" x="217.6526 222.14362 227.12961 229.3166 234.65181 239.65132 244.63733 246.82433 252.02364 257.21574 283.0286 287.5196 292.50559 294.6926 299.99809 305.29728 310.28327 312.47029 317.27177 321.72047 348.4046 352.8956 357.8816 360.0686 365.06629 369.3827 374.36869 376.5557 381.0413 386.22889 411.8546 416.2106 421.1966 423.3836 428.3426 433.18458 438.17057 440.35758 445.54789 450.73548 477.2036 481.5596 486.5456 488.7326 493.0508 497.8496 502.8356 505.0226 510.2687 515.243">14 487 83814 640 61914 374 18015 076 08015 742 770</tspan></text>
<text fill="#231f20" xml:space="preserve" transform="matrix(1 0 -0 1 0 841.89)" font-size="10" font-family="Roboto"><tspan y="-139.544" x="74.8661 79.8371 85.4471 87.9271 94.4371">kg CO</tspan></text>
<text fill="#231f20" xml:space="preserve" transform="matrix(1 0 -0 1 0 841.89)" font-size="5.83" font-family="Roboto"><tspan y="-136.214" x="101.3066">2</tspan></text>
<text fill="#231f20" xml:space="preserve" transform="matrix(1 0 -0 1 0 841.89)" font-size="10" font-family="Roboto"><tspan y="-139.544" x="104.5803 107.0603 112.6703 117.97031 121.3503 123.83031 128.79431 134.40431 136.88431 142.49431 145.7763 151.4763 157.1163 162.6263 167.7863 173.0863 176.71431 243.4003 249.0203 250.9803 256.6003 307.9003 313.5203 315.4803 321.10029 372.4003 378.0203 379.9803 385.60029 436.9003 442.5203 444.4803 450.10029 501.4003 507.0203 508.9803 514.6003"> per kg produsert1,901,812,011,771,80</tspan></text>
</g>
<g id="Layer-1" data-name="Span">
</g>
<g id="Layer-1" data-name="Span">
</g>
<g id="Layer-1" data-name="Span">
</g>
<g id="Layer-1" data-name="Span">
</g>
<g id="Layer-1" data-name="Span">
</g>
<text fill="#404041" xml:space="preserve" transform="matrix(1 0 -0 1 0 841.89)" font-size="9" font-family="Roboto" font-weight="bold"><tspan y="-222.3103" x="70.8661 76.590099">CO</tspan></text>
<text fill="#404041" xml:space="preserve" transform="matrix(1 0 -0 1 0 841.89)" font-size="5.247" font-family="Roboto" font-weight="bold"><tspan y="-219.3133" x="82.7841">2</tspan></text>
<text fill="#404041" xml:space="preserve" transform="matrix(1 0 -0 1 0 841.89)" font-size="9" font-family="Roboto" font-weight="bold"><tspan y="-222.3103" x="85.7944 88.0354 90.6724 96.8995 102.0655 107.069499 113.42349 118.98549 121.49559 126.66159 131.66559"> INTENSITET</tspan></text>
<text fill="#404041" xml:space="preserve" transform="matrix(1 0 -0 1 0 841.89)" font-size="12" font-family="Roboto"><tspan y="-246.8326" x="70.8661 76.900897 83.452899 90.2821 96.6073 99.6433 102.75371 105.74171 112.58651 119.304119 126.04812 131.29813">Tabell 305-4</tspan></text>
<text fill="#404041" xml:space="preserve" transform="matrix(1 0 -0 1 0 841.89)" font-size="8" font-family="Roboto" font-weight="bold"><tspan y="-44.7402" x="70.8661 75.5421">78</tspan></text>
<text fill="#404041" xml:space="preserve" transform="matrix(1 0 -0 1 0 841.89)" font-size="7" font-family="Roboto"><tspan y="-29.016" x="70.8661 77.0772 79.2192 83.3604 87.3875 92.35259 98.596599 102.634899 107.1226 111.5536 113.712398 118.5487 122.4246 124.1676 126.3096 131.3979 136.19989 138.34189 143.23419 147.41249 151.6377 156.5916 161.1962 165.2247">MILJ&#x00d8;MESSIGE INDIKATORER</tspan></text>
<g id="Layer-1" data-name="Artifact">
<clipPath id="cp715">
<path transform="matrix(1,0,0,-1,0,841.89)" d="M 0 0 L 595.276 0 L 595.276 841.89 L 0 841.89 Z "/>
</clipPath>
<g clip-path="url(#cp715)">
<path transform="matrix(1,0,0,-1,1119.685,802.3869)" stroke-width=".5" stroke-linecap="butt" stroke-miterlimit="4" stroke-linejoin="miter" fill="none" stroke="#404041" d="M 0 0 L -1048.819 0 "/>
</g>
<g id="Layer-1" data-name="Artifact">
<path transform="matrix(1,0,0,-1,70.8661,39.3869)" stroke-width=".5" stroke-linecap="butt" stroke-miterlimit="4" stroke-linejoin="miter" fill="none" stroke="#404041" d="M 0 0 L 1048.819 0 "/>
</g>
</g>
</g>
</g>
</svg>
