<?xml version="1.0" encoding="UTF-8" standalone="no"?>
<!DOCTYPE svg PUBLIC "-//W3C//DTD SVG 1.1//EN" "http://www.w3.org/Graphics/SVG/1.1/DTD/svg11.dtd">
<svg xmlns="http://www.w3.org/2000/svg" xmlns:xlink="http://www.w3.org/1999/xlink" version="1.1" width="595.276pt" height="841.89pt" viewBox="0 0 595.276 841.89">
<g enable-background="new">
<g>
<g id="Layer-1" data-name="Span">
</g>
<text fill="#404041" xml:space="preserve" transform="matrix(1 0 -0 1 0 841.89)" font-size="12" font-family="Roboto"><tspan y="-645.8032" x="70.8661 76.9021 83.45531 90.2833 96.6085 99.648097 102.75969 105.747699 112.712497 119.50449 126.170497 131.2873 138.04329">Tabell 403-9a</tspan></text>
<path transform="matrix(1,0,0,-1,70.8661,231.9325)" stroke-width="1" stroke-linecap="butt" stroke-miterlimit="10" stroke-linejoin="miter" fill="none" stroke="#231f20" d="M 0 0 L 170.079 0 "/>
<path transform="matrix(1,0,0,-1,240.9449,231.9325)" stroke-width="1" stroke-linecap="butt" stroke-miterlimit="10" stroke-linejoin="miter" fill="none" stroke="#231f20" d="M 0 0 L 70.866 0 "/>
<path transform="matrix(1,0,0,-1,311.811,231.9325)" stroke-width="1" stroke-linecap="butt" stroke-miterlimit="10" stroke-linejoin="miter" fill="none" stroke="#231f20" d="M 0 0 L 70.866 0 "/>
<path transform="matrix(1,0,0,-1,382.6772,231.9325)" stroke-width="1" stroke-linecap="butt" stroke-miterlimit="10" stroke-linejoin="miter" fill="none" stroke="#231f20" d="M 0 0 L 70.866 0 "/>
<path transform="matrix(1,0,0,-1,453.5433,231.9325)" stroke-width="1" stroke-linecap="butt" stroke-miterlimit="10" stroke-linejoin="miter" fill="none" stroke="#231f20" d="M 0 0 L 70.866 0 "/>
<g id="Layer-1" data-name="Span">
</g>
<g id="Layer-1" data-name="Span">
</g>
<g id="Layer-1" data-name="Span">
</g>
<g id="Layer-1" data-name="Span">
</g>
<g id="Layer-1" data-name="Span">
<text fill="#f1bc20" xml:space="preserve" transform="matrix(1 0 -0 1 0 841.89)" font-size="12" font-family="Roboto" font-weight="bold"><tspan y="-615.2315" x="281.5344 288.324 294.79084 300.92646 352.3704 359.15998 365.62678 371.79716 423.2904 430.08 436.54679 442.66679 493.04643 499.8384 506.74803 513.54006">2017201820192020</tspan></text>
</g>
<g id="Layer-1" data-name="Span">
</g>
<g id="Layer-1" data-name="Span">
</g>
<g id="Layer-1" data-name="Span">
</g>
<g id="Layer-1" data-name="Span">
</g>
<g id="Layer-1" data-name="Span">
</g>
<g id="Layer-1" data-name="Span">
</g>
<g id="Layer-1" data-name="Span">
</g>
<g id="Layer-1" data-name="Span">
</g>
<g id="Layer-1" data-name="Span">
</g>
<g id="Layer-1" data-name="Span">
</g>
<g id="Layer-1" data-name="Span">
</g>
<g id="Layer-1" data-name="Span">
</g>
<g id="Layer-1" data-name="Span">
</g>
<g id="Layer-1" data-name="Span">
</g>
<g id="Layer-1" data-name="Span">
</g>
<g id="Layer-1" data-name="Span">
</g>
<g id="Layer-1" data-name="Span">
</g>
<g id="Layer-1" data-name="Span">
</g>
<g id="Layer-1" data-name="Span">
</g>
<g id="Layer-1" data-name="Span">
</g>
<g id="Layer-1" data-name="Span">
</g>
<g id="Layer-1" data-name="Span">
</g>
<g id="Layer-1" data-name="Span">
</g>
<g id="Layer-1" data-name="Span">
</g>
<g id="Layer-1" data-name="Span">
</g>
<g id="Layer-1" data-name="Span">
</g>
<g id="Layer-1" data-name="Span">
</g>
<g id="Layer-1" data-name="Span">
</g>
<g id="Layer-1" data-name="Span">
</g>
<text fill="#231f20" xml:space="preserve" transform="matrix(1 0 -0 1 0 841.89)" font-size="9" font-family="Roboto"><tspan y="-594.2036" x="79.3701 85.536 90.6417 95.6457 100.2123 105.2208 107.3304 111.8376 116.38711 120.65491 125.36011 298.32209 369.18809 440.05409 510.92008">D&#x00f8;dsulykker0000</tspan><tspan y="-570.4436" x="79.370059 85.02476 87.116359 91.47326 96.55286 99.69746 101.70715 103.760959 108.83696 113.48996 115.676959 120.51535 123.68965 128.78366 133.45557 135.51837 140.52237 145.08898 150.09748 152.20708 156.71337 161.26287 165.53067 170.23677 299.52809 370.39408 441.26008 510.92008">Alvorlige arbeidsulykker---0</tspan><tspan y="-546.6836" x="79.370059 85.02476 87.033557 89.11525 93.76825 95.955249 100.79544 103.96974 109.06374 113.73564 115.79844 120.80244 125.402339 128.41463 133.08563 135.10164 139.92565 142.67426 147.38036 150.80756 153.69657 155.88356 160.49156 164.95647 169.78047 174.86637 179.57157 299.52809 370.39408 441.26008 510.92008">Alle arbeidsrelatert skader---1</tspan><tspan y="-522.9236" x="79.370059 85.04186 89.549068 93.816867 98.447368 101.39937 104.42337 109.212268 113.531368 121.44866 124.472667 126.65966 129.39026 132.29367 134.34297 142.37818 147.08338 150.04077 299.52809 370.39408 441.26008 510.92008">Sykefrav&#x00e6;r (timer)---8</tspan><tspan y="-499.16358" x="79.370059 85.05446 90.01976 92.96636 97.79036 99.80006 101.816059 104.00305 106.93435 108.98455 117.01885 121.72495 124.748958 126.93595 129.12834 134.20793 139.26145 144.35544 149.03275 152.07386 153.79285 155.97985 160.80925 162.81806 164.89977 169.55277 171.73976 174.62877 176.66909 184.70429 189.40949">Antall timer jobbet, alle timer</tspan><tspan y="-464.60359" x="79.370059 85.754657 88.37996 90.53096 92.71796 97.70396 99.89095 107.927059 112.580059 117.19526 120.08426 122.271259 126.63266 131.49086 136.49936 138.50817 140.56287 145.63796 150.29096 152.47795 157.31636 160.49066 165.58556 170.25656 172.32027 177.32427 181.89087 186.89937 189.00897 193.51526 198.06476 202.33347">Nr. 1 mest vanlige arbeidsulykke</tspan><tspan y="-475.40357" x="475.11805 480.01493 484.83894 486.84773 488.8637 491.05073 496.1321 500.95613 503.14314 508.21104 513.0062 515.8952">Fall p&#x00e5; b&#x00e5;t </tspan><tspan y="-464.60359" x="473.69606 478.75135 483.79945 488.62345 490.81047 495.93327 500.99308 503.04777 508.12287 512.82809 515.85208">pga b&#x00f8;lger </tspan><tspan y="-453.8036" x="479.26707 483.93809 485.94779 488.02857 492.73469 495.75868 497.94569 502.94068 504.95668 509.84187 513.00088">eller glatt</tspan><tspan y="-419.2436" x="79.361087 85.74568 88.37099 90.52199 92.708988 97.694988 99.88198 107.91808 112.57108 117.18629 120.07529 122.26228 126.62369 131.48189 136.49039 138.49919 140.5539 145.62899 150.28199 152.46898 157.30739 160.48169 165.57659 170.24759 172.3113 177.31529 181.8819 186.8904 189 193.50629 198.05579 202.3245">Nr. 2 mest vanlige arbeidsulykke</tspan><tspan y="-430.04359" x="465.2451 470.14198 474.96598 476.97477 478.99076 481.17778 486.25917 491.08317 493.27018 501.32069 506.02589 509.04988 514.179 515.898">Fall p&#x00e5; merd, </tspan><tspan y="-419.2436" x="473.69609 478.75138 483.79948 488.62348 490.8105 495.9333 500.9931 503.0478 508.1229 512.82809 515.85208">pga b&#x00f8;lger </tspan><tspan y="-408.4436" x="479.2671 483.9381 485.9478 488.0286 492.7347 495.7587 497.9457 502.9407 504.9567 509.8419 513.0009">eller glatt</tspan><tspan y="-373.8836" x="79.361118 85.74571 88.37102 90.52202 92.709018 97.695018 99.88201 107.91811 112.57111 117.18632 120.07532 122.262317 126.62372 131.48192 136.49042 138.49922 140.55393 145.62902 150.28202 152.46901 157.30742 160.48172 165.57662 170.24762 172.31133 177.31533 181.88193 186.89043 189.00003 193.50632 198.05582 202.32453">Nr. 3 mest vanlige arbeidsulykke</tspan></text>
<g id="Layer-1" data-name="Artifact">
<clipPath id="cp737">
<path transform="matrix(1,0,0,-1,0,841.89)" d="M 0 0 L 595.276 0 L 595.276 841.89 L 0 841.89 Z "/>
</clipPath>
<g clip-path="url(#cp737)">
<filter id="blend_3"><feBlend mode="overlay" in2="BackgroundImage" in="SourceGraphic"/></filter>
<g filter="url(#blend_3)">
<clipPath id="cp738">
<path transform="matrix(1,0,0,-1,0,841.89)" d="M 69.8661 318.896 L 525.409 318.896 L 525.409 321.396 L 69.8661 321.396 Z "/>
</clipPath>
<g clip-path="url(#cp738)">
<path transform="matrix(1,0,0,-1,70.8661,521.7435)" stroke-width=".5" stroke-linecap="butt" stroke-miterlimit="4" stroke-linejoin="miter" fill="none" stroke="#b9bbbd" d="M 0 0 L 453.543 0 "/>
</g>
</g>
</g>
<g id="Layer-1" data-name="Span">
</g>
<text fill="#f1bc20" xml:space="preserve" transform="matrix(1 0 -0 1 0 841.89)" font-size="15" font-family="Roboto"><tspan y="-274.4485" x="70.8661 79.55859 88.030597 96.34509 101.43009 109.05159 117.57609 121.31109 130.75209 138.41709 145.94709 153.78308 158.82608 163.98909 171.8581 179.1541 192.2626">403-10 Sykefrav&#x00e6;r</tspan></text>
</g>
<path transform="matrix(1,0,0,-1,179.0447,657.4229)" stroke-width=".439" stroke-linecap="butt" stroke-miterlimit="10" stroke-linejoin="miter" fill="none" stroke="#1e5e9e" d="M 0 0 L 29.582 0 "/>
<g id="Layer-1" data-name="Span">
</g>
<g id="Layer-1" data-name="Span">
</g>
<g id="Layer-1" data-name="Span">
</g>
<g id="Layer-1" data-name="Span">
</g>
<g id="Layer-1" data-name="Span">
</g>
<g id="Layer-1" data-name="Span">
</g>
<g id="Layer-1" data-name="Span">
<text fill="#404041" xml:space="preserve" transform="matrix(1 0 -0 1 0 841.89)" font-size="9" font-family="Roboto"><tspan y="-249.9263" x="70.8661 73.26009 76.89609 83.052089 86.07609 90.952289 93.89889 98.75709 103.79439 108.78939 110.80539 115.70859 120.10869 124.66269 128.28789 133.30898 138.16718 141.19118 144.83438 149.29927 151.31528 154.93868 159.61598 162.50499 166.10498 174.09429 178.91829 180.9343 184.5577 189.64629 197.62029 201.21848 206.04248 209.65238 214.73107 219.78907 221.85187 226.91977 231.57277 235.14577 239.82308 242.71208 246.31208 248.32808 253.09899 257.84468 260.73368 264.33369 268.88768 273.42185 277.68965 282.32017 285.27217 288.29615 293.08506 297.40419 305.3215 307.94679 310.09779 313.68879 316.0828 319.7188 324.7408 329.4847 333.97843 339.03193 342.2152 347.25343 351.65354 356.25343 361.24934 369.16755 372.31214 374.32814 379.39244 384.46754 389.17366 394.11466 397.77769 402.4838 405.50779 409.151 414.218 418.8962 421.78523 425.38523 427.466 432.18293 437.25804 441.97315 450.00746 454.67848 456.74217 461.84068 464.59019 469.2432 472.8162 477.37019 481.90437 486.17216 490.82518 493.75828 496.78227 501.57118 505.88938 513.80758 516.8198 521.49716 524.3861">I Gratanglaks har vi et m&#x00e5;l om &#x00e5; holde et lavt sykefrav&#x00e6;r. I havbruksn&#x00e6;ringen er det legemeldte sykefrav&#x00e6;ret </tspan><tspan y="-239.1263" x="70.8661 75.2194 80.0776 85.0852 87.094898 89.1487 94.2427 98.7076 100.7182 105.2722 108.296199 110.312198 115.08309 119.42649 124.13259 127.14489 131.8069 133.5259 136.52289 141.15879 146.02509 154.03868 162.07389 166.77909 171.78759 173.79639 175.85109 180.89379 185.95539 190.63359 193.5226 196.5286 204.5638 209.2879 214.2919 217.2979 220.3102 224.9632 229.5784 232.32701 237.03311 241.9741 245.0431 249.78702 254.11602 257.185 263.61463 268.69514 271.70744 276.78254 281.40315 283.55415 286.55116 292.29405 296.96595 298.98194 303.81315 308.4283 311.36143 316.36903 318.385 323.4493 328.4443 333.07209 337.67198 342.13688 346.96089 352.04679 356.75199 359.77598 362.818 367.9129 372.9079 375.9229 380.78114 383.9554 389.0494 393.7213 395.78413 400.78813 405.3979 409.99778 414.46269 419.28669 424.3726 429.0778 432.10179 435.1438 440.1658 445.02403 448.048 451.09004 456.15794 460.86314 464.00773 466.05793 474.09043 479.03144 481.92045 484.92646 489.63258 494.57359 497.64259 502.7222 507.6812 512.0426 516.7487 519.761 524.414">vanligvis lavere, sammenlignet med resten av Norge. Belastningsskader og arbeidsskader har derimot en h&#x00f8;yere </tspan><tspan y="-228.3263" x="70.8661 73.6606 78.7402 81.752498 86.458599 90.73089 95.81949 103.77549 108.38979 111.37959 113.530597 116.84259 123.24519 128.28519 132.83919 136.18448 142.34049 145.36449 150.24069 153.1864 158.0446 163.0828 168.07779 170.0938 174.997 179.3971 183.9511 187.29639 192.31748 197.17568 200.19968 203.55667 208.02156 210.03757 213.37656 218.05387 220.94287 224.26387 228.81787 233.35117 237.61988 242.25037 245.20238 248.22638 253.01529 257.3344 265.25175 268.27574 271.63993 276.69163 281.51564 284.84565 289.88478 294.93019 299.99717 304.70329 307.72727 311.09059 315.92356 322.78517 324.50416 327.82337 332.43315 337.52177 345.49577 348.81407 353.51927 356.54325 359.90657 364.25987 369.11808 372.54527 375.43428 378.75529 386.74458 391.56858 393.65837 395.80937 399.12138 404.79588 406.81187 410.15089 415.20347 418.38764 423.42585 427.69364 432.39976 435.42375 438.78706 443.34104 447.87434 452.14213 456.79515 459.72914 462.7531 467.54203 471.86024 479.77845 482.79075 487.46897 490.35798 493.679 498.28877 503.37828 511.35227 514.6696 519.37576 524.3167">forekomst. Hos Gratanglaks har vi et sykefrav&#x00e6;r p&#x00e5; under 4%, som er v&#x00e5;rt m&#x00e5;l. Vi bruker sykefrav&#x00e6;ret som en </tspan><tspan y="-217.52629" x="70.8661 72.882099 77.9554 82.9594 84.975399 89.46729 94.26249 97.01649 102.096088 105.12009 107.082088 112.13378 116.95778 118.89278 123.80318 128.16007 133.23966 136.26366 141.30365 146.16185 151.10285 153.09185 157.44425 162.30245 165.31565 169.96865 171.86765 176.72585 181.70824 186.34413 191.13935 194.29926 197.04787 201.70087 203.59987 208.62186 213.48006 216.50406 218.46605 223.53305 228.21036 231.09937 233.02536 238.11936 243.11435 245.04935 250.11725 254.82245 257.83476 262.48777 267.04176 268.98576 273.55143 275.5674 280.14393 284.4117 289.1169 292.2912 297.35823 302.03553 305.02534 307.17634 309.09336 315.20887 317.34007 322.04527 327.08168 332.15769 337.2463 345.2203 347.13734 351.96134 353.89634 358.36036 360.42405 365.49104 370.19715 373.20945 377.87867 382.98167 386.12898 390.593 392.60899 397.1558 399.23658 403.8896 405.7886 410.8565 415.50953 417.40855 422.49714 427.58305 432.65003 437.30305 439.20207 443.76774 445.78373 450.36024 454.62803 459.33323 462.5075 467.57453 472.25184 475.14085 479.74073 482.924 488.02613 490.92955 492.94554 498.03416 502.73936 507.80186 512.45486 514.3538 519.4478 524.4428">indikator p&#x00e5; hvordan v&#x00e5;re ansatte har det og deres sikkerhet. Gjennom &#x00e5; videreutvikle de gode sikkerhetsrutinene og </tspan><tspan y="-206.72629" x="70.8661 74.0107 76.02129 80.5861 82.6021 86.9014 91.8496 96.3523 101.3905 104.414508 109.48241 114.18761 117.33221 119.348209 124.412509 129.4885 134.1937 139.2562 143.9182 145.63719 147.82419 152.92359 157.91858 160.10558 162.91628 167.97698 170.03078 175.10587 179.75887 181.94586 186.99396 191.64696 193.83396 198.89376 203.94727 208.90537 210.62436 212.81136 217.41666 221.88156 226.70557 228.72158 230.90857 235.40137 237.41738 239.60437 244.23308 248.69889 253.55709 258.6511 263.3041 265.49113 270.53834 275.24446 280.18547 282.37248 285.37577 288.80656 293.14274 298.1917 303.2668 307.91984 312.535 315.2836 319.9366 322.12364 327.19874 332.19374 334.38075 339.49095 344.14396 348.75914 351.50773 356.16075 358.34776 363.18617 366.36045 371.45533 376.12635 378.19004 383.19404 387.7939 392.82493 394.8409 399.67213 404.2828 408.8881 413.5942 418.53523 420.72224 423.58695 428.66658 431.69056 433.87757 438.28038 443.13859 446.15089 450.8039 452.9909 457.8293 462.81175 467.44764 472.24284 475.40275 478.15135 482.77195 484.92295">risikovurderingene, og f&#x00f8;lge de opp, skal vi skape den tryggeste og beste arbeidsplassen for v&#x00e5;re ansatte. </tspan><tspan y="-185.12628" x="70.8661 77.01849 81.69669 84.85659 87.60519 92.25819 94.44518 98.89118 103.74938 108.690387 110.87738 113.02838 117.68138 122.28758 126.94058 131.49459 133.68158 141.74738 146.45258 149.47658 151.66358 156.80167 164.77567 166.96266 172.01888 176.84288">Dette kan leses mer om p&#x00e5; </tspan></text>
</g>
<g id="Layer-1" data-name="Span">
<text fill="#1e5e9e" xml:space="preserve" transform="matrix(1 0 -0 1 0 841.89)" font-size="9" font-family="Roboto"><tspan y="-185.12628" x="179.04611 183.8089 186.2623 191.4841 196.1911 198.4321 203.62599">side 35</tspan></text>
</g>
<g id="Layer-1" data-name="Span">
</g>
<text fill="#404041" xml:space="preserve" transform="matrix(1 0 -0 1 0 841.89)" font-size="9" font-family="Roboto"><tspan y="-185.12628" x="208.62912">.</tspan></text>
<text fill="#404041" xml:space="preserve" transform="matrix(1 0 -0 1 0 841.89)" font-size="12" font-family="Roboto"><tspan y="-156.1271" x="70.8661 76.900897 83.452899 90.2809 96.6061 99.6457 102.75729 105.74529 112.5853 119.3773 126.0433 130.1317 136.2457">Tabell 303-10</tspan></text>
<path transform="matrix(1,0,0,-1,70.8661,710.8384)" stroke-width="1" stroke-linecap="butt" stroke-miterlimit="10" stroke-linejoin="miter" fill="none" stroke="#231f20" d="M 0 0 L 114.745 0 "/>
<path transform="matrix(1,0,0,-1,185.6108,710.8384)" stroke-width="1" stroke-linecap="butt" stroke-miterlimit="10" stroke-linejoin="miter" fill="none" stroke="#231f20" d="M 0 0 L 67.722 0 "/>
<path transform="matrix(1,0,0,-1,253.3332,710.8384)" stroke-width="1" stroke-linecap="butt" stroke-miterlimit="10" stroke-linejoin="miter" fill="none" stroke="#231f20" d="M 0 0 L 67.722 0 "/>
<path transform="matrix(1,0,0,-1,321.0556,710.8384)" stroke-width="1" stroke-linecap="butt" stroke-miterlimit="10" stroke-linejoin="miter" fill="none" stroke="#231f20" d="M 0 0 L 67.722 0 "/>
<path transform="matrix(1,0,0,-1,388.778,710.8384)" stroke-width="1" stroke-linecap="butt" stroke-miterlimit="10" stroke-linejoin="miter" fill="none" stroke="#231f20" d="M 0 0 L 67.722 0 "/>
<path transform="matrix(1,0,0,-1,456.5004,710.8384)" stroke-width="1" stroke-linecap="butt" stroke-miterlimit="10" stroke-linejoin="miter" fill="none" stroke="#231f20" d="M 0 0 L 67.722 0 "/>
<g id="Layer-1" data-name="Span">
</g>
<g id="Layer-1" data-name="Span">
</g>
<g id="Layer-1" data-name="Span">
</g>
<g id="Layer-1" data-name="Span">
</g>
<g id="Layer-1" data-name="Span">
</g>
<g id="Layer-1" data-name="Span">
<text fill="#f1bc20" xml:space="preserve" transform="matrix(1 0 -0 1 0 841.89)" font-size="12" font-family="Roboto" font-weight="bold"><tspan y="-136.3256" x="222.9653 229.7549 236.22049 242.44849 290.77729 297.5669 304.03373 310.16935 358.4693 365.25889 371.72569 377.89607 426.2453 433.03489 439.50169 445.62168 492.8573 499.6493 506.5589 513.3509">20162017201820192020</tspan></text>
</g>
<g id="Layer-1" data-name="Span">
</g>
<g id="Layer-1" data-name="Span">
</g>
<g id="Layer-1" data-name="Span">
</g>
<g id="Layer-1" data-name="Span">
</g>
<g id="Layer-1" data-name="Span">
</g>
<g id="Layer-1" data-name="Span">
<text fill="#231f20" xml:space="preserve" transform="matrix(1 0 -0 1 0 841.89)" font-size="9" font-family="Roboto"><tspan y="-102.783" x="74.8661 81.5171 83.704097 88.74769 93.58518 98.660289 103.36639 106.39039 108.577388 113.716388 118.79598 122.22318 124.97268 232.6091 237.09561 238.26383 242.67383 298.8941 303.3761 305.285 310.3997 366.7001 371.1821 373.0397 378.1211 433.8041 438.9116 440.7692 445.8506 501.5291 506.6366 508.4942 513.57559">% dager borte1,1%1,3%1,2%3,2%3,2%</tspan></text>
</g>
<g id="Layer-1" data-name="Span">
</g>
<text fill="#404041" xml:space="preserve" transform="matrix(1 0 -0 1 0 841.89)" font-size="7" font-family="Roboto"><tspan y="-29.016" x="448.5529 453.0119 457.9609 462.3926 464.58293 469.23933 473.27833 477.15495 478.89796 481.03858 486.12757 490.92887 493.0695 497.9611 502.14009 506.36528 511.31849 515.9245 519.953">SOSIALE INDIKATORER</tspan></text>
<text fill="#404041" xml:space="preserve" transform="matrix(1 0 -0 1 0 841.89)" font-size="8" font-family="Roboto" font-weight="bold"><tspan y="-44.7402" x="515.2297 519.82168">83</tspan></text>
<g id="Layer-1" data-name="Artifact">
<clipPath id="cp739">
<path transform="matrix(1,0,0,-1,0,841.89)" d="M 0 0 L 595.276 0 L 595.276 841.89 L 0 841.89 Z "/>
</clipPath>
<g clip-path="url(#cp739)">
<path transform="matrix(1,0,0,-1,524.4094,802.3869)" stroke-width=".5" stroke-linecap="butt" stroke-miterlimit="4" stroke-linejoin="miter" fill="none" stroke="#404041" d="M 0 0 L -1048.819 0 "/>
</g>
<g id="Layer-1" data-name="Span">
</g>
<text fill="#404041" xml:space="preserve" transform="matrix(1 0 -0 1 0 841.89)" font-size="5" font-family="Roboto" font-weight="bold"><tspan y="-805.9686" x="403.742 407.072 410.257 413.222 415.8245 419.0045 422.5345 425.86448 428.68849 431.86848 435.05348 438.14347 439.38847 442.56846">GRATANGLAKS AS</tspan></text>
</g>
<g id="Layer-1" data-name="Span">
</g>
<g id="Layer-1" data-name="Span">
<text fill="#595959" xml:space="preserve" transform="matrix(1 0 -0 1 0 841.89)" font-size="5" font-family="Roboto"><tspan y="-805.9686" x="452.0188 455.3038 460.1488 463.3988 466.4088 469.7138 472.9638 476.3938 479.3768 482.4918 485.6268 488.8768 492.3068 495.6318 498.95683 502.5668 505.6203">B&#x00c6;REKRAFTSRAPPORT</tspan></text>
</g>
<text fill="#404041" xml:space="preserve" transform="matrix(1 0 -0 1 0 841.89)" font-size="5" font-family="Roboto" font-weight="bold"><tspan y="-805.9686" x="512.5638 515.4338 518.3038 521.17379">2020</tspan></text>
<g id="Layer-1" data-name="Artifact">
<clipPath id="cp740">
<path transform="matrix(1,0,0,-1,0,841.89)" d="M 0 0 L 595.276 0 L 595.276 841.89 L 0 841.89 Z "/>
</clipPath>
<g clip-path="url(#cp740)">
<path transform="matrix(1,0,0,-1,-524.4094,39.3869)" stroke-width=".5" stroke-linecap="butt" stroke-miterlimit="4" stroke-linejoin="miter" fill="none" stroke="#404041" d="M 0 0 L 1048.819 0 "/>
</g>
<g id="Layer-1" data-name="Span">
</g>
<text fill="#404041" xml:space="preserve" transform="matrix(1 0 -0 1 0 841.89)" font-size="9" font-family="Roboto"><tspan y="-735.2513" x="70.8661 76.5415 78.557498 80.654499 85.6765 90.5347 93.5587 95.6737 100.753299 105.80679 110.83689 112.87179 120.789089 123.933689 125.949687 131.01399 136.00899 138.09699 142.70679 147.79538 155.76938 157.83937 162.44557 167.12378 170.28279 173.0323 177.7384 180.7624 182.8774 187.4872 192.5695 196.83731 201.50922 203.61792 207.89292 212.44692 214.6699 219.72252 224.54653 226.63002 231.42523 234.31424 236.39324 241.21724 243.22605 245.30776 249.96076 252.00826 256.86735 260.04075 265.13563 269.80665 271.87034 276.87434 281.4841 286.5646 291.6586 296.3638 299.3878 304.237 308.7865 310.9303 316.00993 321.07154 325.77766 328.80165 330.91667 335.51655 339.98146 344.80546 346.82145 348.91847 354.02058 357.13368 359.92817 365.01048 368.02278 372.67579 377.22978 379.32679 387.36109 392.0852 397.0892 399.1682 407.1485 409.1645 414.1739 418.78907 421.67808 423.75709 431.73829 436.7468 438.7565 440.8103 445.8053 447.8933 451.0379 453.0476 457.61329 459.62928 463.9286 468.9686 471.0071 473.8016 478.8821 481.9061 484.02113 489.02964 491.13923 495.6455 500.195 504.4637 509.1689 512.19296 514.3079 519.4028 524.39779">Vi har oppl&#x00e6;ring som setter s&#x00f8;kelys p&#x00e5; at alle arbeidsoperasjoner skal utf&#x00f8;res med minst mulig risiko for ulykker og </tspan></text>
</g>
<g id="Layer-1" data-name="Span">
</g>
<g id="Layer-1" data-name="Span">
</g>
<g id="Layer-1" data-name="Span">
</g>
<g id="Layer-1" data-name="Span">
</g>
<text fill="#404041" xml:space="preserve" transform="matrix(1 0 -0 1 0 841.89)" font-size="9" font-family="Roboto"><tspan y="-724.4514" x="70.8661 75.9322 80.6383 85.6837 90.7516 95.4226 97.4332 102.0385 106.7446 109.7686 111.9556 116.614 121.7035 129.6775 131.8645 136.33301 141.19121 146.1322 148.3192 152.7085 160.6258 163.63809 168.29109 170.47809 173.3671 175.3669 177.3829 179.5699 184.19861 188.66442 193.48842 198.57431 203.22731 205.4143 208.19261 213.2722 216.2962 218.4832 222.886 227.7442 230.7565 235.4095 237.5965 245.611 250.336 255.37509 260.2333 263.4076 268.5016 273.1735 275.23719 280.30418 285.00938 288.02168 292.64228 294.79328">hendelser som kan v&#x00e6;re til skade for v&#x00e5;re medarbeidere. </tspan><tspan y="-713.6514" x="70.8661 77.29659 82.41219 87.11829 92.059299 95.07879 99.93699 103.11129 108.20619 112.87719 114.94089 119.944889 124.55469 129.63428 134.68778 139.74308 144.79027 149.53508 153.87848 158.58368 161.60768 164.60468 166.62068 171.68408 176.74568 181.45178 186.48548 194.40367 197.41597 202.12117 205.14517 208.14217 212.84737 217.78836 220.81237 225.27635 227.28696 231.89766 236.45166 239.43067 242.57527 244.58498 249.15068 251.16669 255.46599 260.4889 262.2079 265.1599 273.1942 277.8994 282.84043 285.86445 290.20967 294.93379 299.93778 302.89878 307.72279 310.6883 315.92359 318.0665 323.1488 326.1611 330.81413 333.74815 336.89274 338.90333 343.4681 345.4841 349.78343 354.86485 359.72306 364.66407 369.56007 371.66877 375.94377 380.67594 385.38114 388.03163 389.7506 392.70265 397.77775 402.73765 407.09904 411.75205 414.68608 419.78007 424.77507 427.74507 432.83366 437.91957 442.92356 445.88008 450.96058 456.01316 461.04417 463.07817 470.99638 474.14097 476.15696 481.22218 486.21717 489.18269 494.2776 499.27259 502.2381 507.2916 510.47489 515.5131 519.7809 524.4339">Noen arbeidsoppgaver inneb&#x00e6;rer en viss risiko, men ved &#x00e5; gj&#x00f8;re risikoanalyser, n&#x00f8;ye og god oppl&#x00e6;ring og bruke </tspan><tspan y="-702.85147" x="70.8661 75.210399 79.915599 83.0899 88.1524 92.821598 97.9237 100.8127 105.4279 108.5923 113.0986 115.74911 117.46811 119.655109 124.125408 126.1342 128.1502 130.3372 134.8309 136.84691 139.0339 147.043 149.059 154.0936 156.1438 164.1781 168.8842 171.8965 176.5495 178.7365 181.8613 183.871 188.4367 190.45272 194.75202 199.75331 201.90431">verneutstyr, vil vi minimere risiko. </tspan><tspan y="-681.25149" x="70.8661 76.93029 81.72639 84.67209 89.53119 94.23729 99.17829 101.36529 103.38129 105.56828 108.615688 113.473888 118.56789 123.239788 125.24858 127.33028 132.03548 136.97647 139.16347 144.27277 149.31816 154.38516 159.09127 162.11527 164.30226 169.37285 174.23105 177.25505 179.44205 184.52164 186.53134 188.63645 191.79636 194.68537 196.87236 201.51636 206.38266 214.36296 216.44467 221.12198 224.01099 226.19799 230.67098 232.68698 237.51099 239.69799 244.73979 250.9804 256.30839 258.4954 263.3446 268.07774 272.54264 274.55863 278.98573 283.5964 288.1504 292.42539 297.19267 299.94218 304.6573 312.724">Dataen i tabellen under har blitt samlet via EQS avvikssystem.</tspan></text>
</g>
</g>
</svg>
