<?xml version="1.0" encoding="UTF-8" standalone="no"?>
<!DOCTYPE svg PUBLIC "-//W3C//DTD SVG 1.1//EN" "http://www.w3.org/Graphics/SVG/1.1/DTD/svg11.dtd">
<svg xmlns="http://www.w3.org/2000/svg" xmlns:xlink="http://www.w3.org/1999/xlink" version="1.1" width="595.276pt" height="841.89pt" viewBox="0 0 595.276 841.89">
<g enable-background="new">
<g>
<g id="Layer-1" data-name="Span">
</g>
<g id="Layer-1" data-name="Span">
<text fill="#10a79d" xml:space="preserve" transform="matrix(1 0 -0 1 0 841.89)" font-size="15" font-family="Roboto"><tspan y="-759.7736" x="70.8661 79.4071 87.786098 96.196598 101.2831 109.8031 113.5381 123.56261 127.41011 132.5581 140.4976 148.6801 153.57161 161.41661 165.15161 173.66861 178.71912 186.44412 190.22711 194.0746 202.6051 211.09511 214.83011 222.70362 230.30861 234.04361 241.9591 245.7421 249.58959 262.5766 270.6781 279.1456 287.2261 294.9751 302.7061 310.6456 315.9106 319.6456 324.14109 333.3226 342.90159 353.1421 362.59959 370.90959 374.64457 382.33656 387.46656">305-1 Direkte utslipp av klimagasser (SCOPE 1) </tspan></text>
</g>
<g id="Layer-1" data-name="Span">
</g>
<g id="Layer-1" data-name="Span">
</g>
<g id="Layer-1" data-name="Span">
</g>
<g id="Layer-1" data-name="Span">
</g>
<g id="Layer-1" data-name="Span">
</g>
<g id="Layer-1" data-name="Span">
</g>
<g id="Layer-1" data-name="Span">
</g>
<g id="Layer-1" data-name="Span">
</g>
<g id="Layer-1" data-name="Span">
</g>
<g id="Layer-1" data-name="Span">
</g>
<g id="Layer-1" data-name="Span">
</g>
<g id="Layer-1" data-name="Span">
</g>
<g id="Layer-1" data-name="Span">
</g>
<g id="Layer-1" data-name="Span">
</g>
<g id="Layer-1" data-name="Span">
</g>
<g id="Layer-1" data-name="Span">
</g>
<g id="Layer-1" data-name="Span">
</g>
<g id="Layer-1" data-name="Span">
<text fill="#404041" xml:space="preserve" transform="matrix(1 0 -0 1 0 841.89)" font-size="9" font-family="Roboto"><tspan y="-735.2513" x="70.8661 76.5415 78.557498 80.142398 85.2373 89.9425 94.8664 99.6247 102.7846 105.534099 110.239299 113.2633 114.8689 121.024898 124.0732 128.8288 133.534 138.57129 143.64998 148.71068 153.65167 158.32898 162.98198 164.51918 170.69499 175.49919 180.05319 181.6408 187.237 190.261 195.2011 197.95511 203.07071 207.7876 212.8447 214.8607 216.4465 218.98091 225.16571 231.5314 237.68741 239.28491 244.88202 247.90602 252.84702 255.60103 260.68064 264.95295 270.01097 272.01976 274.10145 278.80665 283.50016 286.43415 287.92366 292.53343 297.62205 305.59605 307.15666 310.18064 315.09196 323.10557 331.13987 335.78388 340.1273 344.8334 348.0077 352.4177 353.98643 356.7809 361.86054 364.88453 366.49015 369.51414 374.41734 379.47084 384.5603 389.6408 393.068 395.8166 400.5227 403.6673 405.6833 410.7476 415.74259 417.3149 422.0588 426.38783 428.02043 432.54023 434.54994 436.5992 444.5885 449.426 454.4741 459.2783 463.88899 468.45466 473.55766 476.44667 481.01234 483.02204 485.03804 490.11854 495.1198 497.2708 498.82695 504.9793 509.68544 514.7218 519.7834 524.4364">Vi benytter Greenhouse Gas Protocol (GHG Protokollen) som rammeverk for rapportering av klimagassutslipp. Denne </tspan><tspan y="-724.4513" x="70.8661 72.929798 77.996799 82.701999 87.6682 90.571598 92.72889 95.70789 97.61139 102.21759 106.92279 109.93599 114.64119 117.66519 121.33179 125.67609 130.32909 134.93529 139.64139 144.60669 147.5101 149.5189 151.57361 156.6487 161.3017 164.89989 170.00199 172.89099 177.4567 179.4655 181.4815 186.5611 191.54709 196.1731 200.6938 202.7026 204.76631 209.83332 214.53942 217.16472 219.31572 222.93282 229.11762 235.4833 241.73471 245.60022 251.19733 254.22133 259.1614 261.9154 266.99504 271.26734 276.32536 278.33415 280.41584 285.12104 290.06205 293.75025 298.45545 301.47944 305.14695 310.21394 314.92005 319.86106 323.54838 331.58357 336.23658 340.85176 343.74076 347.36686 352.41944 355.60273 360.64186 365.36775 368.11634 372.76936 376.36756 381.46247 386.45747 390.09077 394.94898 400.01148 404.71669 407.89097 412.39817 414.52937 419.23457 424.20079 426.94938 431.6024 435.2006 438.22459 443.12779 448.18037 453.27076 458.35038 461.77757 464.52708 469.2332 472.37779 474.39378 479.45899 484.45399 489.08088 497.11518 501.7934 504.5465 509.63243 514.6994 519.4055 524.3465">identifiserer vesentlige utslippskilder. GHG-Protokollen er den mest brukte og anerkjente rapporteringsmetoden </tspan><tspan y="-713.6513" x="70.8661 73.6606 78.7402 81.7642 84.55419 89.07399 91.08279 93.13299 101.122287 105.95978 111.00698 115.81118 120.42188 124.98849 130.09059 132.9796 137.5453 139.55411 141.57012 146.64972 151.65192 153.80292 156.54341 162.69582 167.40192 172.34291 175.15361 180.3889 182.5318 187.6141 190.6381 193.4281 198.4951 203.17241 206.06142 208.81542 213.52062 218.557 222.82572 227.49672 229.60272 232.49173 235.24123 240.06523 242.82193 247.45693 252.32323 260.33775 268.37205 273.07817 278.08576 280.09455 282.14924 287.19194 292.25444 296.90745 299.62907 304.66908 309.27976 313.83375 316.60575 324.64006 329.36506 334.36906 337.11677 341.97499 347.02128 352.05497 355.06727 359.72029 362.4419 367.5359 372.2609 377.2946 380.43919 382.49748 385.70237 388.45097 393.15708 396.18107 398.97108 404.01557 408.75947 413.25318 418.3202 423.0254 428.0636 433.0586 435.13038 440.12538 442.88298 447.62687 451.95588 454.7729 459.82548 462.84947 467.75267 472.73509 477.28907 479.42027 484.03999 486.19099 488.9315 496.7606 501.4856 506.4896 509.23643 514.3259 519.4109 524.4149">for klimagassutslipp. Den gj&#x00f8;r det enkelt &#x00e5; sammenligne oss med andre bedrifter uavhengig av bransje. Med god </tspan><tspan y="-702.8513" x="70.8661 75.34809 80.38719 85.42359 90.40599 95.00589 99.470798 104.328998 109.314998 112.17249 117.26199 125.23599 128.07099 132.98139 137.33827 142.41786 145.44187 148.32186 152.78585 154.80185 157.66385 162.27906 165.22476 170.08296 172.73346 174.45246 177.28745 182.38234 187.37734 190.22583 198.20703 203.21553 205.22524 207.27904 212.32263 217.38874 222.06694 224.95595 227.79994 230.70336 232.71216 234.72817 237.59107 242.41507 245.26267 249.89856 254.76486 262.77848 270.81367 275.51887 280.52647 282.53617 284.59086 289.63356 294.69517 299.34819 302.1652 310.1995 314.9236 319.9276 322.76713 327.62623 332.67164 337.70533 340.71763 345.37065 348.18766 353.28166 358.00666 363.04035 366.18495 368.24324 371.44725 374.19676 378.90287 381.92686 384.80686 389.41664 394.50614 402.48014 405.31517 410.39479 415.44737 420.50086 425.44187 430.37208 433.39607 436.27607 441.36466 446.45057 451.51756 456.17057 458.98307 461.99626 466.64927 471.21586 476.22438 478.33036 481.27607 486.07127 488.82078 493.5269 496.17738 497.89637 500.73139 505.1963 510.0545 514.9955 517.898 522.362 524.378">kunnskap om hvor vi st&#x00e5;r, og mulighet til &#x00e5; sammenligne med andre bedrifter som oppn&#x00e5;r gode resultater, kan vi </tspan><tspan y="-692.05136" x="70.8661 75.4723 80.1496 83.309497 86.05899 90.71199 93.351688 97.951587 102.458789 104.58909 109.29519 112.46949 117.56349 122.28849 127.35549 132.0085 134.6491 142.6384 147.4624 149.47841 152.1694 158.0284 161.0434 166.13829 171.13329 173.80898 178.74997 183.57398 186.32167 188.40338 193.10858 198.14678 203.18947 206.20177 210.82238 212.97338 215.63198 221.82308 224.71208 229.27689 231.28659 233.3026 238.3822 243.3682 246.05289 251.12079 255.7918 257.8735 262.52653 267.0805 269.77064 271.78663 274.47764 277.41075 280.42304 285.07606 287.71577 292.18067 296.97587 299.72538 304.4423 309.53089 314.6105 317.7551 319.8368 324.542 327.56599 330.275 334.7399 339.5639 341.6699 344.5589">sette skjerpede m&#x00e5;l &#x2013; og n&#x00e5; lengre. Utslipp deles i tre kategorier kalt </tspan></text>
<text fill="#404041" xml:space="preserve" transform="matrix(1 0 -0 1 0 841.89)" font-size="9" font-family="Roboto"><tspan y="-692.05136" x="347.2201">&#x00ab;</tspan></text>
<text fill="#404041" xml:space="preserve" transform="matrix(1 0 -0 1 0 841.89)" font-size="9" font-family="Roboto"><tspan y="-692.05136" x="351.2881 355.86009 360.6031 365.6836 370.7776 375.44859">scopes</tspan></text>
<text fill="#404041" xml:space="preserve" transform="matrix(1 0 -0 1 0 841.89)" font-size="9" font-family="Roboto"><tspan y="-692.05136" x="380.0611">&#x00bb;</tspan></text>
<text fill="#404041" xml:space="preserve" transform="matrix(1 0 -0 1 0 841.89)" font-size="9" font-family="Roboto"><tspan y="-692.05136" x="383.80509 385.6951 388.3735 394.4917 396.5077 399.54698 404.25218 408.97898 411.72758 416.38059 419.0212 424.12333 427.01234 431.578 433.5868 435.60279 440.68238 445.66838 448.3531 450.9838 456.553 461.26994 466.34956 471.44444 476.09745 478.73716 483.20207 486.07756 487.79655 490.46055 492.47654 497.54896 502.55296 504.56895 507.60823 512.31436 517.0402 519.7897 524.4427">: Direkte utslipp (Scope 1), indirekte </tspan><tspan y="-681.25137" x="70.86609 75.96819 78.85719 83.4229 85.432598 87.44859 92.52819 97.51419 99.70119 102.68019 105.70419 110.52819 112.71519 117.48159 122.54409 127.24929 130.26248 135.25748 137.33289 140.1274 145.20789 148.31468 152.86869 157.40288 162.41048 164.42649 169.49079 174.48578 176.67278 179.32057 184.88977 189.60576 194.68625 199.78025 204.43325 206.62024 211.46764 214.40164 216.58864 221.61603 226.61103 228.79802 230.85453 235.90082 240.90482 242.92082 245.96013 250.66533 255.39124 258.14076 262.79377 264.98078 270.064 272.953 277.51869 279.52839 281.54438 286.62489 291.61088 293.79789 298.3726 303.2956 308.05479 311.21379 313.9633 318.6415 321.53053 323.71754 326.60655 328.63334 330.64933 332.83634 337.37324 339.51615 344.59846 349.58445 351.77146 356.54057 360.86958 363.05659 367.9904 373.03669 378.07038 381.08268 385.7357 387.9227 392.2517 397.10993 400.12223 404.82835 407.85234 410.03935 415.18284 420.17784 422.36485 425.27186 427.40217 432.10737 437.16987 441.82289 446.43806 449.18757 453.89277 456.91676 459.10377 461.78398 467.35319 472.0701 477.14973 482.2437 486.89674 489.08375 493.88975 496.65455">utslipp fra energiforsyning (Scope 2) og indirekte utslipp knyttet til kj&#x00f8;p av andre varer og tjenester (Scope 3).</tspan><tspan y="-659.65139" x="70.86609 73.260089 75.44708 80.541988 85.53699 87.700588 95.734889 100.459888 105.46388 107.62388 112.419078 115.308078 117.46807 122.53237 127.34017 131.78888 136.77487 138.92588 144.01987 149.01486 151.17845 156.03665 159.04895 163.75505 168.81665 173.46965 175.59815 178.48715 180.55986 185.56386 187.57357 189.62737 194.70336 199.40856 202.42086 207.07386 209.20235 213.90755 216.93155 219.12755 223.67705 228.60094 233.36014 236.51915 239.26866 243.94597 246.83498 248.99498 251.89839 253.9072 255.9232 258.1012 262.7371 267.6034 275.6215 280.65519 283.80067 285.85807 289.06297 291.95198 294.11198 302.14628 306.8704 311.8744 314.0299 319.7251 321.80589 326.47779 328.56938 332.92268 337.74668 339.91029 344.97727 346.98698 351.58686 355.85466 360.50767 363.33546 368.19367 371.37696 379.46977 381.18876 383.33976 387.80467 389.81346 391.82945 394.00746 396.02345 400.59996 404.86775 409.52076 411.64927 414.59498 419.41899 421.42869 423.50947 428.21559 433.2772 437.9302 440.05873 442.8532 447.93284 450.95683 453.15284 458.21714 463.32374 468.38804 473.37403 475.52503 479.84416 487.76148 490.77378 495.4268 497.5562 502.5602 504.5762 507.61549 512.3207 517.0466 519.796 524.44906">I og med at 2019 og &#x00e5;rene tidligere er knyttet til samdrift med Kleiva Fiskefarm, vil ikke tallene for 2020 v&#x00e6;re direkte </tspan><tspan y="-648.8514" x="70.86609 75.50199 80.35299 88.38459 96.41889 101.12409 106.13259 108.14139 110.19609 115.218097 120.1861 125.3287 130.1869 133.1992 137.83061 140.01763 148.05193 152.77693 157.78633 159.97335 164.97826 166.98796 171.56896 176.14995 180.82366">sammenlignbare med disse.</tspan></text>
<text fill="#404041" xml:space="preserve" transform="matrix(1 0 -0 1 0 841.89)" font-size="9" font-family="Roboto"><tspan y="-627.2514" x="70.86609 76.53609 81.33399 86.56299 91.79199 96.502597 98.7616">Scope 1</tspan></text>
<text fill="#404041" xml:space="preserve" transform="matrix(1 0 -0 1 0 841.89)" font-size="9" font-family="Roboto"><tspan y="-627.2514" x="103.887088 106.09208 110.79818 113.82218 116.07938 121.14638 125.79938 127.986377 132.99037 135.00638 138.04569 142.75179 147.47769 150.2272 154.8802 157.0672 162.1702 165.0592 169.62491 171.63462 173.65062 178.73113 183.82514 188.53034 193.59284 198.24584 200.43283 203.33625 205.34595 207.36196 209.59395 214.68886 219.41297 224.44756 227.59217 229.64957 232.85448 235.60399 240.30919 245.25019 247.52718 251.87958 256.7378 259.36308 261.51408 263.7191 269.83818 271.84788 276.45857 281.06474 285.71775 287.90476 292.61088 295.63487 297.89207 302.95906 307.61207 309.79908 314.07139 319.151 324.1163 327.0494 330.0734 335.1314 337.1402 339.2219 343.9271 347.35429 350.1038 354.7568 356.94383 359.957 364.61003 369.2207 373.7873 378.8255 381.93229 386.53846 391.24366 394.26765 396.52485 401.1346 406.22413 414.19813 416.40943 420.87434 422.89033 425.12236 430.14436 435.00257 438.02656 440.28376 444.95478 447.03648 451.74168 454.84846 459.44834 463.91325 468.77146 473.75746 475.98948 478.89289 480.9026 482.9915 485.1425 487.3475 489.55253 495.12983 500.21846 508.19245 510.40467 514.86868 516.8793 521.4945 524.3835"> er de direkte utslippene til bedriften v&#x00e5;r. Disse er de kontrollerte ressurser som vi har eierskap til.  Som vist </tspan><tspan y="-616.4514" x="70.86609 72.88209 75.069087 78.04449 82.90269 87.99669 92.66859 94.67738 96.75908 101.46428 106.40528 108.59228 113.70428 118.74968 123.81668 128.52278 131.54679 133.73378 138.48848 141.51248 143.69948 148.81598 153.49419 156.3832 158.57019 163.12779 168.05168 172.80998 175.9699 178.7194 183.39672 186.28572 188.47272 191.38513 193.39394 195.40995 197.59694 202.66034 205.80495 207.89656 212.28406 216.89926 219.65238 224.56816 227.72537 230.84838 235.90099 239.08429 244.12339 248.53339 250.72039 255.07637 259.80049 264.80448 266.9915 272.0522 275.07618 280.1612 285.1949 290.2331 294.6332 299.1872 301.3301 306.4106 311.47224 316.17835 321.27238 323.42338 325.61039">i tabellen under er det knyttet til drivstoffbruk ved produksjonen.  </tspan><tspan y="-594.85147" x="70.86609 75.54249 80.39979 85.49469 90.16569 92.175388 94.25618 98.96228 103.90328 105.80858 110.27348 112.28318 116.88938 121.59458 124.61858 126.49958 131.29479 134.18379 136.0261 141.0931 145.7713 148.66031 150.49991 153.25392 158.19492 161.14063 165.96463 168.04544 172.69844 174.51013 179.61313 182.50214 187.06784 189.07755 191.09355 196.17406 201.26807 205.94538 208.83438 210.67488 215.69597 220.55417 223.57817 225.45917 230.54238 235.26828 238.15729 239.99689 242.9489 245.9729 250.7969 252.6896 255.59302 257.6567 262.6607 264.6695 266.72419 271.7993 276.5054 279.5177 284.17073 285.98243 290.84065 293.49113 295.2101 297.04704 305.0822 309.7874 314.72843 316.63014 321.65214 326.51036 329.53434 331.41535 336.12055 341.06156 342.96327 348.02577 352.74989 357.7899 362.83799 367.6962 372.73353 377.72853 379.57713 382.52824 385.55223 390.37623 392.26893 397.33323 402.14103 406.58973 411.55863 413.70964 415.54115 417.37446 422.05174 425.0757 429.9789 434.96223 439.56123 444.6516 449.73124 453.15843 456.04743 457.88795 462.59315 465.61714 467.49815 469.51414 471.37535 476.93916 481.79737 484.94197 486.95167 491.56956 495.36576 500.10966 504.85627 507.80287 512.62686 514.70767 519.41378 524.35476">Tabellen viser at det totale utslippet har &#x00f8;kt fra tidligere &#x00e5;r, men har en nedgang fra 2019.  Transport er i Paris-avtalen </tspan><tspan y="-584.05148" x="70.86609 75.93309 80.66439 83.643398 85.57299 90.63459 95.34069 98.76789 101.65689 103.89969 108.50859 113.59809 121.57209 123.80949 128.5156 133.45659 135.76059 140.5045 144.8335 147.1438 152.22249 157.17069 161.51499 166.23999 171.27368 176.32628 179.47089 181.56519 186.64478 189.78939 191.89539 194.6449 199.3501 202.4947 204.51071 209.57501 214.651 219.3562 224.4178 229.0708 231.28569 234.0802 239.15979 242.18379 244.46709 249.29109 251.54109 254.55339 259.27839 264.3112 269.2522 273.9304 278.6356 281.6479 286.3009 288.5158 293.0356 295.0444 297.0946 305.0839 309.9214 314.96858 319.77278 324.38346 328.98963 333.69483 336.3201 338.4711 340.70494 346.85823 351.53553 354.42454 356.66734 361.37345 364.39744 366.68077 371.38597 376.32698 378.63188 382.97529 387.6283 392.23448 396.94059 401.90589 404.8093 406.819 408.8728 413.8678 416.1178 421.1488 423.2116 428.24623 431.2702 436.1527 441.1477 445.7017 450.5059 453.2545 457.9606 460.9846 463.2679 468.3619 473.3569 475.60783 480.2131 484.885 486.9775 491.30653 493.61595 498.70545 506.67945 508.91688 510.93287 515.50936 519.7771 524.4301">definert som en av hovedprioriteringene for &#x00e5; redusere klimagasser. Det er en vesentlig bidragsyter og selv om ikke </tspan><tspan y="-573.25149" x="70.86609 73.79919 76.82319 81.72639 86.708789 91.308689 96.398189 101.47868 104.90588 107.79488 109.98188 114.69608 117.720088 119.90708 125.02358 129.75399 132.73299 134.6626 139.7251 144.4303 147.8584 150.7474 152.9344 157.5523 162.6409 170.6149 172.8019 177.48279 180.3718 182.55879 187.2838 192.35979 197.0371 199.9261 202.1131 210.1114 214.93541 216.95142 219.13842 224.20632 229.25171 234.31871 239.02481 242.04882 244.23581 249.39641 255.7864 260.3404 262.5274 267.5566 275.47395 278.48625 283.19236 287.74186 290.76585 295.55924 298.76414 301.65315 306.26203 314.2513 319.07533 321.2056 322.9246 325.1116 329.82313 332.8471 335.03413 340.1506 344.8558 349.7968 351.98384 353.99983 359.13523 364.14283 366.22453 370.93965 378.95326 386.98756 391.66578 394.55479 396.7418 398.75779 400.9448 404.075 406.1567 410.8619 413.8742 418.52723 420.71424 425.43833 429.76734 431.95436 440.02015 444.84416 446.92494 451.63105 456.69267 461.31327">transport er definert som et eget m&#x00e5;l under FNs b&#x00e6;rekraftsm&#x00e5;l, er den innlemmet i flere av m&#x00e5;lene.</tspan></text>
</g>
<g id="Layer-1" data-name="Span">
</g>
<text fill="#10a79d" xml:space="preserve" transform="matrix(1 0 -0 1 0 841.89)" font-size="15" font-family="Roboto"><tspan y="-492.6553" x="70.8661 79.4071 87.786098 96.196598 101.668598 110.1886 113.9236 118.1716 126.6961 135.13359 138.98108 144.12908 152.06858 160.24958 165.14258 172.98758 176.72258 185.23958 190.29009 198.01509 201.79808 205.64557 214.17607 222.66608 226.40108 234.27458 241.87958 245.61458 253.53008 257.31309 261.16059 274.14759 282.24909 290.71659 298.7971 306.54609 314.27558 322.21659 327.4816 331.21659 339.20259 347.45558 355.47608 360.84309 365.73609 373.6096 378.7396 382.47459 387.5041 391.2856 395.17063 398.9056 406.8586 415.3606 423.3001 428.44813 436.9081 440.7076 445.60963 454.1176 459.42164 467.95964 473.28016 481.80015 489.64515">305-2 Indirekte utslipp av klimagasser knyttet til energiforbruk </tspan><tspan y="-474.6553" x="70.8661 75.361598 84.541599 94.1206 104.3611 113.8201 122.1301 125.8651 133.9321 139.0621">(SCOPE 2) </tspan></text>
<g id="Layer-1" data-name="Artifact">
<clipPath id="cp708">
<path transform="matrix(1,0,0,-1,0,841.89)" d="M 0 0 L 595.276 0 L 595.276 841.89 L 0 841.89 Z "/>
</clipPath>
<g clip-path="url(#cp708)">
<filter id="blend_3"><feBlend mode="overlay" in2="BackgroundImage" in="SourceGraphic"/></filter>
<g filter="url(#blend_3)">
<clipPath id="cp709">
<path transform="matrix(1,0,0,-1,0,841.89)" d="M 69.8661 537.328 L 525.409 537.328 L 525.409 539.828 L 69.8661 539.828 Z "/>
</clipPath>
<g clip-path="url(#cp709)">
<path transform="matrix(1,0,0,-1,70.8661,303.31184)" stroke-width=".5" stroke-linecap="butt" stroke-miterlimit="4" stroke-linejoin="miter" fill="none" stroke="#b9bbbd" d="M 0 0 L 453.543 0 "/>
</g>
</g>
</g>
<g id="Layer-1" data-name="Span">
</g>
<text fill="#404041" xml:space="preserve" transform="matrix(1 0 -0 1 0 841.89)" font-size="9" font-family="Roboto"><tspan y="-447.5879" x="70.8661 76.536098 81.334 86.563 91.79201 96.50261 99.31961">Scope 2</tspan></text>
</g>
<g id="Layer-1" data-name="Span">
</g>
<g id="Layer-1" data-name="Span">
</g>
<g id="Layer-1" data-name="Span">
</g>
<g id="Layer-1" data-name="Span">
</g>
<text fill="#404041" xml:space="preserve" transform="matrix(1 0 -0 1 0 841.89)" font-size="9" font-family="Roboto"><tspan y="-447.5879" x="104.4353 107.1803 111.8855 114.9095 117.706699 122.7737 127.4267 130.15369 132.1697 137.24298 142.24698 144.26299 147.30229 152.00749 156.7334 159.48291 164.13591 166.8629 171.9659 174.8549 179.42061 181.43032 183.44632 188.52681 193.62082 198.32602 203.38852 208.04152 210.76851 213.72052 216.74452 221.56853 224.37653 228.88373 231.02663 236.10894 241.05445 243.94345 246.69745 251.40355 256.46516 261.17127 264.18357 269.17857 271.28636 273.43736 276.18238 278.5764 281.3664 286.4307 291.5373 296.6016 301.5876 304.3389 309.36003 314.21824 317.24223 320.03944 324.71046 326.79216 331.49736 336.22416 339.15638 342.30097 344.31156 348.87724 350.98234 353.73185 358.41007 361.15867 365.86479 370.8058 373.6228 378.66999 383.46519 386.6251 389.5141 392.2681 397.3297 402.05473 407.05873 409.8127 414.9067 419.58494 422.51716 425.54115 430.44435 435.17115 437.91975 442.59165 444.60044 446.65513 451.65013 454.41313 457.36424 460.3882 465.21223 468.02024 473.08454 477.89234 482.3752 487.3612 490.1116 495.2065 500.2015 502.9645 508.0288 512.8366 517.28536 522.2543 524.4053"> er de indirekte utslippene fra kj&#x00f8;pt energi. I 2020 har elektrisiteten g&#x00e5;tt ned betraktelig fra 2018 og 2019. </tspan><tspan y="-436.7879" x="70.8653 76.549709 79.65651 84.29241 89.15061 93.41841 98.12361 103.06461 106.60161 109.49061 111.50661 113.522609 117.0146 122.082508 126.7598 129.91971 132.66922 137.32222 140.76921 145.47531 148.49932 152.00931 156.9503 161.588 163.604 168.18051 172.44832 177.15352 179.80402 181.52301 184.99341 189.4583 191.4743 194.9663 199.3106 204.0167 208.7426 211.64601 213.72682 218.44373 223.49272 228.56781 233.27391 236.29792 239.8079 241.82392 246.40042 250.66913 255.32213 258.76914 263.83613 268.51435 271.67427 274.42286 279.07588 282.5229 285.4398 290.478 295.5162 300.6228 303.6639 305.3829 308.8533 313.8924 318.7164 322.1994 325.146 329.97 331.9788 334.0605 338.7657 343.8282 348.4812 351.92823 353.9442 358.52073 362.7885 367.44154 370.88856 375.59468 378.61866 382.12867 387.13267 389.14866 392.18794 396.89405 401.61994 404.36854 409.02156 412.46858 417.10447 421.97077 429.98439 438.01869 442.7248 447.7324 449.7421 451.7959 456.8395 461.87593 466.9276 471.78584 474.79814 479.41874 481.56974 485.03477 491.18714 495.86537 498.75437 502.22837 504.98237 509.92338 512.8691 517.69308 519.7747 524.42776">&#x00c5;rsaken til dette er usikker, vi vektlegger ikke dette tungt, da tallene ikke er direkte sammenlignbare. Det totale </tspan><tspan y="-425.9879" x="70.8653 75.5714 80.633 85.3382 88.3505 93.345508 95.420909 98.21541 103.295909 106.47021 111.522808 114.70611 119.74521 124.013019 128.69033 131.57933 134.05432 136.84883 141.92932 144.95333 147.47153 152.53943 157.19243 159.64043 164.64443 166.66043 169.69974 174.40584 179.13175 181.88126 186.53426 188.98226 194.08525 196.97426 201.53907 203.54877 205.56478 210.64528 215.73929 220.44539 225.50699 230.15999 232.60799 237.70198 242.69698 245.18097 250.24797 254.90097 257.34898 259.36497 264.43739 269.44139 271.45738 274.49665 279.20277 283.92866 286.67726 291.33027 293.77919 298.88218 301.77119 306.33686 308.34657 310.36256 315.44215 320.53703 325.24314 330.30476 334.96678 336.68577 339.16078 344.1819 349.0401 352.0641 354.5832 359.6772 364.67219 369.32609 374.1501 376.6341 381.6561 386.4513 389.6112 392.5002 394.97523 399.68043 404.62144 407.15946 412.22108 416.94609 421.98609 427.03419 431.8924 436.92973 441.9247 444.40873 447.36073 450.3847 455.2087 457.73774 462.80204 467.60984 472.05854 477.03645 478.75544 481.22956 489.26475 493.96995 498.91096 501.44898 506.15419 509.17817 511.69728 516.77957 521.50546 524.3944">energiforbruket for de direkte utslippene og de indirekte utslippene, har ogs&#x00e5; hatt en nedgang fra 2019, men er &#x00f8;kt </tspan><tspan y="-415.18794" x="70.8653 73.81731 76.84131 81.665309 83.8523 86.8196 88.8833 93.8873 95.896999 97.9508 103.0268 107.732 110.7443 115.3973 117.5843 122.42269 125.0489">fra tidligere &#x00e5;r.</tspan></text>
<g id="Layer-1" data-name="Artifact">
<clipPath id="cp710">
<path transform="matrix(1,0,0,-1,0,841.89)" d="M 0 0 L 595.276 0 L 595.276 841.89 L 0 841.89 Z "/>
</clipPath>
<g clip-path="url(#cp710)">
<g filter="url(#blend_3)">
<clipPath id="cp711">
<path transform="matrix(1,0,0,-1,0,841.89)" d="M 69.8661 379.265 L 525.409 379.265 L 525.409 381.765 L 69.8661 381.765 Z "/>
</clipPath>
<g clip-path="url(#cp711)">
<path transform="matrix(1,0,0,-1,70.8661,461.3752)" stroke-width=".5" stroke-linecap="butt" stroke-miterlimit="4" stroke-linejoin="miter" fill="none" stroke="#b9bbbd" d="M 0 0 L 453.543 0 "/>
</g>
</g>
</g>
<g id="Layer-1" data-name="Span">
</g>
<text fill="#10a79d" xml:space="preserve" transform="matrix(1 0 -0 1 0 841.89)" font-size="15" font-family="Roboto"><tspan y="-335.0917" x="70.8661 79.4071 87.786098 96.196598 102.3706 110.890598 114.625598 124.26759 132.7921 141.2821 146.4301 154.2751 158.0101 161.8711 170.3956 178.8331 182.68059 187.82859 195.76808 203.94908 208.84209 216.68709 220.42209 228.34659 232.12958 235.97707 248.96407 257.06407 265.53157 273.61357 281.36256 289.09504 297.60453 302.65504 310.38 314.16304 318.01054 326.54103 335.031 338.766 342.50099 347.00248 356.184 365.76148 376.00349 385.46098 393.77098 397.50596 405.57444 410.70445">305-3 Andre indirekte klimagassutslipp  (SCOPE 3) </tspan></text>
</g>
<g id="Layer-1" data-name="Span">
</g>
<g id="Layer-1" data-name="Span">
</g>
<g id="Layer-1" data-name="Span">
</g>
<g id="Layer-1" data-name="Span">
</g>
<g id="Layer-1" data-name="Span">
</g>
<g id="Layer-1" data-name="Span">
</g>
<g id="Layer-1" data-name="Span">
</g>
<g id="Layer-1" data-name="Span">
</g>
<g id="Layer-1" data-name="Span">
</g>
<text fill="#404041" xml:space="preserve" transform="matrix(1 0 -0 1 0 841.89)" font-size="9" font-family="Roboto"><tspan y="-310.5695" x="70.8661 76.536098 81.334 86.563 91.79201 96.50261 98.509609">Scope 3</tspan></text>
<text fill="#404041" xml:space="preserve" transform="matrix(1 0 -0 1 0 841.89)" font-size="9" font-family="Roboto"><tspan y="-310.5695" x="103.6261 105.579097 110.284297 113.3083 115.31259 120.16989 125.216197 130.2499 133.26219 137.91519 139.85019 141.8662 146.93949 151.94348 153.95949 156.9988 161.704 166.4299 169.17942 173.83242 175.76741 180.8695 183.75852 188.32332 190.33303 192.34903 197.42862 202.42992 204.58092 206.53392 208.92792 210.92592 215.78412 218.79642 223.47463 226.36363 230.91764 232.90303 235.92704 240.83023 245.88373 250.97322 256.05284 259.48094 262.36994 264.33195 269.03807 272.06205 274.06547 279.13246 283.81068 286.69969 288.66169 293.14369 298.1828 303.1238 305.14884 310.25184 313.14085 317.70564 319.71534 321.73133 326.81184 331.79783 333.77784 338.32734 343.25126 348.00956 351.16947 353.91899 358.59629 361.4853 363.4473 366.3507 368.3595 370.3755 372.3555 375.1491 380.2296 383.2536 385.25703 389.8668 394.9554 402.9294 404.88243 409.58854 412.61253 414.61595 417.56254 422.35774 425.51673 428.40574 430.36775 438.40293 443.12705 448.21385 450.36485 452.31785 454.74876 457.54325 462.60307 464.65776 469.73286 474.38587 476.32087 481.79197 483.80796 488.80116 491.54975 496.20277 499.18177 501.03218 506.13429 508.8964 514.1317 516.2746 521.3569 524.38088"> er andre indirekte utslipp. I &#x00e5;rets rapport er det kun utslipp knyttet til f&#x00f4;r som er tatt med. If&#x00f8;lge Sintef utgj&#x00f8;r </tspan><tspan y="-299.7695" x="70.8661 75.385898 77.39559 79.44489 87.43419 92.27168 97.319789 102.123989 106.73469 111.30039 116.4034 119.2924 123.8581 125.8678 127.8838 132.9643 137.95029 140.18859 143.1406 146.1646 150.9886 153.2593 158.3119 161.3359 166.4209 171.45369 176.49279 180.89289 185.44689 187.58979 192.66938 197.61037 199.89096 204.98496 209.97995 212.20565 215.13875 218.16275 223.06595 228.04924 232.64824 237.73865 242.81824 246.24544 249.13445 251.35294 256.09684 260.42585 262.71186 265.50636 270.58598 273.59828 278.27558 281.16459 283.3831 291.41828 296.0893 298.09809 300.19239 305.281 313.255 315.46903 320.4685 325.4545 327.6676 332.7616 337.7566 339.9823 345.1699 350.3278 356.9788 359.1928 363.9367 368.26573 370.55085 375.61875 380.27177 382.45878 385.21278 390.15287 393.09947 397.92347 400.00517 404.65818 406.84519 411.94819 414.8372 419.40287 421.41258 423.42857 428.50816 433.49415 435.72978 438.68177 441.70576 446.52976 448.80049 450.81648 455.70167 460.10179 464.65577 466.89677 468.97846 473.62159 477.96589 482.67109 486.09828 488.98728 491.20579 494.1092 496.11799 498.13398 500.37318 505.40959 510.51258 513.40158 515.41757 520.003 524.41299">klimagassutslipp fra produksjon og transport av f&#x00f4;ret mellom 73 og 80% av de totale utslipp fra laks levert til butikk </tspan><tspan y="-288.9695" x="70.8661 73.727199 79.87959 84.55779 87.71769 90.466289 95.119289 97.30628 105.32168 110.04578 115.049777 117.23677 122.28307 127.31947 132.28568 135.23139 140.09049 144.50049 146.68749 151.44309 155.77208 157.95908 159.97509 164.93228 169.33238 173.88639 176.07338 180.71378 185.80327 193.77727 195.96427 198.91986 201.94387 206.84616 211.57297 214.32158 218.97458 223.52858 225.71558 233.78137 238.50548 243.50948 245.69647 248.79698 250.90659 255.18158 257.94728 260.09828 262.28529 268.43678 273.115 276.2749 279.0244 283.67744 285.86445 290.54988 293.57386 295.76087 300.87736 305.58348 308.96296 311.75746 316.83708 319.86106 322.04808 327.16456 331.87068 336.81169 338.9987 343.53379 345.54978 350.30268 353.2061 355.2599 360.25489 364.88719 367.6367 372.2897 374.4767 377.3027 382.16093 386.8868 389.6408 394.7213 397.7336 402.4388 407.37983 409.56684 411.58283 413.76985 419.43806 424.15498 429.2346 434.32948 438.98249 441.1695 446.1555 448.3425 451.1199 456.2004 459.2244 461.4114 465.81333 470.67155 473.69554 475.88255 480.98463 484.0086 489.0945 494.12733 499.16645 503.56657 508.11607 510.25987 515.3395 520.4343">(Dette med unntak av laks som fraktes med fly). Dette er derfor den viktigste faktoren i Scope 3 for v&#x00e5;r produksjon.</tspan><tspan y="-267.3695" x="70.8661 73.26009 76.22829 81.08649 84.098789 88.804889 93.866489 98.519489 101.42558 104.37759 107.389888 112.10499 120.13749 125.08659 129.43 134.1361 137.1601 140.1328 145.2151 150.1975 154.7974 159.0652 163.7713 166.7953 169.7707 174.2347 176.2507 179.2063 184.0303 186.9724 189.0532 193.77011 198.8191 203.8942 208.5472 211.4542 219.4885 224.1946 227.2069 231.8599 234.76599 237.77829 242.43129 247.04199 251.6077 256.64683 259.7536 264.35978 269.06498 272.08897 275.06437 280.11695 284.94096 287.88218 292.70619 295.6483 300.74317 305.44837 308.46067 313.17759 318.22029 323.28279 327.9358 330.8455 335.44718 340.16319 345.24369 350.33769 354.9907 357.8977 363.0052 364.72419 367.6555 372.22029 374.22999 376.24598 380.65599 383.6215 388.4167 391.3057 394.2406 397.1872 402.0112 404.02 406.10169 410.8069 415.8694 420.5224 423.4285 426.223 431.3035 434.32749 437.3029 441.6553 446.51353 449.5375 452.5129 457.5664 460.5904 465.6754 470.7091 475.7473 480.14744 484.70143 486.84434 491.92396 496.86497 499.86198 504.89207 506.90177 508.91777 511.94175 514.94418 519.5801 524.40408">I &#x00e5;rene fremover &#x00f8;nsker vi &#x00e5; legge mere ressurser p&#x00e5; &#x00e5; beregne scope 3, slik at tallene for v&#x00e5;r produksjon blir s&#x00e5; </tspan><tspan y="-256.56953" x="70.8661 73.8271 78.8356 80.8453 82.854999 87.4702 90.219699 94.9249 99.9712 104.9752 107.02989 112.104999 116.757999 119.65599 124.26579 129.35529 137.32929 140.24529 148.22649 153.23499 155.24469 157.2985 162.39339 164.54439 167.46039 172.72989 177.4549 182.4589 185.3839 193.4182 198.1243 201.1483 204.1093 209.18439 214.14429 218.51468 223.37288 228.09879 231.0022 233.056 238.051 240.98499 244.00899 248.91219 253.9648 259.0552 264.13484 267.562 270.31153 275.01673 278.16133 280.1773 285.2416 290.3797 292.0987 295.021 299.48503 301.49473 303.5107 306.45375 311.36955 314.57356 317.32307 321.97608 324.8732 329.9753 332.86433 337.43 339.43879 341.45478 346.53437 351.62837 356.33448 361.3961 366.0491 368.9471 373.21943 378.30805 386.32167 394.35685 399.00987 401.90788 404.85987 407.87217 412.58729 420.56129 423.4773 428.08708 433.1757 441.1497 444.0657 448.68089 451.43489 456.51719 459.69148 462.70378 467.36668 469.08567 472.00798 480.04228 484.74748 489.68849 492.67649 497.74348 502.4217 505.5807 508.3302 512.9832 515.8812 520.3461 522.3549 524.3709">fullstendige som mulig. Ved mer n&#x00f8;yaktig rapportering, vil ofte utslippene komme frem som st&#x00f8;rre, men dette vil </tspan><tspan y="-245.76952" x="70.8661 75.185199 83.10249 86.11479 90.76779 92.95479 97.61589 100.50489 102.69189 105.71589 110.36889 114.93549 119.94399 122.049098 124.9957 129.79091 132.67992 134.86692 139.61981 143.9488 146.1358 151.0066 153.89562 156.08261 159.03733 163.86133 165.87014 167.95185 172.65705 177.71955 182.37255 184.55954 189.24494 192.26894 194.45594 202.53974 207.24584 210.26984 212.45684 217.59493 225.46543 228.31124 233.10645 236.26636 239.01587 243.72107 248.76737 253.83437 258.48738 260.67439 262.69038 264.87739 269.7977 274.15013 278.97413 281.16114 286.24433 290.89735 293.08436 295.10035 300.14576 304.66645 306.68244 311.76206 316.82997 321.53517 324.54747 329.25358 331.87886">v&#x00e6;re et resultat av at tallene er mer omfattende i hva de inkluderer.</tspan></text>
<text fill="#404041" xml:space="preserve" transform="matrix(1 0 -0 1 0 841.89)" font-size="7" font-family="Roboto"><tspan y="-29.016" x="425.599 431.8101 433.9521 438.0933 442.1204 447.08549 453.3295 457.3678 461.8555 466.2865 468.4453 473.2816 477.15748 478.90046 481.04246 486.13078 490.93278 493.07478 497.96708 502.1454 506.37059 511.32447 515.9291 519.9576">MILJ&#x00d8;MESSIGE INDIKATORER</tspan></text>
<text fill="#404041" xml:space="preserve" transform="matrix(1 0 -0 1 0 841.89)" font-size="8" font-family="Roboto" font-weight="bold"><tspan y="-44.7402" x="515.2297 519.82168">77</tspan></text>
<g id="Layer-1" data-name="Artifact">
<clipPath id="cp712">
<path transform="matrix(1,0,0,-1,0,841.89)" d="M 0 0 L 595.276 0 L 595.276 841.89 L 0 841.89 Z "/>
</clipPath>
<g clip-path="url(#cp712)">
<path transform="matrix(1,0,0,-1,524.4094,802.3869)" stroke-width=".5" stroke-linecap="butt" stroke-miterlimit="4" stroke-linejoin="miter" fill="none" stroke="#404041" d="M 0 0 L -1048.819 0 "/>
</g>
<g id="Layer-1" data-name="Artifact">
<path transform="matrix(1,0,0,-1,-524.4094,39.3869)" stroke-width=".5" stroke-linecap="butt" stroke-miterlimit="4" stroke-linejoin="miter" fill="none" stroke="#404041" d="M 0 0 L 1048.819 0 "/>
</g>
</g>
</g>
</g>
</svg>
