<?xml version="1.0" encoding="UTF-8" standalone="no"?>
<!DOCTYPE svg PUBLIC "-//W3C//DTD SVG 1.1//EN" "http://www.w3.org/Graphics/SVG/1.1/DTD/svg11.dtd">
<svg xmlns="http://www.w3.org/2000/svg" xmlns:xlink="http://www.w3.org/1999/xlink" version="1.1" width="595.276pt" height="841.89pt" viewBox="0 0 595.276 841.89">
<g enable-background="new">
<path transform="matrix(1,0,0,-1,0,841.89)" d="M 70.866 771.024 L 222.047 771.024 L 222.047 735.928 L 70.866 735.928 Z M 373.228 771.024 L 524.409 771.024 L 524.409 735.928 L 373.228 735.928 Z M 70.866 735.927 L 222.047 735.927 L 222.047 700.831 L 70.866 700.831 Z M 373.228 735.927 L 524.409 735.927 L 524.409 700.831 L 373.228 700.831 Z M 70.866 700.831 L 222.047 700.831 L 222.047 665.735 L 70.866 665.735 Z M 373.228 700.831 L 524.409 700.831 L 524.409 665.735 L 373.228 665.735 Z M 70.866 665.734 L 222.047 665.734 L 222.047 630.638 L 70.866 630.638 Z M 373.228 665.734 L 524.409 665.734 L 524.409 630.638 L 373.228 630.638 Z M 70.866 630.638 L 222.047 630.638 L 222.047 595.542 L 70.866 595.542 Z M 373.228 630.638 L 524.409 630.638 L 524.409 595.542 L 373.228 595.542 Z " fill="#e8f3f1"/>
<g id="Layer-1" data-name="Span">
</g>
<g id="Layer-1" data-name="Span">
</g>
<g id="Layer-1" data-name="Span">
</g>
<g id="Layer-1" data-name="Span">
</g>
<g id="Layer-1" data-name="Span">
</g>
<g id="Layer-1" data-name="Span">
</g>
<g id="Layer-1" data-name="Span">
</g>
<g id="Layer-1" data-name="Span">
</g>
<g id="Layer-1" data-name="Span">
</g>
<g id="Layer-1" data-name="Span">
</g>
<g id="Layer-1" data-name="Span">
</g>
<g id="Layer-1" data-name="Span">
</g>
<g id="Layer-1" data-name="Span">
</g>
<g id="Layer-1" data-name="Span">
</g>
<g id="Layer-1" data-name="Span">
</g>
<text fill="#231f20" xml:space="preserve" transform="matrix(1 0 -0 1 0 841.89)" font-size="9" font-family="Roboto"><tspan y="-750.1005" x="85.0393 91.1953 96.00849 100.337497 102.35349 107.17749 109.36449 114.188488 119.19248 124.01648 131.99048 136.54448 138.56049 273.6703 279.8263 284.7673 286.7833 291.7243 296.37733 301.3633 306.3493 308.3653 313.4053 387.4033 393.19929">Gavia adamsiiGulnebblomVU</tspan><tspan y="-715.00057" x="85.039279 89.88218 92.90618 97.73018 100.61918 105.27218 108.307888 112.94289 117.88389 119.89989 124.723888 126.91088 131.73488 134.84708 139.48207 142.37108 144.38709 149.02208 285.42427 290.18797 295.12898 300.06999 305.07398 387.40327 392.65028">Fratercula arcticaLundeEN</tspan><tspan y="-679.9006" x="85.039249 89.78224 91.79824 99.77224 104.81224 109.36624 114.19024 116.377239 118.393238 120.40923 128.38324 133.42324 137.97724 267.28926 272.61726 277.05876 281.88276 285.04356 287.93257 292.87358 297.69758 299.71357 304.36659 308.92057 313.90657 318.99967 323.34577 387.39427 393.28025">Limosa limosaSvarthalespoveCR</tspan><tspan y="-644.8006" x="85.03024 92.81525 97.46825 99.484249 104.30824 109.249248 111.26524 114.15424 117.04324 121.86724 124.05424 127.03324 131.97425 136.52825 141.16324 283.48927 288.81727 290.86927 295.88227 300.92228 303.94627 307.13136 387.39427 393.19026">Melanitta fuscaSj&#x00f8;orreVU</tspan><tspan y="-609.7006" x="85.03024 90.52294 95.56294 100.56694 102.58294 107.21794 111.87094 116.85694 121.41094 123.59794 128.42194 133.36293 136.38694 138.40294 141.29195 143.30796 148.24895 274.98426 281.35627 286.39628 289.42027 294.36128 299.36528 303.64027 308.05027 312.56648 317.21949 387.39427 393.19026">Podiceps auritiusHorndykkerVU</tspan></text>
<path transform="matrix(1,0,0,-1,0,841.89)" d="M 70.866 464.074 L 222.047 464.074 L 222.047 428.978 L 70.866 428.978 Z M 373.228 464.074 L 524.409 464.074 L 524.409 428.978 L 373.228 428.978 Z M 70.866 428.978 L 222.047 428.978 L 222.047 393.882 L 70.866 393.882 Z M 373.228 428.978 L 524.409 428.978 L 524.409 393.882 L 373.228 393.882 Z M 70.866 393.881 L 222.047 393.881 L 222.047 358.785 L 70.866 358.785 Z M 373.228 393.881 L 524.409 393.881 L 524.409 358.785 L 373.228 358.785 Z M 70.866 358.785 L 222.047 358.785 L 222.047 323.689 L 70.866 323.689 Z M 373.228 358.785 L 524.409 358.785 L 524.409 323.689 L 373.228 323.689 Z M 70.866 323.688 L 222.047 323.688 L 222.047 288.59199 L 70.866 288.59199 Z M 373.228 323.688 L 524.409 323.688 L 524.409 288.59199 L 373.228 288.59199 Z M 70.866 288.592 L 222.047 288.592 L 222.047 253.496 L 70.866 253.496 Z M 373.228 288.592 L 524.409 288.592 L 524.409 253.496 L 373.228 253.496 Z M 70.866 253.495 L 222.047 253.495 L 222.047 218.39899 L 70.866 218.39899 Z M 373.228 253.495 L 524.409 253.495 L 524.409 218.39899 L 373.228 218.39899 Z " fill="#e8f3f1"/>
<path transform="matrix(1,0,0,-1,70.8661,351.94053)" stroke-width="1" stroke-linecap="butt" stroke-miterlimit="10" stroke-linejoin="miter" fill="none" stroke="#231f20" d="M 0 0 L 151.181 0 "/>
<path transform="matrix(1,0,0,-1,222.0472,351.94053)" stroke-width="1" stroke-linecap="butt" stroke-miterlimit="10" stroke-linejoin="miter" fill="none" stroke="#231f20" d="M 0 0 L 151.181 0 "/>
<path transform="matrix(1,0,0,-1,373.2283,351.94053)" stroke-width="1" stroke-linecap="butt" stroke-miterlimit="10" stroke-linejoin="miter" fill="none" stroke="#231f20" d="M 0 0 L 151.181 0 "/>
<g id="Layer-1" data-name="Span">
</g>
<g id="Layer-1" data-name="Span">
</g>
<g id="Layer-1" data-name="Span">
</g>
<g id="Layer-1" data-name="Span">
<text fill="#10a79d" xml:space="preserve" transform="matrix(1 0 -0 1 0 841.89)" font-size="12" font-family="Roboto" font-weight="bold"><tspan y="-495.2235" x="74.8661 82.5833 85.7633 89.7569 96.12769 102.8789 109.0637 115.46449 121.93969 128.73889 135.05809 138.1925 141.3965 148.1705 151.15851 157.94211 164.1797 170.3417 269.0381 276.7793 279.97129 286.3433 293.1089 297.28727 300.27528 307.05528 313.29167 319.45487">Vitenskapelig navnKjent navn</tspan></text>
<text fill="#10a79d" xml:space="preserve" transform="matrix(1 0 -0 1 0 841.89)" font-size="12" font-family="Roboto" font-weight="bold"><tspan y="-495.2235" x="410.81809 418.5773 421.7645 428.1725 434.34049 440.4881 443.7857 447.4449 451.1729 457.5689 463.9769 470.0873 473.2625 480.0509">Klassifikasjon</tspan></text>
</g>
<g id="Layer-1" data-name="Span">
</g>
<g id="Layer-1" data-name="Span">
</g>
<g id="Layer-1" data-name="Span">
</g>
<g id="Layer-1" data-name="Span">
</g>
<g id="Layer-1" data-name="Span">
</g>
<g id="Layer-1" data-name="Span">
</g>
<g id="Layer-1" data-name="Span">
</g>
<g id="Layer-1" data-name="Span">
</g>
<g id="Layer-1" data-name="Span">
</g>
<g id="Layer-1" data-name="Span">
</g>
<g id="Layer-1" data-name="Span">
</g>
<g id="Layer-1" data-name="Span">
</g>
<g id="Layer-1" data-name="Span">
</g>
<g id="Layer-1" data-name="Span">
</g>
<g id="Layer-1" data-name="Span">
</g>
<g id="Layer-1" data-name="Span">
</g>
<g id="Layer-1" data-name="Span">
</g>
<g id="Layer-1" data-name="Span">
</g>
<g id="Layer-1" data-name="Span">
</g>
<g id="Layer-1" data-name="Span">
</g>
<g id="Layer-1" data-name="Span">
<text fill="#231f20" xml:space="preserve" transform="matrix(1 0 -0 1 0 841.89)" font-size="9" font-family="Roboto"><tspan y="-443.1508" x="85.0393 90.6166 95.4226 97.4908 105.5233 110.5327 112.719699 117.3556 122.1616 124.2208 129.07901 283.86729 289.4203 291.43629 293.45228 295.46827 297.48426 302.30827 306.71827 387.40327 393.91297">Salmo salarVilllaksNT</tspan><tspan y="-408.05079" x="85.039249 90.72365 95.76095 100.80275 105.81125 107.820049 109.82974 111.84574 116.66974 118.856739 123.75723 128.79543 133.83632 138.84482 140.85453 142.86333 144.87934 293.85725 299.48225 387.40324 392.65025">Anguilla anguilla&#x00c5;lEN</tspan><tspan y="-372.95079" x="85.039218 90.791118 95.87071 98.88301 103.65121 108.74521 113.79331 118.61731 123.668109 128.6091 133.1631 135.3501 140.0886 144.9126 146.9754 152.0154 277.37825 282.87095 287.91096 289.92695 294.75096 297.90995 300.79896 305.83897 308.86296 313.41694 387.39424 392.64125">Boreogadus saidaPolartorskEN</tspan><tspan y="-337.85078" x="85.03021 90.918018 95.596218 98.34931 103.42981 106.60411 111.54511 113.56111 118.50211 123.443119 127.997119 130.18412 138.447 143.4042 147.8349 149.8842 157.8663 162.8073 283.4892 289.0062 292.03019 296.9712 301.9662 306.97019 387.3942 392.6412">Cetorhinus maximusBrugdeEN</tspan><tspan y="-302.75077" x="85.03018 90.59939 95.30549 100.357189 105.161388 109.77659 112.526088 117.179088 121.733089 123.92008 129.02669 134.10628 137.51998 141.86428 146.58028 151.57527 153.68578 158.34598 163.28697 278.0442 283.3614 288.1854 293.1264 295.1424 297.1584 302.15339 304.3404 309.2814 313.93443 387.3942 392.6412">Sebastes norvegicusVanlig uerEN</tspan><tspan y="-267.65077" x="85.03018 90.60748 95.69698 103.702487 108.71008 110.80438 115.84438 120.41099 125.35199 129.90599 132.09299 140.17679 142.27019 146.95018 149.97418 155.09069 159.79409 164.50019 169.55278 174.57387 179.39788 181.41388 186.35488 277.3512 283.7232 288.5472 292.9572 295.00923 299.66224 302.68623 305.7102 307.7262 312.6672 387.3852 393.8949">Somniosus microcephalusH&#x00e5;kjerringNT</tspan><tspan y="-232.55075" x="85.02118 90.564289 95.58629 100.62989 105.45389 107.46989 112.41089 116.96489 119.151889 124.14059 128.86559 133.72379 138.68909 141.6222 146.56319 148.5792 153.48239 283.8852 289.4292 291.4452 296.4402 301.43519 306.3762 387.3762 393.17219">Squalus acanthiasPiggh&#x00e5;VU</tspan></text>
</g>
<g id="Layer-1" data-name="Span">
<text fill="#404041" xml:space="preserve" transform="matrix(1 0 -0 1 0 841.89)" font-size="12" font-family="Roboto"><tspan y="-552.1183" x="70.8661 76.9009 83.45411 90.282108 96.6073 99.6469 102.75849 105.74649 112.70649 119.64849 126.45129 131.70128 138.66129">Tabell 404-4d</tspan></text>
</g>
<g id="Layer-1" data-name="Span">
<text fill="#2b3b52" xml:space="preserve" transform="matrix(1 0 -0 1 0 841.89)" font-size="9" font-family="Roboto"><tspan y="-527.2697" x="70.8661 75.9583 78.352298 83.1538">Fisk</tspan></text>
</g>
<g id="Layer-1" data-name="Span">
</g>
<g id="Layer-1" data-name="Span">
</g>
<g id="Layer-1" data-name="Span">
</g>
<g id="Layer-1" data-name="Span">
</g>
<g id="Layer-1" data-name="Span">
</g>
<g id="Layer-1" data-name="Span">
</g>
<text fill="#404041" xml:space="preserve" transform="matrix(1 0 -0 1 0 841.89)" font-size="9" font-family="Roboto"><tspan y="-177.2237" x="70.8661 76.42989 81.25389 83.19069 88.01469 90.02348 92.10518 96.75818 98.659877 103.012279 107.870479 110.882778 115.535778 117.43747 119.53087 124.61137 129.07627 133.90027 135.90908 138.01508 140.76369 145.4419 148.1914 152.8966 155.92061 157.8907 162.9577 167.6629 172.7011 177.77619 182.48139 185.50539 187.47638 192.54338 197.22069 200.1097 202.04109 206.7472 211.68819 213.67899 215.68869 217.6984 222.3136 225.06311 229.71611 231.61692 236.56601 240.90941 245.61551 248.63951 250.6096 255.4678 260.1937 263.1106 268.1821 272.85313 274.86283 276.9436 281.59663 283.49833 288.60044 291.48945 296.12535 300.92054 304.08045 306.82905 311.48207 313.38377 318.24198 321.66917 324.41868 329.12388 332.14787 334.11799 336.13398 338.0843 342.4376 347.2958 350.723 353.612 355.5407 360.63023 368.6357 371.6597 376.4837 381.6146 386.2343 388.3853 390.30595 396.4583 401.13655 404.02555 405.95518 407.97117 413.03459 418.09709 422.80229 427.83689 435.7542 438.7665 443.47264 446.4966 448.46675 453.56074 458.55574 463.2087 468.0327 469.97044 472.76405 477.84455 480.85685 485.56205 490.49855 494.83384 499.88374 504.95884 509.66496 514.7103 519.77828 524.4313">P&#x00e5; alle v&#x00e5;re lokaliteter henger det en liste over aktuelle utsatte arter i v&#x00e5;rt omr&#x00e5;de. Det inneb&#x00e6;rer ogs&#x00e5; forebyggende </tspan><tspan y="-166.42369" x="70.8661 72.882099 77.8285 80.623 85.7026 88.8859 96.8761 101.6803 106.2298 108.3736 113.45319 118.394199 121.61709 124.41159 129.49118 132.51519 135.71738 140.54138 143.70938 146.65599 151.48 154.6489 159.0013 163.8595 166.8718 171.5248 174.6577 179.71031 184.53432 187.70232 192.56052 195.98772 198.73723 203.44333 208.50493 213.12554 215.27654 218.42833 224.58074 229.25894 232.14795 235.30875 238.28775 240.21736 245.25466 250.31626 254.96926 259.52326 262.70747 267.80146 272.79646 277.44944 282.27345 285.44236 290.49494 293.51893 298.55894 303.1651 307.88923 312.99134 317.49855 320.51084 325.21696 328.24095 331.43955 334.23405 339.31455 342.33854 345.53987 350.45027 354.79457 359.50068 362.52467 365.72599 370.46989 374.7989 378.0272 382.8854 386.3126 389.0621 393.76823 398.82984 403.48286 406.61576 409.41026 414.48988 417.51387 420.71607 425.62648 429.98338 435.063 438.08699 443.12608 447.98429 452.9253 456.1482 461.21519 465.8682 469.0011 473.6451 477.98854 482.69465 487.65995 490.57685 495.64836 500.32026 502.42536 505.31437 508.47608 513.0751 517.54086 522.3648 524.3808">informasjon for &#x00e5; ta vare p&#x00e5; artene. Det finnes ogs&#x00e5; prosedyrer for hver av artene for hvordan de eventuelt skal </tspan><tspan y="-155.62369" x="70.8661 75.60999 80.0749 82.083698 84.17619 88.51959 93.17259 97.85259 99.571598 102.409297 107.504199 112.4992 115.347698 120.436298 128.4103 131.24619 135.71108 137.72708 140.58818 145.05309 149.91129 154.85228 157.75478 162.49869 166.96358 168.97238 171.0649 175.4083 180.0613 182.8738 187.87779 189.8875 194.4982 199.1044 203.7664 205.4854 208.32309 213.39099 218.09619 221.20299 225.81279 230.90139 238.87538 241.71128 246.31118 251.40608 256.05909 260.62477 262.70555 267.37745 269.38624 271.46794 276.12095 278.93345 283.4991 285.60423 288.52113 293.56474 298.36894 302.9229 305.06584 310.14634 315.20796 319.91407 322.93806 325.81986 330.89949 335.95207 340.93806 345.58024 348.52595 353.38417 356.00944 358.16044 360.99275 366.58985 369.61384 374.65385 379.26 383.98414 389.08714 393.5934 396.6057 401.31184 406.37345 411.02647 413.83988 418.58378 423.32948 426.27607 431.10008 433.18086 437.83387 442.38786 445.25077 453.28596 458.01008 463.01408 465.85359 470.31849 472.32728 474.43327 477.36637 482.42799 487.1431 495.1612 500.2003 505.0243 507.8728 512.5438 514.5535 516.63436 521.34048 524.36447">avlives, og om vi kan avlive disse, dersom spesielle situasjoner oppst&#x00e5;r. Prosedyrene avtales med viltnemda eller </tspan><tspan y="-144.82369" x="70.8661 73.8451 75.7486 80.348499 84.6163 89.3215 92.4661 94.5298 99.5338 101.5498 104.589099 109.2952 114.0211 116.7742 121.8547 124.8787 129.7189 132.46842 137.14572 140.18683 141.90583 144.39882 149.14273 153.63733 158.70343 163.40953 168.44683 173.44182 175.51453 180.50952 183.01422 187.75814 192.08713 194.65033 199.56163 204.02562 206.03533 208.05133 212.34613 217.05223 221.99323 224.55103 229.41013 232.83733 235.72634 238.22293 243.28993 247.96724 250.85625 253.35285 258.37486 263.23307 268.27848 273.28248 275.36326 280.06938 283.09336 285.63047 290.7191 298.78669 300.93769 303.4244 309.81443 314.67265 317.69664 320.23374 325.30165 329.97895 332.86796 335.36457 340.59986 342.73017 347.40119 349.46488 354.53187 359.23799 362.26197 364.79908 369.83009 371.84608 376.67729 381.28797 385.89326 390.59938 393.74397 395.75996 400.82426 405.81925 408.32395 413.06785 417.39686 419.96006 427.99525 432.70045 435.72444 440.79234 445.49754 448.148 449.867 452.3609 456.9662 461.6444 464.8034 467.55293 472.20594 476.75993 479.27903 484.346 489.02424 491.91325 494.40986 499.02415 501.95726 504.96955 509.67567 514.71298 519.788 524.44107">fiskeridirektoratet, avhengig av hvilken art det handler om. N&#x00e5;r det gjelder plassering av merder, settes det strenge </tspan><tspan y="-134.02368" x="70.8661 75.415599 78.4396 83.22849 87.557498 89.74449 92.72349 94.733188 96.74918 98.93618 103.87718 108.234088 113.31368 116.337688 118.52468 123.57818 125.588779 130.19948 134.80478 139.45778 141.64478 146.09348 150.95168 155.89267 158.07967 163.17998 165.19599 170.02719 174.637 179.2432 183.9493 186.9616 191.6146 196.1686 198.35559 203.48918 206.37819 208.56519 210.63159 213.5836 216.6076 221.43161 223.6186 228.79091 233.55011 236.29872 241.06693 246.15552 254.16101 257.185 262.009 267.139 271.8442 274.8682 277.0552 279.8992 284.97883 288.0028 290.18983 295.09754 300.14384 305.17753 308.18983 312.84284 315.02986 319.86827 323.29545 326.04496 330.75108 333.37547">krav til hvor disse kan plasseres ut ifra gyteomr&#x00e5;der for andre arter.</tspan></text>
<text fill="#404041" xml:space="preserve" transform="matrix(1 0 -0 1 0 841.89)" font-size="8" font-family="Roboto" font-weight="bold"><tspan y="-44.7402" x="70.8661 75.5013">76</tspan></text>
<text fill="#404041" xml:space="preserve" transform="matrix(1 0 -0 1 0 841.89)" font-size="7" font-family="Roboto"><tspan y="-29.016" x="70.8661 77.0772 79.2192 83.3604 87.3875 92.35259 98.596599 102.634899 107.1226 111.5536 113.712398 118.5487 122.4246 124.1676 126.3096 131.3979 136.19989 138.34189 143.23419 147.41249 151.6377 156.5916 161.1962 165.2247">MILJ&#x00d8;MESSIGE INDIKATORER</tspan></text>
<g id="Layer-1" data-name="Artifact">
<clipPath id="cp706">
<path transform="matrix(1,0,0,-1,0,841.89)" d="M 0 0 L 595.276 0 L 595.276 841.89 L 0 841.89 Z "/>
</clipPath>
<g clip-path="url(#cp706)">
<path transform="matrix(1,0,0,-1,1119.685,802.3869)" stroke-width=".5" stroke-linecap="butt" stroke-miterlimit="4" stroke-linejoin="miter" fill="none" stroke="#404041" d="M 0 0 L -1048.819 0 "/>
</g>
<g id="Layer-1" data-name="Span">
</g>
<text fill="#404041" xml:space="preserve" transform="matrix(1 0 -0 1 0 841.89)" font-size="5" font-family="Roboto" font-weight="bold"><tspan y="-805.9686" x="70.8661 74.1961 77.381099 80.3461 82.9486 86.1286 89.6586 92.9886 95.8126 98.9926 102.1776 105.26759 106.512599 109.6926">GRATANGLAKS AS</tspan></text>
</g>
<g id="Layer-1" data-name="Span">
</g>
<g id="Layer-1" data-name="Span">
<text fill="#595959" xml:space="preserve" transform="matrix(1 0 -0 1 0 841.89)" font-size="5" font-family="Roboto"><tspan y="-805.9686" x="119.143 122.428 127.273 130.52301 133.533 136.838 140.088 143.51799 146.50099 149.616 152.75099 156.00099 159.43099 162.75598 166.08098 169.69098 172.74448">B&#x00c6;REKRAFTSRAPPORT</tspan></text>
</g>
<text fill="#404041" xml:space="preserve" transform="matrix(1 0 -0 1 0 841.89)" font-size="5" font-family="Roboto" font-weight="bold"><tspan y="-805.9686" x="179.688 182.558 185.428 188.29799">2020</tspan></text>
<g id="Layer-1" data-name="Artifact">
<clipPath id="cp707">
<path transform="matrix(1,0,0,-1,0,841.89)" d="M 0 0 L 595.276 0 L 595.276 841.89 L 0 841.89 Z "/>
</clipPath>
<g clip-path="url(#cp707)">
<path transform="matrix(1,0,0,-1,70.8661,39.3869)" stroke-width=".5" stroke-linecap="butt" stroke-miterlimit="4" stroke-linejoin="miter" fill="none" stroke="#404041" d="M 0 0 L 1048.819 0 "/>
</g>
</g>
</g>
</svg>
