<?xml version="1.0" encoding="UTF-8" standalone="no"?>
<!DOCTYPE svg PUBLIC "-//W3C//DTD SVG 1.1//EN" "http://www.w3.org/Graphics/SVG/1.1/DTD/svg11.dtd">
<svg xmlns="http://www.w3.org/2000/svg" xmlns:xlink="http://www.w3.org/1999/xlink" version="1.1" width="595.276pt" height="841.89pt" viewBox="0 0 595.276 841.89">
<g enable-background="new">
<g>
<clipPath id="cp177">
<path transform="matrix(1,0,0,-1,0,841.89)" d="M 0 0 L 595.276 0 L 595.276 841.89 L 0 841.89 Z "/>
</clipPath>
<g clip-path="url(#cp177)">
<g opacity=".0500031">
<clipPath id="cp178">
<path transform="matrix(1,0,0,-1,0,841.89)" d="M -603.276 -9.50391 L 604.78 -9.50391 L 604.78 852.718 L -603.276 852.718 Z "/>
</clipPath>
<g clip-path="url(#cp178)">
<path transform="matrix(1,0,0,-1,0,841.89)" d="M -595.276 -8.504 L 603.77908 -8.504 L 603.77908 850.39297 L -595.276 850.39297 Z " fill="#dda63a"/>
</g>
</g>
</g>
<path transform="matrix(1,0,0,-1,257.8094,685.1525)" stroke-width=".439" stroke-linecap="butt" stroke-miterlimit="10" stroke-linejoin="miter" fill="none" stroke="#1e5e9e" d="M 0 0 L 10.405 0 "/>
<g id="Layer-1" data-name="Span">
</g>
<g id="Layer-1" data-name="Span">
</g>
<g id="Layer-1" data-name="Span">
</g>
<g id="Layer-1" data-name="Span">
</g>
<g id="Layer-1" data-name="Span">
</g>
<g id="Layer-1" data-name="Span">
<text fill="#231f20" xml:space="preserve" transform="matrix(1 0 -0 1 0 841.89)" font-size="9" font-family="Roboto"><tspan y="-227.3967" x="70.8661 73.26009 75.52359 80.599597 85.5478 89.8921 94.6063 102.6127 107.7067 112.4128 115.436809 117.7048 122.769107 127.576908 132.0256 137.0116 139.23459 144.25568 149.07968 154.14669 159.21459 163.86759 166.07259 170.53658 172.55258 174.80258 179.15589 184.01409 187.03809 189.30608 192.10059 197.18379 200.29059 204.90489 207.6544 212.3074 214.5124 216.59412 221.23722 225.58152 230.28672 233.31072 238.21392 243.1972 247.8034 252.4564 254.6614 257.56483 259.57453 261.5905 263.8405 271.94593 277.02555 282.08265 284.16435 288.81736 291.02238 296.03446 301.16358 306.2486 311.2526 313.48463 321.28584 326.14405 329.31834 333.58613 338.26435 341.15336 345.81715 347.96815 350.19117 355.20326 360.28376 363.30775 365.57575 370.39976 372.64076 375.48655 380.31056 382.55155 385.45497 387.46376 389.51844 394.5656 399.42384 404.46116 409.45616 411.69715 414.60057 416.61027 418.62626 420.87626 425.94325 430.62147 433.78047 436.52998 441.18299 443.388 451.3773 456.2355 459.4098 463.6785 468.40263 473.4696 478.14784 481.18894 482.90794 485.13096 489.48426 494.34248 497.36647 499.63447 504.70237 509.37968 512.2687 514.5007 519.4318 524.41787">I november 2019 hadde vi v&#x00e5;r f&#x00f8;rste leveranse til Whole Food Markets. For &#x00e5; f&#x00e5; tilgang til dette markedet, var det 25 </tspan><tspan y="-213.3927" x="70.8661 75.465999 80.56 85.213 89.7778 91.936 94.915 96.8446 101.3941 105.661899 110.314899 113.00499 118.04139 123.08049 128.11688 132.84279 135.5923 140.2984 143.3224 146.0809 150.6907 155.7793 163.7533 166.4668 170.93079 172.9468 175.68549 183.67479 188.47 191.62992 194.37943 199.03243 201.72252 206.80211 211.85472 216.75974 219.96825 224.44484 226.45455 228.53536 233.15596 235.30696 238.01596 244.16837 248.84658 251.73558 254.45359 259.50077 264.35899 267.38298 270.14149 275.19407 280.01808 282.7433 287.5673 289.67329 292.5623 295.2803 298.2323 301.2563 306.0803 308.8505 316.83979 321.63499 324.3845 329.0897 332.23429 334.25028 339.1013 341.11729 346.19779 349.38108 354.41929 358.82929 361.5518 363.56779 366.3065 374.3408 379.046 382.06999 387.13789 391.84309 394.49357 396.21257 398.92787 401.81687 403.83287 405.84886 408.58757 413.64015 416.82344 421.86256 426.27256 428.99418 433.73808 438.06709 440.8526 445.6766 447.7304 452.8064 457.5116 460.53559 463.29499 465.31098 468.0488 470.8433 475.9238 478.9361 483.6134 486.5024 489.22044 492.01493 497.09455 500.11854 502.87794 507.70195 510.42716 515.50949 519.7772 524.43026">spesifikke punkter som vi m&#x00e5;tte oppfylle. Det g&#x00e5;r p&#x00e5; alt fra materialbruk i merder, til bruk av alger i f&#x00f4;ret for &#x00e5; &#x00f8;ke </tspan><tspan y="-199.3887" x="70.8661 77.0437 85.0789 89.79491 94.84301 99.66701 104.79071 108.62921 110.64521 115.70951 120.74591 125.825519 130.88262 132.94632 138.01332 142.69063 145.68044 147.83144 150.20473 152.59873 155.01433 157.10773 162.19004 167.28493 171.96224 174.85124 177.23354 181.97745 186.30644 188.75534 193.81963 198.92624 203.99053 208.97653 211.35343 216.38442 218.46523 223.11823 225.47263 230.49372 235.31772 237.40933 241.90393 246.95563 251.81383 255.24193 257.9905 262.69664 267.63764 270.08116 274.82505 279.15406 281.60298 285.95628 290.81449 293.83848 296.2613 301.31388 304.33787 309.42378 314.45658 319.4957 323.8958 328.4453 330.5891 335.66874 340.60975 343.05415 345.07014 349.93464 355.04124 357.93025 360.31257 365.40119 373.37519 375.753 378.5466 383.6271 386.6511 389.0739 393.89793 396.28746 399.17646 401.19245 403.24986 406.20185 409.21415 413.93916 418.94316 423.55384 428.169 431.07243 433.0812 435.0909 437.1717 441.8247 444.1791 449.1831 451.1928 455.8035 460.40968 465.06269 467.4162 471.9657 474.9897 479.77769 484.12199 488.8281 493.8897 498.50944 500.66044 503.03376 509.18614 513.8643 517.0242 519.77279 524.4258">Omega3-innholdet. I l&#x00f8;pet av 2020 ble halvparten av v&#x00e5;r produksjon lagt om for &#x00e5; tilfredsstille disse kravene. Dette </tspan><tspan y="-185.3847" x="70.8661 75.8872 80.7454 83.7694 85.9564 90.325 98.242298 101.669498 104.558498 106.74549 111.461498 116.4025 118.58949 123.2092 126.2215 130.8655 135.2089 139.915 144.96039 150.02829 154.68129 156.86829 161.93708 169.89307 174.50737 177.41078 179.42049 181.42929 183.439 185.455 190.5202 195.6574 197.37639 199.56879 207.60309 212.30919 217.25019 219.43718 224.57437 229.28047 234.22147 236.40847 241.40346 243.41947 246.44347 248.63047 253.83696 258.44676 263.00074 265.18775 270.23585 275.05986 277.24687 282.18788 286.54927 291.20228 293.38929 301.3588 306.217 309.3913 313.6591 318.3841 323.3881 327.99699 335.97819 340.9192 342.99998 345.05467 350.09736 355.16438 359.84169 362.5912 367.2964 370.32038 372.5074 375.35139 380.431 383.455 385.642 390.3976 395.33863 397.52565 405.63014 410.33534 413.3593 415.54634 420.62953 428.54774 431.56004 436.26615 440.81565 443.83964 448.63304 451.83793 454.72694 456.79063 461.7856 463.97264 465.98863 470.8918 475.29194 479.95573">har v&#x00e6;rt en krevende omstilling, men den gir oss n&#x00e5; nye markedsmuligheter for en mer b&#x00e6;rekraftig laks.</tspan><tspan y="-157.38571" x="70.8661 78.6952 83.4004 86.4244 88.6114 93.7504 101.724399 103.91139 112.01679 117.0964 122.153499 124.23429 128.8873 131.0743 136.06659 141.19568 146.28067 151.28467 155.83867 158.02567 165.85747 170.71567 173.88997 178.15778 182.83599 185.72499 187.91199 192.385 197.2432 202.18419 204.37119 206.52309 211.17609 215.78229 220.43529 224.98929 227.17629 232.25859 237.0826 239.26959 243.85149 245.91429 250.9822 255.6352">Mer om Whole Foods Market kan leses p&#x00e5; side </tspan></text>
</g>
<g id="Layer-1" data-name="Span">
<text fill="#1e5e9e" xml:space="preserve" transform="matrix(1 0 -0 1 0 841.89)" font-size="9" font-family="Roboto"><tspan y="-157.38571" x="257.80509 263.2303">44</tspan></text>
</g>
<g id="Layer-1" data-name="Span">
</g>
<g id="Layer-1" data-name="Span">
</g>
<g id="Layer-1" data-name="Span">
</g>
<g id="Layer-1" data-name="Span">
</g>
<g id="Layer-1" data-name="Span">
</g>
<g id="Layer-1" data-name="Span">
</g>
<g id="Layer-1" data-name="Span">
</g>
<g id="Layer-1" data-name="Span">
</g>
<g id="Layer-1" data-name="Span">
</g>
<g id="Layer-1" data-name="Span">
</g>
<g id="Layer-1" data-name="Span">
</g>
<g id="Layer-1" data-name="Span">
</g>
<g id="Layer-1" data-name="Span">
</g>
<g id="Layer-1" data-name="Span">
</g>
<g id="Layer-1" data-name="Span">
</g>
<g id="Layer-1" data-name="Span">
</g>
<g id="Layer-1" data-name="Span">
</g>
<g id="Layer-1" data-name="Span">
</g>
<g id="Layer-1" data-name="Span">
</g>
<g id="Layer-1" data-name="Span">
</g>
<g id="Layer-1" data-name="Span">
</g>
<g id="Layer-1" data-name="Span">
</g>
<g id="Layer-1" data-name="Span">
</g>
<g id="Layer-1" data-name="Span">
</g>
<g id="Layer-1" data-name="Span">
</g>
<g id="Layer-1" data-name="Span">
</g>
<g id="Layer-1" data-name="Span">
</g>
<g id="Layer-1" data-name="Span">
</g>
<g id="Layer-1" data-name="Span">
</g>
<g id="Layer-1" data-name="Span">
</g>
<g id="Layer-1" data-name="Span">
</g>
<g id="Layer-1" data-name="Span">
</g>
<g id="Layer-1" data-name="Span">
</g>
<g id="Layer-1" data-name="Span">
</g>
<g id="Layer-1" data-name="Span">
</g>
<g id="Layer-1" data-name="Span">
</g>
<g id="Layer-1" data-name="Span">
</g>
<g id="Layer-1" data-name="Span">
</g>
<g id="Layer-1" data-name="Span">
</g>
<g id="Layer-1" data-name="Span">
</g>
<g id="Layer-1" data-name="Span">
</g>
<g id="Layer-1" data-name="Span">
</g>
<text fill="#231f20" xml:space="preserve" transform="matrix(1 0 -0 1 0 841.89)" font-size="9" font-family="Roboto"><tspan y="-157.38571" x="268.20909">.</tspan></text>
<text fill="#231f20" xml:space="preserve" transform="matrix(1 0 -0 1 0 841.89)" font-size="14" font-family="Roboto"><tspan y="-251.9189" x="70.8661 83.362499 91.04289 98.96549 102.32549 109.74269 113.21469 120.79149 128.7645 136.7235 144.5201 151.73851 155.21051 167.3905 174.96451 179.73291 186.44731 193.94152 198.5153">Whole Foods Market </tspan></text>
<text fill="#231f20" xml:space="preserve" transform="matrix(1 0 -0 1 0 841.89)" font-size="9" font-family="Roboto"><tspan y="-415.2685" x="70.8661 76.5028 81.118007 84.063709 88.8121 91.90541 94.04831 99.12881 102.15281 107.15681 109.2349 115.41341 120.116809 124.7572 129.6154 134.5564 136.6975 142.2748 147.0988 149.149 157.1815 162.2611 167.20209 169.34409 172.17549 177.80049 183.8935 189.1594 192.0349 193.75389 195.83019 200.50119 202.5649 207.5689 209.64699 214.3909 218.7199 220.8673 225.2197 230.0779 233.1019 235.22229 240.31629 245.04129 250.07498 253.21959 255.2779 258.4828 261.3718 263.4508 268.54573 273.5407 275.6278 281.323 283.4047 288.0766 290.16819 294.52149 299.3455 301.4326 306.49958 308.51017 313.11006 317.37785 322.00837 324.85417 329.71238 332.89567 340.98847 342.70747 344.78379 349.8058 354.664 357.688 359.8084 364.91053 368.05784 372.52186 374.53785 379.08467 381.16636 385.84367 388.73268 390.8126 395.86518 398.88917 403.92918 408.47868 410.60987 415.31507 420.04096 422.79048 427.4687 430.3577">Astafjord Ocean Salmon (AOS), eid av v&#x00e5;r bedrift og Kleiva Fiskefarm, har utviklet prosjektet </tspan></text>
<text fill="#231f20" xml:space="preserve" transform="matrix(1 0 -0 1 0 841.89)" font-size="9" font-family="Roboto"><tspan y="-415.2685" x="432.4321">&#x00ab;</tspan></text>
<text fill="#231f20" xml:space="preserve" transform="matrix(1 0 -0 1 0 841.89)" font-size="9" font-family="Roboto"><tspan y="-415.2685" x="436.6171 442.8667 447.39189 455.24888 459.97389 462.9502">&#x00d8;yMerd</tspan></text>
<text fill="#231f20" xml:space="preserve" transform="matrix(1 0 -0 1 0 841.89)" font-size="9" font-family="Roboto"><tspan y="-415.2685" x="467.9281">&#x00bb;</tspan></text>
<text fill="#231f20" xml:space="preserve" transform="matrix(1 0 -0 1 0 841.89)" font-size="9" font-family="Roboto"><tspan y="-415.2685" x="471.4111 473.5621 475.63304 480.54884 483.43785 485.51777 487.53376 492.59806 497.67317 502.62226 506.97468 511.76988 514.6733 516.7649 521.5115 524.40048">. Et innovativt </tspan><tspan y="-401.2645" x="70.857089 75.77199 78.92919 81.8137 86.4136 91.4923 96.5728 99.5851 104.4199 108.2593 110.2753 115.2847 119.8846 124.915599 126.931598 129.9709 134.677 138.1042 140.99321 143.4718 148.5253 151.5493 156.5893 161.1433 163.27359 167.97969 172.7056 175.5946 178.0732 180.8677 185.9482 188.9722 191.49219 196.52588 204.44408 207.45638 212.16158 216.71108 219.73508 224.52849 227.7334 230.63681 232.69152 237.68651 240.1732 245.2672 250.26219 252.74889 255.7009 258.7132 263.4283 271.3456 274.24903 276.31184 281.31584 285.91484 288.928 293.60533 296.76524 299.51475 304.19206 307.08106 309.56059 314.5817 319.3256 323.8202 328.87278 332.05607 337.09519 341.7023 343.8533 346.3229 352.4762 357.1535 360.0425 362.52204 367.22724 370.25123 372.77125 377.82383 382.62803 387.2333 391.93943 395.3666 398.2556 400.73423 405.7868 410.6108 413.09754 417.80274 422.74375 425.28446 430.37934 435.05665 437.81065 442.89027 447.92848 452.97117 457.24348 462.32398 467.3064 471.92158 474.85469 478.03797 483.07618 487.4763 492.03028 494.1732 499.2537 504.1947 506.7354 511.34519 516.4338 524.4078">offshore-inspirert prosjekt for b&#x00e6;rekraftig og fremtidsrettet havbruk. Det er basert p&#x00e5; en betongkonstruksjon som </tspan><tspan y="-387.2605" x="70.857089 72.86588 74.92058 79.96958 85.045589 89.750789 92.77479 95.78889 100.89098 105.398189 110.34279 113.23179 116.20178 118.21778 121.211177 125.563579 130.42177 135.45906 140.52066 145.19887 148.18868 150.33968 153.30068 161.10279 165.92679 168.0085 172.6858 175.57482 178.54482 183.25002 186.27402 189.28722 194.3092 199.05312 203.54682 208.60031 211.78362 216.82181 221.23181 224.20902 229.26071 234.08472 237.06372 245.09893 249.80413 252.82813 255.84133 260.54743 264.94755 269.54743 274.6369 279.7174 284.77903 289.48423 292.91233 295.66093 300.31394 303.25697 305.35127 310.43089 314.89579 319.7198 321.7295 323.8346 326.5841 331.2614 334.01094 338.71705 341.34233 343.49333 346.4543 352.6067 357.2849 360.17393 363.14393 367.60884 372.46705 377.40806 380.44108 384.7602 392.6784 395.6907 400.34373 403.28675 411.32194 416.04606 421.05006 424.02006 428.84407 431.82307 433.91737 438.95826 443.56443 448.21745 451.16047 456.01869 459.03187 463.68489 468.49089 470.50688 475.636 478.74909 481.54359 486.6232 489.6472 494.68089 497.82637 499.84236 504.90666 509.98265 514.6878 519.7503 524.4033">ligger dypt i vannet. M&#x00e5;let er havbruk p&#x00e5; mer eksponerte lokaliteter. Det kan v&#x00e6;re med &#x00e5; l&#x00f8;se arealutfordringene </tspan><tspan y="-373.2565" x="70.857089 75.46689 80.55549 88.52949 91.06748 97.49798 102.577579 105.589878 110.66588 115.31888 117.838878 122.45318 125.39978 130.25798 133.28199 135.87308 140.82128 145.16558 149.87078 153.25028 156.04479 161.12528 163.75058 165.90158 168.43958 170.83358 173.41657 176.31998 178.32968 180.33849 182.4202 187.1362 192.1861 197.18109 199.73709 204.8041 209.5093 214.4755 217.225 221.878 226.432 229.0042 233.3575 238.2157 243.25209 248.31459 252.9919 255.8809 258.4279 261.3169 263.3329 265.34889 267.91929 269.93528 274.82048 279.22148 283.82676 288.53288 293.47389 296.0839 301.1221 306.1675 311.2354 315.9406 318.9646">som Norge st&#x00e5;r overfor. I tillegg hentes vannet til laksen under </tspan></text>
<text fill="#231f20" xml:space="preserve" transform="matrix(1 0 -0 1 0 841.89)" font-size="9" font-family="Roboto"><tspan y="-373.2565" x="321.5791">&#x00ab;</tspan></text>
<text fill="#231f20" xml:space="preserve" transform="matrix(1 0 -0 1 0 841.89)" font-size="9" font-family="Roboto"><tspan y="-373.2565" x="325.5571 327.5731 332.5141 337.2193 341.9245 347.01939 351.6904 353.7964 356.54499 361.2232">lusebeltet</tspan></text>
<text fill="#231f20" xml:space="preserve" transform="matrix(1 0 -0 1 0 841.89)" font-size="9" font-family="Roboto"><tspan y="-373.2565" x="363.8341">&#x00bb;</tspan></text>
<text fill="#231f20" xml:space="preserve" transform="matrix(1 0 -0 1 0 841.89)" font-size="9" font-family="Roboto"><tspan y="-373.2565" x="367.3801 369.0991 371.6461 376.25498 381.34449 389.31849 391.86369 397.09809 399.241 404.3242 407.34819 409.9384 414.73359 417.6226 420.1696 425.27259 428.38569 431.1793 436.2598 439.28379 444.31748 447.46208 449.47807 454.54237 459.61836 464.32356 469.26457 471.87458 479.90888 484.63389 489.63789 492.18489 494.20088 499.08607 503.48707 508.09236 512.7643 514.7803 519.72128 524.27529">, som gj&#x00f8;r at utfordringen med lakselus </tspan><tspan y="-359.2525" x="70.85712 75.95112 80.66802 85.710727 88.72302 93.42912 98.41152 103.01772 107.67072 112.33543 114.48643 117.69042 123.36582 125.38182 128.61283 133.63481 138.49301 141.51702 144.77141 149.38121 154.46352 159.18943 162.07843 165.29143 170.35843 172.36814 176.96804 181.23584 185.94194 189.08655 191.15026 196.15425 198.17026 201.21047 205.91567 210.64157 213.39559 218.47518 221.49918 226.33939 229.0889 233.7671 236.65612 239.86911 244.9577 252.9317 256.1411 261.24324 264.39054 268.85456 270.87055 275.41737 277.42707 279.44306 284.50828 289.50328 294.13645 297.03987 299.04866 301.05836 303.07435 307.89836 310.64787 315.31889 317.32948 321.93565 326.64085 329.29133 331.0103 334.2224 338.8313 343.9208 351.8948 355.10423 359.80943 362.8334 366.08784 370.79396 375.73497 379.01097 386.99125 389.05406 394.05805 396.13883 400.84495 404.27214 407.17555 409.23835 414.24235 416.29615 421.29115 424.51316 429.59278 432.61677 437.65138 442.65898 444.67497 449.73927 454.73426 457.95628 462.56605 467.65467 475.62867 478.83808 483.30299 488.1612 493.1022 496.3782 499.2672 501.2832 503.346 508.4139 513.0849 515.16659 519.8196 524.3736">begrenses. Vi har s&#x00f8;kt Fiskeridirektoratet om utviklingstillatelser, som er en midlertidig ordning som kan tildeles </tspan><tspan y="-345.2485" x="70.85712 75.90971 78.933719 83.97372 88.52772 90.65802 95.36322 100.08913 102.83862 107.54472 110.568729 113.89602 121.93032 126.65532 131.65932 134.94522 140.03922 144.71743 147.88094 152.22524 157.29224 161.96414 163.97295 166.02765 171.02265 174.31664 176.33264 181.39604 186.47203 191.42023 195.77353 200.57773 205.12723 207.27103 212.35062 217.29161 220.6405 225.7345 230.72949 234.02439 239.11838 243.79659 246.961 251.3044 256.3714 261.0433 263.0521 265.10679 270.1819 274.8349 278.0938 280.1098 285.04273 289.38703 294.04005 298.6552 301.40473 306.10993 309.25453 311.2705 316.3348 321.4099 326.11604 328.7413 330.8923 334.1701 339.60429 344.68479 349.6672 354.27339 358.97859 363.92408 366.67268 371.3509 374.2399 377.5267 381.88 386.73823 390.1654 393.0544 396.34123 399.32023 401.24983 405.79933 410.20933 413.49974 415.51573 418.82325 423.89836 428.84745 433.19087 437.90599 445.91148 451.00636 455.71156 458.73554 462.06285 467.12715 471.93495 476.41783 481.4038 484.68614 489.43003 493.81663 498.3823 500.3983 505.2628 510.25779 513.5527 516.5047 519.5287 524.35269">prosjekter med betydelig innovasjon og betydelige investeringer. Konseptet v&#x00e5;rt fikk i november 2018 avslag fra </tspan><tspan y="-331.2445" x="70.85712 75.92412 77.933818 82.533718 86.80151 91.507617 94.652217 96.71501 101.71901 103.73501 106.77431 111.48041 116.206317 118.96031 124.03991 127.06391 131.90412 134.65363 139.33094 142.32074 144.47174 146.47785 148.48575 153.40245 156.56147 159.31098 164.01708 167.04108 169.09668 171.11269 176.17699 181.15938 185.76558 190.47078 195.51708 200.61557 203.50458 205.51967 210.03948 212.05548 216.91999 221.99507 226.64807 228.63527 231.52428 233.54029 235.55629 237.59119 243.95958 251.87778 255.02239 257.0384 262.1036 267.0986 271.7345 274.3085 277.5215 282.6155 287.6105 289.63374 292.61274 294.51625 299.11613 303.3839 308.09004 311.23463 313.29743 318.3644 323.07054 328.12223 332.98045 336.40763 339.15715 343.87226 351.90657 356.61268 361.57798 364.32749 369.0048 372.0459 373.7649 375.7764 378.7554 380.685 385.2345 389.6445 391.6632 396.1281 398.1441 400.1799 402.1959 404.2308 409.2951 414.4017 419.466 424.452 426.4617 434.496 439.221 444.2547 449.33433 454.39143 456.4551 461.5833 463.3023 465.3138 470.40873 475.40373 477.42604 482.16993 486.55744 491.12223 493.1382 498.00273 503.07783 507.75605 510.64506 512.66018 517.6903 519.7711 524.42416">Fiskeridirektoratet.  Etter innsendt klage til N&#x00e6;rings- og fiskeridepartementet, fikk vi i 2020 medhold, og avslaget ble </tspan><tspan y="-317.2405" x="70.85712 75.936717 80.99021 86.04281 91.10981 95.75291 100.097209 104.774509 107.764308 109.915309 112.3615 117.9586 120.982608 126.022609 130.5721 132.7033 137.4085 142.1344 144.88391 149.56122 152.45023 154.90633 159.90132 161.91733 166.51183 170.92183 173.38063 178.44853 183.15373 186.53324 189.32775 194.40734 197.43134 199.92794 202.83135 204.84015 206.85616 209.33205 214.09125 217.25116 219.99977 224.70587 227.85048 229.85929 231.91399 236.98908 241.69518 244.70748 249.36048 251.78777 256.88179 261.5879 266.609 271.46723 276.51264 281.51664 283.52543 285.5414 290.6057 295.6007 298.06404 303.14274 308.18275 312.73674 315.21446 320.21846 322.23445 325.2737 329.9789 334.70573 337.45884 342.53935 345.56333 350.40354 353.15306 357.83036 360.87147 362.59046 365.04206 369.65184 374.74134 382.71534 385.16514 388.06855 390.07826 392.14106 397.20896 401.87998 403.98597 406.73457 411.38758 413.81489 416.79389 418.72349 421.73579 426.3888 428.8161 433.9191 437.0655 441.5304 443.5464 448.0941 450.10289 452.11888 457.18318 462.17817 466.79606 471.06837 476.14888 481.1313 485.73747 490.39048 494.94447 497.08738 502.16789 507.2295 511.9356 514.9596 517.4553 520.3587 522.3675 524.3835">opphevet. Prosjektet gikk derfor til ytterligere behandling hos direktoratet, som tildelte fire utviklingskonsesjoner til </tspan><tspan y="-303.2365" x="70.85712 76.49382 81.109027 84.054729 88.80312 91.89643 94.03933 99.11983 102.14383 107.14783 109.38342 115.56103 120.26533 124.91833 129.75853 134.69953 136.99813 142.57633 147.40033 149.45053 157.48303 162.56352 167.65752 169.80852 172.03601 177.63312 180.65712 185.69712 190.25112 192.38141 197.08661 201.81342 204.56203 209.24024 212.12924 214.36574 219.07184 222.09584 224.37284 229.44074 234.14594 237.52544 240.31995 245.40044 248.42444 250.70143 255.74053 260.78593 265.8529 270.55903 273.583 275.86094 278.65544 283.73506 287.16224 290.05125 294.68714 299.48146 302.64137 305.53038 307.7678 312.79789 314.81388 319.69908 324.70668 326.78746 331.50437 336.55335 341.54835 343.56434 348.64756 353.78477 355.50376 357.73759 362.83158 367.82658 370.07118 374.41548 379.1396 384.1436 386.3792 391.0844 396.02543 398.32405 401.33723 405.99024 410.79624 412.80595 414.81565 419.4218 424.127 427.2716 429.2876 434.3519 439.3469 441.5915 446.0564 448.0652 450.08119 452.33839 457.40629 462.0836 464.9726 467.21003 469.226 474.2903 479.35194 484.05714 489.09175 497.00907 500.02226 504.67527 506.88389 509.9763 512.058 516.7641 519.77639 524.4294">Astafjord Ocean Salmon. Prosjektet er derfor under fortsatt planlegging, og ved en realisering vil det inneb&#x00e6;re flere </tspan><tspan y="-289.2325" x="70.85712 75.79812 80.90922 85.95462 90.98922 94.00152 98.65452 100.841518 108.81551 110.80721 112.81601 114.82571 116.919109 121.9996 127.0612 131.7673 134.7913 136.9783 141.5764 144.6004 149.6809 154.7425 159.4486 162.4726 164.65959 166.6756 168.8626 170.8786 175.8844 180.2278 184.8808 189.496 192.24552 196.95162 200.09622 202.11223 207.17743 212.25252 216.95862 219.58393">hundre millioner kroner i investeringer.</tspan></text>
<text fill="#231f20" xml:space="preserve" transform="matrix(1 0 -0 1 0 841.89)" font-size="14" font-family="Roboto"><tspan y="-440.1205" x="70.8661 80.164897 84.978099 91.7065 95.0525 102.2191 105.5063 108.8523 116.5481 124.3293 131.4427 139.0125 143.7795 151.6433 159.0535 162.37989">Utviklingsarbeid</tspan></text>
<text fill="#231f20" xml:space="preserve" transform="matrix(1 0 -0 1 0 841.89)" font-size="9" font-family="Roboto"><tspan y="-519.4701" x="70.8664 73.2604 76.81989 82.97589 85.99989 90.87609 93.82269 98.68089 103.71819 108.713199 110.729198 115.63239 120.032489 124.58649 128.13248 133.15447 138.01267 141.03667 144.60066 149.06465 151.08066 154.62665 159.26255 164.05776 167.21767 170.10668 173.63468 178.24358 183.32678 187.59459 192.2656 194.3752 198.65019 203.2042 206.87619 211.92879 216.75279 220.2898 225.1138 228.6508 233.7529 236.686 241.6099 246.3682 249.5281 252.27762 256.93064 260.43165 268.46684 273.17204 276.196 279.76005 284.50215 288.83116 292.42216 294.43815 299.32334 303.72346 308.32963 313.03483 318.12974 320.28074 323.79975 326.19377 329.75779 334.39369 339.2591 347.2493 352.1075 355.2818 360.3758 365.0477 367.1105 372.1145 375.64253 383.67683 388.40184 393.40583 396.93385 402.57054 407.1857 410.1323 414.8807 417.974 420.1169 425.19654 428.22053 433.22453 436.75254 441.3182 443.3342 448.2194 452.94529 455.6948 460.4 463.54548 465.67576 467.39476 470.91377 475.52354 480.61216 488.58616 492.10517 495.05177 499.90998 502.93397 506.498 508.5482 516.5807 521.52078 524.4097">I Gratanglaks har vi satt s&#x00f8;kelys p&#x00e5; &#x00e5; utnytte mer av laksen. I samarbeid med Astafjord slakteri, som tar imot </tspan><tspan y="-505.4661" x="70.8664 73.845409 75.7489 80.3488 84.61661 89.32181 94.26281 97.0528 101.406108 106.263408 108.91391 110.63291 113.35811 118.37921 123.23741 126.26141 129.02982 133.4947 135.51071 138.2584 141.20502 146.00023 149.16014 152.04915 154.77614 156.79215 159.54074 164.59334 167.77664 172.81574 177.22574 179.95723 185.02423 189.70244 192.59145 195.31934 200.24233 204.60372 209.25672 211.95581 217.0363 220.0603 225.1273 229.80461 232.69362">fisken v&#x00e5;r, har vi tatt i bruk det nye ordet </tspan></text>
<text fill="#231f20" xml:space="preserve" transform="matrix(1 0 -0 1 0 841.89)" font-size="9" font-family="Roboto"><tspan y="-505.4661" x="235.4224">&#x00ab;</tspan></text>
<text fill="#231f20" xml:space="preserve" transform="matrix(1 0 -0 1 0 841.89)" font-size="9" font-family="Roboto"><tspan y="-505.4661" x="239.4274 244.45749 246.4735 251.41449 256.12419 260.72407 263.74806 268.59727 273.21244 275.96644 280.88136 284.03855">plussr&#x00e5;stoff</tspan></text>
<text fill="#231f20" xml:space="preserve" transform="matrix(1 0 -0 1 0 841.89)" font-size="9" font-family="Roboto"><tspan y="-505.4661" x="286.6144">&#x00bb;</tspan></text>
<text fill="#231f20" xml:space="preserve" transform="matrix(1 0 -0 1 0 841.89)" font-size="9" font-family="Roboto"><tspan y="-505.4661" x="290.0974 292.2484 294.96644 301.1188 305.79704 308.68605 311.41307 316.11918 319.14317 321.91157 326.61677 331.55778 334.34779 339.44178 344.12 346.8686 351.5855 356.6282 361.6907 366.36174 368.3723 372.9785 377.6315 380.3315 383.126 388.20564 391.2296 393.99803 399.06593 403.73695 405.81864 410.52384 415.58634 420.23936 422.93937 427.68327 432.01228 434.8086 436.8246 441.70979 446.1099 450.71607 455.42127 460.36228 463.15229 467.76206 472.85069 480.82469 483.5427 485.5587 490.1352 494.40299 499.056 501.756 506.8041 511.66233 514.68637 517.4548 520.35818 522.36697 524.38296">. Det er en betegnelse for delene av laksen som ikke g&#x00e5;r til </tspan><tspan y="-491.4621" x="70.866428 78.85572 83.65092 86.59302 94.58231 99.44051 102.614818 106.882617 111.60761 116.674617 121.380718 124.00602 126.15702 128.23603 133.89072 135.99672 138.88573 140.97373 145.71764 150.04663 152.20394 154.21994 159.10515 163.50525 168.11145 172.81755 177.75855 179.90955 184.93064 189.78884 192.81284 194.94313 199.64833 204.58933 206.74033 211.08463 215.79073 218.81473 223.81873 225.94994 227.66893 229.75513 234.85002 239.84502 241.94202 246.406 248.42201 250.52802 255.13332 259.83943 262.8634 264.9937 269.6296 274.4959 282.50953 290.54383 295.24995 300.19096 302.34196 307.39366 312.21766 314.31468 319.23768 323.59907 328.25209 330.31309 335.408 340.40299 342.5 347.594 352.319 357.3527 360.365 365.018 367.079 375.0683 379.8635 382.613 387.3182 390.3422 392.4725 397.2965 399.39353 404.49565 407.42875 412.35176 417.11094 420.27085 423.01945 427.67247 429.73347 434.76356 436.77955 441.72056 446.43025 451.02925 454.05323 458.90153 463.5167 466.2707 471.1856 474.3428 477.1247 481.80293 484.79185 486.94285 489.02186 495.17424 499.85246 502.74147 504.82948 509.53559 512.5596 514.6899 519.3951 524.33609">matmarkeder. Alt av laksen har en verdi, og vi ser sammen p&#x00e5; nye og bedre m&#x00e5;ter &#x00e5; utnytte plussr&#x00e5;stoffet. Det er en </tspan><tspan y="-477.4581" x="70.866428 75.955028 81.040927 86.04492 88.23192 96.22842 101.02361 103.77311 108.42611 110.613109 115.4371 117.6241 122.3257 127.3711 132.4057 135.418 140.071 142.258 146.9164 149.8054 151.9924 157.054 160.078 165.163 170.19579 175.23488 179.63498 184.18898 186.33188 191.41147 196.39476 201.00276 209.03617 214.11847 219.10086 223.71607 226.46558 231.17168 233.82218 235.54117 237.72817 242.80057 247.47788 250.36688 252.55388 257.1277 259.14369 263.72019 266.73249 271.4386 274.4626 276.6496 281.7814 286.5073 289.2559 293.9089 296.09593 300.42045 305.12657 308.15055 313.15455 315.23625 319.94145 322.96543 325.15245 330.29594 335.29093 337.47795 345.47535 347.49134 352.56465 357.59834 360.61064 365.26365 367.45066 371.99836 376.46238 378.47837 383.54179 388.6367">god m&#x00e5;te &#x00e5; endre et produksjonsm&#x00f8;nster, det sikrer &#x00f8;kte verdier og mindre svinn.</tspan></text>
<text fill="#231f20" xml:space="preserve" transform="matrix(1 0 -0 1 0 841.89)" font-size="14" font-family="Roboto"><tspan y="-544.3221" x="70.8664 79.608 82.94981 90.5798 97.7422 104.9326 109.659008 117.1168 124.4346 128.73401 136.47461 141.5216">Plussr&#x00e5;stoff</tspan></text>
<text fill="#231f20" xml:space="preserve" transform="matrix(1 0 -0 1 0 841.89)" font-size="9" font-family="Roboto"><tspan y="-735.6716" x="70.8664 76.3375 78.3535 81.5548 86.0368 91.045299 93.08019 100.99749 104.02149 109.10469 113.37699 118.45659 123.53259 128.62119 136.60149 138.6175 141.92589 146.94698 151.80518 156.85057 161.85457 163.93538 168.64148 171.66548 174.99369 180.08228 188.05628 191.33858 196.16259 199.45658 202.30239 207.12639 210.42038 215.45677 220.49497 225.22177 228.11078 231.39579 239.43099 244.15509 249.15909 252.44409 257.3932 261.7366 266.44273 269.617 274.6696 277.69358 282.77949 287.8123 292.8505 297.2506 301.8046 303.9484 309.028 313.96903 317.31706 322.41197 327.40696 330.70097 335.64918 339.99348 344.69868 348.07817 350.87266 355.95317 359.12745 364.18003 367.3633 372.40245 377.00956 379.16056 382.43656 387.74928 392.44908 395.29487 400.11888 402.12767 404.14366 407.44667 412.52629 417.56629 422.12028">Sirkul&#x00e6;r&#x00f8;konomi handler om &#x00e5; f&#x00e5; bukt med overproduksjon og overforbruk. Avfall hos </tspan><tspan y="-721.66757" x="70.8664 75.5725 80.513507 83.3701 88.4227 91.4467 96.5317 101.5654 106.5064 111.1846 115.8907 120.856 123.745 126.5395 131.5705 133.5793 135.5953 138.61931 141.48131 143.49732 148.56072 153.544 158.1799 162.97422 165.86322 170.43073 173.27654 178.13474 182.86064 185.61466 190.69425 193.71825 196.55324 201.64723 206.64223 209.44483 212.45713 217.11013 221.72083 226.28653 231.32563 234.43242 238.98642 241.80342 246.88301 251.923 256.477 259.294 264.00013 268.94114 271.79774 276.65596 281.69236 286.75486 291.46006 296.40107 299.25767 304.11589 308.84178 311.59577 316.67808 319.30427 321.45527 324.24079 329.9162 331.9322 334.7492 339.77033 344.62855 347.65254 350.48756 355.16487 358.05387 360.85289 365.93519 370.20298 374.9091 379.9545 385.02149 389.6745 392.44203 397.0509 402.1341 406.4019 411.0729 413.1825 417.4575 422.01148">&#x00e9;n produsent blir innsatsfaktor og ressurs hos en annen akt&#x00f8;r. Vi har et &#x00f8;kende s&#x00f8;kelys </tspan><tspan y="-707.6635" x="70.8664 75.9181 80.742099 84.17109 89.405498 91.5358 96.2419 101.2783 106.331798 109.5151 114.5533 119.1604 121.3114 124.7224 129.7345 134.81499 137.92179 142.48659 144.5026 149.3878 154.4251 159.50109 164.20629 167.23029 170.69258 175.7452 178.9285 183.96759 188.2354 192.8884 197.4424 200.88579 205.97528 213.94928 217.36028 219.41498 224.64937 226.77967 231.48577 236.42676 239.90976 247.94406 252.64926 257.63258 262.18656 265.62998 270.7321 273.6211 278.18678 280.19557 282.30155 285.46147 288.21006 292.86308 296.25608 300.82176 302.83775 307.72294 312.76026 317.83537 322.54148 325.56547 329.0269 333.63307 338.33827 343.38456 348.45155 353.10456 357.65855 361.10197 364.00538 366.01417 368.03016 371.46818 377.12828 380.15226 385.23188 390.1981 392.9476 397.60063 402.1546 405.59803 411.26625 416.59425 420.11326 422.12925">p&#x00e5; gjenbruk. F&#x00f4;rslanger brukes om igjen mens utslitte slanger sendes til Brontes AS i </tspan><tspan y="-693.6595" x="70.8664 76.5211 78.626209 81.57281 86.51021 88.66121 90.88421 97.27421 101.98031 105.00431 107.27231 110.28461 114.99071 120.02801 125.26241 127.40621 132.48853 135.50083 140.15383 144.70783 146.95783 152.02483 156.67783 158.87833 163.97232 168.96732 171.20381 175.66872 180.52692 185.57952 190.67443 195.32743 199.88143 202.13143 207.21102 212.26453 217.22263 218.94162 221.16461 226.2595 231.2545 233.4901 238.72539 240.85569 245.56179 250.46768 254.93257 256.94859 262.01289 267.0745 271.7275 276.2815 278.5315 281.4349 283.4446 285.4606 287.7106 292.7416 294.7576 299.5888 304.20399 307.1371 312.23109 316.90299 318.91178 320.99348 325.67079 328.55979 333.22447 335.37547 337.59397 343.74726 348.42549 351.58448 354.33399 358.987 361.1875 366.2176 368.2273 370.2433 373.26728 375.5623 378.58628 383.4355 388.05067 390.80467 395.71958 398.87678 401.85578 403.9888 406.0048 408.2548 413.1787 417.5392 422.19224">Alta. Her rengj&#x00f8;res de og kappes opp, og gjenvinnes til plastpellets. Dette blir r&#x00e5;stoff i nye </tspan><tspan y="-679.65548" x="70.8664 75.919 78.943 84.0289 89.0617 94.1008 98.826709 101.5762 106.2814 108.90671 111.05771 113.5165 118.433208 121.5922 124.4812 126.949 131.6929 136.0219 138.55719 143.56119 145.5718 150.1816 154.7878 159.4408 161.88069 166.58589 169.6099 172.1182 175.0972 177.02681 182.12172 186.82692 190.00122 193.02523 198.10843 200.75893 202.47792 204.94213 209.55103 214.64052 222.61452 225.07692 230.12052 233.14452 237.93343 242.27683 246.92983 251.48383 253.97412 259.03575 263.75987 268.76387 271.23078 273.24678 275.73439 280.78697 285.64518 290.19468 294.46247 299.16767 304.10868 306.63859 309.43309 314.5127 317.53669 320.04499 324.869 327.344 330.1898 335.0138 337.4888 342.5423 345.55369 350.2787 355.31239 360.36497 365.22319 370.2686 375.27259 379.87159 384.93409 389.6114 392.7713 395.6603 398.1281 401.03153 403.0403 405.0563 407.54484 412.48585 417.42686 421.98085">produkter. Ett av disse er fiberr&#x00f8;r, som graves ned i bakken for &#x00e5; f&#x00e5; bredb&#x00e5;ndsnett til hus </tspan><tspan y="-665.6514" x="70.8664 75.9604 80.95541 83.6014 88.60361 90.73481 95.44901 103.51571 105.66671 108.29471 114.44801 119.12531 122.28521 125.034709 129.68772 132.29772 137.00382 140.02782 142.70801 147.27371 149.28972 152.49103 156.97304 161.98154 164.01645 171.93375 174.95775 180.04096 184.31327 189.39286 194.46884 199.55744 207.53774 209.55374 212.21414 214.23015 216.89055 221.94316 224.96717 229.87036 234.27046 238.83617 240.84587 245.39987 248.06208 250.96549 252.97519 254.9912 257.64619 262.74107 267.39408 272.00926 274.75877 279.41178 282.0218 284.8154 289.8959 292.9199 295.6001 303.58039 305.5901 307.61418 309.75798 314.87538 319.55268 322.54249 324.69349 327.3215 332.99693 335.0129 337.6733 339.7541 344.471 349.52 354.5951 359.3012 362.3252 365.0054 369.3497 374.0549 378.7808 381.6698 384.3059 389.3585 394.1825 396.82853 401.62373 404.51274 407.14976 410.05317 412.06916 417.13346 422.12846">og hjem. Dette er sirkul&#x00e6;r&#x00f8;konomi i praksis til beste for milj&#x00f8;et. Vi legger vekt p&#x00e5; at ting </tspan><tspan y="-651.6474" x="70.8664 75.4663 79.9312 84.755199 86.771198 88.868198 94.1026 96.2329 100.939 105.9754 111.0289 114.212207 119.250408 123.5182 128.1712 132.7252 134.8222 139.49321 141.50292 143.58373 148.28983 151.31383 153.42882 158.66411 160.7944 165.5005 170.4064 174.87039 176.8864 181.9498 187.0123 191.6653 196.3462 198.0652 200.1352 205.22919 210.22418 212.31218 217.10739 219.9964 222.0754 226.53939 228.55539 230.65239 235.25229 239.7172 244.5412 246.5572 248.6542 253.7482 258.46513 263.5078 266.5201 271.22624 276.20866 280.81483 285.46784 287.51985 292.58683 297.26506 300.15406 302.23307 306.84284 311.93147 319.90547 321.97547 327.00556 329.01527 331.03126 334.05525 336.19725 340.66215 345.46635 350.0815 352.8301 357.50834 360.39735 362.47636 367.08613 372.17475 380.14875 382.21876 386.96266 391.66157 394.50736 399.33137 401.34107 403.42997 405.58097 407.65098 412.32737 417.14598 422.08699">skal gjenbrukes eller gjenvinnes, og at vi skal begrense det som blir kastet som avfall. Tau </tspan><tspan y="-637.6434" x="70.8664 75.9604 80.95541 82.9624 85.908107 90.767208 95.3167 100.3783 105.0565 108.2155 111.1045 113.10249 118.15599 121.339298 126.377498 130.6453 135.2983 139.8523 141.86829 146.95778 154.93178 156.92078 158.97458 164.20987 166.34017 171.04627 176.16725 177.88625 179.87525 184.98094 190.04795 194.71895 196.73496 201.59946 206.70606 209.45557 214.10857 216.07506 221.16996 226.16495 228.16745 233.27045 236.03165 241.07975 245.87496 249.03487 251.78348 256.4365 258.4075 261.3541 266.1727 271.1137 273.17024 278.26423 283.25923 285.26625 288.21195 293.07106 297.62055 302.68217 307.35948 310.51939 313.4084 315.4064 320.01258 324.71778 329.76408 334.83106 339.48408 344.03807 346.05409 348.9575 350.9672 352.9832 354.9992 358.0115 362.66453 367.2293 369.2453 372.4466 376.9286 381.9371 384.0188 388.7249 391.8695 393.8855 398.9498 404.0447 406.1957 408.18473 413.83854 415.94453 418.83354 420.83155 425.57545 429.90446 431.96546 437.02348 439.04756 441.17787 446.01359 448.5876 451.7826 456.8775 461.8725 463.8741 468.38133 470.51164 475.22676 483.20704 485.22303 489.71495 494.53895 496.54774 498.62944 503.28245 508.00834 512.7081 515.55398 520.3779 522.3867 524.4027">og taknett brukes om igjen, &#x00f8;delagte og utg&#x00e5;tte tau og taknett sendes til resirkulering. Alt av olje- og kjemikalieavfall </tspan><tspan y="-623.63937" x="70.8664 75.8965 77.9125 82.7437 87.3544 91.9597 96.6658 99.6781 104.3311 108.8851 110.875 112.891 114.8782 119.5951 124.670207 129.37631 134.3173 136.3459 144.3262 146.3359 148.36002 150.50382 155.58612 159.85843 164.93802 169.90422 172.85083 177.67484 179.69084 184.78034 189.48554 192.50954 194.51744 199.56916 204.39316 206.36775 208.38376 213.26897 218.31436 223.34806 228.40065 233.20485 237.81105 242.51625 247.45725 249.48584 251.50185 253.48995 259.18244 267.16365 272.20185 277.24815 282.25215 286.8196 291.28364 293.29963 297.79154 302.75416 304.47315 306.43696 311.53096 316.52595 318.50148 323.52259 328.3808 333.4262 338.5256 341.27513 345.98033 348.9926 353.64564 358.19963 360.18864 364.82453 369.64854 371.62315 376.36705 380.69606 382.73005 388.28935 392.99546 396.16975 401.26374 405.94197 408.85887 413.89619 418.9434 426.9174 428.8794 433.6242 438.32313 441.1689 445.99293 448.00263 450.01234 454.6122 459.63334 464.49156 469.53697 474.63636 477.38587 482.09107 485.23567 487.25166 492.31596 497.41087 499.56187 501.51939 503.47959 509.71208 514.20669 517.35128 519.40597 524.40097">plasseres i egen milj&#x00f8;kontainer p&#x00e5; landbasen i &#x00c5;mundsvika, og h&#x00e5;ndteres s&#x00e5; av Perpetuum avfallsh&#x00e5;ndtering.  &#x00d8;vrig </tspan><tspan y="-609.6353" x="70.8664 75.476207 80.5585 85.612 90.706 95.377 97.393 100.05339 104.66319 109.74279 113.16999 115.91949 120.62469 123.636989 128.29 132.844 135.5062 140.60019 145.59519 148.24208 152.986 157.48059 162.54669 167.25279 172.29819 177.36609 182.01909 186.57309 189.23529 191.2513 193.9108 198.9769 203.683 208.71939 213.79898 218.85608 220.91979 225.92378 228.56168 231.46509 233.47389 235.4899 238.1503 242.7646 245.69771 248.71 253.4161 258.45344 263.52943 268.18244 270.79335 275.3995 280.1047 283.5319 286.4353 288.5935 291.5725 293.476 298.0813 302.7874 305.932 307.948 313.0132 318.0082 322.6261 327.1756 330.1996 334.9885 339.3175 342.02473 344.9767 348.0007 352.8247 355.51664 361.68794 363.78224 368.86186 373.91444 378.73844 380.75444 383.41395 389.60145 392.00535 397.81575 400.00636 404.64317 406.79417 409.42488 414.51887 419.51387 422.16078 427.82899 433.373 439.17079 441.32179 443.95249 449.61259 452.79588 457.835 462.56089 465.30949 469.9625 472.5743 477.6494 482.59223 485.34175 490.04786 493.07185 495.75205 500.35734 505.06346 510.10887 515.17678 519.8298 524.3838">s&#x00f8;ppel sorteres og avhendes i henhold til strenge sertifiseringskrav fra Global G.A.P. og ASC. Brukte n&#x00f8;ter sendes </tspan><tspan y="-595.6313" x="70.8664 73.7698 75.778598 77.79459 82.87329 87.73149 91.9993 96.6523 98.3083 101.21169 103.22139 105.23739 106.938388 111.99098 115.014987 120.09998 125.13368 130.07468 134.75289 139.45809 144.42429 147.1738 151.879 156.81999 158.566 161.3605 166.441 169.465 171.18399 175.73799 177.86829 182.57439 187.12389 191.53389 193.21689 198.31179 203.30678 204.99878 209.61399 212.54619 215.55849 220.26459 224.81409 229.54 232.2895 236.9425 241.55771 244.44672 246.12972 248.92423 254.00743 257.03144 258.75047 263.81837 268.47138 270.1265 275.17909 278.36238 283.40058 287.66929 292.3223 296.87629 298.5773 303.62989 308.4539 310.1459 315.06983 319.82814 322.98805 325.97785 328.12886 329.80287 335.99397 338.88298 343.44865 345.45744 347.56343 350.7224 353.47193 358.12495 359.78096 364.85697 369.79978 372.5493 377.2545 380.27848 381.9975 385.0098 389.6628 394.2285 396.24449 399.44578 403.92778 408.93629 411.01799 415.72319 418.73548 423.3885 427.94248 429.6435 434.3874 438.7164 440.4624 442.5441 447.18724 451.53153 456.23674 459.2607 464.1639 469.2102 474.2898 479.3721 482.3844 487.0905 492.18455 494.33555 496.00956 503.83866 508.54386 511.56785 516.63577 521.34097 524.3649">tilbake til produsenten for sjekk og strekktest f&#x00f8;r de brukes p&#x00e5; nytt. Utslitte n&#x00f8;ter resirkuleres av leverand&#x00f8;ren. Merder </tspan><tspan y="-581.62728" x="70.8664 75.887508 80.745708 83.76971 85.9567 87.9727 92.9029 97.9402 102.9352 105.1222 107.2201 111.8632 116.2075 120.884799 123.78819 125.85099 130.855 133.04199 138.14409 143.13909 145.32608 150.39487 153.57817 158.61727 162.88507 167.53807 172.09207 174.27907 176.29508 178.48207 186.53168 191.38988 196.42807 201.50316 206.15616 208.34316 213.18157 215.80687">har lang levetid og brukes i mange &#x00e5;r.</tspan></text>
<text fill="#231f20" xml:space="preserve" transform="matrix(1 0 -0 1 0 841.89)" font-size="14" font-family="Roboto"><tspan y="-760.5236" x="70.8664 79.23701 82.581607 87.34861 94.417209 102.071 105.473 117.3926 122.035 129.9716 136.686 144.65201 152.33802 160.30402 172.48822">Sirkul&#x00e6;r&#x00f8;konomi</tspan></text>
<g id="Layer-1" data-name="Artifact">
<path transform="matrix(1,0,0,-1,0,841.89)" d="M 436.333 654.507 L 524.41006 654.507 L 524.41006 742.422 L 436.333 742.422 Z " fill="#e6f3e3"/>
<clipPath id="cp179">
<path transform="matrix(1,0,0,-1,0,841.89)" d="M 0 0 L 595.276 0 L 595.276 841.89 L 0 841.89 Z "/>
</clipPath>
<g clip-path="url(#cp179)">
<path transform="matrix(1,0,0,-1,462.3065,124.057498)" stroke-width="1.905" stroke-linecap="round" stroke-miterlimit="10" stroke-linejoin="miter" fill="none" stroke="#5cbe7d" d="M 0 0 C 0 0 4.198 11.577 10.87 10.339 C 16.689 9.26 22.67 -2.969 24.114 -6.098 M 11.253 -6.922 C 11.253 -6.922 14.157 1.087 18.973 3.07 M 24.833 10.425 C 25.244 10.446 25.666 10.42 26.099 10.339 C 29.704 9.671 33.386 4.695 36.01 .261 M 9.555 10.424 L 25.58 10.424 M -.033 -.066 L 11.164 -6.952 "/>
<path transform="matrix(1,0,0,-1,498.4456,123.75372)" stroke-width="1.905" stroke-linecap="round" stroke-linejoin="round" fill="none" stroke="#5cbe7d" d="M 0 0 C 2.802 1.514 4.777 2.583 4.777 2.583 L -2.057 -12.499 L -18.612 -9.966 C -18.54 -9.966 -15.715 -8.456 -11.992 -6.457 "/>
<path transform="matrix(1,0,0,-1,506.263,137.19574)" stroke-width="1.905" stroke-linecap="round" stroke-miterlimit="10" stroke-linejoin="miter" fill="none" stroke="#5cbe7d" d="M 0 0 C 0 0 7.774 -9.55 3.284 -14.638 C -.632 -19.075 -14.197 -17.922 -17.623 -17.553 M -11.721 -6.096 C -11.721 -6.096 -6.343 -12.703 -7.117 -17.854 M -3.818 -26.66 C -4.011 -27.024 -4.251 -27.373 -4.542 -27.703 C -6.968 -30.452 -13.129 -31.053 -18.281 -31.025 M 4.032 -13.554 L -4.203 -27.301 M -.04 .062 L -11.701 -6.005 "/>
<path transform="matrix(1,0,0,-1,487.9525,168.35413)" stroke-width="1.905" stroke-linecap="round" stroke-linejoin="round" fill="none" stroke="#5cbe7d" d="M 0 0 C -.141 -3.182 -.239 -5.425 -.239 -5.425 L -9.665 8.188 L 1.015 21.088 C .978 21.026 .822 17.826 .623 13.605 "/>
<path transform="matrix(1,0,0,-1,471.9902,168.53565)" stroke-width="1.905" stroke-linecap="round" stroke-miterlimit="10" stroke-linejoin="miter" fill="none" stroke="#5cbe7d" d="M 0 0 C 0 0 -12.154 -1.977 -14.326 4.452 C -16.22 10.059 -8.456 21.242 -6.428 24.028 M .56 13.2 C .56 13.2 -7.848 11.832 -11.927 15.071 M -21.206 16.603 C -21.425 16.952 -21.607 17.333 -21.748 17.75 C -22.921 21.224 -20.371 26.864 -17.778 31.316 M -13.759 3.263 L -21.569 17.256 M .074 .003 L .629 13.137 "/>
<path transform="matrix(1,0,0,-1,454.1119,137.12732)" stroke-width="1.905" stroke-linecap="round" stroke-linejoin="round" fill="none" stroke="#5cbe7d" d="M 0 0 C -2.688 1.709 -4.584 2.912 -4.584 2.912 L 11.917 4.295 L 17.773 -11.395 C 17.738 -11.332 15.042 -9.601 11.482 -7.324 "/>
</g>
<g id="Layer-1" data-name="Span">
</g>
<text fill="#404041" xml:space="preserve" transform="matrix(1 0 -0 1 0 841.89)" font-size="7" font-family="Roboto"><tspan y="-29.016" x="447.1924 451.24684 456.29454 460.59745 462.34046 466.92756 473.82044 478.42643 482.45845 487.16105 491.95463 496.61174 500.85234 505.14195 509.60096 515.89328 520.5496">FNS B&#x00c6;REKRAFTSM&#x00c5;L</tspan></text>
</g>
<g id="Layer-1" data-name="Span">
</g>
<text fill="#404041" xml:space="preserve" transform="matrix(1 0 -0 1 0 841.89)" font-size="8" font-family="Roboto" font-weight="bold"><tspan y="-44.7402" x="515.2297 519.82168">13</tspan></text>
<g id="Layer-1" data-name="Artifact">
<clipPath id="cp180">
<path transform="matrix(1,0,0,-1,0,841.89)" d="M 0 0 L 595.276 0 L 595.276 841.89 L 0 841.89 Z "/>
</clipPath>
<g clip-path="url(#cp180)">
<path transform="matrix(1,0,0,-1,524.4094,802.3869)" stroke-width=".5" stroke-linecap="butt" stroke-miterlimit="4" stroke-linejoin="miter" fill="none" stroke="#404041" d="M 0 0 L -524.409 0 "/>
</g>
<g id="Layer-1" data-name="Artifact">
<path transform="matrix(1,0,0,-1,-524.4094,39.3869)" stroke-width=".5" stroke-linecap="butt" stroke-miterlimit="4" stroke-linejoin="miter" fill="none" stroke="#404041" d="M 0 0 L 1048.819 0 "/>
</g>
</g>
</g>
</g>
</svg>
