<?xml version="1.0" encoding="UTF-8" standalone="no"?>
<!DOCTYPE svg PUBLIC "-//W3C//DTD SVG 1.1//EN" "http://www.w3.org/Graphics/SVG/1.1/DTD/svg11.dtd">
<svg xmlns="http://www.w3.org/2000/svg" xmlns:xlink="http://www.w3.org/1999/xlink" version="1.1" width="595.276pt" height="841.89pt" viewBox="0 0 595.276 841.89">
<g enable-background="new">
<g>
<g id="Layer-1" data-name="Span">
</g>
<text fill="#2b3b52" xml:space="preserve" transform="matrix(1 0 -0 1 0 841.89)" font-size="15" font-family="Roboto"><tspan y="-759.7736" x="70.8661 78.487598 86.944599 94.7011 101.14661 109.66661 113.40161 117.64361 126.018108 130.9201 139.42812 144.73361 157.72061 165.80112 173.44362 177.35413 185.86963 194.35964 198.09464 206.60865 219.65865 223.39365 231.57166 239.98516 247.74916 255.82817 261.19667 266.08818 273.93318 277.66816 286.15815 294.64814 298.38313 306.57313 315.0976 323.5876 328.7356 336.5806 340.31559 348.49809 353.8021 362.32359 370.2136 374.0911 382.5811 390.5206 395.6686 403.5136">102-8 Informasjon om ansatte og andre arbeidere </tspan></text>
<g id="Layer-1" data-name="Artifact">
<clipPath id="cp596">
<path transform="matrix(1,0,0,-1,0,841.89)" d="M 0 0 L 595.276 0 L 595.276 841.89 L 0 841.89 Z "/>
</clipPath>
<g clip-path="url(#cp596)">
<filter id="blend_3"><feBlend mode="overlay" in2="BackgroundImage" in="SourceGraphic"/></filter>
<g filter="url(#blend_3)">
<clipPath id="cp597">
<path transform="matrix(1,0,0,-1,0,841.89)" d="M 69.8661 439.702 L 525.409 439.702 L 525.409 442.202 L 69.8661 442.202 Z "/>
</clipPath>
<g clip-path="url(#cp597)">
<path transform="matrix(1,0,0,-1,70.8661,400.93803)" stroke-width=".5" stroke-linecap="butt" stroke-miterlimit="4" stroke-linejoin="miter" fill="none" stroke="#b9bbbd" d="M 0 0 L 453.543 0 "/>
</g>
</g>
</g>
<g id="Layer-1" data-name="Span">
</g>
<text fill="#404041" xml:space="preserve" transform="matrix(1 0 -0 1 0 841.89)" font-size="9" font-family="Roboto"><tspan y="-735.4736" x="70.8661 77.022098 80.0461 84.922298 87.8689 92.7271 97.7644 102.7594 104.7754 109.6786 114.07869 118.63269 120.612689 126.28088 131.60889 133.66179 138.68378 143.54198 146.56598 148.56398 151.318 156.25809 159.2047 164.0287 166.1347 169.02371 170.98032 175.9546 180.94062 182.89362 187.75182 192.7342 197.3701 202.16532 205.32523 208.07474 212.72774 214.65644 217.45005 222.53054 225.55454 230.62154 235.29344 237.39855 240.28755 242.24416 247.29677 252.12078 254.08457 259.01567 264.00166 265.95466 270.81288 273.91966 278.48713 282.83143 287.53663 290.7109 295.31803 297.46903 299.41755 305.56993 310.24815 313.40715 316.15666 320.80967 322.73838 324.75437 329.81867 334.33848 336.35447 341.43498 346.50196 351.20808 354.22038 358.92558 361.94956 363.94758 365.96357 370.54008 374.80787 379.46089 381.3896 385.99937 391.08799 399.10249 407.13679 411.84199 415.25657 419.72059 421.73658 426.2285 431.0867 434.099 438.8042 441.45469 443.17369 445.12669 449.73646 454.82508 462.79908 464.75209 466.76808 468.74809 473.81239 478.91807 483.98237 488.96836 490.92137 495.27378 500.132 503.15599 505.154 510.23539">Gratanglaks AS har totalt 26 ansatte fordelt p&#x00e5; 25 &#x00e5;rsverk. Dette inkluderer ikke sommervikarer, som i 2020 var 5.</tspan></text>
</g>
<g id="Layer-1" data-name="Span">
</g>
<g id="Layer-1" data-name="Span">
</g>
<text fill="#2b3b52" xml:space="preserve" transform="matrix(1 0 -0 1 0 841.89)" font-size="12" font-family="Roboto"><tspan y="-692.0505" x="72.4241 78.460109 85.013309 91.8413 98.1665 101.20609 104.31769 107.305698 113.4137 120.1925 126.4145 131.5853">Tabell 102-8</tspan></text>
<path transform="matrix(1,0,0,-1,0,841.89)" d="M 70.866 499.383 L 198.42499 499.383 L 198.42499 475.625 L 70.866 475.625 Z M 198.425 499.383 L 252.677 499.383 L 252.677 475.625 L 198.425 475.625 Z M 252.677 499.383 L 306.92903 499.383 L 306.92903 475.625 L 252.677 475.625 Z M 306.929 499.383 L 361.18098 499.383 L 361.18098 475.625 L 306.929 475.625 Z M 361.181 499.383 L 415.43299 499.383 L 415.43299 475.625 L 361.181 475.625 Z M 415.433 499.383 L 469.685 499.383 L 469.685 475.625 L 415.433 475.625 Z M 469.685 499.383 L 523.937 499.383 L 523.937 475.625 L 469.685 475.625 Z " fill="#eaebee"/>
<path transform="matrix(1,0,0,-1,70.8661,188.65973)" stroke-width="1" stroke-linecap="butt" stroke-miterlimit="10" stroke-linejoin="miter" fill="none" stroke="#231f20" d="M 0 0 L 127.559 0 "/>
<path transform="matrix(1,0,0,-1,198.4252,188.65973)" stroke-width="1" stroke-linecap="butt" stroke-miterlimit="10" stroke-linejoin="miter" fill="none" stroke="#231f20" d="M 0 0 L 54.252 0 "/>
<path transform="matrix(1,0,0,-1,252.6772,188.65973)" stroke-width="1" stroke-linecap="butt" stroke-miterlimit="10" stroke-linejoin="miter" fill="none" stroke="#231f20" d="M 0 0 L 54.252 0 "/>
<path transform="matrix(1,0,0,-1,306.9291,188.65973)" stroke-width="1" stroke-linecap="butt" stroke-miterlimit="10" stroke-linejoin="miter" fill="none" stroke="#231f20" d="M 0 0 L 54.252 0 "/>
<path transform="matrix(1,0,0,-1,361.1811,188.65973)" stroke-width="1" stroke-linecap="butt" stroke-miterlimit="10" stroke-linejoin="miter" fill="none" stroke="#231f20" d="M 0 0 L 54.252 0 "/>
<path transform="matrix(1,0,0,-1,415.433,188.65973)" stroke-width="1" stroke-linecap="butt" stroke-miterlimit="10" stroke-linejoin="miter" fill="none" stroke="#231f20" d="M 0 0 L 54.252 0 "/>
<path transform="matrix(1,0,0,-1,469.6851,188.65973)" stroke-width="1" stroke-linecap="butt" stroke-miterlimit="10" stroke-linejoin="miter" fill="none" stroke="#231f20" d="M 0 0 L 54.252 0 "/>
<g id="Layer-1" data-name="Span">
</g>
<g id="Layer-1" data-name="Span">
<text fill="#231f20" xml:space="preserve" transform="matrix(1 0 -0 1 0 841.89)" font-size="9" font-family="Roboto"><tspan y="-659.6293" x="74.8661 80.48029 85.39699 90.54679 92.806697 98.05369 103.16929 106.431789 112.517589">Region/&#x00c5;r</tspan></text>
</g>
<g id="Layer-1" data-name="Span">
</g>
<g id="Layer-1" data-name="Span">
</g>
<g id="Layer-1" data-name="Span">
<text fill="#2a3b52" xml:space="preserve" transform="matrix(1 0 -0 1 0 841.89)" font-size="12" font-family="Roboto" font-weight="bold"><tspan y="-658.5043" x="222.3657 229.1553 235.6221 241.7925 330.9177 337.70729 344.17408 350.29408 438.3057 445.0977 452.0073 458.7993">201820192020</tspan></text>
</g>
<g id="Layer-1" data-name="Span">
<text fill="#231f20" xml:space="preserve" transform="matrix(1 0 -0 1 0 841.89)" font-size="9" font-family="Roboto"><tspan y="-637.4764" x="79.3701 84.265209 89.2422 94.058109 97.127109 101.83771 104.078708 109.113307 114.28831 119.07361 124.050609 127.3896 130.4586">Faste ansatte</tspan></text>
</g>
<g id="Layer-1" data-name="Span">
</g>
<g id="Layer-1" data-name="Span">
<text fill="#2b3b52" xml:space="preserve" transform="matrix(1 0 -0 1 0 841.89)" font-size="9" font-family="Roboto"><tspan y="-637.4764" x="283.38209 289.845 292.905 391.88609 398.349 401.409">N/AN/A</tspan></text>
</g>
<g id="Layer-1" data-name="Span">
<text fill="#231f20" xml:space="preserve" transform="matrix(1 0 -0 1 0 841.89)" font-size="9" font-family="Roboto"><tspan y="-637.4764" x="451.26808 456.20008">25</tspan></text>
</g>
<g id="Layer-1" data-name="Span">
<text fill="#2b3b52" xml:space="preserve" transform="matrix(1 0 -0 1 0 841.89)" font-size="9" font-family="Roboto"><tspan y="-637.4764" x="508.78706">%</tspan></text>
</g>
<g id="Layer-1" data-name="Span">
<text fill="#231f20" xml:space="preserve" transform="matrix(1 0 -0 1 0 841.89)" font-size="9" font-family="Roboto"><tspan y="-613.7164" x="79.37903 81.953029 84.14002 90.52912 94.994029 97.010028 102.074329 107.135929 111.841129">- Kvinner</tspan></text>
</g>
<g id="Layer-1" data-name="Span">
</g>
<g id="Layer-1" data-name="Span">
<text fill="#2b3b52" xml:space="preserve" transform="matrix(1 0 -0 1 0 841.89)" font-size="9" font-family="Roboto"><tspan y="-613.7164" x="283.39103 289.85395 292.91395 391.89503 398.35795 401.41795">N/AN/A</tspan></text>
</g>
<g id="Layer-1" data-name="Span">
</g>
<g id="Layer-1" data-name="Span">
<text fill="#231f20" xml:space="preserve" transform="matrix(1 0 -0 1 0 841.89)" font-size="9" font-family="Roboto"><tspan y="-613.7164" x="508.78703">%</tspan><tspan y="-589.95639" x="79.379 83.1581 85.3451 93.2021 97.9271 102.9194">- Menn</tspan></text>
</g>
<g id="Layer-1" data-name="Span">
</g>
<g id="Layer-1" data-name="Span">
<text fill="#2b3b52" xml:space="preserve" transform="matrix(1 0 -0 1 0 841.89)" font-size="9" font-family="Roboto"><tspan y="-589.95639" x="283.391 289.8539 292.9139 391.895 398.3579 401.4179">N/AN/A</tspan></text>
</g>
<g id="Layer-1" data-name="Span">
</g>
<g id="Layer-1" data-name="Span">
</g>
<g id="Layer-1" data-name="Span">
<text fill="#231f20" xml:space="preserve" transform="matrix(1 0 -0 1 0 841.89)" font-size="9" font-family="Roboto"><tspan y="-589.95639" x="508.787">%</tspan></text>
<text fill="#231f20" xml:space="preserve" transform="matrix(1 0 -0 1 0 841.89)" font-size="9" font-family="Roboto"><tspan y="-566.19638" x="79.37897 87.293567 89.74696 94.93636 97.37806 102.26505 105.772357 108.91515 111.36855 116.55795 118.99785 124.09544">Midlertidig </tspan><tspan y="-555.39639" x="79.37897 84.238079 86.63207 89.07377 93.95986 97.11976 99.360759 102.501758 104.955158 110.145458 114.94696 120.18316 124.99545 129.81046 132.87946 137.76647 145.65227">eller tidsbestemt</tspan></text>
</g>
<g id="Layer-1" data-name="Span">
</g>
<g id="Layer-1" data-name="Span">
<text fill="#2b3b52" xml:space="preserve" transform="matrix(1 0 -0 1 0 841.89)" font-size="9" font-family="Roboto"><tspan y="-560.7964" x="283.39097 289.85389 292.91389 391.89497 398.35789 401.41789">N/AN/A</tspan></text>
</g>
<g id="Layer-1" data-name="Span">
</g>
<g id="Layer-1" data-name="Span">
</g>
<g id="Layer-1" data-name="Span">
<text fill="#231f20" xml:space="preserve" transform="matrix(1 0 -0 1 0 841.89)" font-size="9" font-family="Roboto"><tspan y="-560.7964" x="456.20896 508.79597">2%</tspan><tspan y="-531.6364" x="79.38794 81.96194 84.14893 90.53803 95.00294 97.018939 102.08324 107.14484 111.85004">- Kvinner</tspan></text>
</g>
<g id="Layer-1" data-name="Span">
</g>
<g id="Layer-1" data-name="Span">
<text fill="#2b3b52" xml:space="preserve" transform="matrix(1 0 -0 1 0 841.89)" font-size="9" font-family="Roboto"><tspan y="-531.6364" x="283.39994 289.86286 292.92286 391.90394 398.36686 401.42686">N/AN/A</tspan></text>
</g>
<g id="Layer-1" data-name="Span">
</g>
<g id="Layer-1" data-name="Span">
<text fill="#231f20" xml:space="preserve" transform="matrix(1 0 -0 1 0 841.89)" font-size="9" font-family="Roboto"><tspan y="-531.6364" x="503.63893 508.79594">0%</tspan><tspan y="-507.8764" x="79.38791 83.16701 85.35401 93.21101 97.93601 102.928318">- Menn</tspan></text>
</g>
<g id="Layer-1" data-name="Span">
</g>
<g id="Layer-1" data-name="Span">
<text fill="#2b3b52" xml:space="preserve" transform="matrix(1 0 -0 1 0 841.89)" font-size="9" font-family="Roboto"><tspan y="-507.8764" x="283.3999 289.86283 292.92283 391.9039 398.36683 401.42683">N/AN/A</tspan></text>
</g>
<g id="Layer-1" data-name="Span">
</g>
<g id="Layer-1" data-name="Span">
</g>
<g id="Layer-1" data-name="Span">
<text fill="#231f20" xml:space="preserve" transform="matrix(1 0 -0 1 0 841.89)" font-size="9" font-family="Roboto"><tspan y="-507.8764" x="493.8829 498.4099 503.64253 508.8004">100%</tspan></text>
<text fill="#231f20" xml:space="preserve" transform="matrix(1 0 -0 1 0 841.89)" font-size="9" font-family="Roboto"><tspan y="-484.1164" x="79.39688 84.08138 89.226688 92.41988 97.41128 99.84038 102.921077 105.16207 110.19667 115.37167 118.56487 123.55627 125.95477 128.28759 130.5286 135.5623 140.7373 145.52262 150.49962 153.8377 156.90671">Totalt antall ansatte</tspan></text>
<text fill="#231f20" xml:space="preserve" transform="matrix(1 0 -0 1 0 841.89)" font-size="9" font-family="Roboto"><tspan y="-484.1164" x="451.2499 456.2269">26</tspan></text>
</g>
<g id="Layer-1" data-name="Span">
<text fill="#2b3b52" xml:space="preserve" transform="matrix(1 0 -0 1 0 841.89)" font-size="9" font-family="Roboto"><tspan y="-484.1164" x="493.8919 498.4189 503.65153 508.80943">100%</tspan></text>
</g>
<g id="Layer-1" data-name="Span">
<text fill="#2b3b52" xml:space="preserve" transform="matrix(1 0 -0 1 0 841.89)" font-size="15" font-family="Roboto"><tspan y="-395.0291" x="70.8661 78.487598 86.944599 94.7011 101.07911 109.599109 113.33411 122.56811 130.4596 134.2396 142.03209 149.79909 157.97559 166.4881 174.36009 179.4106 187.2106 190.9456 194.8036 202.4806 209.8156 217.7551 222.91809 231.1006 239.6251 248.11511 256.62013 261.92564 269.80665 273.71565 281.63566 290.12565">102-9 Selskapets leverand&#x00f8;rkjede</tspan></text>
</g>
<g id="Layer-1" data-name="Span">
</g>
<g id="Layer-1" data-name="Span">
</g>
<g id="Layer-1" data-name="Span">
</g>
<g id="Layer-1" data-name="Span">
</g>
<g id="Layer-1" data-name="Span">
</g>
<g id="Layer-1" data-name="Span">
</g>
<g id="Layer-1" data-name="Span">
</g>
<g id="Layer-1" data-name="Span">
</g>
<g id="Layer-1" data-name="Span">
</g>
<g id="Layer-1" data-name="Span">
</g>
<g id="Layer-1" data-name="Span">
</g>
<g id="Layer-1" data-name="Span">
</g>
<g id="Layer-1" data-name="Span">
</g>
<g id="Layer-1" data-name="Span">
</g>
<g id="Layer-1" data-name="Span">
</g>
<g id="Layer-1" data-name="Span">
</g>
<g id="Layer-1" data-name="Span">
</g>
<g id="Layer-1" data-name="Span">
</g>
<g id="Layer-1" data-name="Span">
</g>
<g id="Layer-1" data-name="Span">
</g>
<g id="Layer-1" data-name="Span">
</g>
<g id="Layer-1" data-name="Span">
</g>
<g id="Layer-1" data-name="Span">
</g>
<g id="Layer-1" data-name="Span">
</g>
<g id="Layer-1" data-name="Span">
</g>
<g id="Layer-1" data-name="Span">
</g>
<g id="Layer-1" data-name="Span">
</g>
<g id="Layer-1" data-name="Span">
</g>
<g id="Layer-1" data-name="Span">
</g>
<g id="Layer-1" data-name="Span">
</g>
<g id="Layer-1" data-name="Span">
</g>
<g id="Layer-1" data-name="Span">
</g>
<g id="Layer-1" data-name="Span">
</g>
<g id="Layer-1" data-name="Span">
</g>
<g id="Layer-1" data-name="Span">
</g>
<g id="Layer-1" data-name="Span">
</g>
<g id="Layer-1" data-name="Span">
</g>
<g id="Layer-1" data-name="Span">
</g>
<g id="Layer-1" data-name="Span">
</g>
<g id="Layer-1" data-name="Span">
</g>
<text fill="#404041" xml:space="preserve" transform="matrix(1 0 -0 1 0 841.89)" font-size="9" font-family="Roboto"><tspan y="-370.5068" x="70.8661 73.26009 75.54609 81.70209 84.72609 89.60229 92.54799 97.40619 102.44439 107.43939 109.45539 114.35859 118.75868 123.31268 125.58608 130.29219 133.3162 135.60849 143.5978 148.456 153.49329 158.56928 163.22228 165.44527 170.18918 174.51818 176.83657 181.18987 186.04807 189.06037 193.71337 195.93636 198.01807 202.66117 207.00547 211.71067 214.73467 219.63787 224.68416 229.76377 234.84607 237.85837 242.56447 245.58847 247.88077 249.97417 255.05466 259.51957 264.34358 266.35237 268.36296 272.96913 277.67433 281.1015 283.9905 286.2405 288.2565 290.5245 296.1018 301.1841 303.8103 306.9009 311.5782 314.60218 319.69169 327.6468 332.31147 334.46247 336.70347 341.97297 346.64488 348.70768 353.71168 355.76548 360.76048 363.01948 371.00968 375.86698 380.90519 385.9803 390.6333 392.85633 394.8723 399.93574 404.97306 409.48027 411.62318 416.70637 421.69236 423.96037 429.19477 431.33769 436.42088 439.43318 444.08619 448.64018 450.9145 452.93049 455.1985 460.2745 465.35414 468.3781 473.50633 475.2253 477.4735 482.5675 487.5625 489.82063 494.9146 499.9096 504.5626 509.3866 511.6456 515.9989 520.85708 523.88107">I Gratanglaks er mange av v&#x00e5;re leverand&#x00f8;rer lokalisert i S&#x00f8;r-Troms. Veldig mange innkj&#x00f8;p gj&#x00f8;res i nord, og ogs&#x00e5; v&#x00e5;r </tspan><tspan y="-359.70683" x="70.8661 75.4813 78.2344 83.3176 86.4244 91.039608 93.7882 98.4412 100.6282 102.690097 107.33409 111.67749 116.38359 119.40759 124.31079 129.35619 134.43669 139.519 142.543 144.73 147.4138 150.20742 155.2879 158.2453 161.1208 162.8398 165.0268 169.7374 172.7614 174.9484 177.949 180.973 185.79701 187.98401 192.7234 195.7474 200.836 208.79109 213.4558 215.6068 217.7938 223.89038 228.93668 234.00368 238.70978 241.73378 243.92078 248.67548 251.69948 253.88648 259.00297 263.65599 265.843 270.4384 273.19239 278.2747 281.38148 285.99665 288.74617 293.39918 295.58619 297.6472 302.2912 306.6346 311.34074 314.36473 319.2679 324.31333 329.39384 334.47615 337.48844 342.19456 347.25617 351.90919 354.0962 356.0861 358.0958 362.71098 365.46049 370.1378 373.0268 375.2138 380.30244 385.355 390.3572">st&#x00f8;rste leverand&#x00f8;r (f&#x00f4;r), er fra Troms. Under er de st&#x00f8;rste leverand&#x00f8;rene listet opp.</tspan></text>
<text fill="#404041" xml:space="preserve" transform="matrix(1 0 -0 1 0 841.89)" font-size="9" font-family="Roboto" font-weight="bold"><tspan y="-318.53184" x="70.8661 76.205799 84.27879 90.64179">EWOS</tspan></text>
<text fill="#404041" xml:space="preserve" transform="matrix(1 0 -0 1 0 841.89)" font-size="9" font-family="Roboto"><tspan y="-318.53184" x="96.2371 98.424098 100.99809 103.18509 105.372089 111.59379 116.673389"> -  F&#x00f4;r</tspan></text>
<text fill="#404041" xml:space="preserve" transform="matrix(1 0 -0 1 0 841.89)" font-size="9" font-family="Roboto" font-weight="bold"><tspan y="-300.37886" x="70.8661 76.73679 80.00019 85.19679 90.422199 95.634098 100.827098 105.7168 108.89469 111.13569 117.646289 122.82848 126.09998">Br&#x00f8;nnb&#x00e5;t Nord</tspan></text>
<text fill="#404041" xml:space="preserve" transform="matrix(1 0 -0 1 0 841.89)" font-size="9" font-family="Roboto"><tspan y="-300.37886" x="131.16609 133.35309 135.9271 138.11409 144.38529 146.39589 151.00209 155.70729 160.4332 163.3663 166.3903 171.2935 176.2759 180.8758 185.96619 191.04578 194.47298"> - Fisektransport</tspan></text>
<text fill="#404041" xml:space="preserve" transform="matrix(1 0 -0 1 0 841.89)" font-size="9" font-family="Roboto" font-weight="bold"><tspan y="-282.22584" x="70.86609 76.77099 81.98559 86.782588">REFA</tspan></text>
<text fill="#404041" xml:space="preserve" transform="matrix(1 0 -0 1 0 841.89)" font-size="9" font-family="Roboto"><tspan y="-282.22584" x="92.52909 94.71609 98.495189 100.68218 107.11268 112.05278 114.98588 120.07538 125.14238 129.72338 134.42948"> - Notposer</tspan></text>
<text fill="#404041" xml:space="preserve" transform="matrix(1 0 -0 1 0 841.89)" font-size="9" font-family="Roboto" font-weight="bold"><tspan y="-263.66783" x="70.86609 76.888889 83.06289 88.53489">AKVA</tspan></text>
<text fill="#404041" xml:space="preserve" transform="matrix(1 0 -0 1 0 841.89)" font-size="9" font-family="Roboto"><tspan y="-263.66783" x="94.275089 96.46208 99.03608 101.223079 107.49518 109.604778 114.363079 117.11257 121.81867 124.96327 126.97927 132.04448 137.03948 139.22647 144.34027 149.33527 151.52227 159.57277 164.27887 167.30287 172.37078 177.07598 179.72647 181.44547 183.63246 188.10277 192.96907 201.00337 205.70948 208.73348 213.55748 215.74448 220.89968 225.89467"> - Flytering og merder, kamera og </tspan><tspan y="-249.66382" x="70.86609 75.33099 77.34699 82.35729 86.90679 89.0992 90.8182 93.005199 95.8042 100.8847 103.9915 108.5905 113.644 116.656299 121.380397 126.448299 131.1535 134.1775">vinsj, f&#x00f4;rspreder </tspan></text>
<text fill="#404041" xml:space="preserve" transform="matrix(1 0 -0 1 0 841.89)" font-size="9" font-family="Roboto" font-weight="bold"><tspan y="-227.75782" x="70.86609 77.379398 83.7586 89.522197 97.76529 102.97989 108.01089">NORWEL </tspan></text>
<text fill="#404041" xml:space="preserve" transform="matrix(1 0 -0 1 0 841.89)" font-size="9" font-family="Roboto"><tspan y="-227.75782" x="110.251888 114.03098 116.21798 118.404979 123.98318 128.78919 130.861 135.8767 140.41269 142.5214 147.24549 152.2954">-  Salgsledd</tspan></text>
<text fill="#404041" xml:space="preserve" transform="matrix(1 0 -0 1 0 841.89)" font-size="9" font-family="Roboto" font-weight="bold"><tspan y="-209.60482" x="70.86609 76.76109 83.1403 88.5133 94.536098 100.32489 106.18839 109.02339 114.9283 120.9439 126.1585">POLARCIRKEL</tspan></text>
<text fill="#404041" xml:space="preserve" transform="matrix(1 0 -0 1 0 841.89)" font-size="9" font-family="Roboto"><tspan y="-209.60482" x="131.19309 133.38008 137.15918 139.34618 145.08548 149.88068 152.62567 157.33177"> - B&#x00e5;ter</tspan></text>
<text fill="#404041" xml:space="preserve" transform="matrix(1 0 -0 1 0 841.89)" font-size="9" font-family="Roboto" font-weight="bold"><tspan y="-191.45182" x="70.86609 77.379398 83.7586 88.8769 91.5589">NOFI </tspan></text>
<text fill="#404041" xml:space="preserve" transform="matrix(1 0 -0 1 0 841.89)" font-size="9" font-family="Roboto"><tspan y="-191.45182" x="93.7999 96.37389 98.56089 106.19829 111.13839 114.07149 119.16099 124.20099 128.80629 133.51239 136.53639">- Notposer </tspan></text>
<text fill="#404041" xml:space="preserve" transform="matrix(1 0 -0 1 0 841.89)" font-size="9" font-family="Roboto" font-weight="bold"><tspan y="-173.29882" x="70.86609 77.44509 85.689098 91.4284">NWP </tspan></text>
<text fill="#404041" xml:space="preserve" transform="matrix(1 0 -0 1 0 841.89)" font-size="9" font-family="Roboto"><tspan y="-173.29882" x="93.6694 97.44851 99.63551 104.54051 109.55261 114.15881 118.82981 123.40181 127.918018 129.98802 135.14234 138.56954">- Luseskj&#x00f8;rt</tspan></text>
<text fill="#404041" xml:space="preserve" transform="matrix(1 0 -0 1 0 841.89)" font-size="9" font-family="Roboto" font-weight="bold"><tspan y="-155.14582" x="70.86609 76.888889 82.66058 88.81388 93.97449 99.57249">ARGES </tspan></text>
<text fill="#404041" xml:space="preserve" transform="matrix(1 0 -0 1 0 841.89)" font-size="9" font-family="Roboto"><tspan y="-155.14582" x="101.813488 104.38748 106.57448 112.79438 117.87398 120.98078 125.546489 127.562488 132.4477 137.48589 142.56098 147.26708">- F&#x00f4;rslanger</tspan></text>
<text fill="#404041" xml:space="preserve" transform="matrix(1 0 -0 1 0 841.89)" font-size="9" font-family="Roboto" font-weight="bold"><tspan y="-318.5318" x="251.2621 256.45329 259.3216 267.1561 272.8981 275.1391 279.8803 284.7322 288.03163 292.84123 297.46723">EIWA safex </tspan></text>
<text fill="#404041" xml:space="preserve" transform="matrix(1 0 -0 1 0 841.89)" font-size="9" font-family="Roboto"><tspan y="-318.5318" x="299.70823 302.28224 304.46925 310.68824 315.76786 319.19505 321.94905 326.90895 331.41615 336.42375 338.43974 343.50404 348.57914 353.28526">- Fort&#x00f8;yninger</tspan></text>
<text fill="#404041" xml:space="preserve" transform="matrix(1 0 -0 1 0 841.89)" font-size="9" font-family="Roboto" font-weight="bold"><tspan y="-300.37879" x="251.2621 256.3615 261.3862 266.3146 270.8866 276.0427 278.63468 283.69267">L&#x00f8;vvold </tspan></text>
<text fill="#404041" xml:space="preserve" transform="matrix(1 0 -0 1 0 841.89)" font-size="9" font-family="Roboto"><tspan y="-300.37879" x="285.93367 288.50767 290.69468 296.91368 301.9933 305.42048 308.17448 313.13438 317.64158 322.64918 324.66517 329.72947 334.80458 339.51069">- Fort&#x00f8;yninger</tspan></text>
<text fill="#404041" xml:space="preserve" transform="matrix(1 0 -0 1 0 841.89)" font-size="9" font-family="Roboto" font-weight="bold"><tspan y="-282.22578" x="251.2621 256.34349 262.49678 267.71138 273.54338 279.26466 285.69065 292.24266 298.12236">EGERSUND </tspan></text>
<text fill="#404041" xml:space="preserve" transform="matrix(1 0 -0 1 0 841.89)" font-size="9" font-family="Roboto"><tspan y="-282.22578" x="300.36335 302.93736 305.12437 311.00675 315.86497 320.41447 325.47697 330.15428 333.31419 336.2032 338.3902 343.4932 348.4882 350.6752 355.30659 358.0561 362.7613 367.7986 372.8746 377.5798">- Taknett og stenger</tspan></text>
<text fill="#404041" xml:space="preserve" transform="matrix(1 0 -0 1 0 841.89)" font-size="9" font-family="Roboto" font-weight="bold"><tspan y="-227.76677" x="251.2621 257.1805 262.35554 266.31013 272.07914 278.08485 284.10044 289.83973">SJ-DYKK </tspan></text>
<text fill="#404041" xml:space="preserve" transform="matrix(1 0 -0 1 0 841.89)" font-size="9" font-family="Roboto"><tspan y="-227.76677" x="292.08073 295.8598 298.0468 304.25953 308.7667 313.3162 317.58399 322.309 325.7182 328.609 330.7393 335.4643 340.5079 345.16093 349.77613 352.52473 357.24974">- Dykkertjenester</tspan></text>
<text fill="#404041" xml:space="preserve" transform="matrix(1 0 -0 1 0 841.89)" font-size="9" font-family="Roboto" font-weight="bold"><tspan y="-264.07276" x="251.2621 259.2631 265.654 271.55799 276.77259 283.28858 289.60929 294.6637">M&#x00d8;RENOT </tspan></text>
<text fill="#404041" xml:space="preserve" transform="matrix(1 0 -0 1 0 841.89)" font-size="9" font-family="Roboto"><tspan y="-264.07276" x="296.90473 299.47874 301.66575 307.88475 312.96437 316.39155 319.14555 324.10545 328.61265 333.62025 335.63624 340.70054 345.77565 350.48176">- Fort&#x00f8;yninger</tspan></text>
<text fill="#404041" xml:space="preserve" transform="matrix(1 0 -0 1 0 841.89)" font-size="9" font-family="Roboto" font-weight="bold"><tspan y="-209.61376" x="251.2621 257.0365 263.467 269.065">AQS </tspan></text>
<text fill="#404041" xml:space="preserve" transform="matrix(1 0 -0 1 0 841.89)" font-size="9" font-family="Roboto"><tspan y="-209.61376" x="271.306 275.08509 277.2721 282.84129 287.56629 290.962 295.426 297.5194 302.2264 306.95143 311.98515 316.78034 319.94026 322.83106 324.96226 329.68727 334.73088 339.38389 343.99909 346.7486 351.4736">- Serviceb&#x00e5;ttjenester</tspan></text>
<text fill="#404041" xml:space="preserve" transform="matrix(1 0 -0 1 0 841.89)" font-size="9" font-family="Roboto" font-weight="bold"><tspan y="-245.91976" x="251.2621 257.0824 262.3447 267.5359 270.37089 276.86708 282.58027 288.53465 291.36964 297.10893">STEINSVIK </tspan></text>
<text fill="#404041" xml:space="preserve" transform="matrix(1 0 -0 1 0 841.89)" font-size="9" font-family="Roboto"><tspan y="-245.91976" x="299.3581 303.13719 305.3242 310.4452 315.41679 318.5236 323.1235 328.177 331.1893 335.9134 340.9714 345.6856">- F&#x00f4;rspreder</tspan></text>
<text fill="#404041" xml:space="preserve" transform="matrix(1 0 -0 1 0 841.89)" font-size="9" font-family="Roboto" font-weight="bold"><tspan y="-155.15476" x="251.26209 257.4127 260.677 265.6864 270.5896 273.96638 276.50437 281.68659 284.95899 290.017 292.258 300.2464 305.1316 310.3057 313.02369 315.26469 320.8006 325.6858 328.98249 333.91899 338.69889 341.8759 346.74488 351.8029 354.04389 359.938 365.53599">Grovfjord Mek. Verksted AS </tspan></text>
<text fill="#404041" xml:space="preserve" transform="matrix(1 0 -0 1 0 841.89)" font-size="9" font-family="Roboto"><tspan y="-155.15476" x="367.77699 370.35099 372.538 379.4833 384.27943 387.16844 391.7341 393.7429 395.75889 400.84028">- B&#x00e5;tslipp</tspan></text>
<text fill="#404041" xml:space="preserve" transform="matrix(1 0 -0 1 0 841.89)" font-size="9" font-family="Roboto" font-weight="bold"><tspan y="-191.46076" x="251.26209 257.85728 263.87916 268.92277 275.32087 281.06376 283.30476 289.89906 295.40525 301.24806 307.01707 312.23167 317.96556 323.91996 326.74867 332.66166 337.68455">H&#x00c5;L&#x00d8;Y HAVSERVICE </tspan></text>
<text fill="#404041" xml:space="preserve" transform="matrix(1 0 -0 1 0 841.89)" font-size="9" font-family="Roboto"><tspan y="-191.46076" x="339.92555 343.70463 345.89164 351.46083 356.18583 359.58155 364.04554 366.13896 370.84596 375.57096 380.60469 385.39988 388.55979 391.4506 393.58088 398.30589 403.3495 408.0025 412.6177 415.36723 420.09223">- Serviceb&#x00e5;ttjenester</tspan></text>
<text fill="#404041" xml:space="preserve" transform="matrix(1 0 -0 1 0 841.89)" font-size="9" font-family="Roboto" font-weight="bold"><tspan y="-173.30776" x="251.26209 257.8114 262.7389 266.03199 270.8119 274.0879 278.98658 284.0446 286.28559 291.4066 293.9716 298.85679 304.05339 307.32939 310.5937 315.6517">Harstad Elektro </tspan></text>
<text fill="#404041" xml:space="preserve" transform="matrix(1 0 -0 1 0 841.89)" font-size="9" font-family="Roboto"><tspan y="-173.30776" x="317.89808 320.47209 322.6591 328.9024 330.9832 335.6893 340.4152 343.3474 346.3714 351.45103 356.45863 358.4692 363.0691 367.33689 371.9899 374.1769 376.1929 381.1762 385.7905 388.7371 393.5611 395.5708 397.5868 402.418 406.972 409.1149 414.1954 419.25703 423.96315 426.98713 429.17414 434.31764 439.31263 441.49964 444.40666 446.53697 451.24217 456.30467 460.95768 465.57286 468.32237 473.02757 476.05155">- Elektroniske installasjoner og tjenester </tspan></text>
<g id="Layer-1" data-name="Artifact">
<clipPath id="cp598">
<path transform="matrix(1,0,0,-1,0,841.89)" d="M 0 0 L 595.276 0 L 595.276 841.89 L 0 841.89 Z "/>
</clipPath>
<g clip-path="url(#cp598)">
<path transform="matrix(1,0,0,-1,-524.4094,39.3869)" stroke-width=".5" stroke-linecap="butt" stroke-miterlimit="4" stroke-linejoin="miter" fill="none" stroke="#404041" d="M 0 0 L 1048.819 0 "/>
</g>
<g id="Layer-1" data-name="Span">
</g>
<text fill="#404041" xml:space="preserve" transform="matrix(1 0 -0 1 0 841.89)" font-size="7" font-family="Roboto"><tspan y="-29.016" x="431.9652 436.80223 440.83073 445.9197 449.9482 454.5542 458.5827 462.6217 466.6614 470.53733 472.28034 477.23426 481.82487 486.41548 489.87419 494.34437 498.80339 503.86018 506.0008 511.08979 515.92678 519.95529">GENERELLE OPPLYSNINGER</tspan></text>
</g>
<g id="Layer-1" data-name="Span">
</g>
<text fill="#404041" xml:space="preserve" transform="matrix(1 0 -0 1 0 841.89)" font-size="8" font-family="Roboto" font-weight="bold"><tspan y="-44.7402" x="515.2297 519.82168">57</tspan></text>
<g id="Layer-1" data-name="Artifact">
<clipPath id="cp599">
<path transform="matrix(1,0,0,-1,0,841.89)" d="M 0 0 L 595.276 0 L 595.276 841.89 L 0 841.89 Z "/>
</clipPath>
<g clip-path="url(#cp599)">
<path transform="matrix(1,0,0,-1,524.4094,802.3869)" stroke-width=".5" stroke-linecap="butt" stroke-miterlimit="4" stroke-linejoin="miter" fill="none" stroke="#404041" d="M 0 0 L -1048.819 0 "/>
</g>
</g>
</g>
</g>
</svg>
