<?xml version="1.0" encoding="UTF-8" standalone="no"?>
<!DOCTYPE svg PUBLIC "-//W3C//DTD SVG 1.1//EN" "http://www.w3.org/Graphics/SVG/1.1/DTD/svg11.dtd">
<svg xmlns="http://www.w3.org/2000/svg" xmlns:xlink="http://www.w3.org/1999/xlink" version="1.1" width="595.276pt" height="841.89pt" viewBox="0 0 595.276 841.89">
<g enable-background="new">
<g>
<g id="Layer-1" data-name="Span">
</g>
<g id="Layer-1" data-name="Span">
</g>
<g id="Layer-1" data-name="Span">
<text fill="#00578c" xml:space="preserve" transform="matrix(1 0 -0 1 0 841.89)" font-size="15" font-family="Roboto"><tspan y="-759.7736" x="70.8661 79.25559 87.63459 96.04509 101.51709 110.037097 113.772098 122.929599 131.4376 144.48761 157.49411 166.02162 174.47863 178.32611 186.09311 194.17362 201.81761 205.72663 214.24213 222.73213 226.46714 234.98114 248.03115 251.76615 260.25614 268.74613 272.4811 280.9951 289.52558 298.00807 301.81358 314.92359 320.1676 324.0226 332.5006 340.9906 344.7256 348.6106 352.34559 357.5041 365.3761 370.4431 378.90013 382.75514 391.23313 399.6931 407.4181 411.2011 415.05613 423.4291 427.3381 435.27763 440.54264 444.27763 452.7676 461.2576 464.99259 473.52909 478.6771 487.08158 494.81108 502.73109 511.27809 518.9446 524.0926 532.03207 537.29708">205-2 Kommunikasjon om og oppl&#x00e6;ring i retningslinjer og prosedyrer </tspan><tspan y="-741.7736" x="70.8661 75.7681 84.273097 89.53809 93.273097 101.4481 109.86009 114.885089 118.59009 125.11659 132.64659 141.1516 146.45709 151.7761 160.2961 168.7231 176.3671 180.27611 188.79161">for anti-korrupsjon</tspan></text>
</g>
<g id="Layer-1" data-name="Span">
</g>
<g id="Layer-1" data-name="Span">
</g>
<g id="Layer-1" data-name="Span">
</g>
<text fill="#404041" xml:space="preserve" transform="matrix(1 0 -0 1 0 841.89)" font-size="9" font-family="Roboto"><tspan y="-717.4791" x="70.8661 76.5415 78.557498 85.74849 90.77049 95.62869 98.652698 105.861698 107.87769 112.94199 118.018 122.7232 127.6642 134.89479 139.49379 144.5887 149.2417 153.8074 155.88912 160.56012 162.66613 165.55513 172.72274 175.62615 177.63495 179.65096 182.69026 187.36757 190.52748 193.277 197.948 199.964 204.8285 209.9351 212.82411 219.99262 225.0722 230.1257 235.15579 237.1907 245.108 248.25261 250.26862 255.33292 260.471 262.19 269.354 272.3663 277.0436 279.9767 284.9843 287.0003 292.0646 297.0596 301.64329 303.65208 305.66807 310.69279 312.8231 317.5292 320.5532 327.7622 332.43324 334.44294 336.5237 341.22984 344.2538 351.4619 356.5154 359.5394 364.5794 369.1838 373.90974 379.01185 383.51905 386.53135 391.23655 394.26054 401.46864 404.26313 409.34364 412.3676 419.57664 424.43486 429.40016 432.30357 434.31956 438.61888 443.69938 446.87367 450.05696 455.09516 460.08116 464.65763 466.80143 471.88105 476.97596 479.12696 486.28556 488.67958 495.88139 500.93397 503.95796 508.86027 513.2613 517.8261 519.83676 524.39077">Vi har ingen spesielt tilrettelagt oppl&#x00e6;ring, retningslinjer eller prosedyrer for antikorrupsjon. I praksis </tspan><tspan y="-706.67916" x="70.8661 75.945697 81.02619 85.50819 90.55539 98.59059 103.29579 108.26109 111.01059 115.71669 118.72899 123.43419 126.45819 129.23468 133.69867 135.71468 138.46958 143.70487 145.83516 150.54126 155.57765 160.65274 165.74224 173.71623 176.44683 181.05213 185.75823 189.18543 192.08884 194.24614 197.22515 199.12865 203.73485 208.44095 211.58556 213.60157 218.66677 223.66176 228.27967 233.33226 236.35626 241.39626 246.00156 250.65456 255.26526 259.87055 264.57667 267.60066 270.37626 275.17146 278.06047 280.79649 285.2605 287.2765 290.0323 292.04829 296.6248 300.89259 305.5456 308.2528 313.27394 318.13215 321.15614 323.93266 328.20497 333.28459 336.45887 339.64305 344.68125 349.66725 354.24464 356.38755 361.46806 366.40907 369.20628 373.8773 375.887 377.96778 382.6739 385.69789 388.47349 393.04096 397.50587 399.52186 404.59516 409.66215 414.33317 416.34916 419.10496 421.12095 423.87675 428.23005 433.08827 436.11225 438.88786 443.35276 445.36875 448.57093 452.97105 457.57994 462.66944 470.67494 475.74195 480.41926 483.40907 485.56007 488.28617 494.40168 496.53199 501.23719 506.2745 511.3496 516.4391 524.4131">dokumenterer vi gjennom sertifiseringsprosesser at vi ikke har korrupsjon eller svindel i v&#x00e5;r virksomhet. Gjennom </tspan><tspan y="-695.87918" x="70.8661 75.4723 80.1775 83.6047 86.508098 88.66629 91.645298 93.54879 98.15409 102.86019 106.00479 108.02079 113.08509 118.08009 122.698 127.751499 130.7755 135.81549 140.42169 145.07469 149.6854 154.2916 158.9968 164.0593 168.7123 171.14499 175.4173 180.50589 188.52039 196.50159 201.53978 206.54828 208.55799 213.16419 217.86939 220.88169 225.58779 228.61179 231.11289 235.57778 237.59378 240.07508 245.16907 250.16407 254.81797 259.64198 262.10978 267.21189 270.1009 272.5624 277.6294 282.2824 284.71513 289.39335 292.28236 294.29835 298.89823 303.16603 307.81904 310.25175 313.26405 317.94136 320.87446 325.88206 327.89805 332.96235 337.95735 342.54103 344.5498 346.5658 351.5905 353.72084 358.42695 363.48857 368.14158 370.57429 373.4777 375.4874 377.5034 379.9838 384.3371 389.1953 392.2076 396.86064 399.29335 404.15156 409.13398 413.76988 418.56507 421.72499 424.4745 429.1365 430.8555 433.31343 437.8791 439.88789 441.90388 446.31388 448.80509 453.60029 456.4893 458.9499 463.9539 465.9636 470.57429 475.18046 479.83348 482.26618 485.06068 490.1403 493.16429 498.06748 503.1048 507.6543 510.6666 515.3196 519.8736 522.3567 524.3727">sertifiseringsprosessene kommuniserer vi ogs&#x00e5; ut de etiske retningslinjene til v&#x00e5;re ansatte, slik at disse forankres i </tspan><tspan y="-685.07919" x="70.8661 75.9322 80.6212 82.6732 87.31451 89.5015 94.106807 98.79581 100.78841 105.38741 109.85231 114.71231 119.80721 124.48451 127.47431">hele selskapet.</tspan></text>
<g id="Layer-1" data-name="Artifact">
<clipPath id="cp677">
<path transform="matrix(1,0,0,-1,0,841.89)" d="M 0 0 L 595.276 0 L 595.276 841.89 L 0 841.89 Z "/>
</clipPath>
<g clip-path="url(#cp677)">
<filter id="blend_3"><feBlend mode="overlay" in2="BackgroundImage" in="SourceGraphic"/></filter>
<g filter="url(#blend_3)">
<clipPath id="cp678">
<path transform="matrix(1,0,0,-1,0,841.89)" d="M 69.8661 649.156 L 525.409 649.156 L 525.409 651.656 L 69.8661 651.656 Z "/>
</clipPath>
<g clip-path="url(#cp678)">
<path transform="matrix(1,0,0,-1,70.8661,191.48389)" stroke-width=".5" stroke-linecap="butt" stroke-miterlimit="4" stroke-linejoin="miter" fill="none" stroke="#b9bbbd" d="M 0 0 L 453.543 0 "/>
</g>
</g>
</g>
<g id="Layer-1" data-name="Span">
</g>
<text fill="#404041" xml:space="preserve" transform="matrix(1 0 -0 1 0 841.89)" font-size="9" font-family="Roboto"><tspan y="-579.9608" x="70.8661 73.2709 78.3082 83.3842 88.0894 93.0304 95.2174 103.2688 105.278499 109.8937 112.8403 117.6985 122.7349 127.0027 131.7088 134.7328 136.9198 141.6403 143.64911 145.73082 150.43692 153.46092 155.64792 160.79141 165.49662 170.04611 173.05841 177.71141 180.89832 183.64693 188.37194 193.43894 198.09194 200.27893 205.32613 210.03133 215.07762 220.14463 224.81653 226.82624 231.43244 236.13764 239.16164 241.34864 246.14205 250.47104 252.65804 257.00593 262.08644 265.2607 268.444 273.4822 278.4682 283.0456 285.1885 290.26814 295.36305">Ingen mistanker eller bekreftede hendelser av korrupsjon.</tspan></text>
</g>
<g id="Layer-1" data-name="Span">
</g>
<text fill="#00578c" xml:space="preserve" transform="matrix(1 0 -0 1 0 841.89)" font-size="15" font-family="Roboto"><tspan y="-604.483" x="70.8661 79.25559 87.63459 96.04509 102.21909 110.73909 114.47409 124.12209 132.06159 140.04009 145.18808 153.02259 158.42259 163.3156 171.2356 179.7256 187.5706 191.3056 198.84311 207.35112 212.65662 217.97711 226.49712 234.92412 242.56662 246.47562 254.99112 263.4046 271.2046 279.6811 287.62959 296.15406 304.64405 312.53407 316.31407 324.04356 331.98457 337.24958 340.98457 349.47456 357.96455 361.69953 365.54255 372.87605 380.81706 386.12107 393.75306 401.51704 409.59455 414.96305 419.85606 427.70106 431.43605 436.46705 440.25007 444.08708 449.19908 457.37409 465.2191 468.95408">205-3 Bekreftede korrupsjonshendelser og iverksatte tiltak  </tspan></text>
<g id="Layer-1" data-name="Artifact">
<clipPath id="cp679">
<path transform="matrix(1,0,0,-1,0,841.89)" d="M 0 0 L 595.276 0 L 595.276 841.89 L 0 841.89 Z "/>
</clipPath>
<g clip-path="url(#cp679)">
<g filter="url(#blend_3)">
<clipPath id="cp680">
<path transform="matrix(1,0,0,-1,0,841.89)" d="M 69.8661 544.038 L 525.409 544.038 L 525.409 546.538 L 69.8661 546.538 Z "/>
</clipPath>
<g clip-path="url(#cp680)">
<path transform="matrix(1,0,0,-1,70.8661,296.6023)" stroke-width=".5" stroke-linecap="butt" stroke-miterlimit="4" stroke-linejoin="miter" fill="none" stroke="#b9bbbd" d="M 0 0 L 453.543 0 "/>
</g>
</g>
</g>
<g id="Layer-1" data-name="Span">
</g>
<text fill="#404041" xml:space="preserve" transform="matrix(1 0 -0 1 0 841.89)" font-size="7" font-family="Roboto"><tspan y="-29.016" x="431.4558 436.42094 440.80854 445.76176 450.86125 455.81517 462.02626 464.12278 468.5818 473.2851 477.161 478.90403 481.04466 486.13365 490.93495 493.07557 497.96717 502.14616 506.37135 511.32456 515.93057 519.95907">&#x00d8;KONOMISKE INDIKATORER</tspan></text>
</g>
<g id="Layer-1" data-name="Span">
</g>
<text fill="#404041" xml:space="preserve" transform="matrix(1 0 -0 1 0 841.89)" font-size="8" font-family="Roboto" font-weight="bold"><tspan y="-44.7402" x="515.2297 519.82168">69</tspan></text>
<g id="Layer-1" data-name="Artifact">
<clipPath id="cp681">
<path transform="matrix(1,0,0,-1,0,841.89)" d="M 0 0 L 595.276 0 L 595.276 841.89 L 0 841.89 Z "/>
</clipPath>
<g clip-path="url(#cp681)">
<path transform="matrix(1,0,0,-1,524.4094,802.3869)" stroke-width=".5" stroke-linecap="butt" stroke-miterlimit="4" stroke-linejoin="miter" fill="none" stroke="#404041" d="M 0 0 L -1048.819 0 "/>
</g>
<g id="Layer-1" data-name="Artifact">
<path transform="matrix(1,0,0,-1,-524.4094,39.3869)" stroke-width=".5" stroke-linecap="butt" stroke-miterlimit="4" stroke-linejoin="miter" fill="none" stroke="#404041" d="M 0 0 L 1048.819 0 "/>
</g>
</g>
</g>
</g>
</svg>
