<?xml version="1.0" encoding="UTF-8" standalone="no"?>
<!DOCTYPE svg PUBLIC "-//W3C//DTD SVG 1.1//EN" "http://www.w3.org/Graphics/SVG/1.1/DTD/svg11.dtd">
<svg xmlns="http://www.w3.org/2000/svg" xmlns:xlink="http://www.w3.org/1999/xlink" version="1.1" width="595.276pt" height="841.89pt" viewBox="0 0 595.276 841.89">
<g enable-background="new">
<g id="Layer-1" data-name="Span">
</g>
<g id="Layer-1" data-name="Span">
</g>
<g id="Layer-1" data-name="Span">
</g>
<g id="Layer-1" data-name="Span">
</g>
<g id="Layer-1" data-name="Span">
</g>
<g id="Layer-1" data-name="Span">
</g>
<g id="Layer-1" data-name="Span">
</g>
<g id="Layer-1" data-name="Span">
</g>
<g id="Layer-1" data-name="Span">
</g>
<g id="Layer-1" data-name="Span">
</g>
<g id="Layer-1" data-name="Span">
</g>
<g id="Layer-1" data-name="Span">
</g>
<g id="Layer-1" data-name="Span">
</g>
<g id="Layer-1" data-name="Span">
</g>
<g id="Layer-1" data-name="Span">
</g>
<g id="Layer-1" data-name="Span">
</g>
<g id="Layer-1" data-name="Span">
</g>
<text fill="#404041" xml:space="preserve" transform="matrix(1 0 -0 1 0 841.89)" font-size="9" font-family="Roboto"><tspan y="-218.1949" x="70.9118 76.581798 81.3797 86.6087 91.83771 96.54831 98.861309">Scope 1</tspan></text>
<text fill="#404041" xml:space="preserve" transform="matrix(1 0 -0 1 0 841.89)" font-size="9" font-family="Roboto"><tspan y="-218.1949" x="103.9778 106.23679 108.25279 113.31619 118.37869 123.08389 128.11849 136.03578 139.04808 143.75418 146.77819 149.08219 154.15009 158.80309 161.04409 166.04808 168.06409 171.1034 175.8086 180.5345 183.28401 187.93701 190.17801 195.2801 198.16912 202.73482 204.74452 206.76053 211.84102 216.93503 221.64023 226.70273 231.35573 233.59673 238.20563 243.29512 251.26912 253.52812 258.1343 262.80534 264.81593 269.41493 273.87983 278.73805 283.83293 288.51023 291.39924 293.66725 298.68925 303.54747 306.17274 308.32374 310.58274 312.97676 315.28077 320.38288 323.31599 326.32829 331.04429 336.0879 341.0955 343.11149 348.17579 353.2509 357.957 362.898 365.22904 369.93424 372.95823 375.26225 380.32923 385.00746 388.16737 390.91596 395.56898 397.80998 402.81398 404.89476 409.54777 414.15217 418.82499 420.95527 422.67427 424.93327 430.02815 434.73335 439.71577 444.28144 446.29743 451.23844 453.59645 458.69136 463.68635 465.96336 470.99345 473.08775 478.17277 483.17677 485.25755 489.91056 494.51585 499.18775 501.20375 503.48976 508.54234 511.72563 516.7647 521.4906 524.3796"> inneb&#x00e6;rer de direkte utslippene som selskapet har. I utregningen er dette diesel, bensin og biodiesel brukt </tspan><tspan y="-204.1909" x="70.9118 75.96349 80.78749 82.914188 87.96588 92.76108 95.510578 100.216678 102.86718 104.58618 106.70118 109.79449 111.810489 116.63448 119.38398 124.08918 127.11318 129.2732 134.36719 139.36219 141.49158 146.52257 148.53137 150.61309 155.31829 157.94359 160.09459 162.20508 164.59908 166.75098 171.85398 174.78618 177.79938 182.51538 187.55808 192.56658 194.58258 199.64778 204.72287 209.42807 214.36907 216.55066 219.50267 222.52667 227.35068 229.52147 231.53118 233.63628 236.38579 241.09099 244.11499 246.275 249.1784 251.18721 253.20322 255.34252 259.6193 264.6143 266.741 272.6297">p&#x00e5; b&#x00e5;ter, fl&#x00e5;ter og biler. I utregningen fra liter til kg CO</tspan></text>
<text fill="#404041" xml:space="preserve" transform="matrix(1 0 -0 1 0 841.89)" font-size="5.247" font-family="Roboto"><tspan y="-201.1979" x="278.7455">2</tspan></text>
<text fill="#404041" xml:space="preserve" transform="matrix(1 0 -0 1 0 841.89)" font-size="9" font-family="Roboto"><tspan y="-204.1949" x="281.6534 283.76573 288.47093 291.4949 293.6549 296.4494 301.50923 303.5639 308.639 313.3442 318.3905 323.4575 328.1105 330.20393 333.0497 337.90794 342.63383 345.38783 350.46745 353.48063 358.18583 361.2098 363.3698 368.4224 371.60569 376.6448 381.3707 384.35963 386.24964 388.37907 394.49815 396.57893 401.23194 405.8381 410.50914 412.52513 414.66444 419.81874 421.5602 426.8639 431.99659 433.71559 435.83149 440.92549 445.6316 450.614 455.1797 457.19569 462.1367 464.3453 469.4996 471.4076 476.5529 481.53169 483.25068 485.3657 490.4606 495.4556 497.5823 502.6124 504.70579 509.62159 512.5826 517.65408 522.326 524.342"> er f&#x00f8;lgende faktorer brukt: Diesel 2,64, bensin 2,39, og biofuel </tspan><tspan y="-190.1909" x="70.90941 76.063709 77.800708 83.1044 88.198398">2,64.</tspan></text>
<text fill="#404041" xml:space="preserve" transform="matrix(1 0 -0 1 0 841.89)" font-size="9" font-family="Roboto"><tspan y="-162.1919" x="70.90941 76.57941 81.37731 86.60631 91.83531 96.54591 99.236919">Scope 2</tspan></text>
<text fill="#404041" xml:space="preserve" transform="matrix(1 0 -0 1 0 841.89)" font-size="9" font-family="Roboto"><tspan y="-162.1919" x="104.35341 106.98141 108.997409 114.06171 119.12331 123.82941 128.8631 136.7804 139.7936 144.4988 147.5228 150.19579 155.26369 159.91669 162.52669 164.5427 169.61598 174.61998 176.63599 179.6753 184.3805 189.1064 191.85591 196.50891 199.11891 204.22191 207.11092 211.67572 213.68543 215.70143 220.78194 225.87595 230.58205 235.64365 240.29665 242.90665 247.51645 252.60504 260.57905 263.20707 267.47938 272.568 280.5816 288.6168 293.322 296.34599 299.01899 303.36329 308.0874 313.0914 315.72843 320.3427 323.27583 326.2998 331.3902 339.3966 344.4492 347.47319 352.5582 357.5919 362.6301 367.0302 371.5842 373.728 378.80763 383.90165 386.05265 388.68067 391.07469 393.7432 398.8075 403.9141 408.9784 413.9644 416.5924 421.6225 423.70329 428.3563 430.9663 436.0333 440.71153 443.60054 446.23756 451.29106 454.47434 459.51167 464.23847 467.12748 469.76359 474.11958 479.14067 484.12666 486.75468 491.86128 496.83106 501.81706 504.44508 509.03059 517.136 522.23538 524.38638"> inneb&#x00e6;rer de indirekte utslippene som kommer ved str&#x00f8;mproduksjon. I 2020 ble det brukt 159 027 kWh. </tspan><tspan y="-148.1879" x="70.90941 77.06181 81.74001 84.89991 87.648509 92.301509 94.4885 99.49071 104.34891 107.37291 109.559909 114.314609 119.25561 121.442607 126.61581 129.5048 134.06961 136.07932 138.09532 143.17583 148.16184 152.75634 155.60214 160.46035 165.18625 167.94026 173.01985 176.04386 178.23085 183.33206 188.15607 190.34307 195.39658 197.26677 202.60018 207.58618 209.77318 214.38568 219.47518 227.44918 229.63617 234.74907 240.93747 244.81018 252.79048 254.80649 259.23359 263.89826">Dette har en utslippsfaktor p&#x00e5; 0,48 som EU-miks.</tspan></text>
<text fill="#404041" xml:space="preserve" transform="matrix(1 0 -0 1 0 841.89)" font-size="9" font-family="Roboto"><tspan y="-120.188899" x="70.90941 76.57941 81.37731 86.60631 91.83531 96.54591 98.800418">Scope 3</tspan></text>
<text fill="#404041" xml:space="preserve" transform="matrix(1 0 -0 1 0 841.89)" font-size="9" font-family="Roboto"><tspan y="-120.188899" x="103.92141 106.12641 110.83161 113.90421 116.109218 120.78021 125.37741 128.28441 130.33371 138.36891 143.07411 146.50131 149.3975 151.60251 155.94951 160.67362 165.68392 167.88892 172.73091 174.93592 179.98851 183.17182 188.21 192.4787 197.1101 199.31511 204.6692 212.6783 218.8829 224.31439 226.5194 231.0851 233.1263 238.1357 240.3407 243.1865 248.02849 252.77239 255.52639 260.606 263.67768 265.88267 270.93528 275.77729 277.98228 283.87098"> er estimert ved &#x00e5; bruke EWOS sin faktor p&#x00e5; CO</tspan></text>
<text fill="#404041" xml:space="preserve" transform="matrix(1 0 -0 1 0 841.89)" font-size="5.247" font-family="Roboto"><tspan y="-117.1979" x="289.9419">2</tspan></text>
<text fill="#404041" xml:space="preserve" transform="matrix(1 0 -0 1 0 841.89)" font-size="9" font-family="Roboto"><tspan y="-120.1949" x="292.8498 295.0512 300.15333 303.04234 307.608 309.6168 311.63279 316.71238 321.69837 323.92408 329.01808 333.72419 336.74818 338.99729 343.2732 348.2682 350.484 353.2785 358.359 361.383 363.6321 368.6847 371.70869 376.7946 381.8274 386.7684 391.44569 396.1518 399.57899 402.468 404.6766 409.7706 414.7656 416.9823 419.06309 423.7071 428.0505 432.75663 436.1838 439.1736 441.32463 443.52333 445.91734 448.15925 453.22355 458.33015 463.39445 468.38044 470.58366 472.66535 477.30848 481.65278 486.3589 489.78608 492.53468 497.18769 499.3684 504.72163 512.7308 518.9363 524.2643"> utslipp per kg f&#x00f4;r produsert og levert. I 2020 leverte EWOS </tspan><tspan y="-106.1909" x="70.90979 75.89579 78.55259 83.74919 88.745098 93.731098 96.388797 99.14279 104.22239 109.25879 114.19979 116.92409 119.71859 124.79819 127.82219 130.52579 138.56009 143.2851 148.2891 150.9495 155.6556 160.59659 163.32088 169.20958">6 837 tonn f&#x00f4;r med en CO</tspan></text>
<text fill="#404041" xml:space="preserve" transform="matrix(1 0 -0 1 0 841.89)" font-size="5.247" font-family="Roboto"><tspan y="-103.1979" x="175.3364">2</tspan></text>
<text fill="#404041" xml:space="preserve" transform="matrix(1 0 -0 1 0 841.89)" font-size="9" font-family="Roboto"><tspan y="-106.1949" x="178.2443 180.89929 183.7451 188.6033 193.32921 196.08322 201.16281 204.18682 206.88681 211.9385 216.76251 219.4355 224.58982 225.75801 230.20673 235.17562 237.32662 239.98162 244.86592 247.88993 252.71393 255.43193 260.49626 265.30406 269.74375 274.72975 277.38475 280.28816 282.29786 284.31385 286.99586 292.06105 296.86885 301.31755 306.30354 308.95854 313.66374 316.6877 319.38774 324.4547 329.13294 332.02195 334.68595 339.16795 344.20616 349.14717 351.87419 354.82078 359.64479 361.65357 363.66957 366.35157 371.40415 376.22816 378.90116 381.65516 386.59526 389.54185 394.36585 396.38185 399.06385 407.09815 411.80335 416.84156 421.89866 426.96656 431.61958 434.2566 437.0502 442.1307 445.1547 447.8547 449.9364 454.57954 458.92384 463.62904 467.0562 470.09733 471.8163 474.4713 479.0802 484.1697 492.1437 494.7987 499.50483 502.5288 505.22883 507.36003 512.0031 516.4977 521.46298 524.3519"> faktor p&#x00e5; 2,19. Fra 2016 til 2019 er det kun tall p&#x00e5; total mengde f&#x00f4;r levert, som er jevnt </tspan><tspan y="-92.1909" x="70.91029 73.704799 78.78439 81.808399 86.8763 91.547298 93.65329 96.54229 98.72929 106.77258 111.44358 113.45238 115.54668 120.63528 128.60929 130.79628 135.86779 140.52079 142.70778 145.68679 147.59659 150.60889 155.26189 157.44889 162.2873 165.29959 170.00569 175.06729 179.6879">fordelt mellom de fire &#x00e5;rene.</tspan></text>
<path transform="matrix(1,0,0,-1,0,841.89)" d="M 70.866 549.071 L 201.701 549.071 L 201.701 529.523 L 70.866 529.523 Z M 201.701 549.071 L 266.20503 549.071 L 266.20503 529.523 L 201.701 529.523 Z M 266.205 549.071 L 330.70899 549.071 L 330.70899 529.523 L 266.205 529.523 Z M 330.71 549.071 L 395.214 549.071 L 395.214 529.523 L 330.71 529.523 Z M 395.214 549.071 L 459.718 549.071 L 459.718 529.523 L 395.214 529.523 Z M 459.718 549.071 L 524.222 549.071 L 524.222 529.523 L 459.718 529.523 Z M 70.866 529.523 L 201.701 529.523 L 201.701 512.545 L 70.866 512.545 Z M 201.701 529.523 L 266.20503 529.523 L 266.20503 512.545 L 201.701 512.545 Z M 266.205 529.523 L 330.70899 529.523 L 330.70899 512.545 L 266.205 512.545 Z M 330.71 529.523 L 395.214 529.523 L 395.214 512.545 L 330.71 512.545 Z M 395.214 529.523 L 459.718 529.523 L 459.718 512.545 L 395.214 512.545 Z M 459.718 529.523 L 524.222 529.523 L 524.222 512.545 L 459.718 512.545 Z M 70.866 512.544 L 201.701 512.544 L 201.701 496.066 L 70.866 496.066 Z M 201.701 512.544 L 266.20503 512.544 L 266.20503 496.066 L 201.701 496.066 Z M 266.205 512.544 L 330.70899 512.544 L 330.70899 496.066 L 266.205 496.066 Z M 330.71 512.544 L 395.214 512.544 L 395.214 496.066 L 330.71 496.066 Z M 395.214 512.544 L 459.718 512.544 L 459.718 496.066 L 395.214 496.066 Z M 459.718 512.544 L 524.222 512.544 L 524.222 496.066 L 459.718 496.066 Z M 70.866 496.066 L 201.701 496.066 L 201.701 479.588 L 70.866 479.588 Z M 201.701 496.066 L 266.20503 496.066 L 266.20503 479.588 L 201.701 479.588 Z M 266.205 496.066 L 330.70899 496.066 L 330.70899 479.588 L 266.205 479.588 Z M 330.71 496.066 L 395.214 496.066 L 395.214 479.588 L 330.71 479.588 Z M 395.214 496.066 L 459.718 496.066 L 459.718 479.588 L 395.214 479.588 Z M 459.718 496.066 L 524.222 496.066 L 524.222 479.588 L 459.718 479.588 Z M 70.866 479.588 L 201.701 479.588 L 201.701 463.11003 L 70.866 463.11003 Z M 201.701 479.588 L 266.20503 479.588 L 266.20503 463.11003 L 201.701 463.11003 Z M 266.205 479.588 L 330.70899 479.588 L 330.70899 463.11003 L 266.205 463.11003 Z M 330.71 479.588 L 395.214 479.588 L 395.214 463.11003 L 330.71 463.11003 Z M 395.214 479.588 L 459.718 479.588 L 459.718 463.11003 L 395.214 463.11003 Z M 459.718 479.588 L 524.222 479.588 L 524.222 463.11003 L 459.718 463.11003 Z " fill="#f1f7e8"/>
<path transform="matrix(1,0,0,-1,70.8661,312.3672)" stroke-width="1" stroke-linecap="butt" stroke-miterlimit="10" stroke-linejoin="miter" fill="none" stroke="#231f20" d="M 0 0 L 130.835 0 "/>
<path transform="matrix(1,0,0,-1,201.7011,312.3672)" stroke-width="1" stroke-linecap="butt" stroke-miterlimit="10" stroke-linejoin="miter" fill="none" stroke="#231f20" d="M 0 0 L 64.504 0 "/>
<path transform="matrix(1,0,0,-1,266.2054,312.3672)" stroke-width="1" stroke-linecap="butt" stroke-miterlimit="10" stroke-linejoin="miter" fill="none" stroke="#231f20" d="M 0 0 L 64.504 0 "/>
<path transform="matrix(1,0,0,-1,330.7098,312.3672)" stroke-width="1" stroke-linecap="butt" stroke-miterlimit="10" stroke-linejoin="miter" fill="none" stroke="#231f20" d="M 0 0 L 64.504 0 "/>
<path transform="matrix(1,0,0,-1,395.2141,312.3672)" stroke-width="1" stroke-linecap="butt" stroke-miterlimit="10" stroke-linejoin="miter" fill="none" stroke="#231f20" d="M 0 0 L 64.504 0 "/>
<path transform="matrix(1,0,0,-1,459.7184,312.3672)" stroke-width="1" stroke-linecap="butt" stroke-miterlimit="10" stroke-linejoin="miter" fill="none" stroke="#231f20" d="M 0 0 L 64.504 0 "/>
<path transform="matrix(1,0,0,-1,70.8661,362.30253)" stroke-width="1" stroke-linecap="butt" stroke-miterlimit="10" stroke-linejoin="miter" fill="none" stroke="#404041" d="M 0 0 L 130.835 0 "/>
<path transform="matrix(1,0,0,-1,201.7011,362.30253)" stroke-width="1" stroke-linecap="butt" stroke-miterlimit="10" stroke-linejoin="miter" fill="none" stroke="#404041" d="M 0 0 L 64.504 0 "/>
<path transform="matrix(1,0,0,-1,266.2054,362.30253)" stroke-width="1" stroke-linecap="butt" stroke-miterlimit="10" stroke-linejoin="miter" fill="none" stroke="#404041" d="M 0 0 L 64.504 0 "/>
<path transform="matrix(1,0,0,-1,330.7098,362.30253)" stroke-width="1" stroke-linecap="butt" stroke-miterlimit="10" stroke-linejoin="miter" fill="none" stroke="#404041" d="M 0 0 L 64.504 0 "/>
<path transform="matrix(1,0,0,-1,395.2141,362.30253)" stroke-width="1" stroke-linecap="butt" stroke-miterlimit="10" stroke-linejoin="miter" fill="none" stroke="#404041" d="M 0 0 L 64.504 0 "/>
<path transform="matrix(1,0,0,-1,459.7184,362.30253)" stroke-width="1" stroke-linecap="butt" stroke-miterlimit="10" stroke-linejoin="miter" fill="none" stroke="#404041" d="M 0 0 L 64.504 0 "/>
<g id="Layer-1" data-name="Span">
</g>
<g id="Layer-1" data-name="Span">
</g>
<g id="Layer-1" data-name="Span">
</g>
<g id="Layer-1" data-name="Span">
</g>
<g id="Layer-1" data-name="Span">
</g>
<g id="Layer-1" data-name="Span">
</g>
<g id="Layer-1" data-name="Span">
</g>
<g id="Layer-1" data-name="Span">
</g>
<g id="Layer-1" data-name="Span">
<text fill="#404041" xml:space="preserve" transform="matrix(1 0 -0 1 0 841.89)" font-size="9" font-family="Roboto"><tspan y="-535.9218" x="74.8661 80.8241">CO</tspan></text>
<text fill="#404041" xml:space="preserve" transform="matrix(1 0 -0 1 0 841.89)" font-size="5.247" font-family="Roboto"><tspan y="-532.9248" x="86.8799">2</tspan></text>
<text fill="#404041" xml:space="preserve" transform="matrix(1 0 -0 1 0 841.89)" font-size="9" font-family="Roboto"><tspan y="-535.9218" x="89.8104 93.6822 98.7852 101.6742 106.23991 108.2496 110.2656 115.3461 120.3321 122.5191 125.225399 127.97849 133.05899 138.09539 142.78978">-utslipp (tonn)</tspan></text>
<text fill="#404041" xml:space="preserve" transform="matrix(1 0 -0 1 0 841.89)" font-size="12" font-family="Roboto" font-weight="bold"><tspan y="-534.7968" x="234.6664 241.5544 248.4424 255.3304 299.16639 306.05439 312.94239 319.83039 363.66639 370.55439 377.44239 384.33039 428.16639 435.05439 441.94239 448.83039 492.66639 499.55439 506.44239 513.3304">20162017201820192020</tspan></text>
</g>
<g id="Layer-1" data-name="Span">
</g>
<g id="Layer-1" data-name="Span">
<text fill="#231f20" xml:space="preserve" transform="matrix(1 0 -0 1 0 841.89)" font-size="9" font-family="Roboto"><tspan y="-517.4086" x="74.8661 80.9843 83.0363 87.7163 92.3216 97.010608 247.05411 252.07611 257.2214">Diesel599</tspan></text>
</g>
<g id="Layer-1" data-name="Span">
</g>
<g id="Layer-1" data-name="Span">
</g>
<g id="Layer-1" data-name="Span">
</g>
<g id="Layer-1" data-name="Span">
<text fill="#2b3b52" xml:space="preserve" transform="matrix(1 0 -0 1 0 841.89)" font-size="9" font-family="Roboto"><tspan y="-517.4086" x="311.32313 316.53233 321.7253 376.21315 381.10914 386.22834 440.67115 445.85874 450.72773 505.00315 510.13584 515.22988">583522947665</tspan></text>
</g>
<g id="Layer-1" data-name="Span">
</g>
<g id="Layer-1" data-name="Span">
</g>
<g id="Layer-1" data-name="Span">
</g>
<g id="Layer-1" data-name="Span">
</g>
<g id="Layer-1" data-name="Span">
</g>
<g id="Layer-1" data-name="Span">
</g>
<g id="Layer-1" data-name="Span">
</g>
<g id="Layer-1" data-name="Span">
</g>
<g id="Layer-1" data-name="Span">
</g>
<g id="Layer-1" data-name="Span">
</g>
<g id="Layer-1" data-name="Span">
</g>
<g id="Layer-1" data-name="Span">
</g>
<g id="Layer-1" data-name="Span">
</g>
<g id="Layer-1" data-name="Span">
</g>
<g id="Layer-1" data-name="Span">
</g>
<g id="Layer-1" data-name="Span">
</g>
<g id="Layer-1" data-name="Span">
</g>
<text fill="#231f20" xml:space="preserve" transform="matrix(1 0 -0 1 0 841.89)" font-size="9" font-family="Roboto"><tspan y="-500.92964" x="74.86615 80.60905 85.31515 90.22915 94.86685 96.90715 252.81415 257.22056 317.37117 321.72715 381.16316 386.23014 445.80116 450.73316 510.12416 515.23617">Bensin1315202529</tspan><tspan y="-484.45063" x="74.86615 80.506458 82.59985 87.51565 90.47665 95.54814 100.21915 257.21516 321.71815 376.13215 381.19197 386.22297 450.72416 515.2272">Biofuel0032300</tspan></text>
<text fill="#231f20" xml:space="preserve" transform="matrix(1 0 -0 1 0 841.89)" font-size="9" font-family="Roboto"><tspan y="-467.97163" x="74.85718 79.54167 84.68697 87.88017 92.872478 95.300678 98.37868 100.619678 105.85318 109.013088 113.77589 116.174388 118.60889 123.85139 128.94539 131.18639 135.95999 140.75789 145.98778 151.21947 155.92647 158.16747 247.67517 252.51088 257.0829 311.25117 316.36857 321.59126 375.69117 381.02635 386.09333 440.30216 445.41957 450.59547 504.66117 509.80918 515.0967">Totalt utslipp scope 1612598542972694</tspan></text>
<path transform="matrix(1,0,0,-1,0,841.89)" d="M 70.866 428.94 L 201.701 428.94 L 201.701 412.925 L 70.866 412.925 Z M 201.701 428.94 L 266.20503 428.94 L 266.20503 412.925 L 201.701 412.925 Z M 266.205 428.94 L 330.70899 428.94 L 330.70899 412.925 L 266.205 412.925 Z M 330.71 428.94 L 395.214 428.94 L 395.214 412.925 L 330.71 412.925 Z M 395.214 428.94 L 459.718 428.94 L 459.718 412.925 L 395.214 412.925 Z M 459.718 428.94 L 524.222 428.94 L 524.222 412.925 L 459.718 412.925 Z M 70.866 412.925 L 201.701 412.925 L 201.701 396.447 L 70.866 396.447 Z M 201.701 412.925 L 266.20503 412.925 L 266.20503 396.447 L 201.701 396.447 Z M 266.205 412.925 L 330.70899 412.925 L 330.70899 396.447 L 266.205 396.447 Z M 330.71 412.925 L 395.214 412.925 L 395.214 396.447 L 330.71 396.447 Z M 395.214 412.925 L 459.718 412.925 L 459.718 396.447 L 395.214 396.447 Z M 459.718 412.925 L 524.222 412.925 L 524.222 396.447 L 459.718 396.447 Z " fill="#f1f7e8"/>
<path transform="matrix(1,0,0,-1,70.8661,445.4429)" stroke-width="1" stroke-linecap="butt" stroke-miterlimit="10" stroke-linejoin="miter" fill="none" stroke="#404041" d="M 0 0 L 130.835 0 "/>
<path transform="matrix(1,0,0,-1,201.7011,445.4429)" stroke-width="1" stroke-linecap="butt" stroke-miterlimit="10" stroke-linejoin="miter" fill="none" stroke="#404041" d="M 0 0 L 64.504 0 "/>
<path transform="matrix(1,0,0,-1,266.2054,445.4429)" stroke-width="1" stroke-linecap="butt" stroke-miterlimit="10" stroke-linejoin="miter" fill="none" stroke="#404041" d="M 0 0 L 64.504 0 "/>
<path transform="matrix(1,0,0,-1,330.7098,445.4429)" stroke-width="1" stroke-linecap="butt" stroke-miterlimit="10" stroke-linejoin="miter" fill="none" stroke="#404041" d="M 0 0 L 64.504 0 "/>
<path transform="matrix(1,0,0,-1,395.2141,445.4429)" stroke-width="1" stroke-linecap="butt" stroke-miterlimit="10" stroke-linejoin="miter" fill="none" stroke="#404041" d="M 0 0 L 64.504 0 "/>
<path transform="matrix(1,0,0,-1,459.7184,445.4429)" stroke-width="1" stroke-linecap="butt" stroke-miterlimit="10" stroke-linejoin="miter" fill="none" stroke="#404041" d="M 0 0 L 64.504 0 "/>
<g id="Layer-1" data-name="Span">
</g>
<g id="Layer-1" data-name="Span">
</g>
<g id="Layer-1" data-name="Span">
<text fill="#231f20" xml:space="preserve" transform="matrix(1 0 -0 1 0 841.89)" font-size="9" font-family="Roboto"><tspan y="-417.558" x="74.8661 79.9025 81.98329 86.70829 91.41619 94.34929 97.44529 99.500888 104.06568 106.17168 108.92117 113.59847 252.0311 257.2151">Elektrisitet80</tspan></text>
</g>
<g id="Layer-1" data-name="Span">
</g>
<g id="Layer-1" data-name="Span">
</g>
<g id="Layer-1" data-name="Span">
</g>
<g id="Layer-1" data-name="Span">
<text fill="#2b3b52" xml:space="preserve" transform="matrix(1 0 -0 1 0 841.89)" font-size="9" font-family="Roboto"><tspan y="-417.558" x="312.0251 316.8491 321.7208 381.22608 386.22108 440.36509 445.5185 450.7232 510.38508 515.22708">2473730976</tspan></text>
</g>
<g id="Layer-1" data-name="Span">
</g>
<g id="Layer-1" data-name="Span">
<text fill="#231f20" xml:space="preserve" transform="matrix(1 0 -0 1 0 841.89)" font-size="9" font-family="Roboto"><tspan y="-401.31303" x="74.857089 79.54609 84.48619 87.43279 92.25679 94.36189 97.25089 99.43789 104.54899 107.43799 112.00369 114.01249 116.02849 121.108089 126.094089 128.28108 132.90799 137.62398 142.70447 147.79846 152.45146 154.63846 252.02208 257.2061">Totalt utslipp scope 280</tspan></text>
</g>
<g id="Layer-1" data-name="Span">
</g>
<g id="Layer-1" data-name="Span">
</g>
<g id="Layer-1" data-name="Span">
</g>
<text fill="#2b3b52" xml:space="preserve" transform="matrix(1 0 -0 1 0 841.89)" font-size="9" font-family="Roboto"><tspan y="-401.31303" x="312.01609 316.8401 321.7118 381.2171 386.2121 440.3561 445.50953 450.71424 510.3761 515.2181">2473730976</tspan></text>
<path transform="matrix(1,0,0,-1,0,841.89)" d="M 70.866 345.216 L 221.811 345.216 L 221.811 325.668 L 70.866 325.668 Z M 221.811 345.216 L 265.74803 345.216 L 265.74803 325.668 L 221.811 325.668 Z M 265.748 345.216 L 330.236 345.216 L 330.236 325.668 L 265.748 325.668 Z M 330.236 345.216 L 395.43299 345.216 L 395.43299 325.668 L 330.236 325.668 Z M 395.433 345.216 L 459.213 345.216 L 459.213 325.668 L 395.433 325.668 Z M 459.213 345.216 L 524.223 345.216 L 524.223 325.668 L 459.213 325.668 Z M 70.866 325.668 L 221.811 325.668 L 221.811 307.57 L 70.866 307.57 Z M 221.811 325.668 L 265.74803 325.668 L 265.74803 307.57 L 221.811 307.57 Z M 265.748 325.668 L 330.236 325.668 L 330.236 307.57 L 265.748 307.57 Z M 330.236 325.668 L 395.43299 325.668 L 395.43299 307.57 L 330.236 307.57 Z M 395.433 325.668 L 459.213 325.668 L 459.213 307.57 L 395.433 307.57 Z M 459.213 325.668 L 524.223 325.668 L 524.223 307.57 L 459.213 307.57 Z " fill="#f1f7e8"/>
<path transform="matrix(1,0,0,-1,70.8661,516.2217)" stroke-width="1" stroke-linecap="butt" stroke-miterlimit="10" stroke-linejoin="miter" fill="none" stroke="#231f20" d="M 0 0 L 150.945 0 "/>
<path transform="matrix(1,0,0,-1,221.811,516.2217)" stroke-width="1" stroke-linecap="butt" stroke-miterlimit="10" stroke-linejoin="miter" fill="none" stroke="#231f20" d="M 0 0 L 43.937 0 "/>
<path transform="matrix(1,0,0,-1,265.748,516.2217)" stroke-width="1" stroke-linecap="butt" stroke-miterlimit="10" stroke-linejoin="miter" fill="none" stroke="#231f20" d="M 0 0 L 64.488 0 "/>
<path transform="matrix(1,0,0,-1,330.2362,516.2217)" stroke-width="1" stroke-linecap="butt" stroke-miterlimit="10" stroke-linejoin="miter" fill="none" stroke="#231f20" d="M 0 0 L 65.197 0 "/>
<path transform="matrix(1,0,0,-1,395.433,516.2217)" stroke-width="1" stroke-linecap="butt" stroke-miterlimit="10" stroke-linejoin="miter" fill="none" stroke="#231f20" d="M 0 0 L 63.78 0 "/>
<path transform="matrix(1,0,0,-1,459.2126,516.2217)" stroke-width="1" stroke-linecap="butt" stroke-miterlimit="10" stroke-linejoin="miter" fill="none" stroke="#231f20" d="M 0 0 L 65.01 0 "/>
<g id="Layer-1" data-name="Span">
</g>
<g id="Layer-1" data-name="Span">
</g>
<g id="Layer-1" data-name="Span">
</g>
<g id="Layer-1" data-name="Span">
<text fill="#231f20" xml:space="preserve" transform="matrix(1 0 -0 1 0 841.89)" font-size="9" font-family="Roboto"><tspan y="-332.0673" x="74.8661 80.463199 83.4872 88.5731 93.659 95.81 97.996997 102.73999 107.06899 109.25599 112.12339 117.20389 120.22789 122.41489 127.55839 132.55339 134.74039 137.76439 142.57129 146.92459 151.78189 154.79509 159.50029">Prod. av f&#x00f4;r og r&#x00e5;varer</tspan></text>
<text fill="#231f20" xml:space="preserve" transform="matrix(1 0 -0 1 0 841.89)" font-size="9" font-family="Roboto"><tspan y="-312.99629" x="74.8661 79.55059 84.69589 87.88909 92.88139 95.30959 98.387599 100.62859 105.8621 109.022 113.784809 116.183307 118.617809 123.860309 128.9543 131.1953 135.9689 140.7668 145.99669 151.22838 155.93538 158.17638 234.2381 238.8371 243.9518 246.1928 251.38579 256.62739">Totalt utslipp scope 313 796</tspan></text>
</g>
<g id="Layer-1" data-name="Span">
</g>
<g id="Layer-1" data-name="Span">
</g>
<g id="Layer-1" data-name="Span">
</g>
<text fill="#2b3b52" xml:space="preserve" transform="matrix(1 0 -0 1 0 841.89)" font-size="9" font-family="Roboto"><tspan y="-312.99629" x="298.72309 303.32209 308.43678 310.67778 315.87077 321.11238 363.91908 368.51808 373.63276 375.87376 381.06675 386.30836 427.70207 432.30107 437.41575 439.65675 444.84974 450.09135 492.77207 497.45298 502.56498 504.80598 509.92607 515.1029">13 79613 79613 79614 972</tspan></text>
<g id="Layer-1" data-name="Span">
</g>
<g id="Layer-1" data-name="Span">
</g>
<g id="Layer-1" data-name="Span">
</g>
<g id="Layer-1" data-name="Span">
</g>
<g id="Layer-1" data-name="Span">
</g>
<g id="Layer-1" data-name="Span">
</g>
<text fill="#404041" xml:space="preserve" transform="matrix(1 0 -0 1 0 841.89)" font-size="10" font-family="Roboto" font-weight="bold"><tspan y="-440.6009" x="70.8661 77.176097 82.4161 88.1431 93.8891 99.1191 101.6091 107.3491 109.839099 114.1991 116.689098 119.69109 125.43309 131.13509 133.86908 137.43709 142.81308 148.46108 151.87308 157.10308 159.59308 165.34708 168.87007 174.07408 176.76908 179.50307 185.26007">Scope 2 - Indirekte utslipp</tspan><tspan y="-354.28089" x="70.9161 77.2261 82.4661 88.1931 93.9391 99.169109 101.6591 107.3991 109.8891 114.2491 116.7391 119.7411 125.48309 131.18509 133.91909 137.48709 142.86309 148.51108 151.92308 157.15308 159.64308 165.39708 168.92008 174.12409 176.81908 179.55307 185.31008 190.95008 193.44008 198.98108 204.55509 210.01709 213.70009 217.11309 222.47708 225.95708 228.44709 231.93608 234.63108 237.30107 239.79108 245.26609 248.00708 253.75008 259.39009 261.88008 267.16706 272.27705 274.76704 279.806 285.281 288.849 294.226 297.746 300.236 305.97703 311.61705 314.10704 317.55503 320.29704 325.68305 331.41007 336.71009 342.00709 345.4201 350.7961">Scope 3 - Indirekte utslipp knyttet til kj&#x00f8;p av varer og tjenester</tspan><tspan y="-281.1909" x="70.8661 75.9211 81.62109 85.17809 90.62609 93.356098 96.8381 99.3281 105.8261">Totalt CO</tspan></text>
<text fill="#404041" xml:space="preserve" transform="matrix(1 0 -0 1 0 841.89)" font-size="5.83" font-family="Roboto" font-weight="bold"><tspan y="-277.8565" x="112.7913">2</tspan></text>
<text fill="#404041" xml:space="preserve" transform="matrix(1 0 -0 1 0 841.89)" font-size="10" font-family="Roboto" font-weight="bold"><tspan y="-281.1865" x="116.0557 120.4427 126.1967 129.7197 134.9247 137.61969 140.35269 146.1097 151.7497 154.2397 157.7557 163.4837 167.00371 169.49372 174.69773 179.93773 185.66474 191.41074 196.64073 199.13074 204.38774 209.63874 215.35375 220.68775">-utslipp for scope 1+2+3</tspan></text>
<g id="Layer-1" data-name="Span">
</g>
<g id="Layer-1" data-name="Span">
</g>
<g id="Layer-1" data-name="Span">
</g>
<g id="Layer-1" data-name="Span">
</g>
<g id="Layer-1" data-name="Span">
</g>
<g id="Layer-1" data-name="Span">
</g>
<g id="Layer-1" data-name="Span">
</g>
<g id="Layer-1" data-name="Span">
</g>
<g id="Layer-1" data-name="Span">
</g>
<g id="Layer-1" data-name="Span">
</g>
<g id="Layer-1" data-name="Span">
</g>
<g id="Layer-1" data-name="Span">
</g>
<g id="Layer-1" data-name="Span">
</g>
<g id="Layer-1" data-name="Span">
</g>
<g id="Layer-1" data-name="Span">
</g>
<text fill="#404041" xml:space="preserve" transform="matrix(1 0 -0 1 0 841.89)" font-size="24" font-family="Roboto"><tspan y="-745.876" x="70.866 85.698 92.826 104.49 109.602 114.714 127.458">Utslipp</tspan></text>
<text fill="#404041" xml:space="preserve" transform="matrix(1 0 -0 1 0 841.89)" font-size="9" font-family="Roboto"><tspan y="-729.42" x="70.866 76.544 78.56 80.23399 82.24999 83.92399 90.07999 93.10399 97.983989 100.928989 105.78298 110.81698 115.81198 117.82798 122.724979 127.12598 131.67998 133.35398 135.43598 140.14998 145.19599 150.26697 154.96997 157.99398 159.68598 164.03197 168.73497 173.46198 176.35099 178.00698 183.05599 187.87999 189.54499 194.24599 199.30498 204.00798 207.02298 212.01798 214.04398 218.64598 223.69499 228.54999 231.69699 233.713 238.775 243.86499 246.01599 247.663 254.06198 259.024 263.78498 266.67399 268.33 273.032 278.09104 282.79408 285.80906 290.80406 292.87705 295.67405 300.75105 303.92805 308.97804 312.164 317.1979 321.6079 323.26393 331.29994 336.02195 341.02595 342.68196 350.56297 354.92597 359.57899 361.20799 364.00489 369.0449 373.65788 378.22688 380.23588 382.34288 385.23188 386.88789 391.91987 395.06785 397.15983 401.55085 406.16783 408.91984 413.83186 416.99085 419.96986 421.53187 426.52687 428.54286 431.56684 433.30384 437.9208 440.67283 445.74983 448.7648 453.41783 455.0468 459.56883 461.5798 463.62879 471.6208 476.45579 481.49879 486.29978 490.91276 495.48274 500.58073 503.46473 508.03373 510.04273 512.0587 517.1367 522.1337 524.2847">Vi i Gratanglaks legger vekt p&#x00e5; energisparing. H&#x00f8;yt energiforbruk med mye fossilt drivstoff gir store klimagassutslipp. </tspan><tspan y="-716.229" x="70.866 76.824">CO</tspan></text>
<text fill="#404041" xml:space="preserve" transform="matrix(1 0 -0 1 0 841.89)" font-size="5.247" font-family="Roboto"><tspan y="-713.232" x="82.88">2</tspan></text>
<text fill="#404041" xml:space="preserve" transform="matrix(1 0 -0 1 0 841.89)" font-size="9" font-family="Roboto"><tspan y="-716.229" x="85.788997 88.64199 91.65699 96.370998 101.409999 106.468997 111.121997 115.675998 118.55599 123.16799 128.254 136.228 139.081 144.146 148.847 153.788 156.713 164.749 169.402 174.01799 176.907 179.76999 184.594 186.68599 191.04499 196.12097 199.26898 201.27899 203.334 208.406 213.059 215.894 220.416 222.427 224.47602 232.46802 237.30202 242.34601 247.147 251.76001 256.36799 261.07 266.18803 267.907 270.765 275.85603 280.851 283.72203 288.74903 290.81404 295.84403 298.868 303.77104 306.795 309.69303 317.72904 322.38206 326.99806 329.88706 332.74906 335.63807 337.65406 339.67005 342.55006 350.58705 355.28907 360.32307 365.38108 370.0341 374.63609 378.90608 383.55909 388.16108 392.62809 397.4821 402.42408 405.17109 409.8241 412.65913 417.18113 419.1911 421.2411 429.2321 434.0881 438.79115 443.83216 448.86317 452.01115 454.02714 459.08815 464.16114 468.86317 471.49015 473.64115 476.49415 482.65016 485.67414 490.55314 493.49815 498.35316 503.38618 508.38117 510.39717 515.2941 519.6961 524.2501"> regnes som den mest alvorlige klimagassen, og bidrar mest til menneskeskapte klimaendringer. Gratanglaks </tspan><tspan y="-701.42" x="70.86599">A</tspan><tspan y="-701.41958" x="76.53711 81.96311 84.74111 89.75912 94.61411 97.638118 100.46511 103.42011 106.444118 111.26811 114.10411 119.17011 123.98011 128.43112 133.41712 136.19712 141.4281 143.5621 148.2631 153.2971 158.3691 163.4551 171.3281 174.1251 179.2091 182.6381 185.52712 188.3101 192.9851 195.87412 198.65612 203.35811 208.4171 213.1191 216.1331 221.1281 223.1541 227.7561 232.8051 237.6591 240.80712 242.82312 247.88411 252.8791 257.4971 262.54609 265.57008 270.61009 275.16407 277.29808 282.0001 286.7281 289.7671 291.48609 294.27009 298.88307 303.96809 311.94209 314.7241 319.7431 324.5971 327.6211 330.4481 333.2971 338.0881 341.24613 344.13514 346.91816 351.53514 354.28715 359.23115 362.38917 365.13618 369.78919 372.54319 375.4972 378.52119 383.34519 386.1822 391.2492 396.3222 401.2672 405.62223 410.5562 412.7072 415.48023 421.6312 426.30613 429.46424 432.21116 436.86418 439.6172 444.21919 448.6862 453.5102 455.52619 458.3312 463.3572 465.4222 470.4533 473.4773 478.3013 481.1373 484.0263 486.0423 488.0583 490.8633 493.8774 498.59944 503.62934 508.57035 513.24746 517.95046 521.38046 524.2694">S har fra 2019 gjennomf&#x00f8;rt et energisparingsprosjekt, som har f&#x00e5;tt st&#x00f8;tte fra Enova. Dette skal bidra til redusert </tspan><tspan y="-687.41958" x="70.86611 75.569118 80.62811 85.32911 88.34411 93.33911 95.41111 98.209117 103.28612 106.46312 111.51212 114.69813 119.73413 124.39813 126.117137 128.30414 132.66013 137.38114 142.38513 144.57213 149.37014 152.25914 154.44614 158.91913 160.93514 163.12213 167.85613 170.96613 175.58412 178.52913 183.32013 186.47814 189.22515 193.92815 196.95215 199.13915 203.96315 209.07315 214.11315 217.12815 221.84215 226.88515 231.67716 234.45017 239.48017 242.62818 244.68619 247.89319 250.7822 252.9692 257.5892 262.6752 270.6492 272.8362 277.89323 281.0792 286.1142 290.3842 295.08723 298.1112 300.29823 305.30223 307.4382 312.09123 316.6992 321.36723 323.4992 325.2182 327.4052 335.4522 340.17323 345.17723 347.36424 349.38023 354.26924 359.31126 364.31526 368.93223 371.86323 374.8872 379.97923 387.95323 390.14024 393.10224 396.12623 400.95024 403.13725 405.99525 411.07225 414.2502 419.16923 423.67823 428.7282 433.5822 436.5972 441.2502 443.43724 447.93724 449.9472 452.0112 457.0762 461.77723 464.4052 466.5562">energiforbruk, ved at vi erstatter aggregatdrift som bruker diesel, med landstr&#x00f8;m fra fornybare kilder. </tspan><tspan y="-659.41958" x="70.86611 76.54411 78.56011 81.404109 86.1061 89.130107 91.9971 97.088108 102.08311 106.73711 111.561107 114.3961 116.4121 119.256099 124.300098 129.1561 134.18909 139.18408 142.01908 150.05507 154.77507 159.77907 162.60507 167.42908 170.26407 178.29907 183.37506 188.33705 191.08406 195.78707 198.80207 203.45507 206.25406 211.30306 216.09406 219.25206 221.99907 226.70107 229.84908 231.86508 236.94107 241.79508 246.34708 250.61708 255.32009 258.3441 261.2061 266.25508 271.07908 273.9141 278.7681 283.7731 285.856 290.5681 295.6141 300.6091 303.44413 308.35215 312.71015 317.78715 320.81114 323.67314 325.68913 330.57133 335.61424 340.61824 345.2352 348.1662 351.1902 356.28129 364.25529 367.0723 369.0883 373.6662 377.9362 382.5892 385.3882 390.09126 393.11524 395.97724 403.96125 408.90226 410.98027 413.03526 418.12635 420.27735 423.09437 428.77238 430.78837 433.6324 438.6504 443.5044 446.52839 449.39039 454.45439 459.1074 461.9064 466.4744 468.48539 473.10337 475.85038 480.5034 483.3024 488.1564 491.1714 495.87443 500.93345 505.58647 508.38548 513.4045 518.19448 521.3524 524.2414">Vi er ogs&#x00e5; i gang med &#x00e5; montere batteripakker p&#x00e5; anlegg hvor landstr&#x00f8;m ikke er mulig. Vi har de siste &#x00e5;rene hatt </tspan><tspan y="-646.2286" x="70.86611 75.569118 80.51012 83.29712 88.38112 92.93312 97.93812 99.95412 105.015117 110.01012 112.74412 117.79312 122.61712 127.69611 132.34912 135.04811 137.06412 139.81513 145.70513">en &#x00f8;kning b&#x00e5;de i CO</tspan></text>
<text fill="#404041" xml:space="preserve" transform="matrix(1 0 -0 1 0 841.89)" font-size="5.247" font-family="Roboto"><tspan y="-643.23159" x="151.83112">2</tspan></text>
<text fill="#404041" xml:space="preserve" transform="matrix(1 0 -0 1 0 841.89)" font-size="9" font-family="Roboto"><tspan y="-646.2286" x="154.76313 158.60112 160.61713 165.60712 168.35413 173.05513 178.03513 182.60413 184.70914 187.45615 192.13014 195.01915 197.74614 202.83715 207.83214 210.56813 215.27013 220.32912 225.03112 228.04611 233.0411 235.11312 237.91112 242.9871 246.16411 251.21411 254.40012 259.43513 264.04414 266.19514 268.91316 274.59916 277.70915 282.34614 287.20115 291.47114 296.17417 301.11518 303.90519 308.6072 311.6312 314.4042 319.47624 324.58824 329.24125 331.94126 336.88227 341.51927 343.53526 348.11317 352.38429 357.08619 359.71427 361.86528 364.58329 370.26139 372.27738 375.0224 380.0404 384.8945 387.9185 390.6915 393.5805 395.6536 400.6576 402.66749 404.72257 409.79457 414.49748 417.51246 422.16548 424.86549 429.88349 434.6745 437.83253 440.72154 443.44856 448.08665 452.94956 460.96955 466.00065 469.14854 471.2065 474.4135 477.30253 480.02955 488.06654 492.78755 497.79154 500.51856 506.21055 508.29353 512.96157 515.0535 519.40756 524.2315">-intensitet og energiforbruk. &#x00c5;rsaken er noe usikker. Vi har tidligere hatt samdrift med Kleiva </tspan><tspan y="-631.41958" x="70.86612 75.928119 77.93811 82.54111 86.811107 91.4641 94.29111 99.1461 102.33111 110.40111 112.55211 114.559108 119.47811 122.63611 125.38311 130.08612 133.11013 135.17212 139.96413 142.85314 144.86913 149.33712 151.35312 153.39311 158.3881 160.40412 164.99811 169.40811 171.43212 176.37812 180.72312 185.42612 188.45012 190.51212 193.40113 195.41713 197.43314 199.47313 204.29714 206.31914 211.35013 214.49814 216.55515 219.76314 222.51015 227.16315 229.15015 233.97415 236.05615 240.75815 245.81714 250.47614 252.19513 254.21413 259.23213 264.08613 267.1101 269.17213 273.64015 275.65614 277.69514 282.39717 287.44017 292.53517 295.42417 297.4402 302.51719 307.56718 312.55317 314.58518 322.6212 327.3432 332.3472 334.3612 339.1852 341.2072 345.8162 350.4902 353.64723 356.39424 361.04725 363.03526 368.13426 371.02326 373.04026 376.01927 377.92326 382.52525 386.93525 388.96028 394.00926 398.83326 400.85527 403.60728 408.54429 411.4893 416.3133 418.41828 421.30729 423.3253 426.3043 428.2353 431.24928 435.90229 437.8903 439.98329 445.06028 449.52729 454.3513 456.36128 458.46726 461.21427 465.88929 468.6363 473.33833 475.9903 477.7093 479.7293 487.7633 492.70033 495.58934 497.60633 500.53733 503.5523 508.20533 510.19233 514.5383 519.25936 524.26339">Fiskefarm. Etter at vi gikk over til &#x00e5; drifte alene, har vi endt opp med &#x00e5; sette ut fisk p&#x00e5; totalt fire lokaliteter, mot tre ved </tspan><tspan y="-617.41958" x="70.86612 73.75512 75.82712 80.831119 82.84111 84.8961 89.96811 94.67111 97.68611 102.33911 104.769107 109.8011 112.948108 115.0061 118.213108 121.0971 125.6671 128.4651 133.54109 136.7271 144.7971 146.9481 149.3961 155.5461 160.2211 163.37812 166.12512 170.77812 173.20812 181.24411 185.96611 191.01412 193.81212 198.89513 201.91013 206.61212 209.63613 212.14112 216.93212 219.82112 222.27812 226.74611 228.76212 231.24411 236.2941 239.4791 244.51509 248.7851 253.48709 256.51109 259.01509 263.63307 266.56407 269.58805 274.67906 282.65306 285.11207 290.16105 294.98506 297.45106 302.15208 307.09309 309.6131 314.31614 318.71714 323.3341 326.2651 329.2891 334.1131 336.6241 339.71913 341.7351 346.5541 349.30113 353.96015 355.67915 358.14015 363.23216 368.22715 370.69316 375.48316 378.37217 380.82917 385.89317 390.56718 393.45619 395.91319 400.6152 403.6392 406.1432 409.2392 411.3212 416.02323 419.0382 423.69123 426.12126 431.17124 435.96226 438.70927 443.4123 446.43629 448.94029 450.95628 453.4383 458.48829 461.67427 466.70826 471.31727 473.46827 475.91627 482.06724 486.74125 489.63026 492.08726 497.08226 499.09825 502.12223 504.66825 509.76026 514.75527 519.40829 524.23226">tidligere driftsform. Dette medf&#x00f8;rer at vi bruker str&#x00f8;m p&#x00e5; en ekstra fl&#x00e5;te, og at det er flere b&#x00e5;ter i bruk. Det gir ogs&#x00e5; </tspan><tspan y="-603.41958" x="70.86612 75.541118 78.430118 80.863109 85.93911 90.90011 95.264118 99.96511 102.98111 107.63411 110.0411 115.0451 117.12709 121.78009 126.38809 131.05609 133.1141 135.91211 140.9891 144.16512 149.21512 152.40113 157.43611 162.04512 164.19612 166.62111 172.2991 174.31511 176.77211 181.7131 186.6401 191.7311 196.43309 199.45709 201.93509 207.02509 212.02008 214.46207 217.25908 222.33608 225.75308 230.09908 234.80208 239.76407 242.51108 247.21208 250.23609 252.71709 257.8071 262.5291 267.56013 270.5751 275.22813 277.63313 280.57814 285.40214 287.41114 289.42713 291.88414 296.82514 301.74815 304.77214 307.25114 311.92015 314.00215 318.70417 323.43217 326.36317 329.51115 331.66914 334.64814 336.55213 341.1601 345.86314 349.0111 351.0271 356.0891 361.0841 365.70109 370.75108 373.77507 378.81507 383.42304 388.07606 392.68904 397.297 402.00004 406.94105 409.43605 414.45405 419.30805 422.33204 424.81205 429.08607 434.17207 442.18806 450.22407 454.89808 457.78709 460.2211 462.3031 467.00614 472.03916 477.07917 480.09416 484.74717 487.15217 492.24418 497.23918 499.68019 504.67518 506.69117 509.71516 512.2372 515.2002 520.2052 522.2162 524.2322">et h&#x00f8;yere dieselforbruk. Vi h&#x00e5;per og forventer bedre tall n&#x00e5;r elektrifiseringsprosessen har kommet lengre og gir full </tspan><tspan y="-589.41958" x="70.86612 75.89712 79.04512 81.10312 84.31111 87.19421 91.77521 96.43021 99.5893 102.3733 107.0763 111.8043 114.7913">driftseffekt.</tspan></text>
<text fill="#404041" xml:space="preserve" transform="matrix(1 0 -0 1 0 841.89)" font-size="10" font-family="Roboto" font-weight="bold"><tspan y="-560.81057" x="70.86612 77.17812 82.41412 88.14513 93.896129 99.12613 101.61613 107.356128 109.84612 114.20612 116.69612 123.396129 126.13113 129.70113 135.07613 140.71913 144.13413 149.36412 151.85413 157.61113 161.13713 166.33713 169.03313 171.76813 177.52812">Scope 1 - Direkte utslipp</tspan></text>
<g id="Layer-1" data-name="Artifact">
<clipPath id="cp255">
<path transform="matrix(1,0,0,-1,0,841.89)" d="M 0 0 L 595.276 0 L 595.276 841.89 L 0 841.89 Z "/>
</clipPath>
<g clip-path="url(#cp255)">
<path transform="matrix(1,0,0,-1,0,39.3869)" stroke-width=".5" stroke-linecap="butt" stroke-miterlimit="4" stroke-linejoin="miter" fill="none" stroke="#404041" d="M 0 0 L 524.409 0 "/>
</g>
<g id="Layer-1" data-name="Span">
</g>
<text fill="#404041" xml:space="preserve" transform="matrix(1 0 -0 1 0 841.89)" font-size="7" font-family="Roboto"><tspan y="-29.016" x="453.0613 458.16993 463.13435 467.83766 472.54026 476.56877 480.10099 483.93559 488.59199 492.63169 496.4957 498.2387 501.3467 503.08973 509.30503 511.44563 515.5875 519.61398">N&#x00d8;KKELTALL - MILJ&#x00d8;</tspan></text>
</g>
<g id="Layer-1" data-name="Span">
</g>
<text fill="#404041" xml:space="preserve" transform="matrix(1 0 -0 1 0 841.89)" font-size="8" font-family="Roboto" font-weight="bold"><tspan y="-44.7402" x="515.2297 519.82168">21</tspan></text>
<g id="Layer-1" data-name="Artifact">
<clipPath id="cp256">
<path transform="matrix(1,0,0,-1,0,841.89)" d="M 0 0 L 595.276 0 L 595.276 841.89 L 0 841.89 Z "/>
</clipPath>
<g clip-path="url(#cp256)">
<path transform="matrix(1,0,0,-1,0,801.8869)" stroke-width=".5" stroke-linecap="butt" stroke-miterlimit="4" stroke-linejoin="miter" fill="none" stroke="#404041" d="M 0 0 L 524.409 0 "/>
</g>
</g>
<path transform="matrix(1,0,0,-1,0,841.89)" d="M 70.866 395.947 L 202.159 395.947 L 202.159 379.804 L 70.866 379.804 Z M 202.159 395.947 L 266.411 395.947 L 266.411 379.804 L 202.159 379.804 Z M 266.411 395.947 L 330.66304 395.947 L 330.66304 379.804 L 266.411 379.804 Z M 330.663 395.947 L 395.86 395.947 L 395.86 379.804 L 330.663 379.804 Z M 395.86 395.947 L 459.167 395.947 L 459.167 379.804 L 395.86 379.804 Z M 459.167 395.947 L 524.364 395.947 L 524.364 379.804 L 459.167 379.804 Z " fill="#f1f7e8"/>
<g id="Layer-1" data-name="Span">
</g>
<g id="Layer-1" data-name="Span">
</g>
<g id="Layer-1" data-name="Span">
</g>
<g id="Layer-1" data-name="Span">
</g>
<g id="Layer-1" data-name="Span">
</g>
<g id="Layer-1" data-name="Span">
</g>
<text fill="#231f20" xml:space="preserve" transform="matrix(1 0 -0 1 0 841.89)" font-size="9" font-family="Roboto"><tspan y="-385.1971" x="74.8661 79.8008 84.8948 87.9728 92.868808 95.19981 98.27781 100.51881 105.61281 108.69081 113.37081 115.70181 118.032817 123.126819 128.22081 130.4618 135.14182 139.82181 144.9158 150.0098 154.7168 156.9578 162.0698 167.0828 172.1948 247.06308 252.17508 257.28709 311.3141 316.4261 321.5381 376.51008 381.62208 386.73408 432.46308 437.57508 439.81608 444.92808 450.04008 505.0121 510.12409 515.2361">Totalt utslipp scope 1+2 6928455791 280771</tspan></text>
<path transform="matrix(1,0,0,-1,0,841.89)" d="M 70.912 272.379 L 202.205 272.379 L 202.205 256.236 L 70.912 256.236 Z M 202.205 272.379 L 266.457 272.379 L 266.457 256.236 L 202.205 256.236 Z M 266.457 272.379 L 330.70899 272.379 L 330.70899 256.236 L 266.457 256.236 Z M 330.709 272.379 L 395.906 272.379 L 395.906 256.236 L 330.709 256.236 Z M 395.906 272.379 L 459.213 272.379 L 459.213 256.236 L 395.906 256.236 Z M 459.213 272.379 L 524.41006 272.379 L 524.41006 256.236 L 459.213 256.236 Z " fill="#f1f7e8"/>
<g id="Layer-1" data-name="Span">
</g>
<g id="Layer-1" data-name="Span">
</g>
<g id="Layer-1" data-name="Span">
</g>
<g id="Layer-1" data-name="Span">
</g>
<g id="Layer-1" data-name="Span">
</g>
<g id="Layer-1" data-name="Span">
</g>
<text fill="#231f20" xml:space="preserve" transform="matrix(1 0 -0 1 0 841.89)" font-size="9" font-family="Roboto"><tspan y="-261.6294" x="74.9118 77.5038 79.7448 84.6408 89.7348 92.812808 97.70881 100.03981 102.37081 104.61181 107.68981 112.78381 117.877819 234.6348 239.7468 244.8588 247.0998 252.21179 257.3238 298.8858 303.9978 309.1098 311.3508 316.4628 321.5748 364.0818 369.1938 374.3058 376.54679 381.65879 386.77079 427.3878 432.4998 437.6118 439.85279 444.96479 450.07679 492.5838 497.6958 502.8078 505.0488 510.1608 515.2728">I antall tonn14 48814 64114 37415 07615 743</tspan></text>
<g id="Layer-1" data-name="Artifact">
<clipPath id="cp257">
<path transform="matrix(1,0,0,-1,0,841.89)" d="M 0 0 L 595.276 0 L 595.276 841.89 L 0 841.89 Z "/>
</clipPath>
<g clip-path="url(#cp257)">
<path transform="matrix(1,0,0,-1,507.3199,604.52676)" d="M 0 0 C 16.817 0 30.499 13.682 30.499 30.499 C 30.499 47.316 16.817 60.998 0 60.998 C -16.817 60.998 -30.499 47.316 -30.499 30.499 C -30.499 13.682 -16.817 0 0 0 " fill="#1ea049"/>
<path transform="matrix(1,0,0,-1,507.3199,604.52676)" stroke-width="2.295" stroke-linecap="butt" stroke-miterlimit="4" stroke-linejoin="miter" fill="none" stroke="#ffffff" d="M 0 0 C 16.817 0 30.499 13.682 30.499 30.499 C 30.499 47.316 16.817 60.998 0 60.998 C -16.817 60.998 -30.499 47.316 -30.499 30.499 C -30.499 13.682 -16.817 0 0 0 Z "/>
</g>
<g id="Layer-1" data-name="Span">
</g>
<text fill="#ffffff" xml:space="preserve" transform="matrix(1 0 -0 1 0 841.89)" font-size="13.0028" font-family="Roboto" font-weight="bold"><tspan y="-269.4514" x="492.4946 499.8477 507.3308 514.69039">2020</tspan></text>
</g>
<g id="Layer-1" data-name="Span">
</g>
<text fill="#ffffff" xml:space="preserve" transform="matrix(1 0 -0 1 0 841.89)" font-size="9.1784" font-family="Roboto"><tspan y="-256.5194" x="494.1606 498.59379 503.67863 505.90898 510.30085 515.70236">15 743</tspan></text>
</g>
</svg>
