<?xml version="1.0" encoding="UTF-8" standalone="no"?>
<!DOCTYPE svg PUBLIC "-//W3C//DTD SVG 1.1//EN" "http://www.w3.org/Graphics/SVG/1.1/DTD/svg11.dtd">
<svg xmlns="http://www.w3.org/2000/svg" xmlns:xlink="http://www.w3.org/1999/xlink" version="1.1" width="595.276pt" height="841.89pt" viewBox="0 0 595.276 841.89">
<g enable-background="new">
<g>
<path transform="matrix(1,0,0,-1,0,841.89)" d="M 70.866 702.632 L 524.223 702.632 L 524.223 680.315 L 70.866 680.315 Z " fill="#f2f2f3"/>
<path transform="matrix(1,0,0,-1,70.8661,107.341739)" stroke-width=".75" stroke-linecap="butt" stroke-miterlimit="10" stroke-linejoin="miter" fill="none" stroke="#404041" d="M 0 0 L 76.519 0 "/>
<path transform="matrix(1,0,0,-1,147.3852,107.341739)" stroke-width=".75" stroke-linecap="butt" stroke-miterlimit="10" stroke-linejoin="miter" fill="none" stroke="#404041" d="M 0 0 L 103.008 0 "/>
<path transform="matrix(1,0,0,-1,250.3937,107.341739)" stroke-width=".75" stroke-linecap="butt" stroke-miterlimit="10" stroke-linejoin="miter" fill="none" stroke="#404041" d="M 0 0 L 130.866 0 "/>
<path transform="matrix(1,0,0,-1,381.2598,107.341739)" stroke-width=".75" stroke-linecap="butt" stroke-miterlimit="10" stroke-linejoin="miter" fill="none" stroke="#404041" d="M 0 0 L 142.963 0 "/>
<path transform="matrix(1,0,0,-1,70.8661,193.11621)" stroke-width=".5" stroke-linecap="butt" stroke-miterlimit="10" stroke-linejoin="miter" fill="none" stroke="#404041" d="M 0 0 L 76.519 0 "/>
<path transform="matrix(1,0,0,-1,147.3852,193.11621)" stroke-width=".5" stroke-linecap="butt" stroke-miterlimit="10" stroke-linejoin="miter" fill="none" stroke="#404041" d="M 0 0 L 103.008 0 "/>
<path transform="matrix(1,0,0,-1,250.3937,193.11621)" stroke-width=".5" stroke-linecap="butt" stroke-miterlimit="10" stroke-linejoin="miter" fill="none" stroke="#404041" d="M 0 0 L 130.866 0 "/>
<path transform="matrix(1,0,0,-1,381.2598,193.11621)" stroke-width=".5" stroke-linecap="butt" stroke-miterlimit="10" stroke-linejoin="miter" fill="none" stroke="#404041" d="M 0 0 L 142.963 0 "/>
<path transform="matrix(1,0,0,-1,70.8661,224.65753)" stroke-width=".5" stroke-linecap="butt" stroke-miterlimit="10" stroke-linejoin="miter" fill="none" stroke="#404041" d="M 0 0 L 76.519 0 "/>
<path transform="matrix(1,0,0,-1,147.3852,224.65753)" stroke-width=".5" stroke-linecap="butt" stroke-miterlimit="10" stroke-linejoin="miter" fill="none" stroke="#404041" d="M 0 0 L 103.008 0 "/>
<path transform="matrix(1,0,0,-1,250.3937,224.65753)" stroke-width=".5" stroke-linecap="butt" stroke-miterlimit="10" stroke-linejoin="miter" fill="none" stroke="#404041" d="M 0 0 L 130.866 0 "/>
<path transform="matrix(1,0,0,-1,381.2598,224.65753)" stroke-width=".5" stroke-linecap="butt" stroke-miterlimit="10" stroke-linejoin="miter" fill="none" stroke="#404041" d="M 0 0 L 142.963 0 "/>
<path transform="matrix(1,0,0,-1,70.8661,256.19874)" stroke-width=".5" stroke-linecap="butt" stroke-miterlimit="10" stroke-linejoin="miter" fill="none" stroke="#404041" d="M 0 0 L 76.519 0 "/>
<path transform="matrix(1,0,0,-1,147.3852,256.19874)" stroke-width=".5" stroke-linecap="butt" stroke-miterlimit="10" stroke-linejoin="miter" fill="none" stroke="#404041" d="M 0 0 L 103.008 0 "/>
<path transform="matrix(1,0,0,-1,250.3937,256.19874)" stroke-width=".5" stroke-linecap="butt" stroke-miterlimit="10" stroke-linejoin="miter" fill="none" stroke="#404041" d="M 0 0 L 130.866 0 "/>
<path transform="matrix(1,0,0,-1,381.2598,256.19874)" stroke-width=".5" stroke-linecap="butt" stroke-miterlimit="10" stroke-linejoin="miter" fill="none" stroke="#404041" d="M 0 0 L 142.963 0 "/>
<g id="Layer-1" data-name="Span">
</g>
<g id="Layer-1" data-name="Span">
</g>
<g id="Layer-1" data-name="Span">
</g>
<g id="Layer-1" data-name="Span">
</g>
<g id="Layer-1" data-name="Span">
</g>
<g id="Layer-1" data-name="Span">
</g>
<g id="Layer-1" data-name="Span">
<text fill="#939598" xml:space="preserve" transform="matrix(1 0 -0 1 0 841.89)" font-size="12" font-family="Roboto" font-weight="bold"><tspan y="-748.286" x="74.8661 82.8929 90.4889 93.8993 97.8845 104.14011 111.032909 117.79251 121.20291 124.19091 130.80771 137.1593 143.9501 150.2693 153.42531 159.5585 165.8225 172.0853 176.1701 179.3045 182.50131 189.19252 199.64812 203.9105 214.26291 217.45972 224.24813">GRI-103: Ledelsestiln&#x00e6;rming</tspan></text>
<text fill="#939598" xml:space="preserve" transform="matrix(1 0 -0 1 0 841.89)" font-size="10" font-family="Roboto" font-weight="bold"><tspan y="-714.6527" x="76.5354 83.3134 89.7434 92.6784 97.0084 100.017398 105.76039 111.46039 114.19039 119.61039 125.05739 128.46439 134.19239 153.05539 159.55539 164.8564 170.0904 175.6164 179.2094 181.93741 186.9534 192.2984 195.0084 200.2014 256.06538 262.32038 265.07038 270.80738 276.03739 278.5274 282.1004 287.5754 293.33143 299.07743 304.8044 308.66743 386.93537 393.96235 397.37236 402.71635 405.45335 410.90034 414.31034 419.65434 422.36534 427.55833 432.93534">GRI-IndikatorBeskrivelseSide rapportUtelatelser</tspan><tspan y="-660.7927" x="76.54538 81.86538 87.69838 93.452388 96.897388">103-1</tspan></text>
</g>
<g id="Layer-1" data-name="Span">
</g>
<text fill="#231f20" xml:space="preserve" transform="matrix(1 0 -0 1 0 841.89)" font-size="9" font-family="Roboto"><tspan y="-666.5695" x="153.0545 158.0666 163.1462 166.3205 170.8403 172.85631 177.74152 180.88613 182.90213 187.96733 192.96233 195.14933 199.90943 204.23842 206.42542 209.25052 213.96472 221.95493 226.81403 231.49134 234.38034">Forklaring av temaet </tspan><tspan y="-655.76956" x="153.0545 158.1485 163.1435 165.33049 170.09329 174.41239 179.45508 182.46828 187.17348 192.15587 196.72158 198.73758 203.80188 208.87697 213.58307">og avgrensinger</tspan></text>
<path transform="matrix(1,0,0,-1,355.1356,181.3797)" stroke-width=".439" stroke-linecap="butt" stroke-miterlimit="10" stroke-linejoin="miter" fill="none" stroke="#1e5e9e" d="M 0 0 L 10.33 0 "/>
<g id="Layer-1" data-name="Span">
</g>
<g id="Layer-1" data-name="Span">
<text fill="#231f20" xml:space="preserve" transform="matrix(1 0 -0 1 0 841.89)" font-size="9" font-family="Roboto"><tspan y="-661.1694" x="256.063 260.9644 265.6885 270.7564 275.42744 277.43803 282.0442 286.6972 291.31239 294.2014 296.21739 298.23338 303.25718 311.1745 314.3578 322.339 324.35499 329.4202 334.4152 336.6022 341.18409 343.2469 348.3148 352.9678">Ledelsestiln&#x00e6;rming side </tspan></text>
</g>
<g id="Layer-1" data-name="Span">
<text fill="#1e5e9e" xml:space="preserve" transform="matrix(1 0 -0 1 0 841.89)" font-size="9" font-family="Roboto"><tspan y="-661.1694" x="355.135 360.346">65</tspan></text>
</g>
<g id="Layer-1" data-name="Span">
<text fill="#939598" xml:space="preserve" transform="matrix(1 0 -0 1 0 841.89)" font-size="10" font-family="Roboto" font-weight="bold"><tspan y="-629.2532" x="76.5354 81.8554 87.6874 93.442409 97.2454">103-2</tspan></text>
</g>
<g id="Layer-1" data-name="Span">
</g>
<text fill="#231f20" xml:space="preserve" transform="matrix(1 0 -0 1 0 841.89)" font-size="9" font-family="Roboto"><tspan y="-635.0282" x="153.0545 159.47241 163.82932 168.90982 171.9311 176.97022 181.82842 186.84142 189.02841 194.1233 198.84832 203.88292 206.97891 209.08132 212.28621 215.0357 219.76071 224.7521">Hvordan bedriften </tspan><tspan y="-624.2282" x="153.0545 155.12451 160.27701 165.3296 170.4245 175.1297 178.2014 180.3884 188.4227 193.1477 198.1571 200.3441 203.0927 207.8078 215.7998 220.6418 225.33802">jobber med temaet</tspan></text>
<path transform="matrix(1,0,0,-1,355.1356,212.92102)" stroke-width=".439" stroke-linecap="butt" stroke-miterlimit="10" stroke-linejoin="miter" fill="none" stroke="#1e5e9e" d="M 0 0 L 10.33 0 "/>
<g id="Layer-1" data-name="Span">
</g>
<g id="Layer-1" data-name="Span">
<text fill="#231f20" xml:space="preserve" transform="matrix(1 0 -0 1 0 841.89)" font-size="9" font-family="Roboto"><tspan y="-629.6282" x="256.063 260.9644 265.6885 270.7564 275.42744 277.43803 282.0442 286.6972 291.31239 294.2014 296.21739 298.23338 303.25718 311.1745 314.3578 322.339 324.35499 329.4202 334.4152 336.6022 341.18409 343.2469 348.3148 352.9678">Ledelsestiln&#x00e6;rming side </tspan></text>
</g>
<g id="Layer-1" data-name="Span">
<text fill="#1e5e9e" xml:space="preserve" transform="matrix(1 0 -0 1 0 841.89)" font-size="9" font-family="Roboto"><tspan y="-629.6282" x="355.135 360.346">65</tspan></text>
</g>
<g id="Layer-1" data-name="Span">
<text fill="#939598" xml:space="preserve" transform="matrix(1 0 -0 1 0 841.89)" font-size="10" font-family="Roboto" font-weight="bold"><tspan y="-597.712" x="76.5354 81.8554 87.6884 93.4424 97.6084">103-3</tspan></text>
</g>
<text fill="#231f20" xml:space="preserve" transform="matrix(1 0 -0 1 0 841.89)" font-size="9" font-family="Roboto"><tspan y="-598.087" x="153.0545 157.9541 162.3065 167.13051 169.14652 174.24501 178.95111 182.09572 184.11173 189.17693 194.17192 196.35892 201.11902 205.44802 207.63501 212.56882 215.74312 220.83713 225.50904 227.57184 232.63974 237.31705">Evaluering av arbeidet</tspan></text>
<path transform="matrix(1,0,0,-1,355.1356,244.46222)" stroke-width=".439" stroke-linecap="butt" stroke-miterlimit="10" stroke-linejoin="miter" fill="none" stroke="#1e5e9e" d="M 0 0 L 10.33 0 "/>
<g id="Layer-1" data-name="Span">
</g>
<g id="Layer-1" data-name="Span">
<text fill="#231f20" xml:space="preserve" transform="matrix(1 0 -0 1 0 841.89)" font-size="9" font-family="Roboto"><tspan y="-598.087" x="256.063 260.9644 265.6885 270.7564 275.42744 277.43803 282.0442 286.6972 291.31239 294.2014 296.21739 298.23338 303.25718 311.1745 314.3578 322.339 324.35499 329.4202 334.4152 336.6022 341.18409 343.2469 348.3148 352.9678">Ledelsestiln&#x00e6;rming side </tspan></text>
</g>
<text fill="#1e5e9e" xml:space="preserve" transform="matrix(1 0 -0 1 0 841.89)" font-size="9" font-family="Roboto"><tspan y="-598.087" x="355.135 360.346">65</tspan></text>
<path transform="matrix(1,0,0,-1,0,841.89)" d="M 70.866 485.695 L 524.223 485.695 L 524.223 463.37803 L 70.866 463.37803 Z " fill="#e9f4fc"/>
<path transform="matrix(1,0,0,-1,70.8661,324.27864)" stroke-width=".75" stroke-linecap="butt" stroke-miterlimit="10" stroke-linejoin="miter" fill="none" stroke="#2bace3" d="M 0 0 L 76.519 0 "/>
<path transform="matrix(1,0,0,-1,147.3852,324.27864)" stroke-width=".75" stroke-linecap="butt" stroke-miterlimit="10" stroke-linejoin="miter" fill="none" stroke="#2bace3" d="M 0 0 L 103.008 0 "/>
<path transform="matrix(1,0,0,-1,250.3937,324.27864)" stroke-width=".75" stroke-linecap="butt" stroke-miterlimit="10" stroke-linejoin="miter" fill="none" stroke="#2bace3" d="M 0 0 L 130.866 0 "/>
<path transform="matrix(1,0,0,-1,381.2598,324.27864)" stroke-width=".75" stroke-linecap="butt" stroke-miterlimit="10" stroke-linejoin="miter" fill="none" stroke="#2bace3" d="M 0 0 L 142.963 0 "/>
<path transform="matrix(1,0,0,-1,70.8661,418.2005)" stroke-width=".5" stroke-linecap="butt" stroke-miterlimit="10" stroke-linejoin="miter" fill="none" stroke="#2bace3" d="M 0 0 L 76.519 0 "/>
<path transform="matrix(1,0,0,-1,147.3852,418.2005)" stroke-width=".5" stroke-linecap="butt" stroke-miterlimit="10" stroke-linejoin="miter" fill="none" stroke="#2bace3" d="M 0 0 L 103.008 0 "/>
<path transform="matrix(1,0,0,-1,250.3937,418.2005)" stroke-width=".5" stroke-linecap="butt" stroke-miterlimit="10" stroke-linejoin="miter" fill="none" stroke="#2bace3" d="M 0 0 L 130.866 0 "/>
<path transform="matrix(1,0,0,-1,381.2598,418.2005)" stroke-width=".5" stroke-linecap="butt" stroke-miterlimit="10" stroke-linejoin="miter" fill="none" stroke="#2bace3" d="M 0 0 L 142.963 0 "/>
<path transform="matrix(1,0,0,-1,70.8661,479.489)" stroke-width=".5" stroke-linecap="butt" stroke-miterlimit="10" stroke-linejoin="miter" fill="none" stroke="#2bace3" d="M 0 0 L 76.519 0 "/>
<path transform="matrix(1,0,0,-1,147.3852,479.489)" stroke-width=".5" stroke-linecap="butt" stroke-miterlimit="10" stroke-linejoin="miter" fill="none" stroke="#2bace3" d="M 0 0 L 103.008 0 "/>
<path transform="matrix(1,0,0,-1,250.3937,479.489)" stroke-width=".5" stroke-linecap="butt" stroke-miterlimit="10" stroke-linejoin="miter" fill="none" stroke="#2bace3" d="M 0 0 L 130.866 0 "/>
<path transform="matrix(1,0,0,-1,381.2598,479.489)" stroke-width=".5" stroke-linecap="butt" stroke-miterlimit="10" stroke-linejoin="miter" fill="none" stroke="#2bace3" d="M 0 0 L 142.963 0 "/>
<path transform="matrix(1,0,0,-1,70.8661,519.1776)" stroke-width=".5" stroke-linecap="butt" stroke-miterlimit="10" stroke-linejoin="miter" fill="none" stroke="#2bace3" d="M 0 0 L 76.519 0 "/>
<path transform="matrix(1,0,0,-1,147.3852,519.1776)" stroke-width=".5" stroke-linecap="butt" stroke-miterlimit="10" stroke-linejoin="miter" fill="none" stroke="#2bace3" d="M 0 0 L 103.008 0 "/>
<path transform="matrix(1,0,0,-1,250.3937,519.1776)" stroke-width=".5" stroke-linecap="butt" stroke-miterlimit="10" stroke-linejoin="miter" fill="none" stroke="#2bace3" d="M 0 0 L 130.866 0 "/>
<path transform="matrix(1,0,0,-1,381.2598,519.1776)" stroke-width=".5" stroke-linecap="butt" stroke-miterlimit="10" stroke-linejoin="miter" fill="none" stroke="#2bace3" d="M 0 0 L 142.963 0 "/>
<path transform="matrix(1,0,0,-1,70.8661,569.66629)" stroke-width=".5" stroke-linecap="butt" stroke-miterlimit="10" stroke-linejoin="miter" fill="none" stroke="#2bace3" d="M 0 0 L 76.519 0 "/>
<path transform="matrix(1,0,0,-1,147.3852,569.66629)" stroke-width=".5" stroke-linecap="butt" stroke-miterlimit="10" stroke-linejoin="miter" fill="none" stroke="#2bace3" d="M 0 0 L 103.008 0 "/>
<path transform="matrix(1,0,0,-1,250.3937,569.66629)" stroke-width=".5" stroke-linecap="butt" stroke-miterlimit="10" stroke-linejoin="miter" fill="none" stroke="#2bace3" d="M 0 0 L 130.866 0 "/>
<path transform="matrix(1,0,0,-1,381.2598,569.66629)" stroke-width=".5" stroke-linecap="butt" stroke-miterlimit="10" stroke-linejoin="miter" fill="none" stroke="#2bace3" d="M 0 0 L 142.963 0 "/>
<path transform="matrix(1,0,0,-1,70.8661,609.3548)" stroke-width=".5" stroke-linecap="butt" stroke-miterlimit="10" stroke-linejoin="miter" fill="none" stroke="#2bace3" d="M 0 0 L 76.519 0 "/>
<path transform="matrix(1,0,0,-1,147.3852,609.3548)" stroke-width=".5" stroke-linecap="butt" stroke-miterlimit="10" stroke-linejoin="miter" fill="none" stroke="#2bace3" d="M 0 0 L 103.008 0 "/>
<path transform="matrix(1,0,0,-1,250.3937,609.3548)" stroke-width=".5" stroke-linecap="butt" stroke-miterlimit="10" stroke-linejoin="miter" fill="none" stroke="#2bace3" d="M 0 0 L 130.866 0 "/>
<path transform="matrix(1,0,0,-1,381.2598,609.3548)" stroke-width=".5" stroke-linecap="butt" stroke-miterlimit="10" stroke-linejoin="miter" fill="none" stroke="#2bace3" d="M 0 0 L 142.963 0 "/>
<g id="Layer-1" data-name="Span">
</g>
<g id="Layer-1" data-name="Span">
<text fill="#00578c" xml:space="preserve" transform="matrix(1 0 -0 1 0 841.89)" font-size="12" font-family="Roboto" font-weight="bold"><tspan y="-531.3491" x="74.8661 82.89289 90.49489 93.90529 98.33449 105.12529 112.13449 118.88809 122.29609 125.28409 133.61928 139.80168 146.5913 153.3677 160.14412 170.49652 173.65251 179.83731 186.02092 192.29692 195.28493 198.48172 205.27613 212.02133 215.20613 221.60694 228.05094 232.03853 238.81494 242.99935 249.35814">GRI-200: &#x00d8;konomiske indikatorer</tspan></text>
</g>
<g id="Layer-1" data-name="Span">
</g>
<g id="Layer-1" data-name="Span">
</g>
<g id="Layer-1" data-name="Span">
</g>
<g id="Layer-1" data-name="Span">
</g>
<g id="Layer-1" data-name="Span">
<text fill="#2c3b52" xml:space="preserve" transform="matrix(1 0 -0 1 0 841.89)" font-size="10" font-family="Roboto" font-weight="bold"><tspan y="-497.7158" x="76.5354 83.3134 89.7434 92.6784 97.0084 100.017398 105.76039 111.46039 114.19039 119.61039 125.05739 128.46439 134.19239 153.05539 159.55539 164.8564 170.0904 175.6164 179.2094 181.93741 186.9534 192.2984 195.0084 200.2014 256.06538 262.32038 265.07038 270.80738 276.03739 278.5274 282.1004 287.5754 293.33143 299.07743 304.8044 308.66743 386.93537 393.96235 397.37236 402.71635 405.45335 410.90034 414.31034 419.65434 422.36534 427.55833 432.93534">GRI-IndikatorBeskrivelseSide rapportUtelatelser</tspan><tspan y="-439.7858" x="76.54538 82.29438 87.78338 92.98738 96.43238">201-1</tspan></text>
</g>
<g id="Layer-1" data-name="Span">
</g>
<g id="Layer-1" data-name="Span">
</g>
<text fill="#231f20" xml:space="preserve" transform="matrix(1 0 -0 1 0 841.89)" font-size="9" font-family="Roboto"><tspan y="-450.9588" x="153.0545 159.17272 161.18872 164.22803 168.93413 173.66004 176.40865 181.06165 183.24864 188.31204 192.58435 197.66394 202.73993 207.82852 215.80973 217.81943 222.41933 226.82933">Direkte &#x00f8;konomisk </tspan><tspan y="-440.1588" x="153.0545 157.3988 162.12381 165.1271 170.132 172.175 174.362 179.4371 184.16211 189.2057 193.93071 196.925 201.65001 205.0592 207.9545 210.1415 215.23639 220.24579">verdi generert og </tspan><tspan y="-429.35884" x="153.0545 158.0585 160.0691 164.68431 167.61652 170.76113 172.77713 177.84142 182.9129 187.6181 191.0453 193.93431">distribuert </tspan></text>
<path transform="matrix(1,0,0,-1,318.7833,407.7904)" stroke-width=".439" stroke-linecap="butt" stroke-miterlimit="10" stroke-linejoin="miter" fill="none" stroke="#1e5e9e" d="M 0 0 L 10.19 0 "/>
<g id="Layer-1" data-name="Span">
</g>
<g id="Layer-1" data-name="Span">
</g>
<g id="Layer-1" data-name="Span">
<text fill="#231f20" xml:space="preserve" transform="matrix(1 0 -0 1 0 841.89)" font-size="9" font-family="Roboto"><tspan y="-445.5588" x="256.063 262.219 268.0816 270.5602 274.04054 279.1057 284.3374 289.3234 291.5104 297.6844 301.9567 307.03633 312.11143 317.20094 325.1812 327.1918 331.7908 336.0586 340.7116">GRI-200 &#x00d8;konomiske </tspan><tspan y="-434.75883" x="256.063 258.07899 263.15229 268.15629 270.17228 274.66419 279.45939 282.21339 287.293 290.3053 295.0114 298.0354 300.2224 304.8367 306.9004 311.96739 316.6204">indikatorer side </tspan></text>
</g>
<g id="Layer-1" data-name="Span">
<text fill="#1e5e9e" xml:space="preserve" transform="matrix(1 0 -0 1 0 841.89)" font-size="9" font-family="Roboto"><tspan y="-434.75883" x="318.784 323.86">67</tspan></text>
</g>
<g id="Layer-1" data-name="Span">
<text fill="#2c3b52" xml:space="preserve" transform="matrix(1 0 -0 1 0 841.89)" font-size="10" font-family="Roboto" font-weight="bold"><tspan y="-389.2953" x="76.5354 82.2844 87.77341 92.97741 96.7804">201-2</tspan></text>
</g>
<g id="Layer-1" data-name="Span">
</g>
<g id="Layer-1" data-name="Span">
</g>
<g id="Layer-1" data-name="Span">
</g>
<g id="Layer-1" data-name="Span">
</g>
<text fill="#231f20" xml:space="preserve" transform="matrix(1 0 -0 1 0 841.89)" font-size="9" font-family="Roboto"><tspan y="-411.2703" x="153.0545 158.1188 160.1591 165.1766 170.0366 175.01902 179.5847 181.6367 186.3257 188.3444 190.39641 195.05571">Finansielle </tspan><tspan y="-400.4703" x="153.0545 155.1047 163.11022 168.1403 170.1203 172.18759 176.65248 181.44048 186.00888 188.1518 193.2323 198.2939 202.9991 206.0717 208.2587 213.35269 218.36299">implikasjoner og </tspan><tspan y="-389.67033" x="153.0545 157.9127 162.9581 167.99269 171.00499 175.65799 177.84499 180.96979 182.9804 187.5452 189.5612 193.8605 198.9761 203.6822 206.7062 208.8932 214.0367 219.0317">andre risikoer og </tspan><tspan y="-378.87034" x="153.0545 161.0357 165.9767 168.05751 170.11222 175.1549 180.22101 184.89922 187.64873 192.35393 195.37793 197.56493 202.65712 205.84043 210.87952 215.91591 220.97841 225.65572 228.54473">muligheter grunnet </tspan><tspan y="-368.07035" x="153.0545 157.5743 159.584 161.6333 169.6235 174.3719 177.1664 182.246 185.3141 190.1723 195.2186 200.2523 203.3483 205.4363 210.4736 215.5496 220.27462">klimaforandringer</tspan></text>
<path transform="matrix(1,0,0,-1,318.7833,458.2789)" stroke-width=".439" stroke-linecap="butt" stroke-miterlimit="10" stroke-linejoin="miter" fill="none" stroke="#1e5e9e" d="M 0 0 L 10.425 0 "/>
<g id="Layer-1" data-name="Span">
</g>
<g id="Layer-1" data-name="Span">
</g>
<g id="Layer-1" data-name="Span">
<text fill="#231f20" xml:space="preserve" transform="matrix(1 0 -0 1 0 841.89)" font-size="9" font-family="Roboto"><tspan y="-395.0703" x="256.063 262.219 268.0816 270.5602 274.04054 279.1057 284.3374 289.3234 291.5104 297.6844 301.9567 307.03633 312.11143 317.20094 325.1812 327.1918 331.7908 336.0586 340.7116">GRI-200 &#x00d8;konomiske </tspan><tspan y="-384.27033" x="256.063 258.07899 263.15229 268.15629 270.17228 274.66419 279.45939 282.21339 287.293 290.3053 295.0114 298.0354 300.2224 304.8367 306.9004 311.96739 316.6204">indikatorer side </tspan></text>
</g>
<g id="Layer-1" data-name="Span">
<text fill="#1e5e9e" xml:space="preserve" transform="matrix(1 0 -0 1 0 841.89)" font-size="9" font-family="Roboto"><tspan y="-384.27033" x="318.784 324.094">68</tspan></text>
</g>
<g id="Layer-1" data-name="Span">
<text fill="#2c3b52" xml:space="preserve" transform="matrix(1 0 -0 1 0 841.89)" font-size="10" font-family="Roboto" font-weight="bold"><tspan y="-338.8067" x="76.5354 82.2844 88.1304 93.50941 97.3124">202-2</tspan></text>
</g>
<g id="Layer-1" data-name="Span">
</g>
<g id="Layer-1" data-name="Span">
</g>
<text fill="#231f20" xml:space="preserve" transform="matrix(1 0 -0 1 0 841.89)" font-size="9" font-family="Roboto"><tspan y="-349.9817" x="153.0545 158.7389 163.71591 168.8558 173.5448 175.57071 177.75772 182.50162 186.90532 189.09233 191.14434 195.89633 200.96332 205.65232 207.64492 212.25112 216.95632 221.96662">Andel av ledelsen </tspan><tspan y="-339.1817" x="153.0545 156.0668 160.7729 165.3224 168.5057 173.6078 176.76772 179.51723 184.22243 187.64963 190.53864 192.72563 195.68663 198.71063 203.53464">rekruttert fra </tspan><tspan y="-328.3817" x="153.0545 155.1479 160.22841 164.6933 169.5173 171.52701 176.1629 181.0139 188.9024 191.8634 196.8314 201.79941 207.005 211.685">lokalsamfunnet</tspan></text>
<path transform="matrix(1,0,0,-1,318.7833,508.76753)" stroke-width=".439" stroke-linecap="butt" stroke-miterlimit="10" stroke-linejoin="miter" fill="none" stroke="#1e5e9e" d="M 0 0 L 10.425 0 "/>
<g id="Layer-1" data-name="Span">
</g>
<g id="Layer-1" data-name="Span">
</g>
<g id="Layer-1" data-name="Span">
<text fill="#231f20" xml:space="preserve" transform="matrix(1 0 -0 1 0 841.89)" font-size="9" font-family="Roboto"><tspan y="-344.5817" x="256.063 262.219 268.0816 270.5602 274.04054 279.1057 284.3374 289.3234 291.5104 297.6844 301.9567 307.03633 312.11143 317.20094 325.1812 327.1918 331.7908 336.0586 340.7116">GRI-200 &#x00d8;konomiske </tspan><tspan y="-333.7817" x="256.063 258.07899 263.15229 268.15629 270.17228 274.66419 279.45939 282.21339 287.293 290.3053 295.0114 298.0354 300.2224 304.8367 306.9004 311.96739 316.6204">indikatorer side </tspan></text>
</g>
<g id="Layer-1" data-name="Span">
<text fill="#1e5e9e" xml:space="preserve" transform="matrix(1 0 -0 1 0 841.89)" font-size="9" font-family="Roboto"><tspan y="-333.7817" x="318.784 324.094">68</tspan></text>
</g>
<g id="Layer-1" data-name="Span">
<text fill="#2c3b52" xml:space="preserve" transform="matrix(1 0 -0 1 0 841.89)" font-size="10" font-family="Roboto" font-weight="bold"><tspan y="-293.7181" x="76.5354 82.2844 88.067409 93.88141 97.6844">205-2</tspan></text>
</g>
<g id="Layer-1" data-name="Span">
</g>
<g id="Layer-1" data-name="Span">
</g>
<g id="Layer-1" data-name="Span">
</g>
<text fill="#231f20" xml:space="preserve" transform="matrix(1 0 -0 1 0 841.89)" font-size="9" font-family="Roboto"><tspan y="-310.2931" x="153.0545 158.48871 163.5782 171.5918 179.573 184.61209 189.61969 191.6357 196.1276 200.9318 205.4813 207.62509 212.70468 217.64568">Kommunikasjon </tspan><tspan y="-299.4931" x="153.0545 158.1431 166.1171 168.3041 173.40259 178.39759 180.58458 185.68038 190.73389 195.76398 197.79799 205.71619 208.8608 210.8768 215.9411 220.9361">om og oppl&#x00e6;ring </tspan><tspan y="-288.6931" x="153.0545 155.07051 157.2575 160.29862 164.97682 167.90903 172.91753 174.93354 179.99874 184.99373 189.57743 191.58623 193.60224 198.62693 200.75812 205.46332 208.48732 210.67432 213.51833 218.59792 221.62192">i retningslinjer for </tspan><tspan y="-277.89314" x="153.0545 157.9127 162.878 165.78142 167.79743 172.09673 177.17632 180.35062 183.53392 188.57302 193.55902 198.13643 200.27933 205.35982">antikorrupsjon</tspan></text>
<path transform="matrix(1,0,0,-1,318.7833,553.8561)" stroke-width=".439" stroke-linecap="butt" stroke-miterlimit="10" stroke-linejoin="miter" fill="none" stroke="#1e5e9e" d="M 0 0 L 10.266 0 "/>
<g id="Layer-1" data-name="Span">
</g>
<g id="Layer-1" data-name="Span">
</g>
<g id="Layer-1" data-name="Span">
<text fill="#231f20" xml:space="preserve" transform="matrix(1 0 -0 1 0 841.89)" font-size="9" font-family="Roboto"><tspan y="-299.4931" x="256.063 262.219 268.0816 270.5602 274.04054 279.1057 284.3374 289.3234 291.5104 297.6844 301.9567 307.03633 312.11143 317.20094 325.1812 327.1918 331.7908 336.0586 340.7116">GRI-200 &#x00d8;konomiske </tspan><tspan y="-288.6931" x="256.063 258.07899 263.15229 268.15629 270.17228 274.66419 279.45939 282.21339 287.293 290.3053 295.0114 298.0354 300.2224 304.8367 306.9004 311.96739 316.6204">indikatorer side </tspan></text>
</g>
<g id="Layer-1" data-name="Span">
<text fill="#1e5e9e" xml:space="preserve" transform="matrix(1 0 -0 1 0 841.89)" font-size="9" font-family="Roboto"><tspan y="-288.6931" x="318.784 323.932">69</tspan></text>
</g>
<g id="Layer-1" data-name="Span">
<text fill="#2c3b52" xml:space="preserve" transform="matrix(1 0 -0 1 0 841.89)" font-size="10" font-family="Roboto" font-weight="bold"><tspan y="-248.6295" x="76.5354 82.2844 88.06641 93.88141 98.04641">205-3</tspan></text>
</g>
<g id="Layer-1" data-name="Span">
</g>
<g id="Layer-1" data-name="Span">
</g>
<text fill="#231f20" xml:space="preserve" transform="matrix(1 0 -0 1 0 841.89)" font-size="9" font-family="Roboto"><tspan y="-259.8045" x="153.0545 158.79741 163.50261 168.05301 171.0653 175.6958 178.90071 181.65023 186.37433 191.44223 196.09523">Bekreftede </tspan><tspan y="-249.0045" x="153.0545 157.3268 162.4073 165.58159 168.76488 173.80309 178.81699 183.36739 185.51029 190.58989 195.5732 200.17311 205.23921 209.96422 214.99163 220.05953 224.73053 226.74114 231.34644 236.07144 239.12514">korrupsjonshendelser </tspan><tspan y="-238.2045" x="153.0545 158.1485 163.1435 165.33049 167.4419 171.7862 176.4914 179.6657 184.0658 188.70169 193.4969 196.65682 199.40543 204.05843 206.24542 209.13443 211.13513 213.24024 216.18685 221.04505">og iverksatte tiltak</tspan></text>
<path transform="matrix(1,0,0,-1,318.7833,598.9447)" stroke-width=".439" stroke-linecap="butt" stroke-miterlimit="10" stroke-linejoin="miter" fill="none" stroke="#1e5e9e" d="M 0 0 L 10.266 0 "/>
<g id="Layer-1" data-name="Span">
</g>
<g id="Layer-1" data-name="Span">
</g>
<g id="Layer-1" data-name="Span">
<text fill="#231f20" xml:space="preserve" transform="matrix(1 0 -0 1 0 841.89)" font-size="9" font-family="Roboto"><tspan y="-254.4045" x="256.063 262.219 268.0816 270.5602 274.04054 279.1057 284.3374 289.3234 291.5104 297.6844 301.9567 307.03633 312.11143 317.20094 325.1812 327.1918 331.7908 336.0586 340.7116">GRI-200 &#x00d8;konomiske </tspan><tspan y="-243.60449" x="256.063 258.07899 263.15229 268.15629 270.17228 274.66419 279.45939 282.21339 287.293 290.3053 295.0114 298.0354 300.2224 304.8367 306.9004 311.96739 316.6204">indikatorer side </tspan></text>
</g>
<g id="Layer-1" data-name="Span">
<text fill="#1e5e9e" xml:space="preserve" transform="matrix(1 0 -0 1 0 841.89)" font-size="9" font-family="Roboto"><tspan y="-243.60449" x="318.784 323.932">69</tspan></text>
</g>
<g id="Layer-1" data-name="Span">
</g>
<text fill="#404041" xml:space="preserve" transform="matrix(1 0 -0 1 0 841.89)" font-size="7" font-family="Roboto"><tspan y="-29.016" x="485.2021 490.0391 494.61149 496.69819 499.36518 503.19908 507.85548 512.47549 516.50399 520.54299">GRI-TABELL</tspan></text>
<text fill="#404041" xml:space="preserve" transform="matrix(1 0 -0 1 0 841.89)" font-size="8" font-family="Roboto" font-weight="bold"><tspan y="-44.7402" x="515.2297 519.82168">89</tspan></text>
<g id="Layer-1" data-name="Artifact">
<clipPath id="cp755">
<path transform="matrix(1,0,0,-1,0,841.89)" d="M 0 0 L 595.276 0 L 595.276 841.89 L 0 841.89 Z "/>
</clipPath>
<g clip-path="url(#cp755)">
<path transform="matrix(1,0,0,-1,524.4094,802.3869)" stroke-width=".5" stroke-linecap="butt" stroke-miterlimit="4" stroke-linejoin="miter" fill="none" stroke="#404041" d="M 0 0 L -1048.819 0 "/>
</g>
<g id="Layer-1" data-name="Artifact">
<path transform="matrix(1,0,0,-1,-524.4094,39.3869)" stroke-width=".5" stroke-linecap="butt" stroke-miterlimit="4" stroke-linejoin="miter" fill="none" stroke="#404041" d="M 0 0 L 1048.819 0 "/>
</g>
</g>
</g>
</g>
</svg>
