<?xml version="1.0" encoding="UTF-8" standalone="no"?>
<!DOCTYPE svg PUBLIC "-//W3C//DTD SVG 1.1//EN" "http://www.w3.org/Graphics/SVG/1.1/DTD/svg11.dtd">
<svg xmlns="http://www.w3.org/2000/svg" xmlns:xlink="http://www.w3.org/1999/xlink" version="1.1" width="595.276pt" height="841.89pt" viewBox="0 0 595.276 841.89">
<g enable-background="new">
<g>
<g id="Layer-1" data-name="Span">
<text fill="#f1bc20" xml:space="preserve" transform="matrix(1 0 -0 1 0 841.89)" font-size="15" font-family="Roboto"><tspan y="-516.2962" x="70.8661 78.52509 86.07459 94.54659 99.633098 108.15309 111.88809 121.092098 129.61209 134.7811 143.2711 151.2106 156.4561 160.3096 168.78762 177.27762 181.01262 188.88762 196.49262 200.22762 208.70262 216.59262 220.37262 228.10213 236.00113 242.66114 246.39614 254.88614 263.37614 267.1111 274.8436 278.6896 286.66813 294.19813 302.13914 307.45066 315.92716 323.80067 328.85118 336.64366">416-1 Vurdering av helse- og sikkerhetsp</tspan></text>
<g id="Layer-2" data-name="Span">
</g>
<text fill="#f1bc20" xml:space="preserve" transform="matrix(1 0 -0 1 0 841.89)" font-size="15" font-family="Roboto"><tspan y="-516.2962" x="345.0961">&#x00e5;</tspan></text>
<text fill="#f1bc20" xml:space="preserve" transform="matrix(1 0 -0 1 0 841.89)" font-size="15" font-family="Roboto"><tspan y="-516.2962" x="352.9711 360.54609 364.3936 369.6991 377.6851 386.1421 389.9971 398.4751 406.9651 410.70008 415.75059 420.9136 429.0736 432.8086 441.33909 446.4856 454.99958 463.48957 472.00956 480.19056 485.08357 493.02308 498.2881 502.02308 510.51307 519.00308">virkning fra produkter og </tspan></text>
</g>
<g id="Layer-1" data-name="Span">
</g>
<g id="Layer-1" data-name="Span">
</g>
<text fill="#f1bc20" xml:space="preserve" transform="matrix(1 0 -0 1 0 841.89)" font-size="15" font-family="Roboto"><tspan y="-498.2962" x="70.8661 75.8266 79.7356 87.6826 96.186107 103.9951 111.8131 116.7061 124.6411">tjenester</tspan><tspan y="-393.1762" x="70.8661 78.52509 86.07459 94.54659 100.01859 108.53859 112.27359 121.27359 129.26259 136.83759 140.68508 148.53008 152.26508 160.71459 168.87459 172.60959 181.0846 188.97609 192.75609 200.4856 208.4521 211.8421 215.5771 228.5686 232.3501 236.1361 240.0451 248.5171 255.17711 258.9121 267.4021 275.8921 279.62709 287.35807 291.20558 299.18257 306.71406 314.65357 319.96659 328.44309 336.3151 341.4451 345.18009 349.0651 352.80009 361.33058 369.25059 377.74058 382.98609 386.78559 392.18409 397.0771 405.02558 413.51557">416-2 Avvik p&#x00e5; helse, milj&#x00f8;- og sikkerhet i bedriften </tspan></text>
<g id="Layer-1" data-name="Artifact">
<clipPath id="cp741">
<path transform="matrix(1,0,0,-1,0,841.89)" d="M 0 0 L 595.276 0 L 595.276 841.89 L 0 841.89 Z "/>
</clipPath>
<g clip-path="url(#cp741)">
<filter id="blend_3"><feBlend mode="overlay" in2="BackgroundImage" in="SourceGraphic"/></filter>
<g filter="url(#blend_3)">
<clipPath id="cp742">
<path transform="matrix(1,0,0,-1,0,841.89)" d="M 69.8661 437.851 L 525.409 437.851 L 525.409 440.351 L 69.8661 440.351 Z "/>
</clipPath>
<g clip-path="url(#cp742)">
<path transform="matrix(1,0,0,-1,70.8661,402.789)" stroke-width=".5" stroke-linecap="butt" stroke-miterlimit="4" stroke-linejoin="miter" fill="none" stroke="#b9bbbd" d="M 0 0 L 453.543 0 "/>
</g>
</g>
</g>
<g id="Layer-1" data-name="Span">
</g>
<text fill="#404041" xml:space="preserve" transform="matrix(1 0 -0 1 0 841.89)" font-size="9" font-family="Roboto"><tspan y="-368.6556" x="70.8661 73.26009 76.30659 82.462589 85.48659 90.362789 93.30939 98.16759 103.20489 108.19989 110.21589 115.11909 119.51918 124.07318 127.10618 132.77437 138.10237 141.21637 146.23746 151.09566 154.11966 157.17066 161.63555 163.65155 166.68454 168.70055 171.73354 176.79784 181.90445 186.96874 191.95475 194.96074 196.97675 202.04195 207.11704 211.82224 216.76323 219.84123 224.58515 229.31914 233.78313 235.79914 240.20914 243.25113 247.80063 252.72452 257.48283 260.64274 263.39225 268.06956 270.95857 273.97358 276.87699 278.8867 280.90269 283.9357 289.00273 293.67375 295.68434 300.2896 304.9525 306.6715 309.67753 317.65873 319.6675 321.6925 323.83543 328.84843 331.85444 336.94935 341.94435 344.96836 349.53495 351.55094 356.12745 360.39524 365.10136 368.27565 373.34175 378.01905 381.00886 383.15986 386.16587 391.84129 393.85728 396.8903 401.7485 404.9228 410.01679 414.6887 416.7515 421.8194 426.5246 429.54859 432.5996 437.45783 442.18373 445.07273 447.17424 451.91993 454.80894 457.82395 460.61756 465.69807 468.72206 471.77308 476.59709 479.6211 484.18678 486.20277 490.77928 493.79158 498.44459 501.4326 506.22779 509.1168 512.1318 516.48416 521.3423 524.3663">I Gratanglaks AS har vi i 2020 ingen avvik knyttet til helse, milj&#x00f8; og sikkerhet. Vi arbeider aktivt for &#x00e5; sikre at v&#x00e5;r </tspan></text>
</g>
<g id="Layer-1" data-name="Span">
</g>
<g id="Layer-1" data-name="Span">
</g>
<g id="Layer-1" data-name="Span">
<text fill="#404041" xml:space="preserve" transform="matrix(1 0 -0 1 0 841.89)" font-size="9" font-family="Roboto"><tspan y="-357.8556" x="70.8661 75.9601 80.6851 85.7188 88.814807 90.9172 94.1221 97.0183 99.20531 104.1535 108.4978 113.2228 116.379108 121.4587 126.5158 128.5795 133.6465 138.3715 141.4252 143.6122 145.7065 150.7861 155.25189 160.07588 162.15668 166.81958 168.54218 170.72917 175.74217 180.54637 185.09677 187.23967 192.31928 197.33228 202.15627 204.23706 208.86937 211.05637 216.15036 221.15976 223.34676 225.38796 230.35326 233.10276 237.82776 240.98406 245.99706 250.80126 255.35166 257.49455 262.57505 267.58805 272.41206 274.49378 279.12519 281.3122 283.4065 288.3547 292.699 297.424 300.0313">bedrift overholder lokale, nasjonale og internasjonale lover.</tspan><tspan y="-473.77558" x="70.8661 75.3949 80.627498 85.78539 92.43639 94.62339 99.37089 103.69989 105.88689 110.31579 115.17399 118.18629 122.83929 125.02628 130.05998 133.08399 138.16898 143.20267 148.24086 152.96677 155.89987 160.36478 165.15999 167.9095 172.6255 177.7141 182.79459 185.9392 188.0209 192.7261 195.7501 197.9371 202.4884 207.5275 210.5515 215.6185 220.3246 223.3369 227.9899 232.5439 234.7309 236.7469 238.9339 241.7887 246.86829 250.04259 255.12218 260.17927 262.24296 267.24696 269.43397 272.32298 274.35066 276.36665 278.55366 283.64857 288.32048 290.33018 294.93635 299.59925 301.31825 303.50526 311.49095 313.49974 315.52473 317.66764 322.89125 325.46525 327.65226 333.95317 338.94816 341.13517 345.71617 347.73216 352.30867 356.57646 361.28166 364.45686 369.52296 374.20118 377.09019 381.69636 386.32688 389.48408 392.26597 396.97209 401.69798 404.44749 409.15269 411.77796">100% av v&#x00e5;re produktkategorier vurderes i forhold til helse, milj&#x00f8;- og sikkerhetseffekter.</tspan></text>
</g>
<text fill="#f1bc20" xml:space="preserve" transform="matrix(1 0 -0 1 0 841.89)" font-size="15" font-family="Roboto"><tspan y="-277.2595" x="70.8661 78.52509 85.98759 94.450588 99.53709 108.05708 111.79208 121.40408 126.72458 135.26259 143.77809 152.2681 156.0031 164.4511 172.6111 176.3461 180.1816 188.3746 195.7081 203.6491 208.9141 212.6491 221.1391 229.6291 233.3641 238.51811 246.41562 254.87563 258.7336 266.67314 271.93815 275.67314 283.66215 291.91514 299.93415 305.30265 310.19566 318.06767 323.19767 326.93266 331.95765 335.74067 339.62568 343.36067 351.12916 359.30418 372.19667 377.25617 385.78367 394.30665 402.72013 410.5126 423.52659 431.3371 439.0861 446.81108 450.66609 459.18159 467.02659 470.76158 475.6696 484.17759 489.4906 497.9671 506.4076 510.2851">419-1 Brudd p&#x00e5; lover og regler knyttet til samfunnsmessige forhold</tspan></text>
<g id="Layer-1" data-name="Artifact">
<clipPath id="cp743">
<path transform="matrix(1,0,0,-1,0,841.89)" d="M 0 0 L 595.276 0 L 595.276 841.89 L 0 841.89 Z "/>
</clipPath>
<g clip-path="url(#cp743)">
<g filter="url(#blend_3)">
<clipPath id="cp744">
<path transform="matrix(1,0,0,-1,0,841.89)" d="M 69.8661 321.932 L 525.409 321.932 L 525.409 324.432 L 69.8661 324.432 Z "/>
</clipPath>
<g clip-path="url(#cp744)">
<path transform="matrix(1,0,0,-1,70.8661,518.7075)" stroke-width=".5" stroke-linecap="butt" stroke-miterlimit="4" stroke-linejoin="miter" fill="none" stroke="#b9bbbd" d="M 0 0 L 453.543 0 "/>
</g>
</g>
</g>
<g id="Layer-1" data-name="Span">
</g>
<text fill="#404041" xml:space="preserve" transform="matrix(1 0 -0 1 0 841.89)" font-size="9" font-family="Roboto"><tspan y="-252.7372" x="70.8661 77.01849 81.69669 84.58569 87.27669 92.29779 97.15599 100.17999 102.90699 104.92299 109.49949 113.76729 118.42029 121.08428 125.40248 133.32068 136.74788 139.63689 142.32788 147.38048 150.56378 155.61728 160.66628 165.67028 168.36127 173.41297 178.23697 180.93697 185.54677 190.58676 195.15247 197.16847 202.01947 204.10028 208.75328 211.41728 216.08829 218.09799 220.1788 224.8849 227.9089 230.635 235.7173 239.98961 245.0701 250.14519 255.23468 263.21498 265.22468 269.82456 274.09236 278.74537 281.40937 284.42167 289.13859 294.13359 296.23237 300.93849 303.58897 305.30796 307.98997 313.08488 318.07987 320.77989 325.87477 330.59889 335.63258 338.77717 340.83546 344.04035 346.78987 351.49507 356.43608 359.19007 364.21119 369.0694 372.09339 374.8204 379.88743 384.55845 386.56816 388.64894 393.35505 396.37904 399.10606 401.12205 405.69856 409.96726 414.62028 417.28428 420.13008 424.92527 428.08518 430.97419 433.6652 438.7718 443.7146 446.4641 451.17024 454.1942 456.92124 461.59226 463.60197 465.68275 470.38887 473.41285 476.13987 480.77577 485.63398 490.67039 495.0705 499.62449 501.7674 506.8479 511.90953 516.6156 519.6396 522.3666 524.38259">Det har ikke v&#x00e6;rt brudd p&#x00e5; sosiale eller &#x00f8;konomiske regler, og bedriften har heller ikke f&#x00e5;tt b&#x00f8;ter eller sanksjoner i </tspan></text>
</g>
<g id="Layer-1" data-name="Span">
</g>
<g id="Layer-1" data-name="Span">
<text fill="#404041" xml:space="preserve" transform="matrix(1 0 -0 1 0 841.89)" font-size="9" font-family="Roboto"><tspan y="-241.9372" x="70.8661 75.9331 81.039699 86.1067 91.135898">2020.</tspan></text>
</g>
<g id="Layer-1" data-name="Span">
</g>
<text fill="#f1bc20" xml:space="preserve" transform="matrix(1 0 -0 1 0 841.89)" font-size="15" font-family="Roboto"><tspan y="-643.8552" x="70.8661 78.52509 85.90359 94.21809 99.30458 107.83058 111.56558 119.76908 128.27709 136.0456 144.15309 148.00809 155.85909 159.59409 167.54109 176.0191 184.47911 192.56111 200.20362 204.11261 212.05211 225.07212 233.02062 241.43262 246.73662 250.11913 253.85413 262.36363 267.73213 275.30714 279.15464 287.07164 290.85466 294.70967 303.18766 311.64765 319.44013 327.9706 333.1186 341.60859 350.12858 355.29008 363.46659 376.51509 389.53507 397.47459 402.74107 406.47605 414.96604 423.46205 427.19703 435.639 443.50804 451.08305 454.93055 460.23603 468.22203 476.682 480.53703 489.015 497.475 505.182 513.702 518.865 526.9875">413-1 Lokale engasjement, utviklingsprogrammer og p&#x00e5;virkningsgrad</tspan><tspan y="-759.7752" x="70.8661 78.52509 85.54959 92.94309 98.029598 106.54959 110.28459 119.89659 125.21709 133.7551 142.2706 150.7606 154.4956 162.9436 171.1036 174.83861 183.35861 188.9806 193.88262 202.32312 206.17061 213.80112 221.60112 225.33612 230.48412 238.35611 243.72461 248.74962 252.60462 261.1321 269.6086 277.48063 282.37364 290.31465">411-1 Brudd p&#x00e5; urfolks rettigheter</tspan></text>
<path transform="matrix(1,0,0,-1,410.284,277.2162)" stroke-width=".439" stroke-linecap="butt" stroke-miterlimit="10" stroke-linejoin="miter" fill="none" stroke="#1e5e9e" d="M 0 0 L 10.395 0 "/>
<path transform="matrix(1,0,0,-1,435.1603,277.2162)" stroke-width=".439" stroke-linecap="butt" stroke-miterlimit="10" stroke-linejoin="miter" fill="none" stroke="#1e5e9e" d="M 0 0 L 10.421 0 "/>
<g id="Layer-1" data-name="Span">
</g>
<g id="Layer-1" data-name="Span">
</g>
<g id="Layer-1" data-name="Span">
</g>
<g id="Layer-1" data-name="Span">
</g>
<g id="Layer-1" data-name="Span">
</g>
<g id="Layer-1" data-name="Span">
<text fill="#404041" xml:space="preserve" transform="matrix(1 0 -0 1 0 841.89)" font-size="9" font-family="Roboto"><tspan y="-619.333" x="70.8661 77.022098 80.0461 84.922298 87.8689 92.7271 97.7644 102.7594 104.7754 109.6786 114.07869 118.63269 120.90968 125.930789 130.78899 133.81299 136.10799 140.7862 143.6752 145.9342 150.9301 158.8483 162.2755 165.1645 167.42351 170.21802 175.29851 178.47281 183.5515 188.6095 190.6723 195.6763 197.9353 200.82431 202.84032 204.85633 207.13332 209.22762 214.3072 218.77301 223.59702 225.60762 230.24352 235.10982 242.98032 245.94132 250.9795 256.0168 261.07844 265.78456 270.84617 275.49919 277.7312 279.7472 282.0242 286.2965 291.38514 299.39964 307.38084 312.41996 317.48158 322.18769 327.2493 331.9023 334.13435 339.20225 343.90745 346.93144 349.22645 353.69136 355.70735 357.98435 363.06486 368.15885 372.86497 375.87727 380.58247 383.59477 388.30088 390.92616 393.07716 395.32807 401.00349 403.01948 405.29649 410.31849 415.1767 418.20069 420.4957 425.173 428.062 430.321 432.337 437.2222 442.2604 447.2554 451.83909 453.85508 458.6089 461.4979 463.56159 468.55659 470.8246 475.91947 480.62467 483.73146 488.33134 493.4262 498.1314 502.8573 505.7607 507.8523 512.1813 514.5033 519.555 524.37899">Gratanglaks har et n&#x00e6;rt forhold til lokalsamfunnene i kommunene der vi opererer. Vi har et langsiktig perspektiv p&#x00e5; </tspan><tspan y="-608.533" x="70.8661 75.331 77.347 80.5483 84.948398 89.5582 94.6468 102.6532 107.7193 112.3975 115.146099 119.852199 124.9732 126.6922 128.45529 133.55019 138.54518 140.31818 145.02338 148.04738 149.85457 154.93506 159.98766 164.93227 167.87888 172.67409 175.834 178.723 180.487 185.23091 189.5599 191.3941 196.21811 197.9911 202.591 207.05591 211.91411 217.00902 221.66202 223.39902 228.03491 232.90122 240.77172 243.73271 248.7718 253.8082 258.7492 260.57624 265.186 270.27464 278.24864 280.00996 284.71607 287.74006 289.54728 294.63587 299.72178 304.78877 309.44178 311.17878 316.00279 317.7758 322.86528 327.90528 329.63328 331.72218 333.87318 335.6273 341.3018 343.31779 345.1052 350.1263 354.98454 358.0085 359.81575 364.88273 369.58885 372.96833 375.76283 380.84245 383.86643 385.67366 390.35188 393.24089 395.00489 400.0944 407.9649 410.8107 415.6059 418.7649 421.5144 426.22053 431.26594 436.33384 440.98686 442.72386 447.58207 450.75636 455.85035 460.52226 462.58506 467.58906 469.35307 473.90348 478.82649 483.58567 486.74467 489.49418 494.1724 497.0614 498.8254 501.72883 503.7376 505.7536 507.54103 511.89344 516.7516 519.76388 524.4169">virksomheten, og er opptatt av &#x00e5; skape samfunn som er gode &#x00e5; bo i. Vi har derfor et omfattende arbeid knyttet til v&#x00e5;re </tspan><tspan y="-597.73306" x="70.8661 72.959499 78.03999 82.5049 87.328899 89.33949 93.974498 98.84079 106.71219 109.672298 114.711399 119.747798 124.8427 126.9937 130.1617 136.315 140.99231 143.88132 147.05832 149.07433 154.13773 158.65753 160.67354 165.75313 170.82103 175.52623 178.53853 183.24463 186.26863 189.48973 194.08963 199.17913 204.25872 209.242 213.8509 218.9314 221.9554 226.79561 229.54512 234.25032 236.90082 238.61981 241.79682 246.41202 249.16603 254.10883 257.26875 260.01734 264.67036 267.82038 270.70939 272.72538 274.74137 277.94178 282.42378 287.36479 289.54188 292.45878 297.49699 300.14747 301.86647 305.04347 309.90168 313.07597 316.09996 321.00315 326.04048 331.11647 335.83158 343.86589 348.57109 353.5373 356.2868 360.992 364.016 367.2371 372.3311 377.32609 380.5112 382.5749 387.60859 390.62089 395.2991 398.459 401.49925 403.21824 406.39524 409.29866 411.30744 413.32344 416.3627 421.04 424.19993 426.94944 431.62046 433.70216 438.41816 443.46806 448.46305 450.47904 455.56135 460.55635 463.74235 466.53684 471.61735 474.64134 477.86155 482.46144 486.73374 491.79176 493.87254 498.57865 503.67265 508.32566 512.9345 518.0177 522.6797 524.3987">lokalsamfunn. Det inkluderer sponsorater, st&#x00f8;tte til kultur, arrangementer og idrett, tilrettelegging for skolebes&#x00f8;k, </tspan><tspan y="-586.93307" x="70.8661 75.4759 80.5645 88.578998 96.6133 101.3185 104.4505 106.5943 111.6739 116.727397 121.821399 126.526599 129.5506 131.7376 134.5816 139.6612 142.6852 144.8722 149.95989 154.99808 160.05518 165.13568 170.22428 178.19828 180.38527 182.40128 184.58827 189.71016 197.71566 200.73966 205.56366 210.69367 215.37187 218.26088 220.44788 225.55088 230.54587 232.73287 234.78937 239.70876 242.50327 247.58286 250.76616 258.75547 263.55967 268.11366 270.25657 275.33708 280.3195 284.95539 289.8136 292.98789 298.08189 302.75379 304.8166 309.8206 312.0076 316.56523 321.48823 326.2474 329.4064 332.1559 336.83415 339.72315 341.91017 344.79917 346.82597 348.84196 351.02897 355.52268 357.53239 362.13227 367.14079 369.15678 374.222 379.21699 383.84568 388.45185 393.15705 398.12236 400.87187 405.57798 408.60197 410.78898 412.80497 414.99198 421.26228 424.28627 429.12648 432.07307 436.93128 441.96949 447.0446 451.7498 456.6908 458.8778 464.0429 469.0379 471.2249 475.9193 478.9433 484.03193 491.98704 496.5968 501.6008">sommerjobber for ungdom i omr&#x00e5;det og informasjonsarbeid knyttet til visningssenter i Gratangen og Troms&#x00f8;.</tspan><tspan y="-565.33309" x="70.8661 75.7675 80.4205 84.9745 87.1615 95.2228 99.9289 102.9529 105.1399 110.2753 118.2493 120.436298 124.7923 129.6505 133.0777 135.9667 138.1537 140.2579 145.3384 149.8033 154.6273 156.70812 161.41422 166.4515 171.4987 176.3029 180.8569 182.9881 187.7023 195.7366 200.4427 205.408 208.29701 210.48401 215.5312 220.5766 225.6445 230.3497 233.3737 235.5607 238.7548 240.77082 245.83512 250.92911 255.394 257.41 260.61219 265.16169 270.16929 272.18528 277.24958 282.32469 287.0308 290.05479 292.2418 297.38529 302.38029 304.5673 309.5083 311.6089 316.22407 318.97718 324.05769 327.20228 329.28398 333.98918 337.01316 339.20018 342.20167 345.22566 350.04966 352.23667 357.15519 360.16749 364.8457 367.7347 369.92173 374.98243 379.80644 381.99345 386.57444 388.63813 393.7051 398.41123 403.47285 408.12586">Les mer om v&#x00e5;rt lokalengasjement under ringvirkninger og historier fra &#x00e5;ret p&#x00e5; sidene </tspan></text>
</g>
<g id="Layer-1" data-name="Span">
<text fill="#1e5e9e" xml:space="preserve" transform="matrix(1 0 -0 1 0 841.89)" font-size="9" font-family="Roboto"><tspan y="-565.33309" x="410.2831 415.5625">06</tspan></text>
</g>
<g id="Layer-1" data-name="Span">
<text fill="#404041" xml:space="preserve" transform="matrix(1 0 -0 1 0 841.89)" font-size="9" font-family="Roboto"><tspan y="-565.33309" x="420.6781 422.8651 427.9609 432.9559"> og </tspan></text>
</g>
<g id="Layer-1" data-name="Span">
<text fill="#1e5e9e" xml:space="preserve" transform="matrix(1 0 -0 1 0 841.89)" font-size="9" font-family="Roboto"><tspan y="-565.33309" x="435.1591 440.5231">48</tspan></text>
</g>
<g id="Layer-1" data-name="Span">
</g>
<g id="Layer-1" data-name="Span">
</g>
<text fill="#404041" xml:space="preserve" transform="matrix(1 0 -0 1 0 841.89)" font-size="9" font-family="Roboto"><tspan y="-565.33309" x="445.5811">.</tspan><tspan y="-735.25308" x="70.86609 73.260089 75.87998 77.97428 83.05658 88.15058 92.82878 95.71778 98.304378 103.04827 107.37727 110.03227 115.09657 120.20317 125.26747 130.25348 132.83647 137.85756 142.71666 145.74066 148.36865 153.43566 158.11386 161.00287 163.58856 165.60457 170.18108 174.44889 179.10189 181.65969 185.97878 193.89698 197.32418 200.21318 202.79978 205.82378 210.72698 215.77959 220.8691 225.94959 229.37679 232.1263 236.8315 240.2587 243.1477 245.7343 250.80939 255.92589 260.63108 265.57209 268.2208 273.259 278.32603 282.99705 285.06074 290.06474 292.11854 297.19453 301.84754 304.40534 309.47236 314.17756 319.22386 324.29084 328.96186 330.97245 335.5786 340.2838 343.3078 345.93583 350.48533 355.40925 360.16755 363.32746 366.07698 370.7552 373.6442 376.22993 379.13334 381.14305 383.15904 385.76905 390.80818 394.18766 396.98127 402.03929 404.05528 408.48329 413.03727 415.64729 418.65959 423.3378 426.4977 429.38673 431.4504 436.4931 441.56013 446.23744 448.98695 453.69215 456.71614 459.34416 464.42286 469.46287 474.01686 476.62687 482.78288 485.80686 490.68305 493.62965 498.48786 503.52519 508.52018 510.53617 515.4394 519.8395 524.3935">I l&#x00f8;pet av 2020 har det ikke v&#x00e6;rt rapportert noen uheldige hendelser knyttet til urfolks rettigheter hos Gratanglaks </tspan><tspan y="-724.45309" x="70.86609 76.53429 81.96129">AS.</tspan></text>
<g id="Layer-1" data-name="Artifact">
<clipPath id="cp745">
<path transform="matrix(1,0,0,-1,0,841.89)" d="M 0 0 L 595.276 0 L 595.276 841.89 L 0 841.89 Z "/>
</clipPath>
<g clip-path="url(#cp745)">
<g filter="url(#blend_3)">
<clipPath id="cp746">
<path transform="matrix(1,0,0,-1,0,841.89)" d="M 69.8661 688.528 L 525.409 688.528 L 525.409 691.028 L 69.8661 691.028 Z "/>
</clipPath>
<g clip-path="url(#cp746)">
<path transform="matrix(1,0,0,-1,70.8661,152.11182)" stroke-width=".5" stroke-linecap="butt" stroke-miterlimit="4" stroke-linejoin="miter" fill="none" stroke="#b9bbbd" d="M 0 0 L 453.543 0 "/>
</g>
</g>
</g>
<g id="Layer-1" data-name="Span">
</g>
<text fill="#404041" xml:space="preserve" transform="matrix(1 0 -0 1 0 841.89)" font-size="8" font-family="Roboto" font-weight="bold"><tspan y="-44.7402" x="70.8661 75.7221">84</tspan></text>
</g>
<g id="Layer-1" data-name="Span">
</g>
<text fill="#404041" xml:space="preserve" transform="matrix(1 0 -0 1 0 841.89)" font-size="7" font-family="Roboto"><tspan y="-29.016" x="70.8661 75.325099 80.27409 84.705799 86.896099 91.5525 95.5915 99.468097 101.2111 103.35169 108.44069 113.24199 115.38258 120.274188 124.453189 128.67839 133.63159 138.2376 142.2661">SOSIALE INDIKATORER</tspan></text>
<g id="Layer-1" data-name="Artifact">
<clipPath id="cp747">
<path transform="matrix(1,0,0,-1,0,841.89)" d="M 0 0 L 595.276 0 L 595.276 841.89 L 0 841.89 Z "/>
</clipPath>
<g clip-path="url(#cp747)">
<path transform="matrix(1,0,0,-1,1119.685,802.3869)" stroke-width=".5" stroke-linecap="butt" stroke-miterlimit="4" stroke-linejoin="miter" fill="none" stroke="#404041" d="M 0 0 L -1048.819 0 "/>
</g>
<g id="Layer-1" data-name="Span">
</g>
<text fill="#404041" xml:space="preserve" transform="matrix(1 0 -0 1 0 841.89)" font-size="5" font-family="Roboto" font-weight="bold"><tspan y="-805.9686" x="70.8661 74.1961 77.381099 80.3461 82.9486 86.1286 89.6586 92.9886 95.8126 98.9926 102.1776 105.26759 106.512599 109.6926">GRATANGLAKS AS</tspan></text>
</g>
<g id="Layer-1" data-name="Span">
</g>
<g id="Layer-1" data-name="Span">
<text fill="#595959" xml:space="preserve" transform="matrix(1 0 -0 1 0 841.89)" font-size="5" font-family="Roboto"><tspan y="-805.9686" x="119.143 122.428 127.273 130.52301 133.533 136.838 140.088 143.51799 146.50099 149.616 152.75099 156.00099 159.43099 162.75598 166.08098 169.69098 172.74448">B&#x00c6;REKRAFTSRAPPORT</tspan></text>
</g>
<text fill="#404041" xml:space="preserve" transform="matrix(1 0 -0 1 0 841.89)" font-size="5" font-family="Roboto" font-weight="bold"><tspan y="-805.9686" x="179.688 182.558 185.428 188.29799">2020</tspan></text>
<g id="Layer-1" data-name="Artifact">
<clipPath id="cp748">
<path transform="matrix(1,0,0,-1,0,841.89)" d="M 0 0 L 595.276 0 L 595.276 841.89 L 0 841.89 Z "/>
</clipPath>
<g clip-path="url(#cp748)">
<path transform="matrix(1,0,0,-1,70.8661,39.3869)" stroke-width=".5" stroke-linecap="butt" stroke-miterlimit="4" stroke-linejoin="miter" fill="none" stroke="#404041" d="M 0 0 L 1048.819 0 "/>
</g>
</g>
</g>
</g>
</svg>
