<?xml version="1.0" encoding="UTF-8" standalone="no"?>
<!DOCTYPE svg PUBLIC "-//W3C//DTD SVG 1.1//EN" "http://www.w3.org/Graphics/SVG/1.1/DTD/svg11.dtd">
<svg xmlns="http://www.w3.org/2000/svg" xmlns:xlink="http://www.w3.org/1999/xlink" version="1.1" width="595.276pt" height="841.89pt" viewBox="0 0 595.276 841.89">
<g enable-background="new">
<g>
<g id="Layer-1" data-name="Span">
</g>
<g id="Layer-1" data-name="Span">
</g>
<g id="Layer-1" data-name="Span">
</g>
<text fill="#f1bc20" xml:space="preserve" transform="matrix(1 0 -0 1 0 841.89)" font-size="15" font-family="Roboto"><tspan y="-759.7736" x="70.8661 79.55859 88.0306 96.3451 102.8896 111.40961 115.14461 128.17812 136.09963 144.54463 152.71964 158.02513 166.54514 174.43514 178.31262 186.80263 194.74213 200.05513 208.55713 216.36763 224.16764 227.90264 240.91664 248.83815 257.32817 264.90318 268.75068 274.05619 282.04219 290.49919 294.3542 302.83219 311.32218 315.05717 318.94218 322.67716 333.21919 346.12818 355.1117 361.40119 369.5777 374.8817 383.4032 391.2932 395.17073 403.6607 411.5327">403-4 Medarbeidernes medvirkning i HMS-arbeidet</tspan><tspan y="-622.2536" x="70.8661 79.55859 88.030597 96.34509 102.61059 111.13659 114.87159 125.40309 138.3106 147.2941 153.9241 162.43212 170.96262 179.44513 183.25063 196.35913 201.60463 205.45963 213.93764 222.43364">403-5 HMS-oppl&#x00e6;ring </tspan><tspan y="-473.9336" x="70.8661 79.55859 88.0306 96.3451 102.9541 111.474109 115.20911 123.1666 128.3146 136.2541 149.30411 162.31812 170.16312 173.89812 181.77312 189.37812 193.11312 201.28662 206.59212 215.11212 223.00212 226.87961 235.31711 243.13512 248.24712 256.42213 263.9536 271.89314 277.11616 284.91615 288.65113 297.12763 305.01914 308.79914 316.52864">403-6 Fremme av arbeidstakers helse</tspan></text>
<g id="Layer-1" data-name="Artifact">
<clipPath id="cp729">
<path transform="matrix(1,0,0,-1,0,841.89)" d="M 0 0 L 595.276 0 L 595.276 841.89 L 0 841.89 Z "/>
</clipPath>
<g clip-path="url(#cp729)">
<filter id="blend_3"><feBlend mode="overlay" in2="BackgroundImage" in="SourceGraphic"/></filter>
<g filter="url(#blend_3)">
<clipPath id="cp730">
<path transform="matrix(1,0,0,-1,0,841.89)" d="M 69.8661 666.928 L 525.409 666.928 L 525.409 669.428 L 69.8661 669.428 Z "/>
</clipPath>
<g clip-path="url(#cp730)">
<path transform="matrix(1,0,0,-1,70.8661,173.71173)" stroke-width=".5" stroke-linecap="butt" stroke-miterlimit="4" stroke-linejoin="miter" fill="none" stroke="#b9bbbd" d="M 0 0 L 453.543 0 "/>
</g>
</g>
</g>
<g id="Layer-1" data-name="Artifact">
<g filter="url(#blend_3)">
<clipPath id="cp731">
<path transform="matrix(1,0,0,-1,0,841.89)" d="M 69.8661 518.61 L 525.409 518.61 L 525.409 521.11 L 69.8661 521.11 Z "/>
</clipPath>
<g clip-path="url(#cp731)">
<path transform="matrix(1,0,0,-1,70.8661,322.03004)" stroke-width=".5" stroke-linecap="butt" stroke-miterlimit="4" stroke-linejoin="miter" fill="none" stroke="#b9bbbd" d="M 0 0 L 453.543 0 "/>
</g>
</g>
</g>
<g id="Layer-1" data-name="Span">
</g>
<text fill="#404041" xml:space="preserve" transform="matrix(1 0 -0 1 0 841.89)" font-size="9" font-family="Roboto"><tspan y="-735.2513" x="70.8661 76.5415 78.557498 81.53649 86.043689 88.186588 93.26888 96.28118 100.98728 104.011287 107.00828 109.13948 113.78258 118.27718 123.28478 125.29448 127.34828 132.42337 137.07637 140.01036 145.04496 148.18956 150.24697 153.45188 156.34088 160.94979 168.98229 173.92508 176.67459 181.38069 184.4047 187.40169 192.31209 196.66898 201.74857 204.77257 207.76956 214.13706 221.95626 227.28426 230.34426 235.34825 237.35886 241.95786 246.43987 251.54286 254.29238 258.99757 262.00987 266.66288 271.32667 273.47767 276.43058 282.14558 284.30827 288.87394 290.88993 295.18925 300.13746 304.64018 309.6775 312.70149 317.76939 322.47459 325.61918 327.63517 332.69947 337.77546 342.48066 345.50465 348.50166 353.35987 358.30088 363.19688 365.30558 369.58058 374.31275 379.01795 382.03025 386.68327 391.23725 394.21626 399.31025 404.30525 407.27525 410.17866 412.18745 414.29344 417.23915 422.09825 426.50825 429.46925 434.50294 437.52693 442.4454 445.6503 448.3998 453.05284 457.6068 460.58583 465.6798 470.6748 473.6448 475.7373 480.08073 484.78684 487.96113 492.36125 496.9674 501.6447 504.80464 507.55415 512.20718 516.8719 519.0229 521.9749 524.3689">Vi kj&#x00f8;rer jevnlige driftsm&#x00f8;ter hvor HMS diskuteres. Risikovurderinger analyseres og tiltak dr&#x00f8;ftes og iverksettes. I </tspan></text>
</g>
<g id="Layer-1" data-name="Span">
</g>
<g id="Layer-1" data-name="Span">
</g>
<g id="Layer-1" data-name="Span">
</g>
<text fill="#404041" xml:space="preserve" transform="matrix(1 0 -0 1 0 841.89)" font-size="9" font-family="Roboto"><tspan y="-724.4514" x="70.8661 77.022098 80.0461 84.922298 87.8689 92.7271 97.7644 102.7594 104.7754 109.6786 114.07869 118.63269 120.87459 125.51049 130.37679 138.36699 143.22519 146.39949 151.4935 156.1654 158.22821 163.29611 168.00131 171.02532 173.28612 177.7501 179.76612 182.00711 190.04141 194.76552 199.76952 201.99161 207.56891 212.65122 215.27742 218.36713 223.04534 226.06934 231.15793 239.11392 243.66793 245.90982 252.28182 260.101 265.42903 267.74565 270.63465 272.76496 277.47016 282.53266 287.18568 291.80085 294.55036 299.20338 301.39039 304.0211 309.51829 315.06138 321.4289 329.2481 334.514 337.448 339.5927 341.6087 343.84883 349.08323 351.21443 355.91963 360.95603 366.03205 371.12068 378.99208 381.78657 386.86888 390.01347 392.02946 397.09468 402.16978 406.8759 411.8169 414.09843 418.84233 423.17134 425.45826 429.81156 434.66978 438.09696 440.98597 443.20539 449.5774 457.3966 462.8848 466.681 471.5392 474.7135 479.80839 484.4794 486.5431 491.629 493.78 495.9913 498.3853 500.63804 503.54145 505.55116 507.55995 509.64164 514.3576 519.4075 524.40249">Gratanglaks samarbeider vi med S&#x00f8;r-Troms HMS tjeneste (STHMS) i gjennomf&#x00f8;ringen av v&#x00e5;rt HMS-arbeid. I tillegg </tspan><tspan y="-713.6514" x="70.8661 75.8872 80.7454 83.7694 85.4794 89.944309 91.960308 93.6523 98.3296 101.2186 102.89259 107.75079 112.4776 115.3666 117.4681 122.213809 125.102809 126.7768 131.6359 134.8102 139.9042 144.57521 146.63892 151.64292 153.31691 157.9528 162.8191 170.8327 178.867 183.5731 188.5141 190.2511 198.2854 203.0095 208.0135 209.6875 214.0318 218.7379 221.9113 226.9738 231.7411 236.8306 244.83609 249.87339 254.92598 260.0542 261.7732 263.4382 266.2327 271.31233 274.3363 276.04634 280.87034 282.55335 287.11903 289.135 293.71153 296.72383 301.37684 303.02384 307.81904 310.70805 312.38206 317.24028 320.41456 325.50856 330.18046 332.24415 337.24815 341.8633 344.80903 349.66725 353.93504 358.64115 361.81544 366.87794 371.53096 376.08494 377.77696 382.34263 384.3586 388.93513 393.2029 397.9081 401.0824 406.1494 410.82673 413.86784 415.58683 417.25184 422.31794 426.98896 428.99955 433.6057 438.25874 439.90574 444.99974 449.99473 451.67774 456.02204 460.69306 462.75135 465.53324 470.23844 473.26243 478.26643 479.94044 484.64656 487.67054 489.38056 491.47306 495.82548 500.6837 503.69599 508.3742 511.3208 516.11599 519.27499 522.2648 524.4158">har vi et aktivt arbeid sammen med verneombud, for &#x00e5; sikre at arbeidstakernes sikkerhet, helse og velferd er ivaretatt. </tspan><tspan y="-702.85147" x="70.8661 76.1356 80.8408 84.0151 89.0776 93.8449 98.9344 106.9399 111.9763 117.02981 122.09681 126.77501 129.66402 131.85102 136.8802 141.7393 144.7633 146.9503 151.6087 156.6973 164.6713 166.85829 171.94239 176.99498 182.0512 187.09839 191.8423 196.1866 200.8396 203.0266 207.8506 210.0376 212.12921 216.48162 221.33982 224.35211 229.03032 231.97693 236.80094 238.98793 243.86144 247.03574 252.13063 256.80165 258.86534 263.86933 268.4845 271.4311 276.2893 280.5571 285.2623 288.43659 293.49909 298.1521 302.7061 304.8931 306.9091 311.9293 314.6779 319.384 322.3963 327.04933 331.66 336.26618 340.97138 343.99537 346.18238 348.19837 350.38539 355.09956 359.95777 364.22557 368.93168 371.95567 374.14268 378.80107 383.89057 391.86457 394.05158 398.9134 403.9507 408.9979 413.8561 416.8801 419.0671 423.97483 427.1491 432.2431 436.915 438.9787 443.9827 448.59159 456.57188 458.58067 460.60566 462.74858 467.86686 472.54417 475.53398">Verneombudet har som oppgave &#x00e5; ivareta arbeidstakernes interesser i saker som ang&#x00e5;r arbeidsmilj&#x00f8;et.</tspan></text>
<g id="Layer-1" data-name="Artifact">
<clipPath id="cp732">
<path transform="matrix(1,0,0,-1,0,841.89)" d="M 0 0 L 595.276 0 L 595.276 841.89 L 0 841.89 Z "/>
</clipPath>
<g clip-path="url(#cp732)">
<g filter="url(#blend_3)">
<clipPath id="cp733">
<path transform="matrix(1,0,0,-1,0,841.89)" d="M 69.8661 380.705 L 525.409 380.705 L 525.409 383.205 L 69.8661 383.205 Z "/>
</clipPath>
<g clip-path="url(#cp733)">
<path transform="matrix(1,0,0,-1,70.8661,459.9353)" stroke-width=".5" stroke-linecap="butt" stroke-miterlimit="4" stroke-linejoin="miter" fill="none" stroke="#b9bbbd" d="M 0 0 L 453.543 0 "/>
</g>
</g>
</g>
<g id="Layer-1" data-name="Span">
</g>
<text fill="#404041" xml:space="preserve" transform="matrix(1 0 -0 1 0 841.89)" font-size="9" font-family="Roboto"><tspan y="-597.733" x="70.8661 73.26009 74.58489 80.74089 83.76489 88.64109 91.58769 96.44589 101.48319 106.478199 108.494197 113.39739 117.797489 122.35149 123.66548 128.68747 133.54567 136.56967 137.90167 142.36656 144.38257 145.69657 150.77706 155.82967 160.85977 162.89469 170.81288 173.95749 175.9735 181.0378 186.03279 187.33238 190.12689 195.20738 198.23139 199.56339 204.63039 209.28339 210.54698 215.40518 220.38758 225.02347 229.81868 232.97859 235.7281 240.3811 241.6438 243.6598 244.9738 251.3413 259.1605 264.6955 266.8465 268.1281 274.2805 278.9587 282.1177 284.86723 289.52024 290.78385 296.01826 298.16206 303.24436 306.25666 310.90968 315.46366 316.77769 318.79368 320.1077 325.1738 329.8799 334.91633 339.99595 345.05305 347.11674 352.12074 353.41044 356.31385 358.32356 360.33955 361.65357 366.72148 371.39878 374.28779 375.57929 380.0442 382.06019 383.3742 388.3962 393.25444 396.2784 397.6104 402.2103 406.7301 408.7407 413.35047 417.95664 422.66276 426.08995 428.97895 430.27046 432.28645 433.60047 437.95378 442.81199 446.23918 449.12818 450.41969 455.50019 460.55278 465.58287 467.61775 475.53507 478.67967 480.69566 485.75996 490.75495 495.38365 499.93763 504.21263 508.9808 511.73033 516.4445 524.4185">I Gratanglaks har vi oppl&#x00e6;ring for de ansatte i HMS. Dette gj&#x00f8;res i henhold til det vi har skissert i v&#x00e5;rt oppl&#x00e6;ringssystem </tspan></text>
</g>
<g id="Layer-1" data-name="Span">
</g>
<g id="Layer-1" data-name="Span">
</g>
<g id="Layer-1" data-name="Span">
</g>
<g id="Layer-1" data-name="Span">
</g>
<g id="Layer-1" data-name="Span">
</g>
<g id="Layer-1" data-name="Span">
</g>
<g id="Layer-1" data-name="Span">
</g>
<g id="Layer-1" data-name="Span">
<text fill="#404041" xml:space="preserve" transform="matrix(1 0 -0 1 0 841.89)" font-size="9" font-family="Roboto"><tspan y="-586.933" x="70.8661 75.9601 80.9551 82.701099 84.793598 89.145999 94.004199 97.016498 101.694698 104.6413 109.445499 113.9995 115.759899 120.8548 125.8498 130.5037 135.3277 137.0737 139.0897 140.8447 145.9117 150.6169 155.65419 160.73288 165.78998 167.85369 172.85768 174.59468 177.4981 179.5069 181.5229 183.2779 187.6312 192.4894 195.5134 197.2927 199.3087 204.301 207.0505 211.7566 214.93091 219.9673 224.23961 229.3201 234.2854 237.2185 240.24251 245.2996 247.30931 249.39823 251.54923 253.27722 258.55125 263.40946 266.42176 271.07478 272.78569 280.81999 285.5441 290.5841 295.44233 298.6166 303.7106 308.3825 310.4453 315.5132 320.2184 323.2307 327.88374 329.59376 334.64634 339.47035 341.21635 349.25154 353.95674 356.9807 362.0486 366.7538 371.81544 376.46846 378.17848 382.88368 385.90766 387.68696 392.76658 397.81916 402.85017 404.88417 412.80238 416.22956 419.11857 420.85557 422.87156 424.62657 427.37608 432.0912 440.08049 444.93959 449.64479 452.66877 454.44807 459.05784 464.14646 472.12046 473.85386 478.90644 483.70164 486.59065 491.1563 493.1723 497.7488 502.0166 506.7218 509.8961 514.9631 519.6404 522.68148 524.40048">og ivaretas ogs&#x00e5; i henhold til v&#x00e5;r internkontroll. V&#x00e5;re medarbeidere p&#x00e5; merdene er oppl&#x00e6;rt i temaer som b&#x00e5;tsikkerhet, </tspan><tspan y="-576.133" x="70.8661 75.4318 77.4478 82.0243 86.293 90.9982 94.0222 96.299198 99.0811 103.7872 106.8112 111.8152 116.4214 121.0924 123.1084 125.36739 130.4614 135.45639 137.70099 142.2658 144.2818 148.8583 153.12612 157.83222 160.85622 163.13321 168.1858 171.36911 176.4082 180.8182 183.0592 187.80312 192.13211 194.43611 199.53821 202.42722 207.04242 210.20594 214.71312 217.73712 220.01412 225.10811 230.1031 232.3477 240.337 245.1412 249.7411 254.26091 256.27693 261.36643 266.07164 268.6969 270.8479 273.0754 275.48023 280.51756 285.57917 290.28529 295.2263 297.5249 302.54603 307.29084 311.78456 316.83805 320.02134 325.05867 329.46867 331.71058 336.4167 339.44068 341.71769 346.78468 351.4629 354.3519 356.58753 361.1874 366.2823 370.9353 375.50099 377.58177 382.25367 384.35877 387.24778 389.48429 392.62889 394.63948 399.20515 401.22114 405.52046 410.56047 412.76008 417.1035 421.8285 426.8325 429.0672 433.9254 437.0997 442.19459 446.8656 448.9293 453.9333 456.168 461.22059 466.0446 468.2883 476.3226 481.0278 484.0518 489.18 490.899 493.131 498.21965 506.22605 511.31553 516.39608 519.42007 524.4241">sikker ferdsel og sikker bruk av utstyr og maskiner. Innen havbruk er det spesielt risiko ved arbeid p&#x00e5; merd, ombord </tspan><tspan y="-565.333" x="70.8661 72.882099 75.06909 77.93919 83.01879 86.39919 89.4916 91.5076 96.3316 99.08109 103.78629 106.810298 108.99729 114.14079 119.135799 121.32279 126.19719 129.37149 134.46639 139.13739 141.2011 146.2051 150.805 155.85669 160.6519 163.40142 168.10752 170.73282 172.88382 175.07082 180.72461 182.73342 184.81513 189.46813 191.65512 196.23522 200.70012 205.52413 207.54013 209.72713 214.77703 219.60103 221.78803 224.76703 229.77553 231.78524 233.87685 238.22115 242.92635 245.95035 250.95435 253.00815 258.00315 260.19017 265.28688 270.33946 275.37046 277.40446 285.32267 288.46726 290.48326 295.54847 300.54347 302.73048 304.74647 306.93348 311.75749 313.9445 319.0583 322.24159 327.2798 331.5485 336.2015 338.38853 342.9182 345.9422 350.8454 355.907 360.61314 363.2636 364.9826 367.16963 372.25013 377.32975 381.87925 386.14704 390.85316 393.87715 396.06416 401.20765 406.20265 408.38966 412.87077 414.88676 419.89707 424.44657 426.57777 431.28297 433.90824">i f&#x00f2;rfl&#x00e5;ter og arbeidsb&#x00e5;ter. Alle skal ha fullverdig oppl&#x00e6;ring i &#x00e5; bruke kraner, nokker og vinsjer.</tspan><tspan y="-449.41304" x="70.8661 73.26009 75.81699 81.97299 84.996997 89.87319 92.81979 97.67799 102.715297 107.7103 109.726299 114.62949 119.02959 123.58359 126.129688 130.83579 133.85979 136.42389 141.2479 143.2567 145.33841 149.99141 152.4862 157.3444 162.3277 166.9636 171.7579 174.91782 177.66733 182.32033 184.81603 189.88303 194.58913 199.13863 203.40644 208.08374 210.97275 213.49634 218.24025 222.56925 225.16034 230.22734 234.88034 237.37604 242.29093 245.44814 248.23004 252.93524 257.90147 260.80488 262.81367 264.86836 269.94346 274.59648 277.09217 282.15827 286.83018 288.83988 293.44606 298.12336 301.01237 303.14268 307.8488 312.9104 317.56343 322.1786 324.9272 329.6333 334.69493 339.31553 341.46653 343.98115 350.15245 352.24674 357.32637 362.37895 367.20295 369.21894 371.76237 377.94987 380.35377 386.16508 388.35478 392.99159 394.97969 398.77949 403.38566 408.09086 411.51805 414.42146 416.57966 419.55867 421.46217 426.06834 430.77354 433.91813 435.9341 440.9984 445.9934 448.52513 453.6191 458.6141 461.14494 467.30094 473.53614 479.20436 484.70426 490.24827 492.77098 495.30537 501.46138 507.69566 513.3639 518.8638 524.4078">I Gratanglaks er alle ansatte dekket av de offentlige helsetjenestene. Global G.A.P.-sertifisering og GRASP (GRASP </tspan><tspan y="-438.61305" x="70.8661 73.440097 77.22279 83.39409 85.48839 90.567989 95.62058 100.44458 102.46058 105.06518 111.25268 113.65568 119.46698 121.65758 126.29437 128.44538 131.02027 134.16487 136.17458 140.74028 142.75629 147.05559 152.00379 156.50649 161.54468 164.56868 169.63658 174.34178 177.48639 179.5024 184.5667 189.56169 192.15369 197.20629 202.03029 204.62139 209.23119 214.27118 218.83689 220.85289 225.70389 227.7199 230.3245 235.37799 238.402 243.30519 247.70529 252.271 254.2807 258.55479 261.48878 263.99708 269.01908 273.8773 278.9227 283.9267 286.0084 290.7136 293.73759 296.36289 301.4515 309.4255 312.0049 316.86314 320.0374 325.1323 329.8033 331.867 336.934 341.6392 344.8144 349.876 354.52903 359.083 361.68943 366.75553 371.42744 373.43714 378.0433 382.70533 384.42433 387.00553 391.5712 393.5872 398.1637 402.4315 407.1376 410.3119 415.378 420.0562 422.94523 425.52915 430.62406 435.61906 438.21018 442.55448 447.2255 449.28379 452.06568 456.77088 459.79487 464.88166 467.03266 469.60758 475.9976 480.7037 483.7277 486.3521 490.9673 493.8707 495.8804 497.8892 499.9709 504.6239 509.1779 511.7843 516.85226 521.52957 524.4185">- Global G.A.P. risikovurdering p&#x00e5; sosial praksis) handler om arbeidernes helse, sikkerhet og velferd. Her stilles det </tspan><tspan y="-427.81306" x="70.8661 75.415599 78.4396 83.22849 87.557498 90.07749 92.98089 94.989688 97.005687 99.48068 105.84818 113.66739 118.99539 121.55139 126.64629 131.6413 134.1073 139.18689 144.24039 149.27048 151.30539 159.22269 162.3673 164.3833 169.4476 174.4426 176.9086 181.65251 185.9815 188.5015 193.3597 198.34299 202.97798 207.7732 210.9331 213.68262 218.30233 220.45333 222.90222 229.05553 233.73284 236.62184 239.07884 243.78404 246.80805 249.30104 254.39594 259.39094 264.04484 268.86885 271.33485 276.38655 281.21055 283.22654 288.09104 293.19764 296.08665 298.54365 306.57795 311.30296 316.30696 318.76396 323.47007 328.41108 330.9311 335.7893 338.9339 340.9436 342.9974 347.9924 350.4584 355.6928 357.82313 362.52925 367.56565 372.64167 377.7303 385.73939 390.78749 395.6457 400.683 405.678 408.144 412.88883 417.21784 419.73786 424.56187 426.57157 428.65235 433.30537 435.73539 440.80238 445.45539 447.8854 452.74363 457.72694 462.3619 467.1571 470.31703 473.06654 477.71955 482.27354 484.74855 489.49244 494.23905 497.18565 502.00965 504.09043 508.79655 511.82054 514.31356 519.40756 524.4025">krav til HMS og oppl&#x00e6;ring av ansatte. Det er ogs&#x00e5; p&#x00e5;lagt med en &#x00e5;rlig gjennomgang av alle de ansattes avtaler og </tspan><tspan y="-417.01307" x="70.8661 73.6606 78.7402 81.8479 86.4127 88.453899 93.003398 96.099399 98.18739 103.22469 108.3007 113.025699 115.632999">forsikringer.</tspan></text>
</g>
<g id="Layer-1" data-name="Span">
</g>
<g id="Layer-1" data-name="Span">
<text fill="#f1bc20" xml:space="preserve" transform="matrix(1 0 -0 1 0 841.89)" font-size="15" font-family="Roboto"><tspan y="-336.0317" x="70.8661 79.55859 88.0306 96.3451 101.623607 110.1436 113.8786 121.9891 130.4971 135.6451 143.5846 151.8526 159.1951 167.7106 176.17061 180.0256 188.50362 196.99362 200.72863 209.21863 217.70864 221.44364 229.96964 237.86864 246.38864 251.53664 259.4836 267.8971 275.69709 284.15409 288.0091 296.4871 304.97709 308.71208 316.58708 324.19209 327.92707 336.00608 343.79856 352.31105 360.25205 368.43305 373.32606 381.26557 386.53059 390.26557 403.28108 411.20259 419.69258 423.42756 431.27256 436.63356 441.53556 449.47508 457.65757 462.78758 466.52256 474.96907 483.12907 486.86405 495.04655 503.46003 511.224 519.303 524.6715 529.563 537.3735 545.17349">403-7 Forebygging og begrensning av aspekter med effekt p&#x00e5; ansattes </tspan><tspan y="-318.0317" x="70.8661 79.3426 87.2326 91.012599 98.742099 106.6411 113.3011 117.0361 125.5261 134.0161 137.7511 145.4761 149.3236 157.3006 164.8306 172.77159 178.0846 186.5611 194.43309 199.5631 203.2981 211.7401 215.58759 220.73558 228.67508 236.85608 241.74909 249.59409 253.32909 261.32258 269.57557 277.59608 282.96458 287.85609 295.72959 300.8596 304.59458 309.62409 313.4056 317.29063 321.0256 325.9321 334.4401 339.7456 344.89363 352.76564 357.83265 366.28965 370.14466 378.62266 387.08265 394.86164 399.76365 408.27165 413.57716 422.06715 425.92216 434.44664 442.9366 450.82664 454.60664 462.33613 470.27714">helse- og sikkerhet direkte knyttet til forretningsforbindelser</tspan></text>
</g>
<g id="Layer-1" data-name="Span">
</g>
<g id="Layer-1" data-name="Span">
</g>
<g id="Layer-1" data-name="Span">
</g>
<text fill="#404041" xml:space="preserve" transform="matrix(1 0 -0 1 0 841.89)" font-size="9" font-family="Roboto"><tspan y="-293.5094" x="70.8661 76.5415 78.557498 81.41049 84.204998 89.28549 92.699199 97.042598 101.748699 106.714 109.46349 114.16959 117.193599 120.06459 124.80849 129.13748 132.03548 136.38878 141.24698 144.25928 148.91228 151.71578 153.79749 158.44058 162.78488 167.49008 170.51409 175.41638 180.46268 185.54228 190.62549 193.63779 198.34299 201.36699 204.23799 209.0332 211.92221 214.7572 219.8251 224.4781 227.2816 231.8815 236.3464 241.17041 243.18642 246.03942 250.64922 255.73242 258.74473 263.81983 268.47285 271.27635 274.07084 279.15135 282.17533 285.04634 289.72364 292.61265 295.44767 298.38078 301.81156 306.14775 311.25434 314.14335 316.97837 322.07237 327.06736 329.91139 334.47706 339.51618 344.48149 347.37049 350.2055 358.1867 360.1955 362.2205 364.3634 369.3764 372.20243 374.99693 380.07655 383.10054 385.97154 390.53633 392.5523 397.64094 402.29396 405.10197 409.96018 413.13447 418.22846 422.90037 424.96318 430.03108 434.73628 437.74858 442.40159 445.2096 450.3036 455.29859 458.1426 462.8478 467.8131 470.74623 473.7585 478.46464 483.5172 486.5295 491.23564 496.31074 501.39393 504.40623 509.11143 511.73674 513.8877 516.7137 522.38906 524.405">Vi forventer av v&#x00e5;re leverand&#x00f8;rer at de skal s&#x00f8;rge for et trygt og sunt milj&#x00f8; for sine arbeidere og entrepren&#x00f8;rer. Vi </tspan><tspan y="-282.7094" x="70.8661 75.4813 78.3847 80.39349 82.40319 84.483989 89.19009 92.21409 95.652088 100.28799 105.15428 113.16878 121.20308 125.85608 129.23108 133.78058 136.80458 141.59349 145.92249 149.38748 152.27649 154.2925 156.3085 159.7285 164.0818 168.94 171.9523 176.6053 179.9803 182.06111 186.70511 191.04941 195.75461 198.77861 203.68181 208.7281 213.80771 218.89002 221.90232 226.60842 229.63242 233.07042 237.67932 242.76882 250.74282 254.1358 258.59983 260.6158 264.03584 268.65013 271.55354 273.56324 275.57203 277.65373 282.35893 285.3829 288.82093 291.72434 293.73313 295.7491 299.16914 304.20915 308.81983 313.3738 316.79383 321.4 326.071 328.1635 332.21174 333.93074 337.32374 342.41865 347.41365 350.82466 355.90696 360.89027 365.48927 369.75798 374.46318 377.48716 380.92518 385.72038 388.60939 392.01139 395.15599 397.16658 401.73225 403.74824 408.04756 413.16407 417.86927 420.89326 424.33128 428.93116 433.39607 438.22007 440.23606 443.65696 451.63816 453.65415 458.68876 460.73896 468.77326 473.47938 476.49168 481.14469 485.69868 489.11778 494.35307 496.48426 501.18946 506.22587 511.30189 516.39047 524.36447">stiller samme krav til v&#x00e5;re leverand&#x00f8;rer som vi stiller til oss selv, og &#x00f8;nsker at risikoer skal minimeres gjennom </tspan><tspan y="-271.90943" x="70.8661 74.0107 76.026699 80.779598 83.68299 85.73679 90.8119 95.4649 99.321399 107.3557 112.033 114.786998 119.872898 124.939899 129.646 132.2965 134.01549 137.89539 141.07869 146.18169 149.0851 151.1011 156.1897 160.8958 163.5463 165.26529 169.14609 174.22568 179.27918 184.18328 186.97779 192.03759 194.09229 199.08728 201.10329 206.18558 211.18058 215.07218 220.16707 225.16207 229.05367 234.10628 237.13028 242.17028 246.77558 251.50058 256.6027 261.1099 264.1222 268.8274 271.45359 273.60459 277.4791 283.63148 288.3097 291.4696 294.21913 298.87214 302.72776 307.34294 310.50645 315.01365 318.02595 322.67897 327.23295 331.13716 336.37156 338.50276 343.20796 348.24528 353.32038 358.409 366.383 370.262 373.40748 375.41719 379.98286 381.99885 386.29817 391.24726 395.74906 400.78819 403.81217 408.87916 413.58528 416.72987 418.74586 423.81108 428.88618 433.5923 436.24278 437.96177 441.84257 446.44786 451.15397 454.58116 457.48457 459.64186 462.62086 464.52436 469.13053 473.83665 476.98124 478.99723 484.06153 489.05653 493.6744 498.2239 501.2479 506.0368 510.3658 514.3168 519.4116 524.4066">riktige metoder, rutiner, oppf&#x00f8;lging og prosedyrer. Dette styres gjennom risikovurderinger, sertifiseringskrav og </tspan><tspan y="-261.10945" x="70.8661 75.58209 80.6581 85.383098 90.4267 95.151699 98.308 102.827808 104.8618 112.78 115.876 117.964 123.0013 128.0773 132.8023 135.856 138.043 140.995 144.0631 148.90149 151.08849 153.17018 157.8142 162.1576 166.8826 169.9327 174.7909 179.83629 184.9123 189.9973 193.0096 197.7346 202.7782 207.3988">egenerkl&#x00e6;ringer fra leverand&#x00f8;rene.</tspan></text>
<g id="Layer-1" data-name="Artifact">
<clipPath id="cp734">
<path transform="matrix(1,0,0,-1,0,841.89)" d="M 0 0 L 595.276 0 L 595.276 841.89 L 0 841.89 Z "/>
</clipPath>
<g clip-path="url(#cp734)">
<g filter="url(#blend_3)">
<clipPath id="cp735">
<path transform="matrix(1,0,0,-1,0,841.89)" d="M 69.8661 227.572 L 525.409 227.572 L 525.409 230.072 L 69.8661 230.072 Z "/>
</clipPath>
<g clip-path="url(#cp735)">
<path transform="matrix(1,0,0,-1,70.8661,613.0676)" stroke-width=".5" stroke-linecap="butt" stroke-miterlimit="4" stroke-linejoin="miter" fill="none" stroke="#b9bbbd" d="M 0 0 L 453.543 0 "/>
</g>
</g>
</g>
<g id="Layer-1" data-name="Span">
</g>
<text fill="#f1bc20" xml:space="preserve" transform="matrix(1 0 -0 1 0 841.89)" font-size="15" font-family="Roboto"><tspan y="-182.8994" x="70.8661 79.55859 88.0306 96.3451 102.72311 111.2431 114.9781 124.606609 129.91062 138.43062 146.32212 150.1996 158.6371 166.4296 171.57759 179.46759 183.28058 191.35808 196.25109 204.19058 209.85009 214.74309 222.58809 226.32309 234.1231 241.89009 250.0141 258.5041 266.4436 271.70863">403-9 Arbeidsrelaterte skader </tspan></text>
</g>
<g id="Layer-1" data-name="Span">
</g>
<g id="Layer-1" data-name="Span">
</g>
<g id="Layer-1" data-name="Span">
</g>
<g id="Layer-1" data-name="Span">
</g>
<text fill="#404041" xml:space="preserve" transform="matrix(1 0 -0 1 0 841.89)" font-size="9" font-family="Roboto"><tspan y="-158.3771" x="70.8661 76.1401 80.9983 84.0223 86.6233 91.0882 93.0979 97.6519 99.7948 104.8744 109.8154 112.437999 117.143199 120.1672 122.768199 127.7092 132.78969 134.7994 136.8154 139.39569 143.99559 148.4605 153.2845 158.37039 163.07559 165.7009 167.8519 170.4034 176.5558 181.23401 184.39392 187.14253 191.79553 194.32813 198.92803 203.39293 208.21694 210.23294 212.81324 217.27812 219.29413 221.87442 226.95491 232.00753 237.06104 242.00203 246.82604 246.82604 251.65363 256.88893 259.01924 263.72535 268.76176 273.83686 278.92637 286.90037 289.45549 294.1616 299.1026 301.7243 306.33949 309.089 313.7942 316.96849 321.37849 323.9426 328.4246 333.3656 335.5427 338.4596 343.49873 346.5227 349.12373 351.91734 356.99784 360.02183 362.62284 367.68894 372.36085 374.37055 378.9767 383.63963 385.3586 387.91554 395.8958 397.90553 399.9296 402.0725 407.0855 409.64064 414.73463 419.7296 422.29734 426.863 428.879 433.4555 437.7233 442.4285 445.60279 450.6698 455.3471 458.2361 460.79664 463.65776 470.02976 477.84898 483.11488 485.87968 488.03068 490.58219 495.6483 500.5893 503.211 507.6759 509.6919 514.44479 517.34817 519.40286 524.3978">V&#x00e5;r visjon er null skader. Dette skal vi oppn&#x00e5;&#x030a; gjennom en sterk kultur for helse, milj&#x00f8; og sikkerhet (HMS). En viktig </tspan><tspan y="-147.5771" x="70.8661 75.9331 80.604999 82.620998 85.19499 89.93889 94.26789 96.88689 101.95389 106.63209 109.791088 112.54058 117.19358 119.71718 124.57538 127.74968 132.84369 137.5156 139.5784 144.6463 149.32361 152.21262 154.76862 159.47382 162.49782 165.08982 170.1703 175.22292 180.25392 182.28794 190.20613 193.35074 195.36675 200.43195 205.42694 207.98564 213.08054 218.07553 220.63513 222.65114 227.58493 231.94092 236.99892 239.09053 243.43483 248.14003 251.28464 253.30065 258.36494 263.35993 265.91954 270.66343 274.99244 277.61054 285.64485 290.36985 295.40895 300.26716 303.44145 308.53544 313.20735 315.27104 320.338 325.0432 328.0555 332.70854 335.23216 337.24815 339.82215 344.64616 346.65586 348.73664 353.38966 355.91328 360.98027 365.65217 367.73295 372.43907 375.46305 378.05506 382.79896 387.12797 389.74699 394.21189 396.22789 399.42918 403.82929 408.43907 413.52857 421.53407 426.60017 431.27839 434.0279 438.7331 443.828 445.979 448.5215 454.20503 457.3793 462.47419 467.1452 469.2089 474.2129 476.7635 481.8152 486.6392 489.1979 497.2331 501.9383 504.96229 510.03019 514.73538 519.79788 524.45089">del av dette arbeidet er oppl&#x00e6;ring og involvering av medarbeidere i alle deler av virksomheten. Arbeid p&#x00e5; merdene </tspan><tspan y="-136.7771" x="70.8661 78.9004 83.6254 88.67619 91.470699 96.55299 99.56529 104.27139 107.295398 109.83519 112.97979 114.98949 119.55519 121.57119 125.87048 130.91048 133.37198 137.98088 143.07038 151.04438 153.53827 158.56836 160.58437 165.46958 170.43488 173.32389 175.82228 180.68048 185.71778 190.77938 195.45758 198.34659 200.84499 205.36479 207.4465 212.1607 220.0321 222.87702 227.73522 230.74752 235.41042 237.12941 239.6251 242.47002 247.29402 249.30373 251.31974 253.83884 258.89143 263.71543 266.22105 270.77503 272.91795 278.03535 282.74147 287.68247 290.24299 295.33699 300.33198 302.83848 305.68428 310.54249 313.55479 318.2078 320.6792 323.4728 328.5533 331.5773 334.1144 338.93843 341.44404 346.47505 348.48384 350.49983 353.01893 355.95204 359.1353 364.1906 367.3478 370.1297 374.80793 377.69694 380.19535 384.93925 389.26826 391.83418 397.06947 399.19978 403.90498 408.88829 413.50346 416.44917 421.30738 426.35368 431.42066 436.12678 439.15077 441.68968 443.70567 446.22569 451.31968 455.9628 460.3071 465.0231 470.0991 474.7701 476.7807 481.38688 486.0066 488.1576 490.647 495.7131 500.6541 503.21464 507.67955 509.69554 514.4484 517.3518 519.4065 524.4015">medf&#x00f8;rer risiko som blant annet klemfare, fall p&#x00e5; sj&#x00f8;en og fare for &#x00e5; bli truffet av gjenstander i bevegelse. En viktig </tspan><tspan y="-125.9771" x="70.8661 75.9331 80.604999 82.620998 85.39299 87.40899 90.180988 94.53429 99.39249 102.81969 105.70869 108.462688 113.320888 116.495189 121.58919 126.261089 128.32389 133.32788 136.08188 140.78708 143.81108 146.60648 151.68607 156.73867 161.76967 163.80368 171.72188 174.86649 176.88249 181.9468 186.94179 189.70479 194.79969 199.79468 202.55768 207.38169 210.14469 214.82199 217.7686 222.6268 227.65689 229.7386 234.4438 237.4561 242.1091 244.83609 249.92469 255.01058 260.0146 262.7686 267.25059 272.2897 277.3261 282.30943 286.9093 291.3742 296.2315 301.2175 303.9895 309.0835 314.0785 316.8415 321.9355 326.5795 331.0444 333.0541 337.6648 342.27998 345.2122 350.2792 354.9565 357.84553 360.59953 365.67915 370.71916 375.27314 378.04426 382.86827 384.87705 386.95875 391.61177 394.33879 398.6912 403.5494 406.5617 411.21473 413.94084 416.73533 421.79243 423.8084 428.2184 430.99943 435.54893 440.47285 445.23115 448.39106 451.14057 455.81788 458.70689 461.46089 464.3643 466.37309 468.38908 471.16108 475.51438 480.3726 483.39659 486.18659 491.21669 493.23268 498.11787 503.05888 505.8759 508.67039 513.7509 516.7749 519.56497 524.3889">del i v&#x00e5;rt arbeid er oppl&#x00e6;ring og &#x00e5; etablere god kunnskap og bevissthet hos alle v&#x00e5;re folk knyttet til v&#x00e5;r plan for &#x00e5; </tspan></text>
<g id="Layer-1" data-name="Span">
<text fill="#404041" xml:space="preserve" transform="matrix(1 0 -0 1 0 841.89)" font-size="9" font-family="Roboto"><tspan y="-115.1771" x="70.8661 73.6606 78.7402 81.9145 86.8555 88.8715 94.0168 99.0505 102.0628 106.7158 108.902797 113.482898 117.9478 122.7718 127.8577 132.5629 135.5869 137.7739 142.91739 147.91239 150.09938 153.12339 157.84839 162.88118 167.82218 172.49948 177.20558 180.21788 184.87088 187.05788 190.18268 192.19329 196.75809 198.7741 203.0734 208.07559 210.2266 212.41359 217.98189 222.68799 227.65329 230.5864 233.6104 238.4794 240.5845 243.47351 245.6605 247.67652 249.86351 254.9683 259.6465 262.80644 265.55503 270.20805 272.39506 277.23347 280.40776 285.50263 290.17366 292.23735 297.30433 301.98255 304.87156 307.05857 311.77278 314.79676 316.98377 322.12727 327.12226 331.77616 336.60017">forhindre skader og redusere risiko. Sentralt i dette arbeidet er ogs&#x00e5; </tspan></text>
<g id="Layer-2" data-name="Span">
</g>
<text fill="#404041" xml:space="preserve" transform="matrix(1 0 -0 1 0 841.89)" font-size="9" font-family="Roboto"><tspan y="-115.1771" x="338.8096">&#x00e5;</tspan></text>
<text fill="#404041" xml:space="preserve" transform="matrix(1 0 -0 1 0 841.89)" font-size="9" font-family="Roboto"><tspan y="-115.1771" x="343.6516 345.83863 351.0685 353.1997 357.9049 362.94224 368.01734 373.10685 380.97737 383.77186 388.85417 391.86647 396.51948 398.70649 401.48118 406.5608 409.57398 414.27919 419.21568 423.55097 428.59996 433.67594 438.38114 443.42744 448.49443 453.14744 455.33445 458.22346 460.22416 462.32926 465.27586 470.13407 474.74119 476.89219"> gjennomf&#x00f8;re forebyggende tiltak. </tspan></text>
</g>
<g id="Layer-1" data-name="Span">
</g>
<g id="Layer-1" data-name="Span">
</g>
<text fill="#404041" xml:space="preserve" transform="matrix(1 0 -0 1 0 841.89)" font-size="8" font-family="Roboto" font-weight="bold"><tspan y="-44.7402" x="70.8661 75.578098">82</tspan></text>
<text fill="#404041" xml:space="preserve" transform="matrix(1 0 -0 1 0 841.89)" font-size="7" font-family="Roboto"><tspan y="-29.016" x="70.8661 75.325099 80.27409 84.705799 86.896099 91.5525 95.5915 99.468097 101.2111 103.35169 108.44069 113.24199 115.38258 120.274188 124.453189 128.67839 133.63159 138.2376 142.2661">SOSIALE INDIKATORER</tspan></text>
<g id="Layer-1" data-name="Artifact">
<clipPath id="cp736">
<path transform="matrix(1,0,0,-1,0,841.89)" d="M 0 0 L 595.276 0 L 595.276 841.89 L 0 841.89 Z "/>
</clipPath>
<g clip-path="url(#cp736)">
<path transform="matrix(1,0,0,-1,1119.685,802.3869)" stroke-width=".5" stroke-linecap="butt" stroke-miterlimit="4" stroke-linejoin="miter" fill="none" stroke="#404041" d="M 0 0 L -1048.819 0 "/>
</g>
<g id="Layer-1" data-name="Artifact">
<path transform="matrix(1,0,0,-1,70.8661,39.3869)" stroke-width=".5" stroke-linecap="butt" stroke-miterlimit="4" stroke-linejoin="miter" fill="none" stroke="#404041" d="M 0 0 L 1048.819 0 "/>
</g>
</g>
</g>
</g>
</svg>
