<?xml version="1.0" encoding="UTF-8" standalone="no"?>
<!DOCTYPE svg PUBLIC "-//W3C//DTD SVG 1.1//EN" "http://www.w3.org/Graphics/SVG/1.1/DTD/svg11.dtd">
<svg xmlns="http://www.w3.org/2000/svg" xmlns:xlink="http://www.w3.org/1999/xlink" version="1.1" width="595.276pt" height="841.89pt" viewBox="0 0 595.276 841.89">
<g enable-background="new">
<g>
<g id="Layer-1" data-name="Span">
</g>
<text fill="#404041" xml:space="preserve" transform="matrix(1 0 -0 1 0 841.89)" font-size="12" font-family="Roboto"><tspan y="-762.0236" x="70.8661 76.900897 83.452899 90.2809 96.6061 99.6457 102.75729 105.74529 112.5853 118.975299 124.90809 128.99649 135.06009">Tabell 301-1b</tspan></text>
<path transform="matrix(1,0,0,-1,70.8661,137.99652)" stroke-width="1" stroke-linecap="butt" stroke-miterlimit="10" stroke-linejoin="miter" fill="none" stroke="#231f20" d="M 0 0 L 91.654 0 "/>
<path transform="matrix(1,0,0,-1,162.5197,137.99652)" stroke-width="1" stroke-linecap="butt" stroke-miterlimit="10" stroke-linejoin="miter" fill="none" stroke="#231f20" d="M 0 0 L 85.802 0 "/>
<path transform="matrix(1,0,0,-1,248.322,137.99652)" stroke-width="1" stroke-linecap="butt" stroke-miterlimit="10" stroke-linejoin="miter" fill="none" stroke="#231f20" d="M 0 0 L 80.315 0 "/>
<path transform="matrix(1,0,0,-1,328.637,137.99652)" stroke-width="1" stroke-linecap="butt" stroke-miterlimit="10" stroke-linejoin="miter" fill="none" stroke="#231f20" d="M 0 0 L 87.874 0 "/>
<path transform="matrix(1,0,0,-1,416.511,137.99652)" stroke-width="1" stroke-linecap="butt" stroke-miterlimit="10" stroke-linejoin="miter" fill="none" stroke="#231f20" d="M 0 0 L 107.716 0 "/>
<g id="Layer-1" data-name="Span">
</g>
<g id="Layer-1" data-name="Span">
</g>
<g id="Layer-1" data-name="Span">
</g>
<g id="Layer-1" data-name="Span">
</g>
<g id="Layer-1" data-name="Span">
</g>
<g id="Layer-1" data-name="Span">
</g>
<g id="Layer-1" data-name="Span">
</g>
<g id="Layer-1" data-name="Span">
<text fill="#10a79d" xml:space="preserve" transform="matrix(1 0 -0 1 0 841.89)" font-size="9" font-family="Roboto" font-weight="bold"><tspan y="-719.9474" x="74.8661 79.5524 84.295398 89.5019 94.2089 96.449909 104.41401 109.35411 112.46632 117.34161 120.60861 123.11061 128.05072 130.55272 186.55609 191.6384 199.5467 204.73072 209.6717 212.15032 216.84471 219.34941 224.05551 226.29651 229.66432 234.40642 239.61383 313.85209 319.54908">Type MaterialeEmbalsje typeKg</tspan><tspan y="-725.3474" x="347.7461 353.3945 358.58659 366.49488 374.3816 379.26499 384.44898 387.68898 392.65339 395.8223 398.0633 403.09608 407.67167 412.50559">Kommentar hva </tspan><tspan y="-714.5474" x="358.8251 364.0271 368.8916 372.0236 374.2646 379.48368 382.80198 388.01747 392.77488 397.5818 402.2258 404.4668 407.6402 410.1026">det brukes til</tspan><tspan y="-725.3474" x="427.0901 433.0373 438.2429 443.44398 448.29139 450.6944 452.9354 457.6478 462.83988 470.62489 472.86589 477.6251 482.81629 490.7255 498.6113 503.4875 506.6555 508.89649 512.1347 515.38827 520.22128">Andel som kommer fra </tspan><tspan y="-714.5474" x="436.5221 439.7711 444.5771 449.2994 451.80143 455.10624 460.02925 465.21144 467.71345 472.58964 476.09873 479.2325 481.4735 489.3656 494.3057 497.41789 502.29319 505.56019 508.0622 513.0014 515.5034">resirkulert materiale</tspan></text>
</g>
<g id="Layer-1" data-name="Span">
</g>
<g id="Layer-1" data-name="Span">
</g>
<g id="Layer-1" data-name="Span">
</g>
<g id="Layer-1" data-name="Span">
</g>
<g id="Layer-1" data-name="Span">
</g>
<g id="Layer-1" data-name="Span">
</g>
<g id="Layer-1" data-name="Span">
</g>
<g id="Layer-1" data-name="Span">
</g>
<g id="Layer-1" data-name="Span">
</g>
<g id="Layer-1" data-name="Span">
</g>
<g id="Layer-1" data-name="Span">
</g>
<g id="Layer-1" data-name="Span">
</g>
<g id="Layer-1" data-name="Span">
</g>
<g id="Layer-1" data-name="Span">
</g>
<g id="Layer-1" data-name="Span">
</g>
<g id="Layer-1" data-name="Span">
</g>
<g id="Layer-1" data-name="Span">
<text fill="#231f20" xml:space="preserve" transform="matrix(1 0 -0 1 0 841.89)" font-size="9" font-family="Roboto"><tspan y="-673.1204" x="73.6871 79.25451 81.296619 86.08462 90.71781 220.76509 225.24709 229.1117 234.72769 240.0863">Plast1-PET</tspan><tspan y="-655.1834" x="73.6871 79.25451 81.296619 86.08462 90.71781 213.6911 218.5628 222.42742 228.84442 234.78443 240.51743">Plast2-HDPE</tspan><tspan y="-637.2464" x="73.6871 79.25451 81.296619 86.08462 90.71781 219.5051 224.6108 228.4754 234.1895 239.7335">Plast3-PVC</tspan><tspan y="-619.3094" x="73.6871 79.25451 81.296619 86.08462 90.71781 214.7171 219.85431 223.71892 228.7922 234.73221 240.51021">Plast4-LDPE</tspan><tspan y="-601.3724" x="73.6871 79.25451 81.296619 86.08462 90.71781 225.26509 230.4383 234.30289 239.90988">Plast5-PP</tspan><tspan y="-583.43539" x="73.6871 79.25451 81.296619 86.08462 90.71781 225.27411 230.47072 234.33533 240.04494">Plast6-PS</tspan><tspan y="-565.49838" x="73.6871 79.25451 81.296619 86.08462 90.71781 225.68811 230.1251 233.9897 239.7038">Plast7-PC</tspan><tspan y="-547.56137" x="73.6871 79.2491 84.0911 89.1617 94.1 97.7972 103.4321 108.2741 111.7193 114.4733 119.552898 124.591098">Papp/Kartong</tspan><tspan y="-529.6243" x="73.6871 78.3653 81.3776 86.020709 90.365009 95.0702 98.2445 223.2221 228.7859 233.6099 235.58989 237.69858 242.40378">TreverkPaller</tspan></text>
</g>
<g id="Layer-1" data-name="Span">
<text fill="#2b3b52" xml:space="preserve" transform="matrix(1 0 -0 1 0 841.89)" font-size="9" font-family="Roboto"><tspan y="-529.6243" x="375.4931 378.1841">(f</tspan></text>
</g>
<g id="Layer-1" data-name="Span">
<text fill="#231f20" xml:space="preserve" transform="matrix(1 0 -0 1 0 841.89)" font-size="9" font-family="Roboto"><tspan y="-529.6243" x="380.9201">&#x00f4;</tspan></text>
</g>
<g id="Layer-1" data-name="Span">
<text fill="#2b3b52" xml:space="preserve" transform="matrix(1 0 -0 1 0 841.89)" font-size="9" font-family="Roboto"><tspan y="-529.6243" x="385.9961 389.1704 394.2221 399.047 401.0558 403.13658 407.84269 410.8001">rpaller)</tspan></text>
</g>
<text fill="#404041" xml:space="preserve" transform="matrix(1 0 -0 1 0 841.89)" font-size="9" font-family="Roboto"><tspan y="-499.5103" x="70.85211 76.52751 78.54351 80.64051 85.24671 89.95191 94.998218 100.065219 104.77132 107.79532 109.91032 111.926319 116.502819 120.770618 125.423618 127.47561 130.42671 133.45072 138.33322 140.40322 145.4432 150.05301 154.60701 156.70401 161.7566 164.78061 169.8665 174.89929 179.93839 184.66429 187.4129 192.119 195.143 197.258 199.274 201.371 206.0861 214.0916 219.14331 223.96732 225.97702 227.99303 232.82424 237.37824 239.50853 244.17144 245.89043 247.96582 252.64313 255.80304 258.55256 263.25776 266.36454 270.9743 276.06294 284.03694 286.10694 288.12294 293.00813 297.40824 302.0144 306.7196 311.6606 313.8026 315.8834 320.5274 324.87083 329.57695 332.58924 337.24226 341.79624 343.89326 345.97404 350.61805 354.96147 359.66758 364.71299 369.78089 374.4339 376.4859 379.3893 381.3981 383.4141 385.5111 390.0759 392.0919 396.97709 401.70298 404.45249 409.15769 412.30229 414.38398 419.06129 421.9503 424.0293 432.0636 436.7886 441.7926 443.8716 448.9242 451.94819 457.03138 462.06779 467.1042 472.15678 476.95198 479.94178">Vi sender ikke fra oss produkter i emballasje, ettersom laksen leveres levende til slakteriet med br&#x00f8;nnb&#x00e5;t.</tspan></text>
<g id="Layer-1" data-name="Artifact">
<clipPath id="cp690">
<path transform="matrix(1,0,0,-1,0,841.89)" d="M 0 0 L 595.276 0 L 595.276 841.89 L 0 841.89 Z "/>
</clipPath>
<g clip-path="url(#cp690)">
<filter id="blend_3"><feBlend mode="overlay" in2="BackgroundImage" in="SourceGraphic"/></filter>
<g filter="url(#blend_3)">
<clipPath id="cp691">
<path transform="matrix(1,0,0,-1,0,841.89)" d="M 69.8661 463.622 L 525.409 463.622 L 525.409 466.122 L 69.8661 466.122 Z "/>
</clipPath>
<g clip-path="url(#cp691)">
<path transform="matrix(1,0,0,-1,70.8661,377.0179)" stroke-width=".5" stroke-linecap="butt" stroke-miterlimit="4" stroke-linejoin="miter" fill="none" stroke="#b9bbbd" d="M 0 0 L 453.543 0 "/>
</g>
</g>
</g>
<g id="Layer-1" data-name="Span">
</g>
<text fill="#10a79d" xml:space="preserve" transform="matrix(1 0 -0 1 0 841.89)" font-size="15" font-family="Roboto"><tspan y="-418.949" x="70.8661 79.4071 87.3736 94.7671 100.2391 108.7651 112.5001 121.9261 129.7351 137.46012 141.30762 146.61312 154.45513 162.91512 166.77312 174.71413 180.37213 185.26512 193.11763 196.85263 200.70763 209.23062 217.64563 225.40964 233.49465 238.54965 246.34217 259.32917 267.41416 272.30717 280.24665 285.49217 289.30216 297.40965 301.26765 309.20713 314.47364 318.20866 326.74818 332.06718 340.5872 348.76969 353.90419">301-2 Resirkulerte innsatsmaterialer brukt </tspan></text>
</g>
<g id="Layer-1" data-name="Artifact">
<clipPath id="cp692">
<path transform="matrix(1,0,0,-1,0,841.89)" d="M 0 0 L 595.276 0 L 595.276 841.89 L 0 841.89 Z "/>
</clipPath>
<g clip-path="url(#cp692)">
<g filter="url(#blend_3)">
<clipPath id="cp693">
<path transform="matrix(1,0,0,-1,0,841.89)" d="M 69.8661 347.704 L 525.409 347.704 L 525.409 350.204 L 69.8661 350.204 Z "/>
</clipPath>
<g clip-path="url(#cp693)">
<path transform="matrix(1,0,0,-1,70.8661,492.9363)" stroke-width=".5" stroke-linecap="butt" stroke-miterlimit="4" stroke-linejoin="miter" fill="none" stroke="#b9bbbd" d="M 0 0 L 453.543 0 "/>
</g>
</g>
</g>
<g id="Layer-1" data-name="Span">
</g>
<text fill="#404041" xml:space="preserve" transform="matrix(1 0 -0 1 0 841.89)" font-size="9" font-family="Roboto"><tspan y="-394.4268" x="70.8661 77.022098 80.0461 84.922298 87.8689 92.7271 97.7644 102.7594 104.7754 109.6786 114.07869 118.63269 121.44788 126.46899 131.32718 134.35118 137.18527 141.89048 146.83147 149.68447 154.54267 159.26857 162.17198 164.2636 168.59259 171.45279 176.068 179.0002 182.0242 186.86351 189.61302 194.32993 199.32492 201.34093 204.16693 208.71643 213.64032 218.39862 221.55854 224.30805 228.98535 231.87436 234.66436 237.56777 239.57657 241.59258 244.40598 246.42198 251.48538 256.5218 261.0299 263.17283 268.25514 273.21324 274.93223 277.72224 282.7892 287.49534 290.51933 293.35255 297.81657 299.83256 302.64506 306.98936 311.66038 313.71507 318.79017 323.49629 326.52027 329.3535 334.38359 336.39958 341.23078 345.84596 349.00587 352.16938 356.67658 361.77058 366.47669 369.50068 372.3339 377.4288 382.4238 385.2228 393.2121 398.0073 400.7568 405.46293 408.6075 410.6235 415.47453 417.5562 422.2614 425.2854 428.11863 432.7284 437.8179 445.7919 448.57923 453.04414 457.90235 462.84336 465.69636 468.70866 473.36167 477.92646 479.94245 483.14375 487.62574 492.63426 494.71595 499.42115 502.43345 507.08647 511.75114 513.9021 516.6831 522.3576 524.3736">Gratanglaks har en aktiv strategi knyttet til innkj&#x00f8;p, der vi velger plasttyper og materialer som kan resirkuleres. Vi </tspan></text>
</g>
<g id="Layer-1" data-name="Span">
</g>
<g id="Layer-1" data-name="Span">
<text fill="#404041" xml:space="preserve" transform="matrix(1 0 -0 1 0 841.89)" font-size="9" font-family="Roboto"><tspan y="-383.6268" x="70.8661 75.37329 77.51619 82.59939 85.61169 90.31689 93.34089 95.527889 100.435588 103.580188 105.58988 107.643688 112.63869 114.82568 119.922389 124.97498 130.00508 132.04 139.95729 143.1019 145.1179 150.1822 155.1772 157.3642 162.4753 167.47029 169.65729 174.90789 177.03908 181.74428 186.78067 191.85666 196.94525 204.95525 210.00244 214.86064 219.89794 224.89293 227.07993 231.84003 236.16902 238.35602 242.78491 247.64311 250.66712 252.85411 257.6475 262.3464 265.1922 270.0162 272.0259 274.0356 278.6355 283.65663 288.51573 293.56114 298.65965 301.40916 306.11436 309.25984 311.27583 316.34104 321.43504">kj&#x00f8;rer &#x00e5;rlig oppl&#x00e6;ring og gjennomgang av v&#x00e5;r avfallsh&#x00e5;ndtering.</tspan></text>
</g>
<g id="Layer-1" data-name="Span">
<text fill="#10a79d" xml:space="preserve" transform="matrix(1 0 -0 1 0 841.89)" font-size="15" font-family="Roboto"><tspan y="-303.0306" x="70.8661 79.40109 87.8596 95.61609 100.70259 109.2271 112.9621 121.237598 129.7426 137.6821 142.8301 151.2901 155.08809 159.9901 168.4951 173.8006 182.33861 187.65761 196.17761 204.0301 207.7651 212.80962 217.97112 226.13112 229.86612 237.76363 246.27913 254.22763 262.72215 266.45713 274.0321 277.8796 283.1836 290.81559 298.5271 307.0321 320.0881 328.5646 336.43659">302-1 Energiforbruk fra egen virksomhet</tspan></text>
</g>
<g id="Layer-1" data-name="Span">
</g>
<g id="Layer-1" data-name="Span">
</g>
<g id="Layer-1" data-name="Span">
</g>
<g id="Layer-1" data-name="Span">
</g>
<g id="Layer-1" data-name="Span">
</g>
<g id="Layer-1" data-name="Span">
</g>
<g id="Layer-1" data-name="Span">
</g>
<g id="Layer-1" data-name="Span">
</g>
<g id="Layer-1" data-name="Span">
</g>
<g id="Layer-1" data-name="Span">
</g>
<g id="Layer-1" data-name="Span">
</g>
<g id="Layer-1" data-name="Span">
</g>
<text fill="#404041" xml:space="preserve" transform="matrix(1 0 -0 1 0 841.89)" font-size="9" font-family="Roboto"><tspan y="-278.5084" x="70.8661 73.26009 75.77109 80.86599 85.86099 88.344989 96.38019 101.10429 106.108287 108.58328 113.37848 116.26748 118.74248 123.80678 128.61458 133.0633 138.04929 140.51529 145.61019 150.60518 153.08917 157.94738 160.95967 165.66577 170.72737 175.38037 177.82837 180.73178 182.79459 187.79859 189.80739 191.86209 196.93718 201.64328 204.65558 209.30858 211.75748 216.46358 219.48758 221.99858 226.54808 231.47197 236.23027 239.39019 242.1397 246.817 249.70601 252.181 255.08441 257.09413 259.1101 261.60313 266.239 271.10533 279.1234 284.15803 287.3026 289.36003 292.5649 295.45393 297.92893 305.9641 310.68824 315.69224 318.16725 323.86244 325.9432 330.6151 332.7067 337.06 341.884 344.368 349.435 351.4456 356.0446 360.31239 364.9654 367.79319 372.6514 375.8347 383.9275 385.64649 388.1179 392.5828 394.5925 396.6085 399.1015 401.1175 405.694 409.9618 414.6148 417.0628 421.92103 424.93333 429.63853 434.70103 439.35404 441.80204 444.75315 447.77714 452.60115 455.13017 460.19447 465.30107 470.36537 475.35136 477.81736 482.29936 487.33848 492.37489 497.4365 502.0895 504.5375 508.85664 516.7739 519.7862 524.4392">I og med at 2019 og &#x00e5;rene tidligere er knyttet til samdrift med Kleiva Fiskefarm, vil ikke &#x00e5;rene fra 2020 kunne v&#x00e6;re </tspan><tspan y="-267.7084" x="70.8661 75.870098 77.88609 80.92539 85.63059 90.35739 93.10599 97.75899 100.00899 104.64489 109.511188 117.52478 125.55908 130.26519 135.27278 137.28249 139.33629 144.37989 149.41628 154.46889 159.32619 162.33849 166.99149 169.24149 177.27579 182.0008 187.00479 189.28179 194.34969 199.027 202.1869 204.93642 209.58942 211.83942 219.82872 224.62393 227.37345 232.07865 235.22325 237.23926 242.09026 244.17107 248.84928 251.83818 253.98918 256.25718 262.41047 267.06349 269.31349 274.2545 276.33619 280.95137 283.70536 288.78498 291.92958 293.94017 298.54005 302.80784 307.46086 309.71086 312.65745 317.48146 319.49024 321.57194 326.27714 331.33964 335.99266 338.24266 341.03627 346.11677 349.14076 351.45378 356.51808 361.32588 365.77458 370.76057 373.02857 378.12257 383.11756 385.40357 388.30699 390.36979 395.37379 397.38258 399.43727 404.51237 409.21757 412.23075 416.89277 418.61177 420.88517 425.59129 428.61528 430.92829 435.99528 440.7014 444.08088 446.87538 451.955 454.97898 457.292 459.30799 463.8845 468.15229 472.8053 475.0553 479.3987 484.10484 488.83073 491.73414 493.75013 498.61463 503.7221 506.6111 508.88813 513.50247 516.2564 521.3369 524.3609">direkte sammenlignbare med dette materialet. De historiske tallene for 2019 og tidligere, er derfor ikke vektlagt stor </tspan><tspan y="-256.90843" x="70.8661 75.210399 79.915599 82.9396 87.943599 90.033397 92.184398 94.37139 100.52379 105.17679 107.363788 112.05009 115.07409 117.261089 119.31938 121.33538 125.63018 130.27419 134.61759 139.28949 141.3055 143.4925 146.4679 151.2631 154.42302 157.31203 159.49903 167.54143 172.26644 177.27043 179.45743 181.47344 183.66043 188.76343 193.46953 198.50592 203.56842 208.22142 210.40842 213.43242 218.31763 223.37023 228.46063 233.54022 236.96743 239.71694 244.42214 249.36313 251.55013 254.41483 259.49534 262.51933 264.70634 269.53034 271.71736 276.24708 278.25679 282.86296 287.51597 289.70298 294.3614 297.2504 299.4374 302.32643 304.4072 309.4112 314.01109 319.04118 321.04997 323.11366 328.18064 332.83366 335.02067 339.74476 344.07377 346.26078 352.41679 355.44078 360.38899 363.33558 368.1938 373.232 378.227 380.24299 385.14619 389.5463 394.10029 396.2873 398.30329 400.4903 405.6446 410.3498 413.4944 415.58869 420.6737 425.7407 430.4468 435.38783 437.57484 445.67933 450.40434 455.40834 457.59535 462.23844 467.10475 475.12284 480.15653 483.30113 485.3594 488.5643 491.5541">verdi. De er likevel tatt med i denne rapporten for &#x00e5; vise et tidsbilde av Gratanglaks i perioden med samdrift.</tspan><tspan y="-235.30841" x="70.8661 76.997798 80.143299 82.23489 86.6224 91.2376 93.9907 98.9065 102.062808 104.749309 107.3233 110.7613 115.8562 120.851207 123.101207 127.807308 132.86891 137.57501 140.58731 145.5823 147.65862 150.45313 155.53272 158.70702 163.76053 166.94384 171.98203 176.24983 180.92804 183.81705 186.05805 188.96146 190.97026 192.98627 195.24527 201.40128 204.42528 209.30149 212.2481 217.1063 222.14359 227.13858 229.15459 234.05779 238.45789 243.01189 245.27089 250.29288 255.15108 258.17509 260.4521 265.1582 270.0992 272.40324 277.46574 282.18986 287.23075 292.27793 297.13615 302.17436 307.16935 309.41935 312.37135 315.39533 320.21934 322.51435 327.57865 332.38645 336.83515 341.81306 343.53205 345.76496 353.80015 358.50535 363.44636 365.75038 370.45558 373.47956 375.75657 380.83528 385.79609 390.1566 394.8627 397.875 402.528 404.74205 409.44725 414.48457 419.42558 421.72959 426.5878 429.6001 434.3062 439.36784 444.02085 446.23487 449.13829 451.20198 456.20597 458.21568 460.26948 465.34458 470.0507 473.063 477.6827 479.8337 482.06575 488.48365 492.83695 497.66096 499.91096 504.97795 509.68406 514.72048 519.78298 524.436">Drivstoff- og energiforbruket til Gratanglaks har en nedgang fra 2019, men er h&#x00f8;yere enn &#x00e5;rene tidligere. Hva denne </tspan><tspan y="-224.5084" x="70.8661 75.948398 80.4979 85.5064 87.5224 92.5876 97.662708 102.368808 107.30981 110.2375 114.8374 119.56691 124.04441 126.10721 131.17511 135.82811 140.50902 142.22801 145.09001 149.79521 152.81922 155.72621 160.8013 165.9169 170.5699 173.4085 178.34949 182.98719 185.00319 189.5797 193.8475 198.5527 201.9799 204.96971 207.12071 209.97821 215.65361 217.66962 220.55861 225.61122 228.63523 233.72022 238.7539 243.6949 248.37311 253.07831 256.0915 260.7967 263.82069 266.7277 274.76289 279.487 284.491 287.3557 289.3717 294.2569 299.3023 304.3063 308.92149 311.8537 314.8777 319.969 327.943 330.805 335.8567 340.6807 343.5553 349.0606 353.5255 358.38374 361.558 366.652 371.35813 374.37043 379.46443 383.92933 385.9453 390.4381 395.26213 398.13493 403.22984 408.22483 411.09855 416.79106 424.77314 429.81135 434.85765 439.86164 444.4291 448.89314 450.90913 455.40104 460.33845 462.48945 465.34696 471.49934 476.20545 479.31224 483.9211 489.01063 496.98463 499.84663 504.9415 509.6575 514.70657 519.78256 524.43557">&#x00f8;kningen skyldes, er noe usikkert. Vi produserer med landstr&#x00f8;m p&#x00e5; Skarbergvika og &#x00c5;mundsvika. Dersom begge </tspan><tspan y="-213.7084" x="70.8661 75.870098 77.88069 82.491397 87.097599 91.750598 94.32459 96.41889 101.49849 105.963397 110.78739 112.79709 114.90219 117.65169 122.32899 125.07848 129.78459 134.84619 139.49919 142.07318 146.77838 149.80239 152.44568 154.46169 157.08069 162.13419 165.31749 170.35569 174.76569 177.36669 182.00258 186.86888 194.78708 197.67609 199.7488 204.75279 206.8075 211.94469 213.66368 216.26198 220.89788 225.72188 228.33188 232.79677 234.80558 236.82158 239.44058 244.11159 246.1933 250.8994 255.6253 258.55754 261.70213 263.7127 268.27839 270.38349 273.133 277.8103 280.6993 285.26679 288.06129 293.1409 296.3152 301.36869 304.55198 309.59019 313.85798 318.5362 321.4252 324.0262 329.10853 333.3763 337.99693 340.14793 342.73994 348.8923 353.57054 356.45954 359.06056 363.76576 366.78974 369.43217 372.22666 377.30717 380.72087 385.06428 389.7704 394.7357 397.4852 402.16343 405.05244 407.65345 412.44776 415.33677 417.93778 420.73228 425.81278 428.98707 434.03965 437.22294 442.26206 446.52986 451.20716 454.09617 456.69718 461.16209 463.17088 465.18687 467.80589 472.88819 477.15599 481.809 484.383 489.14219 492.30119 495.0507 499.7568 502.9014 504.9102 506.96488 512.04 516.7461 519.75839 524.4114">disse lokalitetene er i bruk samtidig, s&#x00e5; vil elektrisitetsforbruket &#x00f8;ke. Det er forventet at forbruket vil &#x00f8;ke ytterligere </tspan><tspan y="-202.9084" x="70.8661 78.9004 83.6254 88.629398 90.81639 95.49819 97.57989 102.28509 107.01099 109.944087 113.088687 115.24688 118.22588 120.12938 124.73558 129.44078 132.58539 134.6014 139.6657 144.74169 149.44689 154.56787 156.28687 158.47386 166.51447 171.21967 176.16066 178.34766 183.05376 187.92006 195.83736 198.74077 200.80358 205.80757 207.86138 212.85637 215.04337 217.85407 222.93456 226.34825 230.69165 235.39775 240.36305 243.11257 247.81777 250.84177 253.02877 257.54316 259.55915 261.74617 266.57017 269.45918 271.64619 276.65919 278.73997 283.39299 287.99827 292.67018 294.72758 297.52207 302.60258 305.77687 310.82945 314.01274 319.05186 323.31965 327.99696 330.88597 333.07298 338.12916 342.98738 346.01136 348.19837 353.30949 358.0345 363.1204 365.2714">med elektrifiseringen, men samtidig forventer vi at dieselforbruket g&#x00e5;r ned. </tspan><tspan y="-181.3084" x="70.8661 75.7828 78.942699 81.69129 86.39739 89.421398 92.56329 97.30719 101.694698 106.2604 108.2764 113.4064 116.3386 121.3471 123.3631 128.4283 133.50339 138.20949 143.15048 146.31398 151.05789 155.38689 158.55579 163.19168 168.05799 176.07608 181.10977 184.25438 186.31269 189.5176 192.4066 195.508 203.5423 208.2673 213.2713 216.3718 222.067 224.14871 228.81972 230.91223 235.26464 240.08864 243.19814 248.26514 250.27574 254.87564 259.14344 263.77397 266.61976 271.47798 274.66127 282.75495 284.47395 287.57176 292.27787 297.32328 302.42268 305.17127 309.82429 312.8978 317.3627 319.3787 322.5008 327.5813 332.63389 337.61988 340.74198 348.77629 353.50129 358.50529 361.6058 366.4298 369.53843 374.1446 378.8228 381.9818 384.73133 389.38435 392.45787 397.56086 400.44987 403.55128 406.53028 408.43379 413.03367 417.44367 420.54869 425.60127 430.42527 433.53388 438.51988 441.6168 443.71018 448.79069 453.25559 458.0796 460.08839 462.19438 464.94389 469.6212 472.3707 477.0759 480.09989 483.2427 487.8786 492.7449 500.7252 502.8069 507.4842 510.3732 513.47549 516.26907 521.34957 524.37356">Etter avslutningen av samdrift med Kleiva Fiskefarm, endte vi opp med &#x00e5; sette ut fisk p&#x00e5; 4 lokaliteter samlet for </tspan><tspan y="-170.50839" x="70.8661 75.899799 79.044399 81.10269 84.307598 87.196598 91.8316 96.6898 99.702098 104.380298 107.421398 109.140399 111.283298 119.315799 124.2559 127.1449 129.2914 134.2774 136.4185 138.5119 143.59239 148.0573 152.8813 154.8901 156.99611 159.74472 164.42293 167.17244 171.87764 174.90164 177.08864 181.72454 186.59084 194.57114 196.65285 201.33016 204.21916 206.36566 209.16017 214.23976 217.26377 219.45076 224.48445 227.62906 229.68737 232.89228 235.78128 240.41628 245.27448 248.28678 252.99288 258.05448 262.7075 264.8261 269.8895 274.6973 279.146 284.132 286.2731 291.368 296.363 298.51673 301.42015 303.48295 308.48695 310.49574 312.5504 317.62553 322.33073 325.3439 329.96363 332.11463 334.25215 339.52076 344.24577 349.24977 351.39448 354.48777 356.56855 361.27467 364.28697 368.93998 371.05769 373.15199 378.2316 382.6965 387.5205 389.5302 391.6353 394.38484 399.06306 401.81166 406.51777 409.54176 411.72877 413.74476 415.91108 420.96366 424.14695 429.18608 433.84809 435.56709 437.71 442.174 444.18373 446.1997 448.36604 453.43394 458.11125 461.00025 463.14677 468.24076 473.23576 477.88966 482.71366 484.86738 489.1865 497.10383 500.11613 504.76914 506.88777 509.98017 512.0618 516.767 519.7793 524.4323">drifts&#x00e5;ret, mot 3 lokaliteter samlet for drifts&#x00e5;rene 2019 og tidligere. Ved flere lokaliteter i bruk, vil det ogs&#x00e5; v&#x00e6;re flere </tspan><tspan y="-159.70839" x="70.8661 75.91779 80.71299 83.46249 88.16859 91.19259 93.47588 95.49188 97.75088 102.803478 105.98678 111.02498 115.63298 117.78398 120.015979 126.16928 130.84749 134.0065 136.75601 141.40901 143.623 148.0879 152.9461 157.8871 160.1911 164.5102 172.42839 175.44069 180.09369 182.30768 187.16588 190.27268 194.90857 199.76677 204.03458 208.74068 213.68167 215.98567 218.88909 220.89789 222.9139 225.1729 229.8511 232.74011 234.98111 240.06342 244.78932 247.67833 249.92023 254.92423 257.00593 261.65895 266.2651 270.93614 272.99354 275.78895 280.86857 284.04286 289.09635 292.27964 297.31697 301.72697 303.97517 305.99116 308.25016 313.31446 318.12226 322.57096 327.55696 329.78898 334.88389 339.87889 342.12889 347.19319 352.29978 357.36408 362.39329 364.54429 366.7763 369.17033 371.44734 376.51164 381.31944 385.76814 390.75413 392.99244 398.02253 400.10423 404.75724 406.97126 412.03916 416.71647 419.60548 421.84648 426.94047 431.93547 436.58937 441.41337 443.66337 448.34068 451.22969 453.47068 458.55299 463.2798 466.1688 468.4098 473.4633 476.64659 481.68479 486.0948 488.3421 493.086 497.415 499.72444 504.777 509.5722 512.32168 517.02688 520.05087 522.33419 524.35018">b&#x00e5;ter i bruk. Dette kan v&#x00e6;re &#x00e5;rsaken til et &#x00f8;kt dieselforbruk i 2019 og 2020. I 2019 ble det ogs&#x00e5; et &#x00f8;kt bruk av b&#x00e5;ter i </tspan><tspan y="-148.90839" x="70.8661 73.6606 78.7366 81.9118 86.9419 88.9822 93.9592 99.0982 103.7872 105.7789 110.3851 115.0174 117.2044 125.2396 129.9637 134.9731 137.16011 141.98412 144.03612 149.11122 153.80022 158.88433 161.80933 166.83133 170.05063 175.02764 180.06763 185.21652 189.89382 192.88362">forbindelse med algeutbruddet.</tspan></text>
<text fill="#404041" xml:space="preserve" transform="matrix(1 0 -0 1 0 841.89)" font-size="8" font-family="Roboto" font-weight="bold"><tspan y="-44.7402" x="70.8661 75.59409">72</tspan></text>
<text fill="#404041" xml:space="preserve" transform="matrix(1 0 -0 1 0 841.89)" font-size="7" font-family="Roboto"><tspan y="-29.016" x="70.8661 77.0772 79.2192 83.3604 87.3875 92.35259 98.596599 102.634899 107.1226 111.5536 113.712398 118.5487 122.4246 124.1676 126.3096 131.3979 136.19989 138.34189 143.23419 147.41249 151.6377 156.5916 161.1962 165.2247">MILJ&#x00d8;MESSIGE INDIKATORER</tspan></text>
<g id="Layer-1" data-name="Artifact">
<clipPath id="cp694">
<path transform="matrix(1,0,0,-1,0,841.89)" d="M 0 0 L 595.276 0 L 595.276 841.89 L 0 841.89 Z "/>
</clipPath>
<g clip-path="url(#cp694)">
<path transform="matrix(1,0,0,-1,1119.685,802.3869)" stroke-width=".5" stroke-linecap="butt" stroke-miterlimit="4" stroke-linejoin="miter" fill="none" stroke="#404041" d="M 0 0 L -1048.819 0 "/>
</g>
<g id="Layer-1" data-name="Span">
</g>
<text fill="#404041" xml:space="preserve" transform="matrix(1 0 -0 1 0 841.89)" font-size="5" font-family="Roboto" font-weight="bold"><tspan y="-805.9686" x="70.8661 74.1961 77.381099 80.3461 82.9486 86.1286 89.6586 92.9886 95.8126 98.9926 102.1776 105.26759 106.512599 109.6926">GRATANGLAKS AS</tspan></text>
</g>
<g id="Layer-1" data-name="Span">
</g>
<g id="Layer-1" data-name="Span">
<text fill="#595959" xml:space="preserve" transform="matrix(1 0 -0 1 0 841.89)" font-size="5" font-family="Roboto"><tspan y="-805.9686" x="119.143 122.428 127.273 130.52301 133.533 136.838 140.088 143.51799 146.50099 149.616 152.75099 156.00099 159.43099 162.75598 166.08098 169.69098 172.74448">B&#x00c6;REKRAFTSRAPPORT</tspan></text>
</g>
<text fill="#404041" xml:space="preserve" transform="matrix(1 0 -0 1 0 841.89)" font-size="5" font-family="Roboto" font-weight="bold"><tspan y="-805.9686" x="179.688 182.558 185.428 188.29799">2020</tspan></text>
<g id="Layer-1" data-name="Artifact">
<clipPath id="cp695">
<path transform="matrix(1,0,0,-1,0,841.89)" d="M 0 0 L 595.276 0 L 595.276 841.89 L 0 841.89 Z "/>
</clipPath>
<g clip-path="url(#cp695)">
<path transform="matrix(1,0,0,-1,70.8661,39.3869)" stroke-width=".5" stroke-linecap="butt" stroke-miterlimit="4" stroke-linejoin="miter" fill="none" stroke="#404041" d="M 0 0 L 1048.819 0 "/>
</g>
</g>
</g>
</g>
</svg>
